# DIMKO.app — selection export
# Generated: 2026-07-29T08:04:08.009Z
o item_92b0f140_1129802
v -10.619997 20.324998 7.615000
v -10.619997 20.325705 7.615707
v -10.619997 20.312412 7.629000
v -10.619997 20.348944 7.629000
v -10.619997 20.319753 7.071000
v -10.619997 20.283116 7.071000
v -10.619997 20.296409 7.084293
v -10.619997 20.295702 7.085000
v -10.619997 20.280702 7.070000
v -10.619997 20.320702 7.070000
v -10.619997 20.349998 7.630000
v -10.619997 20.309998 7.630000
v -22.480426 20.324998 7.615000
v -22.494463 20.309998 7.630000
v -22.494463 20.349998 7.630000
v -21.970424 20.320702 7.070000
v -21.970424 20.280702 7.070000
v -21.984461 20.295702 7.085000
v -21.983799 20.296409 7.084293
v -21.971360 20.283116 7.071000
v -21.971360 20.319753 7.071000
v -22.493527 20.348944 7.629000
v -22.493527 20.312412 7.629000
v -22.481088 20.325705 7.615707
v -10.619997 20.349998 7.630000
v -10.619997 20.320702 7.070000
v -21.970424 20.320702 7.070000
v -22.494463 20.349998 7.630000
v -10.619997 20.348944 7.629000
v -10.619997 20.312412 7.629000
v -22.493527 20.312412 7.629000
v -22.493527 20.348944 7.629000
v -22.494463 20.309998 7.630000
v -22.480426 20.324998 7.615000
v -10.619997 20.324998 7.615000
v -10.619997 20.309998 7.630000
v -22.494463 20.349998 7.630000
v -22.494463 20.309998 7.630000
v -10.619997 20.309998 7.630000
v -10.619997 20.349998 7.630000
v -22.493527 20.348944 7.629000
v -21.971360 20.319753 7.071000
v -10.619997 20.319753 7.071000
v -10.619997 20.348944 7.629000
v -21.971360 20.319753 7.071000
v -21.971360 20.283116 7.071000
v -10.619997 20.283116 7.071000
v -10.619997 20.319753 7.071000
v -10.619997 20.296409 7.084293
v -10.619997 20.283116 7.071000
v -21.971360 20.283116 7.071000
v -21.983799 20.296409 7.084293
v -10.619997 20.295702 7.085000
v -10.619997 20.296409 7.084293
v -21.983799 20.296409 7.084293
v -21.984461 20.295702 7.085000
v -21.984461 20.295702 7.085000
v -21.970424 20.280702 7.070000
v -10.619997 20.280702 7.070000
v -10.619997 20.295702 7.085000
v -10.619997 20.320702 7.070000
v -10.619997 20.280702 7.070000
v -21.970424 20.280702 7.070000
v -21.970424 20.320702 7.070000
v -10.619997 20.325705 7.615707
v -10.619997 20.324998 7.615000
v -22.480426 20.324998 7.615000
v -22.481088 20.325705 7.615707
v -10.619997 20.312412 7.629000
v -10.619997 20.325705 7.615707
v -22.481088 20.325705 7.615707
v -22.493527 20.312412 7.629000
f 12 1 2
f 6 7 8
f 12 2 3
f 6 8 9
f 11 12 3
f 5 6 9
f 11 3 4
f 5 9 10
f 10 11 4
f 4 5 10
f 23 24 13
f 17 18 19
f 23 13 14
f 17 19 20
f 22 23 14
f 16 17 20
f 22 14 15
f 16 20 21
f 21 22 15
f 15 16 21
f 25 26 28
f 28 26 27
f 29 30 32
f 32 30 31
f 33 34 36
f 36 34 35
f 37 38 40
f 40 38 39
f 41 42 44
f 44 42 43
f 45 46 48
f 48 46 47
f 49 50 52
f 52 50 51
f 53 54 56
f 56 54 55
f 57 58 60
f 60 58 59
f 61 62 64
f 64 62 63
f 65 66 68
f 68 66 67
f 69 70 72
f 72 70 71
o item_92b0f140_1129883
v -22.484666 20.325000 7.617308
v -22.485328 20.325707 7.618016
v -22.497771 20.312411 7.631312
v -22.497771 20.348950 7.631312
v -21.975467 20.319754 7.073139
v -21.975467 20.283110 7.073139
v -21.987909 20.296406 7.086435
v -21.988571 20.295699 7.087143
v -21.974531 20.280696 7.072138
v -21.974531 20.320703 7.072138
v -22.498707 20.350004 7.632313
v -22.498707 20.309997 7.632313
v -23.309929 20.325000 -4.861665
v -23.324896 20.309997 -4.860669
v -23.324896 20.350004 -4.860669
v -22.766133 20.320703 -4.897853
v -22.766133 20.280696 -4.897853
v -22.781100 20.295699 -4.896857
v -22.780395 20.296406 -4.896904
v -22.767131 20.283110 -4.897787
v -22.767131 20.319754 -4.897787
v -23.323898 20.348950 -4.860735
v -23.323898 20.312411 -4.860735
v -23.310634 20.325707 -4.861618
v -22.766133 20.320703 -4.897853
v -23.324896 20.350004 -4.860669
v -22.498707 20.350004 7.632313
v -21.974531 20.320703 7.072138
v -22.497771 20.348950 7.631312
v -22.497771 20.312411 7.631312
v -23.323898 20.312411 -4.860735
v -23.323898 20.348950 -4.860735
v -22.484666 20.325000 7.617308
v -22.498707 20.309997 7.632313
v -23.324896 20.309997 -4.860669
v -23.309929 20.325000 -4.861665
v -22.498707 20.309997 7.632313
v -22.498707 20.350004 7.632313
v -23.324896 20.350004 -4.860669
v -23.324896 20.309997 -4.860669
v -21.975467 20.319754 7.073139
v -22.497771 20.348950 7.631312
v -23.323898 20.348950 -4.860735
v -22.767131 20.319754 -4.897787
v -21.975467 20.283110 7.073139
v -21.975467 20.319754 7.073139
v -22.767131 20.319754 -4.897787
v -22.767131 20.283110 -4.897787
v -22.767131 20.283110 -4.897787
v -22.780395 20.296406 -4.896904
v -21.987909 20.296406 7.086435
v -21.975467 20.283110 7.073139
v -22.780395 20.296406 -4.896904
v -22.781100 20.295699 -4.896857
v -21.988571 20.295699 7.087143
v -21.987909 20.296406 7.086435
v -21.974531 20.280696 7.072138
v -21.988571 20.295699 7.087143
v -22.781100 20.295699 -4.896857
v -22.766133 20.280696 -4.897853
v -22.766133 20.280696 -4.897853
v -22.766133 20.320703 -4.897853
v -21.974531 20.320703 7.072138
v -21.974531 20.280696 7.072138
v -23.309929 20.325000 -4.861665
v -23.310634 20.325707 -4.861618
v -22.485328 20.325707 7.618016
v -22.484666 20.325000 7.617308
v -23.310634 20.325707 -4.861618
v -23.323898 20.312411 -4.860735
v -22.497771 20.312411 7.631312
v -22.485328 20.325707 7.618016
f 84 73 74
f 78 79 80
f 84 74 75
f 78 80 81
f 83 84 75
f 77 78 81
f 83 75 76
f 77 81 82
f 82 83 76
f 76 77 82
f 95 96 85
f 89 90 91
f 95 85 86
f 89 91 92
f 94 95 86
f 88 89 92
f 94 86 87
f 88 92 93
f 93 94 87
f 87 88 93
f 97 98 100
f 100 98 99
f 101 102 104
f 104 102 103
f 105 106 108
f 108 106 107
f 109 110 112
f 112 110 111
f 113 114 116
f 116 114 115
f 117 118 120
f 120 118 119
f 121 122 124
f 124 122 123
f 125 126 128
f 128 126 127
f 129 130 132
f 132 130 131
f 133 134 136
f 136 134 135
f 137 138 140
f 140 138 139
f 141 142 144
f 144 142 143
o item_92b0f140_1129934
v -9.622450 20.325000 -5.711895
v -9.621744 20.325707 -5.711942
v -9.608481 20.312411 -5.712825
v -9.608481 20.348950 -5.712825
v -10.165247 20.319754 -5.675768
v -10.165247 20.283110 -5.675768
v -10.151984 20.296406 -5.676651
v -10.151278 20.295699 -5.676698
v -10.166245 20.280696 -5.675702
v -10.166245 20.320703 -5.675702
v -9.607483 20.350004 -5.712891
v -9.607483 20.309997 -5.712891
v -9.203788 20.325000 0.618782
v -9.188755 20.309997 0.618782
v -9.188755 20.350004 0.618782
v -9.749979 20.320703 0.618753
v -9.749979 20.280696 0.618753
v -9.734946 20.295699 0.618754
v -9.735654 20.296406 0.618754
v -9.748976 20.283110 0.618753
v -9.748976 20.319754 0.618753
v -9.189757 20.348950 0.618783
v -9.189757 20.312411 0.618783
v -9.203079 20.325707 0.618782
v -9.607483 20.350004 -5.712891
v -10.166245 20.320703 -5.675702
v -9.749979 20.320703 0.618753
v -9.188755 20.350004 0.618782
v -9.189757 20.312411 0.618783
v -9.189757 20.348950 0.618783
v -9.608481 20.348950 -5.712825
v -9.608481 20.312411 -5.712825
v -9.188755 20.309997 0.618782
v -9.203788 20.325000 0.618782
v -9.622450 20.325000 -5.711895
v -9.607483 20.309997 -5.712891
v -9.607483 20.309997 -5.712891
v -9.607483 20.350004 -5.712891
v -9.188755 20.350004 0.618782
v -9.188755 20.309997 0.618782
v -9.189757 20.348950 0.618783
v -9.748976 20.319754 0.618753
v -10.165247 20.319754 -5.675768
v -9.608481 20.348950 -5.712825
v -9.748976 20.319754 0.618753
v -9.748976 20.283110 0.618753
v -10.165247 20.283110 -5.675768
v -10.165247 20.319754 -5.675768
v -10.151984 20.296406 -5.676651
v -10.165247 20.283110 -5.675768
v -9.748976 20.283110 0.618753
v -9.735654 20.296406 0.618754
v -10.151278 20.295699 -5.676698
v -10.151984 20.296406 -5.676651
v -9.735654 20.296406 0.618754
v -9.734946 20.295699 0.618754
v -9.734946 20.295699 0.618754
v -9.749979 20.280696 0.618753
v -10.166245 20.280696 -5.675702
v -10.151278 20.295699 -5.676698
v -9.749979 20.280696 0.618753
v -9.749979 20.320703 0.618753
v -10.166245 20.320703 -5.675702
v -10.166245 20.280696 -5.675702
v -9.621744 20.325707 -5.711942
v -9.622450 20.325000 -5.711895
v -9.203788 20.325000 0.618782
v -9.203079 20.325707 0.618782
v -9.608481 20.312411 -5.712825
v -9.621744 20.325707 -5.711942
v -9.203079 20.325707 0.618782
v -9.189757 20.312411 0.618783
f 156 145 146
f 150 151 152
f 156 146 147
f 150 152 153
f 155 156 147
f 149 150 153
f 155 147 148
f 149 153 154
f 154 155 148
f 148 149 154
f 167 168 157
f 161 162 163
f 167 157 158
f 161 163 164
f 166 167 158
f 160 161 164
f 166 158 159
f 160 164 165
f 165 166 159
f 159 160 165
f 169 170 172
f 172 170 171
f 173 174 176
f 176 174 175
f 177 178 180
f 180 178 179
f 181 182 184
f 184 182 183
f 185 186 188
f 188 186 187
f 189 190 192
f 192 190 191
f 193 194 196
f 196 194 195
f 197 198 200
f 200 198 199
f 201 202 204
f 204 202 203
f 205 206 208
f 208 206 207
f 209 210 212
f 212 210 211
f 213 214 216
f 216 214 215
