# DIMKO.app — selection export
# Generated: 2026-07-29T08:07:11.763Z
o item_92b0f140_477845
v -20.977710 24.322117 -32.931769
v -20.963069 24.307114 -32.937684
v -20.963069 24.347121 -32.937684
v -21.016754 24.350003 -32.915996
v -21.016754 24.365006 -32.915996
v -21.017730 24.365006 -32.915601
v -21.017730 24.349054 -32.915601
v -20.964045 24.346172 -32.937290
v -20.964045 24.309528 -32.937290
v -20.977020 24.322824 -32.932047
v -21.030034 24.307114 -33.950283
v -21.045718 24.322117 -33.960123
v -21.044978 24.322824 -33.959659
v -21.031080 24.309528 -33.950939
v -21.031080 24.346172 -33.950939
v -21.088586 24.349054 -33.987020
v -21.088586 24.365006 -33.987020
v -21.087540 24.365006 -33.986364
v -21.087540 24.350003 -33.986364
v -21.030034 24.347121 -33.950283
v -21.016754 24.350003 -32.915996
v -20.963069 24.347121 -32.937684
v -21.030034 24.347121 -33.950283
v -21.087540 24.350003 -33.986364
v -21.016754 24.365006 -32.915996
v -21.016754 24.350003 -32.915996
v -21.087540 24.350003 -33.986364
v -21.087540 24.365006 -33.986364
v -21.017730 24.365006 -32.915601
v -21.016754 24.365006 -32.915996
v -21.087540 24.365006 -33.986364
v -21.088586 24.365006 -33.987020
v -21.088586 24.365006 -33.987020
v -21.088586 24.349054 -33.987020
v -21.017730 24.349054 -32.915601
v -21.017730 24.365006 -32.915601
v -21.088586 24.349054 -33.987020
v -21.031080 24.346172 -33.950939
v -20.964045 24.346172 -32.937290
v -21.017730 24.349054 -32.915601
v -21.031080 24.346172 -33.950939
v -21.031080 24.309528 -33.950939
v -20.964045 24.309528 -32.937290
v -20.964045 24.346172 -32.937290
v -20.977020 24.322824 -32.932047
v -20.964045 24.309528 -32.937290
v -21.031080 24.309528 -33.950939
v -21.044978 24.322824 -33.959659
v -20.977710 24.322117 -32.931769
v -20.977020 24.322824 -32.932047
v -21.044978 24.322824 -33.959659
v -21.045718 24.322117 -33.960123
v -21.045718 24.322117 -33.960123
v -21.030034 24.307114 -33.950283
v -20.963069 24.307114 -32.937684
v -20.977710 24.322117 -32.931769
v -21.030034 24.307114 -33.950283
v -21.030034 24.347121 -33.950283
v -20.963069 24.347121 -32.937684
v -20.963069 24.307114 -32.937684
f 9 10 1
f 4 5 6
f 9 1 2
f 4 6 7
f 8 9 2
f 3 4 7
f 8 2 3
f 3 7 8
f 11 12 13
f 16 17 18
f 11 13 14
f 16 18 19
f 20 11 14
f 15 16 19
f 20 14 15
f 15 19 20
f 21 22 24
f 24 22 23
f 25 26 28
f 28 26 27
f 29 30 32
f 32 30 31
f 33 34 36
f 36 34 35
f 37 38 40
f 40 38 39
f 41 42 44
f 44 42 43
f 45 46 48
f 48 46 47
f 49 50 52
f 52 50 51
f 53 54 56
f 56 54 55
f 57 58 60
f 60 58 59
o item_92b0f140_1127539
v 6.693544 20.449127 0.949009
v 6.693544 20.412490 0.949009
v 6.693544 20.425778 0.935712
v 6.693544 20.425071 0.935003
v 6.693544 20.410077 0.950010
v 6.693544 20.450076 0.950009
v 6.693544 20.452992 0.893989
v 6.693544 20.467991 0.893988
v 6.693544 20.467991 0.892988
v 6.693544 20.452043 0.892988
v 9.498496 20.452043 0.892988
v 9.498496 20.467991 0.892988
v 9.498496 20.467991 0.893988
v 9.498496 20.452992 0.893989
v 9.498496 20.450076 0.950009
v 9.498496 20.410077 0.950010
v 9.498496 20.425071 0.935003
v 9.498496 20.425778 0.935712
v 9.498496 20.412490 0.949009
v 9.498496 20.449127 0.949009
v 9.498496 20.410077 0.950010
v 9.498496 20.450076 0.950009
v 6.693544 20.450076 0.950009
v 6.693544 20.410077 0.950010
v 9.498496 20.425071 0.935003
v 9.498496 20.410077 0.950010
v 6.693544 20.410077 0.950010
v 6.693544 20.425071 0.935003
v 9.498496 20.425778 0.935712
v 9.498496 20.425071 0.935003
v 6.693544 20.425071 0.935003
v 6.693544 20.425778 0.935712
v 9.498496 20.412490 0.949009
v 9.498496 20.425778 0.935712
v 6.693544 20.425778 0.935712
v 6.693544 20.412490 0.949009
v 9.498496 20.449127 0.949009
v 9.498496 20.412490 0.949009
v 6.693544 20.412490 0.949009
v 6.693544 20.449127 0.949009
v 9.498496 20.452043 0.892988
v 9.498496 20.449127 0.949009
v 6.693544 20.449127 0.949009
v 6.693544 20.452043 0.892988
v 9.498496 20.467991 0.892988
v 9.498496 20.452043 0.892988
v 6.693544 20.452043 0.892988
v 6.693544 20.467991 0.892988
v 9.498496 20.467991 0.893988
v 9.498496 20.467991 0.892988
v 6.693544 20.467991 0.892988
v 6.693544 20.467991 0.893988
v 9.498496 20.452992 0.893989
v 9.498496 20.467991 0.893988
v 6.693544 20.467991 0.893988
v 6.693544 20.452992 0.893989
v 9.498496 20.450076 0.950009
v 9.498496 20.452992 0.893989
v 6.693544 20.452992 0.893989
v 6.693544 20.450076 0.950009
f 62 63 64
f 67 68 69
f 62 64 65
f 67 69 70
f 61 62 65
f 66 67 70
f 61 65 66
f 66 70 61
f 71 72 73
f 76 77 78
f 71 73 74
f 76 78 79
f 80 71 74
f 75 76 79
f 80 74 75
f 75 79 80
f 81 82 84
f 84 82 83
f 85 86 88
f 88 86 87
f 89 90 92
f 92 90 91
f 93 94 96
f 96 94 95
f 97 98 100
f 100 98 99
f 101 102 104
f 104 102 103
f 105 106 108
f 108 106 107
f 109 110 112
f 112 110 111
f 113 114 116
f 116 114 115
f 117 118 120
f 120 118 119
o item_92b0f140_1127582
v 0.751598 20.425063 7.265000
v 0.751598 20.410063 7.250000
v 0.751598 20.450063 7.250000
v 0.751598 20.452997 7.306000
v 0.751598 20.467997 7.306000
v 0.751598 20.467997 7.307000
v 0.751598 20.452048 7.307000
v 0.751598 20.449114 7.251000
v 0.751598 20.412477 7.251000
v 0.751598 20.425770 7.264293
v -0.855998 20.410063 7.250000
v -0.870998 20.425063 7.265000
v -0.870291 20.425770 7.264293
v -0.856998 20.412477 7.251000
v -0.856998 20.449114 7.251000
v -0.912998 20.452048 7.307000
v -0.912998 20.467997 7.307000
v -0.911998 20.467997 7.306000
v -0.911998 20.452997 7.306000
v -0.855998 20.450063 7.250000
v 0.751598 20.452997 7.306000
v 0.751598 20.450063 7.250000
v -0.855998 20.450063 7.250000
v -0.911998 20.452997 7.306000
v -0.911998 20.452997 7.306000
v -0.911998 20.467997 7.306000
v 0.751598 20.467997 7.306000
v 0.751598 20.452997 7.306000
v 0.751598 20.467997 7.307000
v 0.751598 20.467997 7.306000
v -0.911998 20.467997 7.306000
v -0.912998 20.467997 7.307000
v -0.912998 20.467997 7.307000
v -0.912998 20.452048 7.307000
v 0.751598 20.452048 7.307000
v 0.751598 20.467997 7.307000
v -0.912998 20.452048 7.307000
v -0.856998 20.449114 7.251000
v 0.751598 20.449114 7.251000
v 0.751598 20.452048 7.307000
v 0.751598 20.412477 7.251000
v 0.751598 20.449114 7.251000
v -0.856998 20.449114 7.251000
v -0.856998 20.412477 7.251000
v 0.751598 20.425770 7.264293
v 0.751598 20.412477 7.251000
v -0.856998 20.412477 7.251000
v -0.870291 20.425770 7.264293
v 0.751598 20.425063 7.265000
v 0.751598 20.425770 7.264293
v -0.870291 20.425770 7.264293
v -0.870998 20.425063 7.265000
v -0.870998 20.425063 7.265000
v -0.855998 20.410063 7.250000
v 0.751598 20.410063 7.250000
v 0.751598 20.425063 7.265000
v -0.855998 20.410063 7.250000
v -0.855998 20.450063 7.250000
v 0.751598 20.450063 7.250000
v 0.751598 20.410063 7.250000
f 129 130 121
f 124 125 126
f 129 121 122
f 124 126 127
f 128 129 122
f 123 124 127
f 128 122 123
f 123 127 128
f 131 132 133
f 136 137 138
f 131 133 134
f 136 138 139
f 140 131 134
f 135 136 139
f 140 134 135
f 135 139 140
f 141 142 144
f 144 142 143
f 145 146 148
f 148 146 147
f 149 150 152
f 152 150 151
f 153 154 156
f 156 154 155
f 157 158 160
f 160 158 159
f 161 162 164
f 164 162 163
f 165 166 168
f 168 166 167
f 169 170 172
f 172 170 171
f 173 174 176
f 176 174 175
f 177 178 180
f 180 178 179
o item_92b0f140_1127625
v -0.857000 20.412477 4.752282
v -0.857000 20.449114 4.752282
v -0.913000 20.452048 4.808282
v -0.913000 20.467997 4.808282
v -0.912000 20.467997 4.807282
v -0.912000 20.452997 4.807282
v -0.856000 20.450063 4.751282
v -0.856000 20.410063 4.751282
v -0.871000 20.425063 4.766282
v -0.870293 20.425770 4.765575
v -0.856000 20.450063 7.249998
v -0.912000 20.452997 7.305998
v -0.912000 20.467997 7.305998
v -0.913000 20.467997 7.306998
v -0.913000 20.452048 7.306998
v -0.857000 20.449114 7.250998
v -0.857000 20.412477 7.250998
v -0.870293 20.425770 7.264291
v -0.871000 20.425063 7.264998
v -0.856000 20.410063 7.249998
v -0.856000 20.450063 7.249998
v -0.856000 20.450063 4.751282
v -0.912000 20.452997 4.807282
v -0.912000 20.452997 7.305998
v -0.912000 20.452997 4.807282
v -0.912000 20.467997 4.807282
v -0.912000 20.467997 7.305998
v -0.912000 20.452997 7.305998
v -0.912000 20.467997 7.305998
v -0.912000 20.467997 4.807282
v -0.913000 20.467997 4.808282
v -0.913000 20.467997 7.306998
v -0.913000 20.467997 4.808282
v -0.913000 20.452048 4.808282
v -0.913000 20.452048 7.306998
v -0.913000 20.467997 7.306998
v -0.913000 20.452048 4.808282
v -0.857000 20.449114 4.752282
v -0.857000 20.449114 7.250998
v -0.913000 20.452048 7.306998
v -0.857000 20.449114 7.250998
v -0.857000 20.449114 4.752282
v -0.857000 20.412477 4.752282
v -0.857000 20.412477 7.250998
v -0.857000 20.412477 7.250998
v -0.857000 20.412477 4.752282
v -0.870293 20.425770 4.765575
v -0.870293 20.425770 7.264291
v -0.870293 20.425770 7.264291
v -0.870293 20.425770 4.765575
v -0.871000 20.425063 4.766282
v -0.871000 20.425063 7.264998
v -0.871000 20.425063 4.766282
v -0.856000 20.410063 4.751282
v -0.856000 20.410063 7.249998
v -0.871000 20.425063 7.264998
v -0.856000 20.410063 7.249998
v -0.856000 20.410063 4.751282
v -0.856000 20.450063 4.751282
v -0.856000 20.450063 7.249998
f 189 190 181
f 183 184 185
f 188 189 181
f 183 185 186
f 187 188 181
f 182 183 186
f 187 181 182
f 182 186 187
f 192 193 194
f 197 198 199
f 192 194 195
f 197 199 200
f 191 192 195
f 196 197 200
f 191 195 196
f 196 200 191
f 201 202 204
f 204 202 203
f 205 206 208
f 208 206 207
f 209 210 212
f 212 210 211
f 213 214 216
f 216 214 215
f 217 218 220
f 220 218 219
f 221 222 224
f 224 222 223
f 225 226 228
f 228 226 227
f 229 230 232
f 232 230 231
f 233 234 236
f 236 234 235
f 237 238 240
f 240 238 239
o item_92b0f140_1127668
v -0.871000 20.425063 4.766280
v -0.856000 20.410063 4.751280
v -0.856000 20.450063 4.751280
v -0.912000 20.452997 4.807280
v -0.912000 20.467997 4.807280
v -0.913000 20.467997 4.808280
v -0.913000 20.452048 4.808280
v -0.857000 20.449114 4.752280
v -0.857000 20.412477 4.752280
v -0.870293 20.425770 4.765573
v -1.960000 20.410063 4.751280
v -1.960000 20.425063 4.766280
v -1.960000 20.425770 4.765573
v -1.960000 20.412477 4.752280
v -1.960000 20.449114 4.752280
v -1.960000 20.452048 4.808280
v -1.960000 20.467997 4.808280
v -1.960000 20.467997 4.807280
v -1.960000 20.452997 4.807280
v -1.960000 20.450063 4.751280
v -0.912000 20.452997 4.807280
v -0.856000 20.450063 4.751280
v -1.960000 20.450063 4.751280
v -1.960000 20.452997 4.807280
v -0.912000 20.467997 4.807280
v -0.912000 20.452997 4.807280
v -1.960000 20.452997 4.807280
v -1.960000 20.467997 4.807280
v -0.913000 20.467997 4.808280
v -0.912000 20.467997 4.807280
v -1.960000 20.467997 4.807280
v -1.960000 20.467997 4.808280
v -0.913000 20.452048 4.808280
v -0.913000 20.467997 4.808280
v -1.960000 20.467997 4.808280
v -1.960000 20.452048 4.808280
v -1.960000 20.452048 4.808280
v -1.960000 20.449114 4.752280
v -0.857000 20.449114 4.752280
v -0.913000 20.452048 4.808280
v -0.857000 20.412477 4.752280
v -0.857000 20.449114 4.752280
v -1.960000 20.449114 4.752280
v -1.960000 20.412477 4.752280
v -0.870293 20.425770 4.765573
v -0.857000 20.412477 4.752280
v -1.960000 20.412477 4.752280
v -1.960000 20.425770 4.765573
v -0.871000 20.425063 4.766280
v -0.870293 20.425770 4.765573
v -1.960000 20.425770 4.765573
v -1.960000 20.425063 4.766280
v -1.960000 20.425063 4.766280
v -1.960000 20.410063 4.751280
v -0.856000 20.410063 4.751280
v -0.871000 20.425063 4.766280
v -0.856000 20.450063 4.751280
v -0.856000 20.410063 4.751280
v -1.960000 20.410063 4.751280
v -1.960000 20.450063 4.751280
f 249 250 241
f 244 245 246
f 249 241 242
f 244 246 247
f 248 249 242
f 243 244 247
f 248 242 243
f 243 247 248
f 251 252 253
f 256 257 258
f 251 253 254
f 256 258 259
f 260 251 254
f 255 256 259
f 260 254 255
f 255 259 260
f 261 262 264
f 264 262 263
f 265 266 268
f 268 266 267
f 269 270 272
f 272 270 271
f 273 274 276
f 276 274 275
f 277 278 280
f 280 278 279
f 281 282 284
f 284 282 283
f 285 286 288
f 288 286 287
f 289 290 292
f 292 290 291
f 293 294 296
f 296 294 295
f 297 298 300
f 300 298 299
o item_92b0f140_1134618
v -20.670168 24.325061 -27.839503
v -20.655201 24.310058 -27.840499
v -20.655201 24.350065 -27.840499
v -20.711077 24.352999 -27.836780
v -20.711077 24.368002 -27.836780
v -20.712075 24.368002 -27.836714
v -20.712075 24.352050 -27.836714
v -20.656199 24.349116 -27.840433
v -20.656199 24.312472 -27.840433
v -20.669462 24.325768 -27.839550
v -20.821105 24.310058 -30.349166
v -20.835746 24.325061 -30.343251
v -20.835056 24.325768 -30.343530
v -20.822081 24.312472 -30.348772
v -20.822081 24.349116 -30.348772
v -20.876743 24.352050 -30.326689
v -20.876743 24.368002 -30.326689
v -20.875767 24.368002 -30.327083
v -20.875767 24.352999 -30.327083
v -20.821105 24.350065 -30.349166
v -20.821105 24.350065 -30.349166
v -20.875767 24.352999 -30.327083
v -20.711077 24.352999 -27.836780
v -20.655201 24.350065 -27.840499
v -20.711077 24.368002 -27.836780
v -20.711077 24.352999 -27.836780
v -20.875767 24.352999 -30.327083
v -20.875767 24.368002 -30.327083
v -20.875767 24.368002 -30.327083
v -20.876743 24.368002 -30.326689
v -20.712075 24.368002 -27.836714
v -20.711077 24.368002 -27.836780
v -20.876743 24.368002 -30.326689
v -20.876743 24.352050 -30.326689
v -20.712075 24.352050 -27.836714
v -20.712075 24.368002 -27.836714
v -20.656199 24.349116 -27.840433
v -20.712075 24.352050 -27.836714
v -20.876743 24.352050 -30.326689
v -20.822081 24.349116 -30.348772
v -20.656199 24.312472 -27.840433
v -20.656199 24.349116 -27.840433
v -20.822081 24.349116 -30.348772
v -20.822081 24.312472 -30.348772
v -20.822081 24.312472 -30.348772
v -20.835056 24.325768 -30.343530
v -20.669462 24.325768 -27.839550
v -20.656199 24.312472 -27.840433
v -20.835056 24.325768 -30.343530
v -20.835746 24.325061 -30.343251
v -20.670168 24.325061 -27.839503
v -20.669462 24.325768 -27.839550
v -20.655201 24.310058 -27.840499
v -20.670168 24.325061 -27.839503
v -20.835746 24.325061 -30.343251
v -20.821105 24.310058 -30.349166
v -20.655201 24.350065 -27.840499
v -20.655201 24.310058 -27.840499
v -20.821105 24.310058 -30.349166
v -20.821105 24.350065 -30.349166
f 309 310 301
f 304 305 306
f 309 301 302
f 304 306 307
f 308 309 302
f 303 304 307
f 308 302 303
f 303 307 308
f 311 312 313
f 316 317 318
f 311 313 314
f 316 318 319
f 320 311 314
f 315 316 319
f 320 314 315
f 315 319 320
f 321 322 324
f 324 322 323
f 325 326 328
f 328 326 327
f 329 330 332
f 332 330 331
f 333 334 336
f 336 334 335
f 337 338 340
f 340 338 339
f 341 342 344
f 344 342 343
f 345 346 348
f 348 346 347
f 349 350 352
f 352 350 351
f 353 354 356
f 356 354 355
f 357 358 360
f 360 358 359
o item_92b0f140_1134932
v -21.045946 24.325119 -33.959530
v -21.030261 24.310120 -33.949694
v -21.030261 24.350119 -33.949694
v -21.087772 24.353001 -33.985759
v -21.087772 24.368000 -33.985759
v -21.088818 24.368000 -33.986414
v -21.088818 24.352052 -33.986414
v -21.031307 24.349170 -33.950349
v -21.031307 24.312533 -33.950349
v -21.045206 24.325826 -33.959066
v -19.681162 24.310120 -34.495446
v -19.686781 24.325119 -34.509353
v -19.686516 24.325826 -34.508698
v -19.681536 24.312533 -34.496373
v -19.681536 24.349170 -34.496373
v -19.702141 24.352052 -34.547368
v -19.702141 24.368000 -34.547368
v -19.701767 24.368000 -34.546441
v -19.701767 24.353001 -34.546441
v -19.681162 24.350119 -34.495446
v -19.681162 24.350119 -34.495446
v -19.701767 24.353001 -34.546441
v -21.087772 24.353001 -33.985759
v -21.030261 24.350119 -33.949694
v -19.701767 24.353001 -34.546441
v -19.701767 24.368000 -34.546441
v -21.087772 24.368000 -33.985759
v -21.087772 24.353001 -33.985759
v -19.701767 24.368000 -34.546441
v -19.702141 24.368000 -34.547368
v -21.088818 24.368000 -33.986414
v -21.087772 24.368000 -33.985759
v -19.702141 24.368000 -34.547368
v -19.702141 24.352052 -34.547368
v -21.088818 24.352052 -33.986414
v -21.088818 24.368000 -33.986414
v -21.031307 24.349170 -33.950349
v -21.088818 24.352052 -33.986414
v -19.702141 24.352052 -34.547368
v -19.681536 24.349170 -34.496373
v -21.031307 24.312533 -33.950349
v -21.031307 24.349170 -33.950349
v -19.681536 24.349170 -34.496373
v -19.681536 24.312533 -34.496373
v -19.681536 24.312533 -34.496373
v -19.686516 24.325826 -34.508698
v -21.045206 24.325826 -33.959066
v -21.031307 24.312533 -33.950349
v -19.686516 24.325826 -34.508698
v -19.686781 24.325119 -34.509353
v -21.045946 24.325119 -33.959530
v -21.045206 24.325826 -33.959066
v -21.030261 24.310120 -33.949694
v -21.045946 24.325119 -33.959530
v -19.686781 24.325119 -34.509353
v -19.681162 24.310120 -34.495446
v -19.681162 24.310120 -34.495446
v -19.681162 24.350119 -34.495446
v -21.030261 24.350119 -33.949694
v -21.030261 24.310120 -33.949694
f 369 370 361
f 364 365 366
f 369 361 362
f 364 366 367
f 368 369 362
f 363 364 367
f 368 362 363
f 363 367 368
f 371 372 373
f 376 377 378
f 371 373 374
f 376 378 379
f 380 371 374
f 375 376 379
f 380 374 375
f 375 379 380
f 381 382 384
f 384 382 383
f 385 386 388
f 388 386 387
f 389 390 392
f 392 390 391
f 393 394 396
f 396 394 395
f 397 398 400
f 400 398 399
f 401 402 404
f 404 402 403
f 405 406 408
f 408 406 407
f 409 410 412
f 412 410 411
f 413 414 416
f 416 414 415
f 417 418 420
f 420 418 419
o item_92b0f140_1134987
v -20.834102 24.325119 -30.306799
v -20.833052 24.310120 -30.291043
v -20.833052 24.350119 -30.291043
v -20.836903 24.353001 -30.348815
v -20.836903 24.368000 -30.348815
v -20.836973 24.368000 -30.349866
v -20.836973 24.352052 -30.349866
v -20.833121 24.349170 -30.292094
v -20.833121 24.312533 -30.292094
v -20.834052 24.325826 -30.306057
v -19.128629 24.310120 -30.980535
v -19.148153 24.325119 -30.988817
v -19.147233 24.325826 -30.988427
v -19.129930 24.312533 -30.981087
v -19.129930 24.349170 -30.981087
v -19.201520 24.352052 -31.011457
v -19.201520 24.368000 -31.011457
v -19.200219 24.368000 -31.010905
v -19.200219 24.353001 -31.010905
v -19.128629 24.350119 -30.980535
v -19.128629 24.350119 -30.980535
v -19.200219 24.353001 -31.010905
v -20.836903 24.353001 -30.348815
v -20.833052 24.350119 -30.291043
v -20.836903 24.368000 -30.348815
v -20.836903 24.353001 -30.348815
v -19.200219 24.353001 -31.010905
v -19.200219 24.368000 -31.010905
v -19.200219 24.368000 -31.010905
v -19.201520 24.368000 -31.011457
v -20.836973 24.368000 -30.349866
v -20.836903 24.368000 -30.348815
v -20.836973 24.352052 -30.349866
v -20.836973 24.368000 -30.349866
v -19.201520 24.368000 -31.011457
v -19.201520 24.352052 -31.011457
v -20.833121 24.349170 -30.292094
v -20.836973 24.352052 -30.349866
v -19.201520 24.352052 -31.011457
v -19.129930 24.349170 -30.981087
v -19.129930 24.349170 -30.981087
v -19.129930 24.312533 -30.981087
v -20.833121 24.312533 -30.292094
v -20.833121 24.349170 -30.292094
v -19.129930 24.312533 -30.981087
v -19.147233 24.325826 -30.988427
v -20.834052 24.325826 -30.306057
v -20.833121 24.312533 -30.292094
v -19.147233 24.325826 -30.988427
v -19.148153 24.325119 -30.988817
v -20.834102 24.325119 -30.306799
v -20.834052 24.325826 -30.306057
v -20.833052 24.310120 -30.291043
v -20.834102 24.325119 -30.306799
v -19.148153 24.325119 -30.988817
v -19.128629 24.310120 -30.980535
v -20.833052 24.350119 -30.291043
v -20.833052 24.310120 -30.291043
v -19.128629 24.310120 -30.980535
v -19.128629 24.350119 -30.980535
f 429 430 421
f 424 425 426
f 429 421 422
f 424 426 427
f 428 429 422
f 423 424 427
f 428 422 423
f 423 427 428
f 431 432 433
f 436 437 438
f 431 433 434
f 436 438 439
f 440 431 434
f 435 436 439
f 440 434 435
f 435 439 440
f 441 442 444
f 444 442 443
f 445 446 448
f 448 446 447
f 449 450 452
f 452 450 451
f 453 454 456
f 456 454 455
f 457 458 460
f 460 458 459
f 461 462 464
f 464 462 463
f 465 466 468
f 468 466 467
f 469 470 472
f 472 470 471
f 473 474 476
f 476 474 475
f 477 478 480
f 480 478 479
o item_92b0f140_1135042
v -20.966756 24.312533 -32.996140
v -20.966756 24.349170 -32.996140
v -20.962915 24.352052 -32.938364
v -20.962915 24.368000 -32.938364
v -20.962984 24.368000 -32.939414
v -20.962984 24.353001 -32.939414
v -20.966826 24.350119 -32.997190
v -20.966826 24.310120 -32.997190
v -20.965779 24.325119 -32.981433
v -20.965827 24.325826 -32.982176
v -20.087125 24.350119 -33.353056
v -20.117506 24.353001 -33.281436
v -20.117506 24.368000 -33.281436
v -20.118058 24.368000 -33.280134
v -20.118058 24.352052 -33.280134
v -20.087678 24.349170 -33.351754
v -20.087678 24.312533 -33.351754
v -20.095020 24.325826 -33.334444
v -20.095411 24.325119 -33.333524
v -20.087125 24.310120 -33.353056
v -20.966826 24.350119 -32.997190
v -20.962984 24.353001 -32.939414
v -20.117506 24.353001 -33.281436
v -20.087125 24.350119 -33.353056
v -20.962984 24.353001 -32.939414
v -20.962984 24.368000 -32.939414
v -20.117506 24.368000 -33.281436
v -20.117506 24.353001 -33.281436
v -20.962984 24.368000 -32.939414
v -20.962915 24.368000 -32.938364
v -20.118058 24.368000 -33.280134
v -20.117506 24.368000 -33.281436
v -20.118058 24.368000 -33.280134
v -20.962915 24.368000 -32.938364
v -20.962915 24.352052 -32.938364
v -20.118058 24.352052 -33.280134
v -20.118058 24.352052 -33.280134
v -20.962915 24.352052 -32.938364
v -20.966756 24.349170 -32.996140
v -20.087678 24.349170 -33.351754
v -20.087678 24.349170 -33.351754
v -20.966756 24.349170 -32.996140
v -20.966756 24.312533 -32.996140
v -20.087678 24.312533 -33.351754
v -20.966756 24.312533 -32.996140
v -20.965827 24.325826 -32.982176
v -20.095020 24.325826 -33.334444
v -20.087678 24.312533 -33.351754
v -20.965827 24.325826 -32.982176
v -20.965779 24.325119 -32.981433
v -20.095411 24.325119 -33.333524
v -20.095020 24.325826 -33.334444
v -20.095411 24.325119 -33.333524
v -20.965779 24.325119 -32.981433
v -20.966826 24.310120 -32.997190
v -20.087125 24.310120 -33.353056
v -20.966826 24.310120 -32.997190
v -20.966826 24.350119 -32.997190
v -20.087125 24.350119 -33.353056
v -20.087125 24.310120 -33.353056
f 489 490 481
f 483 484 485
f 488 489 481
f 483 485 486
f 487 488 481
f 482 483 486
f 487 481 482
f 482 486 487
f 492 493 494
f 497 498 499
f 492 494 495
f 497 499 500
f 491 492 495
f 496 497 500
f 491 495 496
f 496 500 491
f 501 502 504
f 504 502 503
f 505 506 508
f 508 506 507
f 509 510 512
f 512 510 511
f 513 514 516
f 516 514 515
f 517 518 520
f 520 518 519
f 521 522 524
f 524 522 523
f 525 526 528
f 528 526 527
f 529 530 532
f 532 530 531
f 533 534 536
f 536 534 535
f 537 538 540
f 540 538 539
o item_92b0f140_1135097
v -20.088123 24.312534 -33.351333
v -20.088123 24.349170 -33.351333
v -20.118494 24.352052 -33.279746
v -20.118494 24.368000 -33.279746
v -20.117942 24.368000 -33.281047
v -20.117942 24.353001 -33.281047
v -20.087571 24.350119 -33.352635
v -20.087571 24.310120 -33.352635
v -20.095854 24.325119 -33.333111
v -20.095464 24.325826 -33.334031
v -19.127946 24.350119 -30.980442
v -19.199567 24.353001 -31.010825
v -19.199567 24.368000 -31.010825
v -19.200869 24.368000 -31.011377
v -19.200869 24.352052 -31.011377
v -19.129248 24.349170 -30.980994
v -19.129248 24.312534 -30.980994
v -19.146558 24.325826 -30.988338
v -19.147479 24.325119 -30.988728
v -19.127946 24.310120 -30.980442
v -19.127946 24.350119 -30.980442
v -20.087571 24.350119 -33.352635
v -20.117942 24.353001 -33.281047
v -19.199567 24.353001 -31.010825
v -19.199567 24.353001 -31.010825
v -20.117942 24.353001 -33.281047
v -20.117942 24.368000 -33.281047
v -19.199567 24.368000 -31.010825
v -19.199567 24.368000 -31.010825
v -20.117942 24.368000 -33.281047
v -20.118494 24.368000 -33.279746
v -19.200869 24.368000 -31.011377
v -20.118494 24.368000 -33.279746
v -20.118494 24.352052 -33.279746
v -19.200869 24.352052 -31.011377
v -19.200869 24.368000 -31.011377
v -20.118494 24.352052 -33.279746
v -20.088123 24.349170 -33.351333
v -19.129248 24.349170 -30.980994
v -19.200869 24.352052 -31.011377
v -20.088123 24.349170 -33.351333
v -20.088123 24.312534 -33.351333
v -19.129248 24.312534 -30.980994
v -19.129248 24.349170 -30.980994
v -20.088123 24.312534 -33.351333
v -20.095464 24.325826 -33.334031
v -19.146558 24.325826 -30.988338
v -19.129248 24.312534 -30.980994
v -19.146558 24.325826 -30.988338
v -20.095464 24.325826 -33.334031
v -20.095854 24.325119 -33.333111
v -19.147479 24.325119 -30.988728
v -20.095854 24.325119 -33.333111
v -20.087571 24.310120 -33.352635
v -19.127946 24.310120 -30.980442
v -19.147479 24.325119 -30.988728
v -19.127946 24.310120 -30.980442
v -20.087571 24.310120 -33.352635
v -20.087571 24.350119 -33.352635
v -19.127946 24.350119 -30.980442
f 549 550 541
f 543 544 545
f 548 549 541
f 543 545 546
f 547 548 541
f 542 543 546
f 547 541 542
f 542 546 547
f 552 553 554
f 557 558 559
f 552 554 555
f 557 559 560
f 551 552 555
f 556 557 560
f 551 555 556
f 556 560 551
f 561 562 564
f 564 562 563
f 565 566 568
f 568 566 567
f 569 570 572
f 572 570 571
f 573 574 576
f 576 574 575
f 577 578 580
f 580 578 579
f 581 582 584
f 584 582 583
f 585 586 588
f 588 586 587
f 589 590 592
f 592 590 591
f 593 594 596
f 596 594 595
f 597 598 600
f 600 598 599
o item_92b0f140_1135151
v -18.319437 24.325119 -31.487349
v -18.327723 24.310120 -31.467816
v -18.327723 24.350119 -31.467816
v -18.297342 24.353001 -31.539436
v -18.297342 24.368000 -31.539436
v -18.296790 24.368000 -31.540738
v -18.296790 24.352052 -31.540738
v -18.327170 24.349170 -31.469118
v -18.327170 24.312533 -31.469118
v -18.319828 24.325826 -31.486428
v -16.659158 24.310120 -32.142802
v -16.678682 24.325119 -32.151085
v -16.677762 24.325826 -32.150694
v -16.660460 24.312533 -32.143354
v -16.660460 24.349170 -32.143354
v -16.732049 24.352052 -32.173724
v -16.732049 24.368000 -32.173724
v -16.730748 24.368000 -32.173172
v -16.730748 24.353001 -32.173172
v -16.659158 24.350119 -32.142802
v -18.297342 24.353001 -31.539436
v -18.327723 24.350119 -31.467816
v -16.659158 24.350119 -32.142802
v -16.730748 24.353001 -32.173172
v -16.730748 24.353001 -32.173172
v -16.730748 24.368000 -32.173172
v -18.297342 24.368000 -31.539436
v -18.297342 24.353001 -31.539436
v -18.296790 24.368000 -31.540738
v -18.297342 24.368000 -31.539436
v -16.730748 24.368000 -32.173172
v -16.732049 24.368000 -32.173724
v -16.732049 24.368000 -32.173724
v -16.732049 24.352052 -32.173724
v -18.296790 24.352052 -31.540738
v -18.296790 24.368000 -31.540738
v -16.732049 24.352052 -32.173724
v -16.660460 24.349170 -32.143354
v -18.327170 24.349170 -31.469118
v -18.296790 24.352052 -31.540738
v -16.660460 24.349170 -32.143354
v -16.660460 24.312533 -32.143354
v -18.327170 24.312533 -31.469118
v -18.327170 24.349170 -31.469118
v -16.660460 24.312533 -32.143354
v -16.677762 24.325826 -32.150694
v -18.319828 24.325826 -31.486428
v -18.327170 24.312533 -31.469118
v -16.677762 24.325826 -32.150694
v -16.678682 24.325119 -32.151085
v -18.319437 24.325119 -31.487349
v -18.319828 24.325826 -31.486428
v -18.327723 24.310120 -31.467816
v -18.319437 24.325119 -31.487349
v -16.678682 24.325119 -32.151085
v -16.659158 24.310120 -32.142802
v -18.327723 24.350119 -31.467816
v -18.327723 24.310120 -31.467816
v -16.659158 24.310120 -32.142802
v -16.659158 24.350119 -32.142802
f 609 610 601
f 604 605 606
f 609 601 602
f 604 606 607
f 608 609 602
f 603 604 607
f 608 602 603
f 603 607 608
f 611 612 613
f 616 617 618
f 611 613 614
f 616 618 619
f 620 611 614
f 615 616 619
f 620 614 615
f 615 619 620
f 621 622 624
f 624 622 623
f 625 626 628
f 628 626 627
f 629 630 632
f 632 630 631
f 633 634 636
f 636 634 635
f 637 638 640
f 640 638 639
f 641 642 644
f 644 642 643
f 645 646 648
f 648 646 647
f 649 650 652
f 652 650 651
f 653 654 656
f 656 654 655
f 657 658 660
f 660 658 659
o item_92b0f140_1135205
v -19.137491 24.312533 -33.474599
v -19.137491 24.349170 -33.474599
v -19.065902 24.352052 -33.444230
v -19.065902 24.368000 -33.444230
v -19.067203 24.368000 -33.444782
v -19.067203 24.353001 -33.444782
v -19.138793 24.350119 -33.475152
v -19.138793 24.310120 -33.475152
v -19.119268 24.325119 -33.466869
v -19.120190 24.325826 -33.467259
v -17.470146 24.350119 -34.150170
v -17.500527 24.353001 -34.078551
v -17.500527 24.368000 -34.078551
v -17.501079 24.368000 -34.077248
v -17.501079 24.352052 -34.077248
v -17.470699 24.349170 -34.148868
v -17.470699 24.312533 -34.148868
v -17.478041 24.325826 -34.131559
v -17.478432 24.325119 -34.130638
v -17.470146 24.310120 -34.150170
v -19.138793 24.350119 -33.475152
v -19.067203 24.353001 -33.444782
v -17.500527 24.353001 -34.078551
v -17.470146 24.350119 -34.150170
v -19.067203 24.353001 -33.444782
v -19.067203 24.368000 -33.444782
v -17.500527 24.368000 -34.078551
v -17.500527 24.353001 -34.078551
v -19.067203 24.368000 -33.444782
v -19.065902 24.368000 -33.444230
v -17.501079 24.368000 -34.077248
v -17.500527 24.368000 -34.078551
v -17.501079 24.368000 -34.077248
v -19.065902 24.368000 -33.444230
v -19.065902 24.352052 -33.444230
v -17.501079 24.352052 -34.077248
v -19.065902 24.352052 -33.444230
v -19.137491 24.349170 -33.474599
v -17.470699 24.349170 -34.148868
v -17.501079 24.352052 -34.077248
v -19.137491 24.349170 -33.474599
v -19.137491 24.312533 -33.474599
v -17.470699 24.312533 -34.148868
v -17.470699 24.349170 -34.148868
v -19.137491 24.312533 -33.474599
v -19.120190 24.325826 -33.467259
v -17.478041 24.325826 -34.131559
v -17.470699 24.312533 -34.148868
v -19.120190 24.325826 -33.467259
v -19.119268 24.325119 -33.466869
v -17.478432 24.325119 -34.130638
v -17.478041 24.325826 -34.131559
v -19.119268 24.325119 -33.466869
v -19.138793 24.310120 -33.475152
v -17.470146 24.310120 -34.150170
v -17.478432 24.325119 -34.130638
v -19.138793 24.310120 -33.475152
v -19.138793 24.350119 -33.475152
v -17.470146 24.350119 -34.150170
v -17.470146 24.310120 -34.150170
f 669 670 661
f 663 664 665
f 668 669 661
f 663 665 666
f 667 668 661
f 662 663 666
f 667 661 662
f 662 666 667
f 672 673 674
f 677 678 679
f 672 674 675
f 677 679 680
f 671 672 675
f 676 677 680
f 671 675 676
f 676 680 671
f 681 682 684
f 684 682 683
f 685 686 688
f 688 686 687
f 689 690 692
f 692 690 691
f 693 694 696
f 696 694 695
f 697 698 700
f 700 698 699
f 701 702 704
f 704 702 703
f 705 706 708
f 708 706 707
f 709 710 712
f 712 710 711
f 713 714 716
f 716 714 715
f 717 718 720
f 720 718 719
o item_92b0f140_1135259
v -17.470988 24.312534 -34.148324
v -17.470988 24.349170 -34.148324
v -17.501359 24.352052 -34.076737
v -17.501359 24.368000 -34.076737
v -17.500807 24.368000 -34.078039
v -17.500807 24.353001 -34.078039
v -17.470436 24.350119 -34.149626
v -17.470436 24.310120 -34.149626
v -17.478719 24.325119 -34.130102
v -17.478329 24.325826 -34.131022
v -16.658561 24.350119 -32.142671
v -16.730182 24.353001 -32.173054
v -16.730182 24.368000 -32.173054
v -16.731484 24.368000 -32.173606
v -16.731484 24.352052 -32.173606
v -16.659863 24.349170 -32.143223
v -16.659863 24.312534 -32.143223
v -16.677173 24.325826 -32.150567
v -16.678094 24.325119 -32.150957
v -16.658561 24.310120 -32.142671
v -16.658561 24.350119 -32.142671
v -17.470436 24.350119 -34.149626
v -17.500807 24.353001 -34.078039
v -16.730182 24.353001 -32.173054
v -17.500807 24.353001 -34.078039
v -17.500807 24.368000 -34.078039
v -16.730182 24.368000 -32.173054
v -16.730182 24.353001 -32.173054
v -16.730182 24.368000 -32.173054
v -17.500807 24.368000 -34.078039
v -17.501359 24.368000 -34.076737
v -16.731484 24.368000 -32.173606
v -17.501359 24.368000 -34.076737
v -17.501359 24.352052 -34.076737
v -16.731484 24.352052 -32.173606
v -16.731484 24.368000 -32.173606
v -16.731484 24.352052 -32.173606
v -17.501359 24.352052 -34.076737
v -17.470988 24.349170 -34.148324
v -16.659863 24.349170 -32.143223
v -17.470988 24.349170 -34.148324
v -17.470988 24.312534 -34.148324
v -16.659863 24.312534 -32.143223
v -16.659863 24.349170 -32.143223
v -17.470988 24.312534 -34.148324
v -17.478329 24.325826 -34.131022
v -16.677173 24.325826 -32.150567
v -16.659863 24.312534 -32.143223
v -16.677173 24.325826 -32.150567
v -17.478329 24.325826 -34.131022
v -17.478719 24.325119 -34.130102
v -16.678094 24.325119 -32.150957
v -16.678094 24.325119 -32.150957
v -17.478719 24.325119 -34.130102
v -17.470436 24.310120 -34.149626
v -16.658561 24.310120 -32.142671
v -17.470436 24.310120 -34.149626
v -17.470436 24.350119 -34.149626
v -16.658561 24.350119 -32.142671
v -16.658561 24.310120 -32.142671
f 729 730 721
f 723 724 725
f 728 729 721
f 723 725 726
f 727 728 721
f 722 723 726
f 727 721 722
f 722 726 727
f 732 733 734
f 737 738 739
f 732 734 735
f 737 739 740
f 731 732 735
f 736 737 740
f 731 735 736
f 736 740 731
f 741 742 744
f 744 742 743
f 745 746 748
f 748 746 747
f 749 750 752
f 752 750 751
f 753 754 756
f 756 754 755
f 757 758 760
f 760 758 759
f 761 762 764
f 764 762 763
f 765 766 768
f 768 766 767
f 769 770 772
f 772 770 771
f 773 774 776
f 776 774 775
f 777 778 780
f 780 778 779
o item_92b0f140_1135313
v -19.119826 24.325119 -33.467012
v -19.139359 24.310120 -33.475298
v -19.139359 24.350119 -33.475298
v -19.067739 24.353001 -33.444918
v -19.067739 24.368000 -33.444918
v -19.066436 24.368000 -33.444365
v -19.066436 24.352052 -33.444365
v -19.138056 24.349170 -33.474746
v -19.138056 24.312533 -33.474746
v -19.120746 24.325826 -33.467403
v -18.327484 24.310120 -31.468343
v -18.319201 24.325119 -31.487867
v -18.319591 24.325826 -31.486947
v -18.326931 24.312533 -31.469644
v -18.326931 24.349170 -31.469644
v -18.296561 24.352052 -31.541234
v -18.296561 24.368000 -31.541234
v -18.297114 24.368000 -31.539932
v -18.297114 24.353001 -31.539932
v -18.327484 24.350119 -31.468343
v -19.067739 24.353001 -33.444918
v -19.139359 24.350119 -33.475298
v -18.327484 24.350119 -31.468343
v -18.297114 24.353001 -31.539932
v -18.297114 24.353001 -31.539932
v -18.297114 24.368000 -31.539932
v -19.067739 24.368000 -33.444918
v -19.067739 24.353001 -33.444918
v -19.066436 24.368000 -33.444365
v -19.067739 24.368000 -33.444918
v -18.297114 24.368000 -31.539932
v -18.296561 24.368000 -31.541234
v -19.066436 24.352052 -33.444365
v -19.066436 24.368000 -33.444365
v -18.296561 24.368000 -31.541234
v -18.296561 24.352052 -31.541234
v -19.138056 24.349170 -33.474746
v -19.066436 24.352052 -33.444365
v -18.296561 24.352052 -31.541234
v -18.326931 24.349170 -31.469644
v -18.326931 24.349170 -31.469644
v -18.326931 24.312533 -31.469644
v -19.138056 24.312533 -33.474746
v -19.138056 24.349170 -33.474746
v -18.326931 24.312533 -31.469644
v -18.319591 24.325826 -31.486947
v -19.120746 24.325826 -33.467403
v -19.138056 24.312533 -33.474746
v -18.319591 24.325826 -31.486947
v -18.319201 24.325119 -31.487867
v -19.119826 24.325119 -33.467012
v -19.120746 24.325826 -33.467403
v -19.139359 24.310120 -33.475298
v -19.119826 24.325119 -33.467012
v -18.319201 24.325119 -31.487867
v -18.327484 24.310120 -31.468343
v -18.327484 24.310120 -31.468343
v -18.327484 24.350119 -31.468343
v -19.139359 24.350119 -33.475298
v -19.139359 24.310120 -33.475298
f 789 790 781
f 784 785 786
f 789 781 782
f 784 786 787
f 788 789 782
f 783 784 787
f 788 782 783
f 783 787 788
f 791 792 793
f 796 797 798
f 791 793 794
f 796 798 799
f 800 791 794
f 795 796 799
f 800 794 795
f 795 799 800
f 801 802 804
f 804 802 803
f 805 806 808
f 808 806 807
f 809 810 812
f 812 810 811
f 813 814 816
f 816 814 815
f 817 818 820
f 820 818 819
f 821 822 824
f 824 822 823
f 825 826 828
f 828 826 827
f 829 830 832
f 832 830 831
f 833 834 836
f 836 834 835
f 837 838 840
f 840 838 839
o item_92b0f140_1135363
v 1.114539 24.325119 -40.076159
v 1.100631 24.310120 -40.070539
v 1.100631 24.350119 -40.070539
v 1.151626 24.353001 -40.091144
v 1.151626 24.368000 -40.091144
v 1.152554 24.368000 -40.091518
v 1.152554 24.352052 -40.091518
v 1.101559 24.349170 -40.070914
v 1.101559 24.312533 -40.070914
v 1.113884 24.325826 -40.075894
v 1.292766 24.310120 -39.595582
v 1.301049 24.325119 -39.615106
v 1.300659 24.325826 -39.614186
v 1.293319 24.312533 -39.596883
v 1.293319 24.349170 -39.596883
v 1.323689 24.352052 -39.668473
v 1.323689 24.368000 -39.668473
v 1.323136 24.368000 -39.667171
v 1.323136 24.353001 -39.667171
v 1.292766 24.350119 -39.595582
v 1.292766 24.350119 -39.595582
v 1.323136 24.353001 -39.667171
v 1.151626 24.353001 -40.091144
v 1.100631 24.350119 -40.070539
v 1.323136 24.353001 -39.667171
v 1.323136 24.368000 -39.667171
v 1.151626 24.368000 -40.091144
v 1.151626 24.353001 -40.091144
v 1.323136 24.368000 -39.667171
v 1.323689 24.368000 -39.668473
v 1.152554 24.368000 -40.091518
v 1.151626 24.368000 -40.091144
v 1.152554 24.352052 -40.091518
v 1.152554 24.368000 -40.091518
v 1.323689 24.368000 -39.668473
v 1.323689 24.352052 -39.668473
v 1.101559 24.349170 -40.070914
v 1.152554 24.352052 -40.091518
v 1.323689 24.352052 -39.668473
v 1.293319 24.349170 -39.596883
v 1.293319 24.349170 -39.596883
v 1.293319 24.312533 -39.596883
v 1.101559 24.312533 -40.070914
v 1.101559 24.349170 -40.070914
v 1.293319 24.312533 -39.596883
v 1.300659 24.325826 -39.614186
v 1.113884 24.325826 -40.075894
v 1.101559 24.312533 -40.070914
v 1.300659 24.325826 -39.614186
v 1.301049 24.325119 -39.615106
v 1.114539 24.325119 -40.076159
v 1.113884 24.325826 -40.075894
v 1.100631 24.310120 -40.070539
v 1.114539 24.325119 -40.076159
v 1.301049 24.325119 -39.615106
v 1.292766 24.310120 -39.595582
v 1.100631 24.350119 -40.070539
v 1.100631 24.310120 -40.070539
v 1.292766 24.310120 -39.595582
v 1.292766 24.350119 -39.595582
f 849 850 841
f 844 845 846
f 849 841 842
f 844 846 847
f 848 849 842
f 843 844 847
f 848 842 843
f 843 847 848
f 851 852 853
f 856 857 858
f 851 853 854
f 856 858 859
f 860 851 854
f 855 856 859
f 860 854 855
f 855 859 860
f 861 862 864
f 864 862 863
f 865 866 868
f 868 866 867
f 869 870 872
f 872 870 871
f 873 874 876
f 876 874 875
f 877 878 880
f 880 878 879
f 881 882 884
f 884 882 883
f 885 886 888
f 888 886 887
f 889 890 892
f 892 890 891
f 893 894 896
f 896 894 895
f 897 898 900
f 900 898 899
o item_92b0f140_1135413
v 3.828970 24.325119 -41.316293
v 3.838378 24.310120 -41.303918
v 3.838378 24.350119 -41.303918
v 3.803883 24.353001 -41.349294
v 3.803883 24.368000 -41.349294
v 3.803256 24.368000 -41.350119
v 3.803256 24.352052 -41.350119
v 3.837751 24.349170 -41.304744
v 3.837751 24.312533 -41.304744
v 3.829414 24.325826 -41.315710
v 13.190994 24.310120 -45.087339
v 13.188077 24.325119 -45.102340
v 13.188214 24.325826 -45.101633
v 13.190799 24.312533 -45.088339
v 13.190799 24.349170 -45.088339
v 13.180105 24.352052 -45.143343
v 13.180105 24.368000 -45.143343
v 13.180299 24.368000 -45.142343
v 13.180299 24.353001 -45.142343
v 13.190994 24.350119 -45.087339
v 13.190994 24.350119 -45.087339
v 13.180299 24.353001 -45.142343
v 3.803883 24.353001 -41.349294
v 3.838378 24.350119 -41.303918
v 13.180299 24.353001 -45.142343
v 13.180299 24.368000 -45.142343
v 3.803883 24.368000 -41.349294
v 3.803883 24.353001 -41.349294
v 13.180299 24.368000 -45.142343
v 13.180105 24.368000 -45.143343
v 3.803256 24.368000 -41.350119
v 3.803883 24.368000 -41.349294
v 13.180105 24.368000 -45.143343
v 13.180105 24.352052 -45.143343
v 3.803256 24.352052 -41.350119
v 3.803256 24.368000 -41.350119
v 3.837751 24.349170 -41.304744
v 3.803256 24.352052 -41.350119
v 13.180105 24.352052 -45.143343
v 13.190799 24.349170 -45.088339
v 13.190799 24.349170 -45.088339
v 13.190799 24.312533 -45.088339
v 3.837751 24.312533 -41.304744
v 3.837751 24.349170 -41.304744
v 13.190799 24.312533 -45.088339
v 13.188214 24.325826 -45.101633
v 3.829414 24.325826 -41.315710
v 3.837751 24.312533 -41.304744
v 13.188214 24.325826 -45.101633
v 13.188077 24.325119 -45.102340
v 3.828970 24.325119 -41.316293
v 3.829414 24.325826 -41.315710
v 3.838378 24.310120 -41.303918
v 3.828970 24.325119 -41.316293
v 13.188077 24.325119 -45.102340
v 13.190994 24.310120 -45.087339
v 13.190994 24.310120 -45.087339
v 13.190994 24.350119 -45.087339
v 3.838378 24.350119 -41.303918
v 3.838378 24.310120 -41.303918
f 909 910 901
f 904 905 906
f 909 901 902
f 904 906 907
f 908 909 902
f 903 904 907
f 908 902 903
f 903 907 908
f 911 912 913
f 916 917 918
f 911 913 914
f 916 918 919
f 920 911 914
f 915 916 919
f 920 914 915
f 915 919 920
f 921 922 924
f 924 922 923
f 925 926 928
f 928 926 927
f 929 930 932
f 932 930 931
f 933 934 936
f 936 934 935
f 937 938 940
f 940 938 939
f 941 942 944
f 944 942 943
f 945 946 948
f 948 946 947
f 949 950 952
f 952 950 951
f 953 954 956
f 956 954 955
f 957 958 960
f 960 958 959
o item_92b0f140_1135464
v 13.188980 24.325119 -45.100420
v 13.191895 24.310119 -45.085420
v 13.191895 24.350119 -45.085420
v 13.181204 24.353001 -45.140420
v 13.181204 24.368001 -45.140420
v 13.181010 24.368001 -45.141420
v 13.181010 24.352052 -45.141420
v 13.191701 24.349170 -45.086420
v 13.191701 24.312533 -45.086420
v 13.189117 24.325826 -45.099713
v 14.795530 24.310119 -45.085420
v 14.789470 24.325119 -45.100420
v 14.789755 24.325826 -45.099713
v 14.795126 24.312533 -45.086420
v 14.795126 24.349170 -45.086420
v 14.772905 24.352052 -45.141420
v 14.772905 24.368001 -45.141420
v 14.773309 24.368001 -45.140420
v 14.773309 24.353001 -45.140420
v 14.795530 24.350119 -45.085420
v 14.795530 24.350119 -45.085420
v 14.773309 24.353001 -45.140420
v 13.181204 24.353001 -45.140420
v 13.191895 24.350119 -45.085420
v 14.773309 24.353001 -45.140420
v 14.773309 24.368001 -45.140420
v 13.181204 24.368001 -45.140420
v 13.181204 24.353001 -45.140420
v 14.773309 24.368001 -45.140420
v 14.772905 24.368001 -45.141420
v 13.181010 24.368001 -45.141420
v 13.181204 24.368001 -45.140420
v 13.181010 24.352052 -45.141420
v 13.181010 24.368001 -45.141420
v 14.772905 24.368001 -45.141420
v 14.772905 24.352052 -45.141420
v 13.191701 24.349170 -45.086420
v 13.181010 24.352052 -45.141420
v 14.772905 24.352052 -45.141420
v 14.795126 24.349170 -45.086420
v 13.191701 24.312533 -45.086420
v 13.191701 24.349170 -45.086420
v 14.795126 24.349170 -45.086420
v 14.795126 24.312533 -45.086420
v 14.795126 24.312533 -45.086420
v 14.789755 24.325826 -45.099713
v 13.189117 24.325826 -45.099713
v 13.191701 24.312533 -45.086420
v 14.789755 24.325826 -45.099713
v 14.789470 24.325119 -45.100420
v 13.188980 24.325119 -45.100420
v 13.189117 24.325826 -45.099713
v 13.191895 24.310119 -45.085420
v 13.188980 24.325119 -45.100420
v 14.789470 24.325119 -45.100420
v 14.795530 24.310119 -45.085420
v 13.191895 24.350119 -45.085420
v 13.191895 24.310119 -45.085420
v 14.795530 24.310119 -45.085420
v 14.795530 24.350119 -45.085420
f 969 970 961
f 964 965 966
f 969 961 962
f 964 966 967
f 968 969 962
f 963 964 967
f 968 962 963
f 963 967 968
f 971 972 973
f 976 977 978
f 971 973 974
f 976 978 979
f 980 971 974
f 975 976 979
f 980 974 975
f 975 979 980
f 981 982 984
f 984 982 983
f 985 986 988
f 988 986 987
f 989 990 992
f 992 990 991
f 993 994 996
f 996 994 995
f 997 998 1000
f 1000 998 999
f 1001 1002 1004
f 1004 1002 1003
f 1005 1006 1008
f 1008 1006 1007
f 1009 1010 1012
f 1012 1010 1011
f 1013 1014 1016
f 1016 1014 1015
f 1017 1018 1020
f 1020 1018 1019
o item_92b0f140_1135516
v 3.049106 24.325116 -40.321506
v 3.058450 24.310113 -40.309104
v 3.058450 24.350121 -40.309104
v 3.024188 24.353004 -40.354578
v 3.024188 24.368007 -40.354578
v 3.023565 24.368007 -40.355405
v 3.023565 24.352055 -40.355405
v 3.057827 24.349172 -40.309931
v 3.057827 24.312528 -40.309931
v 3.049547 24.325823 -40.320921
v 3.837560 24.310113 -41.305758
v 3.828257 24.325116 -41.318212
v 3.828696 24.325823 -41.317626
v 3.836940 24.312528 -41.306588
v 3.836940 24.349172 -41.306588
v 3.802830 24.352055 -41.352256
v 3.802830 24.368007 -41.352256
v 3.803449 24.368007 -41.351425
v 3.803449 24.353004 -41.351425
v 3.837560 24.350121 -41.305758
v 3.024188 24.353004 -40.354578
v 3.058450 24.350121 -40.309104
v 3.837560 24.350121 -41.305758
v 3.803449 24.353004 -41.351425
v 3.024188 24.368007 -40.354578
v 3.024188 24.353004 -40.354578
v 3.803449 24.353004 -41.351425
v 3.803449 24.368007 -41.351425
v 3.023565 24.368007 -40.355405
v 3.024188 24.368007 -40.354578
v 3.803449 24.368007 -41.351425
v 3.802830 24.368007 -41.352256
v 3.023565 24.352055 -40.355405
v 3.023565 24.368007 -40.355405
v 3.802830 24.368007 -41.352256
v 3.802830 24.352055 -41.352256
v 3.802830 24.352055 -41.352256
v 3.836940 24.349172 -41.306588
v 3.057827 24.349172 -40.309931
v 3.023565 24.352055 -40.355405
v 3.836940 24.349172 -41.306588
v 3.836940 24.312528 -41.306588
v 3.057827 24.312528 -40.309931
v 3.057827 24.349172 -40.309931
v 3.049547 24.325823 -40.320921
v 3.057827 24.312528 -40.309931
v 3.836940 24.312528 -41.306588
v 3.828696 24.325823 -41.317626
v 3.049106 24.325116 -40.321506
v 3.049547 24.325823 -40.320921
v 3.828696 24.325823 -41.317626
v 3.828257 24.325116 -41.318212
v 3.828257 24.325116 -41.318212
v 3.837560 24.310113 -41.305758
v 3.058450 24.310113 -40.309104
v 3.049106 24.325116 -40.321506
v 3.058450 24.350121 -40.309104
v 3.058450 24.310113 -40.309104
v 3.837560 24.310113 -41.305758
v 3.837560 24.350121 -41.305758
f 1029 1030 1021
f 1024 1025 1026
f 1029 1021 1022
f 1024 1026 1027
f 1028 1029 1022
f 1023 1024 1027
f 1028 1022 1023
f 1023 1027 1028
f 1031 1032 1033
f 1036 1037 1038
f 1031 1033 1034
f 1036 1038 1039
f 1040 1031 1034
f 1035 1036 1039
f 1040 1034 1035
f 1035 1039 1040
f 1041 1042 1044
f 1044 1042 1043
f 1045 1046 1048
f 1048 1046 1047
f 1049 1050 1052
f 1052 1050 1051
f 1053 1054 1056
f 1056 1054 1055
f 1057 1058 1060
f 1060 1058 1059
f 1061 1062 1064
f 1064 1062 1063
f 1065 1066 1068
f 1068 1066 1067
f 1069 1070 1072
f 1072 1070 1071
f 1073 1074 1076
f 1076 1074 1075
f 1077 1078 1080
f 1080 1078 1079
o item_92b0f140_1135568
v 1.301120 24.325119 -39.614708
v 1.292835 24.310120 -39.595175
v 1.292835 24.350119 -39.595175
v 1.323215 24.353001 -39.666795
v 1.323215 24.368000 -39.666795
v 1.323767 24.368000 -39.668097
v 1.323767 24.352052 -39.668097
v 1.293387 24.349170 -39.596477
v 1.293387 24.312533 -39.596477
v 1.300730 24.325826 -39.613787
v 3.058505 24.310120 -40.309443
v 3.049159 24.325119 -40.321843
v 3.049600 24.325826 -40.321259
v 3.057882 24.312533 -40.310270
v 3.057882 24.349170 -40.310270
v 3.023616 24.352052 -40.355738
v 3.023616 24.368000 -40.355738
v 3.024239 24.368000 -40.354911
v 3.024239 24.353001 -40.354911
v 3.058505 24.350119 -40.309443
v 1.323215 24.353001 -39.666795
v 1.292835 24.350119 -39.595175
v 3.058505 24.350119 -40.309443
v 3.024239 24.353001 -40.354911
v 1.323215 24.368000 -39.666795
v 1.323215 24.353001 -39.666795
v 3.024239 24.353001 -40.354911
v 3.024239 24.368000 -40.354911
v 1.323767 24.368000 -39.668097
v 1.323215 24.368000 -39.666795
v 3.024239 24.368000 -40.354911
v 3.023616 24.368000 -40.355738
v 1.323767 24.352052 -39.668097
v 1.323767 24.368000 -39.668097
v 3.023616 24.368000 -40.355738
v 3.023616 24.352052 -40.355738
v 3.023616 24.352052 -40.355738
v 3.057882 24.349170 -40.310270
v 1.293387 24.349170 -39.596477
v 1.323767 24.352052 -39.668097
v 3.057882 24.349170 -40.310270
v 3.057882 24.312533 -40.310270
v 1.293387 24.312533 -39.596477
v 1.293387 24.349170 -39.596477
v 1.300730 24.325826 -39.613787
v 1.293387 24.312533 -39.596477
v 3.057882 24.312533 -40.310270
v 3.049600 24.325826 -40.321259
v 1.301120 24.325119 -39.614708
v 1.300730 24.325826 -39.613787
v 3.049600 24.325826 -40.321259
v 3.049159 24.325119 -40.321843
v 3.049159 24.325119 -40.321843
v 3.058505 24.310120 -40.309443
v 1.292835 24.310120 -39.595175
v 1.301120 24.325119 -39.614708
v 1.292835 24.350119 -39.595175
v 1.292835 24.310120 -39.595175
v 3.058505 24.310120 -40.309443
v 3.058505 24.350119 -40.309443
f 1089 1090 1081
f 1084 1085 1086
f 1089 1081 1082
f 1084 1086 1087
f 1088 1089 1082
f 1083 1084 1087
f 1088 1082 1083
f 1083 1087 1088
f 1091 1092 1093
f 1096 1097 1098
f 1091 1093 1094
f 1096 1098 1099
f 1100 1091 1094
f 1095 1096 1099
f 1100 1094 1095
f 1095 1099 1100
f 1101 1102 1104
f 1104 1102 1103
f 1105 1106 1108
f 1108 1106 1107
f 1109 1110 1112
f 1112 1110 1111
f 1113 1114 1116
f 1116 1114 1115
f 1117 1118 1120
f 1120 1118 1119
f 1121 1122 1124
f 1124 1122 1123
f 1125 1126 1128
f 1128 1126 1127
f 1129 1130 1132
f 1132 1130 1131
f 1133 1134 1136
f 1136 1134 1135
f 1137 1138 1140
f 1140 1138 1139
