# DIMKO.app — selection export
# Generated: 2026-07-29T07:54:56.216Z
o item_92b0f140_1273442
v 28.400000 20.345308 -6.160000
v 28.400000 20.306212 -5.410000
v 28.400000 20.229212 -5.410000
v 28.400000 20.254212 -5.435000
v 28.400000 20.257040 -5.432172
v 28.400000 20.238869 -5.414000
v 28.400000 20.302415 -5.414000
v 28.400000 20.341094 -6.156000
v 28.400000 20.277965 -6.156000
v 28.400000 20.296137 -6.137828
v 28.400000 20.293308 -6.135000
v 28.400000 20.268308 -6.160000
v 13.750000 20.268308 -6.160000
v 13.750000 20.293308 -6.135000
v 13.750000 20.296137 -6.137828
v 13.750000 20.277965 -6.156000
v 13.750000 20.341094 -6.156000
v 13.750000 20.302415 -5.414000
v 13.750000 20.238869 -5.414000
v 13.750000 20.257040 -5.432172
v 13.750000 20.254212 -5.435000
v 13.750000 20.229212 -5.410000
v 13.750000 20.306212 -5.410000
v 13.750000 20.345308 -6.160000
v 28.400000 20.229212 -5.410000
v 28.400000 20.306212 -5.410000
v 13.750000 20.306212 -5.410000
v 13.750000 20.229212 -5.410000
v 28.400000 20.254212 -5.435000
v 28.400000 20.229212 -5.410000
v 13.750000 20.229212 -5.410000
v 13.750000 20.254212 -5.435000
v 28.400000 20.257040 -5.432172
v 28.400000 20.254212 -5.435000
v 13.750000 20.254212 -5.435000
v 13.750000 20.257040 -5.432172
v 28.400000 20.238869 -5.414000
v 28.400000 20.257040 -5.432172
v 13.750000 20.257040 -5.432172
v 13.750000 20.238869 -5.414000
v 28.400000 20.302415 -5.414000
v 28.400000 20.238869 -5.414000
v 13.750000 20.238869 -5.414000
v 13.750000 20.302415 -5.414000
v 28.400000 20.341094 -6.156000
v 28.400000 20.302415 -5.414000
v 13.750000 20.302415 -5.414000
v 13.750000 20.341094 -6.156000
v 28.400000 20.277965 -6.156000
v 28.400000 20.341094 -6.156000
v 13.750000 20.341094 -6.156000
v 13.750000 20.277965 -6.156000
v 28.400000 20.296137 -6.137828
v 28.400000 20.277965 -6.156000
v 13.750000 20.277965 -6.156000
v 13.750000 20.296137 -6.137828
v 28.400000 20.293308 -6.135000
v 28.400000 20.296137 -6.137828
v 13.750000 20.296137 -6.137828
v 13.750000 20.293308 -6.135000
v 28.400000 20.268308 -6.160000
v 28.400000 20.293308 -6.135000
v 13.750000 20.293308 -6.135000
v 13.750000 20.268308 -6.160000
v 28.400000 20.345308 -6.160000
v 28.400000 20.268308 -6.160000
v 13.750000 20.268308 -6.160000
v 13.750000 20.345308 -6.160000
v 28.400000 20.306212 -5.410000
v 28.400000 20.345308 -6.160000
v 13.750000 20.345308 -6.160000
v 13.750000 20.306212 -5.410000
f 3 4 5
f 9 10 11
f 3 5 6
f 9 11 12
f 2 3 6
f 8 9 12
f 2 6 7
f 8 12 1
f 1 2 7
f 7 8 1
f 13 14 15
f 19 20 21
f 13 15 16
f 19 21 22
f 24 13 16
f 18 19 22
f 24 16 17
f 18 22 23
f 23 24 17
f 17 18 23
f 25 26 28
f 28 26 27
f 29 30 32
f 32 30 31
f 33 34 36
f 36 34 35
f 37 38 40
f 40 38 39
f 41 42 44
f 44 42 43
f 45 46 48
f 48 46 47
f 49 50 52
f 52 50 51
f 53 54 56
f 56 54 55
f 57 58 60
f 60 58 59
f 61 62 64
f 64 62 63
f 65 66 68
f 68 66 67
f 69 70 72
f 72 70 71
o item_92b0f140_1273386
v 11.250002 20.345308 -6.160000
v 11.250002 20.306212 -5.410000
v 11.250002 20.229212 -5.410000
v 11.250002 20.254212 -5.435000
v 11.250002 20.257040 -5.432172
v 11.250002 20.238869 -5.414000
v 11.250002 20.302415 -5.414000
v 11.250002 20.341094 -6.156000
v 11.250002 20.277965 -6.156000
v 11.250002 20.296137 -6.137828
v 11.250002 20.293308 -6.135000
v 11.250002 20.268308 -6.160000
v -5.946162 20.268308 -6.160000
v -5.946162 20.293308 -6.135000
v -5.946162 20.296137 -6.137828
v -5.946162 20.277965 -6.156000
v -5.946162 20.341094 -6.156000
v -5.946162 20.302415 -5.414000
v -5.946162 20.238869 -5.414000
v -5.946162 20.257040 -5.432172
v -5.946162 20.254212 -5.435000
v -5.946162 20.229212 -5.410000
v -5.946162 20.306212 -5.410000
v -5.946162 20.345308 -6.160000
v 11.250002 20.229212 -5.410000
v 11.250002 20.306212 -5.410000
v -5.946162 20.306212 -5.410000
v -5.946162 20.229212 -5.410000
v 11.250002 20.254212 -5.435000
v 11.250002 20.229212 -5.410000
v -5.946162 20.229212 -5.410000
v -5.946162 20.254212 -5.435000
v 11.250002 20.257040 -5.432172
v 11.250002 20.254212 -5.435000
v -5.946162 20.254212 -5.435000
v -5.946162 20.257040 -5.432172
v 11.250002 20.238869 -5.414000
v 11.250002 20.257040 -5.432172
v -5.946162 20.257040 -5.432172
v -5.946162 20.238869 -5.414000
v 11.250002 20.302415 -5.414000
v 11.250002 20.238869 -5.414000
v -5.946162 20.238869 -5.414000
v -5.946162 20.302415 -5.414000
v 11.250002 20.341094 -6.156000
v 11.250002 20.302415 -5.414000
v -5.946162 20.302415 -5.414000
v -5.946162 20.341094 -6.156000
v 11.250002 20.277965 -6.156000
v 11.250002 20.341094 -6.156000
v -5.946162 20.341094 -6.156000
v -5.946162 20.277965 -6.156000
v 11.250002 20.296137 -6.137828
v 11.250002 20.277965 -6.156000
v -5.946162 20.277965 -6.156000
v -5.946162 20.296137 -6.137828
v 11.250002 20.293308 -6.135000
v 11.250002 20.296137 -6.137828
v -5.946162 20.296137 -6.137828
v -5.946162 20.293308 -6.135000
v 11.250002 20.268308 -6.160000
v 11.250002 20.293308 -6.135000
v -5.946162 20.293308 -6.135000
v -5.946162 20.268308 -6.160000
v 11.250002 20.345308 -6.160000
v 11.250002 20.268308 -6.160000
v -5.946162 20.268308 -6.160000
v -5.946162 20.345308 -6.160000
v 11.250002 20.306212 -5.410000
v 11.250002 20.345308 -6.160000
v -5.946162 20.345308 -6.160000
v -5.946162 20.306212 -5.410000
f 75 76 77
f 81 82 83
f 75 77 78
f 81 83 84
f 74 75 78
f 80 81 84
f 74 78 79
f 80 84 73
f 73 74 79
f 79 80 73
f 85 86 87
f 91 92 93
f 85 87 88
f 91 93 94
f 96 85 88
f 90 91 94
f 96 88 89
f 90 94 95
f 95 96 89
f 89 90 95
f 97 98 100
f 100 98 99
f 101 102 104
f 104 102 103
f 105 106 108
f 108 106 107
f 109 110 112
f 112 110 111
f 113 114 116
f 116 114 115
f 117 118 120
f 120 118 119
f 121 122 124
f 124 122 123
f 125 126 128
f 128 126 127
f 129 130 132
f 132 130 131
f 133 134 136
f 136 134 135
f 137 138 140
f 140 138 139
f 141 142 144
f 144 142 143
o item_92b0f140_1096777
v -5.207681 24.185701 -6.016549
v -5.204671 24.188529 -6.013913
v -5.185329 24.170355 -5.996981
v -5.185329 24.233505 -5.996981
v -5.975121 24.196597 -6.688369
v -5.975121 24.133049 -6.688369
v -5.955779 24.151223 -6.671437
v -5.952768 24.148394 -6.668801
v -5.979379 24.123390 -6.692096
v -5.979379 24.200404 -6.692096
v -5.181071 24.237710 -5.993254
v -5.181071 24.160696 -5.993254
v -22.742541 24.185701 -4.856929
v -22.740881 24.160696 -4.831984
v -22.740881 24.237710 -4.831984
v -22.790689 24.200404 -5.580326
v -22.790689 24.123390 -5.580326
v -22.789028 24.148394 -5.555382
v -22.789216 24.151223 -5.558203
v -22.790423 24.133049 -5.576335
v -22.790423 24.196597 -5.576335
v -22.741147 24.233505 -4.835975
v -22.741147 24.170355 -4.835975
v -22.742354 24.188529 -4.854107
v -22.790689 24.200404 -5.580326
v -22.740881 24.237710 -4.831984
v -5.181071 24.237710 -5.993254
v -5.979379 24.200404 -6.692096
v -5.185329 24.233505 -5.996981
v -5.185329 24.170355 -5.996981
v -22.741147 24.170355 -4.835975
v -22.741147 24.233505 -4.835975
v -5.207681 24.185701 -6.016549
v -5.181071 24.160696 -5.993254
v -22.740881 24.160696 -4.831984
v -22.742541 24.185701 -4.856929
v -5.181071 24.160696 -5.993254
v -5.181071 24.237710 -5.993254
v -22.740881 24.237710 -4.831984
v -22.740881 24.160696 -4.831984
v -5.975121 24.196597 -6.688369
v -5.185329 24.233505 -5.996981
v -22.741147 24.233505 -4.835975
v -22.790423 24.196597 -5.576335
v -22.790423 24.196597 -5.576335
v -22.790423 24.133049 -5.576335
v -5.975121 24.133049 -6.688369
v -5.975121 24.196597 -6.688369
v -22.790423 24.133049 -5.576335
v -22.789216 24.151223 -5.558203
v -5.955779 24.151223 -6.671437
v -5.975121 24.133049 -6.688369
v -22.789216 24.151223 -5.558203
v -22.789028 24.148394 -5.555382
v -5.952768 24.148394 -6.668801
v -5.955779 24.151223 -6.671437
v -5.979379 24.123390 -6.692096
v -5.952768 24.148394 -6.668801
v -22.789028 24.148394 -5.555382
v -22.790689 24.123390 -5.580326
v -5.979379 24.200404 -6.692096
v -5.979379 24.123390 -6.692096
v -22.790689 24.123390 -5.580326
v -22.790689 24.200404 -5.580326
v -22.742541 24.185701 -4.856929
v -22.742354 24.188529 -4.854107
v -5.204671 24.188529 -6.013913
v -5.207681 24.185701 -6.016549
v -22.742354 24.188529 -4.854107
v -22.741147 24.170355 -4.835975
v -5.185329 24.170355 -5.996981
v -5.204671 24.188529 -6.013913
f 156 145 146
f 150 151 152
f 156 146 147
f 150 152 153
f 155 156 147
f 149 150 153
f 155 147 148
f 149 153 154
f 154 155 148
f 148 149 154
f 167 168 157
f 161 162 163
f 167 157 158
f 161 163 164
f 166 167 158
f 160 161 164
f 166 158 159
f 160 164 165
f 165 166 159
f 159 160 165
f 169 170 172
f 172 170 171
f 173 174 176
f 176 174 175
f 177 178 180
f 180 178 179
f 181 182 184
f 184 182 183
f 185 186 188
f 188 186 187
f 189 190 192
f 192 190 191
f 193 194 196
f 196 194 195
f 197 198 200
f 200 198 199
f 201 202 204
f 204 202 203
f 205 206 208
f 208 206 207
f 209 210 212
f 212 210 211
f 213 214 216
f 216 214 215
o item_92b0f140_1096833
v -6.198924 24.185701 -20.933694
v -6.196102 24.188529 -20.933882
v -6.177970 24.170355 -20.935088
v -6.177970 24.233505 -20.935088
v -6.918330 24.196597 -20.885812
v -6.918330 24.133049 -20.885812
v -6.900198 24.151223 -20.887019
v -6.897376 24.148394 -20.887207
v -6.922321 24.123390 -20.885547
v -6.922321 24.200404 -20.885547
v -6.173979 24.237710 -20.935354
v -6.173979 24.160696 -20.935354
v -5.212554 24.185701 -6.018583
v -5.185959 24.160696 -5.995293
v -5.185959 24.237710 -5.995293
v -5.983801 24.200404 -6.693986
v -5.983801 24.123390 -6.693986
v -5.957206 24.148394 -6.670696
v -5.960215 24.151223 -6.673332
v -5.979546 24.133049 -6.690260
v -5.979546 24.196597 -6.690260
v -5.190214 24.233505 -5.999020
v -5.190214 24.170355 -5.999020
v -5.209545 24.188529 -6.015948
v -6.173979 24.237710 -20.935354
v -6.922321 24.200404 -20.885547
v -5.983801 24.200404 -6.693986
v -5.185959 24.237710 -5.995293
v -6.177970 24.233505 -20.935088
v -6.177970 24.170355 -20.935088
v -5.190214 24.170355 -5.999020
v -5.190214 24.233505 -5.999020
v -5.185959 24.160696 -5.995293
v -5.212554 24.185701 -6.018583
v -6.198924 24.185701 -20.933694
v -6.173979 24.160696 -20.935354
v -6.173979 24.160696 -20.935354
v -6.173979 24.237710 -20.935354
v -5.185959 24.237710 -5.995293
v -5.185959 24.160696 -5.995293
v -5.190214 24.233505 -5.999020
v -5.979546 24.196597 -6.690260
v -6.918330 24.196597 -20.885812
v -6.177970 24.233505 -20.935088
v -5.979546 24.196597 -6.690260
v -5.979546 24.133049 -6.690260
v -6.918330 24.133049 -20.885812
v -6.918330 24.196597 -20.885812
v -6.900198 24.151223 -20.887019
v -6.918330 24.133049 -20.885812
v -5.979546 24.133049 -6.690260
v -5.960215 24.151223 -6.673332
v -6.897376 24.148394 -20.887207
v -6.900198 24.151223 -20.887019
v -5.960215 24.151223 -6.673332
v -5.957206 24.148394 -6.670696
v -5.957206 24.148394 -6.670696
v -5.983801 24.123390 -6.693986
v -6.922321 24.123390 -20.885547
v -6.897376 24.148394 -20.887207
v -6.922321 24.200404 -20.885547
v -6.922321 24.123390 -20.885547
v -5.983801 24.123390 -6.693986
v -5.983801 24.200404 -6.693986
v -6.196102 24.188529 -20.933882
v -6.198924 24.185701 -20.933694
v -5.212554 24.185701 -6.018583
v -5.209545 24.188529 -6.015948
v -6.177970 24.170355 -20.935088
v -6.196102 24.188529 -20.933882
v -5.209545 24.188529 -6.015948
v -5.190214 24.170355 -5.999020
f 228 217 218
f 222 223 224
f 228 218 219
f 222 224 225
f 227 228 219
f 221 222 225
f 227 219 220
f 221 225 226
f 226 227 220
f 220 221 226
f 239 240 229
f 233 234 235
f 239 229 230
f 233 235 236
f 238 239 230
f 232 233 236
f 238 230 231
f 232 236 237
f 237 238 231
f 231 232 237
f 241 242 244
f 244 242 243
f 245 246 248
f 248 246 247
f 249 250 252
f 252 250 251
f 253 254 256
f 256 254 255
f 257 258 260
f 260 258 259
f 261 262 264
f 264 262 263
f 265 266 268
f 268 266 267
f 269 270 272
f 272 270 271
f 273 274 276
f 276 274 275
f 277 278 280
f 280 278 279
f 281 282 284
f 284 282 283
f 285 286 288
f 288 286 287
o item_92b0f140_1096692
v 9.425750 24.237710 -31.209014
v 9.144778 24.200410 -31.904399
v 9.144778 24.123410 -31.904399
v 9.154143 24.148410 -31.881220
v 9.153084 24.151238 -31.883842
v 9.146276 24.133067 -31.900691
v 9.146276 24.196604 -31.900691
v 9.424252 24.233506 -31.212723
v 9.424252 24.170367 -31.212723
v 9.417444 24.188538 -31.229572
v 9.416384 24.185710 -31.232194
v 9.425750 24.160710 -31.209014
v 17.190882 24.160710 -34.346541
v 17.181517 24.185710 -34.369720
v 17.182576 24.188538 -34.367098
v 17.189384 24.170367 -34.350249
v 17.189384 24.233506 -34.350249
v 16.911408 24.196604 -35.038217
v 16.911408 24.133067 -35.038217
v 16.918216 24.151238 -35.021368
v 16.919276 24.148410 -35.018746
v 16.909910 24.123410 -35.041926
v 16.909910 24.200410 -35.041926
v 17.190882 24.237710 -34.346541
v 9.144778 24.123410 -31.904399
v 9.144778 24.200410 -31.904399
v 16.909910 24.200410 -35.041926
v 16.909910 24.123410 -35.041926
v 9.154143 24.148410 -31.881220
v 9.144778 24.123410 -31.904399
v 16.909910 24.123410 -35.041926
v 16.919276 24.148410 -35.018746
v 9.153084 24.151238 -31.883842
v 9.154143 24.148410 -31.881220
v 16.919276 24.148410 -35.018746
v 16.918216 24.151238 -35.021368
v 9.146276 24.133067 -31.900691
v 9.153084 24.151238 -31.883842
v 16.918216 24.151238 -35.021368
v 16.911408 24.133067 -35.038217
v 9.146276 24.196604 -31.900691
v 9.146276 24.133067 -31.900691
v 16.911408 24.133067 -35.038217
v 16.911408 24.196604 -35.038217
v 9.424252 24.233506 -31.212723
v 9.146276 24.196604 -31.900691
v 16.911408 24.196604 -35.038217
v 17.189384 24.233506 -34.350249
v 9.424252 24.170367 -31.212723
v 9.424252 24.233506 -31.212723
v 17.189384 24.233506 -34.350249
v 17.189384 24.170367 -34.350249
v 9.417444 24.188538 -31.229572
v 9.424252 24.170367 -31.212723
v 17.189384 24.170367 -34.350249
v 17.182576 24.188538 -34.367098
v 9.416384 24.185710 -31.232194
v 9.417444 24.188538 -31.229572
v 17.182576 24.188538 -34.367098
v 17.181517 24.185710 -34.369720
v 9.425750 24.160710 -31.209014
v 9.416384 24.185710 -31.232194
v 17.181517 24.185710 -34.369720
v 17.190882 24.160710 -34.346541
v 9.425750 24.237710 -31.209014
v 9.425750 24.160710 -31.209014
v 17.190882 24.160710 -34.346541
v 17.190882 24.237710 -34.346541
v 9.144778 24.200410 -31.904399
v 9.425750 24.237710 -31.209014
v 17.190882 24.237710 -34.346541
v 16.909910 24.200410 -35.041926
f 291 292 293
f 297 298 299
f 291 293 294
f 297 299 300
f 290 291 294
f 296 297 300
f 290 294 295
f 296 300 289
f 289 290 295
f 295 296 289
f 301 302 303
f 307 308 309
f 301 303 304
f 307 309 310
f 312 301 304
f 306 307 310
f 312 304 305
f 306 310 311
f 311 312 305
f 305 306 311
f 313 314 316
f 316 314 315
f 317 318 320
f 320 318 319
f 321 322 324
f 324 322 323
f 325 326 328
f 328 326 327
f 329 330 332
f 332 330 331
f 333 334 336
f 336 334 335
f 337 338 340
f 340 338 339
f 341 342 344
f 344 342 343
f 345 346 348
f 348 346 347
f 349 350 352
f 352 350 351
f 353 354 356
f 356 354 355
f 357 358 360
f 360 358 359
o item_92b0f140_1273962
v 8.024223 24.185710 -30.673287
v 8.025283 24.188538 -30.670665
v 8.032091 24.170367 -30.653817
v 8.032091 24.233505 -30.653817
v 7.754115 24.196604 -31.341784
v 7.754115 24.133068 -31.341784
v 7.760923 24.151239 -31.324935
v 7.761982 24.148411 -31.322313
v 7.752617 24.123411 -31.345493
v 7.752617 24.200410 -31.345493
v 8.033589 24.237709 -30.650108
v 8.033589 24.160710 -30.650108
v -6.463021 24.185710 -24.812751
v -6.436880 24.160710 -24.796358
v -6.436880 24.237709 -24.796358
v -7.221129 24.200410 -25.288152
v -7.221129 24.123411 -25.288152
v -7.194988 24.148411 -25.271759
v -7.197946 24.151239 -25.273613
v -7.216947 24.133068 -25.285529
v -7.216947 24.196604 -25.285529
v -6.441063 24.233505 -24.798981
v -6.441063 24.170367 -24.798981
v -6.460064 24.188538 -24.810897
v -7.221129 24.200410 -25.288152
v -6.436880 24.237709 -24.796358
v 8.033589 24.237709 -30.650108
v 7.752617 24.200410 -31.345493
v 8.032091 24.233505 -30.653817
v 8.032091 24.170367 -30.653817
v -6.441063 24.170367 -24.798981
v -6.441063 24.233505 -24.798981
v 8.024223 24.185710 -30.673287
v 8.033589 24.160710 -30.650108
v -6.436880 24.160710 -24.796358
v -6.463021 24.185710 -24.812751
v -6.436880 24.237709 -24.796358
v -6.436880 24.160710 -24.796358
v 8.033589 24.160710 -30.650108
v 8.033589 24.237709 -30.650108
v 7.754115 24.196604 -31.341784
v 8.032091 24.233505 -30.653817
v -6.441063 24.233505 -24.798981
v -7.216947 24.196604 -25.285529
v -7.216947 24.196604 -25.285529
v -7.216947 24.133068 -25.285529
v 7.754115 24.133068 -31.341784
v 7.754115 24.196604 -31.341784
v -7.216947 24.133068 -25.285529
v -7.197946 24.151239 -25.273613
v 7.760923 24.151239 -31.324935
v 7.754115 24.133068 -31.341784
v -7.197946 24.151239 -25.273613
v -7.194988 24.148411 -25.271759
v 7.761982 24.148411 -31.322313
v 7.760923 24.151239 -31.324935
v 7.752617 24.123411 -31.345493
v 7.761982 24.148411 -31.322313
v -7.194988 24.148411 -25.271759
v -7.221129 24.123411 -25.288152
v 7.752617 24.200410 -31.345493
v 7.752617 24.123411 -31.345493
v -7.221129 24.123411 -25.288152
v -7.221129 24.200410 -25.288152
v -6.463021 24.185710 -24.812751
v -6.460064 24.188538 -24.810897
v 8.025283 24.188538 -30.670665
v 8.024223 24.185710 -30.673287
v -6.460064 24.188538 -24.810897
v -6.441063 24.170367 -24.798981
v 8.032091 24.170367 -30.653817
v 8.025283 24.188538 -30.670665
f 372 361 362
f 366 367 368
f 372 362 363
f 366 368 369
f 371 372 363
f 365 366 369
f 371 363 364
f 365 369 370
f 370 371 364
f 364 365 370
f 383 384 373
f 377 378 379
f 383 373 374
f 377 379 380
f 382 383 374
f 376 377 380
f 382 374 375
f 376 380 381
f 381 382 375
f 375 376 381
f 385 386 388
f 388 386 387
f 389 390 392
f 392 390 391
f 393 394 396
f 396 394 395
f 397 398 400
f 400 398 399
f 401 402 404
f 404 402 403
f 405 406 408
f 408 406 407
f 409 410 412
f 412 410 411
f 413 414 416
f 416 414 415
f 417 418 420
f 420 418 419
f 421 422 424
f 424 422 423
f 425 426 428
f 428 426 427
f 429 430 432
f 432 430 431
o item_92b0f140_1273905
v -6.460160 24.185701 -24.817233
v -6.457203 24.188529 -24.815377
v -6.438203 24.170355 -24.803456
v -6.438203 24.233505 -24.803456
v -7.214013 24.196597 -25.290224
v -7.214013 24.133049 -25.290224
v -7.195013 24.151223 -25.278304
v -7.192056 24.148394 -25.276447
v -7.218195 24.123390 -25.292848
v -7.218195 24.200404 -25.292848
v -6.434021 24.237710 -24.800832
v -6.434021 24.160696 -24.800832
v -6.302190 24.185701 -22.428532
v -6.277245 24.160696 -22.430192
v -6.277245 24.237710 -22.430192
v -7.025587 24.200404 -22.380385
v -7.025587 24.123390 -22.380385
v -7.000643 24.148394 -22.382045
v -7.003464 24.151223 -22.381857
v -7.021596 24.133049 -22.380650
v -7.021596 24.196597 -22.380650
v -6.281236 24.233505 -22.429926
v -6.281236 24.170355 -22.429926
v -6.299368 24.188529 -22.428720
v -6.434021 24.237710 -24.800832
v -7.218195 24.200404 -25.292848
v -7.025587 24.200404 -22.380385
v -6.277245 24.237710 -22.430192
v -6.438203 24.233505 -24.803456
v -6.438203 24.170355 -24.803456
v -6.281236 24.170355 -22.429926
v -6.281236 24.233505 -22.429926
v -6.277245 24.160696 -22.430192
v -6.302190 24.185701 -22.428532
v -6.460160 24.185701 -24.817233
v -6.434021 24.160696 -24.800832
v -6.434021 24.160696 -24.800832
v -6.434021 24.237710 -24.800832
v -6.277245 24.237710 -22.430192
v -6.277245 24.160696 -22.430192
v -6.281236 24.233505 -22.429926
v -7.021596 24.196597 -22.380650
v -7.214013 24.196597 -25.290224
v -6.438203 24.233505 -24.803456
v -7.021596 24.196597 -22.380650
v -7.021596 24.133049 -22.380650
v -7.214013 24.133049 -25.290224
v -7.214013 24.196597 -25.290224
v -7.195013 24.151223 -25.278304
v -7.214013 24.133049 -25.290224
v -7.021596 24.133049 -22.380650
v -7.003464 24.151223 -22.381857
v -7.192056 24.148394 -25.276447
v -7.195013 24.151223 -25.278304
v -7.003464 24.151223 -22.381857
v -7.000643 24.148394 -22.382045
v -7.000643 24.148394 -22.382045
v -7.025587 24.123390 -22.380385
v -7.218195 24.123390 -25.292848
v -7.192056 24.148394 -25.276447
v -7.218195 24.200404 -25.292848
v -7.218195 24.123390 -25.292848
v -7.025587 24.123390 -22.380385
v -7.025587 24.200404 -22.380385
v -6.457203 24.188529 -24.815377
v -6.460160 24.185701 -24.817233
v -6.302190 24.185701 -22.428532
v -6.299368 24.188529 -22.428720
v -6.438203 24.170355 -24.803456
v -6.457203 24.188529 -24.815377
v -6.299368 24.188529 -22.428720
v -6.281236 24.170355 -22.429926
f 444 433 434
f 438 439 440
f 444 434 435
f 438 440 441
f 443 444 435
f 437 438 441
f 443 435 436
f 437 441 442
f 442 443 436
f 436 437 442
f 455 456 445
f 449 450 451
f 455 445 446
f 449 451 452
f 454 455 446
f 448 449 452
f 454 446 447
f 448 452 453
f 453 454 447
f 447 448 453
f 457 458 460
f 460 458 459
f 461 462 464
f 464 462 463
f 465 466 468
f 468 466 467
f 469 470 472
f 472 470 471
f 473 474 476
f 476 474 475
f 477 478 480
f 480 478 479
f 481 482 484
f 484 482 483
f 485 486 488
f 488 486 487
f 489 490 492
f 492 490 491
f 493 494 496
f 496 494 495
f 497 498 500
f 500 498 499
f 501 502 504
f 504 502 503
