# DIMKO.app — selection export
# Generated: 2026-07-29T08:05:13.446Z
o item_92b0f140_1102535
v -2.280000 21.575180 0.570000
v -2.280000 21.625180 0.570000
v -2.280000 21.601649 1.020000
v -2.280000 21.600648 1.020000
v -2.280000 21.624126 0.571000
v -2.280000 21.577594 0.571000
v -2.280000 21.590887 0.584293
v -2.280000 21.590180 0.585000
v -10.670000 21.590180 0.585000
v -10.670000 21.590887 0.584293
v -10.670000 21.577594 0.571000
v -10.670000 21.624126 0.571000
v -10.670000 21.600648 1.020000
v -10.670000 21.601649 1.020000
v -10.670000 21.625180 0.570000
v -10.670000 21.575180 0.570000
v -2.280000 21.600648 1.020000
v -2.280000 21.601649 1.020000
v -10.670000 21.601649 1.020000
v -10.670000 21.600648 1.020000
v -2.280000 21.624126 0.571000
v -2.280000 21.600648 1.020000
v -10.670000 21.600648 1.020000
v -10.670000 21.624126 0.571000
v -2.280000 21.577594 0.571000
v -2.280000 21.624126 0.571000
v -10.670000 21.624126 0.571000
v -10.670000 21.577594 0.571000
v -2.280000 21.590887 0.584293
v -2.280000 21.577594 0.571000
v -10.670000 21.577594 0.571000
v -10.670000 21.590887 0.584293
v -2.280000 21.590180 0.585000
v -2.280000 21.590887 0.584293
v -10.670000 21.590887 0.584293
v -10.670000 21.590180 0.585000
v -2.280000 21.575180 0.570000
v -2.280000 21.590180 0.585000
v -10.670000 21.590180 0.585000
v -10.670000 21.575180 0.570000
v -2.280000 21.625180 0.570000
v -2.280000 21.575180 0.570000
v -10.670000 21.575180 0.570000
v -10.670000 21.625180 0.570000
v -2.280000 21.601649 1.020000
v -2.280000 21.625180 0.570000
v -10.670000 21.625180 0.570000
v -10.670000 21.601649 1.020000
f 7 8 1
f 2 3 4
f 6 7 1
f 2 4 5
f 5 6 1
f 1 2 5
f 16 9 10
f 12 13 14
f 16 10 11
f 12 14 15
f 15 16 11
f 11 12 15
f 17 18 20
f 20 18 19
f 21 22 24
f 24 22 23
f 25 26 28
f 28 26 27
f 29 30 32
f 32 30 31
f 33 34 36
f 36 34 35
f 37 38 40
f 40 38 39
f 41 42 44
f 44 42 43
f 45 46 48
f 48 46 47
o item_92b0f140_1129055
v 9.449040 21.638920 0.950000
v 9.449040 21.688920 0.950000
v 9.899040 21.665389 0.950000
v 9.899040 21.664388 0.950000
v 9.450040 21.687866 0.950000
v 9.450040 21.641334 0.950000
v 9.463333 21.654627 0.950000
v 9.464040 21.653920 0.950000
v 9.464040 21.653920 5.165000
v 9.463333 21.654627 5.165000
v 9.450040 21.641334 5.165000
v 9.450040 21.687866 5.165000
v 9.899040 21.664388 5.165000
v 9.899040 21.665389 5.165000
v 9.449040 21.688920 5.165000
v 9.449040 21.638920 5.165000
v 9.899040 21.664388 0.950000
v 9.899040 21.665389 0.950000
v 9.899040 21.665389 5.165000
v 9.899040 21.664388 5.165000
v 9.450040 21.687866 0.950000
v 9.899040 21.664388 0.950000
v 9.899040 21.664388 5.165000
v 9.450040 21.687866 5.165000
v 9.450040 21.641334 0.950000
v 9.450040 21.687866 0.950000
v 9.450040 21.687866 5.165000
v 9.450040 21.641334 5.165000
v 9.463333 21.654627 0.950000
v 9.450040 21.641334 0.950000
v 9.450040 21.641334 5.165000
v 9.463333 21.654627 5.165000
v 9.464040 21.653920 0.950000
v 9.463333 21.654627 0.950000
v 9.463333 21.654627 5.165000
v 9.464040 21.653920 5.165000
v 9.449040 21.638920 0.950000
v 9.464040 21.653920 0.950000
v 9.464040 21.653920 5.165000
v 9.449040 21.638920 5.165000
v 9.449040 21.688920 0.950000
v 9.449040 21.638920 0.950000
v 9.449040 21.638920 5.165000
v 9.449040 21.688920 5.165000
v 9.899040 21.665389 0.950000
v 9.449040 21.688920 0.950000
v 9.449040 21.688920 5.165000
v 9.899040 21.665389 5.165000
f 55 56 49
f 50 51 52
f 54 55 49
f 50 52 53
f 53 54 49
f 49 50 53
f 64 57 58
f 60 61 62
f 64 58 59
f 60 62 63
f 63 64 59
f 59 60 63
f 65 66 68
f 68 66 67
f 69 70 72
f 72 70 71
f 73 74 76
f 76 74 75
f 77 78 80
f 80 78 79
f 81 82 84
f 84 82 83
f 85 86 88
f 88 86 87
f 89 90 92
f 92 90 91
f 93 94 96
f 96 94 95
o item_92b0f140_1129102
v 9.498000 21.632000 4.680000
v 9.498000 21.682000 4.680000
v 9.498000 21.658469 5.130000
v 9.498000 21.657468 5.130000
v 9.498000 21.680946 4.681000
v 9.498000 21.634414 4.681000
v 9.498000 21.647707 4.694293
v 9.498000 21.647000 4.695000
v 7.580000 21.647000 4.695000
v 7.580000 21.647707 4.694293
v 7.580000 21.634414 4.681000
v 7.580000 21.680946 4.681000
v 7.580000 21.657468 5.130000
v 7.580000 21.658469 5.130000
v 7.580000 21.682000 4.680000
v 7.580000 21.632000 4.680000
v 9.498000 21.657468 5.130000
v 9.498000 21.658469 5.130000
v 7.580000 21.658469 5.130000
v 7.580000 21.657468 5.130000
v 9.498000 21.680946 4.681000
v 9.498000 21.657468 5.130000
v 7.580000 21.657468 5.130000
v 7.580000 21.680946 4.681000
v 9.498000 21.634414 4.681000
v 9.498000 21.680946 4.681000
v 7.580000 21.680946 4.681000
v 7.580000 21.634414 4.681000
v 9.498000 21.647707 4.694293
v 9.498000 21.634414 4.681000
v 7.580000 21.634414 4.681000
v 7.580000 21.647707 4.694293
v 9.498000 21.647000 4.695000
v 9.498000 21.647707 4.694293
v 7.580000 21.647707 4.694293
v 7.580000 21.647000 4.695000
v 9.498000 21.632000 4.680000
v 9.498000 21.647000 4.695000
v 7.580000 21.647000 4.695000
v 7.580000 21.632000 4.680000
v 9.498000 21.682000 4.680000
v 9.498000 21.632000 4.680000
v 7.580000 21.632000 4.680000
v 7.580000 21.682000 4.680000
v 9.498000 21.658469 5.130000
v 9.498000 21.682000 4.680000
v 7.580000 21.682000 4.680000
v 7.580000 21.658469 5.130000
f 103 104 97
f 98 99 100
f 102 103 97
f 98 100 101
f 101 102 97
f 97 98 101
f 112 105 106
f 108 109 110
f 112 106 107
f 108 110 111
f 111 112 107
f 107 108 111
f 113 114 116
f 116 114 115
f 117 118 120
f 120 118 119
f 121 122 124
f 124 122 123
f 125 126 128
f 128 126 127
f 129 130 132
f 132 130 131
f 133 134 136
f 136 134 135
f 137 138 140
f 140 138 139
f 141 142 144
f 144 142 143
o item_92b0f140_1129479
v -20.640109 25.815000 -30.369830
v -20.640109 25.865000 -30.369830
v -20.808693 25.841469 -30.787061
v -20.808693 25.840468 -30.787061
v -20.640484 25.863946 -30.370758
v -20.640484 25.817414 -30.370758
v -20.645464 25.830707 -30.383083
v -20.645729 25.830000 -30.383738
v -19.132987 25.830000 -30.994966
v -19.132722 25.830707 -30.994311
v -19.127742 25.817414 -30.981986
v -19.127742 25.863946 -30.981986
v -19.295951 25.840468 -31.398290
v -19.295951 25.841469 -31.398290
v -19.127367 25.865000 -30.981059
v -19.127367 25.815000 -30.981059
v -20.808693 25.840468 -30.787061
v -20.808693 25.841469 -30.787061
v -19.295951 25.841469 -31.398290
v -19.295951 25.840468 -31.398290
v -20.640484 25.863946 -30.370758
v -20.808693 25.840468 -30.787061
v -19.295951 25.840468 -31.398290
v -19.127742 25.863946 -30.981986
v -20.640484 25.817414 -30.370758
v -20.640484 25.863946 -30.370758
v -19.127742 25.863946 -30.981986
v -19.127742 25.817414 -30.981986
v -20.645464 25.830707 -30.383083
v -20.640484 25.817414 -30.370758
v -19.127742 25.817414 -30.981986
v -19.132722 25.830707 -30.994311
v -20.645729 25.830000 -30.383738
v -20.645464 25.830707 -30.383083
v -19.132722 25.830707 -30.994311
v -19.132987 25.830000 -30.994966
v -20.640109 25.815000 -30.369830
v -20.645729 25.830000 -30.383738
v -19.132987 25.830000 -30.994966
v -19.127367 25.815000 -30.981059
v -20.640109 25.865000 -30.369830
v -20.640109 25.815000 -30.369830
v -19.127367 25.815000 -30.981059
v -19.127367 25.865000 -30.981059
v -20.808693 25.841469 -30.787061
v -20.640109 25.865000 -30.369830
v -19.127367 25.865000 -30.981059
v -19.295951 25.841469 -31.398290
f 151 152 145
f 146 147 148
f 150 151 145
f 146 148 149
f 149 150 145
f 145 146 149
f 160 153 154
f 156 157 158
f 160 154 155
f 156 158 159
f 159 160 155
f 155 156 159
f 161 162 164
f 164 162 163
f 165 166 168
f 168 166 167
f 169 170 172
f 172 170 171
f 173 174 176
f 176 174 175
f 177 178 180
f 180 178 179
f 181 182 184
f 184 182 183
f 185 186 188
f 188 186 187
f 189 190 192
f 192 190 191
o item_92b0f140_1129527
v -18.331617 25.825000 -31.474726
v -18.331617 25.875000 -31.474726
v -18.500201 25.851469 -31.891957
v -18.500201 25.850468 -31.891957
v -18.331992 25.873946 -31.475653
v -18.331992 25.827414 -31.475653
v -18.336972 25.840707 -31.487978
v -18.337237 25.840000 -31.488634
v -16.667019 25.840000 -32.163491
v -16.666754 25.840707 -32.162835
v -16.661774 25.827414 -32.150510
v -16.661774 25.873946 -32.150510
v -16.829983 25.850468 -32.566814
v -16.829983 25.851469 -32.566814
v -16.661399 25.875000 -32.149583
v -16.661399 25.825000 -32.149583
v -18.500201 25.850468 -31.891957
v -18.500201 25.851469 -31.891957
v -16.829983 25.851469 -32.566814
v -16.829983 25.850468 -32.566814
v -18.331992 25.873946 -31.475653
v -18.500201 25.850468 -31.891957
v -16.829983 25.850468 -32.566814
v -16.661774 25.873946 -32.150510
v -18.331992 25.827414 -31.475653
v -18.331992 25.873946 -31.475653
v -16.661774 25.873946 -32.150510
v -16.661774 25.827414 -32.150510
v -18.336972 25.840707 -31.487978
v -18.331992 25.827414 -31.475653
v -16.661774 25.827414 -32.150510
v -16.666754 25.840707 -32.162835
v -18.337237 25.840000 -31.488634
v -18.336972 25.840707 -31.487978
v -16.666754 25.840707 -32.162835
v -16.667019 25.840000 -32.163491
v -18.331617 25.825000 -31.474726
v -18.337237 25.840000 -31.488634
v -16.667019 25.840000 -32.163491
v -16.661399 25.825000 -32.149583
v -18.331617 25.875000 -31.474726
v -18.331617 25.825000 -31.474726
v -16.661399 25.825000 -32.149583
v -16.661399 25.875000 -32.149583
v -18.500201 25.851469 -31.891957
v -18.331617 25.875000 -31.474726
v -16.661399 25.875000 -32.149583
v -16.829983 25.851469 -32.566814
f 199 200 193
f 194 195 196
f 198 199 193
f 194 196 197
f 197 198 193
f 193 194 197
f 208 201 202
f 204 205 206
f 208 202 203
f 204 206 207
f 207 208 203
f 203 204 207
f 209 210 212
f 212 210 211
f 213 214 216
f 216 214 215
f 217 218 220
f 220 218 219
f 221 222 224
f 224 222 223
f 225 226 228
f 228 226 227
f 229 230 232
f 232 230 231
f 233 234 236
f 236 234 235
f 237 238 240
f 240 238 239
o item_92b0f140_1129575
v 1.298375 25.805000 -39.596763
v 1.298375 25.855000 -39.596763
v 1.129792 25.831469 -40.013994
v 1.129792 25.830468 -40.013994
v 1.298001 25.853946 -39.597690
v 1.298001 25.807414 -39.597690
v 1.293021 25.820707 -39.610015
v 1.292756 25.820000 -39.610671
v 3.050949 25.820000 -40.321074
v 3.051214 25.820707 -40.320418
v 3.056194 25.807414 -40.308093
v 3.056194 25.853946 -40.308093
v 2.887985 25.830468 -40.724397
v 2.887985 25.831469 -40.724397
v 3.056568 25.855000 -40.307166
v 3.056568 25.805000 -40.307166
v 1.129792 25.830468 -40.013994
v 1.129792 25.831469 -40.013994
v 2.887985 25.831469 -40.724397
v 2.887985 25.830468 -40.724397
v 1.298001 25.853946 -39.597690
v 1.129792 25.830468 -40.013994
v 2.887985 25.830468 -40.724397
v 3.056194 25.853946 -40.308093
v 1.298001 25.807414 -39.597690
v 1.298001 25.853946 -39.597690
v 3.056194 25.853946 -40.308093
v 3.056194 25.807414 -40.308093
v 1.293021 25.820707 -39.610015
v 1.298001 25.807414 -39.597690
v 3.056194 25.807414 -40.308093
v 3.051214 25.820707 -40.320418
v 1.292756 25.820000 -39.610671
v 1.293021 25.820707 -39.610015
v 3.051214 25.820707 -40.320418
v 3.050949 25.820000 -40.321074
v 1.298375 25.805000 -39.596763
v 1.292756 25.820000 -39.610671
v 3.050949 25.820000 -40.321074
v 3.056568 25.805000 -40.307166
v 1.298375 25.855000 -39.596763
v 1.298375 25.805000 -39.596763
v 3.056568 25.805000 -40.307166
v 3.056568 25.855000 -40.307166
v 1.129792 25.831469 -40.013994
v 1.298375 25.855000 -39.596763
v 3.056568 25.855000 -40.307166
v 2.887985 25.831469 -40.724397
f 247 248 241
f 242 243 244
f 246 247 241
f 242 244 245
f 245 246 241
f 241 242 245
f 256 249 250
f 252 253 254
f 256 250 251
f 252 254 255
f 255 256 251
f 251 252 255
f 257 258 260
f 260 258 259
f 261 262 264
f 264 262 263
f 265 266 268
f 268 266 267
f 269 270 272
f 272 270 271
f 273 274 276
f 276 274 275
f 277 278 280
f 280 278 279
f 281 282 284
f 284 282 283
f 285 286 288
f 288 286 287
o item_92b0f140_1129623
v 3.813925 25.805000 -41.280778
v 3.813925 25.855000 -41.280778
v 3.645342 25.831469 -41.698009
v 3.645342 25.830468 -41.698009
v 3.813551 25.853946 -41.281705
v 3.813551 25.807414 -41.281705
v 3.808571 25.820707 -41.294030
v 3.808306 25.820000 -41.294685
v 13.246999 25.820000 -45.108419
v 13.247263 25.820707 -45.107763
v 13.252243 25.807414 -45.095438
v 13.252243 25.853946 -45.095438
v 13.084035 25.830468 -45.511742
v 13.084035 25.831469 -45.511742
v 13.252618 25.855000 -45.094511
v 13.252618 25.805000 -45.094511
v 3.645342 25.830468 -41.698009
v 3.645342 25.831469 -41.698009
v 13.084035 25.831469 -45.511742
v 13.084035 25.830468 -45.511742
v 3.813551 25.853946 -41.281705
v 3.645342 25.830468 -41.698009
v 13.084035 25.830468 -45.511742
v 13.252243 25.853946 -45.095438
v 3.813551 25.807414 -41.281705
v 3.813551 25.853946 -41.281705
v 13.252243 25.853946 -45.095438
v 13.252243 25.807414 -45.095438
v 3.808571 25.820707 -41.294030
v 3.813551 25.807414 -41.281705
v 13.252243 25.807414 -45.095438
v 13.247263 25.820707 -45.107763
v 3.808306 25.820000 -41.294685
v 3.808571 25.820707 -41.294030
v 13.247263 25.820707 -45.107763
v 13.246999 25.820000 -45.108419
v 3.813925 25.805000 -41.280778
v 3.808306 25.820000 -41.294685
v 13.246999 25.820000 -45.108419
v 13.252618 25.805000 -45.094511
v 3.813925 25.855000 -41.280778
v 3.813925 25.805000 -41.280778
v 13.252618 25.805000 -45.094511
v 13.252618 25.855000 -45.094511
v 3.645342 25.831469 -41.698009
v 3.813925 25.855000 -41.280778
v 13.252618 25.855000 -45.094511
v 13.084035 25.831469 -45.511742
f 295 296 289
f 290 291 292
f 294 295 289
f 290 292 293
f 293 294 289
f 289 290 293
f 304 297 298
f 300 301 302
f 304 298 299
f 300 302 303
f 303 304 299
f 299 300 303
f 305 306 308
f 308 306 307
f 309 310 312
f 312 310 311
f 313 314 316
f 316 314 315
f 317 318 320
f 320 318 319
f 321 322 324
f 324 322 323
f 325 326 328
f 328 326 327
f 329 330 332
f 332 330 331
f 333 334 336
f 336 334 335
o item_92b0f140_1129671
v 3.055467 25.805000 -40.303363
v 3.055467 25.855000 -40.303363
v 2.700858 25.831469 -40.580401
v 2.700858 25.830468 -40.580401
v 3.054679 25.853946 -40.303979
v 3.054679 25.807414 -40.303979
v 3.044204 25.820707 -40.312163
v 3.043647 25.820000 -40.312598
v 3.876502 25.820000 -41.378653
v 3.877059 25.820707 -41.378218
v 3.887534 25.807414 -41.370034
v 3.887534 25.853946 -41.370034
v 3.533713 25.830468 -41.646457
v 3.533713 25.831469 -41.646457
v 3.888322 25.855000 -41.369419
v 3.888322 25.805000 -41.369419
v 2.700858 25.830468 -40.580401
v 2.700858 25.831469 -40.580401
v 3.533713 25.831469 -41.646457
v 3.533713 25.830468 -41.646457
v 3.054679 25.853946 -40.303979
v 2.700858 25.830468 -40.580401
v 3.533713 25.830468 -41.646457
v 3.887534 25.853946 -41.370034
v 3.054679 25.807414 -40.303979
v 3.054679 25.853946 -40.303979
v 3.887534 25.853946 -41.370034
v 3.887534 25.807414 -41.370034
v 3.044204 25.820707 -40.312163
v 3.054679 25.807414 -40.303979
v 3.887534 25.807414 -41.370034
v 3.877059 25.820707 -41.378218
v 3.043647 25.820000 -40.312598
v 3.044204 25.820707 -40.312163
v 3.877059 25.820707 -41.378218
v 3.876502 25.820000 -41.378653
v 3.055467 25.805000 -40.303363
v 3.043647 25.820000 -40.312598
v 3.876502 25.820000 -41.378653
v 3.888322 25.805000 -41.369419
v 3.055467 25.855000 -40.303363
v 3.055467 25.805000 -40.303363
v 3.888322 25.805000 -41.369419
v 3.888322 25.855000 -41.369419
v 2.700858 25.831469 -40.580401
v 3.055467 25.855000 -40.303363
v 3.888322 25.855000 -41.369419
v 3.533713 25.831469 -41.646457
f 343 344 337
f 338 339 340
f 342 343 337
f 338 340 341
f 341 342 337
f 337 338 341
f 352 345 346
f 348 349 350
f 352 346 347
f 348 350 351
f 351 352 347
f 347 348 351
f 353 354 356
f 356 354 355
f 357 358 360
f 360 358 359
f 361 362 364
f 364 362 363
f 365 366 368
f 368 366 367
f 369 370 372
f 372 370 371
f 373 374 376
f 376 374 375
f 377 378 380
f 380 378 379
f 381 382 384
f 384 382 383
o item_92b0f140_1129719
v 13.181434 25.805000 -45.083234
v 13.181434 25.855000 -45.083234
v 13.181443 25.831469 -45.533234
v 13.181443 25.830468 -45.533234
v 13.181435 25.853946 -45.084234
v 13.181435 25.807414 -45.084234
v 13.181435 25.820707 -45.097527
v 13.181435 25.820000 -45.098234
v 14.601997 25.820000 -45.098206
v 14.601997 25.820707 -45.097499
v 14.601997 25.807414 -45.084206
v 14.601997 25.853946 -45.084206
v 14.602006 25.830468 -45.533206
v 14.602006 25.831469 -45.533206
v 14.601997 25.855000 -45.083206
v 14.601997 25.805000 -45.083206
v 13.181443 25.830468 -45.533234
v 13.181443 25.831469 -45.533234
v 14.602006 25.831469 -45.533206
v 14.602006 25.830468 -45.533206
v 13.181435 25.853946 -45.084234
v 13.181443 25.830468 -45.533234
v 14.602006 25.830468 -45.533206
v 14.601997 25.853946 -45.084206
v 13.181435 25.807414 -45.084234
v 13.181435 25.853946 -45.084234
v 14.601997 25.853946 -45.084206
v 14.601997 25.807414 -45.084206
v 13.181435 25.820707 -45.097527
v 13.181435 25.807414 -45.084234
v 14.601997 25.807414 -45.084206
v 14.601997 25.820707 -45.097499
v 13.181435 25.820000 -45.098234
v 13.181435 25.820707 -45.097527
v 14.601997 25.820707 -45.097499
v 14.601997 25.820000 -45.098206
v 13.181434 25.805000 -45.083234
v 13.181435 25.820000 -45.098234
v 14.601997 25.820000 -45.098206
v 14.601997 25.805000 -45.083206
v 13.181434 25.855000 -45.083234
v 13.181434 25.805000 -45.083234
v 14.601997 25.805000 -45.083206
v 14.601997 25.855000 -45.083206
v 13.181443 25.831469 -45.533234
v 13.181434 25.855000 -45.083234
v 14.601997 25.855000 -45.083206
v 14.602006 25.831469 -45.533206
f 391 392 385
f 386 387 388
f 390 391 385
f 386 388 389
f 389 390 385
f 385 386 389
f 400 393 394
f 396 397 398
f 400 394 395
f 396 398 399
f 399 400 395
f 395 396 399
f 401 402 404
f 404 402 403
f 405 406 408
f 408 406 407
f 409 410 412
f 412 410 411
f 413 414 416
f 416 414 415
f 417 418 420
f 420 418 419
f 421 422 424
f 424 422 423
f 425 426 428
f 428 426 427
f 429 430 432
f 432 430 431
o item_92b0f140_1172054
v -3.338048 25.863800 -38.227473
v -3.338048 25.913800 -38.227473
v -3.506631 25.890269 -38.644704
v -3.506631 25.889268 -38.644704
v -3.338422 25.912746 -38.228400
v -3.338422 25.866214 -38.228400
v -3.343402 25.879507 -38.240725
v -3.343667 25.878800 -38.241380
v 1.375672 25.878800 -40.148244
v 1.375937 25.879507 -40.147589
v 1.380917 25.866214 -40.135264
v 1.380917 25.912746 -40.135264
v 1.212708 25.889268 -40.551567
v 1.212708 25.890269 -40.551567
v 1.381291 25.913800 -40.134336
v 1.381291 25.863800 -40.134336
v -3.506631 25.889268 -38.644704
v -3.506631 25.890269 -38.644704
v 1.212708 25.890269 -40.551567
v 1.212708 25.889268 -40.551567
v -3.338422 25.912746 -38.228400
v -3.506631 25.889268 -38.644704
v 1.212708 25.889268 -40.551567
v 1.380917 25.912746 -40.135264
v -3.338422 25.866214 -38.228400
v -3.338422 25.912746 -38.228400
v 1.380917 25.912746 -40.135264
v 1.380917 25.866214 -40.135264
v -3.343402 25.879507 -38.240725
v -3.338422 25.866214 -38.228400
v 1.380917 25.866214 -40.135264
v 1.375937 25.879507 -40.147589
v -3.343667 25.878800 -38.241380
v -3.343402 25.879507 -38.240725
v 1.375937 25.879507 -40.147589
v 1.375672 25.878800 -40.148244
v -3.338048 25.863800 -38.227473
v -3.343667 25.878800 -38.241380
v 1.375672 25.878800 -40.148244
v 1.381291 25.863800 -40.134336
v -3.338048 25.913800 -38.227473
v -3.338048 25.863800 -38.227473
v 1.381291 25.863800 -40.134336
v 1.381291 25.913800 -40.134336
v -3.506631 25.890269 -38.644704
v -3.338048 25.913800 -38.227473
v 1.381291 25.913800 -40.134336
v 1.212708 25.890269 -40.551567
f 439 440 433
f 434 435 436
f 438 439 433
f 434 436 437
f 437 438 433
f 433 434 437
f 448 441 442
f 444 445 446
f 448 442 443
f 444 446 447
f 447 448 443
f 443 444 447
f 449 450 452
f 452 450 451
f 453 454 456
f 456 454 455
f 457 458 460
f 460 458 459
f 461 462 464
f 464 462 463
f 465 466 468
f 468 466 467
f 469 470 472
f 472 470 471
f 473 474 476
f 476 474 475
f 477 478 480
f 480 478 479
o item_92b0f140_1172148
v 4.880000 21.733800 5.115000
v 4.880000 21.783800 5.115000
v 4.880000 21.760269 5.565000
v 4.880000 21.759268 5.565000
v 4.880000 21.782746 5.116000
v 4.880000 21.736214 5.116000
v 4.880000 21.749507 5.129293
v 4.880000 21.748800 5.130000
v 3.100000 21.748800 5.130000
v 3.100000 21.749507 5.129293
v 3.100000 21.736214 5.116000
v 3.100000 21.782746 5.116000
v 3.100000 21.759268 5.565000
v 3.100000 21.760269 5.565000
v 3.100000 21.783800 5.115000
v 3.100000 21.733800 5.115000
v 4.880000 21.759268 5.565000
v 4.880000 21.760269 5.565000
v 3.100000 21.760269 5.565000
v 3.100000 21.759268 5.565000
v 4.880000 21.782746 5.116000
v 4.880000 21.759268 5.565000
v 3.100000 21.759268 5.565000
v 3.100000 21.782746 5.116000
v 4.880000 21.736214 5.116000
v 4.880000 21.782746 5.116000
v 3.100000 21.782746 5.116000
v 3.100000 21.736214 5.116000
v 4.880000 21.749507 5.129293
v 4.880000 21.736214 5.116000
v 3.100000 21.736214 5.116000
v 3.100000 21.749507 5.129293
v 4.880000 21.748800 5.130000
v 4.880000 21.749507 5.129293
v 3.100000 21.749507 5.129293
v 3.100000 21.748800 5.130000
v 4.880000 21.733800 5.115000
v 4.880000 21.748800 5.130000
v 3.100000 21.748800 5.130000
v 3.100000 21.733800 5.115000
v 4.880000 21.783800 5.115000
v 4.880000 21.733800 5.115000
v 3.100000 21.733800 5.115000
v 3.100000 21.783800 5.115000
v 4.880000 21.760269 5.565000
v 4.880000 21.783800 5.115000
v 3.100000 21.783800 5.115000
v 3.100000 21.760269 5.565000
f 487 488 481
f 482 483 484
f 486 487 481
f 482 484 485
f 485 486 481
f 481 482 485
f 496 489 490
f 492 493 494
f 496 490 491
f 492 494 495
f 495 496 491
f 491 492 495
f 497 498 500
f 500 498 499
f 501 502 504
f 504 502 503
f 505 506 508
f 508 506 507
f 509 510 512
f 512 510 511
f 513 514 516
f 516 514 515
f 517 518 520
f 520 518 519
f 521 522 524
f 524 522 523
f 525 526 528
f 528 526 527
o item_92b0f140_1172195
v 7.580000 21.625000 5.115000
v 7.580000 21.675000 5.115000
v 7.580000 21.651469 5.565000
v 7.580000 21.650468 5.565000
v 7.580000 21.673946 5.116000
v 7.580000 21.627414 5.116000
v 7.580000 21.640707 5.129293
v 7.580000 21.640000 5.130000
v 4.880000 21.640000 5.130000
v 4.880000 21.640707 5.129293
v 4.880000 21.627414 5.116000
v 4.880000 21.673946 5.116000
v 4.880000 21.650468 5.565000
v 4.880000 21.651469 5.565000
v 4.880000 21.675000 5.115000
v 4.880000 21.625000 5.115000
v 7.580000 21.650468 5.565000
v 7.580000 21.651469 5.565000
v 4.880000 21.651469 5.565000
v 4.880000 21.650468 5.565000
v 7.580000 21.673946 5.116000
v 7.580000 21.650468 5.565000
v 4.880000 21.650468 5.565000
v 4.880000 21.673946 5.116000
v 7.580000 21.627414 5.116000
v 7.580000 21.673946 5.116000
v 4.880000 21.673946 5.116000
v 4.880000 21.627414 5.116000
v 7.580000 21.640707 5.129293
v 7.580000 21.627414 5.116000
v 4.880000 21.627414 5.116000
v 4.880000 21.640707 5.129293
v 7.580000 21.640000 5.130000
v 7.580000 21.640707 5.129293
v 4.880000 21.640707 5.129293
v 4.880000 21.640000 5.130000
v 7.580000 21.625000 5.115000
v 7.580000 21.640000 5.130000
v 4.880000 21.640000 5.130000
v 4.880000 21.625000 5.115000
v 7.580000 21.675000 5.115000
v 7.580000 21.625000 5.115000
v 4.880000 21.625000 5.115000
v 4.880000 21.675000 5.115000
v 7.580000 21.651469 5.565000
v 7.580000 21.675000 5.115000
v 4.880000 21.675000 5.115000
v 4.880000 21.651469 5.565000
f 535 536 529
f 530 531 532
f 534 535 529
f 530 532 533
f 533 534 529
f 529 530 533
f 544 537 538
f 540 541 542
f 544 538 539
f 540 542 543
f 543 544 539
f 539 540 543
f 545 546 548
f 548 546 547
f 549 550 552
f 552 550 551
f 553 554 556
f 556 554 555
f 557 558 560
f 560 558 559
f 561 562 564
f 564 562 563
f 565 566 568
f 568 566 567
f 569 570 572
f 572 570 571
f 573 574 576
f 576 574 575
o item_92b0f140_1275014
v 9.425446 24.047051 -31.209822
v 9.425445 24.093583 -31.209822
v 9.313467 24.078014 -31.487074
v 9.313467 24.079015 -31.487073
v 9.425820 24.094637 -31.208894
v 9.425820 24.044637 -31.208896
v 9.420202 24.059639 -31.222804
v 9.420467 24.060346 -31.222149
v 8.029584 24.060321 -30.660387
v 8.029319 24.059614 -30.661042
v 8.034937 24.044612 -30.647134
v 8.034937 24.094612 -30.647132
v 7.922584 24.078990 -30.925311
v 7.922584 24.077989 -30.925312
v 8.034562 24.093558 -30.648060
v 8.034563 24.047026 -30.648060
v 9.425820 24.094637 -31.208894
v 9.313467 24.079015 -31.487073
v 7.922584 24.078990 -30.925311
v 8.034937 24.094612 -30.647132
v 9.425820 24.044637 -31.208896
v 9.425820 24.094637 -31.208894
v 8.034937 24.094612 -30.647132
v 8.034937 24.044612 -30.647134
v 9.420202 24.059639 -31.222804
v 9.425820 24.044637 -31.208896
v 8.034937 24.044612 -30.647134
v 8.029319 24.059614 -30.661042
v 9.420467 24.060346 -31.222149
v 9.420202 24.059639 -31.222804
v 8.029319 24.059614 -30.661042
v 8.029584 24.060321 -30.660387
v 9.425446 24.047051 -31.209822
v 9.420467 24.060346 -31.222149
v 8.029584 24.060321 -30.660387
v 8.034563 24.047026 -30.648060
v 9.425445 24.093583 -31.209822
v 9.425446 24.047051 -31.209822
v 8.034563 24.047026 -30.648060
v 8.034562 24.093558 -30.648060
v 9.313467 24.078014 -31.487074
v 9.425445 24.093583 -31.209822
v 8.034562 24.093558 -30.648060
v 7.922584 24.077989 -30.925312
v 9.313467 24.079015 -31.487073
v 9.313467 24.078014 -31.487074
v 7.922584 24.077989 -30.925312
v 7.922584 24.078990 -30.925311
f 583 584 577
f 578 579 580
f 582 583 577
f 578 580 581
f 581 582 577
f 577 578 581
f 592 585 586
f 588 589 590
f 592 586 587
f 588 590 591
f 591 592 587
f 587 588 591
f 593 594 596
f 596 594 595
f 597 598 600
f 600 598 599
f 601 602 604
f 604 602 603
f 605 606 608
f 608 606 607
f 609 610 612
f 612 610 611
f 613 614 616
f 616 614 615
f 617 618 620
f 620 618 619
f 621 622 624
f 624 622 623
o item_92b0f140_1275048
v -6.277473 24.047047 -22.430047
v -6.277475 24.093579 -22.430047
v -6.575685 24.078010 -22.410286
v -6.575684 24.079011 -22.410286
v -6.276477 24.094632 -22.430113
v -6.276477 24.044632 -22.430113
v -6.291437 24.059635 -22.429122
v -6.290732 24.060341 -22.429169
v -6.191597 24.060325 -20.933141
v -6.192302 24.059618 -20.933094
v -6.177341 24.044616 -20.934085
v -6.177342 24.094616 -20.934085
v -6.476549 24.078995 -20.914258
v -6.476550 24.077993 -20.914258
v -6.178340 24.093562 -20.934019
v -6.178338 24.047030 -20.934019
v -6.276477 24.094632 -22.430113
v -6.575684 24.079011 -22.410286
v -6.476549 24.078995 -20.914258
v -6.177342 24.094616 -20.934085
v -6.276477 24.044632 -22.430113
v -6.276477 24.094632 -22.430113
v -6.177342 24.094616 -20.934085
v -6.177341 24.044616 -20.934085
v -6.291437 24.059635 -22.429122
v -6.276477 24.044632 -22.430113
v -6.177341 24.044616 -20.934085
v -6.192302 24.059618 -20.933094
v -6.290732 24.060341 -22.429169
v -6.291437 24.059635 -22.429122
v -6.192302 24.059618 -20.933094
v -6.191597 24.060325 -20.933141
v -6.277473 24.047047 -22.430047
v -6.290732 24.060341 -22.429169
v -6.191597 24.060325 -20.933141
v -6.178338 24.047030 -20.934019
v -6.277475 24.093579 -22.430047
v -6.277473 24.047047 -22.430047
v -6.178338 24.047030 -20.934019
v -6.178340 24.093562 -20.934019
v -6.575685 24.078010 -22.410286
v -6.277475 24.093579 -22.430047
v -6.178340 24.093562 -20.934019
v -6.476550 24.077993 -20.914258
v -6.575684 24.079011 -22.410286
v -6.575685 24.078010 -22.410286
v -6.476550 24.077993 -20.914258
v -6.476549 24.078995 -20.914258
f 631 632 625
f 626 627 628
f 630 631 625
f 626 628 629
f 629 630 625
f 625 626 629
f 640 633 634
f 636 637 638
f 640 634 635
f 636 638 639
f 639 640 635
f 635 636 639
f 641 642 644
f 644 642 643
f 645 646 648
f 648 646 647
f 649 650 652
f 652 650 651
f 653 654 656
f 656 654 655
f 657 658 660
f 660 658 659
f 661 662 664
f 664 662 663
f 665 666 668
f 668 666 667
f 669 670 672
f 672 670 671
o item_92b0f140_1275093
v 13.750000 20.144130 -6.160000
v 13.750000 20.194130 -6.160000
v 13.750000 20.178460 -5.860000
v 13.750000 20.177459 -5.860000
v 13.750000 20.193076 -6.159000
v 13.750000 20.146544 -6.159000
v 13.750000 20.159837 -6.145707
v 13.750000 20.159130 -6.145000
v 11.250000 20.159130 -6.145000
v 11.250000 20.159837 -6.145707
v 11.250000 20.146544 -6.159000
v 11.250000 20.193076 -6.159000
v 11.250000 20.177459 -5.860000
v 11.250000 20.178460 -5.860000
v 11.250000 20.194130 -6.160000
v 11.250000 20.144130 -6.160000
v 13.750000 20.177459 -5.860000
v 13.750000 20.178460 -5.860000
v 11.250000 20.178460 -5.860000
v 11.250000 20.177459 -5.860000
v 13.750000 20.193076 -6.159000
v 13.750000 20.177459 -5.860000
v 11.250000 20.177459 -5.860000
v 11.250000 20.193076 -6.159000
v 13.750000 20.146544 -6.159000
v 13.750000 20.193076 -6.159000
v 11.250000 20.193076 -6.159000
v 11.250000 20.146544 -6.159000
v 13.750000 20.159837 -6.145707
v 13.750000 20.146544 -6.159000
v 11.250000 20.146544 -6.159000
v 11.250000 20.159837 -6.145707
v 13.750000 20.159130 -6.145000
v 13.750000 20.159837 -6.145707
v 11.250000 20.159837 -6.145707
v 11.250000 20.159130 -6.145000
v 13.750000 20.144130 -6.160000
v 13.750000 20.159130 -6.145000
v 11.250000 20.159130 -6.145000
v 11.250000 20.144130 -6.160000
v 13.750000 20.194130 -6.160000
v 13.750000 20.144130 -6.160000
v 11.250000 20.144130 -6.160000
v 11.250000 20.194130 -6.160000
v 13.750000 20.178460 -5.860000
v 13.750000 20.194130 -6.160000
v 11.250000 20.194130 -6.160000
v 11.250000 20.178460 -5.860000
f 679 680 673
f 674 675 676
f 678 679 673
f 674 676 677
f 677 678 673
f 673 674 677
f 688 681 682
f 684 685 686
f 688 682 683
f 684 686 687
f 687 688 683
f 683 684 687
f 689 690 692
f 692 690 691
f 693 694 696
f 696 694 695
f 697 698 700
f 700 698 699
f 701 702 704
f 704 702 703
f 705 706 708
f 708 706 707
f 709 710 712
f 712 710 711
f 713 714 716
f 716 714 715
f 717 718 720
f 720 718 719
