# DIMKO.app — selection export
# Generated: 2026-07-31T07:58:03.518Z
o item_958c4ea6_1181165
v -7.389860 19.845963 15.160000
v -7.374860 19.830963 15.160000
v -7.374860 19.870963 15.160000
v -7.430860 19.873897 15.160000
v -7.430860 19.888897 15.160000
v -7.431860 19.888897 15.160000
v -7.431860 19.872948 15.160000
v -7.375860 19.870014 15.160000
v -7.375860 19.833377 15.160000
v -7.389153 19.846670 15.160000
v -7.374860 19.830963 11.050000
v -7.389860 19.845963 11.065000
v -7.389153 19.846670 11.064293
v -7.375860 19.833377 11.051000
v -7.375860 19.870014 11.051000
v -7.431860 19.872948 11.107000
v -7.431860 19.888897 11.107000
v -7.430860 19.888897 11.106000
v -7.430860 19.873897 11.106000
v -7.374860 19.870963 11.050000
v -7.374860 19.870963 11.050000
v -7.430860 19.873897 11.106000
v -7.430860 19.873897 15.160000
v -7.374860 19.870963 15.160000
v -7.430860 19.873897 11.106000
v -7.430860 19.888897 11.106000
v -7.430860 19.888897 15.160000
v -7.430860 19.873897 15.160000
v -7.430860 19.888897 11.106000
v -7.431860 19.888897 11.107000
v -7.431860 19.888897 15.160000
v -7.430860 19.888897 15.160000
v -7.431860 19.888897 11.107000
v -7.431860 19.872948 11.107000
v -7.431860 19.872948 15.160000
v -7.431860 19.888897 15.160000
v -7.375860 19.870014 15.160000
v -7.431860 19.872948 15.160000
v -7.431860 19.872948 11.107000
v -7.375860 19.870014 11.051000
v -7.375860 19.833377 15.160000
v -7.375860 19.870014 15.160000
v -7.375860 19.870014 11.051000
v -7.375860 19.833377 11.051000
v -7.375860 19.833377 11.051000
v -7.389153 19.846670 11.064293
v -7.389153 19.846670 15.160000
v -7.375860 19.833377 15.160000
v -7.389153 19.846670 11.064293
v -7.389860 19.845963 11.065000
v -7.389860 19.845963 15.160000
v -7.389153 19.846670 15.160000
v -7.374860 19.830963 15.160000
v -7.389860 19.845963 15.160000
v -7.389860 19.845963 11.065000
v -7.374860 19.830963 11.050000
v -7.374860 19.870963 15.160000
v -7.374860 19.830963 15.160000
v -7.374860 19.830963 11.050000
v -7.374860 19.870963 11.050000
f 9 10 1
f 4 5 6
f 9 1 2
f 4 6 7
f 8 9 2
f 3 4 7
f 8 2 3
f 3 7 8
f 11 12 13
f 16 17 18
f 11 13 14
f 16 18 19
f 20 11 14
f 15 16 19
f 20 14 15
f 15 19 20
f 21 22 24
f 24 22 23
f 25 26 28
f 28 26 27
f 29 30 32
f 32 30 31
f 33 34 36
f 36 34 35
f 37 38 40
f 40 38 39
f 41 42 44
f 44 42 43
f 45 46 48
f 48 46 47
f 49 50 52
f 52 50 51
f 53 54 56
f 56 54 55
f 57 58 60
f 60 58 59
o item_958c4ea6_1181246
v -7.389862 19.845963 11.065000
v -7.374862 19.830963 11.050000
v -7.374862 19.870963 11.050000
v -7.430862 19.873897 11.106000
v -7.430862 19.888897 11.106000
v -7.431862 19.888897 11.107000
v -7.431862 19.872948 11.107000
v -7.375862 19.870014 11.051000
v -7.375862 19.833377 11.051000
v -7.389155 19.846670 11.064293
v -8.609998 19.830963 11.050000
v -8.609998 19.845963 11.065000
v -8.609998 19.846670 11.064293
v -8.609998 19.833377 11.051000
v -8.609998 19.870014 11.051000
v -8.609998 19.872948 11.107000
v -8.609998 19.888897 11.107000
v -8.609998 19.888897 11.106000
v -8.609998 19.873897 11.106000
v -8.609998 19.870963 11.050000
v -7.430862 19.873897 11.106000
v -7.374862 19.870963 11.050000
v -8.609998 19.870963 11.050000
v -8.609998 19.873897 11.106000
v -7.430862 19.888897 11.106000
v -7.430862 19.873897 11.106000
v -8.609998 19.873897 11.106000
v -8.609998 19.888897 11.106000
v -7.431862 19.888897 11.107000
v -7.430862 19.888897 11.106000
v -8.609998 19.888897 11.106000
v -8.609998 19.888897 11.107000
v -7.431862 19.872948 11.107000
v -7.431862 19.888897 11.107000
v -8.609998 19.888897 11.107000
v -8.609998 19.872948 11.107000
v -8.609998 19.872948 11.107000
v -8.609998 19.870014 11.051000
v -7.375862 19.870014 11.051000
v -7.431862 19.872948 11.107000
v -7.375862 19.833377 11.051000
v -7.375862 19.870014 11.051000
v -8.609998 19.870014 11.051000
v -8.609998 19.833377 11.051000
v -7.389155 19.846670 11.064293
v -7.375862 19.833377 11.051000
v -8.609998 19.833377 11.051000
v -8.609998 19.846670 11.064293
v -7.389862 19.845963 11.065000
v -7.389155 19.846670 11.064293
v -8.609998 19.846670 11.064293
v -8.609998 19.845963 11.065000
v -8.609998 19.845963 11.065000
v -8.609998 19.830963 11.050000
v -7.374862 19.830963 11.050000
v -7.389862 19.845963 11.065000
v -8.609998 19.830963 11.050000
v -8.609998 19.870963 11.050000
v -7.374862 19.870963 11.050000
v -7.374862 19.830963 11.050000
f 69 70 61
f 64 65 66
f 69 61 62
f 64 66 67
f 68 69 62
f 63 64 67
f 68 62 63
f 63 67 68
f 71 72 73
f 76 77 78
f 71 73 74
f 76 78 79
f 80 71 74
f 75 76 79
f 80 74 75
f 75 79 80
f 81 82 84
f 84 82 83
f 85 86 88
f 88 86 87
f 89 90 92
f 92 90 91
f 93 94 96
f 96 94 95
f 97 98 100
f 100 98 99
f 101 102 104
f 104 102 103
f 105 106 108
f 108 106 107
f 109 110 112
f 112 110 111
f 113 114 116
f 116 114 115
f 117 118 120
f 120 118 119
