# DIMKO.app — selection export
# Generated: 2026-07-31T07:53:59.211Z
o item_958c4ea6_1130139
v -30.217522 12.869502 22.433663
v -30.262478 12.869502 22.433663
v -30.615000 12.863857 22.541378
v -30.615000 12.818269 23.411244
v -29.865000 12.818269 23.411244
v -29.865000 12.863857 22.541378
v -30.614000 12.857782 22.638182
v -30.614000 12.862819 22.542064
v -30.262329 12.868451 22.434609
v -30.217671 12.868451 22.434609
v -29.866000 12.862819 22.542064
v -29.866000 12.852548 22.738045
v -29.865000 12.852548 22.738045
v -29.865000 12.817322 23.410193
v -30.615000 12.817322 23.410193
v -30.615000 12.857782 22.638182
v -30.615000 12.778890 22.634048
v -30.615000 12.857782 22.638182
v -30.615000 12.817322 23.410193
v -30.615000 12.740842 23.406185
v -30.615000 12.761328 23.387739
v -30.615000 12.760659 23.386996
v -30.615000 12.738378 23.407057
v -30.615000 12.818269 23.411244
v -30.615000 12.863857 22.541378
v -30.615000 12.783966 22.537191
v -29.865000 12.740842 23.406185
v -29.865000 12.817322 23.410193
v -29.865000 12.852548 22.738045
v -29.865000 12.773657 22.733911
v -29.865000 12.783966 22.537191
v -29.865000 12.863857 22.541378
v -29.865000 12.818269 23.411244
v -29.865000 12.738378 23.407057
v -29.865000 12.760659 23.386996
v -29.865000 12.761328 23.387739
v -30.614000 12.857782 22.638182
v -30.615000 12.857782 22.638182
v -30.615000 12.778890 22.634048
v -30.593800 12.800061 22.635157
v -30.594507 12.800767 22.635194
v -30.614000 12.781301 22.634174
v -30.614000 12.857782 22.638182
v -30.614000 12.781301 22.634174
v -30.614000 12.786338 22.538056
v -30.614000 12.862819 22.542064
v -30.614000 12.781301 22.634174
v -30.594507 12.800767 22.635194
v -30.594507 12.805050 22.553477
v -30.614000 12.786338 22.538056
v -30.594507 12.800767 22.635194
v -30.593800 12.800061 22.635157
v -30.593800 12.804316 22.553963
v -30.594507 12.805050 22.553477
v -30.615000 12.783966 22.537191
v -30.593800 12.804316 22.553963
v -30.593800 12.800061 22.635157
v -30.615000 12.778890 22.634048
v -30.614000 12.862819 22.542064
v -30.614000 12.786338 22.538056
v -30.262329 12.791970 22.430601
v -30.262329 12.868451 22.434609
v -30.259413 12.810416 22.451087
v -30.262329 12.791970 22.430601
v -30.614000 12.786338 22.538056
v -30.594507 12.805050 22.553477
v -30.259307 12.809673 22.451757
v -30.259413 12.810416 22.451087
v -30.594507 12.805050 22.553477
v -30.593800 12.804316 22.553963
v -30.593800 12.804316 22.553963
v -30.615000 12.783966 22.537191
v -30.262478 12.789611 22.429476
v -30.259307 12.809673 22.451757
v -30.615000 12.783966 22.537191
v -30.615000 12.863857 22.541378
v -30.262478 12.869502 22.433663
v -30.262478 12.789611 22.429476
v -30.262329 12.868451 22.434609
v -30.262329 12.791970 22.430601
v -30.217671 12.791970 22.430601
v -30.217671 12.868451 22.434609
v -30.262329 12.791970 22.430601
v -30.259413 12.810416 22.451087
v -30.220587 12.810416 22.451087
v -30.217671 12.791970 22.430601
v -30.220693 12.809673 22.451757
v -30.220587 12.810416 22.451087
v -30.259413 12.810416 22.451087
v -30.259307 12.809673 22.451757
v -30.259307 12.809673 22.451757
v -30.262478 12.789611 22.429476
v -30.217522 12.789611 22.429476
v -30.220693 12.809673 22.451757
v -30.217522 12.869502 22.433663
v -30.217522 12.789611 22.429476
v -30.262478 12.789611 22.429476
v -30.262478 12.869502 22.433663
v -30.217671 12.868451 22.434609
v -30.217671 12.791970 22.430601
v -29.866000 12.786338 22.538056
v -29.866000 12.862819 22.542064
v -30.217671 12.791970 22.430601
v -30.220587 12.810416 22.451087
v -29.885493 12.805050 22.553477
v -29.866000 12.786338 22.538056
v -30.220587 12.810416 22.451087
v -30.220693 12.809673 22.451757
v -29.886200 12.804316 22.553963
v -29.885493 12.805050 22.553477
v -29.865000 12.783966 22.537191
v -29.886200 12.804316 22.553963
v -30.220693 12.809673 22.451757
v -30.217522 12.789611 22.429476
v -29.865000 12.863857 22.541378
v -29.865000 12.783966 22.537191
v -30.217522 12.789611 22.429476
v -30.217522 12.869502 22.433663
v -29.866000 12.776067 22.734037
v -29.885493 12.795534 22.735057
v -29.886200 12.794827 22.735020
v -29.865000 12.773657 22.733911
v -29.865000 12.852548 22.738045
v -29.866000 12.852548 22.738045
v -29.866000 12.776067 22.734037
v -29.866000 12.852548 22.738045
v -29.866000 12.862819 22.542064
v -29.866000 12.786338 22.538056
v -29.885493 12.795534 22.735057
v -29.866000 12.776067 22.734037
v -29.866000 12.786338 22.538056
v -29.885493 12.805050 22.553477
v -29.886200 12.794827 22.735020
v -29.885493 12.795534 22.735057
v -29.885493 12.805050 22.553477
v -29.886200 12.804316 22.553963
v -29.886200 12.804316 22.553963
v -29.865000 12.783966 22.537191
v -29.865000 12.773657 22.733911
v -29.886200 12.794827 22.735020
v -30.615000 12.818269 23.411244
v -30.615000 12.738378 23.407057
v -29.865000 12.738378 23.407057
v -29.865000 12.818269 23.411244
v -30.615000 12.738378 23.407057
v -30.615000 12.760659 23.386996
v -29.865000 12.760659 23.386996
v -29.865000 12.738378 23.407057
v -30.615000 12.760659 23.386996
v -30.615000 12.761328 23.387739
v -29.865000 12.761328 23.387739
v -29.865000 12.760659 23.386996
v -30.615000 12.761328 23.387739
v -30.615000 12.740842 23.406185
v -29.865000 12.740842 23.406185
v -29.865000 12.761328 23.387739
v -30.615000 12.740842 23.406185
v -30.615000 12.817322 23.410193
v -29.865000 12.817322 23.410193
v -29.865000 12.740842 23.406185
f 5 6 1
f 1 2 3
f 3 4 5
f 5 1 3
f 15 16 7
f 7 8 9
f 9 10 11
f 12 13 14
f 14 15 7
f 7 9 11
f 12 14 7
f 7 11 12
f 25 26 17
f 20 21 22
f 25 17 18
f 20 22 23
f 24 25 18
f 19 20 23
f 24 18 19
f 19 23 24
f 35 36 27
f 29 30 31
f 34 35 27
f 29 31 32
f 33 34 27
f 28 29 32
f 33 27 28
f 28 32 33
f 42 37 38
f 39 40 41
f 42 38 39
f 39 41 42
f 43 44 46
f 46 44 45
f 47 48 50
f 50 48 49
f 51 52 54
f 54 52 53
f 55 56 58
f 58 56 57
f 59 60 62
f 62 60 61
f 63 64 66
f 66 64 65
f 67 68 70
f 70 68 69
f 71 72 74
f 74 72 73
f 75 76 78
f 78 76 77
f 79 80 82
f 82 80 81
f 83 84 86
f 86 84 85
f 87 88 90
f 90 88 89
f 91 92 94
f 94 92 93
f 95 96 98
f 98 96 97
f 99 100 102
f 102 100 101
f 103 104 106
f 106 104 105
f 107 108 110
f 110 108 109
f 111 112 114
f 114 112 113
f 115 116 118
f 118 116 117
f 123 124 119
f 119 120 121
f 122 123 119
f 119 121 122
f 125 126 128
f 128 126 127
f 129 130 132
f 132 130 131
f 133 134 136
f 136 134 135
f 137 138 140
f 140 138 139
f 141 142 144
f 144 142 143
f 145 146 148
f 148 146 147
f 149 150 152
f 152 150 151
f 153 154 156
f 156 154 155
f 157 158 160
f 160 158 159
