# DIMKO.app — selection export
# Generated: 2026-07-29T08:02:12.020Z
o item_92b0f140_1124341
v -24.924321 24.162007 -4.599319
v -24.925768 24.182071 -4.621552
v -24.925725 24.182814 -4.620885
v -24.924394 24.164366 -4.600442
v -24.924654 24.240856 -4.604441
v -24.978390 24.197492 -5.430032
v -24.978393 24.198491 -5.430084
v -24.924593 24.241907 -4.603496
v -24.979770 24.197479 -5.431662
v -25.805897 24.240866 -5.377857
v -25.809897 24.164376 -5.377596
v -25.789452 24.182824 -5.378928
v -25.788785 24.182081 -5.378971
v -25.811020 24.162018 -5.377523
v -25.806841 24.241917 -5.377795
v -24.979718 24.198477 -5.431666
v -25.586778 24.250092 -4.403881
v -25.186671 24.244101 -4.544476
v -25.147612 24.241907 -4.588971
v -24.924593 24.241907 -4.603496
v -24.978393 24.198491 -5.430084
v -24.978185 24.198479 -5.430321
v -24.978968 24.198440 -5.431006
v -25.752751 24.241907 -4.549546
v -24.924321 24.162007 -4.599319
v -24.924593 24.241907 -4.603496
v -25.147612 24.241907 -4.588971
v -25.147340 24.162007 -4.584794
v -24.925768 24.182071 -4.621552
v -24.924321 24.162007 -4.599319
v -25.147340 24.162007 -4.584794
v -25.157560 24.182071 -4.606456
v -25.157560 24.182071 -4.606456
v -25.157224 24.182814 -4.605807
v -24.925725 24.182814 -4.620885
v -24.925768 24.182071 -4.621552
v -25.157224 24.182814 -4.605807
v -25.147827 24.164366 -4.585890
v -24.924394 24.164366 -4.600442
v -24.925725 24.182814 -4.620885
v -25.147827 24.164366 -4.585890
v -25.148088 24.240856 -4.589889
v -24.924654 24.240856 -4.604441
v -24.924394 24.164366 -4.600442
v -25.752116 24.240870 -4.550269
v -24.978993 24.197440 -5.430979
v -24.978182 24.197480 -5.430269
v -24.978390 24.197492 -5.430032
v -24.924654 24.240856 -4.604441
v -25.148088 24.240856 -4.589889
v -25.187248 24.243055 -4.545280
v -25.586554 24.249034 -4.404965
v -25.186671 24.244101 -4.544476
v -25.186399 24.164201 -4.540298
v -25.147340 24.162007 -4.584794
v -25.147612 24.241907 -4.588971
v -25.186399 24.164201 -4.540298
v -25.198750 24.184384 -4.559533
v -25.157560 24.182071 -4.606456
v -25.147340 24.162007 -4.584794
v -25.157224 24.182814 -4.605807
v -25.157560 24.182071 -4.606456
v -25.198750 24.184384 -4.559533
v -25.198342 24.185125 -4.558966
v -25.147827 24.164366 -4.585890
v -25.157224 24.182814 -4.605807
v -25.198342 24.185125 -4.558966
v -25.186987 24.166565 -4.541280
v -25.148088 24.240856 -4.589889
v -25.147827 24.164366 -4.585890
v -25.186987 24.166565 -4.541280
v -25.187248 24.243055 -4.545280
v -25.586778 24.250092 -4.403881
v -25.586506 24.170192 -4.399704
v -25.186399 24.164201 -4.540298
v -25.186671 24.244101 -4.544476
v -25.586506 24.170192 -4.399704
v -25.581902 24.190121 -4.424896
v -25.198750 24.184384 -4.559533
v -25.186399 24.164201 -4.540298
v -25.198342 24.185125 -4.558966
v -25.198750 24.184384 -4.559533
v -25.581902 24.190121 -4.424896
v -25.582061 24.190869 -4.424129
v -25.186987 24.166565 -4.541280
v -25.198342 24.185125 -4.558966
v -25.582061 24.190869 -4.424129
v -25.586294 24.172544 -4.400965
v -25.187248 24.243055 -4.545280
v -25.186987 24.166565 -4.541280
v -25.586294 24.172544 -4.400965
v -25.586554 24.249034 -4.404965
v -25.586506 24.170192 -4.399704
v -25.586778 24.250092 -4.403881
v -25.752751 24.241907 -4.549546
v -25.754704 24.161898 -4.547321
v -25.581902 24.190121 -4.424896
v -25.586506 24.170192 -4.399704
v -25.754704 24.161898 -4.547321
v -25.740209 24.182315 -4.563833
v -25.740209 24.182315 -4.563833
v -25.740658 24.183049 -4.563321
v -25.582061 24.190869 -4.424129
v -25.581902 24.190121 -4.424896
v -25.740658 24.183049 -4.563321
v -25.753986 24.164275 -4.548139
v -25.586294 24.172544 -4.400965
v -25.582061 24.190869 -4.424129
v -25.753986 24.164275 -4.548139
v -25.752116 24.240870 -4.550269
v -25.586554 24.249034 -4.404965
v -25.586294 24.172544 -4.400965
v -25.918930 24.250102 -4.695392
v -25.752751 24.241907 -4.549546
v -24.978968 24.198440 -5.431006
v -24.979718 24.198477 -5.431666
v -25.806841 24.241917 -5.377795
v -25.792327 24.241917 -5.154802
v -25.831387 24.244111 -5.110306
v -25.918930 24.250102 -4.695392
v -25.923109 24.170202 -4.695120
v -25.754704 24.161898 -4.547321
v -25.752751 24.241907 -4.549546
v -25.923109 24.170202 -4.695120
v -25.898723 24.190132 -4.702952
v -25.740209 24.182315 -4.563833
v -25.754704 24.161898 -4.547321
v -25.740658 24.183049 -4.563321
v -25.740209 24.182315 -4.563833
v -25.898723 24.190132 -4.702952
v -25.899463 24.190879 -4.702695
v -25.753986 24.164275 -4.548139
v -25.740658 24.183049 -4.563321
v -25.899463 24.190879 -4.702695
v -25.921884 24.172555 -4.695495
v -25.752116 24.240870 -4.550269
v -25.753986 24.164275 -4.548139
v -25.921884 24.172555 -4.695495
v -25.917884 24.249044 -4.695755
v -25.830516 24.243065 -5.109839
v -25.791356 24.240866 -5.154449
v -25.805897 24.240866 -5.377857
v -24.979770 24.197479 -5.431662
v -24.978993 24.197440 -5.430979
v -25.752116 24.240870 -4.550269
v -25.917884 24.249044 -4.695755
v -25.923109 24.170202 -4.695120
v -25.918930 24.250102 -4.695392
v -25.831387 24.244111 -5.110306
v -25.835565 24.164211 -5.110034
v -25.898723 24.190132 -4.702952
v -25.923109 24.170202 -4.695120
v -25.835565 24.164211 -5.110034
v -25.814889 24.184395 -5.100284
v -25.814889 24.184395 -5.100284
v -25.815505 24.185135 -5.100614
v -25.899463 24.190879 -4.702695
v -25.898723 24.190132 -4.702952
v -25.815505 24.185135 -5.100614
v -25.834516 24.166576 -5.109579
v -25.921884 24.172555 -4.695495
v -25.899463 24.190879 -4.702695
v -25.917884 24.249044 -4.695755
v -25.921884 24.172555 -4.695495
v -25.834516 24.166576 -5.109579
v -25.830516 24.243065 -5.109839
v -25.835565 24.164211 -5.110034
v -25.831387 24.244111 -5.110306
v -25.792327 24.241917 -5.154802
v -25.796506 24.162018 -5.154529
v -25.814889 24.184395 -5.100284
v -25.835565 24.164211 -5.110034
v -25.796506 24.162018 -5.154529
v -25.773700 24.182081 -5.147206
v -25.773700 24.182081 -5.147206
v -25.774386 24.182824 -5.147455
v -25.815505 24.185135 -5.100614
v -25.814889 24.184395 -5.100284
v -25.774386 24.182824 -5.147455
v -25.795356 24.164376 -5.154188
v -25.834516 24.166576 -5.109579
v -25.815505 24.185135 -5.100614
v -25.795356 24.164376 -5.154188
v -25.791356 24.240866 -5.154449
v -25.830516 24.243065 -5.109839
v -25.834516 24.166576 -5.109579
v -25.806841 24.241917 -5.377795
v -25.811020 24.162018 -5.377523
v -25.796506 24.162018 -5.154529
v -25.792327 24.241917 -5.154802
v -25.811020 24.162018 -5.377523
v -25.788785 24.182081 -5.378971
v -25.773700 24.182081 -5.147206
v -25.796506 24.162018 -5.154529
v -25.774386 24.182824 -5.147455
v -25.773700 24.182081 -5.147206
v -25.788785 24.182081 -5.378971
v -25.789452 24.182824 -5.378928
v -25.795356 24.164376 -5.154188
v -25.774386 24.182824 -5.147455
v -25.789452 24.182824 -5.378928
v -25.809897 24.164376 -5.377596
v -25.791356 24.240866 -5.154449
v -25.795356 24.164376 -5.154188
v -25.809897 24.164376 -5.377596
v -25.805897 24.240866 -5.377857
v -24.978182 24.197480 -5.430269
v -24.978993 24.197440 -5.430979
v -24.979770 24.197479 -5.431662
v -24.979718 24.198477 -5.431666
v -24.978968 24.198440 -5.431006
v -24.978185 24.198479 -5.430321
v -24.978393 24.198491 -5.430084
v -24.978390 24.197492 -5.430032
v -24.978182 24.197480 -5.430269
v -24.978185 24.198479 -5.430321
f 1 2 3
f 5 6 7
f 1 3 4
f 5 7 8
f 8 1 4
f 4 5 8
f 15 16 9
f 11 12 13
f 15 9 10
f 11 13 14
f 14 15 10
f 10 11 14
f 23 24 17
f 17 18 19
f 19 20 21
f 21 22 23
f 23 17 19
f 19 21 23
f 25 26 28
f 28 26 27
f 29 30 32
f 32 30 31
f 33 34 36
f 36 34 35
f 37 38 40
f 40 38 39
f 41 42 44
f 44 42 43
f 51 52 45
f 45 46 47
f 48 49 50
f 50 51 45
f 45 47 48
f 48 50 45
f 53 54 56
f 56 54 55
f 57 58 60
f 60 58 59
f 61 62 64
f 64 62 63
f 65 66 68
f 68 66 67
f 69 70 72
f 72 70 71
f 73 74 76
f 76 74 75
f 77 78 80
f 80 78 79
f 81 82 84
f 84 82 83
f 85 86 88
f 88 86 87
f 89 90 92
f 92 90 91
f 93 94 96
f 96 94 95
f 97 98 100
f 100 98 99
f 101 102 104
f 104 102 103
f 105 106 108
f 108 106 107
f 109 110 112
f 112 110 111
f 118 119 113
f 113 114 115
f 115 116 117
f 118 113 115
f 115 117 118
f 120 121 123
f 123 121 122
f 124 125 127
f 127 125 126
f 128 129 131
f 131 129 130
f 132 133 135
f 135 133 134
f 136 137 139
f 139 137 138
f 145 146 140
f 141 142 143
f 143 144 145
f 145 140 141
f 141 143 145
f 147 148 150
f 150 148 149
f 151 152 154
f 154 152 153
f 155 156 158
f 158 156 157
f 159 160 162
f 162 160 161
f 163 164 166
f 166 164 165
f 167 168 170
f 170 168 169
f 171 172 174
f 174 172 173
f 175 176 178
f 178 176 177
f 179 180 182
f 182 180 181
f 183 184 186
f 186 184 185
f 187 188 190
f 190 188 189
f 191 192 194
f 194 192 193
f 195 196 198
f 198 196 197
f 199 200 202
f 202 200 201
f 203 204 206
f 206 204 205
f 211 212 207
f 207 208 209
f 209 210 211
f 211 207 209
f 213 214 216
f 216 214 215
o item_92b0f140_1123338
v 25.196782 24.162013 -38.391637
v 25.176132 24.182074 -38.383271
v 25.176752 24.182817 -38.383523
v 25.195739 24.164372 -38.391215
v 25.192024 24.240851 -38.389710
v 24.425225 24.197493 -38.079054
v 24.425176 24.198492 -38.079034
v 25.192902 24.241902 -38.390066
v 24.424110 24.197480 -38.077231
v 24.734528 24.240861 -37.309876
v 24.736031 24.164382 -37.306160
v 24.728349 24.182827 -37.325151
v 24.728098 24.182084 -37.325771
v 24.736453 24.162024 -37.305118
v 24.734883 24.241912 -37.308999
v 24.424090 24.198478 -38.077279
v 25.590260 24.250086 -37.824204
v 25.331199 24.244096 -38.159825
v 25.276702 24.241902 -38.182913
v 25.192902 24.241902 -38.390066
v 24.425176 24.198492 -38.079034
v 24.424886 24.198480 -38.079157
v 24.424481 24.198441 -38.078199
v 25.504095 24.241902 -37.620829
v 25.196782 24.162013 -38.391637
v 25.192902 24.241902 -38.390066
v 25.276702 24.241902 -38.182913
v 25.280582 24.162013 -38.184484
v 25.176132 24.182074 -38.383271
v 25.196782 24.162013 -38.391637
v 25.280582 24.162013 -38.184484
v 25.263228 24.182074 -38.167970
v 25.263228 24.182074 -38.167970
v 25.263738 24.182817 -38.168493
v 25.176752 24.182817 -38.383523
v 25.176132 24.182074 -38.383271
v 25.263738 24.182817 -38.168493
v 25.279694 24.164372 -38.183677
v 25.195739 24.164372 -38.391215
v 25.176752 24.182817 -38.383523
v 25.279694 24.164372 -38.183677
v 25.275980 24.240851 -38.182172
v 25.192024 24.240851 -38.389710
v 25.195739 24.164372 -38.391215
v 25.503210 24.240865 -37.621204
v 24.424515 24.197441 -38.078184
v 24.424934 24.197481 -38.079177
v 24.425225 24.197493 -38.079054
v 25.192024 24.240851 -38.389710
v 25.275980 24.240851 -38.182172
v 25.330618 24.243050 -38.159025
v 25.589161 24.249028 -37.824076
v 25.331199 24.244096 -38.159825
v 25.335080 24.164207 -38.161397
v 25.280582 24.162013 -38.184484
v 25.276702 24.241902 -38.182913
v 25.335080 24.164207 -38.161397
v 25.320699 24.184387 -38.143623
v 25.263228 24.182074 -38.167970
v 25.280582 24.162013 -38.184484
v 25.263738 24.182817 -38.168493
v 25.263228 24.182074 -38.167970
v 25.320699 24.184387 -38.143623
v 25.321109 24.185127 -38.144189
v 25.279694 24.164372 -38.183677
v 25.263738 24.182817 -38.168493
v 25.321109 24.185127 -38.144189
v 25.334332 24.166571 -38.160530
v 25.275980 24.240851 -38.182172
v 25.279694 24.164372 -38.183677
v 25.334332 24.166571 -38.160530
v 25.330618 24.243050 -38.159025
v 25.590260 24.250086 -37.824204
v 25.594140 24.170197 -37.825776
v 25.335080 24.164207 -38.161397
v 25.331199 24.244096 -38.159825
v 25.594140 24.170197 -37.825776
v 25.568781 24.190123 -37.822224
v 25.320699 24.184387 -38.143623
v 25.335080 24.164207 -38.161397
v 25.321109 24.185127 -38.144189
v 25.320699 24.184387 -38.143623
v 25.568781 24.190123 -37.822224
v 25.569559 24.190871 -37.822314
v 25.334332 24.166571 -38.160530
v 25.321109 24.185127 -38.144189
v 25.569559 24.190871 -37.822314
v 25.592876 24.172549 -37.825581
v 25.330618 24.243050 -38.159025
v 25.334332 24.166571 -38.160530
v 25.592876 24.172549 -37.825581
v 25.589161 24.249028 -37.824076
v 25.594140 24.170197 -37.825776
v 25.590260 24.250086 -37.824204
v 25.504095 24.241902 -37.620829
v 25.506821 24.161904 -37.619674
v 25.568781 24.190123 -37.822224
v 25.594140 24.170197 -37.825776
v 25.506821 24.161904 -37.619674
v 25.486597 24.182318 -37.628242
v 25.486597 24.182318 -37.628242
v 25.487223 24.183052 -37.627976
v 25.569559 24.190871 -37.822314
v 25.568781 24.190123 -37.822224
v 25.487223 24.183052 -37.627976
v 25.505819 24.164281 -37.620099
v 25.592876 24.172549 -37.825581
v 25.569559 24.190871 -37.822314
v 25.505819 24.164281 -37.620099
v 25.503210 24.240865 -37.621204
v 25.589161 24.249028 -37.824076
v 25.592876 24.172549 -37.825581
v 25.417823 24.250096 -37.417200
v 25.504095 24.241902 -37.620829
v 24.424481 24.198441 -38.078199
v 24.424090 24.198478 -38.077279
v 24.734883 24.241912 -37.308999
v 24.941997 24.241912 -37.392908
v 24.996495 24.244106 -37.369821
v 25.417823 24.250096 -37.417200
v 25.419393 24.170207 -37.413319
v 25.506821 24.161904 -37.619674
v 25.504095 24.241902 -37.620829
v 25.419393 24.170207 -37.413319
v 25.404304 24.190134 -37.434006
v 25.486597 24.182318 -37.628242
v 25.506821 24.161904 -37.619674
v 25.487223 24.183052 -37.627976
v 25.486597 24.182318 -37.628242
v 25.404304 24.190134 -37.434006
v 25.404780 24.190881 -37.433384
v 25.505819 24.164281 -37.620099
v 25.487223 24.183052 -37.627976
v 25.404780 24.190881 -37.433384
v 25.418653 24.172560 -37.414363
v 25.503210 24.240865 -37.621204
v 25.505819 24.164281 -37.620099
v 25.418653 24.172560 -37.414363
v 25.417150 24.249038 -37.418079
v 24.996665 24.243060 -37.370794
v 24.942027 24.240861 -37.393941
v 24.734528 24.240861 -37.309876
v 24.424110 24.197480 -38.077231
v 24.424515 24.197441 -38.078184
v 25.503210 24.240865 -37.621204
v 25.417150 24.249038 -37.418079
v 25.419393 24.170207 -37.413319
v 25.417823 24.250096 -37.417200
v 24.996495 24.244106 -37.369821
v 24.998065 24.164217 -37.365939
v 25.404304 24.190134 -37.434006
v 25.419393 24.170207 -37.413319
v 24.998065 24.164217 -37.365939
v 25.000829 24.184398 -37.388634
v 25.000829 24.184398 -37.388634
v 25.000710 24.185137 -37.387946
v 25.404780 24.190881 -37.433384
v 25.404304 24.190134 -37.434006
v 25.000710 24.185137 -37.387946
v 24.998168 24.166582 -37.367078
v 25.418653 24.172560 -37.414363
v 25.404780 24.190881 -37.433384
v 25.417150 24.249038 -37.418079
v 25.418653 24.172560 -37.414363
v 24.998168 24.166582 -37.367078
v 24.996665 24.243060 -37.370794
v 24.998065 24.164217 -37.365939
v 24.996495 24.244106 -37.369821
v 24.941997 24.241912 -37.392908
v 24.943567 24.162024 -37.389026
v 25.000829 24.184398 -37.388634
v 24.998065 24.164217 -37.365939
v 24.943567 24.162024 -37.389026
v 24.943359 24.182084 -37.412981
v 24.943359 24.182084 -37.412981
v 24.943339 24.182827 -37.412250
v 25.000710 24.185137 -37.387946
v 25.000829 24.184398 -37.388634
v 24.943339 24.182827 -37.412250
v 24.943530 24.164382 -37.390225
v 24.998168 24.166582 -37.367078
v 25.000710 24.185137 -37.387946
v 24.943530 24.164382 -37.390225
v 24.942027 24.240861 -37.393941
v 24.996665 24.243060 -37.370794
v 24.998168 24.166582 -37.367078
v 24.734883 24.241912 -37.308999
v 24.736453 24.162024 -37.305118
v 24.943567 24.162024 -37.389026
v 24.941997 24.241912 -37.392908
v 24.736453 24.162024 -37.305118
v 24.728098 24.182084 -37.325771
v 24.943359 24.182084 -37.412981
v 24.943567 24.162024 -37.389026
v 24.943339 24.182827 -37.412250
v 24.943359 24.182084 -37.412981
v 24.728098 24.182084 -37.325771
v 24.728349 24.182827 -37.325151
v 24.943530 24.164382 -37.390225
v 24.943339 24.182827 -37.412250
v 24.728349 24.182827 -37.325151
v 24.736031 24.164382 -37.306160
v 24.942027 24.240861 -37.393941
v 24.943530 24.164382 -37.390225
v 24.736031 24.164382 -37.306160
v 24.734528 24.240861 -37.309876
v 24.424934 24.197481 -38.079177
v 24.424515 24.197441 -38.078184
v 24.424110 24.197480 -38.077231
v 24.424090 24.198478 -38.077279
v 24.424481 24.198441 -38.078199
v 24.424886 24.198480 -38.079157
v 24.425176 24.198492 -38.079034
v 24.425225 24.197493 -38.079054
v 24.424934 24.197481 -38.079177
v 24.424886 24.198480 -38.079157
f 217 218 219
f 221 222 223
f 217 219 220
f 221 223 224
f 224 217 220
f 220 221 224
f 231 232 225
f 227 228 229
f 231 225 226
f 227 229 230
f 230 231 226
f 226 227 230
f 239 240 233
f 233 234 235
f 235 236 237
f 237 238 239
f 239 233 235
f 235 237 239
f 241 242 244
f 244 242 243
f 245 246 248
f 248 246 247
f 249 250 252
f 252 250 251
f 253 254 256
f 256 254 255
f 257 258 260
f 260 258 259
f 267 268 261
f 261 262 263
f 264 265 266
f 266 267 261
f 261 263 264
f 264 266 261
f 269 270 272
f 272 270 271
f 273 274 276
f 276 274 275
f 277 278 280
f 280 278 279
f 281 282 284
f 284 282 283
f 285 286 288
f 288 286 287
f 289 290 292
f 292 290 291
f 293 294 296
f 296 294 295
f 297 298 300
f 300 298 299
f 301 302 304
f 304 302 303
f 305 306 308
f 308 306 307
f 309 310 312
f 312 310 311
f 313 314 316
f 316 314 315
f 317 318 320
f 320 318 319
f 321 322 324
f 324 322 323
f 325 326 328
f 328 326 327
f 334 335 329
f 329 330 331
f 331 332 333
f 334 329 331
f 331 333 334
f 336 337 339
f 339 337 338
f 340 341 343
f 343 341 342
f 344 345 347
f 347 345 346
f 348 349 351
f 351 349 350
f 352 353 355
f 355 353 354
f 361 362 356
f 357 358 359
f 359 360 361
f 361 356 357
f 357 359 361
f 363 364 366
f 366 364 365
f 367 368 370
f 370 368 369
f 371 372 374
f 374 372 373
f 375 376 378
f 378 376 377
f 379 380 382
f 382 380 381
f 383 384 386
f 386 384 385
f 387 388 390
f 390 388 389
f 391 392 394
f 394 392 393
f 395 396 398
f 398 396 397
f 399 400 402
f 402 400 401
f 403 404 406
f 406 404 405
f 407 408 410
f 410 408 409
f 411 412 414
f 414 412 413
f 415 416 418
f 418 416 417
f 419 420 422
f 422 420 421
f 427 428 423
f 423 424 425
f 425 426 427
f 427 423 425
f 429 430 432
f 432 430 431
o item_92b0f140_1121015
v 16.978253 24.162013 -56.504222
v 16.986619 24.182074 -56.483572
v 16.986367 24.182817 -56.484192
v 16.978675 24.164372 -56.503179
v 16.980180 24.240851 -56.499464
v 17.290836 24.197493 -55.732665
v 17.290856 24.198492 -55.732616
v 16.979824 24.241902 -56.500342
v 17.292659 24.197480 -55.731550
v 18.060014 24.240861 -56.041968
v 18.063730 24.164382 -56.043471
v 18.044739 24.182827 -56.035789
v 18.044119 24.182084 -56.035538
v 18.064772 24.162024 -56.043893
v 18.060891 24.241912 -56.042323
v 17.292611 24.198478 -55.731530
v 17.545686 24.250086 -56.897700
v 17.210065 24.244096 -56.638639
v 17.186977 24.241902 -56.584142
v 16.979824 24.241902 -56.500342
v 17.290856 24.198492 -55.732616
v 17.290733 24.198480 -55.732326
v 17.291691 24.198441 -55.731921
v 17.749061 24.241902 -56.811535
v 16.978253 24.162013 -56.504222
v 16.979824 24.241902 -56.500342
v 17.186977 24.241902 -56.584142
v 17.185406 24.162013 -56.588022
v 16.986619 24.182074 -56.483572
v 16.978253 24.162013 -56.504222
v 17.185406 24.162013 -56.588022
v 17.201920 24.182074 -56.570668
v 17.201920 24.182074 -56.570668
v 17.201397 24.182817 -56.571178
v 16.986367 24.182817 -56.484192
v 16.986619 24.182074 -56.483572
v 17.201397 24.182817 -56.571178
v 17.186213 24.164372 -56.587134
v 16.978675 24.164372 -56.503179
v 16.986367 24.182817 -56.484192
v 17.186213 24.164372 -56.587134
v 17.187718 24.240851 -56.583420
v 16.980180 24.240851 -56.499464
v 16.978675 24.164372 -56.503179
v 17.748686 24.240865 -56.810650
v 17.291706 24.197441 -55.731955
v 17.290713 24.197481 -55.732374
v 17.290836 24.197493 -55.732665
v 16.980180 24.240851 -56.499464
v 17.187718 24.240851 -56.583420
v 17.210865 24.243050 -56.638058
v 17.545814 24.249028 -56.896601
v 17.210065 24.244096 -56.638639
v 17.208493 24.164207 -56.642520
v 17.185406 24.162013 -56.588022
v 17.186977 24.241902 -56.584142
v 17.208493 24.164207 -56.642520
v 17.226267 24.184387 -56.628139
v 17.201920 24.182074 -56.570668
v 17.185406 24.162013 -56.588022
v 17.201397 24.182817 -56.571178
v 17.201920 24.182074 -56.570668
v 17.226267 24.184387 -56.628139
v 17.225701 24.185127 -56.628549
v 17.186213 24.164372 -56.587134
v 17.201397 24.182817 -56.571178
v 17.225701 24.185127 -56.628549
v 17.209360 24.166571 -56.641772
v 17.187718 24.240851 -56.583420
v 17.186213 24.164372 -56.587134
v 17.209360 24.166571 -56.641772
v 17.210865 24.243050 -56.638058
v 17.545686 24.250086 -56.897700
v 17.544114 24.170197 -56.901580
v 17.208493 24.164207 -56.642520
v 17.210065 24.244096 -56.638639
v 17.544114 24.170197 -56.901580
v 17.547666 24.190123 -56.876221
v 17.226267 24.184387 -56.628139
v 17.208493 24.164207 -56.642520
v 17.225701 24.185127 -56.628549
v 17.226267 24.184387 -56.628139
v 17.547666 24.190123 -56.876221
v 17.547576 24.190871 -56.876999
v 17.209360 24.166571 -56.641772
v 17.225701 24.185127 -56.628549
v 17.547576 24.190871 -56.876999
v 17.544309 24.172549 -56.900316
v 17.210865 24.243050 -56.638058
v 17.209360 24.166571 -56.641772
v 17.544309 24.172549 -56.900316
v 17.545814 24.249028 -56.896601
v 17.544114 24.170197 -56.901580
v 17.545686 24.250086 -56.897700
v 17.749061 24.241902 -56.811535
v 17.750216 24.161904 -56.814261
v 17.547666 24.190123 -56.876221
v 17.544114 24.170197 -56.901580
v 17.750216 24.161904 -56.814261
v 17.741648 24.182318 -56.794037
v 17.741648 24.182318 -56.794037
v 17.741914 24.183052 -56.794663
v 17.547576 24.190871 -56.876999
v 17.547666 24.190123 -56.876221
v 17.741914 24.183052 -56.794663
v 17.749791 24.164281 -56.813259
v 17.544309 24.172549 -56.900316
v 17.547576 24.190871 -56.876999
v 17.749791 24.164281 -56.813259
v 17.748686 24.240865 -56.810650
v 17.545814 24.249028 -56.896601
v 17.544309 24.172549 -56.900316
v 17.952690 24.250096 -56.725263
v 17.749061 24.241902 -56.811535
v 17.291691 24.198441 -55.731921
v 17.292611 24.198478 -55.731530
v 18.060891 24.241912 -56.042323
v 17.976982 24.241912 -56.249437
v 18.000069 24.244106 -56.303935
v 17.952690 24.250096 -56.725263
v 17.956571 24.170207 -56.726833
v 17.750216 24.161904 -56.814261
v 17.749061 24.241902 -56.811535
v 17.956571 24.170207 -56.726833
v 17.935884 24.190134 -56.711744
v 17.741648 24.182318 -56.794037
v 17.750216 24.161904 -56.814261
v 17.741914 24.183052 -56.794663
v 17.741648 24.182318 -56.794037
v 17.935884 24.190134 -56.711744
v 17.936506 24.190881 -56.712220
v 17.749791 24.164281 -56.813259
v 17.741914 24.183052 -56.794663
v 17.936506 24.190881 -56.712220
v 17.955527 24.172560 -56.726093
v 17.748686 24.240865 -56.810650
v 17.749791 24.164281 -56.813259
v 17.955527 24.172560 -56.726093
v 17.951811 24.249038 -56.724590
v 17.999096 24.243060 -56.304105
v 17.975949 24.240861 -56.249467
v 18.060014 24.240861 -56.041968
v 17.292659 24.197480 -55.731550
v 17.291706 24.197441 -55.731955
v 17.748686 24.240865 -56.810650
v 17.951811 24.249038 -56.724590
v 17.956571 24.170207 -56.726833
v 17.952690 24.250096 -56.725263
v 18.000069 24.244106 -56.303935
v 18.003951 24.164217 -56.305505
v 17.935884 24.190134 -56.711744
v 17.956571 24.170207 -56.726833
v 18.003951 24.164217 -56.305505
v 17.981256 24.184398 -56.308269
v 17.981256 24.184398 -56.308269
v 17.981944 24.185137 -56.308150
v 17.936506 24.190881 -56.712220
v 17.935884 24.190134 -56.711744
v 17.981944 24.185137 -56.308150
v 18.002812 24.166582 -56.305608
v 17.955527 24.172560 -56.726093
v 17.936506 24.190881 -56.712220
v 17.951811 24.249038 -56.724590
v 17.955527 24.172560 -56.726093
v 18.002812 24.166582 -56.305608
v 17.999096 24.243060 -56.304105
v 18.003951 24.164217 -56.305505
v 18.000069 24.244106 -56.303935
v 17.976982 24.241912 -56.249437
v 17.980864 24.162024 -56.251007
v 17.981256 24.184398 -56.308269
v 18.003951 24.164217 -56.305505
v 17.980864 24.162024 -56.251007
v 17.956909 24.182084 -56.250799
v 17.956909 24.182084 -56.250799
v 17.957640 24.182827 -56.250779
v 17.981944 24.185137 -56.308150
v 17.981256 24.184398 -56.308269
v 17.957640 24.182827 -56.250779
v 17.979665 24.164382 -56.250970
v 18.002812 24.166582 -56.305608
v 17.981944 24.185137 -56.308150
v 17.979665 24.164382 -56.250970
v 17.975949 24.240861 -56.249467
v 17.999096 24.243060 -56.304105
v 18.002812 24.166582 -56.305608
v 18.060891 24.241912 -56.042323
v 18.064772 24.162024 -56.043893
v 17.980864 24.162024 -56.251007
v 17.976982 24.241912 -56.249437
v 18.064772 24.162024 -56.043893
v 18.044119 24.182084 -56.035538
v 17.956909 24.182084 -56.250799
v 17.980864 24.162024 -56.251007
v 17.957640 24.182827 -56.250779
v 17.956909 24.182084 -56.250799
v 18.044119 24.182084 -56.035538
v 18.044739 24.182827 -56.035789
v 17.979665 24.164382 -56.250970
v 17.957640 24.182827 -56.250779
v 18.044739 24.182827 -56.035789
v 18.063730 24.164382 -56.043471
v 17.975949 24.240861 -56.249467
v 17.979665 24.164382 -56.250970
v 18.063730 24.164382 -56.043471
v 18.060014 24.240861 -56.041968
v 17.290713 24.197481 -55.732374
v 17.291706 24.197441 -55.731955
v 17.292659 24.197480 -55.731550
v 17.292611 24.198478 -55.731530
v 17.291691 24.198441 -55.731921
v 17.290733 24.198480 -55.732326
v 17.290856 24.198492 -55.732616
v 17.290836 24.197493 -55.732665
v 17.290713 24.197481 -55.732374
v 17.290733 24.198480 -55.732326
f 433 434 435
f 437 438 439
f 433 435 436
f 437 439 440
f 440 433 436
f 436 437 440
f 447 448 441
f 443 444 445
f 447 441 442
f 443 445 446
f 446 447 442
f 442 443 446
f 455 456 449
f 449 450 451
f 451 452 453
f 453 454 455
f 455 449 451
f 451 453 455
f 457 458 460
f 460 458 459
f 461 462 464
f 464 462 463
f 465 466 468
f 468 466 467
f 469 470 472
f 472 470 471
f 473 474 476
f 476 474 475
f 483 484 477
f 477 478 479
f 480 481 482
f 482 483 477
f 477 479 480
f 480 482 477
f 485 486 488
f 488 486 487
f 489 490 492
f 492 490 491
f 493 494 496
f 496 494 495
f 497 498 500
f 500 498 499
f 501 502 504
f 504 502 503
f 505 506 508
f 508 506 507
f 509 510 512
f 512 510 511
f 513 514 516
f 516 514 515
f 517 518 520
f 520 518 519
f 521 522 524
f 524 522 523
f 525 526 528
f 528 526 527
f 529 530 532
f 532 530 531
f 533 534 536
f 536 534 535
f 537 538 540
f 540 538 539
f 541 542 544
f 544 542 543
f 550 551 545
f 545 546 547
f 547 548 549
f 550 545 547
f 547 549 550
f 552 553 555
f 555 553 554
f 556 557 559
f 559 557 558
f 560 561 563
f 563 561 562
f 564 565 567
f 567 565 566
f 568 569 571
f 571 569 570
f 577 578 572
f 573 574 575
f 575 576 577
f 577 572 573
f 573 575 577
f 579 580 582
f 582 580 581
f 583 584 586
f 586 584 585
f 587 588 590
f 590 588 589
f 591 592 594
f 594 592 593
f 595 596 598
f 598 596 597
f 599 600 602
f 602 600 601
f 603 604 606
f 606 604 605
f 607 608 610
f 610 608 609
f 611 612 614
f 614 612 613
f 615 616 618
f 618 616 617
f 619 620 622
f 622 620 621
f 623 624 626
f 626 624 625
f 627 628 630
f 630 628 629
f 631 632 634
f 634 632 633
f 635 636 638
f 638 636 637
f 643 644 639
f 639 640 641
f 641 642 643
f 643 639 641
f 645 646 648
f 648 646 647
