# DIMKO.app — selection export
# Generated: 2026-07-31T07:58:28.209Z
o item_958c4ea6_1196704
v -6.020000 20.355500 20.889277
v -6.020000 20.405500 20.889277
v -5.570000 20.405500 20.889277
v -5.570000 20.404500 20.889277
v -6.019000 20.404500 20.889277
v -6.019000 20.357914 20.889277
v -6.005707 20.371207 20.889277
v -6.005000 20.370500 20.889277
v -6.005000 20.370500 24.682003
v -6.005707 20.371207 24.682003
v -6.019000 20.357914 24.682003
v -6.019000 20.404500 24.682003
v -5.570000 20.404500 24.682003
v -5.570000 20.405500 24.682003
v -6.020000 20.405500 24.682003
v -6.020000 20.355500 24.682003
v -5.570000 20.404500 20.889277
v -5.570000 20.405500 20.889277
v -5.570000 20.405500 24.682003
v -5.570000 20.404500 24.682003
v -6.019000 20.404500 20.889277
v -5.570000 20.404500 20.889277
v -5.570000 20.404500 24.682003
v -6.019000 20.404500 24.682003
v -6.019000 20.357914 20.889277
v -6.019000 20.404500 20.889277
v -6.019000 20.404500 24.682003
v -6.019000 20.357914 24.682003
v -6.005707 20.371207 20.889277
v -6.019000 20.357914 20.889277
v -6.019000 20.357914 24.682003
v -6.005707 20.371207 24.682003
v -6.005000 20.370500 20.889277
v -6.005707 20.371207 20.889277
v -6.005707 20.371207 24.682003
v -6.005000 20.370500 24.682003
v -6.020000 20.355500 20.889277
v -6.005000 20.370500 20.889277
v -6.005000 20.370500 24.682003
v -6.020000 20.355500 24.682003
v -6.020000 20.405500 20.889277
v -6.020000 20.355500 20.889277
v -6.020000 20.355500 24.682003
v -6.020000 20.405500 24.682003
v -5.570000 20.405500 20.889277
v -6.020000 20.405500 20.889277
v -6.020000 20.405500 24.682003
v -5.570000 20.405500 24.682003
f 7 8 1
f 2 3 4
f 6 7 1
f 2 4 5
f 5 6 1
f 1 2 5
f 16 9 10
f 12 13 14
f 16 10 11
f 12 14 15
f 15 16 11
f 11 12 15
f 17 18 20
f 20 18 19
f 21 22 24
f 24 22 23
f 25 26 28
f 28 26 27
f 29 30 32
f 32 30 31
f 33 34 36
f 36 34 35
f 37 38 40
f 40 38 39
f 41 42 44
f 44 42 43
f 45 46 48
f 48 46 47
