# DIMKO.app — selection export
# Generated: 2026-07-31T07:59:13.425Z
o item_958c4ea6_1196836
v -3.241211 20.402792 23.198000
v -3.240504 20.403499 23.198000
v -3.220998 20.383993 23.198000
v -3.220998 20.534787 23.198000
v -3.269576 20.486209 23.198000
v -3.409998 20.483513 23.198000
v -3.409998 20.484513 23.198000
v -3.269998 20.487201 23.198000
v -3.219998 20.537201 23.198000
v -3.219998 20.381579 23.198000
v -3.409998 20.484513 23.188000
v -3.409998 20.484513 23.198000
v -3.409998 20.483513 23.198000
v -3.409998 20.483513 23.188000
v -3.409998 20.483513 24.682000
v -3.409998 20.484513 24.682000
v -3.409998 20.484513 24.692000
v -3.409998 20.483513 24.692000
v -3.241211 20.402792 24.682000
v -3.219998 20.381579 24.682000
v -3.219998 20.537201 24.682000
v -3.269998 20.487201 24.682000
v -3.409998 20.484513 24.682000
v -3.409998 20.483513 24.682000
v -3.269576 20.486209 24.682000
v -3.220998 20.534787 24.682000
v -3.220998 20.383993 24.682000
v -3.240504 20.403499 24.682000
v -3.409998 20.483513 23.188000
v -3.569923 20.480442 23.188000
v -3.569942 20.481442 23.188000
v -3.409998 20.484513 23.188000
v -3.569942 20.481442 24.692000
v -3.569923 20.480442 24.692000
v -3.409998 20.483513 24.692000
v -3.409998 20.484513 24.692000
v -3.269576 20.486209 23.198000
v -3.220998 20.534787 23.198000
v -3.220998 20.534787 24.682000
v -3.269576 20.486209 24.682000
v -3.569942 20.481442 23.188000
v -3.569923 20.480442 23.188000
v -3.569923 20.480442 24.692000
v -3.569942 20.481442 24.692000
v -3.269576 20.486209 23.198000
v -3.269576 20.486209 24.682000
v -3.409998 20.483513 24.682000
v -3.409998 20.483513 24.692000
v -3.569923 20.480442 24.692000
v -3.569923 20.480442 23.188000
v -3.409998 20.483513 23.188000
v -3.409998 20.483513 23.198000
v -3.409998 20.484513 23.198000
v -3.409998 20.484513 23.188000
v -3.569942 20.481442 23.188000
v -3.569942 20.481442 24.692000
v -3.409998 20.484513 24.692000
v -3.409998 20.484513 24.682000
v -3.269998 20.487201 24.682000
v -3.269998 20.487201 23.198000
v -3.219998 20.537201 24.682000
v -3.219998 20.381579 24.682000
v -3.219998 20.381579 23.198000
v -3.219998 20.537201 23.198000
v -3.219998 20.381579 24.682000
v -3.241211 20.402792 24.682000
v -3.241211 20.402792 23.198000
v -3.219998 20.381579 23.198000
v -3.241211 20.402792 24.682000
v -3.240504 20.403499 24.682000
v -3.240504 20.403499 23.198000
v -3.241211 20.402792 23.198000
v -3.240504 20.403499 24.682000
v -3.220998 20.383993 24.682000
v -3.220998 20.383993 23.198000
v -3.240504 20.403499 23.198000
v -3.220998 20.383993 24.682000
v -3.220998 20.534787 24.682000
v -3.220998 20.534787 23.198000
v -3.220998 20.383993 23.198000
v -3.269998 20.487201 24.682000
v -3.219998 20.537201 24.682000
v -3.219998 20.537201 23.198000
v -3.269998 20.487201 23.198000
f 10 1 2
f 5 6 7
f 10 2 3
f 5 7 8
f 9 10 3
f 4 5 8
f 9 3 4
f 4 8 9
f 11 12 14
f 14 12 13
f 15 16 18
f 18 16 17
f 27 28 19
f 22 23 24
f 27 19 20
f 22 24 25
f 26 27 20
f 21 22 25
f 26 20 21
f 21 25 26
f 29 30 32
f 32 30 31
f 33 34 36
f 36 34 35
f 37 38 40
f 40 38 39
f 41 42 44
f 44 42 43
f 52 45 46
f 47 48 49
f 49 50 51
f 52 46 47
f 49 51 52
f 52 47 49
f 59 60 53
f 53 54 55
f 55 56 57
f 58 59 53
f 55 57 58
f 58 53 55
f 61 62 64
f 64 62 63
f 65 66 68
f 68 66 67
f 69 70 72
f 72 70 71
f 73 74 76
f 76 74 75
f 77 78 80
f 80 78 79
f 81 82 84
f 84 82 83
o item_958c4ea6_1196929
v -4.211211 20.373692 20.889276
v -4.210504 20.374399 20.889276
v -4.190998 20.354893 20.889276
v -4.190998 20.505687 20.889276
v -4.239576 20.457109 20.889276
v -4.379998 20.454413 20.889276
v -4.379998 20.455413 20.889276
v -4.239998 20.458101 20.889276
v -4.189998 20.508101 20.889276
v -4.189998 20.352479 20.889276
v -4.379998 20.455413 20.879276
v -4.379998 20.455413 20.889276
v -4.379998 20.454413 20.889276
v -4.379998 20.454413 20.879276
v -4.379998 20.455413 23.198004
v -4.379998 20.455413 23.208004
v -4.379998 20.454413 23.208004
v -4.379998 20.454413 23.198004
v -4.211211 20.373692 23.198004
v -4.189998 20.352479 23.198004
v -4.189998 20.508101 23.198004
v -4.239998 20.458101 23.198004
v -4.379998 20.455413 23.198004
v -4.379998 20.454413 23.198004
v -4.239576 20.457109 23.198004
v -4.190998 20.505687 23.198004
v -4.190998 20.354893 23.198004
v -4.210504 20.374399 23.198004
v -4.379998 20.454413 20.879276
v -4.539923 20.451342 20.879276
v -4.539942 20.452342 20.879276
v -4.379998 20.455413 20.879276
v -4.539942 20.452342 23.208004
v -4.539923 20.451342 23.208004
v -4.379998 20.454413 23.208004
v -4.379998 20.455413 23.208004
v -4.190998 20.505687 23.198004
v -4.239576 20.457109 23.198004
v -4.239576 20.457109 20.889276
v -4.190998 20.505687 20.889276
v -4.539923 20.451342 23.208004
v -4.539942 20.452342 23.208004
v -4.539942 20.452342 20.879276
v -4.539923 20.451342 20.879276
v -4.239576 20.457109 20.889276
v -4.239576 20.457109 23.198004
v -4.379998 20.454413 23.198004
v -4.379998 20.454413 23.208004
v -4.539923 20.451342 23.208004
v -4.539923 20.451342 20.879276
v -4.379998 20.454413 20.879276
v -4.379998 20.454413 20.889276
v -4.379998 20.455413 20.889276
v -4.379998 20.455413 20.879276
v -4.539942 20.452342 20.879276
v -4.539942 20.452342 23.208004
v -4.379998 20.455413 23.208004
v -4.379998 20.455413 23.198004
v -4.239998 20.458101 23.198004
v -4.239998 20.458101 20.889276
v -4.189998 20.508101 23.198004
v -4.189998 20.352479 23.198004
v -4.189998 20.352479 20.889276
v -4.189998 20.508101 20.889276
v -4.211211 20.373692 20.889276
v -4.189998 20.352479 20.889276
v -4.189998 20.352479 23.198004
v -4.211211 20.373692 23.198004
v -4.211211 20.373692 23.198004
v -4.210504 20.374399 23.198004
v -4.210504 20.374399 20.889276
v -4.211211 20.373692 20.889276
v -4.210504 20.374399 23.198004
v -4.190998 20.354893 23.198004
v -4.190998 20.354893 20.889276
v -4.210504 20.374399 20.889276
v -4.190998 20.505687 20.889276
v -4.190998 20.354893 20.889276
v -4.190998 20.354893 23.198004
v -4.190998 20.505687 23.198004
v -4.239998 20.458101 23.198004
v -4.189998 20.508101 23.198004
v -4.189998 20.508101 20.889276
v -4.239998 20.458101 20.889276
f 94 85 86
f 89 90 91
f 94 86 87
f 89 91 92
f 93 94 87
f 88 89 92
f 93 87 88
f 88 92 93
f 95 96 98
f 98 96 97
f 99 100 102
f 102 100 101
f 111 112 103
f 106 107 108
f 111 103 104
f 106 108 109
f 110 111 104
f 105 106 109
f 110 104 105
f 105 109 110
f 113 114 116
f 116 114 115
f 117 118 120
f 120 118 119
f 121 122 124
f 124 122 123
f 125 126 128
f 128 126 127
f 136 129 130
f 131 132 133
f 133 134 135
f 136 130 131
f 133 135 136
f 136 131 133
f 143 144 137
f 137 138 139
f 139 140 141
f 142 143 137
f 139 141 142
f 142 137 139
f 145 146 148
f 148 146 147
f 149 150 152
f 152 150 151
f 153 154 156
f 156 154 155
f 157 158 160
f 160 158 159
f 161 162 164
f 164 162 163
f 165 166 168
f 168 166 167
o item_958c4ea6_1196570
v -9.098789 20.583392 15.709000
v -9.099496 20.584099 15.709000
v -9.119002 20.564593 15.709000
v -9.119002 20.715387 15.709000
v -9.070424 20.666809 15.709000
v -8.930002 20.664113 15.709000
v -8.930002 20.665113 15.709000
v -9.070002 20.667801 15.709000
v -9.120002 20.717801 15.709000
v -9.120002 20.562179 15.709000
v -8.930002 20.664113 15.719000
v -8.930002 20.665113 15.719000
v -8.930002 20.665113 15.709000
v -8.930002 20.664113 15.709000
v -8.930002 20.664113 11.100000
v -8.930002 20.665113 11.100000
v -8.930002 20.665113 11.090000
v -8.930002 20.664113 11.090000
v -9.098789 20.583392 11.100000
v -9.120002 20.562179 11.100000
v -9.120002 20.717801 11.100000
v -9.070002 20.667801 11.100000
v -8.930002 20.665113 11.100000
v -8.930002 20.664113 11.100000
v -9.070424 20.666809 11.100000
v -9.119002 20.715387 11.100000
v -9.119002 20.564593 11.100000
v -9.099496 20.584099 11.100000
v -8.930002 20.664113 15.719000
v -8.770077 20.661042 15.719000
v -8.770058 20.662042 15.719000
v -8.930002 20.665113 15.719000
v -8.770058 20.662042 11.090000
v -8.770077 20.661042 11.090000
v -8.930002 20.664113 11.090000
v -8.930002 20.665113 11.090000
v -9.119002 20.715387 11.100000
v -9.070424 20.666809 11.100000
v -9.070424 20.666809 15.709000
v -9.119002 20.715387 15.709000
v -8.770077 20.661042 11.090000
v -8.770058 20.662042 11.090000
v -8.770058 20.662042 15.719000
v -8.770077 20.661042 15.719000
v -9.070424 20.666809 15.709000
v -9.070424 20.666809 11.100000
v -8.930002 20.664113 11.100000
v -8.930002 20.664113 11.090000
v -8.770077 20.661042 11.090000
v -8.770077 20.661042 15.719000
v -8.930002 20.664113 15.719000
v -8.930002 20.664113 15.709000
v -8.930002 20.665113 15.709000
v -8.930002 20.665113 15.719000
v -8.770058 20.662042 15.719000
v -8.770058 20.662042 11.090000
v -8.930002 20.665113 11.090000
v -8.930002 20.665113 11.100000
v -9.070002 20.667801 11.100000
v -9.070002 20.667801 15.709000
v -9.120002 20.717801 11.100000
v -9.120002 20.562179 11.100000
v -9.120002 20.562179 15.709000
v -9.120002 20.717801 15.709000
v -9.120002 20.562179 11.100000
v -9.098789 20.583392 11.100000
v -9.098789 20.583392 15.709000
v -9.120002 20.562179 15.709000
v -9.098789 20.583392 11.100000
v -9.099496 20.584099 11.100000
v -9.099496 20.584099 15.709000
v -9.098789 20.583392 15.709000
v -9.099496 20.584099 11.100000
v -9.119002 20.564593 11.100000
v -9.119002 20.564593 15.709000
v -9.099496 20.584099 15.709000
v -9.119002 20.564593 11.100000
v -9.119002 20.715387 11.100000
v -9.119002 20.715387 15.709000
v -9.119002 20.564593 15.709000
v -9.070002 20.667801 11.100000
v -9.120002 20.717801 11.100000
v -9.120002 20.717801 15.709000
v -9.070002 20.667801 15.709000
f 178 169 170
f 173 174 175
f 178 170 171
f 173 175 176
f 177 178 171
f 172 173 176
f 177 171 172
f 172 176 177
f 179 180 182
f 182 180 181
f 183 184 186
f 186 184 185
f 195 196 187
f 190 191 192
f 195 187 188
f 190 192 193
f 194 195 188
f 189 190 193
f 194 188 189
f 189 193 194
f 197 198 200
f 200 198 199
f 201 202 204
f 204 202 203
f 205 206 208
f 208 206 207
f 209 210 212
f 212 210 211
f 220 213 214
f 215 216 217
f 217 218 219
f 220 214 215
f 217 219 220
f 220 215 217
f 227 228 221
f 221 222 223
f 223 224 225
f 226 227 221
f 223 225 226
f 226 221 223
f 229 230 232
f 232 230 231
f 233 234 236
f 236 234 235
f 237 238 240
f 240 238 239
f 241 242 244
f 244 242 243
f 245 246 248
f 248 246 247
f 249 250 252
f 252 250 251
