# DIMKO.app — selection export
# Generated: 2026-07-29T08:07:38.538Z
o item_92b0f140_1069072
v 12.855000 21.815005 0.585002
v 12.855707 21.815712 0.584294
v 12.869000 21.802419 0.571001
v 12.869000 21.848954 0.571001
v 12.389000 21.825004 1.051001
v 12.389000 21.778369 1.051001
v 12.402293 21.791662 1.037709
v 12.403000 21.790955 1.037001
v 12.388000 21.775955 1.052002
v 12.388000 21.825955 1.052002
v 12.870000 21.850005 0.570001
v 12.870000 21.800005 0.570001
v 12.855000 21.815005 7.614998
v 12.870000 21.800005 7.629999
v 12.870000 21.850005 7.629999
v 12.388000 21.825955 7.147998
v 12.388000 21.775955 7.147998
v 12.403000 21.790955 7.162999
v 12.402293 21.791662 7.162291
v 12.389000 21.778369 7.148999
v 12.389000 21.825004 7.148999
v 12.869000 21.848954 7.628999
v 12.869000 21.802419 7.628999
v 12.855707 21.815712 7.615706
v 12.870000 21.850005 0.570001
v 12.388000 21.825955 1.052002
v 12.388000 21.825955 7.147998
v 12.870000 21.850005 7.629999
v 12.869000 21.802419 7.628999
v 12.869000 21.848954 7.628999
v 12.869000 21.848954 0.571001
v 12.869000 21.802419 0.571001
v 12.870000 21.800005 7.629999
v 12.855000 21.815005 7.614998
v 12.855000 21.815005 0.585002
v 12.870000 21.800005 0.570001
v 12.870000 21.850005 7.629999
v 12.870000 21.800005 7.629999
v 12.870000 21.800005 0.570001
v 12.870000 21.850005 0.570001
v 12.869000 21.848954 7.628999
v 12.389000 21.825004 7.148999
v 12.389000 21.825004 1.051001
v 12.869000 21.848954 0.571001
v 12.389000 21.825004 7.148999
v 12.389000 21.778369 7.148999
v 12.389000 21.778369 1.051001
v 12.389000 21.825004 1.051001
v 12.389000 21.778369 7.148999
v 12.402293 21.791662 7.162291
v 12.402293 21.791662 1.037709
v 12.389000 21.778369 1.051001
v 12.402293 21.791662 7.162291
v 12.403000 21.790955 7.162999
v 12.403000 21.790955 1.037001
v 12.402293 21.791662 1.037709
v 12.403000 21.790955 7.162999
v 12.388000 21.775955 7.147998
v 12.388000 21.775955 1.052002
v 12.403000 21.790955 1.037001
v 12.388000 21.775955 7.147998
v 12.388000 21.825955 7.147998
v 12.388000 21.825955 1.052002
v 12.388000 21.775955 1.052002
v 12.855000 21.815005 7.614998
v 12.855707 21.815712 7.615706
v 12.855707 21.815712 0.584294
v 12.855000 21.815005 0.585002
v 12.869000 21.802419 0.571001
v 12.855707 21.815712 0.584294
v 12.855707 21.815712 7.615706
v 12.869000 21.802419 7.628999
f 12 1 2
f 6 7 8
f 12 2 3
f 6 8 9
f 11 12 3
f 5 6 9
f 11 3 4
f 5 9 10
f 10 11 4
f 4 5 10
f 23 24 13
f 17 18 19
f 23 13 14
f 17 19 20
f 22 23 14
f 16 17 20
f 22 14 15
f 16 20 21
f 21 22 15
f 15 16 21
f 25 26 28
f 28 26 27
f 29 30 32
f 32 30 31
f 33 34 36
f 36 34 35
f 37 38 40
f 40 38 39
f 41 42 44
f 44 42 43
f 45 46 48
f 48 46 47
f 49 50 52
f 52 50 51
f 53 54 56
f 56 54 55
f 57 58 60
f 60 58 59
f 61 62 64
f 64 62 63
f 65 66 68
f 68 66 67
f 69 70 72
f 72 70 71
o item_92b0f140_1115942
v -21.334560 25.950003 -32.823423
v -21.334560 26.000012 -32.823423
v -20.864079 25.975957 -33.013496
v -20.864079 25.925948 -33.013496
v -20.878720 25.940951 -33.007581
v -20.878030 25.941658 -33.007860
v -20.865055 25.928363 -33.013102
v -20.865055 25.975006 -33.013102
v -21.333584 25.998960 -32.823818
v -21.333584 25.952417 -32.823818
v -21.320609 25.965712 -32.829060
v -21.319919 25.965005 -32.829339
v -21.147870 25.965712 -30.217043
v -21.160845 25.952417 -30.211799
v -21.160845 25.998960 -30.211799
v -20.692322 25.975006 -30.401175
v -20.692322 25.928363 -30.401175
v -20.705297 25.941658 -30.395931
v -20.705987 25.940951 -30.395652
v -20.691346 25.925948 -30.401569
v -20.691346 25.975957 -30.401569
v -21.161821 26.000012 -30.211404
v -21.161821 25.950003 -30.211404
v -21.147180 25.965005 -30.217321
v -20.691346 25.975957 -30.401569
v -20.864079 25.975957 -33.013496
v -21.334560 26.000012 -32.823423
v -21.161821 26.000012 -30.211404
v -21.333584 25.952417 -32.823818
v -21.333584 25.998960 -32.823818
v -21.160845 25.998960 -30.211799
v -21.160845 25.952417 -30.211799
v -21.334560 25.950003 -32.823423
v -21.319919 25.965005 -32.829339
v -21.147180 25.965005 -30.217321
v -21.161821 25.950003 -30.211404
v -21.161821 26.000012 -30.211404
v -21.334560 26.000012 -32.823423
v -21.334560 25.950003 -32.823423
v -21.161821 25.950003 -30.211404
v -21.333584 25.998960 -32.823818
v -20.865055 25.975006 -33.013102
v -20.692322 25.975006 -30.401175
v -21.160845 25.998960 -30.211799
v -20.692322 25.975006 -30.401175
v -20.865055 25.975006 -33.013102
v -20.865055 25.928363 -33.013102
v -20.692322 25.928363 -30.401175
v -20.692322 25.928363 -30.401175
v -20.865055 25.928363 -33.013102
v -20.878030 25.941658 -33.007860
v -20.705297 25.941658 -30.395931
v -20.705297 25.941658 -30.395931
v -20.878030 25.941658 -33.007860
v -20.878720 25.940951 -33.007581
v -20.705987 25.940951 -30.395652
v -20.878720 25.940951 -33.007581
v -20.864079 25.925948 -33.013496
v -20.691346 25.925948 -30.401569
v -20.705987 25.940951 -30.395652
v -20.691346 25.925948 -30.401569
v -20.864079 25.925948 -33.013496
v -20.864079 25.975957 -33.013496
v -20.691346 25.975957 -30.401569
v -21.147180 25.965005 -30.217321
v -21.319919 25.965005 -32.829339
v -21.320609 25.965712 -32.829060
v -21.147870 25.965712 -30.217043
v -21.147870 25.965712 -30.217043
v -21.320609 25.965712 -32.829060
v -21.333584 25.952417 -32.823818
v -21.160845 25.952417 -30.211799
f 83 84 73
f 76 77 78
f 82 83 73
f 76 78 79
f 81 82 73
f 75 76 79
f 81 73 74
f 75 79 80
f 80 81 74
f 74 75 80
f 95 96 85
f 89 90 91
f 95 85 86
f 89 91 92
f 94 95 86
f 88 89 92
f 94 86 87
f 88 92 93
f 93 94 87
f 87 88 93
f 97 98 100
f 100 98 99
f 101 102 104
f 104 102 103
f 105 106 108
f 108 106 107
f 109 110 112
f 112 110 111
f 113 114 116
f 116 114 115
f 117 118 120
f 120 118 119
f 121 122 124
f 124 122 123
f 125 126 128
f 128 126 127
f 129 130 132
f 132 130 131
f 133 134 136
f 136 134 135
f 137 138 140
f 140 138 139
f 141 142 144
f 144 142 143
o item_92b0f140_1124434
v 13.691076 25.965005 -48.371745
v 13.691466 25.965712 -48.372666
v 13.698806 25.952419 -48.389968
v 13.698806 25.998953 -48.389968
v 13.433760 25.975004 -47.765186
v 13.433760 25.928370 -47.765186
v 13.441100 25.941662 -47.782489
v 13.441490 25.940955 -47.783409
v 13.433208 25.925956 -47.763884
v 13.433208 25.975955 -47.763884
v 13.699358 26.000004 -48.391270
v 13.699358 25.950005 -48.391270
v 15.000382 25.965005 -45.135141
v 15.016562 25.950005 -45.135142
v 15.016562 26.000004 -45.135142
v 14.496634 25.975955 -45.135095
v 14.496634 25.925956 -45.135095
v 14.512814 25.940955 -45.135097
v 14.512052 25.941662 -45.135096
v 14.497712 25.928370 -45.135095
v 14.497712 25.975004 -45.135095
v 15.015484 25.998953 -45.135142
v 15.015484 25.952419 -45.135142
v 15.001145 25.965712 -45.135141
v 14.496634 25.975955 -45.135095
v 15.016562 26.000004 -45.135142
v 13.699358 26.000004 -48.391270
v 13.433208 25.975955 -47.763884
v 13.698806 25.998953 -48.389968
v 13.698806 25.952419 -48.389968
v 15.015484 25.952419 -45.135142
v 15.015484 25.998953 -45.135142
v 13.691076 25.965005 -48.371745
v 13.699358 25.950005 -48.391270
v 15.016562 25.950005 -45.135142
v 15.000382 25.965005 -45.135141
v 15.016562 26.000004 -45.135142
v 15.016562 25.950005 -45.135142
v 13.699358 25.950005 -48.391270
v 13.699358 26.000004 -48.391270
v 13.433760 25.975004 -47.765186
v 13.698806 25.998953 -48.389968
v 15.015484 25.998953 -45.135142
v 14.497712 25.975004 -45.135095
v 13.433760 25.928370 -47.765186
v 13.433760 25.975004 -47.765186
v 14.497712 25.975004 -45.135095
v 14.497712 25.928370 -45.135095
v 14.497712 25.928370 -45.135095
v 14.512052 25.941662 -45.135096
v 13.441100 25.941662 -47.782489
v 13.433760 25.928370 -47.765186
v 14.512052 25.941662 -45.135096
v 14.512814 25.940955 -45.135097
v 13.441490 25.940955 -47.783409
v 13.441100 25.941662 -47.782489
v 13.433208 25.925956 -47.763884
v 13.441490 25.940955 -47.783409
v 14.512814 25.940955 -45.135097
v 14.496634 25.925956 -45.135095
v 14.496634 25.925956 -45.135095
v 14.496634 25.975955 -45.135095
v 13.433208 25.975955 -47.763884
v 13.433208 25.925956 -47.763884
v 15.000382 25.965005 -45.135141
v 15.001145 25.965712 -45.135141
v 13.691466 25.965712 -48.372666
v 13.691076 25.965005 -48.371745
v 15.001145 25.965712 -45.135141
v 15.015484 25.952419 -45.135142
v 13.698806 25.952419 -48.389968
v 13.691466 25.965712 -48.372666
f 156 145 146
f 150 151 152
f 156 146 147
f 150 152 153
f 155 156 147
f 149 150 153
f 155 147 148
f 149 153 154
f 154 155 148
f 148 149 154
f 167 168 157
f 161 162 163
f 167 157 158
f 161 163 164
f 166 167 158
f 160 161 164
f 166 158 159
f 160 164 165
f 165 166 159
f 159 160 165
f 169 170 172
f 172 170 171
f 173 174 176
f 176 174 175
f 177 178 180
f 180 178 179
f 181 182 184
f 184 182 183
f 185 186 188
f 188 186 187
f 189 190 192
f 192 190 191
f 193 194 196
f 196 194 195
f 197 198 200
f 200 198 199
f 201 202 204
f 204 202 203
f 205 206 208
f 208 206 207
f 209 210 212
f 212 210 211
f 213 214 216
f 216 214 215
o item_92b0f140_1124548
v 0.031069 25.965005 -42.849168
v 0.030804 25.965712 -42.849823
v 0.025824 25.952419 -42.862148
v 0.025824 25.998953 -42.862148
v 0.205646 25.975004 -42.417102
v 0.205646 25.928370 -42.417102
v 0.200666 25.941662 -42.429427
v 0.200401 25.940955 -42.430082
v 0.206021 25.925956 -42.416175
v 0.206021 25.975955 -42.416175
v 0.025449 26.000004 -42.863075
v 0.025449 25.950005 -42.863075
v 13.690414 25.965005 -48.374793
v 13.698699 25.950005 -48.394325
v 13.698699 26.000004 -48.394325
v 13.432457 25.975955 -47.766675
v 13.432457 25.925956 -47.766675
v 13.440742 25.940955 -47.786207
v 13.440351 25.941662 -47.785286
v 13.433009 25.928370 -47.767977
v 13.433009 25.975004 -47.767977
v 13.698147 25.998953 -48.393023
v 13.698147 25.952419 -48.393023
v 13.690803 25.965712 -48.375713
v 0.025449 26.000004 -42.863075
v 0.206021 25.975955 -42.416175
v 13.432457 25.975955 -47.766675
v 13.698699 26.000004 -48.394325
v 13.698147 25.952419 -48.393023
v 13.698147 25.998953 -48.393023
v 0.025824 25.998953 -42.862148
v 0.025824 25.952419 -42.862148
v 13.698699 25.950005 -48.394325
v 13.690414 25.965005 -48.374793
v 0.031069 25.965005 -42.849168
v 0.025449 25.950005 -42.863075
v 0.025449 25.950005 -42.863075
v 0.025449 26.000004 -42.863075
v 13.698699 26.000004 -48.394325
v 13.698699 25.950005 -48.394325
v 13.698147 25.998953 -48.393023
v 13.433009 25.975004 -47.767977
v 0.205646 25.975004 -42.417102
v 0.025824 25.998953 -42.862148
v 13.433009 25.975004 -47.767977
v 13.433009 25.928370 -47.767977
v 0.205646 25.928370 -42.417102
v 0.205646 25.975004 -42.417102
v 0.200666 25.941662 -42.429427
v 0.205646 25.928370 -42.417102
v 13.433009 25.928370 -47.767977
v 13.440351 25.941662 -47.785286
v 0.200401 25.940955 -42.430082
v 0.200666 25.941662 -42.429427
v 13.440351 25.941662 -47.785286
v 13.440742 25.940955 -47.786207
v 13.440742 25.940955 -47.786207
v 13.432457 25.925956 -47.766675
v 0.206021 25.925956 -42.416175
v 0.200401 25.940955 -42.430082
v 0.206021 25.975955 -42.416175
v 0.206021 25.925956 -42.416175
v 13.432457 25.925956 -47.766675
v 13.432457 25.975955 -47.766675
v 0.030804 25.965712 -42.849823
v 0.031069 25.965005 -42.849168
v 13.690414 25.965005 -48.374793
v 13.690803 25.965712 -48.375713
v 0.025824 25.952419 -42.862148
v 0.030804 25.965712 -42.849823
v 13.690803 25.965712 -48.375713
v 13.698147 25.952419 -48.393023
f 228 217 218
f 222 223 224
f 228 218 219
f 222 224 225
f 227 228 219
f 221 222 225
f 227 219 220
f 221 225 226
f 226 227 220
f 220 221 226
f 239 240 229
f 233 234 235
f 239 229 230
f 233 235 236
f 238 239 230
f 232 233 236
f 238 230 231
f 232 236 237
f 237 238 231
f 231 232 237
f 241 242 244
f 244 242 243
f 245 246 248
f 248 246 247
f 249 250 252
f 252 250 251
f 253 254 256
f 256 254 255
f 257 258 260
f 260 258 259
f 261 262 264
f 264 262 263
f 265 266 268
f 268 266 267
f 269 270 272
f 272 270 271
f 273 274 276
f 276 274 275
f 277 278 280
f 280 278 279
f 281 282 284
f 284 282 283
f 285 286 288
f 288 286 287
o item_92b0f140_1127209
v 12.870000 21.800005 0.570000
v 12.870000 21.850005 0.570000
v 12.388000 21.825955 1.052000
v 12.388000 21.775955 1.052000
v 12.403000 21.790955 1.037000
v 12.402293 21.791662 1.037707
v 12.389000 21.778369 1.051000
v 12.389000 21.825004 1.051000
v 12.869000 21.848954 0.571000
v 12.869000 21.802419 0.571000
v 12.855707 21.815712 0.584293
v 12.855000 21.815005 0.585000
v 9.498000 21.815712 0.584293
v 9.498000 21.802419 0.571000
v 9.498000 21.848954 0.571000
v 9.498000 21.825004 1.051000
v 9.498000 21.778369 1.051000
v 9.498000 21.791662 1.037707
v 9.498000 21.790955 1.037000
v 9.498000 21.775955 1.052000
v 9.498000 21.825955 1.052000
v 9.498000 21.850005 0.570000
v 9.498000 21.800005 0.570000
v 9.498000 21.815005 0.585000
v 12.388000 21.825955 1.052000
v 12.870000 21.850005 0.570000
v 9.498000 21.850005 0.570000
v 9.498000 21.825955 1.052000
v 9.498000 21.802419 0.571000
v 12.869000 21.802419 0.571000
v 12.869000 21.848954 0.571000
v 9.498000 21.848954 0.571000
v 9.498000 21.800005 0.570000
v 12.870000 21.800005 0.570000
v 12.855000 21.815005 0.585000
v 9.498000 21.815005 0.585000
v 9.498000 21.850005 0.570000
v 12.870000 21.850005 0.570000
v 12.870000 21.800005 0.570000
v 9.498000 21.800005 0.570000
v 9.498000 21.848954 0.571000
v 12.869000 21.848954 0.571000
v 12.389000 21.825004 1.051000
v 9.498000 21.825004 1.051000
v 12.389000 21.825004 1.051000
v 12.389000 21.778369 1.051000
v 9.498000 21.778369 1.051000
v 9.498000 21.825004 1.051000
v 12.389000 21.778369 1.051000
v 12.402293 21.791662 1.037707
v 9.498000 21.791662 1.037707
v 9.498000 21.778369 1.051000
v 12.402293 21.791662 1.037707
v 12.403000 21.790955 1.037000
v 9.498000 21.790955 1.037000
v 9.498000 21.791662 1.037707
v 9.498000 21.790955 1.037000
v 12.403000 21.790955 1.037000
v 12.388000 21.775955 1.052000
v 9.498000 21.775955 1.052000
v 12.388000 21.775955 1.052000
v 12.388000 21.825955 1.052000
v 9.498000 21.825955 1.052000
v 9.498000 21.775955 1.052000
v 12.855000 21.815005 0.585000
v 12.855707 21.815712 0.584293
v 9.498000 21.815712 0.584293
v 9.498000 21.815005 0.585000
v 12.855707 21.815712 0.584293
v 12.869000 21.802419 0.571000
v 9.498000 21.802419 0.571000
v 9.498000 21.815712 0.584293
f 299 300 289
f 292 293 294
f 298 299 289
f 292 294 295
f 297 298 289
f 291 292 295
f 297 289 290
f 291 295 296
f 296 297 290
f 290 291 296
f 311 312 301
f 305 306 307
f 311 301 302
f 305 307 308
f 310 311 302
f 304 305 308
f 310 302 303
f 304 308 309
f 309 310 303
f 303 304 309
f 313 314 316
f 316 314 315
f 317 318 320
f 320 318 319
f 321 322 324
f 324 322 323
f 325 326 328
f 328 326 327
f 329 330 332
f 332 330 331
f 333 334 336
f 336 334 335
f 337 338 340
f 340 338 339
f 341 342 344
f 344 342 343
f 345 346 348
f 348 346 347
f 349 350 352
f 352 350 351
f 353 354 356
f 356 354 355
f 357 358 360
f 360 358 359
o item_92b0f140_1127264
v 12.854995 21.815005 7.615000
v 12.855702 21.815712 7.615707
v 12.868995 21.802419 7.629000
v 12.868995 21.848954 7.629000
v 12.388995 21.825004 7.149000
v 12.388995 21.778369 7.149000
v 12.402288 21.791662 7.162293
v 12.402995 21.790955 7.163000
v 12.387995 21.775955 7.148000
v 12.387995 21.825955 7.148000
v 12.869995 21.850005 7.630000
v 12.869995 21.800005 7.630000
v 7.630005 21.815005 7.615000
v 7.630005 21.800005 7.630000
v 7.630005 21.850005 7.630000
v 7.630005 21.825955 7.148000
v 7.630005 21.775955 7.148000
v 7.630005 21.790955 7.163000
v 7.630005 21.791662 7.162293
v 7.630005 21.778369 7.149000
v 7.630005 21.825004 7.149000
v 7.630005 21.848954 7.629000
v 7.630005 21.802419 7.629000
v 7.630005 21.815712 7.615707
v 7.630005 21.825955 7.148000
v 7.630005 21.850005 7.630000
v 12.869995 21.850005 7.630000
v 12.387995 21.825955 7.148000
v 7.630005 21.802419 7.629000
v 7.630005 21.848954 7.629000
v 12.868995 21.848954 7.629000
v 12.868995 21.802419 7.629000
v 12.854995 21.815005 7.615000
v 12.869995 21.800005 7.630000
v 7.630005 21.800005 7.630000
v 7.630005 21.815005 7.615000
v 7.630005 21.850005 7.630000
v 7.630005 21.800005 7.630000
v 12.869995 21.800005 7.630000
v 12.869995 21.850005 7.630000
v 12.388995 21.825004 7.149000
v 12.868995 21.848954 7.629000
v 7.630005 21.848954 7.629000
v 7.630005 21.825004 7.149000
v 7.630005 21.825004 7.149000
v 7.630005 21.778369 7.149000
v 12.388995 21.778369 7.149000
v 12.388995 21.825004 7.149000
v 7.630005 21.778369 7.149000
v 7.630005 21.791662 7.162293
v 12.402288 21.791662 7.162293
v 12.388995 21.778369 7.149000
v 7.630005 21.791662 7.162293
v 7.630005 21.790955 7.163000
v 12.402995 21.790955 7.163000
v 12.402288 21.791662 7.162293
v 12.387995 21.775955 7.148000
v 12.402995 21.790955 7.163000
v 7.630005 21.790955 7.163000
v 7.630005 21.775955 7.148000
v 12.387995 21.825955 7.148000
v 12.387995 21.775955 7.148000
v 7.630005 21.775955 7.148000
v 7.630005 21.825955 7.148000
v 7.630005 21.815005 7.615000
v 7.630005 21.815712 7.615707
v 12.855702 21.815712 7.615707
v 12.854995 21.815005 7.615000
v 7.630005 21.815712 7.615707
v 7.630005 21.802419 7.629000
v 12.868995 21.802419 7.629000
v 12.855702 21.815712 7.615707
f 372 361 362
f 366 367 368
f 372 362 363
f 366 368 369
f 371 372 363
f 365 366 369
f 371 363 364
f 365 369 370
f 370 371 364
f 364 365 370
f 383 384 373
f 377 378 379
f 383 373 374
f 377 379 380
f 382 383 374
f 376 377 380
f 382 374 375
f 376 380 381
f 381 382 375
f 375 376 381
f 385 386 388
f 388 386 387
f 389 390 392
f 392 390 391
f 393 394 396
f 396 394 395
f 397 398 400
f 400 398 399
f 401 402 404
f 404 402 403
f 405 406 408
f 408 406 407
f 409 410 412
f 412 410 411
f 413 414 416
f 416 414 415
f 417 418 420
f 420 418 419
f 421 422 424
f 424 422 423
f 425 426 428
f 428 426 427
f 429 430 432
f 432 430 431
