# DIMKO.app — selection export
# Generated: 2026-07-29T08:02:32.871Z
o item_92b0f140_1120953
v -27.441370 24.241850 -38.548408
v -27.659242 24.241850 -38.460376
v -27.941985 24.250393 -38.521946
v -28.047496 24.244257 -38.353034
v -27.962746 24.240021 -38.300091
v -27.962217 24.240051 -38.300938
v -27.131275 24.198514 -37.781851
v -27.659174 24.240799 -38.459384
v -27.441016 24.240799 -38.547531
v -27.131294 24.197516 -37.781900
v -27.962236 24.239053 -38.300986
v -27.962782 24.239021 -38.300114
v -28.046685 24.243215 -38.352527
v -27.941529 24.249331 -38.520868
v -27.434838 24.182710 -38.532259
v -27.434587 24.181967 -38.531639
v -27.442942 24.161906 -38.552292
v -27.441370 24.241850 -38.548408
v -27.131275 24.198514 -37.781851
v -27.131294 24.197516 -37.781900
v -27.441016 24.240799 -38.547531
v -27.442520 24.164265 -38.551249
v -27.962236 24.239053 -38.300986
v -27.131294 24.197516 -37.781900
v -27.131275 24.198514 -37.781851
v -27.962217 24.240051 -38.300938
v -27.132385 24.197516 -37.780156
v -27.132332 24.198514 -37.780159
v -27.957362 24.241851 -37.722710
v -27.961539 24.161962 -37.722420
v -27.939310 24.182023 -37.723967
v -27.939977 24.182766 -37.723921
v -27.960416 24.164321 -37.722497
v -27.956418 24.240800 -37.722776
v -27.963276 24.240052 -38.299247
v -27.132332 24.198514 -37.780159
v -27.132385 24.197516 -37.780156
v -27.963327 24.239053 -38.299244
v -27.973756 24.241851 -37.957087
v -27.957362 24.241851 -37.722710
v -27.132332 24.198514 -37.780159
v -27.963276 24.240052 -38.299247
v -28.153071 24.250394 -38.184165
v -27.963276 24.240052 -38.299247
v -27.962746 24.240021 -38.300091
v -28.047496 24.244257 -38.353034
v -28.047496 24.244257 -38.353034
v -28.153071 24.250394 -38.184165
v -27.963276 24.240052 -38.299247
v -27.961539 24.161962 -37.722420
v -27.957362 24.241851 -37.722710
v -27.973756 24.241851 -37.957087
v -27.977933 24.161962 -37.956797
v -27.939310 24.182023 -37.723967
v -27.961539 24.161962 -37.722420
v -27.977933 24.161962 -37.956797
v -27.956161 24.182023 -37.964875
v -27.956161 24.182023 -37.964875
v -27.956814 24.182766 -37.964612
v -27.939977 24.182766 -37.723921
v -27.939310 24.182023 -37.723967
v -27.956814 24.182766 -37.964612
v -27.976833 24.164321 -37.957182
v -27.960416 24.164321 -37.722497
v -27.939977 24.182766 -37.723921
v -27.976833 24.164321 -37.957182
v -27.972833 24.240800 -37.957461
v -27.956418 24.240800 -37.722776
v -27.960416 24.164321 -37.722497
v -28.151903 24.249331 -38.184227
v -27.963327 24.239053 -38.299244
v -27.132385 24.197516 -37.780156
v -27.956418 24.240800 -37.722776
v -27.972833 24.240800 -37.957461
v -28.151903 24.249331 -38.184227
v -28.046685 24.243215 -38.352527
v -27.963327 24.239053 -38.299244
v -27.962782 24.239021 -38.300114
v -27.963327 24.239053 -38.299244
v -28.046685 24.243215 -38.352527
v -28.153071 24.250394 -38.184165
v -28.157249 24.170505 -38.183873
v -27.977933 24.161962 -37.956797
v -27.973756 24.241851 -37.957087
v -28.157249 24.170505 -38.183873
v -28.130273 24.190318 -38.185365
v -27.956161 24.182023 -37.964875
v -27.977933 24.161962 -37.956797
v -27.956814 24.182766 -37.964612
v -27.956161 24.182023 -37.964875
v -28.130273 24.190318 -38.185365
v -28.131099 24.191069 -38.185320
v -27.976833 24.164321 -37.957182
v -27.956814 24.182766 -37.964612
v -28.131099 24.191069 -38.185320
v -28.155902 24.172852 -38.183949
v -27.972833 24.240800 -37.957461
v -27.976833 24.164321 -37.957182
v -28.155902 24.172852 -38.183949
v -28.151903 24.249331 -38.184227
v -28.157249 24.170505 -38.183873
v -28.153071 24.250394 -38.184165
v -28.047496 24.244257 -38.353034
v -28.047496 24.244257 -38.353034
v -28.050371 24.164293 -38.354832
v -28.157249 24.170505 -38.183873
v -28.130273 24.190318 -38.185365
v -28.157249 24.170505 -38.183873
v -28.050371 24.164293 -38.354832
v -28.031643 24.184585 -38.343133
v -28.031643 24.184585 -38.343133
v -28.032216 24.185322 -38.343491
v -28.131099 24.191069 -38.185320
v -28.130273 24.190318 -38.185365
v -28.032216 24.185322 -38.343491
v -28.049437 24.166664 -38.354248
v -28.155902 24.172852 -38.183949
v -28.131099 24.191069 -38.185320
v -28.151903 24.249331 -38.184227
v -28.155902 24.172852 -38.183949
v -28.046685 24.243215 -38.352527
v -28.049437 24.166664 -38.354248
v -28.046685 24.243215 -38.352527
v -28.155902 24.172852 -38.183949
v -27.963276 24.240052 -38.299247
v -27.963327 24.239053 -38.299244
v -27.962746 24.240021 -38.300091
v -27.962782 24.239021 -38.300114
v -27.962746 24.240021 -38.300091
v -27.963327 24.239053 -38.299244
v -28.050371 24.164293 -38.354832
v -28.047496 24.244257 -38.353034
v -27.943556 24.170449 -38.525830
v -27.941985 24.250393 -38.521946
v -27.943556 24.170449 -38.525830
v -28.047496 24.244257 -38.353034
v -28.031643 24.184585 -38.343133
v -28.050371 24.164293 -38.354832
v -27.933069 24.190262 -38.500937
v -27.943556 24.170449 -38.525830
v -27.933069 24.190262 -38.500937
v -28.050371 24.164293 -38.354832
v -28.032216 24.185322 -38.343491
v -28.031643 24.184585 -38.343133
v -27.933069 24.190262 -38.500937
v -27.933069 24.190262 -38.500937
v -27.933391 24.191013 -38.501697
v -28.032216 24.185322 -38.343491
v -28.049437 24.166664 -38.354248
v -28.032216 24.185322 -38.343491
v -27.933391 24.191013 -38.501697
v -27.933391 24.191013 -38.501697
v -27.943034 24.172796 -38.524587
v -28.049437 24.166664 -38.354248
v -28.046685 24.243215 -38.352527
v -28.049437 24.166664 -38.354248
v -27.943034 24.172796 -38.524587
v -27.943034 24.172796 -38.524587
v -27.941529 24.249331 -38.520868
v -28.046685 24.243215 -38.352527
v -27.962746 24.240021 -38.300091
v -27.962782 24.239021 -38.300114
v -27.962236 24.239053 -38.300986
v -27.962217 24.240051 -38.300938
v -27.943556 24.170449 -38.525830
v -27.941985 24.250393 -38.521946
v -27.659242 24.241850 -38.460376
v -27.660813 24.161906 -38.464260
v -27.933069 24.190262 -38.500937
v -27.943556 24.170449 -38.525830
v -27.660813 24.161906 -38.464260
v -27.658529 24.181967 -38.441154
v -27.658529 24.181967 -38.441154
v -27.658578 24.182710 -38.441856
v -27.933391 24.191013 -38.501697
v -27.933069 24.190262 -38.500937
v -27.658578 24.182710 -38.441856
v -27.660678 24.164265 -38.463102
v -27.943034 24.172796 -38.524587
v -27.933391 24.191013 -38.501697
v -27.660678 24.164265 -38.463102
v -27.659174 24.240799 -38.459384
v -27.941529 24.249331 -38.520868
v -27.943034 24.172796 -38.524587
v -27.441370 24.241850 -38.548408
v -27.442942 24.161906 -38.552292
v -27.660813 24.161906 -38.464260
v -27.659242 24.241850 -38.460376
v -27.442942 24.161906 -38.552292
v -27.434587 24.181967 -38.531639
v -27.658529 24.181967 -38.441154
v -27.660813 24.161906 -38.464260
v -27.658578 24.182710 -38.441856
v -27.658529 24.181967 -38.441154
v -27.434587 24.181967 -38.531639
v -27.434838 24.182710 -38.532259
v -27.660678 24.164265 -38.463102
v -27.658578 24.182710 -38.441856
v -27.434838 24.182710 -38.532259
v -27.442520 24.164265 -38.551249
v -27.659174 24.240799 -38.459384
v -27.660678 24.164265 -38.463102
v -27.442520 24.164265 -38.551249
v -27.441016 24.240799 -38.547531
f 6 7 1
f 2 3 4
f 4 5 6
f 6 1 2
f 2 4 6
f 13 14 8
f 8 9 10
f 11 12 13
f 8 10 11
f 11 13 8
f 22 15 16
f 18 19 20
f 22 16 17
f 18 20 21
f 21 22 17
f 17 18 21
f 23 24 26
f 26 24 25
f 34 27 28
f 30 31 32
f 34 28 29
f 30 32 33
f 33 34 29
f 29 30 33
f 35 36 38
f 38 36 37
f 42 43 39
f 39 40 41
f 41 42 39
f 44 45 46
f 47 48 49
f 50 51 53
f 53 51 52
f 54 55 57
f 57 55 56
f 58 59 61
f 61 59 60
f 62 63 65
f 65 63 64
f 66 67 69
f 69 67 68
f 74 70 71
f 71 72 73
f 73 74 71
f 75 76 77
f 78 79 80
f 81 82 84
f 84 82 83
f 85 86 88
f 88 86 87
f 89 90 92
f 92 90 91
f 93 94 96
f 96 94 95
f 97 98 100
f 100 98 99
f 101 102 103
f 104 105 106
f 107 108 110
f 110 108 109
f 111 112 114
f 114 112 113
f 115 116 118
f 118 116 117
f 119 120 121
f 122 123 124
f 125 126 127
f 128 129 130
f 131 132 133
f 134 135 136
f 137 138 139
f 140 141 142
f 143 144 145
f 146 147 148
f 149 150 151
f 152 153 154
f 155 156 157
f 158 159 160
f 161 162 164
f 164 162 163
f 165 166 168
f 168 166 167
f 169 170 172
f 172 170 171
f 173 174 176
f 176 174 175
f 177 178 180
f 180 178 179
f 181 182 184
f 184 182 183
f 185 186 188
f 188 186 187
f 189 190 192
f 192 190 191
f 193 194 196
f 196 194 195
f 197 198 200
f 200 198 199
f 201 202 204
f 204 202 203
