# DIMKO.app — selection export
# Generated: 2026-07-29T08:06:51.950Z
o item_92b0f140_477709
v 0.074781 24.352051 -42.740710
v 0.074781 24.368000 -42.740710
v 0.075155 24.368000 -42.739782
v 0.075155 24.353000 -42.739782
v 0.233999 24.330780 -42.346658
v 0.233999 24.290780 -42.346658
v 0.228379 24.305780 -42.360566
v 0.228644 24.306487 -42.359910
v 0.233624 24.293194 -42.347585
v 0.233624 24.329831 -42.347585
v -19.613635 24.329831 -34.328238
v -19.613635 24.293194 -34.328238
v -19.618615 24.306487 -34.340563
v -19.618880 24.305780 -34.341218
v -19.613261 24.290780 -34.327310
v -19.613261 24.330780 -34.327310
v -19.772104 24.353000 -34.720435
v -19.772104 24.368000 -34.720435
v -19.772479 24.368000 -34.721362
v -19.772479 24.352051 -34.721362
v 0.233999 24.290780 -42.346658
v 0.233999 24.330780 -42.346658
v -19.613261 24.330780 -34.327310
v -19.613261 24.290780 -34.327310
v 0.228379 24.305780 -42.360566
v 0.233999 24.290780 -42.346658
v -19.613261 24.290780 -34.327310
v -19.618880 24.305780 -34.341218
v 0.228644 24.306487 -42.359910
v 0.228379 24.305780 -42.360566
v -19.618880 24.305780 -34.341218
v -19.618615 24.306487 -34.340563
v 0.233624 24.293194 -42.347585
v 0.228644 24.306487 -42.359910
v -19.618615 24.306487 -34.340563
v -19.613635 24.293194 -34.328238
v 0.233624 24.329831 -42.347585
v 0.233624 24.293194 -42.347585
v -19.613635 24.293194 -34.328238
v -19.613635 24.329831 -34.328238
v 0.074781 24.352051 -42.740710
v 0.233624 24.329831 -42.347585
v -19.613635 24.329831 -34.328238
v -19.772479 24.352051 -34.721362
v 0.074781 24.368000 -42.740710
v 0.074781 24.352051 -42.740710
v -19.772479 24.352051 -34.721362
v -19.772479 24.368000 -34.721362
v 0.075155 24.368000 -42.739782
v 0.074781 24.368000 -42.740710
v -19.772479 24.368000 -34.721362
v -19.772104 24.368000 -34.720435
v 0.075155 24.353000 -42.739782
v 0.075155 24.368000 -42.739782
v -19.772104 24.368000 -34.720435
v -19.772104 24.353000 -34.720435
v 0.233999 24.330780 -42.346658
v 0.075155 24.353000 -42.739782
v -19.772104 24.353000 -34.720435
v -19.613261 24.330780 -34.327310
f 1 2 3
f 6 7 8
f 1 3 4
f 6 8 9
f 10 1 4
f 5 6 9
f 10 4 5
f 5 9 10
f 12 13 14
f 17 18 19
f 12 14 15
f 17 19 20
f 11 12 15
f 16 17 20
f 11 15 16
f 16 20 11
f 21 22 24
f 24 22 23
f 25 26 28
f 28 26 27
f 29 30 32
f 32 30 31
f 33 34 36
f 36 34 35
f 37 38 40
f 40 38 39
f 41 42 44
f 44 42 43
f 45 46 48
f 48 46 47
f 49 50 52
f 52 50 51
f 53 54 56
f 56 54 55
f 57 58 60
f 60 58 59
o item_92b0f140_477790
v 14.427300 24.305780 -45.134187
v 14.411119 24.290781 -45.134187
v 14.411119 24.330780 -45.134187
v 14.868484 24.353000 -45.134227
v 14.868484 24.367999 -45.134227
v 14.869563 24.367999 -45.134227
v 14.869563 24.352051 -45.134227
v 14.412198 24.329831 -45.134186
v 14.412198 24.293195 -45.134186
v 14.426537 24.306487 -45.134188
v 16.014976 24.329831 -41.172119
v 16.567101 24.352051 -40.937913
v 16.567101 24.367999 -40.937913
v 16.565798 24.367999 -40.938467
v 16.565798 24.353000 -40.938467
v 16.013674 24.330780 -41.172671
v 16.013674 24.290781 -41.172671
v 16.033207 24.305780 -41.164385
v 16.032286 24.306487 -41.164777
v 16.014976 24.293195 -41.172119
v 14.868484 24.353000 -45.134227
v 14.411119 24.330780 -45.134187
v 16.013674 24.330780 -41.172671
v 16.565798 24.353000 -40.938467
v 16.565798 24.353000 -40.938467
v 16.565798 24.367999 -40.938467
v 14.868484 24.367999 -45.134227
v 14.868484 24.353000 -45.134227
v 14.869563 24.367999 -45.134227
v 14.868484 24.367999 -45.134227
v 16.565798 24.367999 -40.938467
v 16.567101 24.367999 -40.937913
v 14.869563 24.352051 -45.134227
v 14.869563 24.367999 -45.134227
v 16.567101 24.367999 -40.937913
v 16.567101 24.352051 -40.937913
v 16.567101 24.352051 -40.937913
v 16.014976 24.329831 -41.172119
v 14.412198 24.329831 -45.134186
v 14.869563 24.352051 -45.134227
v 16.014976 24.329831 -41.172119
v 16.014976 24.293195 -41.172119
v 14.412198 24.293195 -45.134186
v 14.412198 24.329831 -45.134186
v 14.426537 24.306487 -45.134188
v 14.412198 24.293195 -45.134186
v 16.014976 24.293195 -41.172119
v 16.032286 24.306487 -41.164777
v 14.427300 24.305780 -45.134187
v 14.426537 24.306487 -45.134188
v 16.032286 24.306487 -41.164777
v 16.033207 24.305780 -41.164385
v 16.033207 24.305780 -41.164385
v 16.013674 24.290781 -41.172671
v 14.411119 24.290781 -45.134187
v 14.427300 24.305780 -45.134187
v 16.013674 24.290781 -41.172671
v 16.013674 24.330780 -41.172671
v 14.411119 24.330780 -45.134187
v 14.411119 24.290781 -45.134187
f 69 70 61
f 64 65 66
f 69 61 62
f 64 66 67
f 68 69 62
f 63 64 67
f 68 62 63
f 63 67 68
f 72 73 74
f 77 78 79
f 72 74 75
f 77 79 80
f 71 72 75
f 76 77 80
f 71 75 76
f 76 80 71
f 81 82 84
f 84 82 83
f 85 86 88
f 88 86 87
f 89 90 92
f 92 90 91
f 93 94 96
f 96 94 95
f 97 98 100
f 100 98 99
f 101 102 104
f 104 102 103
f 105 106 108
f 108 106 107
f 109 110 112
f 112 110 111
f 113 114 116
f 116 114 115
f 117 118 120
f 120 118 119
o item_92b0f140_1113780
v 6.694039 20.449051 0.705000
v 6.694039 20.465000 0.705000
v 6.694039 20.465000 0.706000
v 6.694039 20.450000 0.706000
v 6.694039 20.427780 1.130000
v 6.694039 20.387780 1.130000
v 6.694039 20.402780 1.115000
v 6.694039 20.403487 1.115707
v 6.694039 20.390194 1.129000
v 6.694039 20.426831 1.129000
v -1.959999 20.426831 1.129000
v -1.959999 20.390194 1.129000
v -1.959999 20.403487 1.115707
v -1.959999 20.402780 1.115000
v -1.959999 20.387780 1.130000
v -1.959999 20.427780 1.130000
v -1.959999 20.450000 0.706000
v -1.959999 20.465000 0.706000
v -1.959999 20.465000 0.705000
v -1.959999 20.449051 0.705000
v 6.694039 20.387780 1.130000
v 6.694039 20.427780 1.130000
v -1.959999 20.427780 1.130000
v -1.959999 20.387780 1.130000
v 6.694039 20.402780 1.115000
v 6.694039 20.387780 1.130000
v -1.959999 20.387780 1.130000
v -1.959999 20.402780 1.115000
v 6.694039 20.403487 1.115707
v 6.694039 20.402780 1.115000
v -1.959999 20.402780 1.115000
v -1.959999 20.403487 1.115707
v 6.694039 20.390194 1.129000
v 6.694039 20.403487 1.115707
v -1.959999 20.403487 1.115707
v -1.959999 20.390194 1.129000
v 6.694039 20.426831 1.129000
v 6.694039 20.390194 1.129000
v -1.959999 20.390194 1.129000
v -1.959999 20.426831 1.129000
v 6.694039 20.449051 0.705000
v 6.694039 20.426831 1.129000
v -1.959999 20.426831 1.129000
v -1.959999 20.449051 0.705000
v 6.694039 20.465000 0.705000
v 6.694039 20.449051 0.705000
v -1.959999 20.449051 0.705000
v -1.959999 20.465000 0.705000
v 6.694039 20.465000 0.706000
v 6.694039 20.465000 0.705000
v -1.959999 20.465000 0.705000
v -1.959999 20.465000 0.706000
v 6.694039 20.450000 0.706000
v 6.694039 20.465000 0.706000
v -1.959999 20.465000 0.706000
v -1.959999 20.450000 0.706000
v 6.694039 20.427780 1.130000
v 6.694039 20.450000 0.706000
v -1.959999 20.450000 0.706000
v -1.959999 20.427780 1.130000
f 121 122 123
f 126 127 128
f 121 123 124
f 126 128 129
f 130 121 124
f 125 126 129
f 130 124 125
f 125 129 130
f 132 133 134
f 137 138 139
f 132 134 135
f 137 139 140
f 131 132 135
f 136 137 140
f 131 135 136
f 136 140 131
f 141 142 144
f 144 142 143
f 145 146 148
f 148 146 147
f 149 150 152
f 152 150 151
f 153 154 156
f 156 154 155
f 157 158 160
f 160 158 159
f 161 162 164
f 164 162 163
f 165 166 168
f 168 166 167
f 169 170 172
f 172 170 171
f 173 174 176
f 176 174 175
f 177 178 180
f 180 178 179
o item_92b0f140_1114034
v 3.100417 20.426906 7.070923
v 3.100417 20.390269 7.070922
v 3.100417 20.403557 7.084221
v 3.100417 20.402850 7.084928
v 3.100417 20.387856 7.069923
v 3.100417 20.427855 7.069923
v 3.100417 20.449933 7.494080
v 3.100417 20.464932 7.494080
v 3.100417 20.464932 7.495080
v 3.100417 20.448984 7.495081
v 0.751183 20.448984 7.495081
v 0.751183 20.464932 7.495080
v 0.751183 20.464932 7.494080
v 0.751183 20.449933 7.494080
v 0.751183 20.427855 7.069923
v 0.751183 20.387856 7.069923
v 0.751183 20.402850 7.084928
v 0.751183 20.403557 7.084221
v 0.751183 20.390269 7.070922
v 0.751183 20.426906 7.070923
v 0.751183 20.387856 7.069923
v 0.751183 20.427855 7.069923
v 3.100417 20.427855 7.069923
v 3.100417 20.387856 7.069923
v 0.751183 20.402850 7.084928
v 0.751183 20.387856 7.069923
v 3.100417 20.387856 7.069923
v 3.100417 20.402850 7.084928
v 0.751183 20.403557 7.084221
v 0.751183 20.402850 7.084928
v 3.100417 20.402850 7.084928
v 3.100417 20.403557 7.084221
v 0.751183 20.390269 7.070922
v 0.751183 20.403557 7.084221
v 3.100417 20.403557 7.084221
v 3.100417 20.390269 7.070922
v 0.751183 20.426906 7.070923
v 0.751183 20.390269 7.070922
v 3.100417 20.390269 7.070922
v 3.100417 20.426906 7.070923
v 0.751183 20.448984 7.495081
v 0.751183 20.426906 7.070923
v 3.100417 20.426906 7.070923
v 3.100417 20.448984 7.495081
v 0.751183 20.464932 7.495080
v 0.751183 20.448984 7.495081
v 3.100417 20.448984 7.495081
v 3.100417 20.464932 7.495080
v 0.751183 20.464932 7.494080
v 0.751183 20.464932 7.495080
v 3.100417 20.464932 7.495080
v 3.100417 20.464932 7.494080
v 0.751183 20.449933 7.494080
v 0.751183 20.464932 7.494080
v 3.100417 20.464932 7.494080
v 3.100417 20.449933 7.494080
v 0.751183 20.427855 7.069923
v 0.751183 20.449933 7.494080
v 3.100417 20.449933 7.494080
v 3.100417 20.427855 7.069923
f 182 183 184
f 187 188 189
f 182 184 185
f 187 189 190
f 181 182 185
f 186 187 190
f 181 185 186
f 186 190 181
f 191 192 193
f 196 197 198
f 191 193 194
f 196 198 199
f 200 191 194
f 195 196 199
f 200 194 195
f 195 199 200
f 201 202 204
f 204 202 203
f 205 206 208
f 208 206 207
f 209 210 212
f 212 210 211
f 213 214 216
f 216 214 215
f 217 218 220
f 220 218 219
f 221 222 224
f 224 222 223
f 225 226 228
f 228 226 227
f 229 230 232
f 232 230 231
f 233 234 236
f 236 234 235
f 237 238 240
f 240 238 239
o item_92b0f140_1115570
v -20.349012 24.293195 -26.470484
v -20.349012 24.329831 -26.470484
v -20.733142 24.352051 -25.857711
v -20.733142 24.367999 -25.857711
v -20.732237 24.367999 -25.859156
v -20.732237 24.353000 -25.859156
v -20.348107 24.330780 -26.471929
v -20.348107 24.290781 -26.471929
v -20.361696 24.305780 -26.450251
v -20.361056 24.306487 -26.451273
v 16.010789 24.293195 -41.179142
v 16.028093 24.306487 -41.171802
v 16.029012 24.305780 -41.171412
v 16.009488 24.290781 -41.179695
v 16.009488 24.330780 -41.179695
v 16.561379 24.353000 -40.945570
v 16.561379 24.367999 -40.945570
v 16.562680 24.367999 -40.945018
v 16.562680 24.352051 -40.945018
v 16.010789 24.329831 -41.179142
v -20.348107 24.330780 -26.471929
v -20.732237 24.353000 -25.859156
v 16.561379 24.353000 -40.945570
v 16.009488 24.330780 -41.179695
v -20.732237 24.353000 -25.859156
v -20.732237 24.367999 -25.859156
v 16.561379 24.367999 -40.945570
v 16.561379 24.353000 -40.945570
v -20.732237 24.367999 -25.859156
v -20.733142 24.367999 -25.857711
v 16.562680 24.367999 -40.945018
v 16.561379 24.367999 -40.945570
v 16.562680 24.367999 -40.945018
v -20.733142 24.367999 -25.857711
v -20.733142 24.352051 -25.857711
v 16.562680 24.352051 -40.945018
v 16.562680 24.352051 -40.945018
v -20.733142 24.352051 -25.857711
v -20.349012 24.329831 -26.470484
v 16.010789 24.329831 -41.179142
v -20.349012 24.329831 -26.470484
v -20.349012 24.293195 -26.470484
v 16.010789 24.293195 -41.179142
v 16.010789 24.329831 -41.179142
v -20.349012 24.293195 -26.470484
v -20.361056 24.306487 -26.451273
v 16.028093 24.306487 -41.171802
v 16.010789 24.293195 -41.179142
v -20.361056 24.306487 -26.451273
v -20.361696 24.305780 -26.450251
v 16.029012 24.305780 -41.171412
v 16.028093 24.306487 -41.171802
v 16.029012 24.305780 -41.171412
v -20.361696 24.305780 -26.450251
v -20.348107 24.290781 -26.471929
v 16.009488 24.290781 -41.179695
v -20.348107 24.290781 -26.471929
v -20.348107 24.330780 -26.471929
v 16.009488 24.330780 -41.179695
v 16.009488 24.290781 -41.179695
f 249 250 241
f 243 244 245
f 248 249 241
f 243 245 246
f 247 248 241
f 242 243 246
f 247 241 242
f 242 246 247
f 251 252 253
f 256 257 258
f 251 253 254
f 256 258 259
f 260 251 254
f 255 256 259
f 260 254 255
f 255 259 260
f 261 262 264
f 264 262 263
f 265 266 268
f 268 266 267
f 269 270 272
f 272 270 271
f 273 274 276
f 276 274 275
f 277 278 280
f 280 278 279
f 281 282 284
f 284 282 283
f 285 286 288
f 288 286 287
f 289 290 292
f 292 290 291
f 293 294 296
f 296 294 295
f 297 298 300
f 300 298 299
o item_92b0f140_1115810
v -21.162086 24.309693 -30.211519
v -21.162086 24.346337 -30.211519
v -21.055691 24.352050 -30.254502
v -21.055691 24.368001 -30.254502
v -21.056667 24.368001 -30.254107
v -21.056667 24.352999 -30.254107
v -21.163062 24.347286 -30.211124
v -21.163062 24.307279 -30.211124
v -21.148420 24.322281 -30.217039
v -21.149111 24.322988 -30.216761
v -21.425789 24.309693 -34.199035
v -21.411891 24.322988 -34.190315
v -21.411151 24.322281 -34.189851
v -21.426835 24.307279 -34.199691
v -21.426835 24.347286 -34.199691
v -21.312868 24.352999 -34.128184
v -21.312868 24.368001 -34.128184
v -21.311823 24.368001 -34.127528
v -21.311823 24.352050 -34.127528
v -21.425789 24.346337 -34.199035
v -21.163062 24.347286 -30.211124
v -21.056667 24.352999 -30.254107
v -21.312868 24.352999 -34.128184
v -21.426835 24.347286 -34.199691
v -21.056667 24.352999 -30.254107
v -21.056667 24.368001 -30.254107
v -21.312868 24.368001 -34.128184
v -21.312868 24.352999 -34.128184
v -21.056667 24.368001 -30.254107
v -21.055691 24.368001 -30.254502
v -21.311823 24.368001 -34.127528
v -21.312868 24.368001 -34.128184
v -21.311823 24.368001 -34.127528
v -21.055691 24.368001 -30.254502
v -21.055691 24.352050 -30.254502
v -21.311823 24.352050 -34.127528
v -21.311823 24.352050 -34.127528
v -21.055691 24.352050 -30.254502
v -21.162086 24.346337 -30.211519
v -21.425789 24.346337 -34.199035
v -21.162086 24.346337 -30.211519
v -21.162086 24.309693 -30.211519
v -21.425789 24.309693 -34.199035
v -21.425789 24.346337 -34.199035
v -21.162086 24.309693 -30.211519
v -21.149111 24.322988 -30.216761
v -21.411891 24.322988 -34.190315
v -21.425789 24.309693 -34.199035
v -21.149111 24.322988 -30.216761
v -21.148420 24.322281 -30.217039
v -21.411151 24.322281 -34.189851
v -21.411891 24.322988 -34.190315
v -21.411151 24.322281 -34.189851
v -21.148420 24.322281 -30.217039
v -21.163062 24.307279 -30.211124
v -21.426835 24.307279 -34.199691
v -21.426835 24.307279 -34.199691
v -21.163062 24.307279 -30.211124
v -21.163062 24.347286 -30.211124
v -21.426835 24.347286 -34.199691
f 309 310 301
f 303 304 305
f 308 309 301
f 303 305 306
f 307 308 301
f 302 303 306
f 307 301 302
f 302 306 307
f 311 312 313
f 316 317 318
f 311 313 314
f 316 318 319
f 320 311 314
f 315 316 319
f 320 314 315
f 315 319 320
f 321 322 324
f 324 322 323
f 325 326 328
f 328 326 327
f 329 330 332
f 332 330 331
f 333 334 336
f 336 334 335
f 337 338 340
f 340 338 339
f 341 342 344
f 344 342 343
f 345 346 348
f 348 346 347
f 349 350 352
f 352 350 351
f 353 354 356
f 356 354 355
f 357 358 360
f 360 358 359
o item_92b0f140_1120394
v 13.698486 24.309699 -48.390855
v 13.698486 24.346335 -48.390855
v 13.638297 24.352047 -48.248981
v 13.638297 24.367995 -48.248981
v 13.638849 24.367995 -48.250283
v 13.638849 24.352996 -48.250283
v 13.699038 24.347284 -48.392156
v 13.699038 24.307285 -48.392156
v 13.690755 24.322284 -48.372632
v 13.691146 24.322991 -48.373552
v 16.743111 24.309699 -40.864541
v 16.725801 24.322991 -40.871885
v 16.724880 24.322284 -40.872275
v 16.744413 24.307285 -40.863989
v 16.744413 24.347284 -40.863989
v 16.602474 24.352996 -40.924202
v 16.602474 24.367995 -40.924202
v 16.601172 24.367995 -40.924754
v 16.601172 24.352047 -40.924754
v 16.743111 24.346335 -40.864541
v 16.744413 24.347284 -40.863989
v 13.699038 24.347284 -48.392156
v 13.638849 24.352996 -48.250283
v 16.602474 24.352996 -40.924202
v 13.638849 24.352996 -48.250283
v 13.638849 24.367995 -48.250283
v 16.602474 24.367995 -40.924202
v 16.602474 24.352996 -40.924202
v 16.602474 24.367995 -40.924202
v 13.638849 24.367995 -48.250283
v 13.638297 24.367995 -48.248981
v 16.601172 24.367995 -40.924754
v 16.601172 24.367995 -40.924754
v 13.638297 24.367995 -48.248981
v 13.638297 24.352047 -48.248981
v 16.601172 24.352047 -40.924754
v 13.638297 24.352047 -48.248981
v 13.698486 24.346335 -48.390855
v 16.743111 24.346335 -40.864541
v 16.601172 24.352047 -40.924754
v 13.698486 24.346335 -48.390855
v 13.698486 24.309699 -48.390855
v 16.743111 24.309699 -40.864541
v 16.743111 24.346335 -40.864541
v 16.743111 24.309699 -40.864541
v 13.698486 24.309699 -48.390855
v 13.691146 24.322991 -48.373552
v 16.725801 24.322991 -40.871885
v 13.691146 24.322991 -48.373552
v 13.690755 24.322284 -48.372632
v 16.724880 24.322284 -40.872275
v 16.725801 24.322991 -40.871885
v 16.724880 24.322284 -40.872275
v 13.690755 24.322284 -48.372632
v 13.699038 24.307285 -48.392156
v 16.744413 24.307285 -40.863989
v 16.744413 24.307285 -40.863989
v 13.699038 24.307285 -48.392156
v 13.699038 24.347284 -48.392156
v 16.744413 24.347284 -40.863989
f 369 370 361
f 363 364 365
f 368 369 361
f 363 365 366
f 367 368 361
f 362 363 366
f 367 361 362
f 362 366 367
f 371 372 373
f 376 377 378
f 371 373 374
f 376 378 379
f 380 371 374
f 375 376 379
f 380 374 375
f 375 379 380
f 381 382 384
f 384 382 383
f 385 386 388
f 388 386 387
f 389 390 392
f 392 390 391
f 393 394 396
f 396 394 395
f 397 398 400
f 400 398 399
f 401 402 404
f 404 402 403
f 405 406 408
f 408 406 407
f 409 410 412
f 412 410 411
f 413 414 416
f 416 414 415
f 417 418 420
f 420 418 419
o item_92b0f140_1120648
v -20.858515 24.309693 -25.671289
v -20.858515 24.346337 -25.671289
v -20.759694 24.352050 -25.828805
v -20.759694 24.368001 -25.828805
v -20.760601 24.368001 -25.827359
v -20.760601 24.352999 -25.827359
v -20.859422 24.347286 -25.669845
v -20.859422 24.307279 -25.669845
v -20.845822 24.322281 -25.691520
v -20.846463 24.322988 -25.690498
v -21.000478 24.309693 -27.817937
v -20.987214 24.322988 -27.818819
v -20.986508 24.322281 -27.818866
v -21.001475 24.307279 -27.817870
v -21.001475 24.347286 -27.817870
v -20.892716 24.352999 -27.825109
v -20.892716 24.368001 -27.825109
v -20.891718 24.368001 -27.825175
v -20.891718 24.352050 -27.825175
v -21.000478 24.346337 -27.817937
v -21.001475 24.347286 -27.817870
v -20.859422 24.347286 -25.669845
v -20.760601 24.352999 -25.827359
v -20.892716 24.352999 -27.825109
v -20.760601 24.352999 -25.827359
v -20.760601 24.368001 -25.827359
v -20.892716 24.368001 -27.825109
v -20.892716 24.352999 -27.825109
v -20.892716 24.368001 -27.825109
v -20.760601 24.368001 -25.827359
v -20.759694 24.368001 -25.828805
v -20.891718 24.368001 -27.825175
v -20.759694 24.368001 -25.828805
v -20.759694 24.352050 -25.828805
v -20.891718 24.352050 -27.825175
v -20.891718 24.368001 -27.825175
v -20.759694 24.352050 -25.828805
v -20.858515 24.346337 -25.671289
v -21.000478 24.346337 -27.817937
v -20.891718 24.352050 -27.825175
v -20.858515 24.346337 -25.671289
v -20.858515 24.309693 -25.671289
v -21.000478 24.309693 -27.817937
v -21.000478 24.346337 -27.817937
v -21.000478 24.309693 -27.817937
v -20.858515 24.309693 -25.671289
v -20.846463 24.322988 -25.690498
v -20.987214 24.322988 -27.818819
v -20.987214 24.322988 -27.818819
v -20.846463 24.322988 -25.690498
v -20.845822 24.322281 -25.691520
v -20.986508 24.322281 -27.818866
v -20.845822 24.322281 -25.691520
v -20.859422 24.307279 -25.669845
v -21.001475 24.307279 -27.817870
v -20.986508 24.322281 -27.818866
v -21.001475 24.307279 -27.817870
v -20.859422 24.307279 -25.669845
v -20.859422 24.347286 -25.669845
v -21.001475 24.347286 -27.817870
f 429 430 421
f 423 424 425
f 428 429 421
f 423 425 426
f 427 428 421
f 422 423 426
f 427 421 422
f 422 426 427
f 431 432 433
f 436 437 438
f 431 433 434
f 436 438 439
f 440 431 434
f 435 436 439
f 440 434 435
f 435 439 440
f 441 442 444
f 444 442 443
f 445 446 448
f 448 446 447
f 449 450 452
f 452 450 451
f 453 454 456
f 456 454 455
f 457 458 460
f 460 458 459
f 461 462 464
f 464 462 463
f 465 466 468
f 468 466 467
f 469 470 472
f 472 470 471
f 473 474 476
f 476 474 475
f 477 478 480
f 480 478 479
o item_92b0f140_1120699
v -20.365369 24.302776 -26.457506
v -20.351770 24.287773 -26.479182
v -20.351770 24.327780 -26.479182
v -20.736175 24.350004 -25.866462
v -20.736175 24.365007 -25.866462
v -20.737081 24.365007 -25.865018
v -20.737081 24.349055 -25.865018
v -20.352677 24.326831 -26.477737
v -20.352677 24.290188 -26.477737
v -20.364728 24.303483 -26.458527
v -20.443757 24.326831 -27.854976
v -20.866820 24.349055 -27.826818
v -20.866820 24.365007 -27.826818
v -20.865822 24.365007 -27.826885
v -20.865822 24.350004 -27.826885
v -20.442759 24.327780 -27.855042
v -20.442759 24.287773 -27.855042
v -20.457726 24.302776 -27.854046
v -20.457020 24.303483 -27.854093
v -20.443757 24.290188 -27.854976
v -20.442759 24.327780 -27.855042
v -20.865822 24.350004 -27.826885
v -20.736175 24.350004 -25.866462
v -20.351770 24.327780 -26.479182
v -20.865822 24.350004 -27.826885
v -20.865822 24.365007 -27.826885
v -20.736175 24.365007 -25.866462
v -20.736175 24.350004 -25.866462
v -20.865822 24.365007 -27.826885
v -20.866820 24.365007 -27.826818
v -20.737081 24.365007 -25.865018
v -20.736175 24.365007 -25.866462
v -20.866820 24.365007 -27.826818
v -20.866820 24.349055 -27.826818
v -20.737081 24.349055 -25.865018
v -20.737081 24.365007 -25.865018
v -20.352677 24.326831 -26.477737
v -20.737081 24.349055 -25.865018
v -20.866820 24.349055 -27.826818
v -20.443757 24.326831 -27.854976
v -20.352677 24.290188 -26.477737
v -20.352677 24.326831 -26.477737
v -20.443757 24.326831 -27.854976
v -20.443757 24.290188 -27.854976
v -20.443757 24.290188 -27.854976
v -20.457020 24.303483 -27.854093
v -20.364728 24.303483 -26.458527
v -20.352677 24.290188 -26.477737
v -20.457020 24.303483 -27.854093
v -20.457726 24.302776 -27.854046
v -20.365369 24.302776 -26.457506
v -20.364728 24.303483 -26.458527
v -20.351770 24.287773 -26.479182
v -20.365369 24.302776 -26.457506
v -20.457726 24.302776 -27.854046
v -20.442759 24.287773 -27.855042
v -20.442759 24.287773 -27.855042
v -20.442759 24.327780 -27.855042
v -20.351770 24.327780 -26.479182
v -20.351770 24.287773 -26.479182
f 489 490 481
f 484 485 486
f 489 481 482
f 484 486 487
f 488 489 482
f 483 484 487
f 488 482 483
f 483 487 488
f 492 493 494
f 497 498 499
f 492 494 495
f 497 499 500
f 491 492 495
f 496 497 500
f 491 495 496
f 496 500 491
f 501 502 504
f 504 502 503
f 505 506 508
f 508 506 507
f 509 510 512
f 512 510 511
f 513 514 516
f 516 514 515
f 517 518 520
f 520 518 519
f 521 522 524
f 524 522 523
f 525 526 528
f 528 526 527
f 529 530 532
f 532 530 531
f 533 534 536
f 536 534 535
f 537 538 540
f 540 538 539
o item_92b0f140_1134567
v -21.002413 24.309693 -27.817402
v -21.002413 24.346337 -27.817402
v -20.893654 24.352050 -27.824641
v -20.893654 24.368001 -27.824641
v -20.894651 24.368001 -27.824574
v -20.894651 24.352999 -27.824574
v -21.003410 24.347286 -27.817336
v -21.003410 24.307279 -27.817336
v -20.988444 24.322281 -27.818332
v -20.989149 24.322988 -27.818285
v -21.160785 24.309693 -30.212181
v -21.147809 24.322988 -30.217423
v -21.147119 24.322281 -30.217702
v -21.161761 24.307279 -30.211786
v -21.161761 24.347286 -30.211786
v -21.055366 24.352999 -30.254769
v -21.055366 24.368001 -30.254769
v -21.054390 24.368001 -30.255164
v -21.054390 24.352050 -30.255164
v -21.160785 24.346337 -30.212181
v -21.161761 24.347286 -30.211786
v -21.003410 24.347286 -27.817336
v -20.894651 24.352999 -27.824574
v -21.055366 24.352999 -30.254769
v -20.894651 24.352999 -27.824574
v -20.894651 24.368001 -27.824574
v -21.055366 24.368001 -30.254769
v -21.055366 24.352999 -30.254769
v -21.055366 24.368001 -30.254769
v -20.894651 24.368001 -27.824574
v -20.893654 24.368001 -27.824641
v -21.054390 24.368001 -30.255164
v -21.054390 24.368001 -30.255164
v -20.893654 24.368001 -27.824641
v -20.893654 24.352050 -27.824641
v -21.054390 24.352050 -30.255164
v -20.893654 24.352050 -27.824641
v -21.002413 24.346337 -27.817402
v -21.160785 24.346337 -30.212181
v -21.054390 24.352050 -30.255164
v -21.002413 24.346337 -27.817402
v -21.002413 24.309693 -27.817402
v -21.160785 24.309693 -30.212181
v -21.160785 24.346337 -30.212181
v -21.160785 24.309693 -30.212181
v -21.002413 24.309693 -27.817402
v -20.989149 24.322988 -27.818285
v -21.147809 24.322988 -30.217423
v -21.147809 24.322988 -30.217423
v -20.989149 24.322988 -27.818285
v -20.988444 24.322281 -27.818332
v -21.147119 24.322281 -30.217702
v -20.988444 24.322281 -27.818332
v -21.003410 24.307279 -27.817336
v -21.161761 24.307279 -30.211786
v -21.147119 24.322281 -30.217702
v -21.003410 24.307279 -27.817336
v -21.003410 24.347286 -27.817336
v -21.161761 24.347286 -30.211786
v -21.161761 24.307279 -30.211786
f 549 550 541
f 543 544 545
f 548 549 541
f 543 545 546
f 547 548 541
f 542 543 546
f 547 541 542
f 542 546 547
f 551 552 553
f 556 557 558
f 551 553 554
f 556 558 559
f 560 551 554
f 555 556 559
f 560 554 555
f 555 559 560
f 561 562 564
f 564 562 563
f 565 566 568
f 568 566 567
f 569 570 572
f 572 570 571
f 573 574 576
f 576 574 575
f 577 578 580
f 580 578 579
f 581 582 584
f 584 582 583
f 585 586 588
f 588 586 587
f 589 590 592
f 592 590 591
f 593 594 596
f 596 594 595
f 597 598 600
f 600 598 599
