# DIMKO.app — selection export
# Generated: 2026-07-29T08:06:02.480Z
o item_92b0f140_1112102
v -1.960000 20.422555 5.116280
v -1.960000 20.407555 5.131280
v -1.960000 20.447555 5.131280
v -1.960000 20.453005 5.022280
v -1.960000 20.468005 5.022280
v -1.960000 20.468005 5.021280
v -1.960000 20.452054 5.021280
v -1.960000 20.446604 5.130280
v -1.960000 20.409969 5.130280
v -1.960000 20.423262 5.116987
v -1.235000 20.446604 5.130280
v -1.126000 20.452054 5.021280
v -1.126000 20.468005 5.021280
v -1.127000 20.468005 5.022280
v -1.127000 20.453005 5.022280
v -1.236000 20.447555 5.131280
v -1.236000 20.407555 5.131280
v -1.221000 20.422555 5.116280
v -1.221707 20.423262 5.116987
v -1.235000 20.409969 5.130280
v -1.960000 20.453005 5.022280
v -1.960000 20.447555 5.131280
v -1.236000 20.447555 5.131280
v -1.127000 20.453005 5.022280
v -1.127000 20.453005 5.022280
v -1.127000 20.468005 5.022280
v -1.960000 20.468005 5.022280
v -1.960000 20.453005 5.022280
v -1.960000 20.468005 5.021280
v -1.960000 20.468005 5.022280
v -1.127000 20.468005 5.022280
v -1.126000 20.468005 5.021280
v -1.126000 20.468005 5.021280
v -1.126000 20.452054 5.021280
v -1.960000 20.452054 5.021280
v -1.960000 20.468005 5.021280
v -1.126000 20.452054 5.021280
v -1.235000 20.446604 5.130280
v -1.960000 20.446604 5.130280
v -1.960000 20.452054 5.021280
v -1.235000 20.446604 5.130280
v -1.235000 20.409969 5.130280
v -1.960000 20.409969 5.130280
v -1.960000 20.446604 5.130280
v -1.960000 20.423262 5.116987
v -1.960000 20.409969 5.130280
v -1.235000 20.409969 5.130280
v -1.221707 20.423262 5.116987
v -1.960000 20.422555 5.116280
v -1.960000 20.423262 5.116987
v -1.221707 20.423262 5.116987
v -1.221000 20.422555 5.116280
v -1.221000 20.422555 5.116280
v -1.236000 20.407555 5.131280
v -1.960000 20.407555 5.131280
v -1.960000 20.422555 5.116280
v -1.960000 20.447555 5.131280
v -1.960000 20.407555 5.131280
v -1.236000 20.407555 5.131280
v -1.236000 20.447555 5.131280
f 9 10 1
f 4 5 6
f 9 1 2
f 4 6 7
f 8 9 2
f 3 4 7
f 8 2 3
f 3 7 8
f 12 13 14
f 17 18 19
f 12 14 15
f 17 19 20
f 11 12 15
f 16 17 20
f 11 15 16
f 16 20 11
f 21 22 24
f 24 22 23
f 25 26 28
f 28 26 27
f 29 30 32
f 32 30 31
f 33 34 36
f 36 34 35
f 37 38 40
f 40 38 39
f 41 42 44
f 44 42 43
f 45 46 48
f 48 46 47
f 49 50 52
f 52 50 51
f 53 54 56
f 56 54 55
f 57 58 60
f 60 58 59
o item_92b0f140_1115056
v -21.423269 24.309969 -34.191555
v -21.423269 24.346604 -34.191555
v -21.309289 24.352054 -34.120082
v -21.309289 24.368004 -34.120082
v -21.310336 24.368004 -34.120737
v -21.310336 24.353005 -34.120737
v -21.424314 24.347555 -34.192211
v -21.424314 24.307556 -34.192211
v -21.408629 24.322555 -34.182376
v -21.409369 24.323262 -34.182839
v 13.696831 24.309969 -48.398716
v 13.689489 24.323262 -48.381406
v 13.689098 24.322555 -48.380485
v 13.697385 24.307556 -48.400018
v 13.697385 24.347555 -48.400018
v 13.637175 24.353005 -48.258080
v 13.637175 24.368004 -48.258080
v 13.636623 24.368004 -48.256778
v 13.636623 24.352054 -48.256778
v 13.696831 24.346604 -48.398716
v -21.424314 24.347555 -34.192211
v -21.310336 24.353005 -34.120737
v 13.637175 24.353005 -48.258080
v 13.697385 24.347555 -48.400018
v -21.310336 24.353005 -34.120737
v -21.310336 24.368004 -34.120737
v 13.637175 24.368004 -48.258080
v 13.637175 24.353005 -48.258080
v -21.310336 24.368004 -34.120737
v -21.309289 24.368004 -34.120082
v 13.636623 24.368004 -48.256778
v 13.637175 24.368004 -48.258080
v -21.309289 24.368004 -34.120082
v -21.309289 24.352054 -34.120082
v 13.636623 24.352054 -48.256778
v 13.636623 24.368004 -48.256778
v 13.636623 24.352054 -48.256778
v -21.309289 24.352054 -34.120082
v -21.423269 24.346604 -34.191555
v 13.696831 24.346604 -48.398716
v 13.696831 24.346604 -48.398716
v -21.423269 24.346604 -34.191555
v -21.423269 24.309969 -34.191555
v 13.696831 24.309969 -48.398716
v -21.423269 24.309969 -34.191555
v -21.409369 24.323262 -34.182839
v 13.689489 24.323262 -48.381406
v 13.696831 24.309969 -48.398716
v -21.409369 24.323262 -34.182839
v -21.408629 24.322555 -34.182376
v 13.689098 24.322555 -48.380485
v 13.689489 24.323262 -48.381406
v 13.689098 24.322555 -48.380485
v -21.408629 24.322555 -34.182376
v -21.424314 24.307556 -34.192211
v 13.697385 24.307556 -48.400018
v -21.424314 24.307556 -34.192211
v -21.424314 24.347555 -34.192211
v 13.697385 24.347555 -48.400018
v 13.697385 24.307556 -48.400018
f 69 70 61
f 63 64 65
f 68 69 61
f 63 65 66
f 67 68 61
f 62 63 66
f 67 61 62
f 62 66 67
f 71 72 73
f 76 77 78
f 71 73 74
f 76 78 79
f 80 71 74
f 75 76 79
f 80 74 75
f 75 79 80
f 81 82 84
f 84 82 83
f 85 86 88
f 88 86 87
f 89 90 92
f 92 90 91
f 93 94 96
f 96 94 95
f 97 98 100
f 100 98 99
f 101 102 104
f 104 102 103
f 105 106 108
f 108 106 107
f 109 110 112
f 112 110 111
f 113 114 116
f 116 114 115
f 117 118 120
f 120 118 119
o item_92b0f140_1115621
v -20.841710 24.322555 -25.684354
v -20.855299 24.307556 -25.662676
v -20.855299 24.347555 -25.662676
v -20.756550 24.353005 -25.820205
v -20.756550 24.368004 -25.820205
v -20.755643 24.368004 -25.821650
v -20.755643 24.352054 -25.821650
v -20.854393 24.346604 -25.664121
v -20.854393 24.309969 -25.664121
v -20.842350 24.323262 -25.683333
v 16.737867 24.346604 -40.871346
v 16.595988 24.352054 -40.931534
v 16.595988 24.368004 -40.931534
v 16.597289 24.368004 -40.930981
v 16.597289 24.353005 -40.930981
v 16.739168 24.347555 -40.870794
v 16.739168 24.307556 -40.870794
v 16.719643 24.322555 -40.879076
v 16.720565 24.323262 -40.878687
v 16.737867 24.309969 -40.871346
v -20.756550 24.353005 -25.820205
v -20.855299 24.347555 -25.662676
v 16.739168 24.347555 -40.870794
v 16.597289 24.353005 -40.930981
v 16.597289 24.353005 -40.930981
v 16.597289 24.368004 -40.930981
v -20.756550 24.368004 -25.820205
v -20.756550 24.353005 -25.820205
v -20.755643 24.368004 -25.821650
v -20.756550 24.368004 -25.820205
v 16.597289 24.368004 -40.930981
v 16.595988 24.368004 -40.931534
v 16.595988 24.368004 -40.931534
v 16.595988 24.352054 -40.931534
v -20.755643 24.352054 -25.821650
v -20.755643 24.368004 -25.821650
v 16.595988 24.352054 -40.931534
v 16.737867 24.346604 -40.871346
v -20.854393 24.346604 -25.664121
v -20.755643 24.352054 -25.821650
v 16.737867 24.346604 -40.871346
v 16.737867 24.309969 -40.871346
v -20.854393 24.309969 -25.664121
v -20.854393 24.346604 -25.664121
v -20.842350 24.323262 -25.683333
v -20.854393 24.309969 -25.664121
v 16.737867 24.309969 -40.871346
v 16.720565 24.323262 -40.878687
v -20.841710 24.322555 -25.684354
v -20.842350 24.323262 -25.683333
v 16.720565 24.323262 -40.878687
v 16.719643 24.322555 -40.879076
v 16.719643 24.322555 -40.879076
v 16.739168 24.307556 -40.870794
v -20.855299 24.307556 -25.662676
v -20.841710 24.322555 -25.684354
v 16.739168 24.307556 -40.870794
v 16.739168 24.347555 -40.870794
v -20.855299 24.347555 -25.662676
v -20.855299 24.307556 -25.662676
f 129 130 121
f 124 125 126
f 129 121 122
f 124 126 127
f 128 129 122
f 123 124 127
f 128 122 123
f 123 127 128
f 132 133 134
f 137 138 139
f 132 134 135
f 137 139 140
f 131 132 135
f 136 137 140
f 131 135 136
f 136 140 131
f 141 142 144
f 144 142 143
f 145 146 148
f 148 146 147
f 149 150 152
f 152 150 151
f 153 154 156
f 156 154 155
f 157 158 160
f 160 158 159
f 161 162 164
f 164 162 163
f 165 166 168
f 168 166 167
f 169 170 172
f 172 170 171
f 173 174 176
f 176 174 175
f 177 178 180
f 180 178 179
o item_92b0f140_1127316
v -1.235000 20.409969 7.628998
v -1.235000 20.446604 7.628998
v -1.126000 20.452054 7.519998
v -1.126000 20.468005 7.519998
v -1.127000 20.468005 7.520998
v -1.127000 20.453005 7.520998
v -1.236000 20.447555 7.629998
v -1.236000 20.407555 7.629998
v -1.221000 20.422555 7.614998
v -1.221707 20.423262 7.615705
v -1.235000 20.409969 5.130282
v -1.221707 20.423262 5.116989
v -1.221000 20.422555 5.116282
v -1.236000 20.407555 5.131282
v -1.236000 20.447555 5.131282
v -1.127000 20.453005 5.022282
v -1.127000 20.468005 5.022282
v -1.126000 20.468005 5.021282
v -1.126000 20.452054 5.021282
v -1.235000 20.446604 5.130282
v -1.236000 20.447555 5.131282
v -1.236000 20.447555 7.629998
v -1.127000 20.453005 7.520998
v -1.127000 20.453005 5.022282
v -1.127000 20.453005 5.022282
v -1.127000 20.453005 7.520998
v -1.127000 20.468005 7.520998
v -1.127000 20.468005 5.022282
v -1.127000 20.468005 5.022282
v -1.127000 20.468005 7.520998
v -1.126000 20.468005 7.519998
v -1.126000 20.468005 5.021282
v -1.126000 20.468005 7.519998
v -1.126000 20.452054 7.519998
v -1.126000 20.452054 5.021282
v -1.126000 20.468005 5.021282
v -1.126000 20.452054 7.519998
v -1.235000 20.446604 7.628998
v -1.235000 20.446604 5.130282
v -1.126000 20.452054 5.021282
v -1.235000 20.446604 5.130282
v -1.235000 20.446604 7.628998
v -1.235000 20.409969 7.628998
v -1.235000 20.409969 5.130282
v -1.235000 20.409969 5.130282
v -1.235000 20.409969 7.628998
v -1.221707 20.423262 7.615705
v -1.221707 20.423262 5.116989
v -1.221707 20.423262 5.116989
v -1.221707 20.423262 7.615705
v -1.221000 20.422555 7.614998
v -1.221000 20.422555 5.116282
v -1.221000 20.422555 7.614998
v -1.236000 20.407555 7.629998
v -1.236000 20.407555 5.131282
v -1.221000 20.422555 5.116282
v -1.236000 20.407555 7.629998
v -1.236000 20.447555 7.629998
v -1.236000 20.447555 5.131282
v -1.236000 20.407555 5.131282
f 189 190 181
f 183 184 185
f 188 189 181
f 183 185 186
f 187 188 181
f 182 183 186
f 187 181 182
f 182 186 187
f 191 192 193
f 196 197 198
f 191 193 194
f 196 198 199
f 200 191 194
f 195 196 199
f 200 194 195
f 195 199 200
f 201 202 204
f 204 202 203
f 205 206 208
f 208 206 207
f 209 210 212
f 212 210 211
f 213 214 216
f 216 214 215
f 217 218 220
f 220 218 219
f 221 222 224
f 224 222 223
f 225 226 228
f 228 226 227
f 229 230 232
f 232 230 231
f 233 234 236
f 236 234 235
f 237 238 240
f 240 238 239
o item_92b0f140_1127359
v -1.221000 20.425355 7.615000
v -1.236000 20.410355 7.630000
v -1.236000 20.450355 7.630000
v -1.127000 20.455805 7.521000
v -1.127000 20.470805 7.521000
v -1.126000 20.470805 7.520000
v -1.126000 20.454854 7.520000
v -1.235000 20.449404 7.629000
v -1.235000 20.412769 7.629000
v -1.221707 20.426062 7.615707
v 12.869000 20.449404 7.629000
v 12.760000 20.454854 7.520000
v 12.760000 20.470805 7.520000
v 12.761000 20.470805 7.521000
v 12.761000 20.455805 7.521000
v 12.870000 20.450355 7.630000
v 12.870000 20.410355 7.630000
v 12.855000 20.425355 7.615000
v 12.855707 20.426062 7.615707
v 12.869000 20.412769 7.629000
v -1.127000 20.455805 7.521000
v -1.236000 20.450355 7.630000
v 12.870000 20.450355 7.630000
v 12.761000 20.455805 7.521000
v -1.127000 20.470805 7.521000
v -1.127000 20.455805 7.521000
v 12.761000 20.455805 7.521000
v 12.761000 20.470805 7.521000
v 12.761000 20.470805 7.521000
v 12.760000 20.470805 7.520000
v -1.126000 20.470805 7.520000
v -1.127000 20.470805 7.521000
v -1.126000 20.454854 7.520000
v -1.126000 20.470805 7.520000
v 12.760000 20.470805 7.520000
v 12.760000 20.454854 7.520000
v 12.760000 20.454854 7.520000
v 12.869000 20.449404 7.629000
v -1.235000 20.449404 7.629000
v -1.126000 20.454854 7.520000
v -1.235000 20.412769 7.629000
v -1.235000 20.449404 7.629000
v 12.869000 20.449404 7.629000
v 12.869000 20.412769 7.629000
v 12.869000 20.412769 7.629000
v 12.855707 20.426062 7.615707
v -1.221707 20.426062 7.615707
v -1.235000 20.412769 7.629000
v 12.855707 20.426062 7.615707
v 12.855000 20.425355 7.615000
v -1.221000 20.425355 7.615000
v -1.221707 20.426062 7.615707
v 12.855000 20.425355 7.615000
v 12.870000 20.410355 7.630000
v -1.236000 20.410355 7.630000
v -1.221000 20.425355 7.615000
v 12.870000 20.410355 7.630000
v 12.870000 20.450355 7.630000
v -1.236000 20.450355 7.630000
v -1.236000 20.410355 7.630000
f 249 250 241
f 244 245 246
f 249 241 242
f 244 246 247
f 248 249 242
f 243 244 247
f 248 242 243
f 243 247 248
f 252 253 254
f 257 258 259
f 252 254 255
f 257 259 260
f 251 252 255
f 256 257 260
f 251 255 256
f 256 260 251
f 261 262 264
f 264 262 263
f 265 266 268
f 268 266 267
f 269 270 272
f 272 270 271
f 273 274 276
f 276 274 275
f 277 278 280
f 280 278 279
f 281 282 284
f 284 282 283
f 285 286 288
f 288 286 287
f 289 290 292
f 292 290 291
f 293 294 296
f 296 294 295
f 297 298 300
f 300 298 299
o item_92b0f140_1127449
v 12.869000 20.409969 0.571000
v 12.869000 20.446604 0.571000
v 12.760000 20.452054 0.680000
v 12.760000 20.468005 0.680000
v 12.761000 20.468005 0.679000
v 12.761000 20.453005 0.679000
v 12.870000 20.447555 0.570000
v 12.870000 20.407555 0.570000
v 12.855000 20.422555 0.585000
v 12.855707 20.423262 0.584293
v 12.869000 20.409969 7.629000
v 12.855707 20.423262 7.615707
v 12.855000 20.422555 7.615000
v 12.870000 20.407555 7.630000
v 12.870000 20.447555 7.630000
v 12.761000 20.453005 7.521000
v 12.761000 20.468005 7.521000
v 12.760000 20.468005 7.520000
v 12.760000 20.452054 7.520000
v 12.869000 20.446604 7.629000
v 12.870000 20.447555 0.570000
v 12.761000 20.453005 0.679000
v 12.761000 20.453005 7.521000
v 12.870000 20.447555 7.630000
v 12.761000 20.453005 7.521000
v 12.761000 20.453005 0.679000
v 12.761000 20.468005 0.679000
v 12.761000 20.468005 7.521000
v 12.761000 20.468005 0.679000
v 12.760000 20.468005 0.680000
v 12.760000 20.468005 7.520000
v 12.761000 20.468005 7.521000
v 12.760000 20.468005 7.520000
v 12.760000 20.468005 0.680000
v 12.760000 20.452054 0.680000
v 12.760000 20.452054 7.520000
v 12.760000 20.452054 7.520000
v 12.760000 20.452054 0.680000
v 12.869000 20.446604 0.571000
v 12.869000 20.446604 7.629000
v 12.869000 20.446604 0.571000
v 12.869000 20.409969 0.571000
v 12.869000 20.409969 7.629000
v 12.869000 20.446604 7.629000
v 12.869000 20.409969 0.571000
v 12.855707 20.423262 0.584293
v 12.855707 20.423262 7.615707
v 12.869000 20.409969 7.629000
v 12.855707 20.423262 7.615707
v 12.855707 20.423262 0.584293
v 12.855000 20.422555 0.585000
v 12.855000 20.422555 7.615000
v 12.855000 20.422555 0.585000
v 12.870000 20.407555 0.570000
v 12.870000 20.407555 7.630000
v 12.855000 20.422555 7.615000
v 12.870000 20.407555 0.570000
v 12.870000 20.447555 0.570000
v 12.870000 20.447555 7.630000
v 12.870000 20.407555 7.630000
f 309 310 301
f 303 304 305
f 308 309 301
f 303 305 306
f 307 308 301
f 302 303 306
f 307 301 302
f 302 306 307
f 311 312 313
f 316 317 318
f 311 313 314
f 316 318 319
f 320 311 314
f 315 316 319
f 320 314 315
f 315 319 320
f 321 322 324
f 324 322 323
f 325 326 328
f 328 326 327
f 329 330 332
f 332 330 331
f 333 334 336
f 336 334 335
f 337 338 340
f 340 338 339
f 341 342 344
f 344 342 343
f 345 346 348
f 348 346 347
f 349 350 352
f 352 350 351
f 353 354 356
f 356 354 355
f 357 358 360
f 360 358 359
o item_92b0f140_1127492
v 12.855000 20.422555 0.585000
v 12.870000 20.407555 0.570000
v 12.870000 20.447555 0.570000
v 12.761000 20.453005 0.679000
v 12.761000 20.468005 0.679000
v 12.760000 20.468005 0.680000
v 12.760000 20.452054 0.680000
v 12.869000 20.446604 0.571000
v 12.869000 20.409969 0.571000
v 12.855707 20.423262 0.584293
v -1.960000 20.446604 0.571000
v -1.960000 20.452054 0.680000
v -1.960000 20.468005 0.680000
v -1.960000 20.468005 0.679000
v -1.960000 20.453005 0.679000
v -1.960000 20.447555 0.570000
v -1.960000 20.407555 0.570000
v -1.960000 20.422555 0.585000
v -1.960000 20.423262 0.584293
v -1.960000 20.409969 0.571000
v 12.761000 20.453005 0.679000
v 12.870000 20.447555 0.570000
v -1.960000 20.447555 0.570000
v -1.960000 20.453005 0.679000
v -1.960000 20.453005 0.679000
v -1.960000 20.468005 0.679000
v 12.761000 20.468005 0.679000
v 12.761000 20.453005 0.679000
v 12.760000 20.468005 0.680000
v 12.761000 20.468005 0.679000
v -1.960000 20.468005 0.679000
v -1.960000 20.468005 0.680000
v -1.960000 20.468005 0.680000
v -1.960000 20.452054 0.680000
v 12.760000 20.452054 0.680000
v 12.760000 20.468005 0.680000
v -1.960000 20.452054 0.680000
v -1.960000 20.446604 0.571000
v 12.869000 20.446604 0.571000
v 12.760000 20.452054 0.680000
v -1.960000 20.446604 0.571000
v -1.960000 20.409969 0.571000
v 12.869000 20.409969 0.571000
v 12.869000 20.446604 0.571000
v 12.855707 20.423262 0.584293
v 12.869000 20.409969 0.571000
v -1.960000 20.409969 0.571000
v -1.960000 20.423262 0.584293
v 12.855000 20.422555 0.585000
v 12.855707 20.423262 0.584293
v -1.960000 20.423262 0.584293
v -1.960000 20.422555 0.585000
v -1.960000 20.422555 0.585000
v -1.960000 20.407555 0.570000
v 12.870000 20.407555 0.570000
v 12.855000 20.422555 0.585000
v -1.960000 20.407555 0.570000
v -1.960000 20.447555 0.570000
v 12.870000 20.447555 0.570000
v 12.870000 20.407555 0.570000
f 369 370 361
f 364 365 366
f 369 361 362
f 364 366 367
f 368 369 362
f 363 364 367
f 368 362 363
f 363 367 368
f 372 373 374
f 377 378 379
f 372 374 375
f 377 379 380
f 371 372 375
f 376 377 380
f 371 375 376
f 376 380 371
f 381 382 384
f 384 382 383
f 385 386 388
f 388 386 387
f 389 390 392
f 392 390 391
f 393 394 396
f 396 394 395
f 397 398 400
f 400 398 399
f 401 402 404
f 404 402 403
f 405 406 408
f 408 406 407
f 409 410 412
f 412 410 411
f 413 414 416
f 416 414 415
f 417 418 420
f 420 418 419
o item_92b0f140_1136280
v 9.449000 20.409969 4.681558
v 9.449000 20.446604 4.681558
v 9.558000 20.452054 4.790558
v 9.558000 20.468005 4.790558
v 9.557000 20.468005 4.789558
v 9.557000 20.453005 4.789558
v 9.448000 20.447555 4.680558
v 9.448000 20.407555 4.680558
v 9.463000 20.422555 4.695558
v 9.462293 20.423262 4.694851
v 9.449000 20.409969 0.892002
v 9.462293 20.423262 0.892002
v 9.463000 20.422555 0.892002
v 9.448000 20.407555 0.892002
v 9.448000 20.447555 0.892002
v 9.557000 20.453005 0.892002
v 9.557000 20.468005 0.892002
v 9.558000 20.468005 0.892002
v 9.558000 20.452054 0.892002
v 9.449000 20.446604 0.892002
v 9.448000 20.447555 4.680558
v 9.557000 20.453005 4.789558
v 9.557000 20.453005 0.892002
v 9.448000 20.447555 0.892002
v 9.557000 20.453005 4.789558
v 9.557000 20.468005 4.789558
v 9.557000 20.468005 0.892002
v 9.557000 20.453005 0.892002
v 9.557000 20.468005 4.789558
v 9.558000 20.468005 4.790558
v 9.558000 20.468005 0.892002
v 9.557000 20.468005 0.892002
v 9.558000 20.468005 0.892002
v 9.558000 20.468005 4.790558
v 9.558000 20.452054 4.790558
v 9.558000 20.452054 0.892002
v 9.558000 20.452054 0.892002
v 9.558000 20.452054 4.790558
v 9.449000 20.446604 4.681558
v 9.449000 20.446604 0.892002
v 9.449000 20.446604 4.681558
v 9.449000 20.409969 4.681558
v 9.449000 20.409969 0.892002
v 9.449000 20.446604 0.892002
v 9.449000 20.409969 4.681558
v 9.462293 20.423262 4.694851
v 9.462293 20.423262 0.892002
v 9.449000 20.409969 0.892002
v 9.462293 20.423262 4.694851
v 9.463000 20.422555 4.695558
v 9.463000 20.422555 0.892002
v 9.462293 20.423262 0.892002
v 9.463000 20.422555 0.892002
v 9.463000 20.422555 4.695558
v 9.448000 20.407555 4.680558
v 9.448000 20.407555 0.892002
v 9.448000 20.407555 4.680558
v 9.448000 20.447555 4.680558
v 9.448000 20.447555 0.892002
v 9.448000 20.407555 0.892002
f 429 430 421
f 423 424 425
f 428 429 421
f 423 425 426
f 427 428 421
f 422 423 426
f 427 421 422
f 422 426 427
f 431 432 433
f 436 437 438
f 431 433 434
f 436 438 439
f 440 431 434
f 435 436 439
f 440 434 435
f 435 439 440
f 441 442 444
f 444 442 443
f 445 446 448
f 448 446 447
f 449 450 452
f 452 450 451
f 453 454 456
f 456 454 455
f 457 458 460
f 460 458 459
f 461 462 464
f 464 462 463
f 465 466 468
f 468 466 467
f 469 470 472
f 472 470 471
f 473 474 476
f 476 474 475
f 477 478 480
f 480 478 479
o item_92b0f140_1136323
v 9.463000 20.422555 4.695550
v 9.448000 20.407555 4.680550
v 9.448000 20.447555 4.680550
v 9.557000 20.453005 4.789550
v 9.557000 20.468005 4.789550
v 9.558000 20.468005 4.790550
v 9.558000 20.452054 4.790550
v 9.449000 20.446604 4.681550
v 9.449000 20.409969 4.681550
v 9.462293 20.423262 4.694843
v 7.581000 20.446604 4.681550
v 7.690000 20.452054 4.790550
v 7.690000 20.468005 4.790550
v 7.689000 20.468005 4.789550
v 7.689000 20.453005 4.789550
v 7.580000 20.447555 4.680550
v 7.580000 20.407555 4.680550
v 7.595000 20.422555 4.695550
v 7.594293 20.423262 4.694843
v 7.581000 20.409969 4.681550
v 7.580000 20.447555 4.680550
v 7.689000 20.453005 4.789550
v 9.557000 20.453005 4.789550
v 9.448000 20.447555 4.680550
v 7.689000 20.453005 4.789550
v 7.689000 20.468005 4.789550
v 9.557000 20.468005 4.789550
v 9.557000 20.453005 4.789550
v 7.689000 20.468005 4.789550
v 7.690000 20.468005 4.790550
v 9.558000 20.468005 4.790550
v 9.557000 20.468005 4.789550
v 9.558000 20.452054 4.790550
v 9.558000 20.468005 4.790550
v 7.690000 20.468005 4.790550
v 7.690000 20.452054 4.790550
v 9.449000 20.446604 4.681550
v 9.558000 20.452054 4.790550
v 7.690000 20.452054 4.790550
v 7.581000 20.446604 4.681550
v 9.449000 20.409969 4.681550
v 9.449000 20.446604 4.681550
v 7.581000 20.446604 4.681550
v 7.581000 20.409969 4.681550
v 7.581000 20.409969 4.681550
v 7.594293 20.423262 4.694843
v 9.462293 20.423262 4.694843
v 9.449000 20.409969 4.681550
v 7.594293 20.423262 4.694843
v 7.595000 20.422555 4.695550
v 9.463000 20.422555 4.695550
v 9.462293 20.423262 4.694843
v 9.448000 20.407555 4.680550
v 9.463000 20.422555 4.695550
v 7.595000 20.422555 4.695550
v 7.580000 20.407555 4.680550
v 9.448000 20.447555 4.680550
v 9.448000 20.407555 4.680550
v 7.580000 20.407555 4.680550
v 7.580000 20.447555 4.680550
f 489 490 481
f 484 485 486
f 489 481 482
f 484 486 487
f 488 489 482
f 483 484 487
f 488 482 483
f 483 487 488
f 492 493 494
f 497 498 499
f 492 494 495
f 497 499 500
f 491 492 495
f 496 497 500
f 491 495 496
f 496 500 491
f 501 502 504
f 504 502 503
f 505 506 508
f 508 506 507
f 509 510 512
f 512 510 511
f 513 514 516
f 516 514 515
f 517 518 520
f 520 518 519
f 521 522 524
f 524 522 523
f 525 526 528
f 528 526 527
f 529 530 532
f 532 530 531
f 533 534 536
f 536 534 535
f 537 538 540
f 540 538 539
o item_92b0f140_1136366
v 7.581000 20.409969 5.116001
v 7.581000 20.446604 5.116001
v 7.690000 20.452054 5.225001
v 7.690000 20.468005 5.225001
v 7.689000 20.468005 5.224001
v 7.689000 20.453005 5.224001
v 7.580000 20.447555 5.115001
v 7.580000 20.407555 5.115001
v 7.595000 20.422555 5.130001
v 7.594293 20.423262 5.129294
v 7.581000 20.409969 4.681559
v 7.594293 20.423262 4.694851
v 7.595000 20.422555 4.695559
v 7.580000 20.407555 4.680559
v 7.580000 20.447555 4.680559
v 7.689000 20.453005 4.789559
v 7.689000 20.468005 4.789559
v 7.690000 20.468005 4.790559
v 7.690000 20.452054 4.790559
v 7.581000 20.446604 4.681559
v 7.580000 20.447555 5.115001
v 7.689000 20.453005 5.224001
v 7.689000 20.453005 4.789559
v 7.580000 20.447555 4.680559
v 7.689000 20.453005 4.789559
v 7.689000 20.453005 5.224001
v 7.689000 20.468005 5.224001
v 7.689000 20.468005 4.789559
v 7.689000 20.468005 5.224001
v 7.690000 20.468005 5.225001
v 7.690000 20.468005 4.790559
v 7.689000 20.468005 4.789559
v 7.690000 20.468005 5.225001
v 7.690000 20.452054 5.225001
v 7.690000 20.452054 4.790559
v 7.690000 20.468005 4.790559
v 7.690000 20.452054 4.790559
v 7.690000 20.452054 5.225001
v 7.581000 20.446604 5.116001
v 7.581000 20.446604 4.681559
v 7.581000 20.446604 5.116001
v 7.581000 20.409969 5.116001
v 7.581000 20.409969 4.681559
v 7.581000 20.446604 4.681559
v 7.581000 20.409969 5.116001
v 7.594293 20.423262 5.129294
v 7.594293 20.423262 4.694851
v 7.581000 20.409969 4.681559
v 7.594293 20.423262 5.129294
v 7.595000 20.422555 5.130001
v 7.595000 20.422555 4.695559
v 7.594293 20.423262 4.694851
v 7.595000 20.422555 4.695559
v 7.595000 20.422555 5.130001
v 7.580000 20.407555 5.115001
v 7.580000 20.407555 4.680559
v 7.580000 20.407555 4.680559
v 7.580000 20.407555 5.115001
v 7.580000 20.447555 5.115001
v 7.580000 20.447555 4.680559
f 549 550 541
f 543 544 545
f 548 549 541
f 543 545 546
f 547 548 541
f 542 543 546
f 547 541 542
f 542 546 547
f 551 552 553
f 556 557 558
f 551 553 554
f 556 558 559
f 560 551 554
f 555 556 559
f 560 554 555
f 555 559 560
f 561 562 564
f 564 562 563
f 565 566 568
f 568 566 567
f 569 570 572
f 572 570 571
f 573 574 576
f 576 574 575
f 577 578 580
f 580 578 579
f 581 582 584
f 584 582 583
f 585 586 588
f 588 586 587
f 589 590 592
f 592 590 591
f 593 594 596
f 596 594 595
f 597 598 600
f 600 598 599
