# DIMKO.app — selection export
# Generated: 2026-07-31T07:58:59.279Z
o item_958c4ea6_1196885
v -6.023026 20.444004 24.730000
v -6.021526 20.394004 24.680000
v -6.021526 20.394004 24.380000
v -6.021496 20.393004 24.380000
v -6.021496 20.393004 24.680414
v -6.022954 20.441590 24.729000
v -6.018430 20.290796 24.729000
v -6.019015 20.310302 24.709494
v -6.018994 20.309595 24.708787
v -6.018358 20.288382 24.730000
v -3.218554 20.372376 24.730000
v -3.219190 20.393589 24.708787
v -3.219211 20.394296 24.709494
v -3.218626 20.374790 24.729000
v -3.223150 20.525584 24.729000
v -3.221692 20.476998 24.680414
v -3.221692 20.476998 24.380000
v -3.221722 20.477998 24.380000
v -3.221722 20.477998 24.680000
v -3.223222 20.527998 24.730000
v -3.221692 20.476998 24.680414
v -3.223150 20.525584 24.729000
v -6.022954 20.441590 24.729000
v -6.021496 20.393004 24.680414
v -3.221692 20.476998 24.380000
v -3.221692 20.476998 24.680414
v -6.021496 20.393004 24.680414
v -6.021496 20.393004 24.380000
v -3.221722 20.477998 24.380000
v -3.221692 20.476998 24.380000
v -6.021496 20.393004 24.380000
v -6.021526 20.394004 24.380000
v -3.221722 20.477998 24.680000
v -3.221722 20.477998 24.380000
v -6.021526 20.394004 24.380000
v -6.021526 20.394004 24.680000
v -3.223222 20.527998 24.730000
v -3.221722 20.477998 24.680000
v -6.021526 20.394004 24.680000
v -6.023026 20.444004 24.730000
v -3.218554 20.372376 24.730000
v -3.223222 20.527998 24.730000
v -6.023026 20.444004 24.730000
v -6.018358 20.288382 24.730000
v -3.219190 20.393589 24.708787
v -3.218554 20.372376 24.730000
v -6.018358 20.288382 24.730000
v -6.018994 20.309595 24.708787
v -3.219211 20.394296 24.709494
v -3.219190 20.393589 24.708787
v -6.018994 20.309595 24.708787
v -6.019015 20.310302 24.709494
v -3.218626 20.374790 24.729000
v -3.219211 20.394296 24.709494
v -6.019015 20.310302 24.709494
v -6.018430 20.290796 24.729000
v -3.223150 20.525584 24.729000
v -3.218626 20.374790 24.729000
v -6.018430 20.290796 24.729000
v -6.022954 20.441590 24.729000
f 2 3 4
f 7 8 9
f 2 4 5
f 7 9 10
f 1 2 5
f 6 7 10
f 1 5 6
f 6 10 1
f 11 12 13
f 16 17 18
f 11 13 14
f 16 18 19
f 20 11 14
f 15 16 19
f 20 14 15
f 15 19 20
f 21 22 24
f 24 22 23
f 25 26 28
f 28 26 27
f 29 30 32
f 32 30 31
f 33 34 36
f 36 34 35
f 37 38 40
f 40 38 39
f 41 42 44
f 44 42 43
f 45 46 48
f 48 46 47
f 49 50 52
f 52 50 51
f 53 54 56
f 56 54 55
f 57 58 60
f 60 58 59
o item_958c4ea6_1196978
v -3.221169 20.529516 23.150000
v -3.219669 20.479516 23.200000
v -3.219669 20.479516 23.500000
v -3.219639 20.478516 23.500000
v -3.219639 20.478516 23.199586
v -3.221097 20.527102 23.151000
v -3.216573 20.376308 23.151000
v -3.217158 20.395814 23.170506
v -3.217137 20.395107 23.171213
v -3.216501 20.373894 23.150000
v -4.236151 20.343304 23.150000
v -4.236787 20.364517 23.171213
v -4.236808 20.365224 23.170506
v -4.236223 20.345718 23.151000
v -4.240747 20.496512 23.151000
v -4.239289 20.447926 23.199586
v -4.239289 20.447926 23.500000
v -4.239319 20.448926 23.500000
v -4.239319 20.448926 23.200000
v -4.240819 20.498926 23.150000
v -4.239289 20.447926 23.199586
v -4.240747 20.496512 23.151000
v -3.221097 20.527102 23.151000
v -3.219639 20.478516 23.199586
v -4.239289 20.447926 23.500000
v -4.239289 20.447926 23.199586
v -3.219639 20.478516 23.199586
v -3.219639 20.478516 23.500000
v -4.239319 20.448926 23.500000
v -4.239289 20.447926 23.500000
v -3.219639 20.478516 23.500000
v -3.219669 20.479516 23.500000
v -4.239319 20.448926 23.200000
v -4.239319 20.448926 23.500000
v -3.219669 20.479516 23.500000
v -3.219669 20.479516 23.200000
v -4.240819 20.498926 23.150000
v -4.239319 20.448926 23.200000
v -3.219669 20.479516 23.200000
v -3.221169 20.529516 23.150000
v -4.236151 20.343304 23.150000
v -4.240819 20.498926 23.150000
v -3.221169 20.529516 23.150000
v -3.216501 20.373894 23.150000
v -4.236787 20.364517 23.171213
v -4.236151 20.343304 23.150000
v -3.216501 20.373894 23.150000
v -3.217137 20.395107 23.171213
v -4.236808 20.365224 23.170506
v -4.236787 20.364517 23.171213
v -3.217137 20.395107 23.171213
v -3.217158 20.395814 23.170506
v -4.236223 20.345718 23.151000
v -4.236808 20.365224 23.170506
v -3.217158 20.395814 23.170506
v -3.216573 20.376308 23.151000
v -4.240747 20.496512 23.151000
v -4.236223 20.345718 23.151000
v -3.216573 20.376308 23.151000
v -3.221097 20.527102 23.151000
f 62 63 64
f 67 68 69
f 62 64 65
f 67 69 70
f 61 62 65
f 66 67 70
f 61 65 66
f 66 70 61
f 71 72 73
f 76 77 78
f 71 73 74
f 76 78 79
f 80 71 74
f 75 76 79
f 80 74 75
f 75 79 80
f 81 82 84
f 84 82 83
f 85 86 88
f 88 86 87
f 89 90 92
f 92 90 91
f 93 94 96
f 96 94 95
f 97 98 100
f 100 98 99
f 101 102 104
f 104 102 103
f 105 106 108
f 108 106 107
f 109 110 112
f 112 110 111
f 113 114 116
f 116 114 115
f 117 118 120
f 120 118 119
o item_958c4ea6_1196789
v -4.190558 20.500432 20.841270
v -4.189058 20.450432 20.891270
v -4.189058 20.450432 21.191270
v -4.189028 20.449432 21.191270
v -4.189028 20.449432 20.890856
v -4.190486 20.498018 20.842270
v -4.185962 20.347224 20.842270
v -4.186547 20.366730 20.861776
v -4.186526 20.366023 20.862483
v -4.185890 20.344810 20.841270
v -6.015982 20.289908 20.841270
v -6.016618 20.311121 20.862483
v -6.016639 20.311828 20.861776
v -6.016054 20.292322 20.842270
v -6.020578 20.443116 20.842270
v -6.019120 20.394530 20.890856
v -6.019120 20.394530 21.191270
v -6.019150 20.395530 21.191270
v -6.019150 20.395530 20.891270
v -6.020650 20.445530 20.841270
v -6.019120 20.394530 20.890856
v -6.020578 20.443116 20.842270
v -4.190486 20.498018 20.842270
v -4.189028 20.449432 20.890856
v -6.019120 20.394530 21.191270
v -6.019120 20.394530 20.890856
v -4.189028 20.449432 20.890856
v -4.189028 20.449432 21.191270
v -6.019150 20.395530 21.191270
v -6.019120 20.394530 21.191270
v -4.189028 20.449432 21.191270
v -4.189058 20.450432 21.191270
v -6.019150 20.395530 20.891270
v -6.019150 20.395530 21.191270
v -4.189058 20.450432 21.191270
v -4.189058 20.450432 20.891270
v -6.020650 20.445530 20.841270
v -6.019150 20.395530 20.891270
v -4.189058 20.450432 20.891270
v -4.190558 20.500432 20.841270
v -6.015982 20.289908 20.841270
v -6.020650 20.445530 20.841270
v -4.190558 20.500432 20.841270
v -4.185890 20.344810 20.841270
v -6.016618 20.311121 20.862483
v -6.015982 20.289908 20.841270
v -4.185890 20.344810 20.841270
v -4.186526 20.366023 20.862483
v -6.016639 20.311828 20.861776
v -6.016618 20.311121 20.862483
v -4.186526 20.366023 20.862483
v -4.186547 20.366730 20.861776
v -6.016054 20.292322 20.842270
v -6.016639 20.311828 20.861776
v -4.186547 20.366730 20.861776
v -4.185962 20.347224 20.842270
v -6.020578 20.443116 20.842270
v -6.016054 20.292322 20.842270
v -4.185962 20.347224 20.842270
v -4.190486 20.498018 20.842270
f 122 123 124
f 127 128 129
f 122 124 125
f 127 129 130
f 121 122 125
f 126 127 130
f 121 125 126
f 126 130 121
f 131 132 133
f 136 137 138
f 131 133 134
f 136 138 139
f 140 131 134
f 135 136 139
f 140 134 135
f 135 139 140
f 141 142 144
f 144 142 143
f 145 146 148
f 148 146 147
f 149 150 152
f 152 150 151
f 153 154 156
f 156 154 155
f 157 158 160
f 160 158 159
f 161 162 164
f 164 162 163
f 165 166 168
f 168 166 167
f 169 170 172
f 172 170 171
f 173 174 176
f 176 174 175
f 177 178 180
f 180 178 179
o item_958c4ea6_1196526
v -9.121178 20.706049 15.759000
v -9.122178 20.656049 15.709000
v -9.122178 20.656049 15.409000
v -9.122198 20.655049 15.409000
v -9.122198 20.655049 15.709414
v -9.121226 20.703635 15.758000
v -9.124242 20.552841 15.758000
v -9.123852 20.572347 15.738494
v -9.123866 20.571640 15.737787
v -9.124290 20.550427 15.759000
v -7.378502 20.515511 15.759000
v -7.378078 20.536724 15.737787
v -7.378064 20.537431 15.738494
v -7.378454 20.517925 15.758000
v -7.375438 20.668719 15.758000
v -7.376410 20.620133 15.709414
v -7.376410 20.620133 15.409000
v -7.376390 20.621133 15.409000
v -7.376390 20.621133 15.709000
v -7.375390 20.671133 15.759000
v -7.376410 20.620133 15.709414
v -7.375438 20.668719 15.758000
v -9.121226 20.703635 15.758000
v -9.122198 20.655049 15.709414
v -7.376410 20.620133 15.409000
v -7.376410 20.620133 15.709414
v -9.122198 20.655049 15.709414
v -9.122198 20.655049 15.409000
v -7.376390 20.621133 15.409000
v -7.376410 20.620133 15.409000
v -9.122198 20.655049 15.409000
v -9.122178 20.656049 15.409000
v -7.376390 20.621133 15.709000
v -7.376390 20.621133 15.409000
v -9.122178 20.656049 15.409000
v -9.122178 20.656049 15.709000
v -7.375390 20.671133 15.759000
v -7.376390 20.621133 15.709000
v -9.122178 20.656049 15.709000
v -9.121178 20.706049 15.759000
v -7.378502 20.515511 15.759000
v -7.375390 20.671133 15.759000
v -9.121178 20.706049 15.759000
v -9.124290 20.550427 15.759000
v -7.378078 20.536724 15.737787
v -7.378502 20.515511 15.759000
v -9.124290 20.550427 15.759000
v -9.123866 20.571640 15.737787
v -7.378064 20.537431 15.738494
v -7.378078 20.536724 15.737787
v -9.123866 20.571640 15.737787
v -9.123852 20.572347 15.738494
v -7.378454 20.517925 15.758000
v -7.378064 20.537431 15.738494
v -9.123852 20.572347 15.738494
v -9.124242 20.552841 15.758000
v -7.375438 20.668719 15.758000
v -7.378454 20.517925 15.758000
v -9.124242 20.552841 15.758000
v -9.121226 20.703635 15.758000
f 182 183 184
f 187 188 189
f 182 184 185
f 187 189 190
f 181 182 185
f 186 187 190
f 181 185 186
f 186 190 181
f 191 192 193
f 196 197 198
f 191 193 194
f 196 198 199
f 200 191 194
f 195 196 199
f 200 194 195
f 195 199 200
f 201 202 204
f 204 202 203
f 205 206 208
f 208 206 207
f 209 210 212
f 212 210 211
f 213 214 216
f 216 214 215
f 217 218 220
f 220 218 219
f 221 222 224
f 224 222 223
f 225 226 228
f 228 226 227
f 229 230 232
f 232 230 231
f 233 234 236
f 236 234 235
f 237 238 240
f 240 238 239
o item_958c4ea6_1196657
v -7.370065 20.669566 11.050000
v -7.371065 20.619566 11.100000
v -7.371065 20.619566 11.400000
v -7.371085 20.618566 11.400000
v -7.371085 20.618566 11.099586
v -7.370113 20.667152 11.051000
v -7.373129 20.516358 11.051000
v -7.372739 20.535864 11.070506
v -7.372753 20.535157 11.071213
v -7.373177 20.513944 11.050000
v -9.120675 20.548894 11.050000
v -9.120251 20.570107 11.071213
v -9.120237 20.570814 11.070506
v -9.120627 20.551308 11.051000
v -9.117611 20.702102 11.051000
v -9.118583 20.653516 11.099586
v -9.118583 20.653516 11.400000
v -9.118563 20.654516 11.400000
v -9.118563 20.654516 11.100000
v -9.117563 20.704516 11.050000
v -9.118583 20.653516 11.099586
v -9.117611 20.702102 11.051000
v -7.370113 20.667152 11.051000
v -7.371085 20.618566 11.099586
v -9.118583 20.653516 11.400000
v -9.118583 20.653516 11.099586
v -7.371085 20.618566 11.099586
v -7.371085 20.618566 11.400000
v -9.118563 20.654516 11.400000
v -9.118583 20.653516 11.400000
v -7.371085 20.618566 11.400000
v -7.371065 20.619566 11.400000
v -9.118563 20.654516 11.100000
v -9.118563 20.654516 11.400000
v -7.371065 20.619566 11.400000
v -7.371065 20.619566 11.100000
v -9.117563 20.704516 11.050000
v -9.118563 20.654516 11.100000
v -7.371065 20.619566 11.100000
v -7.370065 20.669566 11.050000
v -9.120675 20.548894 11.050000
v -9.117563 20.704516 11.050000
v -7.370065 20.669566 11.050000
v -7.373177 20.513944 11.050000
v -9.120251 20.570107 11.071213
v -9.120675 20.548894 11.050000
v -7.373177 20.513944 11.050000
v -7.372753 20.535157 11.071213
v -9.120237 20.570814 11.070506
v -9.120251 20.570107 11.071213
v -7.372753 20.535157 11.071213
v -7.372739 20.535864 11.070506
v -9.120627 20.551308 11.051000
v -9.120237 20.570814 11.070506
v -7.372739 20.535864 11.070506
v -7.373129 20.516358 11.051000
v -9.117611 20.702102 11.051000
v -9.120627 20.551308 11.051000
v -7.373129 20.516358 11.051000
v -7.370113 20.667152 11.051000
f 242 243 244
f 247 248 249
f 242 244 245
f 247 249 250
f 241 242 245
f 246 247 250
f 241 245 246
f 246 250 241
f 251 252 253
f 256 257 258
f 251 253 254
f 256 258 259
f 260 251 254
f 255 256 259
f 260 254 255
f 255 259 260
f 261 262 264
f 264 262 263
f 265 266 268
f 268 266 267
f 269 270 272
f 272 270 271
f 273 274 276
f 276 274 275
f 277 278 280
f 280 278 279
f 281 282 284
f 284 282 283
f 285 286 288
f 288 286 287
f 289 290 292
f 292 290 291
f 293 294 296
f 296 294 295
f 297 298 300
f 300 298 299
o item_958c4ea6_1145317
v -5.474886 14.620001 -11.801526
v -5.517288 14.570001 -11.775030
v -5.771703 14.570001 -11.616054
v -5.771703 14.569001 -11.616054
v -5.516937 14.569001 -11.775250
v -5.475734 14.617587 -11.800996
v -5.475734 14.466793 -11.800996
v -5.492276 14.486299 -11.790660
v -5.492876 14.485592 -11.790285
v -5.474886 14.464379 -11.801526
v -6.363137 14.464379 -13.223026
v -6.381126 14.485592 -13.211785
v -6.380527 14.486299 -13.212159
v -6.363985 14.466793 -13.222496
v -6.363985 14.617587 -13.222496
v -6.405188 14.569001 -13.196749
v -6.659954 14.569001 -13.037554
v -6.659954 14.570001 -13.037554
v -6.405539 14.570001 -13.196530
v -6.363137 14.620001 -13.223026
v -6.405188 14.569001 -13.196749
v -6.363985 14.617587 -13.222496
v -5.475734 14.617587 -11.800996
v -5.516937 14.569001 -11.775250
v -6.659954 14.569001 -13.037554
v -6.405188 14.569001 -13.196749
v -5.516937 14.569001 -11.775250
v -5.771703 14.569001 -11.616054
v -6.659954 14.570001 -13.037554
v -6.659954 14.569001 -13.037554
v -5.771703 14.569001 -11.616054
v -5.771703 14.570001 -11.616054
v -6.405539 14.570001 -13.196530
v -6.659954 14.570001 -13.037554
v -5.771703 14.570001 -11.616054
v -5.517288 14.570001 -11.775030
v -6.363137 14.620001 -13.223026
v -6.405539 14.570001 -13.196530
v -5.517288 14.570001 -11.775030
v -5.474886 14.620001 -11.801526
v -6.363137 14.464379 -13.223026
v -6.363137 14.620001 -13.223026
v -5.474886 14.620001 -11.801526
v -5.474886 14.464379 -11.801526
v -6.381126 14.485592 -13.211785
v -6.363137 14.464379 -13.223026
v -5.474886 14.464379 -11.801526
v -5.492876 14.485592 -11.790285
v -6.380527 14.486299 -13.212159
v -6.381126 14.485592 -13.211785
v -5.492876 14.485592 -11.790285
v -5.492276 14.486299 -11.790660
v -6.363985 14.466793 -13.222496
v -6.380527 14.486299 -13.212159
v -5.492276 14.486299 -11.790660
v -5.475734 14.466793 -11.800996
v -6.363985 14.617587 -13.222496
v -6.363985 14.466793 -13.222496
v -5.475734 14.466793 -11.800996
v -5.475734 14.617587 -11.800996
f 302 303 304
f 307 308 309
f 302 304 305
f 307 309 310
f 301 302 305
f 306 307 310
f 301 305 306
f 306 310 301
f 311 312 313
f 316 317 318
f 311 313 314
f 316 318 319
f 320 311 314
f 315 316 319
f 320 314 315
f 315 319 320
f 321 322 324
f 324 322 323
f 325 326 328
f 328 326 327
f 329 330 332
f 332 330 331
f 333 334 336
f 336 334 335
f 337 338 340
f 340 338 339
f 341 342 344
f 344 342 343
f 345 346 348
f 348 346 347
f 349 350 352
f 352 350 351
f 353 354 356
f 356 354 355
f 357 358 360
f 360 358 359
o item_958c4ea6_1144952
v -31.664727 15.220001 -27.693913
v -31.711085 15.170001 -27.675182
v -31.989236 15.170001 -27.562793
v -31.989236 15.169001 -27.562793
v -31.710701 15.169001 -27.675337
v -31.665654 15.217587 -27.693538
v -31.665654 15.066793 -27.693538
v -31.683739 15.086299 -27.686231
v -31.684395 15.085592 -27.685966
v -31.664727 15.064379 -27.693913
v -32.253784 15.064379 -29.151767
v -32.273452 15.085592 -29.143820
v -32.272796 15.086299 -29.144085
v -32.254711 15.066793 -29.151393
v -32.254711 15.217587 -29.151393
v -32.299758 15.169001 -29.133191
v -32.578293 15.169001 -29.020647
v -32.578293 15.170001 -29.020647
v -32.300142 15.170001 -29.133036
v -32.253784 15.220001 -29.151767
v -32.299758 15.169001 -29.133191
v -32.254711 15.217587 -29.151393
v -31.665654 15.217587 -27.693538
v -31.710701 15.169001 -27.675337
v -32.578293 15.169001 -29.020647
v -32.299758 15.169001 -29.133191
v -31.710701 15.169001 -27.675337
v -31.989236 15.169001 -27.562793
v -32.578293 15.170001 -29.020647
v -32.578293 15.169001 -29.020647
v -31.989236 15.169001 -27.562793
v -31.989236 15.170001 -27.562793
v -32.300142 15.170001 -29.133036
v -32.578293 15.170001 -29.020647
v -31.989236 15.170001 -27.562793
v -31.711085 15.170001 -27.675182
v -32.253784 15.220001 -29.151767
v -32.300142 15.170001 -29.133036
v -31.711085 15.170001 -27.675182
v -31.664727 15.220001 -27.693913
v -32.253784 15.064379 -29.151767
v -32.253784 15.220001 -29.151767
v -31.664727 15.220001 -27.693913
v -31.664727 15.064379 -27.693913
v -32.273452 15.085592 -29.143820
v -32.253784 15.064379 -29.151767
v -31.664727 15.064379 -27.693913
v -31.684395 15.085592 -27.685966
v -32.272796 15.086299 -29.144085
v -32.273452 15.085592 -29.143820
v -31.684395 15.085592 -27.685966
v -31.683739 15.086299 -27.686231
v -32.254711 15.066793 -29.151393
v -32.272796 15.086299 -29.144085
v -31.683739 15.086299 -27.686231
v -31.665654 15.066793 -27.693538
v -32.254711 15.217587 -29.151393
v -32.254711 15.066793 -29.151393
v -31.665654 15.066793 -27.693538
v -31.665654 15.217587 -27.693538
f 362 363 364
f 367 368 369
f 362 364 365
f 367 369 370
f 361 362 365
f 366 367 370
f 361 365 366
f 366 370 361
f 371 372 373
f 376 377 378
f 371 373 374
f 376 378 379
f 380 371 374
f 375 376 379
f 380 374 375
f 375 379 380
f 381 382 384
f 384 382 383
f 385 386 388
f 388 386 387
f 389 390 392
f 392 390 391
f 393 394 396
f 396 394 395
f 397 398 400
f 400 398 399
f 401 402 404
f 404 402 403
f 405 406 408
f 408 406 407
f 409 410 412
f 412 410 411
f 413 414 416
f 416 414 415
f 417 418 420
f 420 418 419
o item_958c4ea6_1145004
v -37.627626 15.020001 -24.526406
v -37.673985 14.970001 -24.507674
v -37.952136 14.970001 -24.395285
v -37.952136 14.969001 -24.395285
v -37.673601 14.969001 -24.507829
v -37.628554 15.017587 -24.526031
v -37.628554 14.866793 -24.526031
v -37.646639 14.886299 -24.518723
v -37.647295 14.885592 -24.518459
v -37.627626 14.864379 -24.526406
v -37.833344 14.864379 -25.035535
v -37.853012 14.885592 -25.027588
v -37.852357 14.886299 -25.027853
v -37.834271 14.866793 -25.035160
v -37.834271 15.017587 -25.035160
v -37.879319 14.969001 -25.016959
v -38.157854 14.969001 -24.904414
v -38.157854 14.970001 -24.904414
v -37.879703 14.970001 -25.016803
v -37.833344 15.020001 -25.035535
v -37.879319 14.969001 -25.016959
v -37.834271 15.017587 -25.035160
v -37.628554 15.017587 -24.526031
v -37.673601 14.969001 -24.507829
v -38.157854 14.969001 -24.904414
v -37.879319 14.969001 -25.016959
v -37.673601 14.969001 -24.507829
v -37.952136 14.969001 -24.395285
v -38.157854 14.970001 -24.904414
v -38.157854 14.969001 -24.904414
v -37.952136 14.969001 -24.395285
v -37.952136 14.970001 -24.395285
v -37.879703 14.970001 -25.016803
v -38.157854 14.970001 -24.904414
v -37.952136 14.970001 -24.395285
v -37.673985 14.970001 -24.507674
v -37.833344 15.020001 -25.035535
v -37.879703 14.970001 -25.016803
v -37.673985 14.970001 -24.507674
v -37.627626 15.020001 -24.526406
v -37.833344 14.864379 -25.035535
v -37.833344 15.020001 -25.035535
v -37.627626 15.020001 -24.526406
v -37.627626 14.864379 -24.526406
v -37.853012 14.885592 -25.027588
v -37.833344 14.864379 -25.035535
v -37.627626 14.864379 -24.526406
v -37.647295 14.885592 -24.518459
v -37.852357 14.886299 -25.027853
v -37.853012 14.885592 -25.027588
v -37.647295 14.885592 -24.518459
v -37.646639 14.886299 -24.518723
v -37.834271 14.866793 -25.035160
v -37.852357 14.886299 -25.027853
v -37.646639 14.886299 -24.518723
v -37.628554 14.866793 -24.526031
v -37.834271 15.017587 -25.035160
v -37.834271 14.866793 -25.035160
v -37.628554 14.866793 -24.526031
v -37.628554 15.017587 -24.526031
f 422 423 424
f 427 428 429
f 422 424 425
f 427 429 430
f 421 422 425
f 426 427 430
f 421 425 426
f 426 430 421
f 431 432 433
f 436 437 438
f 431 433 434
f 436 438 439
f 440 431 434
f 435 436 439
f 440 434 435
f 435 439 440
f 441 442 444
f 444 442 443
f 445 446 448
f 448 446 447
f 449 450 452
f 452 450 451
f 453 454 456
f 456 454 455
f 457 458 460
f 460 458 459
f 461 462 464
f 464 462 463
f 465 466 468
f 468 466 467
f 469 470 472
f 472 470 471
f 473 474 476
f 476 474 475
f 477 478 480
f 480 478 479
o item_958c4ea6_1145056
v -39.047564 15.020001 -24.544954
v -39.001205 14.970001 -24.563686
v -38.723054 14.970001 -24.676075
v -38.723054 14.969001 -24.676075
v -39.001589 14.969001 -24.563531
v -39.046636 15.017587 -24.545329
v -39.046636 14.866793 -24.545329
v -39.028551 14.886299 -24.552637
v -39.027895 14.885592 -24.552901
v -39.047564 14.864379 -24.544954
v -38.841846 14.864379 -24.035825
v -38.822178 14.885592 -24.043772
v -38.822833 14.886299 -24.043507
v -38.840919 14.866793 -24.036200
v -38.840919 15.017587 -24.036200
v -38.795871 14.969001 -24.054401
v -38.517336 14.969001 -24.166946
v -38.517336 14.970001 -24.166946
v -38.795487 14.970001 -24.054557
v -38.841846 15.020001 -24.035825
v -38.795871 14.969001 -24.054401
v -38.840919 15.017587 -24.036200
v -39.046636 15.017587 -24.545329
v -39.001589 14.969001 -24.563531
v -38.517336 14.969001 -24.166946
v -38.795871 14.969001 -24.054401
v -39.001589 14.969001 -24.563531
v -38.723054 14.969001 -24.676075
v -38.517336 14.970001 -24.166946
v -38.517336 14.969001 -24.166946
v -38.723054 14.969001 -24.676075
v -38.723054 14.970001 -24.676075
v -38.795487 14.970001 -24.054557
v -38.517336 14.970001 -24.166946
v -38.723054 14.970001 -24.676075
v -39.001205 14.970001 -24.563686
v -38.841846 15.020001 -24.035825
v -38.795487 14.970001 -24.054557
v -39.001205 14.970001 -24.563686
v -39.047564 15.020001 -24.544954
v -38.841846 14.864379 -24.035825
v -38.841846 15.020001 -24.035825
v -39.047564 15.020001 -24.544954
v -39.047564 14.864379 -24.544954
v -38.822178 14.885592 -24.043772
v -38.841846 14.864379 -24.035825
v -39.047564 14.864379 -24.544954
v -39.027895 14.885592 -24.552901
v -38.822833 14.886299 -24.043507
v -38.822178 14.885592 -24.043772
v -39.027895 14.885592 -24.552901
v -39.028551 14.886299 -24.552637
v -38.840919 14.866793 -24.036200
v -38.822833 14.886299 -24.043507
v -39.028551 14.886299 -24.552637
v -39.046636 14.866793 -24.545329
v -38.840919 15.017587 -24.036200
v -38.840919 14.866793 -24.036200
v -39.046636 14.866793 -24.545329
v -39.046636 15.017587 -24.545329
f 482 483 484
f 487 488 489
f 482 484 485
f 487 489 490
f 481 482 485
f 486 487 490
f 481 485 486
f 486 490 481
f 491 492 493
f 496 497 498
f 491 493 494
f 496 498 499
f 500 491 494
f 495 496 499
f 500 494 495
f 495 499 500
f 501 502 504
f 504 502 503
f 505 506 508
f 508 506 507
f 509 510 512
f 512 510 511
f 513 514 516
f 516 514 515
f 517 518 520
f 520 518 519
f 521 522 524
f 524 522 523
f 525 526 528
f 528 526 527
f 529 530 532
f 532 530 531
f 533 534 536
f 536 534 535
f 537 538 540
f 540 538 539
o item_958c4ea6_1144900
v -39.423705 15.220001 -26.347140
v -39.377346 15.170001 -26.365871
v -39.099195 15.170001 -26.478260
v -39.099195 15.169001 -26.478260
v -39.377730 15.169001 -26.365716
v -39.422777 15.217587 -26.347514
v -39.422777 15.066793 -26.347514
v -39.404692 15.086299 -26.354822
v -39.404037 15.085592 -26.355087
v -39.423705 15.064379 -26.347140
v -38.876045 15.064379 -24.991740
v -38.856377 15.085592 -24.999687
v -38.857032 15.086299 -24.999422
v -38.875118 15.066793 -24.992114
v -38.875118 15.217587 -24.992114
v -38.830070 15.169001 -25.010316
v -38.551535 15.169001 -25.122860
v -38.551535 15.170001 -25.122860
v -38.829686 15.170001 -25.010471
v -38.876045 15.220001 -24.991740
v -38.830070 15.169001 -25.010316
v -38.875118 15.217587 -24.992114
v -39.422777 15.217587 -26.347514
v -39.377730 15.169001 -26.365716
v -38.551535 15.169001 -25.122860
v -38.830070 15.169001 -25.010316
v -39.377730 15.169001 -26.365716
v -39.099195 15.169001 -26.478260
v -38.551535 15.170001 -25.122860
v -38.551535 15.169001 -25.122860
v -39.099195 15.169001 -26.478260
v -39.099195 15.170001 -26.478260
v -38.829686 15.170001 -25.010471
v -38.551535 15.170001 -25.122860
v -39.099195 15.170001 -26.478260
v -39.377346 15.170001 -26.365871
v -38.876045 15.220001 -24.991740
v -38.829686 15.170001 -25.010471
v -39.377346 15.170001 -26.365871
v -39.423705 15.220001 -26.347140
v -38.876045 15.064379 -24.991740
v -38.876045 15.220001 -24.991740
v -39.423705 15.220001 -26.347140
v -39.423705 15.064379 -26.347140
v -38.856377 15.085592 -24.999687
v -38.876045 15.064379 -24.991740
v -39.423705 15.064379 -26.347140
v -39.404037 15.085592 -26.355087
v -38.857032 15.086299 -24.999422
v -38.856377 15.085592 -24.999687
v -39.404037 15.085592 -26.355087
v -39.404692 15.086299 -26.354822
v -38.875118 15.066793 -24.992114
v -38.857032 15.086299 -24.999422
v -39.404692 15.086299 -26.354822
v -39.422777 15.066793 -26.347514
v -38.875118 15.217587 -24.992114
v -38.875118 15.066793 -24.992114
v -39.422777 15.066793 -26.347514
v -39.422777 15.217587 -26.347514
f 542 543 544
f 547 548 549
f 542 544 545
f 547 549 550
f 541 542 545
f 546 547 550
f 541 545 546
f 546 550 541
f 551 552 553
f 556 557 558
f 551 553 554
f 556 558 559
f 560 551 554
f 555 556 559
f 560 554 555
f 555 559 560
f 561 562 564
f 564 562 563
f 565 566 568
f 568 566 567
f 569 570 572
f 572 570 571
f 573 574 576
f 576 574 575
f 577 578 580
f 580 578 579
f 581 582 584
f 584 582 583
f 585 586 588
f 588 586 587
f 589 590 592
f 592 590 591
f 593 594 596
f 596 594 595
f 597 598 600
f 600 598 599
o item_958c4ea6_1144771
v -38.582457 15.020001 -26.897219
v -38.563725 14.970001 -26.850860
v -38.451336 14.970001 -26.572709
v -38.451336 14.969001 -26.572709
v -38.563880 14.969001 -26.851244
v -38.582082 15.017587 -26.896291
v -38.582082 14.866793 -26.896291
v -38.574774 14.886299 -26.878206
v -38.574510 14.885592 -26.877551
v -38.582457 14.864379 -26.897219
v -39.308264 14.864379 -26.603951
v -39.300317 14.885592 -26.584283
v -39.300582 14.886299 -26.584938
v -39.307889 14.866793 -26.603024
v -39.307889 15.017587 -26.603024
v -39.289687 14.969001 -26.557976
v -39.177143 14.969001 -26.279441
v -39.177143 14.970001 -26.279441
v -39.289532 14.970001 -26.557592
v -39.308264 15.020001 -26.603951
v -39.289687 14.969001 -26.557976
v -39.307889 15.017587 -26.603024
v -38.582082 15.017587 -26.896291
v -38.563880 14.969001 -26.851244
v -39.177143 14.969001 -26.279441
v -39.289687 14.969001 -26.557976
v -38.563880 14.969001 -26.851244
v -38.451336 14.969001 -26.572709
v -39.177143 14.970001 -26.279441
v -39.177143 14.969001 -26.279441
v -38.451336 14.969001 -26.572709
v -38.451336 14.970001 -26.572709
v -39.289532 14.970001 -26.557592
v -39.177143 14.970001 -26.279441
v -38.451336 14.970001 -26.572709
v -38.563725 14.970001 -26.850860
v -39.308264 15.020001 -26.603951
v -39.289532 14.970001 -26.557592
v -38.563725 14.970001 -26.850860
v -38.582457 15.020001 -26.897219
v -39.308264 14.864379 -26.603951
v -39.308264 15.020001 -26.603951
v -38.582457 15.020001 -26.897219
v -38.582457 14.864379 -26.897219
v -39.300317 14.885592 -26.584283
v -39.308264 14.864379 -26.603951
v -38.582457 14.864379 -26.897219
v -38.574510 14.885592 -26.877551
v -39.300582 14.886299 -26.584938
v -39.300317 14.885592 -26.584283
v -38.574510 14.885592 -26.877551
v -38.574774 14.886299 -26.878206
v -39.307889 14.866793 -26.603024
v -39.300582 14.886299 -26.584938
v -38.574774 14.886299 -26.878206
v -38.582082 14.866793 -26.896291
v -39.307889 15.017587 -26.603024
v -39.307889 14.866793 -26.603024
v -38.582082 14.866793 -26.896291
v -38.582082 15.017587 -26.896291
f 602 603 604
f 607 608 609
f 602 604 605
f 607 609 610
f 601 602 605
f 606 607 610
f 601 605 606
f 606 610 601
f 611 612 613
f 616 617 618
f 611 613 614
f 616 618 619
f 620 611 614
f 615 616 619
f 620 614 615
f 615 619 620
f 621 622 624
f 624 622 623
f 625 626 628
f 628 626 627
f 629 630 632
f 632 630 631
f 633 634 636
f 636 634 635
f 637 638 640
f 640 638 639
f 641 642 644
f 644 642 643
f 645 646 648
f 648 646 647
f 649 650 652
f 652 650 651
f 653 654 656
f 656 654 655
f 657 658 660
f 660 658 659
