# DIMKO.app — selection export
# Generated: 2026-07-29T08:03:09.307Z
o item_92b0f140_1114082
v 7.630870 21.829262 7.214950
v 7.630870 21.850038 7.630050
v 7.630870 21.800038 7.630050
v 7.630870 21.815035 7.615046
v 7.630870 21.815743 7.615754
v 7.630870 21.802452 7.629050
v 7.630870 21.848987 7.629050
v 7.630870 21.828311 7.215950
v 7.630870 21.781676 7.215950
v 7.630870 21.794972 7.229246
v 7.630870 21.794265 7.229953
v 7.630870 21.779262 7.214950
v 0.750730 21.779262 7.214950
v 0.750730 21.794265 7.229953
v 0.750730 21.794972 7.229246
v 0.750730 21.781676 7.215950
v 0.750730 21.828311 7.215950
v 0.750730 21.848987 7.629050
v 0.750730 21.802452 7.629050
v 0.750730 21.815743 7.615754
v 0.750730 21.815035 7.615046
v 0.750730 21.800038 7.630050
v 0.750730 21.850038 7.630050
v 0.750730 21.829262 7.214950
v 7.630870 21.850038 7.630050
v 7.630870 21.829262 7.214950
v 0.750730 21.829262 7.214950
v 0.750730 21.850038 7.630050
v 7.630870 21.800038 7.630050
v 7.630870 21.850038 7.630050
v 0.750730 21.850038 7.630050
v 0.750730 21.800038 7.630050
v 7.630870 21.815035 7.615046
v 7.630870 21.800038 7.630050
v 0.750730 21.800038 7.630050
v 0.750730 21.815035 7.615046
v 7.630870 21.815743 7.615754
v 7.630870 21.815035 7.615046
v 0.750730 21.815035 7.615046
v 0.750730 21.815743 7.615754
v 7.630870 21.802452 7.629050
v 7.630870 21.815743 7.615754
v 0.750730 21.815743 7.615754
v 0.750730 21.802452 7.629050
v 7.630870 21.848987 7.629050
v 7.630870 21.802452 7.629050
v 0.750730 21.802452 7.629050
v 0.750730 21.848987 7.629050
v 7.630870 21.828311 7.215950
v 7.630870 21.848987 7.629050
v 0.750730 21.848987 7.629050
v 0.750730 21.828311 7.215950
v 7.630870 21.781676 7.215950
v 7.630870 21.828311 7.215950
v 0.750730 21.828311 7.215950
v 0.750730 21.781676 7.215950
v 7.630870 21.794972 7.229246
v 7.630870 21.781676 7.215950
v 0.750730 21.781676 7.215950
v 0.750730 21.794972 7.229246
v 7.630870 21.794265 7.229953
v 7.630870 21.794972 7.229246
v 0.750730 21.794972 7.229246
v 0.750730 21.794265 7.229953
v 7.630870 21.779262 7.214950
v 7.630870 21.794265 7.229953
v 0.750730 21.794265 7.229953
v 0.750730 21.779262 7.214950
v 7.630870 21.829262 7.214950
v 7.630870 21.779262 7.214950
v 0.750730 21.779262 7.214950
v 0.750730 21.829262 7.214950
f 3 4 5
f 9 10 11
f 3 5 6
f 9 11 12
f 2 3 6
f 8 9 12
f 2 6 7
f 8 12 1
f 1 2 7
f 7 8 1
f 13 14 15
f 19 20 21
f 13 15 16
f 19 21 22
f 24 13 16
f 18 19 22
f 24 16 17
f 18 22 23
f 23 24 17
f 17 18 23
f 25 26 28
f 28 26 27
f 29 30 32
f 32 30 31
f 33 34 36
f 36 34 35
f 37 38 40
f 40 38 39
f 41 42 44
f 44 42 43
f 45 46 48
f 48 46 47
f 49 50 52
f 52 50 51
f 53 54 56
f 56 54 55
f 57 58 60
f 60 58 59
f 61 62 64
f 64 62 63
f 65 66 68
f 68 66 67
f 69 70 72
f 72 70 71
o item_92b0f140_1113827
v 6.694039 21.850000 0.570000
v 6.694039 21.829300 0.985000
v 6.694039 21.779300 0.985000
v 6.694039 21.794300 0.970000
v 6.694039 21.795007 0.970707
v 6.694039 21.781714 0.984000
v 6.694039 21.828349 0.984000
v 6.694039 21.848949 0.571000
v 6.694039 21.802414 0.571000
v 6.694039 21.815707 0.584293
v 6.694039 21.815000 0.585000
v 6.694039 21.800000 0.570000
v -1.959999 21.800000 0.570000
v -1.959999 21.815000 0.585000
v -1.959999 21.815707 0.584293
v -1.959999 21.802414 0.571000
v -1.959999 21.848949 0.571000
v -1.959999 21.828349 0.984000
v -1.959999 21.781714 0.984000
v -1.959999 21.795007 0.970707
v -1.959999 21.794300 0.970000
v -1.959999 21.779300 0.985000
v -1.959999 21.829300 0.985000
v -1.959999 21.850000 0.570000
v 6.694039 21.779300 0.985000
v 6.694039 21.829300 0.985000
v -1.959999 21.829300 0.985000
v -1.959999 21.779300 0.985000
v 6.694039 21.794300 0.970000
v 6.694039 21.779300 0.985000
v -1.959999 21.779300 0.985000
v -1.959999 21.794300 0.970000
v 6.694039 21.795007 0.970707
v 6.694039 21.794300 0.970000
v -1.959999 21.794300 0.970000
v -1.959999 21.795007 0.970707
v 6.694039 21.781714 0.984000
v 6.694039 21.795007 0.970707
v -1.959999 21.795007 0.970707
v -1.959999 21.781714 0.984000
v 6.694039 21.828349 0.984000
v 6.694039 21.781714 0.984000
v -1.959999 21.781714 0.984000
v -1.959999 21.828349 0.984000
v 6.694039 21.848949 0.571000
v 6.694039 21.828349 0.984000
v -1.959999 21.828349 0.984000
v -1.959999 21.848949 0.571000
v 6.694039 21.802414 0.571000
v 6.694039 21.848949 0.571000
v -1.959999 21.848949 0.571000
v -1.959999 21.802414 0.571000
v 6.694039 21.815707 0.584293
v 6.694039 21.802414 0.571000
v -1.959999 21.802414 0.571000
v -1.959999 21.815707 0.584293
v 6.694039 21.815000 0.585000
v 6.694039 21.815707 0.584293
v -1.959999 21.815707 0.584293
v -1.959999 21.815000 0.585000
v 6.694039 21.800000 0.570000
v 6.694039 21.815000 0.585000
v -1.959999 21.815000 0.585000
v -1.959999 21.800000 0.570000
v 6.694039 21.850000 0.570000
v 6.694039 21.800000 0.570000
v -1.959999 21.800000 0.570000
v -1.959999 21.850000 0.570000
v 6.694039 21.829300 0.985000
v 6.694039 21.850000 0.570000
v -1.959999 21.850000 0.570000
v -1.959999 21.829300 0.985000
f 75 76 77
f 81 82 83
f 75 77 78
f 81 83 84
f 74 75 78
f 80 81 84
f 74 78 79
f 80 84 73
f 73 74 79
f 79 80 73
f 85 86 87
f 91 92 93
f 85 87 88
f 91 93 94
f 96 85 88
f 90 91 94
f 96 88 89
f 90 94 95
f 95 96 89
f 89 90 95
f 97 98 100
f 100 98 99
f 101 102 104
f 104 102 103
f 105 106 108
f 108 106 107
f 109 110 112
f 112 110 111
f 113 114 116
f 116 114 115
f 117 118 120
f 120 118 119
f 121 122 124
f 124 122 123
f 125 126 128
f 128 126 127
f 129 130 132
f 132 130 131
f 133 134 136
f 136 134 135
f 137 138 140
f 140 138 139
f 141 142 144
f 144 142 143
o item_92b0f140_1115339
v -20.855388 25.950000 -25.662639
v -20.855388 25.999999 -25.662639
v -20.479413 25.979300 -26.262405
v -20.479413 25.929301 -26.262405
v -20.493001 25.944300 -26.240727
v -20.492360 25.945007 -26.241749
v -20.480318 25.931715 -26.260960
v -20.480318 25.978349 -26.260960
v -20.854483 25.998948 -25.664084
v -20.854483 25.952414 -25.664084
v -20.842441 25.965707 -25.683294
v -20.841801 25.965000 -25.684316
v 16.719797 25.965707 -40.878375
v 16.737099 25.952414 -40.871034
v 16.737099 25.998948 -40.871034
v 16.199525 25.978349 -41.099084
v 16.199525 25.931715 -41.099084
v 16.216827 25.945007 -41.091744
v 16.217748 25.944300 -41.091354
v 16.198224 25.929301 -41.099637
v 16.198224 25.979300 -41.099637
v 16.738400 25.999999 -40.870482
v 16.738400 25.950000 -40.870482
v 16.718876 25.965000 -40.878765
v -20.479413 25.979300 -26.262405
v -20.855388 25.999999 -25.662639
v 16.738400 25.999999 -40.870482
v 16.198224 25.979300 -41.099637
v -20.854483 25.952414 -25.664084
v -20.854483 25.998948 -25.664084
v 16.737099 25.998948 -40.871034
v 16.737099 25.952414 -40.871034
v 16.738400 25.950000 -40.870482
v -20.855388 25.950000 -25.662639
v -20.841801 25.965000 -25.684316
v 16.718876 25.965000 -40.878765
v -20.855388 25.999999 -25.662639
v -20.855388 25.950000 -25.662639
v 16.738400 25.950000 -40.870482
v 16.738400 25.999999 -40.870482
v 16.737099 25.998948 -40.871034
v -20.854483 25.998948 -25.664084
v -20.480318 25.978349 -26.260960
v 16.199525 25.978349 -41.099084
v -20.480318 25.978349 -26.260960
v -20.480318 25.931715 -26.260960
v 16.199525 25.931715 -41.099084
v 16.199525 25.978349 -41.099084
v -20.480318 25.931715 -26.260960
v -20.492360 25.945007 -26.241749
v 16.216827 25.945007 -41.091744
v 16.199525 25.931715 -41.099084
v -20.492360 25.945007 -26.241749
v -20.493001 25.944300 -26.240727
v 16.217748 25.944300 -41.091354
v 16.216827 25.945007 -41.091744
v 16.217748 25.944300 -41.091354
v -20.493001 25.944300 -26.240727
v -20.479413 25.929301 -26.262405
v 16.198224 25.929301 -41.099637
v 16.198224 25.929301 -41.099637
v -20.479413 25.929301 -26.262405
v -20.479413 25.979300 -26.262405
v 16.198224 25.979300 -41.099637
v -20.841801 25.965000 -25.684316
v -20.842441 25.965707 -25.683294
v 16.719797 25.965707 -40.878375
v 16.718876 25.965000 -40.878765
v -20.842441 25.965707 -25.683294
v -20.854483 25.952414 -25.664084
v 16.737099 25.952414 -40.871034
v 16.719797 25.965707 -40.878375
f 155 156 145
f 148 149 150
f 154 155 145
f 148 150 151
f 153 154 145
f 147 148 151
f 153 145 146
f 147 151 152
f 152 153 146
f 146 147 152
f 167 168 157
f 161 162 163
f 167 157 158
f 161 163 164
f 166 167 158
f 160 161 164
f 166 158 159
f 160 164 165
f 165 166 159
f 159 160 165
f 169 170 172
f 172 170 171
f 173 174 176
f 176 174 175
f 177 178 180
f 180 178 179
f 181 182 184
f 184 182 183
f 185 186 188
f 188 186 187
f 189 190 192
f 192 190 191
f 193 194 196
f 196 194 195
f 197 198 200
f 200 198 199
f 201 202 204
f 204 202 203
f 205 206 208
f 208 206 207
f 209 210 212
f 212 210 211
f 213 214 216
f 216 214 215
o item_92b0f140_1124604
v -21.001482 25.949997 -27.817873
v -21.001482 26.000006 -27.817873
v -20.587400 25.979303 -27.845433
v -20.587400 25.929294 -27.845433
v -20.602366 25.944296 -27.844437
v -20.601661 25.945004 -27.844484
v -20.588397 25.931708 -27.845367
v -20.588397 25.978351 -27.845367
v -21.000485 25.998955 -27.817940
v -21.000485 25.952412 -27.817940
v -20.987221 25.965707 -27.818822
v -20.986516 25.965000 -27.818869
v -20.846502 25.965707 -25.690981
v -20.858554 25.952412 -25.671771
v -20.858554 25.998955 -25.671771
v -20.484122 25.978351 -26.268595
v -20.484122 25.931708 -26.268595
v -20.496174 25.945004 -26.249386
v -20.496815 25.944296 -26.248364
v -20.483215 25.929294 -26.270040
v -20.483215 25.979303 -26.270040
v -20.859460 26.000006 -25.670327
v -20.859460 25.949997 -25.670327
v -20.845861 25.965000 -25.692003
v -20.483215 25.979303 -26.270040
v -20.587400 25.979303 -27.845433
v -21.001482 26.000006 -27.817873
v -20.859460 26.000006 -25.670327
v -21.000485 25.952412 -27.817940
v -21.000485 25.998955 -27.817940
v -20.858554 25.998955 -25.671771
v -20.858554 25.952412 -25.671771
v -21.001482 25.949997 -27.817873
v -20.986516 25.965000 -27.818869
v -20.845861 25.965000 -25.692003
v -20.859460 25.949997 -25.670327
v -21.001482 26.000006 -27.817873
v -21.001482 25.949997 -27.817873
v -20.859460 25.949997 -25.670327
v -20.859460 26.000006 -25.670327
v -21.000485 25.998955 -27.817940
v -20.588397 25.978351 -27.845367
v -20.484122 25.978351 -26.268595
v -20.858554 25.998955 -25.671771
v -20.588397 25.978351 -27.845367
v -20.588397 25.931708 -27.845367
v -20.484122 25.931708 -26.268595
v -20.484122 25.978351 -26.268595
v -20.484122 25.931708 -26.268595
v -20.588397 25.931708 -27.845367
v -20.601661 25.945004 -27.844484
v -20.496174 25.945004 -26.249386
v -20.496174 25.945004 -26.249386
v -20.601661 25.945004 -27.844484
v -20.602366 25.944296 -27.844437
v -20.496815 25.944296 -26.248364
v -20.602366 25.944296 -27.844437
v -20.587400 25.929294 -27.845433
v -20.483215 25.929294 -26.270040
v -20.496815 25.944296 -26.248364
v -20.587400 25.929294 -27.845433
v -20.587400 25.979303 -27.845433
v -20.483215 25.979303 -26.270040
v -20.483215 25.929294 -26.270040
v -20.845861 25.965000 -25.692003
v -20.986516 25.965000 -27.818869
v -20.987221 25.965707 -27.818822
v -20.846502 25.965707 -25.690981
v -20.846502 25.965707 -25.690981
v -20.987221 25.965707 -27.818822
v -21.000485 25.952412 -27.817940
v -20.858554 25.952412 -25.671771
f 227 228 217
f 220 221 222
f 226 227 217
f 220 222 223
f 225 226 217
f 219 220 223
f 225 217 218
f 219 223 224
f 224 225 218
f 218 219 224
f 239 240 229
f 233 234 235
f 239 229 230
f 233 235 236
f 238 239 230
f 232 233 236
f 238 230 231
f 232 236 237
f 237 238 231
f 231 232 237
f 241 242 244
f 244 242 243
f 245 246 248
f 248 246 247
f 249 250 252
f 252 250 251
f 253 254 256
f 256 254 255
f 257 258 260
f 260 258 259
f 261 262 264
f 264 262 263
f 265 266 268
f 268 266 267
f 269 270 272
f 272 270 271
f 273 274 276
f 276 274 275
f 277 278 280
f 280 278 279
f 281 282 284
f 284 282 283
f 285 286 288
f 288 286 287
o item_92b0f140_1124492
v 0.024204 26.000000 -42.865874
v 0.179675 25.979300 -42.481094
v 0.179675 25.929300 -42.481094
v 0.174056 25.944300 -42.495002
v 0.174321 25.945007 -42.494346
v 0.179301 25.931714 -42.482021
v 0.179301 25.978349 -42.482021
v 0.024579 25.998949 -42.864947
v 0.024579 25.952414 -42.864947
v 0.029558 25.965707 -42.852622
v 0.029823 25.965000 -42.851966
v 0.024204 25.950000 -42.865874
v -19.823055 25.950000 -34.846526
v -19.817436 25.965000 -34.832618
v -19.817701 25.965707 -34.833274
v -19.822681 25.952414 -34.845599
v -19.822681 25.998949 -34.845599
v -19.667959 25.978349 -34.462673
v -19.667959 25.931714 -34.462673
v -19.672938 25.945007 -34.474998
v -19.673203 25.944300 -34.475654
v -19.667584 25.929300 -34.461746
v -19.667584 25.979300 -34.461746
v -19.823055 26.000000 -34.846526
v 0.179675 25.929300 -42.481094
v 0.179675 25.979300 -42.481094
v -19.667584 25.979300 -34.461746
v -19.667584 25.929300 -34.461746
v 0.174056 25.944300 -42.495002
v 0.179675 25.929300 -42.481094
v -19.667584 25.929300 -34.461746
v -19.673203 25.944300 -34.475654
v 0.174321 25.945007 -42.494346
v 0.174056 25.944300 -42.495002
v -19.673203 25.944300 -34.475654
v -19.672938 25.945007 -34.474998
v 0.179301 25.931714 -42.482021
v 0.174321 25.945007 -42.494346
v -19.672938 25.945007 -34.474998
v -19.667959 25.931714 -34.462673
v 0.179301 25.978349 -42.482021
v 0.179301 25.931714 -42.482021
v -19.667959 25.931714 -34.462673
v -19.667959 25.978349 -34.462673
v 0.024579 25.998949 -42.864947
v 0.179301 25.978349 -42.482021
v -19.667959 25.978349 -34.462673
v -19.822681 25.998949 -34.845599
v 0.024579 25.952414 -42.864947
v 0.024579 25.998949 -42.864947
v -19.822681 25.998949 -34.845599
v -19.822681 25.952414 -34.845599
v 0.029558 25.965707 -42.852622
v 0.024579 25.952414 -42.864947
v -19.822681 25.952414 -34.845599
v -19.817701 25.965707 -34.833274
v 0.029823 25.965000 -42.851966
v 0.029558 25.965707 -42.852622
v -19.817701 25.965707 -34.833274
v -19.817436 25.965000 -34.832618
v 0.024204 25.950000 -42.865874
v 0.029823 25.965000 -42.851966
v -19.817436 25.965000 -34.832618
v -19.823055 25.950000 -34.846526
v 0.024204 26.000000 -42.865874
v 0.024204 25.950000 -42.865874
v -19.823055 25.950000 -34.846526
v -19.823055 26.000000 -34.846526
v 0.179675 25.979300 -42.481094
v 0.024204 26.000000 -42.865874
v -19.823055 26.000000 -34.846526
v -19.667584 25.979300 -34.461746
f 291 292 293
f 297 298 299
f 291 293 294
f 297 299 300
f 290 291 294
f 296 297 300
f 290 294 295
f 296 300 289
f 289 290 295
f 295 296 289
f 301 302 303
f 307 308 309
f 301 303 304
f 307 309 310
f 312 301 304
f 306 307 310
f 312 304 305
f 306 310 311
f 311 312 305
f 305 306 311
f 313 314 316
f 316 314 315
f 317 318 320
f 320 318 319
f 321 322 324
f 324 322 323
f 325 326 328
f 328 326 327
f 329 330 332
f 332 330 331
f 333 334 336
f 336 334 335
f 337 338 340
f 340 338 339
f 341 342 344
f 344 342 343
f 345 346 348
f 348 346 347
f 349 350 352
f 352 350 351
f 353 354 356
f 356 354 355
f 357 358 360
f 360 358 359
