# DIMKO.app — selection export
# Generated: 2026-07-31T07:58:41.183Z
o item_958c4ea6_1150975
v -15.509999 20.370000 42.500000
v 3.574999 20.370000 42.500000
v 3.574999 20.370000 42.450000
v -15.509999 20.370000 42.450000
v 3.574999 20.320000 42.450000
v 3.574999 20.320000 42.500000
v -15.509999 20.320000 42.500000
v -15.509999 20.320000 42.450000
v 3.574999 20.370000 42.450000
v 3.574999 20.370000 42.500000
v 3.574999 20.320000 42.500000
v 3.574999 20.320000 42.450000
v -15.509999 20.370000 42.450000
v 3.574999 20.370000 42.450000
v 3.574999 20.320000 42.450000
v -15.509999 20.320000 42.450000
v -15.509999 20.370000 42.500000
v -15.509999 20.370000 42.450000
v -15.509999 20.320000 42.450000
v -15.509999 20.320000 42.500000
v 3.574999 20.370000 42.500000
v -15.509999 20.370000 42.500000
v -15.509999 20.320000 42.500000
v 3.574999 20.320000 42.500000
f 1 2 4
f 4 2 3
f 5 6 8
f 8 6 7
f 9 10 12
f 12 10 11
f 13 14 16
f 16 14 15
f 17 18 20
f 20 18 19
f 21 22 24
f 24 22 23
o item_958c4ea6_1150889
v -15.460000 20.370000 42.430001
v -15.460000 20.370000 32.930059
v -15.510000 20.370000 32.930059
v -15.510000 20.370000 42.430001
v -15.510000 20.320000 32.930059
v -15.460000 20.320000 32.930059
v -15.460000 20.320000 42.430001
v -15.510000 20.320000 42.430001
v -15.510000 20.370000 32.930059
v -15.460000 20.370000 32.930059
v -15.460000 20.320000 32.930059
v -15.510000 20.320000 32.930059
v -15.510000 20.370000 42.430001
v -15.510000 20.370000 32.930059
v -15.510000 20.320000 32.930059
v -15.510000 20.320000 42.430001
v -15.460000 20.370000 42.430001
v -15.510000 20.370000 42.430001
v -15.510000 20.320000 42.430001
v -15.460000 20.320000 42.430001
v -15.460000 20.370000 32.930059
v -15.460000 20.370000 42.430001
v -15.460000 20.320000 42.430001
v -15.460000 20.320000 32.930059
f 25 26 28
f 28 26 27
f 29 30 32
f 32 30 31
f 33 34 36
f 36 34 35
f 37 38 40
f 40 38 39
f 41 42 44
f 44 42 43
f 45 46 48
f 48 46 47
o item_958c4ea6_1151135
v -9.070000 20.370000 30.060000
v -2.810000 20.370000 30.060000
v -2.810000 20.370000 30.010000
v -9.070000 20.370000 30.010000
v -2.810000 20.320000 30.010000
v -2.810000 20.320000 30.060000
v -9.070000 20.320000 30.060000
v -9.070000 20.320000 30.010000
v -2.810000 20.370000 30.010000
v -2.810000 20.370000 30.060000
v -2.810000 20.320000 30.060000
v -2.810000 20.320000 30.010000
v -9.070000 20.370000 30.010000
v -2.810000 20.370000 30.010000
v -2.810000 20.320000 30.010000
v -9.070000 20.320000 30.010000
v -9.070000 20.370000 30.060000
v -9.070000 20.370000 30.010000
v -9.070000 20.320000 30.010000
v -9.070000 20.320000 30.060000
v -2.810000 20.370000 30.060000
v -9.070000 20.370000 30.060000
v -9.070000 20.320000 30.060000
v -2.810000 20.320000 30.060000
f 49 50 52
f 52 50 51
f 53 54 56
f 56 54 55
f 57 58 60
f 60 58 59
f 61 62 64
f 64 62 63
f 65 66 68
f 68 66 67
f 69 70 72
f 72 70 71
o item_958c4ea6_1332189
v -8.610000 19.620000 25.995000
v -3.270000 19.620000 25.995000
v -3.270000 19.620000 25.945000
v -8.610000 19.620000 25.945000
v -3.270000 19.570000 25.945000
v -3.270000 19.570000 25.995000
v -8.610000 19.570000 25.995000
v -8.610000 19.570000 25.945000
v -3.270000 19.620000 25.945000
v -3.270000 19.620000 25.995000
v -3.270000 19.570000 25.995000
v -3.270000 19.570000 25.945000
v -8.610000 19.620000 25.945000
v -3.270000 19.620000 25.945000
v -3.270000 19.570000 25.945000
v -8.610000 19.570000 25.945000
v -8.610000 19.620000 25.995000
v -8.610000 19.620000 25.945000
v -8.610000 19.570000 25.945000
v -8.610000 19.570000 25.995000
v -3.270000 19.620000 25.995000
v -8.610000 19.620000 25.995000
v -8.610000 19.570000 25.995000
v -3.270000 19.570000 25.995000
f 73 74 76
f 76 74 75
f 77 78 80
f 80 78 79
f 81 82 84
f 84 82 83
f 85 86 88
f 88 86 87
f 89 90 92
f 92 90 91
f 93 94 96
f 96 94 95
o item_958c4ea6_1332220
v -8.610000 19.620000 25.680000
v -3.270000 19.620000 25.680000
v -3.270000 19.620000 25.630000
v -8.610000 19.620000 25.630000
v -3.270000 19.570000 25.630000
v -3.270000 19.570000 25.680000
v -8.610000 19.570000 25.680000
v -8.610000 19.570000 25.630000
v -3.270000 19.620000 25.630000
v -3.270000 19.620000 25.680000
v -3.270000 19.570000 25.680000
v -3.270000 19.570000 25.630000
v -8.610000 19.620000 25.630000
v -3.270000 19.620000 25.630000
v -3.270000 19.570000 25.630000
v -8.610000 19.570000 25.630000
v -8.610000 19.620000 25.680000
v -8.610000 19.620000 25.630000
v -8.610000 19.570000 25.630000
v -8.610000 19.570000 25.680000
v -3.270000 19.620000 25.680000
v -8.610000 19.620000 25.680000
v -8.610000 19.570000 25.680000
v -3.270000 19.570000 25.680000
f 97 98 100
f 100 98 99
f 101 102 104
f 104 102 103
f 105 106 108
f 108 106 107
f 109 110 112
f 112 110 111
f 113 114 116
f 116 114 115
f 117 118 120
f 120 118 119
o item_958c4ea6_1150932
v 3.630000 20.370000 42.450000
v 3.630000 20.370000 -7.190000
v 3.580000 20.370000 -7.190000
v 3.580000 20.370000 42.450000
v 3.580000 20.320000 -7.190000
v 3.630000 20.320000 -7.190000
v 3.630000 20.320000 42.450000
v 3.580000 20.320000 42.450000
v 3.580000 20.370000 -7.190000
v 3.630000 20.370000 -7.190000
v 3.630000 20.320000 -7.190000
v 3.580000 20.320000 -7.190000
v 3.580000 20.370000 42.450000
v 3.580000 20.370000 -7.190000
v 3.580000 20.320000 -7.190000
v 3.580000 20.320000 42.450000
v 3.630000 20.370000 42.450000
v 3.580000 20.370000 42.450000
v 3.580000 20.320000 42.450000
v 3.630000 20.320000 42.450000
v 3.630000 20.370000 -7.190000
v 3.630000 20.370000 42.450000
v 3.630000 20.320000 42.450000
v 3.630000 20.320000 -7.190000
f 121 122 124
f 124 122 123
f 125 126 128
f 128 126 127
f 129 130 132
f 132 130 131
f 133 134 136
f 136 134 135
f 137 138 140
f 140 138 139
f 141 142 144
f 144 142 143
o item_958c4ea6_1151104
v -2.760000 20.370000 30.010000
v -2.760000 20.370000 6.450000
v -2.810000 20.370000 6.450000
v -2.810000 20.370000 30.010000
v -2.810000 20.320000 6.450000
v -2.760000 20.320000 6.450000
v -2.760000 20.320000 30.010000
v -2.810000 20.320000 30.010000
v -2.810000 20.370000 6.450000
v -2.760000 20.370000 6.450000
v -2.760000 20.320000 6.450000
v -2.810000 20.320000 6.450000
v -2.810000 20.370000 30.010000
v -2.810000 20.370000 6.450000
v -2.810000 20.320000 6.450000
v -2.810000 20.320000 30.010000
v -2.760000 20.370000 30.010000
v -2.810000 20.370000 30.010000
v -2.810000 20.320000 30.010000
v -2.760000 20.320000 30.010000
v -2.760000 20.370000 6.450000
v -2.760000 20.370000 30.010000
v -2.760000 20.320000 30.010000
v -2.760000 20.320000 6.450000
f 145 146 148
f 148 146 147
f 149 150 152
f 152 150 151
f 153 154 156
f 156 154 155
f 157 158 160
f 160 158 159
f 161 162 164
f 164 162 163
f 165 166 168
f 168 166 167
o item_958c4ea6_1151178
v -9.070000 20.370000 25.595003
v -9.070000 20.370000 15.429937
v -9.120000 20.370000 15.429937
v -9.120000 20.370000 25.595003
v -9.120000 20.320000 15.429937
v -9.070000 20.320000 15.429937
v -9.070000 20.320000 25.595003
v -9.120000 20.320000 25.595003
v -9.120000 20.370000 15.429937
v -9.070000 20.370000 15.429937
v -9.070000 20.320000 15.429937
v -9.120000 20.320000 15.429937
v -9.120000 20.370000 25.595003
v -9.120000 20.370000 15.429937
v -9.120000 20.320000 15.429937
v -9.120000 20.320000 25.595003
v -9.070000 20.370000 25.595003
v -9.120000 20.370000 25.595003
v -9.120000 20.320000 25.595003
v -9.070000 20.320000 25.595003
v -9.070000 20.370000 15.429937
v -9.070000 20.370000 25.595003
v -9.070000 20.320000 25.595003
v -9.070000 20.320000 15.429937
f 169 170 172
f 172 170 171
f 173 174 176
f 176 174 175
f 177 178 180
f 180 178 179
f 181 182 184
f 184 182 183
f 185 186 188
f 188 186 187
f 189 190 192
f 192 190 191
o item_958c4ea6_1150846
v -15.460000 20.370000 22.654754
v -15.460000 20.370000 15.433906
v -15.510000 20.370000 15.433906
v -15.510000 20.370000 22.654754
v -15.510000 20.320000 15.433906
v -15.460000 20.320000 15.433906
v -15.460000 20.320000 22.654754
v -15.510000 20.320000 22.654754
v -15.510000 20.370000 15.433906
v -15.460000 20.370000 15.433906
v -15.460000 20.320000 15.433906
v -15.510000 20.320000 15.433906
v -15.510000 20.370000 22.654754
v -15.510000 20.370000 15.433906
v -15.510000 20.320000 15.433906
v -15.510000 20.320000 22.654754
v -15.460000 20.370000 22.654754
v -15.510000 20.370000 22.654754
v -15.510000 20.320000 22.654754
v -15.460000 20.320000 22.654754
v -15.460000 20.370000 15.433906
v -15.460000 20.370000 22.654754
v -15.460000 20.320000 22.654754
v -15.460000 20.320000 15.433906
f 193 194 196
f 196 194 195
f 197 198 200
f 200 198 199
f 201 202 204
f 204 202 203
f 205 206 208
f 208 206 207
f 209 210 212
f 212 210 211
f 213 214 216
f 216 214 215
o item_958c4ea6_1151018
v -9.070000 20.370000 12.429937
v -9.070000 20.370000 6.400003
v -9.120000 20.370000 6.400003
v -9.120000 20.370000 12.429937
v -9.120000 20.320000 6.400003
v -9.070000 20.320000 6.400003
v -9.070000 20.320000 12.429937
v -9.120000 20.320000 12.429937
v -9.120000 20.370000 6.400003
v -9.070000 20.370000 6.400003
v -9.070000 20.320000 6.400003
v -9.120000 20.320000 6.400003
v -9.120000 20.370000 12.429937
v -9.120000 20.370000 6.400003
v -9.120000 20.320000 6.400003
v -9.120000 20.320000 12.429937
v -9.070000 20.370000 12.429937
v -9.120000 20.370000 12.429937
v -9.120000 20.320000 12.429937
v -9.070000 20.320000 12.429937
v -9.070000 20.370000 6.400003
v -9.070000 20.370000 12.429937
v -9.070000 20.320000 12.429937
v -9.070000 20.320000 6.400003
f 217 218 220
f 220 218 219
f 221 222 224
f 224 222 223
f 225 226 228
f 228 226 227
f 229 230 232
f 232 230 231
f 233 234 236
f 236 234 235
f 237 238 240
f 240 238 239
o item_958c4ea6_1151061
v -9.070000 20.370000 6.450000
v -2.810000 20.370000 6.450000
v -2.810000 20.370000 6.400000
v -9.070000 20.370000 6.400000
v -2.810000 20.320000 6.400000
v -2.810000 20.320000 6.450000
v -9.070000 20.320000 6.450000
v -9.070000 20.320000 6.400000
v -2.810000 20.370000 6.400000
v -2.810000 20.370000 6.450000
v -2.810000 20.320000 6.450000
v -2.810000 20.320000 6.400000
v -9.070000 20.370000 6.400000
v -2.810000 20.370000 6.400000
v -2.810000 20.320000 6.400000
v -9.070000 20.320000 6.400000
v -9.070000 20.370000 6.450000
v -9.070000 20.370000 6.400000
v -9.070000 20.320000 6.400000
v -9.070000 20.320000 6.450000
v -2.810000 20.370000 6.450000
v -9.070000 20.370000 6.450000
v -9.070000 20.320000 6.450000
v -2.810000 20.320000 6.450000
f 241 242 244
f 244 242 243
f 245 246 248
f 248 246 247
f 249 250 252
f 252 250 251
f 253 254 256
f 256 254 255
f 257 258 260
f 260 258 259
f 261 262 264
f 264 262 263
o item_958c4ea6_1150803
v -15.460000 20.370000 12.429937
v -15.460000 20.370000 -7.189997
v -15.510000 20.370000 -7.189997
v -15.510000 20.370000 12.429937
v -15.510000 20.320000 -7.189997
v -15.460000 20.320000 -7.189997
v -15.460000 20.320000 12.429937
v -15.510000 20.320000 12.429937
v -15.510000 20.370000 -7.189997
v -15.460000 20.370000 -7.189997
v -15.460000 20.320000 -7.189997
v -15.510000 20.320000 -7.189997
v -15.510000 20.370000 12.429937
v -15.510000 20.370000 -7.189997
v -15.510000 20.320000 -7.189997
v -15.510000 20.320000 12.429937
v -15.460000 20.370000 12.429937
v -15.510000 20.370000 12.429937
v -15.510000 20.320000 12.429937
v -15.460000 20.320000 12.429937
v -15.460000 20.370000 -7.189997
v -15.460000 20.370000 12.429937
v -15.460000 20.320000 12.429937
v -15.460000 20.320000 -7.189997
f 265 266 268
f 268 266 267
f 269 270 272
f 272 270 271
f 273 274 276
f 276 274 275
f 277 278 280
f 280 278 279
f 281 282 284
f 284 282 283
f 285 286 288
f 288 286 287
o item_958c4ea6_1150682
v -25.560000 12.620000 42.500000
v -25.560000 12.620000 23.360000
v -25.610000 12.620000 23.360000
v -25.610000 12.620000 42.500000
v -25.610000 12.570000 23.360000
v -25.560000 12.570000 23.360000
v -25.560000 12.570000 42.500000
v -25.610000 12.570000 42.500000
v -25.610000 12.620000 23.360000
v -25.560000 12.620000 23.360000
v -25.560000 12.570000 23.360000
v -25.610000 12.570000 23.360000
v -25.610000 12.620000 42.500000
v -25.610000 12.620000 23.360000
v -25.610000 12.570000 23.360000
v -25.610000 12.570000 42.500000
v -25.560000 12.620000 42.500000
v -25.610000 12.620000 42.500000
v -25.610000 12.570000 42.500000
v -25.560000 12.570000 42.500000
v -25.560000 12.620000 23.360000
v -25.560000 12.620000 42.500000
v -25.560000 12.570000 42.500000
v -25.560000 12.570000 23.360000
f 289 290 292
f 292 290 291
f 293 294 296
f 296 294 295
f 297 298 300
f 300 298 299
f 301 302 304
f 304 302 303
f 305 306 308
f 308 306 307
f 309 310 312
f 312 310 311
o item_958c4ea6_1150578
v -26.070000 12.720000 42.500000
v -26.070000 12.720000 23.360000
v -26.120000 12.720000 23.360000
v -26.120000 12.720000 42.500000
v -26.120000 12.670000 23.360000
v -26.070000 12.670000 23.360000
v -26.070000 12.670000 42.500000
v -26.120000 12.670000 42.500000
v -26.120000 12.720000 23.360000
v -26.070000 12.720000 23.360000
v -26.070000 12.670000 23.360000
v -26.120000 12.670000 23.360000
v -26.120000 12.720000 42.500000
v -26.120000 12.720000 23.360000
v -26.120000 12.670000 23.360000
v -26.120000 12.670000 42.500000
v -26.070000 12.720000 42.500000
v -26.120000 12.720000 42.500000
v -26.120000 12.670000 42.500000
v -26.070000 12.670000 42.500000
v -26.070000 12.720000 23.360000
v -26.070000 12.720000 42.500000
v -26.070000 12.670000 42.500000
v -26.070000 12.670000 23.360000
f 313 314 316
f 316 314 315
f 317 318 320
f 320 318 319
f 321 322 324
f 324 322 323
f 325 326 328
f 328 326 327
f 329 330 332
f 332 330 331
f 333 334 336
f 336 334 335
o item_958c4ea6_1150715
v -26.070000 12.720000 42.450000
v -36.010000 12.720000 42.450000
v -36.010000 12.720000 42.500000
v -26.070000 12.720000 42.500000
v -36.010000 12.670000 42.500000
v -36.010000 12.670000 42.450000
v -26.070000 12.670000 42.450000
v -26.070000 12.670000 42.500000
v -36.010000 12.720000 42.500000
v -36.010000 12.720000 42.450000
v -36.010000 12.670000 42.450000
v -36.010000 12.670000 42.500000
v -26.070000 12.720000 42.500000
v -36.010000 12.720000 42.500000
v -36.010000 12.670000 42.500000
v -26.070000 12.670000 42.500000
v -26.070000 12.720000 42.450000
v -26.070000 12.720000 42.500000
v -26.070000 12.670000 42.500000
v -26.070000 12.670000 42.450000
v -36.010000 12.720000 42.450000
v -26.070000 12.720000 42.450000
v -26.070000 12.670000 42.450000
v -36.010000 12.670000 42.450000
f 337 338 340
f 340 338 339
f 341 342 344
f 344 342 343
f 345 346 348
f 348 346 347
f 349 350 352
f 352 350 351
f 353 354 356
f 356 354 355
f 357 358 360
f 360 358 359
o item_958c4ea6_1150654
v -35.960000 12.720000 42.500000
v -35.960000 12.720000 23.360000
v -36.010000 12.720000 23.360000
v -36.010000 12.720000 42.500000
v -36.010000 12.670000 23.360000
v -35.960000 12.670000 23.360000
v -35.960000 12.670000 42.500000
v -36.010000 12.670000 42.500000
v -36.010000 12.720000 23.360000
v -35.960000 12.720000 23.360000
v -35.960000 12.670000 23.360000
v -36.010000 12.670000 23.360000
v -36.010000 12.720000 42.500000
v -36.010000 12.720000 23.360000
v -36.010000 12.670000 23.360000
v -36.010000 12.670000 42.500000
v -35.960000 12.720000 42.500000
v -36.010000 12.720000 42.500000
v -36.010000 12.670000 42.500000
v -35.960000 12.670000 42.500000
v -35.960000 12.720000 23.360000
v -35.960000 12.720000 42.500000
v -35.960000 12.670000 42.500000
v -35.960000 12.670000 23.360000
f 361 362 364
f 364 362 363
f 365 366 368
f 368 366 367
f 369 370 372
f 372 370 371
f 373 374 376
f 376 374 375
f 377 378 380
f 380 378 379
f 381 382 384
f 384 382 383
o item_958c4ea6_1150623
v -36.010000 12.720000 23.410000
v -26.070000 12.720000 23.410000
v -26.070000 12.720000 23.360000
v -36.010000 12.720000 23.360000
v -26.070000 12.670000 23.360000
v -26.070000 12.670000 23.410000
v -36.010000 12.670000 23.410000
v -36.010000 12.670000 23.360000
v -26.070000 12.720000 23.360000
v -26.070000 12.720000 23.410000
v -26.070000 12.670000 23.410000
v -26.070000 12.670000 23.360000
v -36.010000 12.720000 23.360000
v -26.070000 12.720000 23.360000
v -26.070000 12.670000 23.360000
v -36.010000 12.670000 23.360000
v -36.010000 12.720000 23.410000
v -36.010000 12.720000 23.360000
v -36.010000 12.670000 23.360000
v -36.010000 12.670000 23.410000
v -26.070000 12.720000 23.410000
v -36.010000 12.720000 23.410000
v -36.010000 12.670000 23.410000
v -26.070000 12.670000 23.410000
f 385 386 388
f 388 386 387
f 389 390 392
f 392 390 391
f 393 394 396
f 396 394 395
f 397 398 400
f 400 398 399
f 401 402 404
f 404 402 403
f 405 406 408
f 408 406 407
o item_958c4ea6_1150758
v -15.509999 20.370000 -7.190000
v 3.599999 20.370000 -7.190000
v 3.599999 20.370000 -7.240000
v -15.509999 20.370000 -7.240000
v 3.599999 20.320000 -7.240000
v 3.599999 20.320000 -7.190000
v -15.509999 20.320000 -7.190000
v -15.509999 20.320000 -7.240000
v 3.599999 20.370000 -7.240000
v 3.599999 20.370000 -7.190000
v 3.599999 20.320000 -7.190000
v 3.599999 20.320000 -7.240000
v -15.509999 20.370000 -7.240000
v 3.599999 20.370000 -7.240000
v 3.599999 20.320000 -7.240000
v -15.509999 20.320000 -7.240000
v -15.509999 20.370000 -7.190000
v -15.509999 20.370000 -7.240000
v -15.509999 20.320000 -7.240000
v -15.509999 20.320000 -7.190000
v 3.599999 20.370000 -7.190000
v -15.509999 20.370000 -7.190000
v -15.509999 20.320000 -7.190000
v 3.599999 20.320000 -7.190000
f 409 410 412
f 412 410 411
f 413 414 416
f 416 414 415
f 417 418 420
f 420 418 419
f 421 422 424
f 424 422 423
f 425 426 428
f 428 426 427
f 429 430 432
f 432 430 431
o item_958c4ea6_1147850
v 3.630001 12.620000 -17.235000
v -0.800001 12.620000 -17.235000
v -0.800001 12.620000 -17.185000
v 3.630001 12.620000 -17.185000
v -0.800001 12.570000 -17.185000
v -0.800001 12.570000 -17.235000
v 3.630001 12.570000 -17.235000
v 3.630001 12.570000 -17.185000
v -0.800001 12.620000 -17.185000
v -0.800001 12.620000 -17.235000
v -0.800001 12.570000 -17.235000
v -0.800001 12.570000 -17.185000
v 3.630001 12.620000 -17.185000
v -0.800001 12.620000 -17.185000
v -0.800001 12.570000 -17.185000
v 3.630001 12.570000 -17.185000
v 3.630001 12.620000 -17.235000
v 3.630001 12.620000 -17.185000
v 3.630001 12.570000 -17.185000
v 3.630001 12.570000 -17.235000
v -0.800001 12.620000 -17.235000
v 3.630001 12.620000 -17.235000
v 3.630001 12.570000 -17.235000
v -0.800001 12.570000 -17.235000
f 433 434 436
f 436 434 435
f 437 438 440
f 440 438 439
f 441 442 444
f 444 442 443
f 445 446 448
f 448 446 447
f 449 450 452
f 452 450 451
f 453 454 456
f 456 454 455
o item_958c4ea6_1147765
v -7.135164 12.620000 -10.374938
v -3.255336 12.620000 -12.799322
v -3.281836 12.620000 -12.841722
v -7.161664 12.620000 -10.417338
v -3.281836 12.570000 -12.841722
v -3.255336 12.570000 -12.799322
v -7.135164 12.570000 -10.374938
v -7.161664 12.570000 -10.417338
v -3.281836 12.620000 -12.841722
v -3.255336 12.620000 -12.799322
v -3.255336 12.570000 -12.799322
v -3.281836 12.570000 -12.841722
v -7.161664 12.620000 -10.417338
v -3.281836 12.620000 -12.841722
v -3.281836 12.570000 -12.841722
v -7.161664 12.570000 -10.417338
v -7.135164 12.620000 -10.374938
v -7.161664 12.620000 -10.417338
v -7.161664 12.570000 -10.417338
v -7.135164 12.570000 -10.374938
v -3.255336 12.620000 -12.799322
v -7.135164 12.620000 -10.374938
v -7.135164 12.570000 -10.374938
v -3.255336 12.570000 -12.799322
f 457 458 460
f 460 458 459
f 461 462 464
f 464 462 463
f 465 466 468
f 468 466 467
f 469 470 472
f 472 470 471
f 473 474 476
f 476 474 475
f 477 478 480
f 480 478 479
o item_958c4ea6_1148439
v -5.526588 12.720000 -11.769221
v -3.710912 12.720000 -12.903779
v -3.737412 12.720000 -12.946179
v -5.553088 12.720000 -11.811621
v -3.737412 12.670000 -12.946179
v -3.710912 12.670000 -12.903779
v -5.526588 12.670000 -11.769221
v -5.553088 12.670000 -11.811621
v -3.737412 12.720000 -12.946179
v -3.710912 12.720000 -12.903779
v -3.710912 12.670000 -12.903779
v -3.737412 12.670000 -12.946179
v -5.553088 12.720000 -11.811621
v -3.737412 12.720000 -12.946179
v -3.737412 12.670000 -12.946179
v -5.553088 12.670000 -11.811621
v -5.526588 12.720000 -11.769221
v -5.553088 12.720000 -11.811621
v -5.553088 12.670000 -11.811621
v -5.526588 12.670000 -11.769221
v -3.710912 12.720000 -12.903779
v -5.526588 12.720000 -11.769221
v -5.526588 12.670000 -11.769221
v -3.710912 12.670000 -12.903779
f 481 482 484
f 484 482 483
f 485 486 488
f 488 486 487
f 489 490 492
f 492 490 491
f 493 494 496
f 496 494 495
f 497 498 500
f 500 498 499
f 501 502 504
f 504 502 503
o item_958c4ea6_1147810
v -3.255663 12.620000 -12.797939
v -5.266017 12.620000 -16.015181
v -5.308417 12.620000 -15.988681
v -3.298063 12.620000 -12.771439
v -5.308417 12.570000 -15.988681
v -5.266017 12.570000 -16.015181
v -3.255663 12.570000 -12.797939
v -3.298063 12.570000 -12.771439
v -5.308417 12.620000 -15.988681
v -5.266017 12.620000 -16.015181
v -5.266017 12.570000 -16.015181
v -5.308417 12.570000 -15.988681
v -3.298063 12.620000 -12.771439
v -5.308417 12.620000 -15.988681
v -5.308417 12.570000 -15.988681
v -3.298063 12.570000 -12.771439
v -3.255663 12.620000 -12.797939
v -3.298063 12.620000 -12.771439
v -3.298063 12.570000 -12.771439
v -3.255663 12.570000 -12.797939
v -5.266017 12.620000 -16.015181
v -3.255663 12.620000 -12.797939
v -3.255663 12.570000 -12.797939
v -5.266017 12.570000 -16.015181
f 505 506 508
f 508 506 507
f 509 510 512
f 512 510 511
f 513 514 516
f 516 514 515
f 517 518 520
f 520 518 519
f 521 522 524
f 524 522 523
f 525 526 528
f 528 526 527
o item_958c4ea6_1148485
v -3.710920 12.720000 -12.903773
v -5.876800 12.720000 -16.369907
v -5.919200 12.720000 -16.343407
v -3.753320 12.720000 -12.877273
v -5.919200 12.670000 -16.343407
v -5.876800 12.670000 -16.369907
v -3.710920 12.670000 -12.903773
v -3.753320 12.670000 -12.877273
v -5.919200 12.720000 -16.343407
v -5.876800 12.720000 -16.369907
v -5.876800 12.670000 -16.369907
v -5.919200 12.670000 -16.343407
v -3.753320 12.720000 -12.877273
v -5.919200 12.720000 -16.343407
v -5.919200 12.670000 -16.343407
v -3.753320 12.670000 -12.877273
v -3.710920 12.720000 -12.903773
v -3.753320 12.720000 -12.877273
v -3.753320 12.670000 -12.877273
v -3.710920 12.670000 -12.903773
v -5.876800 12.720000 -16.369907
v -3.710920 12.720000 -12.903773
v -3.710920 12.670000 -12.903773
v -5.876800 12.670000 -16.369907
f 529 530 532
f 532 530 531
f 533 534 536
f 536 534 535
f 537 538 540
f 540 538 539
f 541 542 544
f 544 542 543
f 545 546 548
f 548 546 547
f 549 550 552
f 552 550 551
o item_958c4ea6_1148393
v -5.484185 12.720000 -11.795710
v -6.382495 12.720000 -13.233310
v -6.424895 12.720000 -13.206810
v -5.526585 12.720000 -11.769210
v -6.424895 12.670000 -13.206810
v -6.382495 12.670000 -13.233310
v -5.484185 12.670000 -11.795710
v -5.526585 12.670000 -11.769210
v -6.424895 12.720000 -13.206810
v -6.382495 12.720000 -13.233310
v -6.382495 12.670000 -13.233310
v -6.424895 12.670000 -13.206810
v -5.526585 12.720000 -11.769210
v -6.424895 12.720000 -13.206810
v -6.424895 12.670000 -13.206810
v -5.526585 12.670000 -11.769210
v -5.484185 12.720000 -11.795710
v -5.526585 12.720000 -11.769210
v -5.526585 12.670000 -11.769210
v -5.484185 12.670000 -11.795710
v -6.382495 12.720000 -13.233310
v -5.484185 12.720000 -11.795710
v -5.484185 12.670000 -11.795710
v -6.382495 12.670000 -13.233310
f 553 554 556
f 556 554 555
f 557 558 560
f 560 558 559
f 561 562 564
f 564 562 563
f 565 566 568
f 568 566 567
f 569 570 572
f 572 570 571
f 573 574 576
f 576 574 575
o item_958c4ea6_1147493
v 3.630005 12.720000 -17.745000
v -3.507305 12.720000 -17.745000
v -3.507305 12.720000 -17.695000
v 3.630005 12.720000 -17.695000
v -3.507305 12.670000 -17.695000
v -3.507305 12.670000 -17.745000
v 3.630005 12.670000 -17.745000
v 3.630005 12.670000 -17.695000
v -3.507305 12.720000 -17.695000
v -3.507305 12.720000 -17.745000
v -3.507305 12.670000 -17.745000
v -3.507305 12.670000 -17.695000
v 3.630005 12.720000 -17.695000
v -3.507305 12.720000 -17.695000
v -3.507305 12.670000 -17.695000
v 3.630005 12.670000 -17.695000
v 3.630005 12.720000 -17.745000
v 3.630005 12.720000 -17.695000
v 3.630005 12.670000 -17.695000
v 3.630005 12.670000 -17.745000
v -3.507305 12.720000 -17.745000
v 3.630005 12.720000 -17.745000
v 3.630005 12.670000 -17.745000
v -3.507305 12.670000 -17.745000
f 577 578 580
f 580 578 579
f 581 582 584
f 584 582 583
f 585 586 588
f 588 586 587
f 589 590 592
f 592 590 591
f 593 594 596
f 596 594 595
f 597 598 600
f 600 598 599
o item_958c4ea6_1148984
v -3.480874 12.720000 -17.702694
v -3.507370 12.720000 -17.745096
v -5.591866 12.720000 -16.442286
v -5.565370 12.720000 -16.399884
v -5.591866 12.670000 -16.442286
v -3.507370 12.670000 -17.745096
v -3.480874 12.670000 -17.702694
v -5.565370 12.670000 -16.399884
v -5.591866 12.720000 -16.442286
v -3.507370 12.720000 -17.745096
v -3.507370 12.670000 -17.745096
v -5.591866 12.670000 -16.442286
v -5.565370 12.720000 -16.399884
v -5.591866 12.720000 -16.442286
v -5.591866 12.670000 -16.442286
v -5.565370 12.670000 -16.399884
v -3.480874 12.720000 -17.702694
v -5.565370 12.720000 -16.399884
v -5.565370 12.670000 -16.399884
v -3.480874 12.670000 -17.702694
v -3.507370 12.720000 -17.745096
v -3.480874 12.720000 -17.702694
v -3.480874 12.670000 -17.702694
v -3.507370 12.670000 -17.745096
f 601 602 604
f 604 602 603
f 605 606 608
f 608 606 607
f 609 610 612
f 612 610 611
f 613 614 616
f 616 614 615
f 617 618 620
f 620 618 619
f 621 622 624
f 624 622 623
o item_958c4ea6_1147173
v -14.470000 12.720000 -7.940000
v -15.510000 12.720000 -7.940000
v -15.510000 12.720000 -7.890000
v -14.470000 12.720000 -7.890000
v -15.510000 12.670000 -7.890000
v -15.510000 12.670000 -7.940000
v -14.470000 12.670000 -7.940000
v -14.470000 12.670000 -7.890000
v -15.510000 12.720000 -7.890000
v -15.510000 12.720000 -7.940000
v -15.510000 12.670000 -7.940000
v -15.510000 12.670000 -7.890000
v -14.470000 12.720000 -7.890000
v -15.510000 12.720000 -7.890000
v -15.510000 12.670000 -7.890000
v -14.470000 12.670000 -7.890000
v -14.470000 12.720000 -7.940000
v -14.470000 12.720000 -7.890000
v -14.470000 12.670000 -7.890000
v -14.470000 12.670000 -7.940000
v -15.510000 12.720000 -7.940000
v -14.470000 12.720000 -7.940000
v -14.470000 12.670000 -7.940000
v -15.510000 12.670000 -7.940000
f 625 626 628
f 628 626 627
f 629 630 632
f 632 630 631
f 633 634 636
f 636 634 635
f 637 638 640
f 640 638 639
f 641 642 644
f 644 642 643
f 645 646 648
f 648 646 647
o item_958c4ea6_1147218
v -15.460000 12.720000 -7.890004
v -15.460000 12.720000 -8.139256
v -15.510000 12.720000 -8.139256
v -15.510000 12.720000 -7.890004
v -15.510000 12.670000 -8.139256
v -15.460000 12.670000 -8.139256
v -15.460000 12.670000 -7.890004
v -15.510000 12.670000 -7.890004
v -15.510000 12.720000 -8.139256
v -15.460000 12.720000 -8.139256
v -15.460000 12.670000 -8.139256
v -15.510000 12.670000 -8.139256
v -15.510000 12.720000 -7.890004
v -15.510000 12.720000 -8.139256
v -15.510000 12.670000 -8.139256
v -15.510000 12.670000 -7.890004
v -15.460000 12.720000 -7.890004
v -15.510000 12.720000 -7.890004
v -15.510000 12.670000 -7.890004
v -15.460000 12.670000 -7.890004
v -15.460000 12.720000 -8.139256
v -15.460000 12.720000 -7.890004
v -15.460000 12.670000 -7.890004
v -15.460000 12.670000 -8.139256
f 649 650 652
f 652 650 651
f 653 654 656
f 656 654 655
f 657 658 660
f 660 658 659
f 661 662 664
f 664 662 663
f 665 666 668
f 668 666 667
f 669 670 672
f 672 670 671
o item_958c4ea6_1148347
v -7.901149 12.720000 -12.225389
v -6.378171 12.720000 -13.177051
v -6.404671 12.720000 -13.219451
v -7.927649 12.720000 -12.267789
v -6.404671 12.670000 -13.219451
v -6.378171 12.670000 -13.177051
v -7.901149 12.670000 -12.225389
v -7.927649 12.670000 -12.267789
v -6.404671 12.720000 -13.219451
v -6.378171 12.720000 -13.177051
v -6.378171 12.670000 -13.177051
v -6.404671 12.670000 -13.219451
v -7.927649 12.720000 -12.267789
v -6.404671 12.720000 -13.219451
v -6.404671 12.670000 -13.219451
v -7.927649 12.670000 -12.267789
v -7.901149 12.720000 -12.225389
v -7.927649 12.720000 -12.267789
v -7.927649 12.670000 -12.267789
v -7.901149 12.670000 -12.225389
v -6.378171 12.720000 -13.177051
v -7.901149 12.720000 -12.225389
v -7.901149 12.670000 -12.225389
v -6.378171 12.670000 -13.177051
f 673 674 676
f 676 674 675
f 677 678 680
f 680 678 679
f 681 682 684
f 684 682 683
f 685 686 688
f 688 686 687
f 689 690 692
f 692 690 691
f 693 694 696
f 696 694 695
o item_958c4ea6_1148301
v -7.858748 12.720000 -12.251891
v -9.152812 12.720000 -14.322829
v -9.195212 12.720000 -14.296329
v -7.901148 12.720000 -12.225391
v -9.195212 12.670000 -14.296329
v -9.152812 12.670000 -14.322829
v -7.858748 12.670000 -12.251891
v -7.901148 12.670000 -12.225391
v -9.195212 12.720000 -14.296329
v -9.152812 12.720000 -14.322829
v -9.152812 12.670000 -14.322829
v -9.195212 12.670000 -14.296329
v -7.901148 12.720000 -12.225391
v -9.195212 12.720000 -14.296329
v -9.195212 12.670000 -14.296329
v -7.901148 12.670000 -12.225391
v -7.858748 12.720000 -12.251891
v -7.901148 12.720000 -12.225391
v -7.901148 12.670000 -12.225391
v -7.858748 12.670000 -12.251891
v -9.152812 12.720000 -14.322829
v -7.858748 12.720000 -12.251891
v -7.858748 12.670000 -12.251891
v -9.152812 12.670000 -14.322829
f 697 698 700
f 700 698 699
f 701 702 704
f 704 702 703
f 705 706 708
f 708 706 707
f 709 710 712
f 712 710 711
f 713 714 716
f 716 714 715
f 717 718 720
f 720 718 719
o item_958c4ea6_1147720
v -7.118408 12.620000 -10.444367
v -11.361672 12.620000 -17.235013
v -11.404072 12.620000 -17.208513
v -7.160808 12.620000 -10.417867
v -11.404072 12.570000 -17.208513
v -11.361672 12.570000 -17.235013
v -7.118408 12.570000 -10.444367
v -7.160808 12.570000 -10.417867
v -11.404072 12.620000 -17.208513
v -11.361672 12.620000 -17.235013
v -11.361672 12.570000 -17.235013
v -11.404072 12.570000 -17.208513
v -7.160808 12.620000 -10.417867
v -11.404072 12.620000 -17.208513
v -11.404072 12.570000 -17.208513
v -7.160808 12.570000 -10.417867
v -7.118408 12.620000 -10.444367
v -7.160808 12.620000 -10.417867
v -7.160808 12.570000 -10.417867
v -7.118408 12.570000 -10.444367
v -11.361672 12.620000 -17.235013
v -7.118408 12.620000 -10.444367
v -7.118408 12.570000 -10.444367
v -11.361672 12.570000 -17.235013
f 721 722 724
f 724 722 723
f 725 726 728
f 728 726 727
f 729 730 732
f 732 730 731
f 733 734 736
f 736 734 735
f 737 738 740
f 740 738 739
f 741 742 744
f 744 742 743
o item_958c4ea6_1148161
v -9.195210 12.444230 -14.296322
v -5.876790 12.444230 -16.369898
v -5.903290 12.444230 -16.412298
v -9.221710 12.444230 -14.338722
v -5.903290 12.394230 -16.412298
v -5.876790 12.394230 -16.369898
v -9.195210 12.394230 -14.296322
v -9.221710 12.394230 -14.338722
v -5.903290 12.444230 -16.412298
v -5.876790 12.444230 -16.369898
v -5.876790 12.394230 -16.369898
v -5.903290 12.394230 -16.412298
v -9.221710 12.444230 -14.338722
v -5.903290 12.444230 -16.412298
v -5.903290 12.394230 -16.412298
v -9.221710 12.394230 -14.338722
v -9.195210 12.444230 -14.296322
v -9.221710 12.444230 -14.338722
v -9.221710 12.394230 -14.338722
v -9.195210 12.394230 -14.296322
v -5.876790 12.444230 -16.369898
v -9.195210 12.444230 -14.296322
v -9.195210 12.394230 -14.296322
v -5.876790 12.394230 -16.369898
f 745 746 748
f 748 746 747
f 749 750 752
f 752 750 751
f 753 754 756
f 756 754 755
f 757 758 760
f 760 758 759
f 761 762 764
f 764 762 763
f 765 766 768
f 768 766 767
o item_958c4ea6_1147628
v -5.549518 12.720000 -16.468875
v -9.894862 12.720000 -23.422885
v -9.937262 12.720000 -23.396385
v -5.591918 12.720000 -16.442375
v -9.937262 12.670000 -23.396385
v -9.894862 12.670000 -23.422885
v -5.549518 12.670000 -16.468875
v -5.591918 12.670000 -16.442375
v -9.937262 12.720000 -23.396385
v -9.894862 12.720000 -23.422885
v -9.894862 12.670000 -23.422885
v -9.937262 12.670000 -23.396385
v -5.591918 12.720000 -16.442375
v -9.937262 12.720000 -23.396385
v -9.937262 12.670000 -23.396385
v -5.591918 12.670000 -16.442375
v -5.549518 12.720000 -16.468875
v -5.591918 12.720000 -16.442375
v -5.591918 12.670000 -16.442375
v -5.549518 12.670000 -16.468875
v -9.894862 12.720000 -23.422885
v -5.549518 12.720000 -16.468875
v -5.549518 12.670000 -16.468875
v -9.894862 12.670000 -23.422885
f 769 770 772
f 772 770 771
f 773 774 776
f 776 774 775
f 777 778 780
f 780 778 779
f 781 782 784
f 784 782 783
f 785 786 788
f 788 786 787
f 789 790 792
f 792 790 791
o item_958c4ea6_1147895
v -5.876797 12.444230 -16.369896
v -10.026343 12.444230 -23.010564
v -10.068743 12.444230 -22.984064
v -5.919197 12.444230 -16.343396
v -10.068743 12.394230 -22.984064
v -10.026343 12.394230 -23.010564
v -5.876797 12.394230 -16.369896
v -5.919197 12.394230 -16.343396
v -10.068743 12.444230 -22.984064
v -10.026343 12.444230 -23.010564
v -10.026343 12.394230 -23.010564
v -10.068743 12.394230 -22.984064
v -5.919197 12.444230 -16.343396
v -10.068743 12.444230 -22.984064
v -10.068743 12.394230 -22.984064
v -5.919197 12.394230 -16.343396
v -5.876797 12.444230 -16.369896
v -5.919197 12.444230 -16.343396
v -5.919197 12.394230 -16.343396
v -5.876797 12.394230 -16.369896
v -10.026343 12.444230 -23.010564
v -5.876797 12.444230 -16.369896
v -5.876797 12.394230 -16.369896
v -10.026343 12.394230 -23.010564
f 793 794 796
f 796 794 795
f 797 798 800
f 800 798 799
f 801 802 804
f 804 802 803
f 805 806 808
f 808 806 807
f 809 810 812
f 812 810 811
f 813 814 816
f 816 814 815
o item_958c4ea6_1148035
v -8.086120 12.444230 -17.658054
v -9.803080 12.444230 -20.405766
v -9.845480 12.444230 -20.379266
v -8.128520 12.444230 -17.631554
v -9.845480 12.394230 -20.379266
v -9.803080 12.394230 -20.405766
v -8.086120 12.394230 -17.658054
v -8.128520 12.394230 -17.631554
v -9.845480 12.444230 -20.379266
v -9.803080 12.444230 -20.405766
v -9.803080 12.394230 -20.405766
v -9.845480 12.394230 -20.379266
v -8.128520 12.444230 -17.631554
v -9.845480 12.444230 -20.379266
v -9.845480 12.394230 -20.379266
v -8.128520 12.394230 -17.631554
v -8.086120 12.444230 -17.658054
v -8.128520 12.444230 -17.631554
v -8.128520 12.394230 -17.631554
v -8.086120 12.394230 -17.658054
v -9.803080 12.444230 -20.405766
v -8.086120 12.444230 -17.658054
v -8.086120 12.394230 -17.658054
v -9.803080 12.394230 -20.405766
f 817 818 820
f 820 818 819
f 821 822 824
f 824 822 823
f 825 826 828
f 828 826 827
f 829 830 832
f 832 830 831
f 833 834 836
f 836 834 835
f 837 838 840
f 840 838 839
o item_958c4ea6_1148081
v -10.366232 12.444222 -16.170430
v -8.101978 12.444222 -17.589200
v -8.128528 12.444222 -17.631550
v -10.392782 12.444222 -16.212780
v -8.128528 12.394238 -17.631550
v -8.101978 12.394238 -17.589200
v -10.366232 12.394238 -16.170430
v -10.392782 12.394238 -16.212780
v -8.128528 12.444222 -17.631550
v -8.101978 12.444222 -17.589200
v -8.101978 12.394238 -17.589200
v -8.128528 12.394238 -17.631550
v -10.392782 12.444222 -16.212780
v -8.128528 12.444222 -17.631550
v -8.128528 12.394238 -17.631550
v -10.392782 12.394238 -16.212780
v -10.366232 12.444222 -16.170430
v -10.392782 12.444222 -16.212780
v -10.392782 12.394238 -16.212780
v -10.366232 12.394238 -16.170430
v -8.101978 12.444222 -17.589200
v -10.366232 12.444222 -16.170430
v -10.366232 12.394238 -16.170430
v -8.101978 12.394238 -17.589200
f 841 842 844
f 844 842 843
f 845 846 848
f 848 846 847
f 849 850 852
f 852 850 851
f 853 854 856
f 856 854 855
f 857 858 860
f 860 858 859
f 861 862 864
f 864 862 863
o item_958c4ea6_1148127
v -9.152806 12.444230 -14.322825
v -10.350374 12.444230 -16.239335
v -10.392774 12.444230 -16.212835
v -9.195206 12.444230 -14.296325
v -10.392774 12.394230 -16.212835
v -10.350374 12.394230 -16.239335
v -9.152806 12.394230 -14.322825
v -9.195206 12.394230 -14.296325
v -10.392774 12.444230 -16.212835
v -10.350374 12.444230 -16.239335
v -10.350374 12.394230 -16.239335
v -10.392774 12.394230 -16.212835
v -9.195206 12.444230 -14.296325
v -10.392774 12.444230 -16.212835
v -10.392774 12.394230 -16.212835
v -9.195206 12.394230 -14.296325
v -9.152806 12.444230 -14.322825
v -9.195206 12.444230 -14.296325
v -9.195206 12.394230 -14.296325
v -9.152806 12.394230 -14.322825
v -10.350374 12.444230 -16.239335
v -9.152806 12.444230 -14.322825
v -9.152806 12.394230 -14.322825
v -10.350374 12.394230 -16.239335
f 865 866 868
f 868 866 867
f 869 870 872
f 872 870 871
f 873 874 876
f 876 874 875
f 877 878 880
f 880 878 879
f 881 882 884
f 884 882 883
f 885 886 888
f 888 886 887
o item_958c4ea6_1148207
v -10.350360 12.720000 -16.239314
v -12.067320 12.720000 -18.987026
v -12.109720 12.720000 -18.960526
v -10.392760 12.720000 -16.212814
v -12.109720 12.670000 -18.960526
v -12.067320 12.670000 -18.987026
v -10.350360 12.670000 -16.239314
v -10.392760 12.670000 -16.212814
v -12.109720 12.720000 -18.960526
v -12.067320 12.720000 -18.987026
v -12.067320 12.670000 -18.987026
v -12.109720 12.670000 -18.960526
v -10.392760 12.720000 -16.212814
v -12.109720 12.720000 -18.960526
v -12.109720 12.670000 -18.960526
v -10.392760 12.670000 -16.212814
v -10.350360 12.720000 -16.239314
v -10.392760 12.720000 -16.212814
v -10.392760 12.670000 -16.212814
v -10.350360 12.670000 -16.239314
v -12.067320 12.720000 -18.987026
v -10.350360 12.720000 -16.239314
v -10.350360 12.670000 -16.239314
v -12.067320 12.670000 -18.987026
f 889 890 892
f 892 890 891
f 893 894 896
f 896 894 895
f 897 898 900
f 900 898 899
f 901 902 904
f 904 902 903
f 905 906 908
f 908 906 907
f 909 910 912
f 912 910 911
o item_958c4ea6_1148255
v -12.110629 12.444230 -18.961941
v -9.844691 12.444230 -20.378039
v -9.871191 12.444230 -20.420439
v -12.137129 12.444230 -19.004341
v -9.871191 12.394230 -20.420439
v -9.844691 12.394230 -20.378039
v -12.110629 12.394230 -18.961941
v -12.137129 12.394230 -19.004341
v -9.871191 12.444230 -20.420439
v -9.844691 12.444230 -20.378039
v -9.844691 12.394230 -20.378039
v -9.871191 12.394230 -20.420439
v -12.137129 12.444230 -19.004341
v -9.871191 12.444230 -20.420439
v -9.871191 12.394230 -20.420439
v -12.137129 12.394230 -19.004341
v -12.110629 12.444230 -18.961941
v -12.137129 12.444230 -19.004341
v -12.137129 12.394230 -19.004341
v -12.110629 12.394230 -18.961941
v -9.844691 12.444230 -20.378039
v -12.110629 12.444230 -18.961941
v -12.110629 12.394230 -18.961941
v -9.844691 12.394230 -20.378039
f 913 914 916
f 916 914 915
f 917 918 920
f 920 918 919
f 921 922 924
f 924 922 923
f 925 926 928
f 928 926 927
f 929 930 932
f 932 930 931
f 933 934 936
f 936 934 935
o item_958c4ea6_1147538
v -13.960000 12.620000 -8.995664
v -13.960000 12.620000 -17.234996
v -14.010000 12.620000 -17.234996
v -14.010000 12.620000 -8.995664
v -14.010000 12.570000 -17.234996
v -13.960000 12.570000 -17.234996
v -13.960000 12.570000 -8.995664
v -14.010000 12.570000 -8.995664
v -14.010000 12.620000 -17.234996
v -13.960000 12.620000 -17.234996
v -13.960000 12.570000 -17.234996
v -14.010000 12.570000 -17.234996
v -14.010000 12.620000 -8.995664
v -14.010000 12.620000 -17.234996
v -14.010000 12.570000 -17.234996
v -14.010000 12.570000 -8.995664
v -13.960000 12.620000 -8.995664
v -14.010000 12.620000 -8.995664
v -14.010000 12.570000 -8.995664
v -13.960000 12.570000 -8.995664
v -13.960000 12.620000 -17.234996
v -13.960000 12.620000 -8.995664
v -13.960000 12.570000 -8.995664
v -13.960000 12.570000 -17.234996
f 937 938 940
f 940 938 939
f 941 942 944
f 944 942 943
f 945 946 948
f 948 946 947
f 949 950 952
f 952 950 951
f 953 954 956
f 956 954 955
f 957 958 960
f 960 958 959
o item_958c4ea6_1147128
v -14.470000 12.720000 -7.889998
v -14.470000 12.720000 -17.738582
v -14.520000 12.720000 -17.738582
v -14.520000 12.720000 -7.889998
v -14.520000 12.670000 -17.738582
v -14.470000 12.670000 -17.738582
v -14.470000 12.670000 -7.889998
v -14.520000 12.670000 -7.889998
v -14.520000 12.720000 -17.738582
v -14.470000 12.720000 -17.738582
v -14.470000 12.670000 -17.738582
v -14.520000 12.670000 -17.738582
v -14.520000 12.720000 -7.889998
v -14.520000 12.720000 -17.738582
v -14.520000 12.670000 -17.738582
v -14.520000 12.670000 -7.889998
v -14.470000 12.720000 -7.889998
v -14.520000 12.720000 -7.889998
v -14.520000 12.670000 -7.889998
v -14.470000 12.670000 -7.889998
v -14.470000 12.720000 -17.738582
v -14.470000 12.720000 -7.889998
v -14.470000 12.670000 -7.889998
v -14.470000 12.670000 -17.738582
f 961 962 964
f 964 962 963
f 965 966 968
f 968 966 967
f 969 970 972
f 972 970 971
f 973 974 976
f 976 974 975
f 977 978 980
f 980 978 979
f 981 982 984
f 984 982 983
o item_958c4ea6_1147263
v -11.701979 12.720000 -17.745000
v -14.470001 12.720000 -17.745000
v -14.470001 12.720000 -17.695000
v -11.701979 12.720000 -17.695000
v -14.470001 12.670000 -17.695000
v -14.470001 12.670000 -17.745000
v -11.701979 12.670000 -17.745000
v -11.701979 12.670000 -17.695000
v -14.470001 12.720000 -17.695000
v -14.470001 12.720000 -17.745000
v -14.470001 12.670000 -17.745000
v -14.470001 12.670000 -17.695000
v -11.701979 12.720000 -17.695000
v -14.470001 12.720000 -17.695000
v -14.470001 12.670000 -17.695000
v -11.701979 12.670000 -17.695000
v -11.701979 12.720000 -17.745000
v -11.701979 12.720000 -17.695000
v -11.701979 12.670000 -17.695000
v -11.701979 12.670000 -17.745000
v -14.470001 12.720000 -17.745000
v -11.701979 12.720000 -17.745000
v -11.701979 12.670000 -17.745000
v -14.470001 12.670000 -17.745000
f 985 986 988
f 988 986 987
f 989 990 992
f 992 990 991
f 993 994 996
f 996 994 995
f 997 998 1000
f 1000 998 999
f 1001 1002 1004
f 1004 1002 1003
f 1005 1006 1008
f 1008 1006 1007
o item_958c4ea6_1147989
v -12.067313 12.444230 -18.987005
v -13.302347 12.444230 -20.963475
v -13.344747 12.444230 -20.936975
v -12.109713 12.444230 -18.960505
v -13.344747 12.394230 -20.936975
v -13.302347 12.394230 -20.963475
v -12.067313 12.394230 -18.987005
v -12.109713 12.394230 -18.960505
v -13.344747 12.444230 -20.936975
v -13.302347 12.444230 -20.963475
v -13.302347 12.394230 -20.963475
v -13.344747 12.394230 -20.936975
v -12.109713 12.444230 -18.960505
v -13.344747 12.444230 -20.936975
v -13.344747 12.394230 -20.936975
v -12.109713 12.394230 -18.960505
v -12.067313 12.444230 -18.987005
v -12.109713 12.444230 -18.960505
v -12.109713 12.394230 -18.960505
v -12.067313 12.394230 -18.987005
v -13.302347 12.444230 -20.963475
v -12.067313 12.444230 -18.987005
v -12.067313 12.394230 -18.987005
v -13.302347 12.394230 -20.963475
f 1009 1010 1012
f 1012 1010 1011
f 1013 1014 1016
f 1016 1014 1015
f 1017 1018 1020
f 1020 1018 1019
f 1021 1022 1024
f 1024 1022 1023
f 1025 1026 1028
f 1028 1026 1027
f 1029 1030 1032
f 1032 1030 1031
o item_958c4ea6_1147673
v -11.402281 12.620000 -17.235000
v -14.009999 12.620000 -17.235000
v -14.009999 12.620000 -17.185000
v -11.402281 12.620000 -17.185000
v -14.009999 12.570000 -17.185000
v -14.009999 12.570000 -17.235000
v -11.402281 12.570000 -17.235000
v -11.402281 12.570000 -17.185000
v -14.009999 12.620000 -17.185000
v -14.009999 12.620000 -17.235000
v -14.009999 12.570000 -17.235000
v -14.009999 12.570000 -17.185000
v -11.402281 12.620000 -17.185000
v -14.009999 12.620000 -17.185000
v -14.009999 12.570000 -17.185000
v -11.402281 12.570000 -17.185000
v -11.402281 12.620000 -17.235000
v -11.402281 12.620000 -17.185000
v -11.402281 12.570000 -17.185000
v -11.402281 12.570000 -17.235000
v -14.009999 12.620000 -17.235000
v -11.402281 12.620000 -17.235000
v -11.402281 12.570000 -17.235000
v -14.009999 12.570000 -17.235000
f 1033 1034 1036
f 1036 1034 1035
f 1037 1038 1040
f 1040 1038 1039
f 1041 1042 1044
f 1044 1042 1043
f 1045 1046 1048
f 1048 1046 1047
f 1049 1050 1052
f 1052 1050 1051
f 1053 1054 1056
f 1056 1054 1055
o item_958c4ea6_1147306
v -11.649102 12.720000 -17.694999
v -13.730578 12.720000 -21.026061
v -13.772978 12.720000 -20.999561
v -11.691502 12.720000 -17.668499
v -13.772978 12.670000 -20.999561
v -13.730578 12.670000 -21.026061
v -11.649102 12.670000 -17.694999
v -11.691502 12.670000 -17.668499
v -13.772978 12.720000 -20.999561
v -13.730578 12.720000 -21.026061
v -13.730578 12.670000 -21.026061
v -13.772978 12.670000 -20.999561
v -11.691502 12.720000 -17.668499
v -13.772978 12.720000 -20.999561
v -13.772978 12.670000 -20.999561
v -11.691502 12.670000 -17.668499
v -11.649102 12.720000 -17.694999
v -11.691502 12.720000 -17.668499
v -11.691502 12.670000 -17.668499
v -11.649102 12.670000 -17.694999
v -13.730578 12.720000 -21.026061
v -11.649102 12.720000 -17.694999
v -11.649102 12.670000 -17.694999
v -13.730578 12.670000 -21.026061
f 1057 1058 1060
f 1060 1058 1059
f 1061 1062 1064
f 1064 1062 1063
f 1065 1066 1068
f 1068 1066 1067
f 1069 1070 1072
f 1072 1070 1071
f 1073 1074 1076
f 1076 1074 1075
f 1077 1078 1080
f 1080 1078 1079
o item_958c4ea6_1147083
v -15.467591 12.720000 -8.165729
v -24.949289 12.720000 -23.339631
v -24.991689 12.720000 -23.313131
v -15.509991 12.720000 -8.139229
v -24.991689 12.670000 -23.313131
v -24.949289 12.670000 -23.339631
v -15.467591 12.670000 -8.165729
v -15.509991 12.670000 -8.139229
v -24.991689 12.720000 -23.313131
v -24.949289 12.720000 -23.339631
v -24.949289 12.670000 -23.339631
v -24.991689 12.670000 -23.313131
v -15.509991 12.720000 -8.139229
v -24.991689 12.720000 -23.313131
v -24.991689 12.670000 -23.313131
v -15.509991 12.670000 -8.139229
v -15.467591 12.720000 -8.165729
v -15.509991 12.720000 -8.139229
v -15.509991 12.670000 -8.139229
v -15.467591 12.670000 -8.165729
v -24.949289 12.720000 -23.339631
v -15.467591 12.720000 -8.165729
v -15.467591 12.670000 -8.165729
v -24.949289 12.670000 -23.339631
f 1081 1082 1084
f 1084 1082 1083
f 1085 1086 1088
f 1088 1086 1087
f 1089 1090 1092
f 1092 1090 1091
f 1093 1094 1096
f 1096 1094 1095
f 1097 1098 1100
f 1100 1098 1099
f 1101 1102 1104
f 1104 1102 1103
o item_958c4ea6_1090774
v 3.630000 12.720000 -17.695000
v 3.630000 12.720000 -31.540000
v 3.580000 12.720000 -31.540000
v 3.580000 12.720000 -17.695000
v 3.580000 12.670000 -31.540000
v 3.630000 12.670000 -31.540000
v 3.630000 12.670000 -17.695000
v 3.580000 12.670000 -17.695000
v 3.580000 12.720000 -31.540000
v 3.630000 12.720000 -31.540000
v 3.630000 12.670000 -31.540000
v 3.580000 12.670000 -31.540000
v 3.580000 12.720000 -17.695000
v 3.580000 12.720000 -31.540000
v 3.580000 12.670000 -31.540000
v 3.580000 12.670000 -17.695000
v 3.630000 12.720000 -17.695000
v 3.580000 12.720000 -17.695000
v 3.580000 12.670000 -17.695000
v 3.630000 12.670000 -17.695000
v 3.630000 12.720000 -31.540000
v 3.630000 12.720000 -17.695000
v 3.630000 12.670000 -17.695000
v 3.630000 12.670000 -31.540000
f 1105 1106 1108
f 1108 1106 1107
f 1109 1110 1112
f 1112 1110 1111
f 1113 1114 1116
f 1116 1114 1115
f 1117 1118 1120
f 1120 1118 1119
f 1121 1122 1124
f 1124 1122 1123
f 1125 1126 1128
f 1128 1126 1127
o item_958c4ea6_1090731
v 3.630005 12.720000 -31.540000
v -4.732905 12.720000 -31.540000
v -4.732905 12.720000 -31.490000
v 3.630005 12.720000 -31.490000
v -4.732905 12.670000 -31.490000
v -4.732905 12.670000 -31.540000
v 3.630005 12.670000 -31.540000
v 3.630005 12.670000 -31.490000
v -4.732905 12.720000 -31.490000
v -4.732905 12.720000 -31.540000
v -4.732905 12.670000 -31.540000
v -4.732905 12.670000 -31.490000
v 3.630005 12.720000 -31.490000
v -4.732905 12.720000 -31.490000
v -4.732905 12.670000 -31.490000
v 3.630005 12.670000 -31.490000
v 3.630005 12.720000 -31.540000
v 3.630005 12.720000 -31.490000
v 3.630005 12.670000 -31.490000
v 3.630005 12.670000 -31.540000
v -4.732905 12.720000 -31.540000
v 3.630005 12.720000 -31.540000
v 3.630005 12.670000 -31.540000
v -4.732905 12.670000 -31.540000
f 1129 1130 1132
f 1132 1130 1131
f 1133 1134 1136
f 1136 1134 1135
f 1137 1138 1140
f 1140 1138 1139
f 1141 1142 1144
f 1144 1142 1143
f 1145 1146 1148
f 1148 1146 1147
f 1149 1150 1152
f 1152 1150 1151
o item_958c4ea6_1147943
v -13.318250 12.444230 -20.894572
v -9.999830 12.444230 -22.968148
v -10.026330 12.444230 -23.010548
v -13.344750 12.444230 -20.936972
v -10.026330 12.394230 -23.010548
v -9.999830 12.394230 -22.968148
v -13.318250 12.394230 -20.894572
v -13.344750 12.394230 -20.936972
v -10.026330 12.444230 -23.010548
v -9.999830 12.444230 -22.968148
v -9.999830 12.394230 -22.968148
v -10.026330 12.394230 -23.010548
v -13.344750 12.444230 -20.936972
v -10.026330 12.444230 -23.010548
v -10.026330 12.394230 -23.010548
v -13.344750 12.394230 -20.936972
v -13.318250 12.444230 -20.894572
v -13.344750 12.444230 -20.936972
v -13.344750 12.394230 -20.936972
v -13.318250 12.394230 -20.894572
v -9.999830 12.444230 -22.968148
v -13.318250 12.444230 -20.894572
v -13.318250 12.394230 -20.894572
v -9.999830 12.394230 -22.968148
f 1153 1154 1156
f 1156 1154 1155
f 1157 1158 1160
f 1160 1158 1159
f 1161 1162 1164
f 1164 1162 1163
f 1165 1166 1168
f 1168 1166 1167
f 1169 1170 1172
f 1172 1170 1171
f 1173 1174 1176
f 1176 1174 1175
o item_958c4ea6_1090688
v -4.732906 12.720000 -31.539985
v -15.004494 12.720000 -47.977975
v -15.046894 12.720000 -47.951475
v -4.775306 12.720000 -31.513485
v -15.046894 12.670000 -47.951475
v -15.004494 12.670000 -47.977975
v -4.732906 12.670000 -31.539985
v -4.775306 12.670000 -31.513485
v -15.046894 12.720000 -47.951475
v -15.004494 12.720000 -47.977975
v -15.004494 12.670000 -47.977975
v -15.046894 12.670000 -47.951475
v -4.775306 12.720000 -31.513485
v -15.046894 12.720000 -47.951475
v -15.046894 12.670000 -47.951475
v -4.775306 12.670000 -31.513485
v -4.732906 12.720000 -31.539985
v -4.775306 12.720000 -31.513485
v -4.775306 12.670000 -31.513485
v -4.732906 12.670000 -31.539985
v -15.004494 12.720000 -47.977975
v -4.732906 12.720000 -31.539985
v -4.732906 12.670000 -31.539985
v -15.004494 12.670000 -47.977975
f 1177 1178 1180
f 1180 1178 1179
f 1181 1182 1184
f 1184 1182 1183
f 1185 1186 1188
f 1188 1186 1187
f 1189 1190 1192
f 1192 1190 1191
f 1193 1194 1196
f 1196 1194 1195
f 1197 1198 1200
f 1200 1198 1199
o item_958c4ea6_1148531
v -13.772985 12.720000 -20.999562
v -12.872355 12.720000 -21.562338
v -12.898855 12.720000 -21.604738
v -13.799485 12.720000 -21.041962
v -12.898855 12.670000 -21.604738
v -12.872355 12.670000 -21.562338
v -13.772985 12.670000 -20.999562
v -13.799485 12.670000 -21.041962
v -12.898855 12.720000 -21.604738
v -12.872355 12.720000 -21.562338
v -12.872355 12.670000 -21.562338
v -12.898855 12.670000 -21.604738
v -13.799485 12.720000 -21.041962
v -12.898855 12.720000 -21.604738
v -12.898855 12.670000 -21.604738
v -13.799485 12.670000 -21.041962
v -13.772985 12.720000 -20.999562
v -13.799485 12.720000 -21.041962
v -13.799485 12.670000 -21.041962
v -13.772985 12.670000 -20.999562
v -12.872355 12.720000 -21.562338
v -13.772985 12.720000 -20.999562
v -13.772985 12.670000 -20.999562
v -12.872355 12.670000 -21.562338
f 1201 1202 1204
f 1204 1202 1203
f 1205 1206 1208
f 1208 1206 1207
f 1209 1210 1212
f 1212 1210 1211
f 1213 1214 1216
f 1216 1214 1215
f 1217 1218 1220
f 1220 1218 1219
f 1221 1222 1224
f 1224 1222 1223
o item_958c4ea6_1147353
v -17.652474 12.720000 -23.645238
v -15.150726 12.720000 -25.208502
v -15.177226 12.720000 -25.250902
v -17.678974 12.720000 -23.687638
v -15.177226 12.670000 -25.250902
v -15.150726 12.670000 -25.208502
v -17.652474 12.670000 -23.645238
v -17.678974 12.670000 -23.687638
v -15.177226 12.720000 -25.250902
v -15.150726 12.720000 -25.208502
v -15.150726 12.670000 -25.208502
v -15.177226 12.670000 -25.250902
v -17.678974 12.720000 -23.687638
v -15.177226 12.720000 -25.250902
v -15.177226 12.670000 -25.250902
v -17.678974 12.670000 -23.687638
v -17.652474 12.720000 -23.645238
v -17.678974 12.720000 -23.687638
v -17.678974 12.670000 -23.687638
v -17.652474 12.670000 -23.645238
v -15.150726 12.720000 -25.208502
v -17.652474 12.720000 -23.645238
v -17.652474 12.670000 -23.645238
v -15.150726 12.670000 -25.208502
f 1225 1226 1228
f 1228 1226 1227
f 1229 1230 1232
f 1232 1230 1231
f 1233 1234 1236
f 1236 1234 1235
f 1237 1238 1240
f 1240 1238 1239
f 1241 1242 1244
f 1244 1242 1243
f 1245 1246 1248
f 1248 1246 1247
o item_958c4ea6_1147585
v -17.652475 12.720000 -23.645243
v -19.173345 12.720000 -26.079147
v -19.194545 12.720000 -26.065897
v -17.673675 12.720000 -23.631993
v -19.194545 12.670000 -26.065897
v -19.173345 12.670000 -26.079147
v -17.652475 12.670000 -23.645243
v -17.673675 12.670000 -23.631993
v -19.194545 12.720000 -26.065897
v -19.173345 12.720000 -26.079147
v -19.173345 12.670000 -26.079147
v -19.194545 12.670000 -26.065897
v -17.673675 12.720000 -23.631993
v -19.194545 12.720000 -26.065897
v -19.194545 12.670000 -26.065897
v -17.673675 12.670000 -23.631993
v -17.652475 12.720000 -23.645243
v -17.673675 12.720000 -23.631993
v -17.673675 12.670000 -23.631993
v -17.652475 12.670000 -23.645243
v -19.173345 12.720000 -26.079147
v -17.652475 12.720000 -23.645243
v -17.652475 12.670000 -23.645243
v -19.173345 12.670000 -26.079147
f 1249 1250 1252
f 1252 1250 1251
f 1253 1254 1256
f 1256 1254 1255
f 1257 1258 1260
f 1260 1258 1259
f 1261 1262 1264
f 1264 1262 1263
f 1265 1266 1268
f 1268 1266 1267
f 1269 1270 1272
f 1272 1270 1271
o item_958c4ea6_1147447
v -19.173350 12.721850 -26.079136
v -13.754310 12.721850 -29.465324
v -13.780810 12.721850 -29.507724
v -19.199850 12.721850 -26.121536
v -13.780810 12.671850 -29.507724
v -13.754310 12.671850 -29.465324
v -19.173350 12.671850 -26.079136
v -19.199850 12.671850 -26.121536
v -13.780810 12.721850 -29.507724
v -13.754310 12.721850 -29.465324
v -13.754310 12.671850 -29.465324
v -13.780810 12.671850 -29.507724
v -19.199850 12.721850 -26.121536
v -13.780810 12.721850 -29.507724
v -13.780810 12.671850 -29.507724
v -19.199850 12.671850 -26.121536
v -19.173350 12.721850 -26.079136
v -19.199850 12.721850 -26.121536
v -19.199850 12.671850 -26.121536
v -19.173350 12.671850 -26.079136
v -13.754310 12.721850 -29.465324
v -19.173350 12.721850 -26.079136
v -19.173350 12.671850 -26.079136
v -13.754310 12.671850 -29.465324
f 1273 1274 1276
f 1276 1274 1275
f 1277 1278 1280
f 1280 1278 1279
f 1281 1282 1284
f 1284 1282 1283
f 1285 1286 1288
f 1288 1286 1287
f 1289 1290 1292
f 1292 1290 1291
f 1293 1294 1296
f 1296 1294 1295
o item_958c4ea6_1147400
v -12.127726 12.720000 -26.956593
v -13.711914 12.720000 -29.491827
v -13.754314 12.720000 -29.465327
v -12.170126 12.720000 -26.930093
v -13.754314 12.670000 -29.465327
v -13.711914 12.670000 -29.491827
v -12.127726 12.670000 -26.956593
v -12.170126 12.670000 -26.930093
v -13.754314 12.720000 -29.465327
v -13.711914 12.720000 -29.491827
v -13.711914 12.670000 -29.491827
v -13.754314 12.670000 -29.465327
v -12.170126 12.720000 -26.930093
v -13.754314 12.720000 -29.465327
v -13.754314 12.670000 -29.465327
v -12.170126 12.670000 -26.930093
v -12.127726 12.720000 -26.956593
v -12.170126 12.720000 -26.930093
v -12.170126 12.670000 -26.930093
v -12.127726 12.670000 -26.956593
v -13.711914 12.720000 -29.491827
v -12.127726 12.720000 -26.956593
v -12.127726 12.670000 -26.956593
v -13.711914 12.670000 -29.491827
f 1297 1298 1300
f 1300 1298 1299
f 1301 1302 1304
f 1304 1302 1303
f 1305 1306 1308
f 1308 1306 1307
f 1309 1310 1312
f 1312 1310 1311
f 1313 1314 1316
f 1316 1314 1315
f 1317 1318 1320
f 1320 1318 1319
o item_958c4ea6_1149934
v -20.190872 12.469999 -32.275711
v -14.819838 12.469999 -34.445779
v -14.838588 12.469999 -34.492129
v -20.209622 12.469999 -32.322061
v -14.838588 12.420001 -34.492129
v -14.819838 12.420001 -34.445779
v -20.190872 12.420001 -32.275711
v -20.209622 12.420001 -32.322061
v -14.838588 12.469999 -34.492129
v -14.819838 12.469999 -34.445779
v -14.819838 12.420001 -34.445779
v -14.838588 12.420001 -34.492129
v -20.209622 12.469999 -32.322061
v -14.838588 12.469999 -34.492129
v -14.838588 12.420001 -34.492129
v -20.209622 12.420001 -32.322061
v -20.190872 12.469999 -32.275711
v -20.209622 12.469999 -32.322061
v -20.209622 12.420001 -32.322061
v -20.190872 12.420001 -32.275711
v -14.819838 12.469999 -34.445779
v -20.190872 12.469999 -32.275711
v -20.190872 12.420001 -32.275711
v -14.819838 12.420001 -34.445779
f 1321 1322 1324
f 1324 1322 1323
f 1325 1326 1328
f 1328 1326 1327
f 1329 1330 1332
f 1332 1330 1331
f 1333 1334 1336
f 1336 1334 1335
f 1337 1338 1340
f 1340 1338 1339
f 1341 1342 1344
f 1344 1342 1343
o item_958c4ea6_1149031
v -14.160335 12.721850 -34.417637
v -17.738025 12.721850 -40.143143
v -17.780425 12.721850 -40.116643
v -14.202735 12.721850 -34.391137
v -17.780425 12.671850 -40.116643
v -17.738025 12.671850 -40.143143
v -14.160335 12.671850 -34.417637
v -14.202735 12.671850 -34.391137
v -17.780425 12.721850 -40.116643
v -17.738025 12.721850 -40.143143
v -17.738025 12.671850 -40.143143
v -17.780425 12.671850 -40.116643
v -14.202735 12.721850 -34.391137
v -17.780425 12.721850 -40.116643
v -17.780425 12.671850 -40.116643
v -14.202735 12.671850 -34.391137
v -14.160335 12.721850 -34.417637
v -14.202735 12.721850 -34.391137
v -14.202735 12.671850 -34.391137
v -14.160335 12.671850 -34.417637
v -17.738025 12.721850 -40.143143
v -14.160335 12.721850 -34.417637
v -14.160335 12.671850 -34.417637
v -17.738025 12.671850 -40.143143
f 1345 1346 1348
f 1348 1346 1347
f 1349 1350 1352
f 1352 1350 1351
f 1353 1354 1356
f 1356 1354 1355
f 1357 1358 1360
f 1360 1358 1359
f 1361 1362 1364
f 1364 1362 1363
f 1365 1366 1368
f 1368 1366 1367
o item_958c4ea6_1149844
v -14.809102 12.470000 -34.493463
v -17.952038 12.470000 -39.523217
v -17.994438 12.470000 -39.496717
v -14.851502 12.470000 -34.466963
v -17.994438 12.420000 -39.496717
v -17.952038 12.420000 -39.523217
v -14.809102 12.420000 -34.493463
v -14.851502 12.420000 -34.466963
v -17.994438 12.470000 -39.496717
v -17.952038 12.470000 -39.523217
v -17.952038 12.420000 -39.523217
v -17.994438 12.420000 -39.496717
v -14.851502 12.470000 -34.466963
v -17.994438 12.470000 -39.496717
v -17.994438 12.420000 -39.496717
v -14.851502 12.420000 -34.466963
v -14.809102 12.470000 -34.493463
v -14.851502 12.470000 -34.466963
v -14.851502 12.420000 -34.466963
v -14.809102 12.420000 -34.493463
v -17.952038 12.470000 -39.523217
v -14.809102 12.470000 -34.493463
v -14.809102 12.420000 -34.493463
v -17.952038 12.420000 -39.523217
f 1369 1370 1372
f 1372 1370 1371
f 1373 1374 1376
f 1376 1374 1375
f 1377 1378 1380
f 1380 1378 1379
f 1381 1382 1384
f 1384 1382 1383
f 1385 1386 1388
f 1388 1386 1387
f 1389 1390 1392
f 1392 1390 1391
o item_958c4ea6_1149445
v -31.830346 12.721849 -27.217167
v -32.436044 12.721849 -28.716303
v -32.482394 12.721849 -28.697553
v -31.876696 12.721849 -27.198417
v -32.482394 12.671851 -28.697553
v -32.436044 12.671851 -28.716303
v -31.830346 12.671851 -27.217167
v -31.876696 12.671851 -27.198417
v -32.482394 12.721849 -28.697553
v -32.436044 12.721849 -28.716303
v -32.436044 12.671851 -28.716303
v -32.482394 12.671851 -28.697553
v -31.876696 12.721849 -27.198417
v -32.482394 12.721849 -28.697553
v -32.482394 12.671851 -28.697553
v -31.876696 12.671851 -27.198417
v -31.830346 12.721849 -27.217167
v -31.876696 12.721849 -27.198417
v -31.876696 12.671851 -27.198417
v -31.830346 12.671851 -27.217167
v -32.436044 12.721849 -28.716303
v -31.830346 12.721849 -27.217167
v -31.830346 12.671851 -27.217167
v -32.436044 12.671851 -28.716303
f 1393 1394 1396
f 1396 1394 1395
f 1397 1398 1400
f 1400 1398 1399
f 1401 1402 1404
f 1404 1402 1403
f 1405 1406 1408
f 1408 1406 1407
f 1409 1410 1412
f 1412 1410 1411
f 1413 1414 1416
f 1416 1414 1415
o item_958c4ea6_1149799
v -31.694720 12.469999 -27.628936
v -30.214250 12.469999 -28.227094
v -30.233000 12.469999 -28.273444
v -31.713470 12.469999 -27.675286
v -30.233000 12.420001 -28.273444
v -30.214250 12.420001 -28.227094
v -31.694720 12.420001 -27.628936
v -31.713470 12.420001 -27.675286
v -30.233000 12.469999 -28.273444
v -30.214250 12.469999 -28.227094
v -30.214250 12.420001 -28.227094
v -30.233000 12.420001 -28.273444
v -31.713470 12.469999 -27.675286
v -30.233000 12.469999 -28.273444
v -30.233000 12.420001 -28.273444
v -31.713470 12.420001 -27.675286
v -31.694720 12.469999 -27.628936
v -31.713470 12.469999 -27.675286
v -31.713470 12.420001 -27.675286
v -31.694720 12.420001 -27.628936
v -30.214250 12.469999 -28.227094
v -31.694720 12.469999 -27.628936
v -31.694720 12.420001 -27.628936
v -30.214250 12.420001 -28.227094
f 1417 1418 1420
f 1420 1418 1419
f 1421 1422 1424
f 1424 1422 1423
f 1425 1426 1428
f 1428 1426 1427
f 1429 1430 1432
f 1432 1430 1431
f 1433 1434 1436
f 1436 1434 1435
f 1437 1438 1440
f 1440 1438 1439
o item_958c4ea6_1149754
v -31.667103 12.469999 -27.694039
v -32.234967 12.469999 -29.099531
v -32.281317 12.469999 -29.080781
v -31.713453 12.469999 -27.675289
v -32.281317 12.420001 -29.080781
v -32.234967 12.420001 -29.099531
v -31.667103 12.420001 -27.694039
v -31.713453 12.420001 -27.675289
v -32.281317 12.469999 -29.080781
v -32.234967 12.469999 -29.099531
v -32.234967 12.420001 -29.099531
v -32.281317 12.420001 -29.080781
v -31.713453 12.469999 -27.675289
v -32.281317 12.469999 -29.080781
v -32.281317 12.420001 -29.080781
v -31.713453 12.420001 -27.675289
v -31.667103 12.469999 -27.694039
v -31.713453 12.469999 -27.675289
v -31.713453 12.420001 -27.675289
v -31.667103 12.420001 -27.694039
v -32.234967 12.469999 -29.099531
v -31.667103 12.469999 -27.694039
v -31.667103 12.420001 -27.694039
v -32.234967 12.420001 -29.099531
f 1441 1442 1444
f 1444 1442 1443
f 1445 1446 1448
f 1448 1446 1447
f 1449 1450 1452
f 1452 1450 1451
f 1453 1454 1456
f 1456 1454 1455
f 1457 1458 1460
f 1460 1458 1459
f 1461 1462 1464
f 1464 1462 1463
o item_958c4ea6_1147036
v -25.003685 12.719999 -23.348841
v -45.182485 12.719999 -15.195969
v -45.163735 12.719999 -15.149619
v -24.984935 12.719999 -23.302491
v -45.163735 12.670001 -15.149619
v -45.182485 12.670001 -15.195969
v -25.003685 12.670001 -23.348841
v -24.984935 12.670001 -23.302491
v -45.163735 12.719999 -15.149619
v -45.182485 12.719999 -15.195969
v -45.182485 12.670001 -15.195969
v -45.163735 12.670001 -15.149619
v -24.984935 12.719999 -23.302491
v -45.163735 12.719999 -15.149619
v -45.163735 12.670001 -15.149619
v -24.984935 12.670001 -23.302491
v -25.003685 12.719999 -23.348841
v -24.984935 12.719999 -23.302491
v -24.984935 12.670001 -23.302491
v -25.003685 12.670001 -23.348841
v -45.182485 12.719999 -15.195969
v -25.003685 12.719999 -23.348841
v -25.003685 12.670001 -23.348841
v -45.182485 12.670001 -15.195969
f 1465 1466 1468
f 1468 1466 1467
f 1469 1470 1472
f 1472 1470 1471
f 1473 1474 1476
f 1476 1474 1475
f 1477 1478 1480
f 1480 1478 1479
f 1481 1482 1484
f 1484 1482 1483
f 1485 1486 1488
f 1488 1486 1487
o item_958c4ea6_1149307
v -38.777128 12.721849 -24.008041
v -37.608882 12.721849 -24.480049
v -37.627632 12.721849 -24.526399
v -38.795878 12.721849 -24.054391
v -37.627632 12.671851 -24.526399
v -37.608882 12.671851 -24.480049
v -38.777128 12.671851 -24.008041
v -38.795878 12.671851 -24.054391
v -37.627632 12.721849 -24.526399
v -37.608882 12.721849 -24.480049
v -37.608882 12.671851 -24.480049
v -37.627632 12.671851 -24.526399
v -38.795878 12.721849 -24.054391
v -37.627632 12.721849 -24.526399
v -37.627632 12.671851 -24.526399
v -38.795878 12.671851 -24.054391
v -38.777128 12.721849 -24.008041
v -38.795878 12.721849 -24.054391
v -38.795878 12.671851 -24.054391
v -38.777128 12.671851 -24.008041
v -37.608882 12.721849 -24.480049
v -38.777128 12.721849 -24.008041
v -38.777128 12.671851 -24.008041
v -37.608882 12.671851 -24.480049
f 1489 1490 1492
f 1492 1490 1491
f 1493 1494 1496
f 1496 1494 1495
f 1497 1498 1500
f 1500 1498 1499
f 1501 1502 1504
f 1504 1502 1503
f 1505 1506 1508
f 1508 1506 1507
f 1509 1510 1512
f 1512 1510 1511
o item_958c4ea6_1149261
v -38.777152 12.721849 -24.008048
v -38.982858 12.721849 -24.517182
v -39.029208 12.721849 -24.498432
v -38.823502 12.721849 -23.989298
v -39.029208 12.671851 -24.498432
v -38.982858 12.671851 -24.517182
v -38.777152 12.671851 -24.008048
v -38.823502 12.671851 -23.989298
v -39.029208 12.721849 -24.498432
v -38.982858 12.721849 -24.517182
v -38.982858 12.671851 -24.517182
v -39.029208 12.671851 -24.498432
v -38.823502 12.721849 -23.989298
v -39.029208 12.721849 -24.498432
v -39.029208 12.671851 -24.498432
v -38.823502 12.671851 -23.989298
v -38.777152 12.721849 -24.008048
v -38.823502 12.721849 -23.989298
v -38.823502 12.671851 -23.989298
v -38.777152 12.671851 -24.008048
v -38.982858 12.721849 -24.517182
v -38.777152 12.721849 -24.008048
v -38.777152 12.671851 -24.008048
v -38.982858 12.671851 -24.517182
f 1513 1514 1516
f 1516 1514 1515
f 1517 1518 1520
f 1520 1518 1519
f 1521 1522 1524
f 1524 1522 1523
f 1525 1526 1528
f 1528 1526 1527
f 1529 1530 1532
f 1532 1530 1531
f 1533 1534 1536
f 1536 1534 1535
o item_958c4ea6_1149353
v -37.608888 12.721849 -24.480051
v -38.354362 12.721849 -26.325139
v -38.400712 12.721849 -26.306389
v -37.655238 12.721849 -24.461301
v -38.400712 12.671851 -26.306389
v -38.354362 12.671851 -26.325139
v -37.608888 12.671851 -24.480051
v -37.655238 12.671851 -24.461301
v -38.400712 12.721849 -26.306389
v -38.354362 12.721849 -26.325139
v -38.354362 12.671851 -26.325139
v -38.400712 12.671851 -26.306389
v -37.655238 12.721849 -24.461301
v -38.400712 12.721849 -26.306389
v -38.400712 12.671851 -26.306389
v -37.655238 12.671851 -24.461301
v -37.608888 12.721849 -24.480051
v -37.655238 12.721849 -24.461301
v -37.655238 12.671851 -24.461301
v -37.608888 12.671851 -24.480051
v -38.354362 12.721849 -26.325139
v -37.608888 12.721849 -24.480051
v -37.608888 12.671851 -24.480051
v -38.354362 12.671851 -26.325139
f 1537 1538 1540
f 1540 1538 1539
f 1541 1542 1544
f 1544 1542 1543
f 1545 1546 1548
f 1548 1546 1547
f 1549 1550 1552
f 1552 1550 1551
f 1553 1554 1556
f 1556 1554 1555
f 1557 1558 1560
f 1560 1558 1559
o item_958c4ea6_1149399
v -38.381961 12.721849 -26.260041
v -32.417309 12.721849 -28.669949
v -32.436059 12.721849 -28.716299
v -38.400711 12.721849 -26.306391
v -32.436059 12.671851 -28.716299
v -32.417309 12.671851 -28.669949
v -38.381961 12.671851 -26.260041
v -38.400711 12.671851 -26.306391
v -32.436059 12.721849 -28.716299
v -32.417309 12.721849 -28.669949
v -32.417309 12.671851 -28.669949
v -32.436059 12.671851 -28.716299
v -38.400711 12.721849 -26.306391
v -32.436059 12.721849 -28.716299
v -32.436059 12.671851 -28.716299
v -38.400711 12.671851 -26.306391
v -38.381961 12.721849 -26.260041
v -38.400711 12.721849 -26.306391
v -38.400711 12.671851 -26.306391
v -38.381961 12.671851 -26.260041
v -32.417309 12.721849 -28.669949
v -38.381961 12.721849 -26.260041
v -38.381961 12.671851 -26.260041
v -32.417309 12.671851 -28.669949
f 1561 1562 1564
f 1564 1562 1563
f 1565 1566 1568
f 1568 1566 1567
f 1569 1570 1572
f 1572 1570 1571
f 1573 1574 1576
f 1576 1574 1575
f 1577 1578 1580
f 1580 1578 1579
f 1581 1582 1584
f 1584 1582 1583
o item_958c4ea6_1149709
v -38.505584 12.469999 -26.566016
v -32.243306 12.469999 -29.096174
v -32.262056 12.469999 -29.142524
v -38.524334 12.469999 -26.612366
v -32.262056 12.420001 -29.142524
v -32.243306 12.420001 -29.096174
v -38.505584 12.420001 -26.566016
v -38.524334 12.420001 -26.612366
v -32.262056 12.469999 -29.142524
v -32.243306 12.469999 -29.096174
v -32.243306 12.420001 -29.096174
v -32.262056 12.420001 -29.142524
v -38.524334 12.469999 -26.612366
v -32.262056 12.469999 -29.142524
v -32.262056 12.420001 -29.142524
v -38.524334 12.420001 -26.612366
v -38.505584 12.469999 -26.566016
v -38.524334 12.469999 -26.612366
v -38.524334 12.420001 -26.612366
v -38.505584 12.420001 -26.566016
v -32.243306 12.469999 -29.096174
v -38.505584 12.469999 -26.566016
v -38.505584 12.420001 -26.566016
v -32.243306 12.420001 -29.096174
f 1585 1586 1588
f 1588 1586 1587
f 1589 1590 1592
f 1592 1590 1591
f 1593 1594 1596
f 1596 1594 1595
f 1597 1598 1600
f 1600 1598 1599
f 1601 1602 1604
f 1604 1602 1603
f 1605 1606 1608
f 1608 1606 1607
o item_958c4ea6_1149664
v -38.459250 12.469999 -26.584760
v -38.593780 12.469999 -26.917730
v -38.640130 12.469999 -26.898980
v -38.505600 12.469999 -26.566010
v -38.640130 12.420001 -26.898980
v -38.593780 12.420001 -26.917730
v -38.459250 12.420001 -26.584760
v -38.505600 12.420001 -26.566010
v -38.640130 12.469999 -26.898980
v -38.593780 12.469999 -26.917730
v -38.593780 12.420001 -26.917730
v -38.640130 12.420001 -26.898980
v -38.505600 12.469999 -26.566010
v -38.640130 12.469999 -26.898980
v -38.640130 12.420001 -26.898980
v -38.505600 12.420001 -26.566010
v -38.459250 12.469999 -26.584760
v -38.505600 12.469999 -26.566010
v -38.505600 12.420001 -26.566010
v -38.459250 12.420001 -26.584760
v -38.593780 12.469999 -26.917730
v -38.459250 12.469999 -26.584760
v -38.459250 12.420001 -26.584760
v -38.593780 12.420001 -26.917730
f 1609 1610 1612
f 1612 1610 1611
f 1613 1614 1616
f 1616 1614 1615
f 1617 1618 1620
f 1620 1618 1619
f 1621 1622 1624
f 1624 1622 1623
f 1625 1626 1628
f 1628 1626 1627
f 1629 1630 1632
f 1632 1630 1631
o item_958c4ea6_1149619
v -39.298235 12.469999 -26.579177
v -38.575035 12.469999 -26.871373
v -38.593785 12.469999 -26.917723
v -39.316985 12.469999 -26.625527
v -38.593785 12.420001 -26.917723
v -38.575035 12.420001 -26.871373
v -39.298235 12.420001 -26.579177
v -39.316985 12.420001 -26.625527
v -38.593785 12.469999 -26.917723
v -38.575035 12.469999 -26.871373
v -38.575035 12.420001 -26.871373
v -38.593785 12.420001 -26.917723
v -39.316985 12.469999 -26.625527
v -38.593785 12.469999 -26.917723
v -38.593785 12.420001 -26.917723
v -39.316985 12.420001 -26.625527
v -39.298235 12.469999 -26.579177
v -39.316985 12.469999 -26.625527
v -39.316985 12.420001 -26.625527
v -39.298235 12.420001 -26.579177
v -38.575035 12.469999 -26.871373
v -39.298235 12.469999 -26.579177
v -39.298235 12.420001 -26.579177
v -38.575035 12.420001 -26.871373
f 1633 1634 1636
f 1636 1634 1635
f 1637 1638 1640
f 1640 1638 1639
f 1641 1642 1644
f 1644 1642 1643
f 1645 1646 1648
f 1648 1646 1647
f 1649 1650 1652
f 1652 1650 1651
f 1653 1654 1656
f 1656 1654 1655
o item_958c4ea6_1149578
v -39.251892 12.469999 -26.597911
v -40.225878 12.469999 -29.008579
v -40.272228 12.469999 -28.989829
v -39.298242 12.469999 -26.579161
v -40.272228 12.420001 -28.989829
v -40.225878 12.420001 -29.008579
v -39.251892 12.420001 -26.597911
v -39.298242 12.420001 -26.579161
v -40.272228 12.469999 -28.989829
v -40.225878 12.469999 -29.008579
v -40.225878 12.420001 -29.008579
v -40.272228 12.420001 -28.989829
v -39.298242 12.469999 -26.579161
v -40.272228 12.469999 -28.989829
v -40.272228 12.420001 -28.989829
v -39.298242 12.420001 -26.579161
v -39.251892 12.469999 -26.597911
v -39.298242 12.469999 -26.579161
v -39.298242 12.420001 -26.579161
v -39.251892 12.420001 -26.597911
v -40.225878 12.469999 -29.008579
v -39.251892 12.469999 -26.597911
v -39.251892 12.420001 -26.597911
v -40.225878 12.420001 -29.008579
f 1657 1658 1660
f 1660 1658 1659
f 1661 1662 1664
f 1664 1662 1663
f 1665 1666 1668
f 1668 1666 1667
f 1669 1670 1672
f 1672 1670 1671
f 1673 1674 1676
f 1676 1674 1675
f 1677 1678 1680
f 1680 1678 1679
o item_958c4ea6_1149123
v -31.830305 12.721849 -27.217125
v -14.133325 12.721849 -34.367265
v -14.152075 12.721849 -34.413615
v -31.849055 12.721849 -27.263475
v -14.152075 12.671851 -34.413615
v -14.133325 12.671851 -34.367265
v -31.830305 12.671851 -27.217125
v -31.849055 12.671851 -27.263475
v -14.152075 12.721849 -34.413615
v -14.133325 12.721849 -34.367265
v -14.133325 12.671851 -34.367265
v -14.152075 12.671851 -34.413615
v -31.849055 12.721849 -27.263475
v -14.152075 12.721849 -34.413615
v -14.152075 12.671851 -34.413615
v -31.849055 12.671851 -27.263475
v -31.830305 12.721849 -27.217125
v -31.849055 12.721849 -27.263475
v -31.849055 12.671851 -27.263475
v -31.830305 12.671851 -27.217125
v -14.133325 12.721849 -34.367265
v -31.830305 12.721849 -27.217125
v -31.830305 12.671851 -27.217125
v -14.133325 12.671851 -34.367265
f 1681 1682 1684
f 1684 1682 1683
f 1685 1686 1688
f 1688 1686 1687
f 1689 1690 1692
f 1692 1690 1691
f 1693 1694 1696
f 1696 1694 1695
f 1697 1698 1700
f 1700 1698 1699
f 1701 1702 1704
f 1704 1702 1703
o item_958c4ea6_1149491
v -30.297820 12.469999 -28.386355
v -20.281770 12.469999 -32.433155
v -20.300520 12.469999 -32.479505
v -30.316570 12.469999 -28.432705
v -20.300520 12.420001 -32.479505
v -20.281770 12.420001 -32.433155
v -30.297820 12.420001 -28.386355
v -30.316570 12.420001 -28.432705
v -20.300520 12.469999 -32.479505
v -20.281770 12.469999 -32.433155
v -20.281770 12.420001 -32.433155
v -20.300520 12.420001 -32.479505
v -30.316570 12.469999 -28.432705
v -20.300520 12.469999 -32.479505
v -20.300520 12.420001 -32.479505
v -30.316570 12.420001 -28.432705
v -30.297820 12.469999 -28.386355
v -30.316570 12.469999 -28.432705
v -30.316570 12.420001 -28.432705
v -30.297820 12.420001 -28.386355
v -20.281770 12.469999 -32.433155
v -30.297820 12.469999 -28.386355
v -30.297820 12.420001 -28.386355
v -20.281770 12.420001 -32.433155
f 1705 1706 1708
f 1708 1706 1707
f 1709 1710 1712
f 1712 1710 1711
f 1713 1714 1716
f 1716 1714 1715
f 1717 1718 1720
f 1720 1718 1719
f 1721 1722 1724
f 1724 1722 1723
f 1725 1726 1728
f 1728 1726 1727
o item_958c4ea6_1149889
v -39.233711 12.469999 -30.904232
v -17.917939 12.469999 -39.516478
v -17.936689 12.469999 -39.562828
v -39.252461 12.469999 -30.950582
v -17.936689 12.420001 -39.562828
v -17.917939 12.420001 -39.516478
v -39.233711 12.420001 -30.904232
v -39.252461 12.420001 -30.950582
v -17.936689 12.469999 -39.562828
v -17.917939 12.469999 -39.516478
v -17.917939 12.420001 -39.516478
v -17.936689 12.420001 -39.562828
v -39.252461 12.469999 -30.950582
v -17.936689 12.469999 -39.562828
v -17.936689 12.420001 -39.562828
v -39.252461 12.420001 -30.950582
v -39.233711 12.469999 -30.904232
v -39.252461 12.469999 -30.950582
v -39.252461 12.420001 -30.950582
v -39.233711 12.420001 -30.904232
v -17.917939 12.469999 -39.516478
v -39.233711 12.469999 -30.904232
v -39.233711 12.420001 -30.904232
v -17.917939 12.420001 -39.516478
f 1729 1730 1732
f 1732 1730 1731
f 1733 1734 1736
f 1736 1734 1735
f 1737 1738 1740
f 1740 1738 1739
f 1741 1742 1744
f 1744 1742 1743
f 1745 1746 1748
f 1748 1746 1747
f 1749 1750 1752
f 1752 1750 1751
o item_958c4ea6_1149077
v -44.252606 12.721849 -29.426505
v -17.747304 12.721849 -40.135485
v -17.766054 12.721849 -40.181835
v -44.271356 12.721849 -29.472855
v -17.766054 12.671851 -40.181835
v -17.747304 12.671851 -40.135485
v -44.252606 12.671851 -29.426505
v -44.271356 12.671851 -29.472855
v -17.766054 12.721849 -40.181835
v -17.747304 12.721849 -40.135485
v -17.747304 12.671851 -40.135485
v -17.766054 12.671851 -40.181835
v -44.271356 12.721849 -29.472855
v -17.766054 12.721849 -40.181835
v -17.766054 12.671851 -40.181835
v -44.271356 12.671851 -29.472855
v -44.252606 12.721849 -29.426505
v -44.271356 12.721849 -29.472855
v -44.271356 12.671851 -29.472855
v -44.252606 12.671851 -29.426505
v -17.747304 12.721849 -40.135485
v -44.252606 12.721849 -29.426505
v -44.252606 12.671851 -29.426505
v -17.747304 12.671851 -40.135485
f 1753 1754 1756
f 1756 1754 1755
f 1757 1758 1760
f 1760 1758 1759
f 1761 1762 1764
f 1764 1762 1763
f 1765 1766 1768
f 1768 1766 1767
f 1769 1770 1772
f 1772 1770 1771
f 1773 1774 1776
f 1776 1774 1775
o item_958c4ea6_1149534
v -40.791416 12.819999 -30.274923
v -39.233754 12.819999 -30.904267
v -39.252504 12.819999 -30.950617
v -40.810166 12.819999 -30.321273
v -39.252504 12.770001 -30.950617
v -39.233754 12.770001 -30.904267
v -40.791416 12.770001 -30.274923
v -40.810166 12.770001 -30.321273
v -39.252504 12.819999 -30.950617
v -39.233754 12.819999 -30.904267
v -39.233754 12.770001 -30.904267
v -39.252504 12.770001 -30.950617
v -40.810166 12.819999 -30.321273
v -39.252504 12.819999 -30.950617
v -39.252504 12.770001 -30.950617
v -40.810166 12.770001 -30.321273
v -40.791416 12.819999 -30.274923
v -40.810166 12.819999 -30.321273
v -40.810166 12.770001 -30.321273
v -40.791416 12.770001 -30.274923
v -39.233754 12.819999 -30.904267
v -40.791416 12.819999 -30.274923
v -40.791416 12.770001 -30.274923
v -39.233754 12.770001 -30.904267
f 1777 1778 1780
f 1780 1778 1779
f 1781 1782 1784
f 1784 1782 1783
f 1785 1786 1788
f 1788 1786 1787
f 1789 1790 1792
f 1792 1790 1791
f 1793 1794 1796
f 1796 1794 1795
f 1797 1798 1800
f 1800 1798 1799
o item_958c4ea6_1090643
v -15.004566 12.719999 -47.978016
v -52.333684 12.719999 -32.895874
v -52.314934 12.719999 -32.849524
v -14.985816 12.719999 -47.931666
v -52.314934 12.670001 -32.849524
v -52.333684 12.670001 -32.895874
v -15.004566 12.670001 -47.978016
v -14.985816 12.670001 -47.931666
v -52.314934 12.719999 -32.849524
v -52.333684 12.719999 -32.895874
v -52.333684 12.670001 -32.895874
v -52.314934 12.670001 -32.849524
v -14.985816 12.719999 -47.931666
v -52.314934 12.719999 -32.849524
v -52.314934 12.670001 -32.849524
v -14.985816 12.670001 -47.931666
v -15.004566 12.719999 -47.978016
v -14.985816 12.719999 -47.931666
v -14.985816 12.670001 -47.931666
v -15.004566 12.670001 -47.978016
v -52.333684 12.719999 -32.895874
v -15.004566 12.719999 -47.978016
v -15.004566 12.670001 -47.978016
v -52.333684 12.670001 -32.895874
f 1801 1802 1804
f 1804 1802 1803
f 1805 1806 1808
f 1808 1806 1807
f 1809 1810 1812
f 1812 1810 1811
f 1813 1814 1816
f 1816 1814 1815
f 1817 1818 1820
f 1820 1818 1819
f 1821 1822 1824
f 1824 1822 1823
o item_958c4ea6_1149215
v -41.694741 12.721849 -23.231669
v -38.916909 12.721849 -24.354001
v -38.935659 12.721849 -24.400351
v -41.713491 12.721849 -23.278019
v -38.935659 12.671851 -24.400351
v -38.916909 12.671851 -24.354001
v -41.694741 12.671851 -23.231669
v -41.713491 12.671851 -23.278019
v -38.935659 12.721849 -24.400351
v -38.916909 12.721849 -24.354001
v -38.916909 12.671851 -24.354001
v -38.935659 12.671851 -24.400351
v -41.713491 12.721849 -23.278019
v -38.935659 12.721849 -24.400351
v -38.935659 12.671851 -24.400351
v -41.713491 12.671851 -23.278019
v -41.694741 12.721849 -23.231669
v -41.713491 12.721849 -23.278019
v -41.713491 12.671851 -23.278019
v -41.694741 12.671851 -23.231669
v -38.916909 12.721849 -24.354001
v -41.694741 12.721849 -23.231669
v -41.694741 12.671851 -23.231669
v -38.916909 12.671851 -24.354001
f 1825 1826 1828
f 1828 1826 1827
f 1829 1830 1832
f 1832 1830 1831
f 1833 1834 1836
f 1836 1834 1835
f 1837 1838 1840
f 1840 1838 1839
f 1841 1842 1844
f 1844 1842 1843
f 1845 1846 1848
f 1848 1846 1847
o item_958c4ea6_1090575
v -52.333783 12.719999 -32.895897
v -45.163747 12.719999 -15.149673
v -45.117397 12.719999 -15.168423
v -52.287433 12.719999 -32.914647
v -45.117397 12.670001 -15.168423
v -45.163747 12.670001 -15.149673
v -52.333783 12.670001 -32.895897
v -52.287433 12.670001 -32.914647
v -45.117397 12.719999 -15.168423
v -45.163747 12.719999 -15.149673
v -45.163747 12.670001 -15.149673
v -45.117397 12.670001 -15.168423
v -52.287433 12.719999 -32.914647
v -45.117397 12.719999 -15.168423
v -45.117397 12.670001 -15.168423
v -52.287433 12.670001 -32.914647
v -52.333783 12.719999 -32.895897
v -52.287433 12.719999 -32.914647
v -52.287433 12.670001 -32.914647
v -52.333783 12.670001 -32.895897
v -45.163747 12.719999 -15.149673
v -52.333783 12.719999 -32.895897
v -52.333783 12.670001 -32.895897
v -45.163747 12.670001 -15.149673
f 1849 1850 1852
f 1852 1850 1851
f 1853 1854 1856
f 1856 1854 1855
f 1857 1858 1860
f 1860 1858 1859
f 1861 1862 1864
f 1864 1862 1863
f 1865 1866 1868
f 1868 1866 1867
f 1869 1870 1872
f 1872 1870 1871
o item_958c4ea6_1149169
v -41.693450 12.721849 -23.231141
v -44.204460 12.721849 -29.446029
v -44.250810 12.721849 -29.427279
v -41.739800 12.721849 -23.212391
v -44.250810 12.671851 -29.427279
v -44.204460 12.671851 -29.446029
v -41.693450 12.671851 -23.231141
v -41.739800 12.671851 -23.212391
v -44.250810 12.721849 -29.427279
v -44.204460 12.721849 -29.446029
v -44.204460 12.671851 -29.446029
v -44.250810 12.671851 -29.427279
v -41.739800 12.721849 -23.212391
v -44.250810 12.721849 -29.427279
v -44.250810 12.671851 -29.427279
v -41.739800 12.671851 -23.212391
v -41.693450 12.721849 -23.231141
v -41.739800 12.721849 -23.212391
v -41.739800 12.671851 -23.212391
v -41.693450 12.671851 -23.231141
v -44.204460 12.721849 -29.446029
v -41.693450 12.721849 -23.231141
v -41.693450 12.671851 -23.231141
v -44.204460 12.671851 -29.446029
f 1873 1874 1876
f 1876 1874 1875
f 1877 1878 1880
f 1880 1878 1879
f 1881 1882 1884
f 1884 1882 1883
f 1885 1886 1888
f 1888 1886 1887
f 1889 1890 1892
f 1892 1890 1891
f 1893 1894 1896
f 1896 1894 1895
