# DIMKO.app — selection export
# Generated: 2026-07-31T07:57:41.180Z
o item_958c4ea6_1196477
v -7.373860 20.581080 15.709000
v -7.373860 20.631080 15.709000
v -7.823860 20.607549 15.709000
v -7.823860 20.606548 15.709000
v -7.374860 20.630026 15.709000
v -7.374860 20.583494 15.709000
v -7.388153 20.596787 15.709000
v -7.388860 20.596080 15.709000
v -7.388860 20.596080 11.100000
v -7.388153 20.596787 11.100000
v -7.374860 20.583494 11.100000
v -7.374860 20.630026 11.100000
v -7.823860 20.606548 11.100000
v -7.823860 20.607549 11.100000
v -7.373860 20.631080 11.100000
v -7.373860 20.581080 11.100000
v -7.823860 20.606548 15.709000
v -7.823860 20.607549 15.709000
v -7.823860 20.607549 11.100000
v -7.823860 20.606548 11.100000
v -7.374860 20.630026 15.709000
v -7.823860 20.606548 15.709000
v -7.823860 20.606548 11.100000
v -7.374860 20.630026 11.100000
v -7.374860 20.583494 15.709000
v -7.374860 20.630026 15.709000
v -7.374860 20.630026 11.100000
v -7.374860 20.583494 11.100000
v -7.388153 20.596787 15.709000
v -7.374860 20.583494 15.709000
v -7.374860 20.583494 11.100000
v -7.388153 20.596787 11.100000
v -7.388860 20.596080 15.709000
v -7.388153 20.596787 15.709000
v -7.388153 20.596787 11.100000
v -7.388860 20.596080 11.100000
v -7.373860 20.581080 15.709000
v -7.388860 20.596080 15.709000
v -7.388860 20.596080 11.100000
v -7.373860 20.581080 11.100000
v -7.373860 20.631080 15.709000
v -7.373860 20.581080 15.709000
v -7.373860 20.581080 11.100000
v -7.373860 20.631080 11.100000
v -7.823860 20.607549 15.709000
v -7.373860 20.631080 15.709000
v -7.373860 20.631080 11.100000
v -7.823860 20.607549 11.100000
f 7 8 1
f 2 3 4
f 6 7 1
f 2 4 5
f 5 6 1
f 1 2 5
f 16 9 10
f 12 13 14
f 16 10 11
f 12 14 15
f 15 16 11
f 11 12 15
f 17 18 20
f 20 18 19
f 21 22 24
f 24 22 23
f 25 26 28
f 28 26 27
f 29 30 32
f 32 30 31
f 33 34 36
f 36 34 35
f 37 38 40
f 40 38 39
f 41 42 44
f 44 42 43
f 45 46 48
f 48 46 47
o item_958c4ea6_1332048
v -23.140000 12.669650 22.660000
v -23.140000 12.719650 22.660000
v -23.140000 12.703980 22.960000
v -23.140000 12.702979 22.960000
v -23.140000 12.718596 22.661000
v -23.140000 12.672064 22.661000
v -23.140000 12.685357 22.674293
v -23.140000 12.684650 22.675000
v -24.140000 12.684650 22.675000
v -24.140000 12.685357 22.674293
v -24.140000 12.672064 22.661000
v -24.140000 12.718596 22.661000
v -24.140000 12.702979 22.960000
v -24.140000 12.703980 22.960000
v -24.140000 12.719650 22.660000
v -24.140000 12.669650 22.660000
v -23.140000 12.702979 22.960000
v -23.140000 12.703980 22.960000
v -24.140000 12.703980 22.960000
v -24.140000 12.702979 22.960000
v -23.140000 12.718596 22.661000
v -23.140000 12.702979 22.960000
v -24.140000 12.702979 22.960000
v -24.140000 12.718596 22.661000
v -23.140000 12.672064 22.661000
v -23.140000 12.718596 22.661000
v -24.140000 12.718596 22.661000
v -24.140000 12.672064 22.661000
v -23.140000 12.685357 22.674293
v -23.140000 12.672064 22.661000
v -24.140000 12.672064 22.661000
v -24.140000 12.685357 22.674293
v -23.140000 12.684650 22.675000
v -23.140000 12.685357 22.674293
v -24.140000 12.685357 22.674293
v -24.140000 12.684650 22.675000
v -23.140000 12.669650 22.660000
v -23.140000 12.684650 22.675000
v -24.140000 12.684650 22.675000
v -24.140000 12.669650 22.660000
v -23.140000 12.719650 22.660000
v -23.140000 12.669650 22.660000
v -24.140000 12.669650 22.660000
v -24.140000 12.719650 22.660000
v -23.140000 12.703980 22.960000
v -23.140000 12.719650 22.660000
v -24.140000 12.719650 22.660000
v -24.140000 12.703980 22.960000
f 55 56 49
f 50 51 52
f 54 55 49
f 50 52 53
f 53 54 49
f 49 50 53
f 64 57 58
f 60 61 62
f 64 58 59
f 60 62 63
f 63 64 59
f 59 60 63
f 65 66 68
f 68 66 67
f 69 70 72
f 72 70 71
f 73 74 76
f 76 74 75
f 77 78 80
f 80 78 79
f 81 82 84
f 84 82 83
f 85 86 88
f 88 86 87
f 89 90 92
f 92 90 91
f 93 94 96
f 96 94 95
o item_958c4ea6_1331970
v -16.209057 20.317019 11.630442
v -16.209058 20.363551 11.630442
v -15.909949 20.347981 11.630442
v -15.909950 20.348983 11.630442
v -16.210059 20.364604 11.630442
v -16.210057 20.314604 11.630442
v -16.195052 20.329607 11.630442
v -16.195759 20.330313 11.630442
v -16.195759 20.330313 9.129558
v -16.195052 20.329607 9.129558
v -16.210057 20.314604 9.129558
v -16.210059 20.364604 9.129558
v -15.909950 20.348983 9.129558
v -15.909949 20.347981 9.129558
v -16.209058 20.363551 9.129558
v -16.209057 20.317019 9.129558
v -16.210059 20.364604 11.630442
v -15.909950 20.348983 11.630442
v -15.909950 20.348983 9.129558
v -16.210059 20.364604 9.129558
v -16.210057 20.314604 11.630442
v -16.210059 20.364604 11.630442
v -16.210059 20.364604 9.129558
v -16.210057 20.314604 9.129558
v -16.195052 20.329607 11.630442
v -16.210057 20.314604 11.630442
v -16.210057 20.314604 9.129558
v -16.195052 20.329607 9.129558
v -16.195759 20.330313 11.630442
v -16.195052 20.329607 11.630442
v -16.195052 20.329607 9.129558
v -16.195759 20.330313 9.129558
v -16.209057 20.317019 11.630442
v -16.195759 20.330313 11.630442
v -16.195759 20.330313 9.129558
v -16.209057 20.317019 9.129558
v -16.209058 20.363551 11.630442
v -16.209057 20.317019 11.630442
v -16.209057 20.317019 9.129558
v -16.209058 20.363551 9.129558
v -15.909949 20.347981 11.630442
v -16.209058 20.363551 11.630442
v -16.209058 20.363551 9.129558
v -15.909949 20.347981 9.129558
v -15.909950 20.348983 11.630442
v -15.909949 20.347981 11.630442
v -15.909949 20.347981 9.129558
v -15.909950 20.348983 9.129558
f 103 104 97
f 98 99 100
f 102 103 97
f 98 100 101
f 101 102 97
f 97 98 101
f 112 105 106
f 108 109 110
f 112 106 107
f 108 110 111
f 111 112 107
f 107 108 111
f 113 114 116
f 116 114 115
f 117 118 120
f 120 118 119
f 121 122 124
f 124 122 123
f 125 126 128
f 128 126 127
f 129 130 132
f 132 130 131
f 133 134 136
f 136 134 135
f 137 138 140
f 140 138 139
f 141 142 144
f 144 142 143
o item_958c4ea6_1332015
v -27.240000 12.669640 22.660000
v -27.240000 12.719640 22.660000
v -27.240000 12.703970 22.960000
v -27.240000 12.702969 22.960000
v -27.240000 12.718586 22.661000
v -27.240000 12.672054 22.661000
v -27.240000 12.685347 22.674293
v -27.240000 12.684640 22.675000
v -28.240000 12.684640 22.675000
v -28.240000 12.685347 22.674293
v -28.240000 12.672054 22.661000
v -28.240000 12.718586 22.661000
v -28.240000 12.702969 22.960000
v -28.240000 12.703970 22.960000
v -28.240000 12.719640 22.660000
v -28.240000 12.669640 22.660000
v -27.240000 12.702969 22.960000
v -27.240000 12.703970 22.960000
v -28.240000 12.703970 22.960000
v -28.240000 12.702969 22.960000
v -27.240000 12.718586 22.661000
v -27.240000 12.702969 22.960000
v -28.240000 12.702969 22.960000
v -28.240000 12.718586 22.661000
v -27.240000 12.672054 22.661000
v -27.240000 12.718586 22.661000
v -28.240000 12.718586 22.661000
v -28.240000 12.672054 22.661000
v -27.240000 12.685347 22.674293
v -27.240000 12.672054 22.661000
v -28.240000 12.672054 22.661000
v -28.240000 12.685347 22.674293
v -27.240000 12.684640 22.675000
v -27.240000 12.685347 22.674293
v -28.240000 12.685347 22.674293
v -28.240000 12.684640 22.675000
v -27.240000 12.669640 22.660000
v -27.240000 12.684640 22.675000
v -28.240000 12.684640 22.675000
v -28.240000 12.669640 22.660000
v -27.240000 12.719640 22.660000
v -27.240000 12.669640 22.660000
v -28.240000 12.669640 22.660000
v -28.240000 12.719640 22.660000
v -27.240000 12.703970 22.960000
v -27.240000 12.719640 22.660000
v -28.240000 12.719640 22.660000
v -28.240000 12.703970 22.960000
f 151 152 145
f 146 147 148
f 150 151 145
f 146 148 149
f 149 150 145
f 145 146 149
f 160 153 154
f 156 157 158
f 160 154 155
f 156 158 159
f 159 160 155
f 155 156 159
f 161 162 164
f 164 162 163
f 165 166 168
f 168 166 167
f 169 170 172
f 172 170 171
f 173 174 176
f 176 174 175
f 177 178 180
f 180 178 179
f 181 182 184
f 184 182 183
f 185 186 188
f 188 186 187
f 189 190 192
f 192 190 191
o item_958c4ea6_1145265
v -6.362599 14.545000 -13.222164
v -6.362599 14.595000 -13.222164
v -6.124135 14.571469 -12.840541
v -6.124135 14.570468 -12.840541
v -6.362069 14.593946 -13.221316
v -6.362069 14.547414 -13.221316
v -6.355024 14.560707 -13.210043
v -6.354650 14.560000 -13.209443
v -7.909097 14.560000 -12.238118
v -7.909471 14.560707 -12.238717
v -7.916515 14.547414 -12.249991
v -7.916515 14.593946 -12.249991
v -7.678581 14.570468 -11.869216
v -7.678581 14.571469 -11.869216
v -7.917045 14.595000 -12.250839
v -7.917045 14.545000 -12.250839
v -6.124135 14.570468 -12.840541
v -6.124135 14.571469 -12.840541
v -7.678581 14.571469 -11.869216
v -7.678581 14.570468 -11.869216
v -6.362069 14.593946 -13.221316
v -6.124135 14.570468 -12.840541
v -7.678581 14.570468 -11.869216
v -7.916515 14.593946 -12.249991
v -6.362069 14.547414 -13.221316
v -6.362069 14.593946 -13.221316
v -7.916515 14.593946 -12.249991
v -7.916515 14.547414 -12.249991
v -6.355024 14.560707 -13.210043
v -6.362069 14.547414 -13.221316
v -7.916515 14.547414 -12.249991
v -7.909471 14.560707 -12.238717
v -6.354650 14.560000 -13.209443
v -6.355024 14.560707 -13.210043
v -7.909471 14.560707 -12.238717
v -7.909097 14.560000 -12.238118
v -6.362599 14.545000 -13.222164
v -6.354650 14.560000 -13.209443
v -7.909097 14.560000 -12.238118
v -7.917045 14.545000 -12.250839
v -6.362599 14.595000 -13.222164
v -6.362599 14.545000 -13.222164
v -7.917045 14.545000 -12.250839
v -7.917045 14.595000 -12.250839
v -6.124135 14.571469 -12.840541
v -6.362599 14.595000 -13.222164
v -7.917045 14.595000 -12.250839
v -7.678581 14.571469 -11.869216
f 199 200 193
f 194 195 196
f 198 199 193
f 194 196 197
f 197 198 193
f 193 194 197
f 208 201 202
f 204 205 206
f 208 202 203
f 204 206 207
f 207 208 203
f 203 204 207
f 209 210 212
f 212 210 211
f 213 214 216
f 216 214 215
f 217 218 220
f 220 218 219
f 221 222 224
f 224 222 223
f 225 226 228
f 228 226 227
f 229 230 232
f 232 230 231
f 233 234 236
f 236 234 235
f 237 238 240
f 240 238 239
o item_958c4ea6_1332094
v -23.604997 12.664600 -19.773009
v -23.604997 12.714600 -19.773009
v -23.350582 12.698930 -19.931985
v -23.350582 12.697929 -19.931985
v -23.604149 12.713546 -19.773539
v -23.604149 12.667014 -19.773539
v -23.592876 12.680307 -19.780584
v -23.592277 12.679600 -19.780958
v -22.797397 12.679600 -18.508883
v -22.797996 12.680307 -18.508509
v -22.809269 12.667014 -18.501464
v -22.809269 12.713546 -18.501464
v -22.555703 12.697929 -18.659911
v -22.555703 12.698930 -18.659911
v -22.810118 12.714600 -18.500935
v -22.810118 12.664600 -18.500935
v -23.350582 12.697929 -19.931985
v -23.350582 12.698930 -19.931985
v -22.555703 12.698930 -18.659911
v -22.555703 12.697929 -18.659911
v -23.604149 12.713546 -19.773539
v -23.350582 12.697929 -19.931985
v -22.555703 12.697929 -18.659911
v -22.809269 12.713546 -18.501464
v -23.604149 12.667014 -19.773539
v -23.604149 12.713546 -19.773539
v -22.809269 12.713546 -18.501464
v -22.809269 12.667014 -18.501464
v -23.592876 12.680307 -19.780584
v -23.604149 12.667014 -19.773539
v -22.809269 12.667014 -18.501464
v -22.797996 12.680307 -18.508509
v -23.592277 12.679600 -19.780958
v -23.592876 12.680307 -19.780584
v -22.797996 12.680307 -18.508509
v -22.797397 12.679600 -18.508883
v -23.604997 12.664600 -19.773009
v -23.592277 12.679600 -19.780958
v -22.797397 12.679600 -18.508883
v -22.810118 12.664600 -18.500935
v -23.604997 12.714600 -19.773009
v -23.604997 12.664600 -19.773009
v -22.810118 12.664600 -18.500935
v -22.810118 12.714600 -18.500935
v -23.350582 12.698930 -19.931985
v -23.604997 12.714600 -19.773009
v -22.810118 12.714600 -18.500935
v -22.555703 12.698930 -18.659911
f 247 248 241
f 242 243 244
f 246 247 241
f 242 244 245
f 245 246 241
f 241 242 245
f 256 249 250
f 252 253 254
f 256 250 251
f 252 254 255
f 255 256 251
f 251 252 255
f 257 258 260
f 260 258 259
f 261 262 264
f 264 262 263
f 265 266 268
f 268 266 267
f 269 270 272
f 272 270 271
f 273 274 276
f 276 274 275
f 277 278 280
f 280 278 279
f 281 282 284
f 284 282 283
f 285 286 288
f 288 286 287
o item_958c4ea6_1332141
v -29.306734 12.667034 -20.802312
v -29.306735 12.713566 -20.802312
v -29.418713 12.697997 -21.079563
v -29.418713 12.698998 -21.079563
v -29.306360 12.714620 -20.801384
v -29.306360 12.664620 -20.801385
v -29.311978 12.679622 -20.815294
v -29.311713 12.680329 -20.814638
v -30.702596 12.680318 -20.252877
v -30.702861 12.679611 -20.253533
v -30.697243 12.664609 -20.239624
v -30.697243 12.714609 -20.239623
v -30.809596 12.698987 -20.517802
v -30.809596 12.697986 -20.517802
v -30.697618 12.713555 -20.240551
v -30.697617 12.667023 -20.240551
v -29.306360 12.714620 -20.801384
v -29.418713 12.698998 -21.079563
v -30.809596 12.698987 -20.517802
v -30.697243 12.714609 -20.239623
v -29.306360 12.664620 -20.801385
v -29.306360 12.714620 -20.801384
v -30.697243 12.714609 -20.239623
v -30.697243 12.664609 -20.239624
v -29.311978 12.679622 -20.815294
v -29.306360 12.664620 -20.801385
v -30.697243 12.664609 -20.239624
v -30.702861 12.679611 -20.253533
v -29.311713 12.680329 -20.814638
v -29.311978 12.679622 -20.815294
v -30.702861 12.679611 -20.253533
v -30.702596 12.680318 -20.252877
v -29.306734 12.667034 -20.802312
v -29.311713 12.680329 -20.814638
v -30.702596 12.680318 -20.252877
v -30.697617 12.667023 -20.240551
v -29.306735 12.713566 -20.802312
v -29.306734 12.667034 -20.802312
v -30.697617 12.667023 -20.240551
v -30.697618 12.713555 -20.240551
v -29.418713 12.697997 -21.079563
v -29.306735 12.713566 -20.802312
v -30.697618 12.713555 -20.240551
v -30.809596 12.697986 -20.517802
v -29.418713 12.698998 -21.079563
v -29.418713 12.697997 -21.079563
v -30.809596 12.697986 -20.517802
v -30.809596 12.698987 -20.517802
f 295 296 289
f 290 291 292
f 294 295 289
f 290 292 293
f 293 294 289
f 289 290 293
f 304 297 298
f 300 301 302
f 304 298 299
f 300 302 303
f 303 304 299
f 299 300 303
f 305 306 308
f 308 306 307
f 309 310 312
f 312 310 311
f 313 314 316
f 316 314 315
f 317 318 320
f 320 318 319
f 321 322 324
f 324 322 323
f 325 326 328
f 328 326 327
f 329 330 332
f 332 330 331
f 333 334 336
f 336 334 335
o item_958c4ea6_1144852
v -32.285863 15.145000 -29.231207
v -32.285863 15.195000 -29.231207
v -32.117279 15.171469 -28.813976
v -32.117279 15.170468 -28.813976
v -32.285488 15.193946 -29.230280
v -32.285488 15.147414 -29.230280
v -32.280508 15.160707 -29.217955
v -32.280243 15.160000 -29.217299
v -39.417181 15.160000 -26.333597
v -39.417446 15.160707 -26.334252
v -39.422426 15.147414 -26.346577
v -39.422426 15.193946 -26.346577
v -39.254217 15.170468 -25.930273
v -39.254217 15.171469 -25.930273
v -39.422801 15.195000 -26.347504
v -39.422801 15.145000 -26.347504
v -32.117279 15.170468 -28.813976
v -32.117279 15.171469 -28.813976
v -39.254217 15.171469 -25.930273
v -39.254217 15.170468 -25.930273
v -32.285488 15.193946 -29.230280
v -32.117279 15.170468 -28.813976
v -39.254217 15.170468 -25.930273
v -39.422426 15.193946 -26.346577
v -32.285488 15.147414 -29.230280
v -32.285488 15.193946 -29.230280
v -39.422426 15.193946 -26.346577
v -39.422426 15.147414 -26.346577
v -32.280508 15.160707 -29.217955
v -32.285488 15.147414 -29.230280
v -39.422426 15.147414 -26.346577
v -39.417446 15.160707 -26.334252
v -32.280243 15.160000 -29.217299
v -32.280508 15.160707 -29.217955
v -39.417446 15.160707 -26.334252
v -39.417181 15.160000 -26.333597
v -32.285863 15.145000 -29.231207
v -32.280243 15.160000 -29.217299
v -39.417181 15.160000 -26.333597
v -39.422801 15.145000 -26.347504
v -32.285863 15.195000 -29.231207
v -32.285863 15.145000 -29.231207
v -39.422801 15.145000 -26.347504
v -39.422801 15.195000 -26.347504
v -32.117279 15.171469 -28.813976
v -32.285863 15.195000 -29.231207
v -39.422801 15.195000 -26.347504
v -39.254217 15.171469 -25.930273
f 343 344 337
f 338 339 340
f 342 343 337
f 338 340 341
f 341 342 337
f 337 338 341
f 352 345 346
f 348 349 350
f 352 346 347
f 348 350 351
f 351 352 347
f 347 348 351
f 353 354 356
f 356 354 355
f 357 358 360
f 360 358 359
f 361 362 364
f 364 362 363
f 365 366 368
f 368 366 367
f 369 370 372
f 372 370 371
f 373 374 376
f 376 374 375
f 377 378 380
f 380 378 379
f 381 382 384
f 384 382 383
o item_958c4ea6_1145104
v -38.822794 14.945000 -23.988642
v -38.822794 14.995000 -23.988642
v -38.991368 14.971469 -24.405873
v -38.991368 14.970468 -24.405873
v -38.823168 14.993946 -23.989570
v -38.823168 14.947414 -23.989570
v -38.828148 14.960707 -24.001895
v -38.828413 14.960000 -24.002550
v -37.614191 14.960000 -24.493134
v -37.613926 14.960707 -24.492479
v -37.608946 14.947414 -24.480154
v -37.608946 14.993946 -24.480154
v -37.777146 14.970468 -24.896458
v -37.777146 14.971469 -24.896458
v -37.608572 14.995000 -24.479227
v -37.608572 14.945000 -24.479227
v -38.991368 14.970468 -24.405873
v -38.991368 14.971469 -24.405873
v -37.777146 14.971469 -24.896458
v -37.777146 14.970468 -24.896458
v -38.823168 14.993946 -23.989570
v -38.991368 14.970468 -24.405873
v -37.777146 14.970468 -24.896458
v -37.608946 14.993946 -24.480154
v -38.823168 14.947414 -23.989570
v -38.823168 14.993946 -23.989570
v -37.608946 14.993946 -24.480154
v -37.608946 14.947414 -24.480154
v -38.828148 14.960707 -24.001895
v -38.823168 14.947414 -23.989570
v -37.608946 14.947414 -24.480154
v -37.613926 14.960707 -24.492479
v -38.828413 14.960000 -24.002550
v -38.828148 14.960707 -24.001895
v -37.613926 14.960707 -24.492479
v -37.614191 14.960000 -24.493134
v -38.822794 14.945000 -23.988642
v -38.828413 14.960000 -24.002550
v -37.614191 14.960000 -24.493134
v -37.608572 14.945000 -24.479227
v -38.822794 14.995000 -23.988642
v -38.822794 14.945000 -23.988642
v -37.608572 14.945000 -24.479227
v -37.608572 14.995000 -24.479227
v -38.991368 14.971469 -24.405873
v -38.822794 14.995000 -23.988642
v -37.608572 14.995000 -24.479227
v -37.777146 14.971469 -24.896458
f 391 392 385
f 386 387 388
f 390 391 385
f 386 388 389
f 389 390 385
f 385 386 389
f 400 393 394
f 396 397 398
f 400 394 395
f 396 398 399
f 399 400 395
f 395 396 399
f 401 402 404
f 404 402 403
f 405 406 408
f 408 406 407
f 409 410 412
f 412 410 411
f 413 414 416
f 416 414 415
f 417 418 420
f 420 418 419
f 421 422 424
f 424 422 423
f 425 426 428
f 428 426 427
f 429 430 432
f 432 430 431
o item_958c4ea6_1136237
v -38.494472 14.945000 -26.679454
v -38.494472 14.995000 -26.679454
v -38.911703 14.971469 -26.510879
v -38.911703 14.970468 -26.510879
v -38.495399 14.993946 -26.679079
v -38.495399 14.947414 -26.679079
v -38.507724 14.960707 -26.674100
v -38.508380 14.960000 -26.673835
v -38.586344 14.960000 -26.866801
v -38.585689 14.960707 -26.867066
v -38.573364 14.947414 -26.872046
v -38.573364 14.993946 -26.872046
v -38.989668 14.970468 -26.703846
v -38.989668 14.971469 -26.703846
v -38.572437 14.995000 -26.872421
v -38.572437 14.945000 -26.872421
v -38.911703 14.970468 -26.510879
v -38.911703 14.971469 -26.510879
v -38.989668 14.971469 -26.703846
v -38.989668 14.970468 -26.703846
v -38.495399 14.993946 -26.679079
v -38.911703 14.970468 -26.510879
v -38.989668 14.970468 -26.703846
v -38.573364 14.993946 -26.872046
v -38.495399 14.947414 -26.679079
v -38.495399 14.993946 -26.679079
v -38.573364 14.993946 -26.872046
v -38.573364 14.947414 -26.872046
v -38.507724 14.960707 -26.674100
v -38.495399 14.947414 -26.679079
v -38.573364 14.947414 -26.872046
v -38.585689 14.960707 -26.867066
v -38.508380 14.960000 -26.673835
v -38.507724 14.960707 -26.674100
v -38.585689 14.960707 -26.867066
v -38.586344 14.960000 -26.866801
v -38.494472 14.945000 -26.679454
v -38.508380 14.960000 -26.673835
v -38.586344 14.960000 -26.866801
v -38.572437 14.945000 -26.872421
v -38.494472 14.995000 -26.679454
v -38.494472 14.945000 -26.679454
v -38.572437 14.945000 -26.872421
v -38.572437 14.995000 -26.872421
v -38.911703 14.971469 -26.510879
v -38.494472 14.995000 -26.679454
v -38.572437 14.995000 -26.872421
v -38.989668 14.971469 -26.703846
f 439 440 433
f 434 435 436
f 438 439 433
f 434 436 437
f 437 438 433
f 433 434 437
f 448 441 442
f 444 445 446
f 448 442 443
f 444 446 447
f 447 448 443
f 443 444 447
f 449 450 452
f 452 450 451
f 453 454 456
f 456 454 455
f 457 458 460
f 460 458 459
f 461 462 464
f 464 462 463
f 465 466 468
f 468 466 467
f 469 470 472
f 472 470 471
f 473 474 476
f 476 474 475
f 477 478 480
f 480 478 479
o item_958c4ea6_1136156
v -39.251889 14.954620 -26.597909
v -39.251889 15.004620 -26.597909
v -39.669120 14.981089 -26.429334
v -39.669120 14.980088 -26.429334
v -39.252816 15.003566 -26.597534
v -39.252816 14.957034 -26.597534
v -39.265141 14.970327 -26.592554
v -39.265796 14.969620 -26.592290
v -40.820428 14.969620 -30.440087
v -40.819772 14.970327 -30.440351
v -40.807447 14.957034 -30.445331
v -40.807447 15.003566 -30.445331
v -41.223751 14.980088 -30.277131
v -41.223751 14.981089 -30.277131
v -40.806520 15.004620 -30.445706
v -40.806520 14.954620 -30.445706
v -39.669120 14.980088 -26.429334
v -39.669120 14.981089 -26.429334
v -41.223751 14.981089 -30.277131
v -41.223751 14.980088 -30.277131
v -39.252816 15.003566 -26.597534
v -39.669120 14.980088 -26.429334
v -41.223751 14.980088 -30.277131
v -40.807447 15.003566 -30.445331
v -39.252816 14.957034 -26.597534
v -39.252816 15.003566 -26.597534
v -40.807447 15.003566 -30.445331
v -40.807447 14.957034 -30.445331
v -39.265141 14.970327 -26.592554
v -39.252816 14.957034 -26.597534
v -40.807447 14.957034 -30.445331
v -40.819772 14.970327 -30.440351
v -39.265796 14.969620 -26.592290
v -39.265141 14.970327 -26.592554
v -40.819772 14.970327 -30.440351
v -40.820428 14.969620 -30.440087
v -39.251889 14.954620 -26.597909
v -39.265796 14.969620 -26.592290
v -40.820428 14.969620 -30.440087
v -40.806520 14.954620 -30.445706
v -39.251889 15.004620 -26.597909
v -39.251889 14.954620 -26.597909
v -40.806520 14.954620 -30.445706
v -40.806520 15.004620 -30.445706
v -39.669120 14.981089 -26.429334
v -39.251889 15.004620 -26.597909
v -40.806520 15.004620 -30.445706
v -41.223751 14.981089 -30.277131
f 487 488 481
f 482 483 484
f 486 487 481
f 482 484 485
f 485 486 481
f 481 482 485
f 496 489 490
f 492 493 494
f 496 490 491
f 492 494 495
f 495 496 491
f 491 492 495
f 497 498 500
f 500 498 499
f 501 502 504
f 504 502 503
f 505 506 508
f 508 506 507
f 509 510 512
f 512 510 511
f 513 514 516
f 516 514 515
f 517 518 520
f 520 518 519
f 521 522 524
f 524 522 523
f 525 526 528
f 528 526 527
