# DIMKO.app — selection export
# Generated: 2026-07-29T08:05:37.013Z
o item_92b0f140_1069161
v 14.999321 25.964995 -45.134641
v 15.000083 25.965702 -45.134641
v 15.014422 25.952409 -45.134643
v 15.014422 25.998943 -45.134643
v 14.606677 25.980094 -45.134606
v 14.606677 25.933460 -45.134606
v 14.621016 25.946752 -45.134607
v 14.621779 25.946045 -45.134607
v 14.605599 25.931046 -45.134606
v 14.605599 25.981045 -45.134606
v 15.015501 25.999994 -45.134643
v 15.015501 25.949995 -45.134643
v 15.853094 25.964995 -43.024115
v 15.867001 25.949995 -43.029734
v 15.867001 25.999994 -43.029734
v 15.514673 25.981045 -42.887375
v 15.514673 25.931046 -42.887375
v 15.528581 25.946045 -42.892994
v 15.527925 25.946752 -42.892729
v 15.515600 25.933460 -42.887749
v 15.515600 25.980094 -42.887749
v 15.866074 25.998943 -43.029359
v 15.866074 25.952409 -43.029359
v 15.853749 25.965702 -43.024379
v 15.015501 25.999994 -45.134643
v 14.605599 25.981045 -45.134606
v 15.514673 25.981045 -42.887375
v 15.867001 25.999994 -43.029734
v 15.866074 25.952409 -43.029359
v 15.866074 25.998943 -43.029359
v 15.014422 25.998943 -45.134643
v 15.014422 25.952409 -45.134643
v 15.867001 25.949995 -43.029734
v 15.853094 25.964995 -43.024115
v 14.999321 25.964995 -45.134641
v 15.015501 25.949995 -45.134643
v 15.015501 25.949995 -45.134643
v 15.015501 25.999994 -45.134643
v 15.867001 25.999994 -43.029734
v 15.867001 25.949995 -43.029734
v 15.866074 25.998943 -43.029359
v 15.515600 25.980094 -42.887749
v 14.606677 25.980094 -45.134606
v 15.014422 25.998943 -45.134643
v 14.606677 25.933460 -45.134606
v 14.606677 25.980094 -45.134606
v 15.515600 25.980094 -42.887749
v 15.515600 25.933460 -42.887749
v 14.621016 25.946752 -45.134607
v 14.606677 25.933460 -45.134606
v 15.515600 25.933460 -42.887749
v 15.527925 25.946752 -42.892729
v 14.621779 25.946045 -45.134607
v 14.621016 25.946752 -45.134607
v 15.527925 25.946752 -42.892729
v 15.528581 25.946045 -42.892994
v 15.528581 25.946045 -42.892994
v 15.514673 25.931046 -42.887375
v 14.605599 25.931046 -45.134606
v 14.621779 25.946045 -45.134607
v 14.605599 25.981045 -45.134606
v 14.605599 25.931046 -45.134606
v 15.514673 25.931046 -42.887375
v 15.514673 25.981045 -42.887375
v 15.000083 25.965702 -45.134641
v 14.999321 25.964995 -45.134641
v 15.853094 25.964995 -43.024115
v 15.853749 25.965702 -43.024379
v 15.014422 25.952409 -45.134643
v 15.000083 25.965702 -45.134641
v 15.853749 25.965702 -43.024379
v 15.866074 25.952409 -43.029359
f 12 1 2
f 6 7 8
f 12 2 3
f 6 8 9
f 11 12 3
f 5 6 9
f 11 3 4
f 5 9 10
f 10 11 4
f 4 5 10
f 23 24 13
f 17 18 19
f 23 13 14
f 17 19 20
f 22 23 14
f 16 17 20
f 22 14 15
f 16 20 21
f 21 22 15
f 15 16 21
f 25 26 28
f 28 26 27
f 29 30 32
f 32 30 31
f 33 34 36
f 36 34 35
f 37 38 40
f 40 38 39
f 41 42 44
f 44 42 43
f 45 46 48
f 48 46 47
f 49 50 52
f 52 50 51
f 53 54 56
f 56 54 55
f 57 58 60
f 60 58 59
f 61 62 64
f 64 62 63
f 65 66 68
f 68 66 67
f 69 70 72
f 72 70 71
o item_92b0f140_1124661
v -21.426372 25.949992 -34.199402
v -21.426372 26.000001 -34.199402
v -21.029050 25.981048 -33.950012
v -21.029050 25.931039 -33.950012
v -21.044734 25.946042 -33.959857
v -21.043994 25.946749 -33.959392
v -21.030095 25.933453 -33.950669
v -21.030095 25.980097 -33.950669
v -21.425326 25.998950 -34.198745
v -21.425326 25.952407 -34.198745
v -21.411427 25.965702 -34.190021
v -21.410688 25.964995 -34.189557
v -21.321397 25.965702 -32.828662
v -21.334372 25.952407 -32.823417
v -21.334372 25.998950 -32.823417
v -20.965410 25.980097 -32.972551
v -20.965410 25.933453 -32.972551
v -20.978386 25.946749 -32.967307
v -20.979076 25.946042 -32.967028
v -20.964434 25.931039 -32.972946
v -20.964434 25.981048 -32.972946
v -21.335349 26.000001 -32.823022
v -21.335349 25.949992 -32.823022
v -21.320707 25.964995 -32.828940
v -21.029050 25.981048 -33.950012
v -21.426372 26.000001 -34.199402
v -21.335349 26.000001 -32.823022
v -20.964434 25.981048 -32.972946
v -21.425326 25.952407 -34.198745
v -21.425326 25.998950 -34.198745
v -21.334372 25.998950 -32.823417
v -21.334372 25.952407 -32.823417
v -21.335349 25.949992 -32.823022
v -21.426372 25.949992 -34.199402
v -21.410688 25.964995 -34.189557
v -21.320707 25.964995 -32.828940
v -21.335349 26.000001 -32.823022
v -21.426372 26.000001 -34.199402
v -21.426372 25.949992 -34.199402
v -21.335349 25.949992 -32.823022
v -21.334372 25.998950 -32.823417
v -21.425326 25.998950 -34.198745
v -21.030095 25.980097 -33.950669
v -20.965410 25.980097 -32.972551
v -20.965410 25.980097 -32.972551
v -21.030095 25.980097 -33.950669
v -21.030095 25.933453 -33.950669
v -20.965410 25.933453 -32.972551
v -21.030095 25.933453 -33.950669
v -21.043994 25.946749 -33.959392
v -20.978386 25.946749 -32.967307
v -20.965410 25.933453 -32.972551
v -21.043994 25.946749 -33.959392
v -21.044734 25.946042 -33.959857
v -20.979076 25.946042 -32.967028
v -20.978386 25.946749 -32.967307
v -20.979076 25.946042 -32.967028
v -21.044734 25.946042 -33.959857
v -21.029050 25.931039 -33.950012
v -20.964434 25.931039 -32.972946
v -21.029050 25.931039 -33.950012
v -21.029050 25.981048 -33.950012
v -20.964434 25.981048 -32.972946
v -20.964434 25.931039 -32.972946
v -21.410688 25.964995 -34.189557
v -21.411427 25.965702 -34.190021
v -21.321397 25.965702 -32.828662
v -21.320707 25.964995 -32.828940
v -21.411427 25.965702 -34.190021
v -21.425326 25.952407 -34.198745
v -21.334372 25.952407 -32.823417
v -21.321397 25.965702 -32.828662
f 83 84 73
f 76 77 78
f 82 83 73
f 76 78 79
f 81 82 73
f 75 76 79
f 81 73 74
f 75 79 80
f 80 81 74
f 74 75 80
f 95 96 85
f 89 90 91
f 95 85 86
f 89 91 92
f 94 95 86
f 88 89 92
f 94 86 87
f 88 92 93
f 93 94 87
f 87 88 93
f 97 98 100
f 100 98 99
f 101 102 104
f 104 102 103
f 105 106 108
f 108 106 107
f 109 110 112
f 112 110 111
f 113 114 116
f 116 114 115
f 117 118 120
f 120 118 119
f 121 122 124
f 124 122 123
f 125 126 128
f 128 126 127
f 129 130 132
f 132 130 131
f 133 134 136
f 136 134 135
f 137 138 140
f 140 138 139
f 141 142 144
f 144 142 143
o item_92b0f140_1134103
v -21.160788 25.949992 -30.211925
v -21.160788 26.000001 -30.211925
v -20.789869 25.981048 -30.361775
v -20.789869 25.931039 -30.361775
v -20.804510 25.946042 -30.355859
v -20.803820 25.946749 -30.356138
v -20.790845 25.933453 -30.361380
v -20.790845 25.980097 -30.361380
v -21.159812 25.998950 -30.212318
v -21.159812 25.952407 -30.212318
v -21.146836 25.965702 -30.217560
v -21.146146 25.964995 -30.217839
v -20.988170 25.965702 -27.818334
v -21.001434 25.952407 -27.817452
v -21.001434 25.998950 -27.817452
v -20.624269 25.980097 -27.842555
v -20.624269 25.933453 -27.842555
v -20.637533 25.946749 -27.841672
v -20.638238 25.946042 -27.841625
v -20.623271 25.931039 -27.842621
v -20.623271 25.981048 -27.842621
v -21.002431 26.000001 -27.817385
v -21.002431 25.949992 -27.817385
v -20.987465 25.964995 -27.818381
v -20.623271 25.981048 -27.842621
v -20.789869 25.981048 -30.361775
v -21.160788 26.000001 -30.211925
v -21.002431 26.000001 -27.817385
v -21.001434 25.952407 -27.817452
v -21.159812 25.952407 -30.212318
v -21.159812 25.998950 -30.212318
v -21.001434 25.998950 -27.817452
v -21.160788 25.949992 -30.211925
v -21.146146 25.964995 -30.217839
v -20.987465 25.964995 -27.818381
v -21.002431 25.949992 -27.817385
v -21.002431 26.000001 -27.817385
v -21.160788 26.000001 -30.211925
v -21.160788 25.949992 -30.211925
v -21.002431 25.949992 -27.817385
v -21.159812 25.998950 -30.212318
v -20.790845 25.980097 -30.361380
v -20.624269 25.980097 -27.842555
v -21.001434 25.998950 -27.817452
v -20.790845 25.980097 -30.361380
v -20.790845 25.933453 -30.361380
v -20.624269 25.933453 -27.842555
v -20.624269 25.980097 -27.842555
v -20.624269 25.933453 -27.842555
v -20.790845 25.933453 -30.361380
v -20.803820 25.946749 -30.356138
v -20.637533 25.946749 -27.841672
v -20.637533 25.946749 -27.841672
v -20.803820 25.946749 -30.356138
v -20.804510 25.946042 -30.355859
v -20.638238 25.946042 -27.841625
v -20.804510 25.946042 -30.355859
v -20.789869 25.931039 -30.361775
v -20.623271 25.931039 -27.842621
v -20.638238 25.946042 -27.841625
v -20.789869 25.931039 -30.361775
v -20.789869 25.981048 -30.361775
v -20.623271 25.981048 -27.842621
v -20.623271 25.931039 -27.842621
v -20.987465 25.964995 -27.818381
v -21.146146 25.964995 -30.217839
v -21.146836 25.965702 -30.217560
v -20.988170 25.965702 -27.818334
v -20.988170 25.965702 -27.818334
v -21.146836 25.965702 -30.217560
v -21.159812 25.952407 -30.212318
v -21.001434 25.952407 -27.817452
f 155 156 145
f 148 149 150
f 154 155 145
f 148 150 151
f 153 154 145
f 147 148 151
f 153 145 146
f 147 151 152
f 152 153 146
f 146 147 152
f 167 168 157
f 161 162 163
f 167 157 158
f 161 163 164
f 166 167 158
f 160 161 164
f 166 158 159
f 160 164 165
f 165 166 159
f 159 160 165
f 169 170 172
f 172 170 171
f 173 174 176
f 176 174 175
f 177 178 180
f 180 178 179
f 181 182 184
f 184 182 183
f 185 186 188
f 188 186 187
f 189 190 192
f 192 190 191
f 193 194 196
f 196 194 195
f 197 198 200
f 200 198 199
f 201 202 204
f 204 202 203
f 205 206 208
f 208 206 207
f 209 210 212
f 212 210 211
f 213 214 216
f 216 214 215
o item_92b0f140_1134216
v -21.410866 25.964995 -34.188440
v -21.411605 25.965702 -34.188903
v -21.425506 25.952409 -34.197620
v -21.425506 25.998943 -34.197620
v -21.030243 25.980094 -33.949756
v -21.030243 25.933460 -33.949756
v -21.044144 25.946752 -33.958472
v -21.044883 25.946045 -33.958936
v -21.029198 25.931046 -33.949100
v -21.029198 25.981045 -33.949100
v -21.426552 25.999994 -34.198275
v -21.426552 25.949995 -34.198275
v -19.817548 25.964995 -34.832985
v -19.823168 25.949995 -34.846893
v -19.823168 25.999994 -34.846893
v -19.680808 25.981045 -34.494565
v -19.680808 25.931046 -34.494565
v -19.686428 25.946045 -34.508473
v -19.686163 25.946752 -34.507817
v -19.681183 25.933460 -34.495492
v -19.681183 25.980094 -34.495492
v -19.822793 25.998943 -34.845966
v -19.822793 25.952409 -34.845966
v -19.817813 25.965702 -34.833641
v -19.680808 25.981045 -34.494565
v -19.823168 25.999994 -34.846893
v -21.426552 25.999994 -34.198275
v -21.029198 25.981045 -33.949100
v -19.822793 25.952409 -34.845966
v -19.822793 25.998943 -34.845966
v -21.425506 25.998943 -34.197620
v -21.425506 25.952409 -34.197620
v -21.410866 25.964995 -34.188440
v -21.426552 25.949995 -34.198275
v -19.823168 25.949995 -34.846893
v -19.817548 25.964995 -34.832985
v -21.426552 25.949995 -34.198275
v -21.426552 25.999994 -34.198275
v -19.823168 25.999994 -34.846893
v -19.823168 25.949995 -34.846893
v -21.030243 25.980094 -33.949756
v -21.425506 25.998943 -34.197620
v -19.822793 25.998943 -34.845966
v -19.681183 25.980094 -34.495492
v -21.030243 25.933460 -33.949756
v -21.030243 25.980094 -33.949756
v -19.681183 25.980094 -34.495492
v -19.681183 25.933460 -34.495492
v -19.681183 25.933460 -34.495492
v -19.686163 25.946752 -34.507817
v -21.044144 25.946752 -33.958472
v -21.030243 25.933460 -33.949756
v -19.686163 25.946752 -34.507817
v -19.686428 25.946045 -34.508473
v -21.044883 25.946045 -33.958936
v -21.044144 25.946752 -33.958472
v -21.029198 25.931046 -33.949100
v -21.044883 25.946045 -33.958936
v -19.686428 25.946045 -34.508473
v -19.680808 25.931046 -34.494565
v -19.680808 25.931046 -34.494565
v -19.680808 25.981045 -34.494565
v -21.029198 25.981045 -33.949100
v -21.029198 25.931046 -33.949100
v -19.817548 25.964995 -34.832985
v -19.817813 25.965702 -34.833641
v -21.411605 25.965702 -34.188903
v -21.410866 25.964995 -34.188440
v -19.817813 25.965702 -34.833641
v -19.822793 25.952409 -34.845966
v -21.425506 25.952409 -34.197620
v -21.411605 25.965702 -34.188903
f 228 217 218
f 222 223 224
f 228 218 219
f 222 224 225
f 227 228 219
f 221 222 225
f 227 219 220
f 221 225 226
f 226 227 220
f 220 221 226
f 239 240 229
f 233 234 235
f 239 229 230
f 233 235 236
f 238 239 230
f 232 233 236
f 238 230 231
f 232 236 237
f 237 238 231
f 231 232 237
f 241 242 244
f 244 242 243
f 245 246 248
f 248 246 247
f 249 250 252
f 252 250 251
f 253 254 256
f 256 254 255
f 257 258 260
f 260 258 259
f 261 262 264
f 264 262 263
f 265 266 268
f 268 266 267
f 269 270 272
f 272 270 271
f 273 274 276
f 276 274 275
f 277 278 280
f 280 278 279
f 281 282 284
f 284 282 283
f 285 286 288
f 288 286 287
o item_92b0f140_1134349
v 9.498001 21.850005 0.570000
v 9.498001 21.831055 0.950000
v 9.498001 21.781055 0.950000
v 9.498001 21.796055 0.935000
v 9.498001 21.796762 0.935707
v 9.498001 21.783469 0.949000
v 9.498001 21.830104 0.949000
v 9.498001 21.848954 0.571000
v 9.498001 21.802419 0.571000
v 9.498001 21.815712 0.584293
v 9.498001 21.815005 0.585000
v 9.498001 21.800005 0.570000
v 6.694039 21.800005 0.570000
v 6.694039 21.815005 0.585000
v 6.694039 21.815712 0.584293
v 6.694039 21.802419 0.571000
v 6.694039 21.848954 0.571000
v 6.694039 21.830104 0.949000
v 6.694039 21.783469 0.949000
v 6.694039 21.796762 0.935707
v 6.694039 21.796055 0.935000
v 6.694039 21.781055 0.950000
v 6.694039 21.831055 0.950000
v 6.694039 21.850005 0.570000
v 9.498001 21.781055 0.950000
v 9.498001 21.831055 0.950000
v 6.694039 21.831055 0.950000
v 6.694039 21.781055 0.950000
v 9.498001 21.796055 0.935000
v 9.498001 21.781055 0.950000
v 6.694039 21.781055 0.950000
v 6.694039 21.796055 0.935000
v 9.498001 21.796762 0.935707
v 9.498001 21.796055 0.935000
v 6.694039 21.796055 0.935000
v 6.694039 21.796762 0.935707
v 9.498001 21.783469 0.949000
v 9.498001 21.796762 0.935707
v 6.694039 21.796762 0.935707
v 6.694039 21.783469 0.949000
v 9.498001 21.830104 0.949000
v 9.498001 21.783469 0.949000
v 6.694039 21.783469 0.949000
v 6.694039 21.830104 0.949000
v 9.498001 21.848954 0.571000
v 9.498001 21.830104 0.949000
v 6.694039 21.830104 0.949000
v 6.694039 21.848954 0.571000
v 9.498001 21.802419 0.571000
v 9.498001 21.848954 0.571000
v 6.694039 21.848954 0.571000
v 6.694039 21.802419 0.571000
v 9.498001 21.815712 0.584293
v 9.498001 21.802419 0.571000
v 6.694039 21.802419 0.571000
v 6.694039 21.815712 0.584293
v 9.498001 21.815005 0.585000
v 9.498001 21.815712 0.584293
v 6.694039 21.815712 0.584293
v 6.694039 21.815005 0.585000
v 9.498001 21.800005 0.570000
v 9.498001 21.815005 0.585000
v 6.694039 21.815005 0.585000
v 6.694039 21.800005 0.570000
v 9.498001 21.850005 0.570000
v 9.498001 21.800005 0.570000
v 6.694039 21.800005 0.570000
v 6.694039 21.850005 0.570000
v 9.498001 21.831055 0.950000
v 9.498001 21.850005 0.570000
v 6.694039 21.850005 0.570000
v 6.694039 21.831055 0.950000
f 291 292 293
f 297 298 299
f 291 293 294
f 297 299 300
f 290 291 294
f 296 297 300
f 290 294 295
f 296 300 289
f 289 290 295
f 295 296 289
f 301 302 303
f 307 308 309
f 301 303 304
f 307 309 310
f 312 301 304
f 306 307 310
f 312 304 305
f 306 310 311
f 311 312 305
f 305 306 311
f 313 314 316
f 316 314 315
f 317 318 320
f 320 318 319
f 321 322 324
f 324 322 323
f 325 326 328
f 328 326 327
f 329 330 332
f 332 330 331
f 333 334 336
f 336 334 335
f 337 338 340
f 340 338 339
f 341 342 344
f 344 342 343
f 345 346 348
f 348 346 347
f 349 350 352
f 352 350 351
f 353 354 356
f 356 354 355
f 357 358 360
f 360 358 359
o item_92b0f140_1134404
v 0.751597 21.815005 7.615000
v 0.751597 21.815712 7.615707
v 0.751597 21.802419 7.629000
v 0.751597 21.848954 7.629000
v 0.751597 21.830104 7.251000
v 0.751597 21.783469 7.251000
v 0.751597 21.796762 7.264293
v 0.751597 21.796055 7.265000
v 0.751597 21.781055 7.250000
v 0.751597 21.831055 7.250000
v 0.751597 21.850005 7.630000
v 0.751597 21.800005 7.630000
v -1.220997 21.815005 7.615000
v -1.235997 21.800005 7.630000
v -1.235997 21.850005 7.630000
v -0.855997 21.831055 7.250000
v -0.855997 21.781055 7.250000
v -0.870997 21.796055 7.265000
v -0.870290 21.796762 7.264293
v -0.856997 21.783469 7.251000
v -0.856997 21.830104 7.251000
v -1.234997 21.848954 7.629000
v -1.234997 21.802419 7.629000
v -1.221705 21.815712 7.615707
v 0.751597 21.850005 7.630000
v 0.751597 21.831055 7.250000
v -0.855997 21.831055 7.250000
v -1.235997 21.850005 7.630000
v 0.751597 21.848954 7.629000
v 0.751597 21.802419 7.629000
v -1.234997 21.802419 7.629000
v -1.234997 21.848954 7.629000
v -1.235997 21.800005 7.630000
v -1.220997 21.815005 7.615000
v 0.751597 21.815005 7.615000
v 0.751597 21.800005 7.630000
v 0.751597 21.800005 7.630000
v 0.751597 21.850005 7.630000
v -1.235997 21.850005 7.630000
v -1.235997 21.800005 7.630000
v -1.234997 21.848954 7.629000
v -0.856997 21.830104 7.251000
v 0.751597 21.830104 7.251000
v 0.751597 21.848954 7.629000
v -0.856997 21.830104 7.251000
v -0.856997 21.783469 7.251000
v 0.751597 21.783469 7.251000
v 0.751597 21.830104 7.251000
v 0.751597 21.796762 7.264293
v 0.751597 21.783469 7.251000
v -0.856997 21.783469 7.251000
v -0.870290 21.796762 7.264293
v 0.751597 21.796055 7.265000
v 0.751597 21.796762 7.264293
v -0.870290 21.796762 7.264293
v -0.870997 21.796055 7.265000
v -0.870997 21.796055 7.265000
v -0.855997 21.781055 7.250000
v 0.751597 21.781055 7.250000
v 0.751597 21.796055 7.265000
v -0.855997 21.781055 7.250000
v -0.855997 21.831055 7.250000
v 0.751597 21.831055 7.250000
v 0.751597 21.781055 7.250000
v 0.751597 21.815712 7.615707
v 0.751597 21.815005 7.615000
v -1.220997 21.815005 7.615000
v -1.221705 21.815712 7.615707
v 0.751597 21.802419 7.629000
v 0.751597 21.815712 7.615707
v -1.221705 21.815712 7.615707
v -1.234997 21.802419 7.629000
f 372 361 362
f 366 367 368
f 372 362 363
f 366 368 369
f 371 372 363
f 365 366 369
f 371 363 364
f 365 369 370
f 370 371 364
f 364 365 370
f 383 384 373
f 377 378 379
f 383 373 374
f 377 379 380
f 382 383 374
f 376 377 380
f 382 374 375
f 376 380 381
f 381 382 375
f 375 376 381
f 385 386 388
f 388 386 387
f 389 390 392
f 392 390 391
f 393 394 396
f 396 394 395
f 397 398 400
f 400 398 399
f 401 402 404
f 404 402 403
f 405 406 408
f 408 406 407
f 409 410 412
f 412 410 411
f 413 414 416
f 416 414 415
f 417 418 420
f 420 418 419
f 421 422 424
f 424 422 423
f 425 426 428
f 428 426 427
f 429 430 432
f 432 430 431
o item_92b0f140_1134459
v -1.236000 21.800005 5.131282
v -1.236000 21.850005 5.131282
v -0.856000 21.831055 4.751282
v -0.856000 21.781055 4.751282
v -0.871000 21.796055 4.766282
v -0.870293 21.796762 4.765575
v -0.857000 21.783469 4.752282
v -0.857000 21.830104 4.752282
v -1.235000 21.848954 5.130282
v -1.235000 21.802419 5.130282
v -1.221707 21.815712 5.116989
v -1.221000 21.815005 5.116282
v -1.221707 21.815712 7.615705
v -1.235000 21.802419 7.628998
v -1.235000 21.848954 7.628998
v -0.857000 21.830104 7.250998
v -0.857000 21.783469 7.250998
v -0.870293 21.796762 7.264291
v -0.871000 21.796055 7.264998
v -0.856000 21.781055 7.249998
v -0.856000 21.831055 7.249998
v -1.236000 21.850005 7.629998
v -1.236000 21.800005 7.629998
v -1.221000 21.815005 7.614998
v -0.856000 21.831055 7.249998
v -0.856000 21.831055 4.751282
v -1.236000 21.850005 5.131282
v -1.236000 21.850005 7.629998
v -1.235000 21.802419 7.628998
v -1.235000 21.802419 5.130282
v -1.235000 21.848954 5.130282
v -1.235000 21.848954 7.628998
v -1.236000 21.800005 5.131282
v -1.221000 21.815005 5.116282
v -1.221000 21.815005 7.614998
v -1.236000 21.800005 7.629998
v -1.236000 21.850005 5.131282
v -1.236000 21.800005 5.131282
v -1.236000 21.800005 7.629998
v -1.236000 21.850005 7.629998
v -1.235000 21.848954 5.130282
v -0.857000 21.830104 4.752282
v -0.857000 21.830104 7.250998
v -1.235000 21.848954 7.628998
v -0.857000 21.830104 4.752282
v -0.857000 21.783469 4.752282
v -0.857000 21.783469 7.250998
v -0.857000 21.830104 7.250998
v -0.857000 21.783469 7.250998
v -0.857000 21.783469 4.752282
v -0.870293 21.796762 4.765575
v -0.870293 21.796762 7.264291
v -0.870293 21.796762 7.264291
v -0.870293 21.796762 4.765575
v -0.871000 21.796055 4.766282
v -0.871000 21.796055 7.264998
v -0.871000 21.796055 4.766282
v -0.856000 21.781055 4.751282
v -0.856000 21.781055 7.249998
v -0.871000 21.796055 7.264998
v -0.856000 21.781055 7.249998
v -0.856000 21.781055 4.751282
v -0.856000 21.831055 4.751282
v -0.856000 21.831055 7.249998
v -1.221000 21.815005 7.614998
v -1.221000 21.815005 5.116282
v -1.221707 21.815712 5.116989
v -1.221707 21.815712 7.615705
v -1.221707 21.815712 7.615705
v -1.221707 21.815712 5.116989
v -1.235000 21.802419 5.130282
v -1.235000 21.802419 7.628998
f 443 444 433
f 436 437 438
f 442 443 433
f 436 438 439
f 441 442 433
f 435 436 439
f 441 433 434
f 435 439 440
f 440 441 434
f 434 435 440
f 455 456 445
f 449 450 451
f 455 445 446
f 449 451 452
f 454 455 446
f 448 449 452
f 454 446 447
f 448 452 453
f 453 454 447
f 447 448 453
f 457 458 460
f 460 458 459
f 461 462 464
f 464 462 463
f 465 466 468
f 468 466 467
f 469 470 472
f 472 470 471
f 473 474 476
f 476 474 475
f 477 478 480
f 480 478 479
f 481 482 484
f 484 482 483
f 485 486 488
f 488 486 487
f 489 490 492
f 492 490 491
f 493 494 496
f 496 494 495
f 497 498 500
f 500 498 499
f 501 502 504
f 504 502 503
o item_92b0f140_1134514
v -1.221000 21.815005 5.116280
v -1.221707 21.815712 5.116987
v -1.235000 21.802419 5.130280
v -1.235000 21.848954 5.130280
v -0.857000 21.830104 4.752280
v -0.857000 21.783469 4.752280
v -0.870293 21.796762 4.765573
v -0.871000 21.796055 4.766280
v -0.856000 21.781055 4.751280
v -0.856000 21.831055 4.751280
v -1.236000 21.850005 5.131280
v -1.236000 21.800005 5.131280
v -1.960000 21.815005 5.116280
v -1.960000 21.800005 5.131280
v -1.960000 21.850005 5.131280
v -1.960000 21.831055 4.751280
v -1.960000 21.781055 4.751280
v -1.960000 21.796055 4.766280
v -1.960000 21.796762 4.765573
v -1.960000 21.783469 4.752280
v -1.960000 21.830104 4.752280
v -1.960000 21.848954 5.130280
v -1.960000 21.802419 5.130280
v -1.960000 21.815712 5.116987
v -1.236000 21.850005 5.131280
v -0.856000 21.831055 4.751280
v -1.960000 21.831055 4.751280
v -1.960000 21.850005 5.131280
v -1.235000 21.848954 5.130280
v -1.235000 21.802419 5.130280
v -1.960000 21.802419 5.130280
v -1.960000 21.848954 5.130280
v -1.960000 21.800005 5.131280
v -1.960000 21.815005 5.116280
v -1.221000 21.815005 5.116280
v -1.236000 21.800005 5.131280
v -1.960000 21.850005 5.131280
v -1.960000 21.800005 5.131280
v -1.236000 21.800005 5.131280
v -1.236000 21.850005 5.131280
v -1.960000 21.848954 5.130280
v -1.960000 21.830104 4.752280
v -0.857000 21.830104 4.752280
v -1.235000 21.848954 5.130280
v -1.960000 21.830104 4.752280
v -1.960000 21.783469 4.752280
v -0.857000 21.783469 4.752280
v -0.857000 21.830104 4.752280
v -0.870293 21.796762 4.765573
v -0.857000 21.783469 4.752280
v -1.960000 21.783469 4.752280
v -1.960000 21.796762 4.765573
v -0.871000 21.796055 4.766280
v -0.870293 21.796762 4.765573
v -1.960000 21.796762 4.765573
v -1.960000 21.796055 4.766280
v -1.960000 21.796055 4.766280
v -1.960000 21.781055 4.751280
v -0.856000 21.781055 4.751280
v -0.871000 21.796055 4.766280
v -0.856000 21.831055 4.751280
v -0.856000 21.781055 4.751280
v -1.960000 21.781055 4.751280
v -1.960000 21.831055 4.751280
v -1.221707 21.815712 5.116987
v -1.221000 21.815005 5.116280
v -1.960000 21.815005 5.116280
v -1.960000 21.815712 5.116987
v -1.235000 21.802419 5.130280
v -1.221707 21.815712 5.116987
v -1.960000 21.815712 5.116987
v -1.960000 21.802419 5.130280
f 516 505 506
f 510 511 512
f 516 506 507
f 510 512 513
f 515 516 507
f 509 510 513
f 515 507 508
f 509 513 514
f 514 515 508
f 508 509 514
f 527 528 517
f 521 522 523
f 527 517 518
f 521 523 524
f 526 527 518
f 520 521 524
f 526 518 519
f 520 524 525
f 525 526 519
f 519 520 525
f 529 530 532
f 532 530 531
f 533 534 536
f 536 534 535
f 537 538 540
f 540 538 539
f 541 542 544
f 544 542 543
f 545 546 548
f 548 546 547
f 549 550 552
f 552 550 551
f 553 554 556
f 556 554 555
f 557 558 560
f 560 558 559
f 561 562 564
f 564 562 563
f 565 566 568
f 568 566 567
f 569 570 572
f 572 570 571
f 573 574 576
f 576 574 575
