# DIMKO.app — selection export
# Generated: 2026-07-31T07:55:53.870Z
o item_958c4ea6_1142989
v -3.276972 14.685005 -12.803746
v -3.275998 14.685712 -12.803521
v -3.257681 14.672419 -12.799294
v -3.257681 14.718954 -12.799294
v -3.778535 14.700104 -12.919516
v -3.778535 14.653469 -12.919516
v -3.760218 14.666762 -12.915289
v -3.759244 14.666055 -12.915064
v -3.779913 14.651055 -12.919834
v -3.779913 14.701055 -12.919834
v -3.256303 14.720005 -12.798975
v -3.256303 14.670005 -12.798975
v -7.129436 14.685005 -10.395956
v -7.134207 14.670005 -10.375286
v -7.134207 14.720005 -10.375286
v -7.013337 14.701055 -10.898945
v -7.013337 14.651055 -10.898945
v -7.018108 14.666055 -10.878274
v -7.017883 14.666762 -10.879248
v -7.013655 14.653469 -10.897566
v -7.013655 14.700104 -10.897566
v -7.133889 14.718954 -10.376664
v -7.133889 14.672419 -10.376664
v -7.129661 14.685712 -10.394982
v -3.256303 14.720005 -12.798975
v -3.779913 14.701055 -12.919834
v -7.013337 14.701055 -10.898945
v -7.134207 14.720005 -10.375286
v -3.257681 14.718954 -12.799294
v -3.257681 14.672419 -12.799294
v -7.133889 14.672419 -10.376664
v -7.133889 14.718954 -10.376664
v -3.276972 14.685005 -12.803746
v -3.256303 14.670005 -12.798975
v -7.134207 14.670005 -10.375286
v -7.129436 14.685005 -10.395956
v -7.134207 14.720005 -10.375286
v -7.134207 14.670005 -10.375286
v -3.256303 14.670005 -12.798975
v -3.256303 14.720005 -12.798975
v -3.778535 14.700104 -12.919516
v -3.257681 14.718954 -12.799294
v -7.133889 14.718954 -10.376664
v -7.013655 14.700104 -10.897566
v -3.778535 14.653469 -12.919516
v -3.778535 14.700104 -12.919516
v -7.013655 14.700104 -10.897566
v -7.013655 14.653469 -10.897566
v -3.760218 14.666762 -12.915289
v -3.778535 14.653469 -12.919516
v -7.013655 14.653469 -10.897566
v -7.017883 14.666762 -10.879248
v -3.759244 14.666055 -12.915064
v -3.760218 14.666762 -12.915289
v -7.017883 14.666762 -10.879248
v -7.018108 14.666055 -10.878274
v -7.018108 14.666055 -10.878274
v -7.013337 14.651055 -10.898945
v -3.779913 14.651055 -12.919834
v -3.759244 14.666055 -12.915064
v -7.013337 14.651055 -10.898945
v -7.013337 14.701055 -10.898945
v -3.779913 14.701055 -12.919834
v -3.779913 14.651055 -12.919834
v -7.129436 14.685005 -10.395956
v -7.129661 14.685712 -10.394982
v -3.275998 14.685712 -12.803521
v -3.276972 14.685005 -12.803746
v -3.257681 14.672419 -12.799294
v -3.275998 14.685712 -12.803521
v -7.129661 14.685712 -10.394982
v -7.133889 14.672419 -10.376664
f 12 1 2
f 6 7 8
f 12 2 3
f 6 8 9
f 11 12 3
f 5 6 9
f 11 3 4
f 5 9 10
f 10 11 4
f 4 5 10
f 23 24 13
f 17 18 19
f 23 13 14
f 17 19 20
f 22 23 14
f 16 17 20
f 22 14 15
f 16 20 21
f 21 22 15
f 15 16 21
f 25 26 28
f 28 26 27
f 29 30 32
f 32 30 31
f 33 34 36
f 36 34 35
f 37 38 40
f 40 38 39
f 41 42 44
f 44 42 43
f 45 46 48
f 48 46 47
f 49 50 52
f 52 50 51
f 53 54 56
f 56 54 55
f 57 58 60
f 60 58 59
f 61 62 64
f 64 62 63
f 65 66 68
f 68 66 67
f 69 70 72
f 72 70 71
o item_958c4ea6_1142945
v -9.926631 14.685005 -23.444309
v -9.926406 14.685712 -23.445283
v -9.922178 14.672419 -23.463600
v -9.922178 14.718954 -23.463600
v -10.042401 14.700104 -22.942746
v -10.042401 14.653469 -22.942746
v -10.038172 14.666762 -22.961062
v -10.037948 14.666055 -22.962037
v -10.042719 14.651055 -22.941368
v -10.042719 14.701055 -22.941368
v -9.921859 14.720005 -23.464977
v -9.921859 14.670005 -23.464977
v -3.276352 14.685005 -12.803863
v -3.255682 14.670005 -12.799093
v -3.255682 14.720005 -12.799093
v -3.779340 14.701055 -12.919962
v -3.779340 14.651055 -12.919962
v -3.758669 14.666055 -12.915191
v -3.759644 14.666762 -12.915417
v -3.777962 14.653469 -12.919644
v -3.777962 14.700104 -12.919644
v -3.257059 14.718954 -12.799410
v -3.257059 14.672419 -12.799410
v -3.275378 14.685712 -12.803638
v -9.921859 14.720005 -23.464977
v -10.042719 14.701055 -22.941368
v -3.779340 14.701055 -12.919962
v -3.255682 14.720005 -12.799093
v -9.922178 14.718954 -23.463600
v -9.922178 14.672419 -23.463600
v -3.257059 14.672419 -12.799410
v -3.257059 14.718954 -12.799410
v -3.255682 14.670005 -12.799093
v -3.276352 14.685005 -12.803863
v -9.926631 14.685005 -23.444309
v -9.921859 14.670005 -23.464977
v -9.921859 14.670005 -23.464977
v -9.921859 14.720005 -23.464977
v -3.255682 14.720005 -12.799093
v -3.255682 14.670005 -12.799093
v -10.042401 14.700104 -22.942746
v -9.922178 14.718954 -23.463600
v -3.257059 14.718954 -12.799410
v -3.777962 14.700104 -12.919644
v -10.042401 14.653469 -22.942746
v -10.042401 14.700104 -22.942746
v -3.777962 14.700104 -12.919644
v -3.777962 14.653469 -12.919644
v -10.038172 14.666762 -22.961062
v -10.042401 14.653469 -22.942746
v -3.777962 14.653469 -12.919644
v -3.759644 14.666762 -12.915417
v -10.037948 14.666055 -22.962037
v -10.038172 14.666762 -22.961062
v -3.759644 14.666762 -12.915417
v -3.758669 14.666055 -12.915191
v -3.758669 14.666055 -12.915191
v -3.779340 14.651055 -12.919962
v -10.042719 14.651055 -22.941368
v -10.037948 14.666055 -22.962037
v -3.779340 14.651055 -12.919962
v -3.779340 14.701055 -12.919962
v -10.042719 14.701055 -22.941368
v -10.042719 14.651055 -22.941368
v -9.926406 14.685712 -23.445283
v -9.926631 14.685005 -23.444309
v -3.276352 14.685005 -12.803863
v -3.275378 14.685712 -12.803638
v -9.922178 14.672419 -23.463600
v -9.926406 14.685712 -23.445283
v -3.275378 14.685712 -12.803638
v -3.257059 14.672419 -12.799410
f 84 73 74
f 78 79 80
f 84 74 75
f 78 80 81
f 83 84 75
f 77 78 81
f 83 75 76
f 77 81 82
f 82 83 76
f 76 77 82
f 95 96 85
f 89 90 91
f 95 85 86
f 89 91 92
f 94 95 86
f 88 89 92
f 94 86 87
f 88 92 93
f 93 94 87
f 87 88 93
f 97 98 100
f 100 98 99
f 101 102 104
f 104 102 103
f 105 106 108
f 108 106 107
f 109 110 112
f 112 110 111
f 113 114 116
f 116 114 115
f 117 118 120
f 120 118 119
f 121 122 124
f 124 122 123
f 125 126 128
f 128 126 127
f 129 130 132
f 132 130 131
f 133 134 136
f 136 134 135
f 137 138 140
f 140 138 139
f 141 142 144
f 144 142 143
o item_958c4ea6_1142070
v -7.129039 14.685005 -10.396441
v -7.129264 14.685712 -10.395467
v -7.133492 14.672419 -10.377150
v -7.133492 14.718954 -10.377150
v -7.013269 14.700104 -10.898004
v -7.013269 14.653469 -10.898004
v -7.017498 14.666762 -10.879688
v -7.017722 14.666055 -10.878713
v -7.012951 14.651055 -10.899382
v -7.012951 14.701055 -10.899382
v -7.133811 14.720005 -10.375773
v -7.133811 14.670005 -10.375773
v -13.779318 14.685005 -21.036887
v -13.799988 14.670005 -21.041657
v -13.799988 14.720005 -21.041657
v -13.276330 14.701055 -20.920788
v -13.276330 14.651055 -20.920788
v -13.297001 14.666055 -20.925559
v -13.296026 14.666762 -20.925333
v -13.277708 14.653469 -20.921106
v -13.277708 14.700104 -20.921106
v -13.798611 14.718954 -21.041340
v -13.798611 14.672419 -21.041340
v -13.780292 14.685712 -21.037112
v -7.133811 14.720005 -10.375773
v -7.012951 14.701055 -10.899382
v -13.276330 14.701055 -20.920788
v -13.799988 14.720005 -21.041657
v -7.133492 14.718954 -10.377150
v -7.133492 14.672419 -10.377150
v -13.798611 14.672419 -21.041340
v -13.798611 14.718954 -21.041340
v -13.799988 14.670005 -21.041657
v -13.779318 14.685005 -21.036887
v -7.129039 14.685005 -10.396441
v -7.133811 14.670005 -10.375773
v -7.133811 14.670005 -10.375773
v -7.133811 14.720005 -10.375773
v -13.799988 14.720005 -21.041657
v -13.799988 14.670005 -21.041657
v -7.013269 14.700104 -10.898004
v -7.133492 14.718954 -10.377150
v -13.798611 14.718954 -21.041340
v -13.277708 14.700104 -20.921106
v -7.013269 14.653469 -10.898004
v -7.013269 14.700104 -10.898004
v -13.277708 14.700104 -20.921106
v -13.277708 14.653469 -20.921106
v -7.017498 14.666762 -10.879688
v -7.013269 14.653469 -10.898004
v -13.277708 14.653469 -20.921106
v -13.296026 14.666762 -20.925333
v -7.017722 14.666055 -10.878713
v -7.017498 14.666762 -10.879688
v -13.296026 14.666762 -20.925333
v -13.297001 14.666055 -20.925559
v -13.297001 14.666055 -20.925559
v -13.276330 14.651055 -20.920788
v -7.012951 14.651055 -10.899382
v -7.017722 14.666055 -10.878713
v -13.276330 14.651055 -20.920788
v -13.276330 14.701055 -20.920788
v -7.012951 14.701055 -10.899382
v -7.012951 14.651055 -10.899382
v -7.129264 14.685712 -10.395467
v -7.129039 14.685005 -10.396441
v -13.779318 14.685005 -21.036887
v -13.780292 14.685712 -21.037112
v -7.133492 14.672419 -10.377150
v -7.129264 14.685712 -10.395467
v -13.780292 14.685712 -21.037112
v -13.798611 14.672419 -21.041340
f 156 145 146
f 150 151 152
f 156 146 147
f 150 152 153
f 155 156 147
f 149 150 153
f 155 147 148
f 149 153 154
f 154 155 148
f 148 149 154
f 167 168 157
f 161 162 163
f 167 157 158
f 161 163 164
f 166 167 158
f 160 161 164
f 166 158 159
f 160 164 165
f 165 166 159
f 159 160 165
f 169 170 172
f 172 170 171
f 173 174 176
f 176 174 175
f 177 178 180
f 180 178 179
f 181 182 184
f 184 182 183
f 185 186 188
f 188 186 187
f 189 190 192
f 192 190 191
f 193 194 196
f 196 194 195
f 197 198 200
f 200 198 199
f 201 202 204
f 204 202 203
f 205 206 208
f 208 206 207
f 209 210 212
f 212 210 211
f 213 214 216
f 216 214 215
o item_958c4ea6_1142901
v -13.778698 14.685005 -21.037004
v -13.779672 14.685712 -21.037229
v -13.797989 14.672419 -21.041456
v -13.797989 14.718954 -21.041456
v -13.277135 14.700104 -20.921234
v -13.277135 14.653469 -20.921234
v -13.295452 14.666762 -20.925461
v -13.296426 14.666055 -20.925686
v -13.275757 14.651055 -20.920916
v -13.275757 14.701055 -20.920916
v -13.799367 14.720005 -21.041775
v -13.799367 14.670005 -21.041775
v -9.926234 14.685005 -23.444794
v -9.921463 14.670005 -23.465464
v -9.921463 14.720005 -23.465464
v -10.042333 14.701055 -22.941805
v -10.042333 14.651055 -22.941805
v -10.037562 14.666055 -22.962476
v -10.037787 14.666762 -22.961502
v -10.042015 14.653469 -22.943184
v -10.042015 14.700104 -22.943184
v -9.921781 14.718954 -23.464086
v -9.921781 14.672419 -23.464086
v -9.926009 14.685712 -23.445768
v -13.799367 14.720005 -21.041775
v -13.275757 14.701055 -20.920916
v -10.042333 14.701055 -22.941805
v -9.921463 14.720005 -23.465464
v -13.797989 14.718954 -21.041456
v -13.797989 14.672419 -21.041456
v -9.921781 14.672419 -23.464086
v -9.921781 14.718954 -23.464086
v -13.778698 14.685005 -21.037004
v -13.799367 14.670005 -21.041775
v -9.921463 14.670005 -23.465464
v -9.926234 14.685005 -23.444794
v -9.921463 14.720005 -23.465464
v -9.921463 14.670005 -23.465464
v -13.799367 14.670005 -21.041775
v -13.799367 14.720005 -21.041775
v -13.277135 14.700104 -20.921234
v -13.797989 14.718954 -21.041456
v -9.921781 14.718954 -23.464086
v -10.042015 14.700104 -22.943184
v -13.277135 14.653469 -20.921234
v -13.277135 14.700104 -20.921234
v -10.042015 14.700104 -22.943184
v -10.042015 14.653469 -22.943184
v -13.295452 14.666762 -20.925461
v -13.277135 14.653469 -20.921234
v -10.042015 14.653469 -22.943184
v -10.037787 14.666762 -22.961502
v -13.296426 14.666055 -20.925686
v -13.295452 14.666762 -20.925461
v -10.037787 14.666762 -22.961502
v -10.037562 14.666055 -22.962476
v -10.037562 14.666055 -22.962476
v -10.042333 14.651055 -22.941805
v -13.275757 14.651055 -20.920916
v -13.296426 14.666055 -20.925686
v -10.042333 14.651055 -22.941805
v -10.042333 14.701055 -22.941805
v -13.275757 14.701055 -20.920916
v -13.275757 14.651055 -20.920916
v -9.926234 14.685005 -23.444794
v -9.926009 14.685712 -23.445768
v -13.779672 14.685712 -21.037229
v -13.778698 14.685005 -21.037004
v -13.797989 14.672419 -21.041456
v -13.779672 14.685712 -21.037229
v -9.926009 14.685712 -23.445768
v -9.921781 14.672419 -23.464086
f 228 217 218
f 222 223 224
f 228 218 219
f 222 224 225
f 227 228 219
f 221 222 225
f 227 219 220
f 221 225 226
f 226 227 220
f 220 221 226
f 239 240 229
f 233 234 235
f 239 229 230
f 233 235 236
f 238 239 230
f 232 233 236
f 238 230 231
f 232 236 237
f 237 238 231
f 231 232 237
f 241 242 244
f 244 242 243
f 245 246 248
f 248 246 247
f 249 250 252
f 252 250 251
f 253 254 256
f 256 254 255
f 257 258 260
f 260 258 259
f 261 262 264
f 264 262 263
f 265 266 268
f 268 266 267
f 269 270 272
f 272 270 271
f 273 274 276
f 276 274 275
f 277 278 280
f 280 278 279
f 281 282 284
f 284 282 283
f 285 286 288
f 288 286 287
o item_958c4ea6_1140925
v -14.157380 15.364995 -34.375163
v -14.156273 15.365702 -34.374848
v -14.135453 15.352409 -34.368931
v -14.135453 15.398943 -34.368931
v -14.727496 15.380094 -34.537188
v -14.727496 15.333460 -34.537188
v -14.706675 15.346752 -34.531271
v -14.705569 15.346045 -34.530956
v -14.729062 15.331046 -34.537633
v -14.729062 15.381045 -34.537633
v -14.133887 15.399994 -34.368486
v -14.133887 15.349995 -34.368486
v -20.095741 15.364995 -31.972913
v -20.090121 15.349995 -31.959006
v -20.090121 15.399994 -31.959006
v -20.232473 15.381045 -32.311334
v -20.232473 15.331046 -32.311334
v -20.226854 15.346045 -32.297426
v -20.227119 15.346752 -32.298082
v -20.232099 15.333460 -32.310407
v -20.232099 15.380094 -32.310407
v -20.090496 15.398943 -31.959933
v -20.090496 15.352409 -31.959933
v -20.095476 15.365702 -31.972258
v -20.232473 15.381045 -32.311334
v -20.090121 15.399994 -31.959006
v -14.133887 15.399994 -34.368486
v -14.729062 15.381045 -34.537633
v -20.090496 15.352409 -31.959933
v -20.090496 15.398943 -31.959933
v -14.135453 15.398943 -34.368931
v -14.135453 15.352409 -34.368931
v -14.157380 15.364995 -34.375163
v -14.133887 15.349995 -34.368486
v -20.090121 15.349995 -31.959006
v -20.095741 15.364995 -31.972913
v -20.090121 15.399994 -31.959006
v -20.090121 15.349995 -31.959006
v -14.133887 15.349995 -34.368486
v -14.133887 15.399994 -34.368486
v -14.727496 15.380094 -34.537188
v -14.135453 15.398943 -34.368931
v -20.090496 15.398943 -31.959933
v -20.232099 15.380094 -32.310407
v -20.232099 15.380094 -32.310407
v -20.232099 15.333460 -32.310407
v -14.727496 15.333460 -34.537188
v -14.727496 15.380094 -34.537188
v -20.232099 15.333460 -32.310407
v -20.227119 15.346752 -32.298082
v -14.706675 15.346752 -34.531271
v -14.727496 15.333460 -34.537188
v -20.227119 15.346752 -32.298082
v -20.226854 15.346045 -32.297426
v -14.705569 15.346045 -34.530956
v -14.706675 15.346752 -34.531271
v -14.729062 15.331046 -34.537633
v -14.705569 15.346045 -34.530956
v -20.226854 15.346045 -32.297426
v -20.232473 15.331046 -32.311334
v -20.232473 15.331046 -32.311334
v -20.232473 15.381045 -32.311334
v -14.729062 15.381045 -34.537633
v -14.729062 15.331046 -34.537633
v -20.095741 15.364995 -31.972913
v -20.095476 15.365702 -31.972258
v -14.156273 15.365702 -34.374848
v -14.157380 15.364995 -34.375163
v -20.095476 15.365702 -31.972258
v -20.090496 15.352409 -31.959933
v -14.135453 15.352409 -34.368931
v -14.156273 15.365702 -34.374848
f 300 289 290
f 294 295 296
f 300 290 291
f 294 296 297
f 299 300 291
f 293 294 297
f 299 291 292
f 293 297 298
f 298 299 292
f 292 293 298
f 311 312 301
f 305 306 307
f 311 301 302
f 305 307 308
f 310 311 302
f 304 305 308
f 310 302 303
f 304 308 309
f 309 310 303
f 303 304 309
f 313 314 316
f 316 314 315
f 317 318 320
f 320 318 319
f 321 322 324
f 324 322 323
f 325 326 328
f 328 326 327
f 329 330 332
f 332 330 331
f 333 334 336
f 336 334 335
f 337 338 340
f 340 338 339
f 341 342 344
f 344 342 343
f 345 346 348
f 348 346 347
f 349 350 352
f 352 350 351
f 353 354 356
f 356 354 355
f 357 358 360
f 360 358 359
o item_958c4ea6_1141271
v -31.830342 15.399995 -27.217144
v -31.972694 15.381045 -27.569473
v -31.972694 15.331045 -27.569473
v -31.967075 15.346045 -27.555565
v -31.967340 15.346752 -27.556220
v -31.972320 15.333459 -27.568545
v -31.972320 15.380094 -27.568545
v -31.830717 15.398944 -27.218071
v -31.830717 15.352409 -27.218071
v -31.835697 15.365702 -27.230396
v -31.835962 15.364995 -27.231052
v -31.830342 15.349995 -27.217144
v -30.106806 15.349995 -27.913507
v -30.112425 15.364995 -27.927415
v -30.112160 15.365702 -27.926760
v -30.107180 15.352409 -27.914435
v -30.107180 15.398944 -27.914435
v -30.248783 15.380094 -28.264909
v -30.248783 15.333459 -28.264909
v -30.243803 15.346752 -28.252584
v -30.243538 15.346045 -28.251928
v -30.249158 15.331045 -28.265836
v -30.249158 15.381045 -28.265836
v -30.106806 15.399995 -27.913507
v -31.972694 15.331045 -27.569473
v -31.972694 15.381045 -27.569473
v -30.249158 15.381045 -28.265836
v -30.249158 15.331045 -28.265836
v -31.967075 15.346045 -27.555565
v -31.972694 15.331045 -27.569473
v -30.249158 15.331045 -28.265836
v -30.243538 15.346045 -28.251928
v -31.967340 15.346752 -27.556220
v -31.967075 15.346045 -27.555565
v -30.243538 15.346045 -28.251928
v -30.243803 15.346752 -28.252584
v -31.972320 15.333459 -27.568545
v -31.967340 15.346752 -27.556220
v -30.243803 15.346752 -28.252584
v -30.248783 15.333459 -28.264909
v -31.972320 15.380094 -27.568545
v -31.972320 15.333459 -27.568545
v -30.248783 15.333459 -28.264909
v -30.248783 15.380094 -28.264909
v -31.830717 15.398944 -27.218071
v -31.972320 15.380094 -27.568545
v -30.248783 15.380094 -28.264909
v -30.107180 15.398944 -27.914435
v -31.830717 15.352409 -27.218071
v -31.830717 15.398944 -27.218071
v -30.107180 15.398944 -27.914435
v -30.107180 15.352409 -27.914435
v -31.835697 15.365702 -27.230396
v -31.830717 15.352409 -27.218071
v -30.107180 15.352409 -27.914435
v -30.112160 15.365702 -27.926760
v -31.835962 15.364995 -27.231052
v -31.835697 15.365702 -27.230396
v -30.112160 15.365702 -27.926760
v -30.112425 15.364995 -27.927415
v -31.830342 15.349995 -27.217144
v -31.835962 15.364995 -27.231052
v -30.112425 15.364995 -27.927415
v -30.106806 15.349995 -27.913507
v -31.830342 15.399995 -27.217144
v -31.830342 15.349995 -27.217144
v -30.106806 15.349995 -27.913507
v -30.106806 15.399995 -27.913507
v -31.972694 15.381045 -27.569473
v -31.830342 15.399995 -27.217144
v -30.106806 15.399995 -27.913507
v -30.249158 15.381045 -28.265836
f 363 364 365
f 369 370 371
f 363 365 366
f 369 371 372
f 362 363 366
f 368 369 372
f 362 366 367
f 368 372 361
f 361 362 367
f 367 368 361
f 373 374 375
f 379 380 381
f 373 375 376
f 379 381 382
f 384 373 376
f 378 379 382
f 384 376 377
f 378 382 383
f 383 384 377
f 377 378 383
f 385 386 388
f 388 386 387
f 389 390 392
f 392 390 391
f 393 394 396
f 396 394 395
f 397 398 400
f 400 398 399
f 401 402 404
f 404 402 403
f 405 406 408
f 408 406 407
f 409 410 412
f 412 410 411
f 413 414 416
f 416 414 415
f 417 418 420
f 420 418 419
f 421 422 424
f 424 422 423
f 425 426 428
f 428 426 427
f 429 430 432
f 432 430 431
