# DIMKO.app — selection export
# Generated: 2026-07-31T07:55:33.048Z
o item_958c4ea6_1132449
v -2.775000 20.594995 30.045000
v -2.774293 20.595702 30.045707
v -2.761000 20.582409 30.059000
v -2.761000 20.618944 30.059000
v -3.319000 20.591094 29.501000
v -3.319000 20.554459 29.501000
v -3.305707 20.567752 29.514293
v -3.305000 20.567045 29.515000
v -3.320000 20.552045 29.500000
v -3.320000 20.592045 29.500000
v -2.760000 20.619995 30.060000
v -2.760000 20.579995 30.060000
v -9.070000 20.594995 30.045000
v -9.070000 20.579995 30.060000
v -9.070000 20.619995 30.060000
v -9.070000 20.592045 29.500000
v -9.070000 20.552045 29.500000
v -9.070000 20.567045 29.515000
v -9.070000 20.567752 29.514293
v -9.070000 20.554459 29.501000
v -9.070000 20.591094 29.501000
v -9.070000 20.618944 30.059000
v -9.070000 20.582409 30.059000
v -9.070000 20.595702 30.045707
v -9.070000 20.592045 29.500000
v -9.070000 20.619995 30.060000
v -2.760000 20.619995 30.060000
v -3.320000 20.592045 29.500000
v -2.761000 20.618944 30.059000
v -2.761000 20.582409 30.059000
v -9.070000 20.582409 30.059000
v -9.070000 20.618944 30.059000
v -2.775000 20.594995 30.045000
v -2.760000 20.579995 30.060000
v -9.070000 20.579995 30.060000
v -9.070000 20.594995 30.045000
v -9.070000 20.619995 30.060000
v -9.070000 20.579995 30.060000
v -2.760000 20.579995 30.060000
v -2.760000 20.619995 30.060000
v -3.319000 20.591094 29.501000
v -2.761000 20.618944 30.059000
v -9.070000 20.618944 30.059000
v -9.070000 20.591094 29.501000
v -9.070000 20.591094 29.501000
v -9.070000 20.554459 29.501000
v -3.319000 20.554459 29.501000
v -3.319000 20.591094 29.501000
v -9.070000 20.554459 29.501000
v -9.070000 20.567752 29.514293
v -3.305707 20.567752 29.514293
v -3.319000 20.554459 29.501000
v -9.070000 20.567752 29.514293
v -9.070000 20.567045 29.515000
v -3.305000 20.567045 29.515000
v -3.305707 20.567752 29.514293
v -3.320000 20.552045 29.500000
v -3.305000 20.567045 29.515000
v -9.070000 20.567045 29.515000
v -9.070000 20.552045 29.500000
v -9.070000 20.552045 29.500000
v -9.070000 20.592045 29.500000
v -3.320000 20.592045 29.500000
v -3.320000 20.552045 29.500000
v -9.070000 20.594995 30.045000
v -9.070000 20.595702 30.045707
v -2.774293 20.595702 30.045707
v -2.775000 20.594995 30.045000
v -9.070000 20.595702 30.045707
v -9.070000 20.582409 30.059000
v -2.761000 20.582409 30.059000
v -2.774293 20.595702 30.045707
f 12 1 2
f 6 7 8
f 12 2 3
f 6 8 9
f 11 12 3
f 5 6 9
f 11 3 4
f 5 9 10
f 10 11 4
f 4 5 10
f 23 24 13
f 17 18 19
f 23 13 14
f 17 19 20
f 22 23 14
f 16 17 20
f 22 14 15
f 16 20 21
f 21 22 15
f 15 16 21
f 25 26 28
f 28 26 27
f 29 30 32
f 32 30 31
f 33 34 36
f 36 34 35
f 37 38 40
f 40 38 39
f 41 42 44
f 44 42 43
f 45 46 48
f 48 46 47
f 49 50 52
f 52 50 51
f 53 54 56
f 56 54 55
f 57 58 60
f 60 58 59
f 61 62 64
f 64 62 63
f 65 66 68
f 68 66 67
f 69 70 72
f 72 70 71
o item_958c4ea6_1129923
v -2.775000 20.594995 6.415000
v -2.774293 20.595702 6.414293
v -2.761000 20.582409 6.401000
v -2.761000 20.618944 6.401000
v -3.319000 20.591094 6.959000
v -3.319000 20.554459 6.959000
v -3.305707 20.567752 6.945707
v -3.305000 20.567045 6.945000
v -3.320000 20.552045 6.960000
v -3.320000 20.592045 6.960000
v -2.760000 20.619995 6.400000
v -2.760000 20.579995 6.400000
v -2.775000 20.594995 30.045000
v -2.760000 20.579995 30.060000
v -2.760000 20.619995 30.060000
v -3.320000 20.592045 29.500000
v -3.320000 20.552045 29.500000
v -3.305000 20.567045 29.515000
v -3.305707 20.567752 29.514293
v -3.319000 20.554459 29.501000
v -3.319000 20.591094 29.501000
v -2.761000 20.618944 30.059000
v -2.761000 20.582409 30.059000
v -2.774293 20.595702 30.045707
v -2.760000 20.619995 6.400000
v -3.320000 20.592045 6.960000
v -3.320000 20.592045 29.500000
v -2.760000 20.619995 30.060000
v -2.761000 20.582409 30.059000
v -2.761000 20.618944 30.059000
v -2.761000 20.618944 6.401000
v -2.761000 20.582409 6.401000
v -2.760000 20.579995 30.060000
v -2.775000 20.594995 30.045000
v -2.775000 20.594995 6.415000
v -2.760000 20.579995 6.400000
v -2.760000 20.619995 30.060000
v -2.760000 20.579995 30.060000
v -2.760000 20.579995 6.400000
v -2.760000 20.619995 6.400000
v -3.319000 20.591094 6.959000
v -2.761000 20.618944 6.401000
v -2.761000 20.618944 30.059000
v -3.319000 20.591094 29.501000
v -3.319000 20.554459 6.959000
v -3.319000 20.591094 6.959000
v -3.319000 20.591094 29.501000
v -3.319000 20.554459 29.501000
v -3.305707 20.567752 6.945707
v -3.319000 20.554459 6.959000
v -3.319000 20.554459 29.501000
v -3.305707 20.567752 29.514293
v -3.305707 20.567752 29.514293
v -3.305000 20.567045 29.515000
v -3.305000 20.567045 6.945000
v -3.305707 20.567752 6.945707
v -3.320000 20.552045 6.960000
v -3.305000 20.567045 6.945000
v -3.305000 20.567045 29.515000
v -3.320000 20.552045 29.500000
v -3.320000 20.592045 6.960000
v -3.320000 20.552045 6.960000
v -3.320000 20.552045 29.500000
v -3.320000 20.592045 29.500000
v -2.775000 20.594995 30.045000
v -2.774293 20.595702 30.045707
v -2.774293 20.595702 6.414293
v -2.775000 20.594995 6.415000
v -2.774293 20.595702 30.045707
v -2.761000 20.582409 30.059000
v -2.761000 20.582409 6.401000
v -2.774293 20.595702 6.414293
f 84 73 74
f 78 79 80
f 84 74 75
f 78 80 81
f 83 84 75
f 77 78 81
f 83 75 76
f 77 81 82
f 82 83 76
f 76 77 82
f 95 96 85
f 89 90 91
f 95 85 86
f 89 91 92
f 94 95 86
f 88 89 92
f 94 86 87
f 88 92 93
f 93 94 87
f 87 88 93
f 97 98 100
f 100 98 99
f 101 102 104
f 104 102 103
f 105 106 108
f 108 106 107
f 109 110 112
f 112 110 111
f 113 114 116
f 116 114 115
f 117 118 120
f 120 118 119
f 121 122 124
f 124 122 123
f 125 126 128
f 128 126 127
f 129 130 132
f 132 130 131
f 133 134 136
f 136 134 135
f 137 138 140
f 140 138 139
f 141 142 144
f 144 142 143
o item_958c4ea6_1132400
v -9.120000 20.619995 15.459937
v -8.560000 20.592045 15.459937
v -8.560000 20.552045 15.459937
v -8.575000 20.567045 15.459937
v -8.574293 20.567752 15.459937
v -8.561000 20.554459 15.459937
v -8.561000 20.591094 15.459937
v -9.119000 20.618944 15.459937
v -9.119000 20.582409 15.459937
v -9.105707 20.595702 15.459937
v -9.105000 20.594995 15.459937
v -9.120000 20.579995 15.459937
v -9.120000 20.579995 26.095003
v -9.105000 20.594995 26.095003
v -9.105707 20.595702 26.095003
v -9.119000 20.582409 26.095003
v -9.119000 20.618944 26.095003
v -8.561000 20.591094 26.095003
v -8.561000 20.554459 26.095003
v -8.574293 20.567752 26.095003
v -8.575000 20.567045 26.095003
v -8.560000 20.552045 26.095003
v -8.560000 20.592045 26.095003
v -9.120000 20.619995 26.095003
v -8.560000 20.552045 15.459937
v -8.560000 20.592045 15.459937
v -8.560000 20.592045 26.095003
v -8.560000 20.552045 26.095003
v -8.575000 20.567045 15.459937
v -8.560000 20.552045 15.459937
v -8.560000 20.552045 26.095003
v -8.575000 20.567045 26.095003
v -8.574293 20.567752 15.459937
v -8.575000 20.567045 15.459937
v -8.575000 20.567045 26.095003
v -8.574293 20.567752 26.095003
v -8.561000 20.554459 15.459937
v -8.574293 20.567752 15.459937
v -8.574293 20.567752 26.095003
v -8.561000 20.554459 26.095003
v -8.561000 20.591094 15.459937
v -8.561000 20.554459 15.459937
v -8.561000 20.554459 26.095003
v -8.561000 20.591094 26.095003
v -9.119000 20.618944 15.459937
v -8.561000 20.591094 15.459937
v -8.561000 20.591094 26.095003
v -9.119000 20.618944 26.095003
v -9.119000 20.582409 15.459937
v -9.119000 20.618944 15.459937
v -9.119000 20.618944 26.095003
v -9.119000 20.582409 26.095003
v -9.105707 20.595702 15.459937
v -9.119000 20.582409 15.459937
v -9.119000 20.582409 26.095003
v -9.105707 20.595702 26.095003
v -9.105000 20.594995 15.459937
v -9.105707 20.595702 15.459937
v -9.105707 20.595702 26.095003
v -9.105000 20.594995 26.095003
v -9.120000 20.579995 15.459937
v -9.105000 20.594995 15.459937
v -9.105000 20.594995 26.095003
v -9.120000 20.579995 26.095003
v -9.120000 20.619995 15.459937
v -9.120000 20.579995 15.459937
v -9.120000 20.579995 26.095003
v -9.120000 20.619995 26.095003
v -8.560000 20.592045 15.459937
v -9.120000 20.619995 15.459937
v -9.120000 20.619995 26.095003
v -8.560000 20.592045 26.095003
f 147 148 149
f 153 154 155
f 147 149 150
f 153 155 156
f 146 147 150
f 152 153 156
f 146 150 151
f 152 156 145
f 145 146 151
f 151 152 145
f 157 158 159
f 163 164 165
f 157 159 160
f 163 165 166
f 168 157 160
f 162 163 166
f 168 160 161
f 162 166 167
f 167 168 161
f 161 162 167
f 169 170 172
f 172 170 171
f 173 174 176
f 176 174 175
f 177 178 180
f 180 178 179
f 181 182 184
f 184 182 183
f 185 186 188
f 188 186 187
f 189 190 192
f 192 190 191
f 193 194 196
f 196 194 195
f 197 198 200
f 200 198 199
f 201 202 204
f 204 202 203
f 205 206 208
f 208 206 207
f 209 210 212
f 212 210 211
f 213 214 216
f 216 214 215
o item_958c4ea6_1132269
v -9.102124 20.594995 6.415000
v -9.102966 20.595702 6.414293
v -9.118808 20.582409 6.401000
v -9.118808 20.618944 6.401000
v -8.453810 20.591094 6.959000
v -8.453810 20.554459 6.959000
v -8.469652 20.567752 6.945707
v -8.470494 20.567045 6.945000
v -8.452618 20.552045 6.960000
v -8.452618 20.592045 6.960000
v -9.120000 20.619995 6.400000
v -9.120000 20.579995 6.400000
v -2.775000 20.594995 6.415000
v -2.760000 20.579995 6.400000
v -2.760000 20.619995 6.400000
v -3.320000 20.592045 6.960000
v -3.320000 20.552045 6.960000
v -3.305000 20.567045 6.945000
v -3.305707 20.567752 6.945707
v -3.319000 20.554459 6.959000
v -3.319000 20.591094 6.959000
v -2.761000 20.618944 6.401000
v -2.761000 20.582409 6.401000
v -2.774293 20.595702 6.414293
v -3.320000 20.592045 6.960000
v -2.760000 20.619995 6.400000
v -9.120000 20.619995 6.400000
v -8.452618 20.592045 6.960000
v -2.761000 20.582409 6.401000
v -2.761000 20.618944 6.401000
v -9.118808 20.618944 6.401000
v -9.118808 20.582409 6.401000
v -9.102124 20.594995 6.415000
v -9.120000 20.579995 6.400000
v -2.760000 20.579995 6.400000
v -2.775000 20.594995 6.415000
v -2.760000 20.619995 6.400000
v -2.760000 20.579995 6.400000
v -9.120000 20.579995 6.400000
v -9.120000 20.619995 6.400000
v -8.453810 20.591094 6.959000
v -9.118808 20.618944 6.401000
v -2.761000 20.618944 6.401000
v -3.319000 20.591094 6.959000
v -3.319000 20.591094 6.959000
v -3.319000 20.554459 6.959000
v -8.453810 20.554459 6.959000
v -8.453810 20.591094 6.959000
v -3.319000 20.554459 6.959000
v -3.305707 20.567752 6.945707
v -8.469652 20.567752 6.945707
v -8.453810 20.554459 6.959000
v -3.305707 20.567752 6.945707
v -3.305000 20.567045 6.945000
v -8.470494 20.567045 6.945000
v -8.469652 20.567752 6.945707
v -8.452618 20.552045 6.960000
v -8.470494 20.567045 6.945000
v -3.305000 20.567045 6.945000
v -3.320000 20.552045 6.960000
v -3.320000 20.552045 6.960000
v -3.320000 20.592045 6.960000
v -8.452618 20.592045 6.960000
v -8.452618 20.552045 6.960000
v -2.775000 20.594995 6.415000
v -2.774293 20.595702 6.414293
v -9.102966 20.595702 6.414293
v -9.102124 20.594995 6.415000
v -2.774293 20.595702 6.414293
v -2.761000 20.582409 6.401000
v -9.118808 20.582409 6.401000
v -9.102966 20.595702 6.414293
f 228 217 218
f 222 223 224
f 228 218 219
f 222 224 225
f 227 228 219
f 221 222 225
f 227 219 220
f 221 225 226
f 226 227 220
f 220 221 226
f 239 240 229
f 233 234 235
f 239 229 230
f 233 235 236
f 238 239 230
f 232 233 236
f 238 230 231
f 232 236 237
f 237 238 231
f 231 232 237
f 241 242 244
f 244 242 243
f 245 246 248
f 248 246 247
f 249 250 252
f 252 250 251
f 253 254 256
f 256 254 255
f 257 258 260
f 260 258 259
f 261 262 264
f 264 262 263
f 265 266 268
f 268 266 267
f 269 270 272
f 272 270 271
f 273 274 276
f 276 274 275
f 277 278 280
f 280 278 279
f 281 282 284
f 284 282 283
f 285 286 288
f 288 286 287
o item_958c4ea6_1129036
v -26.120000 12.869998 23.360000
v -25.560000 12.840702 23.360000
v -25.560000 12.800702 23.360000
v -25.575000 12.815702 23.360000
v -25.574293 12.816409 23.360000
v -25.561000 12.803116 23.360000
v -25.561000 12.839753 23.360000
v -26.119000 12.868944 23.360000
v -26.119000 12.832412 23.360000
v -26.105707 12.845705 23.360000
v -26.105000 12.844998 23.360000
v -26.120000 12.829998 23.360000
v -26.120000 12.829998 42.500000
v -26.105000 12.844998 42.500000
v -26.105707 12.845705 42.500000
v -26.119000 12.832412 42.500000
v -26.119000 12.868944 42.500000
v -25.561000 12.839753 42.500000
v -25.561000 12.803116 42.500000
v -25.574293 12.816409 42.500000
v -25.575000 12.815702 42.500000
v -25.560000 12.800702 42.500000
v -25.560000 12.840702 42.500000
v -26.120000 12.869998 42.500000
v -25.560000 12.800702 23.360000
v -25.560000 12.840702 23.360000
v -25.560000 12.840702 42.500000
v -25.560000 12.800702 42.500000
v -25.575000 12.815702 23.360000
v -25.560000 12.800702 23.360000
v -25.560000 12.800702 42.500000
v -25.575000 12.815702 42.500000
v -25.574293 12.816409 23.360000
v -25.575000 12.815702 23.360000
v -25.575000 12.815702 42.500000
v -25.574293 12.816409 42.500000
v -25.561000 12.803116 23.360000
v -25.574293 12.816409 23.360000
v -25.574293 12.816409 42.500000
v -25.561000 12.803116 42.500000
v -25.561000 12.839753 23.360000
v -25.561000 12.803116 23.360000
v -25.561000 12.803116 42.500000
v -25.561000 12.839753 42.500000
v -26.119000 12.868944 23.360000
v -25.561000 12.839753 23.360000
v -25.561000 12.839753 42.500000
v -26.119000 12.868944 42.500000
v -26.119000 12.832412 23.360000
v -26.119000 12.868944 23.360000
v -26.119000 12.868944 42.500000
v -26.119000 12.832412 42.500000
v -26.105707 12.845705 23.360000
v -26.119000 12.832412 23.360000
v -26.119000 12.832412 42.500000
v -26.105707 12.845705 42.500000
v -26.105000 12.844998 23.360000
v -26.105707 12.845705 23.360000
v -26.105707 12.845705 42.500000
v -26.105000 12.844998 42.500000
v -26.120000 12.829998 23.360000
v -26.105000 12.844998 23.360000
v -26.105000 12.844998 42.500000
v -26.120000 12.829998 42.500000
v -26.120000 12.869998 23.360000
v -26.120000 12.829998 23.360000
v -26.120000 12.829998 42.500000
v -26.120000 12.869998 42.500000
v -25.560000 12.840702 23.360000
v -26.120000 12.869998 23.360000
v -26.120000 12.869998 42.500000
v -25.560000 12.840702 42.500000
f 291 292 293
f 297 298 299
f 291 293 294
f 297 299 300
f 290 291 294
f 296 297 300
f 290 294 295
f 296 300 289
f 289 290 295
f 295 296 289
f 301 302 303
f 307 308 309
f 301 303 304
f 307 309 310
f 312 301 304
f 306 307 310
f 312 304 305
f 306 310 311
f 311 312 305
f 305 306 311
f 313 314 316
f 316 314 315
f 317 318 320
f 320 318 319
f 321 322 324
f 324 322 323
f 325 326 328
f 328 326 327
f 329 330 332
f 332 330 331
f 333 334 336
f 336 334 335
f 337 338 340
f 340 338 339
f 341 342 344
f 344 342 343
f 345 346 348
f 348 346 347
f 349 350 352
f 352 350 351
f 353 354 356
f 356 354 355
f 357 358 360
f 360 358 359
o item_958c4ea6_1129247
v -3.503004 12.844998 -17.730000
v -3.503207 12.845705 -17.730707
v -3.507019 12.832412 -17.744000
v -3.507019 12.868944 -17.744000
v -3.347015 12.839753 -17.186000
v -3.347015 12.803116 -17.186000
v -3.350826 12.816409 -17.199293
v -3.351029 12.815702 -17.200000
v -3.346728 12.800702 -17.185000
v -3.346728 12.840702 -17.185000
v -3.507305 12.869998 -17.745000
v -3.507305 12.829998 -17.745000
v 3.630005 12.844998 -17.730000
v 3.630005 12.829998 -17.745000
v 3.630005 12.869998 -17.745000
v 3.630005 12.840702 -17.185000
v 3.630005 12.800702 -17.185000
v 3.630005 12.815702 -17.200000
v 3.630005 12.816409 -17.199293
v 3.630005 12.803116 -17.186000
v 3.630005 12.839753 -17.186000
v 3.630005 12.868944 -17.744000
v 3.630005 12.832412 -17.744000
v 3.630005 12.845705 -17.730707
v 3.630005 12.840702 -17.185000
v 3.630005 12.869998 -17.745000
v -3.507305 12.869998 -17.745000
v -3.346728 12.840702 -17.185000
v -3.507019 12.868944 -17.744000
v -3.507019 12.832412 -17.744000
v 3.630005 12.832412 -17.744000
v 3.630005 12.868944 -17.744000
v -3.503004 12.844998 -17.730000
v -3.507305 12.829998 -17.745000
v 3.630005 12.829998 -17.745000
v 3.630005 12.844998 -17.730000
v 3.630005 12.869998 -17.745000
v 3.630005 12.829998 -17.745000
v -3.507305 12.829998 -17.745000
v -3.507305 12.869998 -17.745000
v -3.347015 12.839753 -17.186000
v -3.507019 12.868944 -17.744000
v 3.630005 12.868944 -17.744000
v 3.630005 12.839753 -17.186000
v -3.347015 12.803116 -17.186000
v -3.347015 12.839753 -17.186000
v 3.630005 12.839753 -17.186000
v 3.630005 12.803116 -17.186000
v 3.630005 12.803116 -17.186000
v 3.630005 12.816409 -17.199293
v -3.350826 12.816409 -17.199293
v -3.347015 12.803116 -17.186000
v 3.630005 12.816409 -17.199293
v 3.630005 12.815702 -17.200000
v -3.351029 12.815702 -17.200000
v -3.350826 12.816409 -17.199293
v -3.346728 12.800702 -17.185000
v -3.351029 12.815702 -17.200000
v 3.630005 12.815702 -17.200000
v 3.630005 12.800702 -17.185000
v -3.346728 12.840702 -17.185000
v -3.346728 12.800702 -17.185000
v 3.630005 12.800702 -17.185000
v 3.630005 12.840702 -17.185000
v 3.630005 12.844998 -17.730000
v 3.630005 12.845705 -17.730707
v -3.503207 12.845705 -17.730707
v -3.503004 12.844998 -17.730000
v 3.630005 12.845705 -17.730707
v 3.630005 12.832412 -17.744000
v -3.507019 12.832412 -17.744000
v -3.503207 12.845705 -17.730707
f 372 361 362
f 366 367 368
f 372 362 363
f 366 368 369
f 371 372 363
f 365 366 369
f 371 363 364
f 365 369 370
f 370 371 364
f 364 365 370
f 383 384 373
f 377 378 379
f 383 373 374
f 377 379 380
f 382 383 374
f 376 377 380
f 382 374 375
f 376 380 381
f 381 382 375
f 375 376 381
f 385 386 388
f 388 386 387
f 389 390 392
f 392 390 391
f 393 394 396
f 396 394 395
f 397 398 400
f 400 398 399
f 401 402 404
f 404 402 403
f 405 406 408
f 408 406 407
f 409 410 412
f 412 410 411
f 413 414 416
f 416 414 415
f 417 418 420
f 420 418 419
f 421 422 424
f 424 422 423
f 425 426 428
f 428 426 427
f 429 430 432
f 432 430 431
o item_958c4ea6_1148933
v -3.507370 12.829998 -17.745099
v -3.507370 12.869998 -17.745099
v -3.346785 12.840702 -17.185085
v -3.346785 12.800702 -17.185085
v -3.351086 12.815702 -17.200085
v -3.350883 12.816409 -17.199378
v -3.347071 12.803116 -17.186085
v -3.347071 12.839753 -17.186085
v -3.507083 12.868944 -17.744099
v -3.507083 12.832412 -17.744099
v -3.503271 12.845705 -17.730805
v -3.503068 12.844998 -17.730099
v -5.584291 12.845705 -16.430168
v -5.591336 12.832412 -16.441441
v -5.591336 12.868944 -16.441441
v -5.295640 12.839753 -15.968229
v -5.295640 12.803116 -15.968229
v -5.302685 12.816409 -15.979502
v -5.303059 12.815702 -15.980102
v -5.295110 12.800702 -15.967381
v -5.295110 12.840702 -15.967381
v -5.591866 12.869998 -16.442289
v -5.591866 12.829998 -16.442289
v -5.583917 12.844998 -16.429568
v -3.346785 12.840702 -17.185085
v -3.507370 12.869998 -17.745099
v -5.591866 12.869998 -16.442289
v -5.295110 12.840702 -15.967381
v -3.507083 12.832412 -17.744099
v -3.507083 12.868944 -17.744099
v -5.591336 12.868944 -16.441441
v -5.591336 12.832412 -16.441441
v -5.591866 12.829998 -16.442289
v -3.507370 12.829998 -17.745099
v -3.503068 12.844998 -17.730099
v -5.583917 12.844998 -16.429568
v -5.591866 12.869998 -16.442289
v -3.507370 12.869998 -17.745099
v -3.507370 12.829998 -17.745099
v -5.591866 12.829998 -16.442289
v -5.591336 12.868944 -16.441441
v -3.507083 12.868944 -17.744099
v -3.347071 12.839753 -17.186085
v -5.295640 12.839753 -15.968229
v -3.347071 12.839753 -17.186085
v -3.347071 12.803116 -17.186085
v -5.295640 12.803116 -15.968229
v -5.295640 12.839753 -15.968229
v -3.347071 12.803116 -17.186085
v -3.350883 12.816409 -17.199378
v -5.302685 12.816409 -15.979502
v -5.295640 12.803116 -15.968229
v -3.350883 12.816409 -17.199378
v -3.351086 12.815702 -17.200085
v -5.303059 12.815702 -15.980102
v -5.302685 12.816409 -15.979502
v -5.303059 12.815702 -15.980102
v -3.351086 12.815702 -17.200085
v -3.346785 12.800702 -17.185085
v -5.295110 12.800702 -15.967381
v -5.295110 12.800702 -15.967381
v -3.346785 12.800702 -17.185085
v -3.346785 12.840702 -17.185085
v -5.295110 12.840702 -15.967381
v -3.503068 12.844998 -17.730099
v -3.503271 12.845705 -17.730805
v -5.584291 12.845705 -16.430168
v -5.583917 12.844998 -16.429568
v -3.503271 12.845705 -17.730805
v -3.507083 12.832412 -17.744099
v -5.591336 12.832412 -16.441441
v -5.584291 12.845705 -16.430168
f 443 444 433
f 436 437 438
f 442 443 433
f 436 438 439
f 441 442 433
f 435 436 439
f 441 433 434
f 435 439 440
f 440 441 434
f 434 435 440
f 455 456 445
f 449 450 451
f 455 445 446
f 449 451 452
f 454 455 446
f 448 449 452
f 454 446 447
f 448 452 453
f 453 454 447
f 447 448 453
f 457 458 460
f 460 458 459
f 461 462 464
f 464 462 463
f 465 466 468
f 468 466 467
f 469 470 472
f 472 470 471
f 473 474 476
f 476 474 475
f 477 478 480
f 480 478 479
f 481 482 484
f 484 482 483
f 485 486 488
f 488 486 487
f 489 490 492
f 492 490 491
f 493 494 496
f 496 494 495
f 497 498 500
f 500 498 499
f 501 502 504
f 504 502 503
o item_958c4ea6_1129691
v -14.505000 12.844998 -7.890000
v -14.505707 12.845705 -7.890000
v -14.519000 12.832412 -7.890000
v -14.519000 12.868944 -7.890000
v -13.961000 12.839753 -7.890000
v -13.961000 12.803116 -7.890000
v -13.974293 12.816409 -7.890000
v -13.975000 12.815702 -7.890000
v -13.960000 12.800702 -7.890000
v -13.960000 12.840702 -7.890000
v -14.520000 12.869998 -7.890000
v -14.520000 12.829998 -7.890000
v -14.505000 12.844998 -17.730000
v -14.520000 12.829998 -17.745000
v -14.520000 12.869998 -17.745000
v -13.960000 12.840702 -17.185000
v -13.960000 12.800702 -17.185000
v -13.975000 12.815702 -17.200000
v -13.974293 12.816409 -17.199293
v -13.961000 12.803116 -17.186000
v -13.961000 12.839753 -17.186000
v -14.519000 12.868944 -17.744000
v -14.519000 12.832412 -17.744000
v -14.505707 12.845705 -17.730707
v -14.520000 12.869998 -7.890000
v -13.960000 12.840702 -7.890000
v -13.960000 12.840702 -17.185000
v -14.520000 12.869998 -17.745000
v -14.519000 12.832412 -17.744000
v -14.519000 12.868944 -17.744000
v -14.519000 12.868944 -7.890000
v -14.519000 12.832412 -7.890000
v -14.520000 12.829998 -17.745000
v -14.505000 12.844998 -17.730000
v -14.505000 12.844998 -7.890000
v -14.520000 12.829998 -7.890000
v -14.520000 12.869998 -17.745000
v -14.520000 12.829998 -17.745000
v -14.520000 12.829998 -7.890000
v -14.520000 12.869998 -7.890000
v -14.519000 12.868944 -17.744000
v -13.961000 12.839753 -17.186000
v -13.961000 12.839753 -7.890000
v -14.519000 12.868944 -7.890000
v -13.961000 12.839753 -17.186000
v -13.961000 12.803116 -17.186000
v -13.961000 12.803116 -7.890000
v -13.961000 12.839753 -7.890000
v -13.974293 12.816409 -7.890000
v -13.961000 12.803116 -7.890000
v -13.961000 12.803116 -17.186000
v -13.974293 12.816409 -17.199293
v -13.975000 12.815702 -7.890000
v -13.974293 12.816409 -7.890000
v -13.974293 12.816409 -17.199293
v -13.975000 12.815702 -17.200000
v -13.975000 12.815702 -17.200000
v -13.960000 12.800702 -17.185000
v -13.960000 12.800702 -7.890000
v -13.975000 12.815702 -7.890000
v -13.960000 12.800702 -17.185000
v -13.960000 12.840702 -17.185000
v -13.960000 12.840702 -7.890000
v -13.960000 12.800702 -7.890000
v -14.505707 12.845705 -7.890000
v -14.505000 12.844998 -7.890000
v -14.505000 12.844998 -17.730000
v -14.505707 12.845705 -17.730707
v -14.519000 12.832412 -7.890000
v -14.505707 12.845705 -7.890000
v -14.505707 12.845705 -17.730707
v -14.519000 12.832412 -17.744000
f 516 505 506
f 510 511 512
f 516 506 507
f 510 512 513
f 515 516 507
f 509 510 513
f 515 507 508
f 509 513 514
f 514 515 508
f 508 509 514
f 527 528 517
f 521 522 523
f 527 517 518
f 521 523 524
f 526 527 518
f 520 521 524
f 526 518 519
f 520 524 525
f 525 526 519
f 519 520 525
f 529 530 532
f 532 530 531
f 533 534 536
f 536 534 535
f 537 538 540
f 540 538 539
f 541 542 544
f 544 542 543
f 545 546 548
f 548 546 547
f 549 550 552
f 552 550 551
f 553 554 556
f 556 554 555
f 557 558 560
f 560 558 559
f 561 562 564
f 564 562 563
f 565 566 568
f 568 566 567
f 569 570 572
f 572 570 571
f 573 574 576
f 576 574 575
o item_958c4ea6_1129641
v -14.504999 12.844998 -17.730000
v -14.505706 12.845705 -17.730707
v -14.518999 12.832412 -17.744000
v -14.518999 12.868944 -17.744000
v -13.960999 12.839753 -17.186000
v -13.960999 12.803116 -17.186000
v -13.974292 12.816409 -17.199293
v -13.974999 12.815702 -17.200000
v -13.959999 12.800702 -17.185000
v -13.959999 12.840702 -17.185000
v -14.519999 12.869998 -17.745000
v -14.519999 12.829998 -17.745000
v -11.670975 12.844998 -17.730000
v -11.680348 12.829998 -17.745000
v -11.680348 12.869998 -17.745000
v -11.330421 12.840702 -17.185000
v -11.330421 12.800702 -17.185000
v -11.339794 12.815702 -17.200000
v -11.339352 12.816409 -17.199293
v -11.331046 12.803116 -17.186000
v -11.331046 12.839753 -17.186000
v -11.679723 12.868944 -17.744000
v -11.679723 12.832412 -17.744000
v -11.671416 12.845705 -17.730707
v -11.330421 12.840702 -17.185000
v -11.680348 12.869998 -17.745000
v -14.519999 12.869998 -17.745000
v -13.959999 12.840702 -17.185000
v -11.679723 12.832412 -17.744000
v -11.679723 12.868944 -17.744000
v -14.518999 12.868944 -17.744000
v -14.518999 12.832412 -17.744000
v -14.504999 12.844998 -17.730000
v -14.519999 12.829998 -17.745000
v -11.680348 12.829998 -17.745000
v -11.670975 12.844998 -17.730000
v -14.519999 12.829998 -17.745000
v -14.519999 12.869998 -17.745000
v -11.680348 12.869998 -17.745000
v -11.680348 12.829998 -17.745000
v -13.960999 12.839753 -17.186000
v -14.518999 12.868944 -17.744000
v -11.679723 12.868944 -17.744000
v -11.331046 12.839753 -17.186000
v -13.960999 12.803116 -17.186000
v -13.960999 12.839753 -17.186000
v -11.331046 12.839753 -17.186000
v -11.331046 12.803116 -17.186000
v -11.331046 12.803116 -17.186000
v -11.339352 12.816409 -17.199293
v -13.974292 12.816409 -17.199293
v -13.960999 12.803116 -17.186000
v -11.339352 12.816409 -17.199293
v -11.339794 12.815702 -17.200000
v -13.974999 12.815702 -17.200000
v -13.974292 12.816409 -17.199293
v -13.959999 12.800702 -17.185000
v -13.974999 12.815702 -17.200000
v -11.339794 12.815702 -17.200000
v -11.330421 12.800702 -17.185000
v -13.959999 12.840702 -17.185000
v -13.959999 12.800702 -17.185000
v -11.330421 12.800702 -17.185000
v -11.330421 12.840702 -17.185000
v -11.670975 12.844998 -17.730000
v -11.671416 12.845705 -17.730707
v -14.505706 12.845705 -17.730707
v -14.504999 12.844998 -17.730000
v -11.671416 12.845705 -17.730707
v -11.679723 12.832412 -17.744000
v -14.518999 12.832412 -17.744000
v -14.505706 12.845705 -17.730707
f 588 577 578
f 582 583 584
f 588 578 579
f 582 584 585
f 587 588 579
f 581 582 585
f 587 579 580
f 581 585 586
f 586 587 580
f 580 581 586
f 599 600 589
f 593 594 595
f 599 589 590
f 593 595 596
f 598 599 590
f 592 593 596
f 598 590 591
f 592 596 597
f 597 598 591
f 591 592 597
f 601 602 604
f 604 602 603
f 605 606 608
f 608 606 607
f 609 610 612
f 612 610 611
f 613 614 616
f 616 614 615
f 617 618 620
f 620 618 619
f 621 622 624
f 624 622 623
f 625 626 628
f 628 626 627
f 629 630 632
f 632 630 631
f 633 634 636
f 636 634 635
f 637 638 640
f 640 638 639
f 641 642 644
f 644 642 643
f 645 646 648
f 648 646 647
