# DIMKO.app — selection export
# Generated: 2026-07-29T08:04:33.229Z
o item_92b0f140_1111738
v -10.655000 20.426991 7.615000
v -10.670000 20.411991 7.630000
v -10.670000 20.451991 7.630000
v -10.301000 20.471329 7.261000
v -10.301000 20.571329 7.261000
v -10.300000 20.571329 7.260000
v -10.300000 20.470380 7.260000
v -10.669000 20.451042 7.629000
v -10.669000 20.414405 7.629000
v -10.655707 20.427698 7.615707
v -6.391000 20.451042 7.629000
v -6.760000 20.470380 7.260000
v -6.760000 20.571329 7.260000
v -6.759000 20.571329 7.261000
v -6.759000 20.471329 7.261000
v -6.390000 20.451991 7.630000
v -6.390000 20.411991 7.630000
v -6.405000 20.426991 7.615000
v -6.404293 20.427698 7.615707
v -6.391000 20.414405 7.629000
v -10.301000 20.471329 7.261000
v -10.670000 20.451991 7.630000
v -6.390000 20.451991 7.630000
v -6.759000 20.471329 7.261000
v -10.301000 20.571329 7.261000
v -10.301000 20.471329 7.261000
v -6.759000 20.471329 7.261000
v -6.759000 20.571329 7.261000
v -6.759000 20.571329 7.261000
v -6.760000 20.571329 7.260000
v -10.300000 20.571329 7.260000
v -10.301000 20.571329 7.261000
v -6.760000 20.571329 7.260000
v -6.760000 20.470380 7.260000
v -10.300000 20.470380 7.260000
v -10.300000 20.571329 7.260000
v -6.760000 20.470380 7.260000
v -6.391000 20.451042 7.629000
v -10.669000 20.451042 7.629000
v -10.300000 20.470380 7.260000
v -6.391000 20.451042 7.629000
v -6.391000 20.414405 7.629000
v -10.669000 20.414405 7.629000
v -10.669000 20.451042 7.629000
v -6.391000 20.414405 7.629000
v -6.404293 20.427698 7.615707
v -10.655707 20.427698 7.615707
v -10.669000 20.414405 7.629000
v -6.404293 20.427698 7.615707
v -6.405000 20.426991 7.615000
v -10.655000 20.426991 7.615000
v -10.655707 20.427698 7.615707
v -6.405000 20.426991 7.615000
v -6.390000 20.411991 7.630000
v -10.670000 20.411991 7.630000
v -10.655000 20.426991 7.615000
v -6.390000 20.411991 7.630000
v -6.390000 20.451991 7.630000
v -10.670000 20.451991 7.630000
v -10.670000 20.411991 7.630000
f 9 10 1
f 4 5 6
f 9 1 2
f 4 6 7
f 8 9 2
f 3 4 7
f 8 2 3
f 3 7 8
f 12 13 14
f 17 18 19
f 12 14 15
f 17 19 20
f 11 12 15
f 16 17 20
f 11 15 16
f 16 20 11
f 21 22 24
f 24 22 23
f 25 26 28
f 28 26 27
f 29 30 32
f 32 30 31
f 33 34 36
f 36 34 35
f 37 38 40
f 40 38 39
f 41 42 44
f 44 42 43
f 45 46 48
f 48 46 47
f 49 50 52
f 52 50 51
f 53 54 56
f 56 54 55
f 57 58 60
f 60 58 59
o item_92b0f140_1112058
v -6.391000 20.414375 5.130282
v -6.391000 20.451012 5.130282
v -6.760000 20.470350 4.761282
v -6.760000 20.571299 4.761282
v -6.759000 20.571299 4.762282
v -6.759000 20.471299 4.762282
v -6.390000 20.451961 5.131282
v -6.390000 20.411961 5.131282
v -6.405000 20.426961 5.116282
v -6.404293 20.427668 5.116989
v -6.391000 20.414375 7.628998
v -6.404293 20.427668 7.615705
v -6.405000 20.426961 7.614998
v -6.390000 20.411961 7.629998
v -6.390000 20.451961 7.629998
v -6.759000 20.471299 7.260998
v -6.759000 20.571299 7.260998
v -6.760000 20.571299 7.259998
v -6.760000 20.470350 7.259998
v -6.391000 20.451012 7.628998
v -6.390000 20.451961 5.131282
v -6.759000 20.471299 4.762282
v -6.759000 20.471299 7.260998
v -6.390000 20.451961 7.629998
v -6.759000 20.471299 4.762282
v -6.759000 20.571299 4.762282
v -6.759000 20.571299 7.260998
v -6.759000 20.471299 7.260998
v -6.759000 20.571299 4.762282
v -6.760000 20.571299 4.761282
v -6.760000 20.571299 7.259998
v -6.759000 20.571299 7.260998
v -6.760000 20.571299 7.259998
v -6.760000 20.571299 4.761282
v -6.760000 20.470350 4.761282
v -6.760000 20.470350 7.259998
v -6.760000 20.470350 7.259998
v -6.760000 20.470350 4.761282
v -6.391000 20.451012 5.130282
v -6.391000 20.451012 7.628998
v -6.391000 20.451012 7.628998
v -6.391000 20.451012 5.130282
v -6.391000 20.414375 5.130282
v -6.391000 20.414375 7.628998
v -6.391000 20.414375 5.130282
v -6.404293 20.427668 5.116989
v -6.404293 20.427668 7.615705
v -6.391000 20.414375 7.628998
v -6.404293 20.427668 5.116989
v -6.405000 20.426961 5.116282
v -6.405000 20.426961 7.614998
v -6.404293 20.427668 7.615705
v -6.405000 20.426961 7.614998
v -6.405000 20.426961 5.116282
v -6.390000 20.411961 5.131282
v -6.390000 20.411961 7.629998
v -6.390000 20.411961 7.629998
v -6.390000 20.411961 5.131282
v -6.390000 20.451961 5.131282
v -6.390000 20.451961 7.629998
f 69 70 61
f 63 64 65
f 68 69 61
f 63 65 66
f 67 68 61
f 62 63 66
f 67 61 62
f 62 66 67
f 71 72 73
f 76 77 78
f 71 73 74
f 76 78 79
f 80 71 74
f 75 76 79
f 80 74 75
f 75 79 80
f 81 82 84
f 84 82 83
f 85 86 88
f 88 86 87
f 89 90 92
f 92 90 91
f 93 94 96
f 96 94 95
f 97 98 100
f 100 98 99
f 101 102 104
f 104 102 103
f 105 106 108
f 108 106 107
f 109 110 112
f 112 110 111
f 113 114 116
f 116 114 115
f 117 118 120
f 120 118 119
o item_92b0f140_1112179
v -10.669000 20.414405 7.629000
v -10.669000 20.451042 7.629000
v -10.300000 20.470380 7.260000
v -10.300000 20.571329 7.260000
v -10.301000 20.571329 7.261000
v -10.301000 20.471329 7.261000
v -10.670000 20.451991 7.630000
v -10.670000 20.411991 7.630000
v -10.655000 20.426991 7.615000
v -10.655707 20.427698 7.615707
v -10.669000 20.414405 0.571000
v -10.655707 20.427698 0.584293
v -10.655000 20.426991 0.585000
v -10.670000 20.411991 0.570000
v -10.670000 20.451991 0.570000
v -10.301000 20.471329 0.939000
v -10.301000 20.571329 0.939000
v -10.300000 20.571329 0.940000
v -10.300000 20.470380 0.940000
v -10.669000 20.451042 0.571000
v -10.670000 20.451991 0.570000
v -10.670000 20.451991 7.630000
v -10.301000 20.471329 7.261000
v -10.301000 20.471329 0.939000
v -10.301000 20.471329 0.939000
v -10.301000 20.471329 7.261000
v -10.301000 20.571329 7.261000
v -10.301000 20.571329 0.939000
v -10.301000 20.571329 7.261000
v -10.300000 20.571329 7.260000
v -10.300000 20.571329 0.940000
v -10.301000 20.571329 0.939000
v -10.300000 20.571329 7.260000
v -10.300000 20.470380 7.260000
v -10.300000 20.470380 0.940000
v -10.300000 20.571329 0.940000
v -10.300000 20.470380 7.260000
v -10.669000 20.451042 7.629000
v -10.669000 20.451042 0.571000
v -10.300000 20.470380 0.940000
v -10.669000 20.451042 7.629000
v -10.669000 20.414405 7.629000
v -10.669000 20.414405 0.571000
v -10.669000 20.451042 0.571000
v -10.669000 20.414405 0.571000
v -10.669000 20.414405 7.629000
v -10.655707 20.427698 7.615707
v -10.655707 20.427698 0.584293
v -10.655707 20.427698 7.615707
v -10.655000 20.426991 7.615000
v -10.655000 20.426991 0.585000
v -10.655707 20.427698 0.584293
v -10.655000 20.426991 0.585000
v -10.655000 20.426991 7.615000
v -10.670000 20.411991 7.630000
v -10.670000 20.411991 0.570000
v -10.670000 20.411991 0.570000
v -10.670000 20.411991 7.630000
v -10.670000 20.451991 7.630000
v -10.670000 20.451991 0.570000
f 129 130 121
f 123 124 125
f 128 129 121
f 123 125 126
f 127 128 121
f 122 123 126
f 127 121 122
f 122 126 127
f 131 132 133
f 136 137 138
f 131 133 134
f 136 138 139
f 140 131 134
f 135 136 139
f 140 134 135
f 135 139 140
f 141 142 144
f 144 142 143
f 145 146 148
f 148 146 147
f 149 150 152
f 152 150 151
f 153 154 156
f 156 154 155
f 157 158 160
f 160 158 159
f 161 162 164
f 164 162 163
f 165 166 168
f 168 166 167
f 169 170 172
f 172 170 171
f 173 174 176
f 176 174 175
f 177 178 180
f 180 178 179
o item_92b0f140_1112226
v -2.280000 20.426991 0.585000
v -2.280000 20.411991 0.570000
v -2.280000 20.451991 0.570000
v -2.280000 20.471329 0.939000
v -2.280000 20.571329 0.939000
v -2.280000 20.571329 0.940000
v -2.280000 20.470380 0.940000
v -2.280000 20.451042 0.571000
v -2.280000 20.414405 0.571000
v -2.280000 20.427698 0.584293
v -10.669000 20.451042 0.571000
v -10.300000 20.470380 0.940000
v -10.300000 20.571329 0.940000
v -10.301000 20.571329 0.939000
v -10.301000 20.471329 0.939000
v -10.670000 20.451991 0.570000
v -10.670000 20.411991 0.570000
v -10.655000 20.426991 0.585000
v -10.655707 20.427698 0.584293
v -10.669000 20.414405 0.571000
v -10.670000 20.451991 0.570000
v -10.301000 20.471329 0.939000
v -2.280000 20.471329 0.939000
v -2.280000 20.451991 0.570000
v -2.280000 20.571329 0.939000
v -2.280000 20.471329 0.939000
v -10.301000 20.471329 0.939000
v -10.301000 20.571329 0.939000
v -10.301000 20.571329 0.939000
v -10.300000 20.571329 0.940000
v -2.280000 20.571329 0.940000
v -2.280000 20.571329 0.939000
v -2.280000 20.470380 0.940000
v -2.280000 20.571329 0.940000
v -10.300000 20.571329 0.940000
v -10.300000 20.470380 0.940000
v -2.280000 20.451042 0.571000
v -2.280000 20.470380 0.940000
v -10.300000 20.470380 0.940000
v -10.669000 20.451042 0.571000
v -10.669000 20.451042 0.571000
v -10.669000 20.414405 0.571000
v -2.280000 20.414405 0.571000
v -2.280000 20.451042 0.571000
v -10.669000 20.414405 0.571000
v -10.655707 20.427698 0.584293
v -2.280000 20.427698 0.584293
v -2.280000 20.414405 0.571000
v -10.655707 20.427698 0.584293
v -10.655000 20.426991 0.585000
v -2.280000 20.426991 0.585000
v -2.280000 20.427698 0.584293
v -2.280000 20.411991 0.570000
v -2.280000 20.426991 0.585000
v -10.655000 20.426991 0.585000
v -10.670000 20.411991 0.570000
v -2.280000 20.451991 0.570000
v -2.280000 20.411991 0.570000
v -10.670000 20.411991 0.570000
v -10.670000 20.451991 0.570000
f 189 190 181
f 184 185 186
f 189 181 182
f 184 186 187
f 188 189 182
f 183 184 187
f 188 182 183
f 183 187 188
f 192 193 194
f 197 198 199
f 192 194 195
f 197 199 200
f 191 192 195
f 196 197 200
f 191 195 196
f 196 200 191
f 201 202 204
f 204 202 203
f 205 206 208
f 208 206 207
f 209 210 212
f 212 210 211
f 213 214 216
f 216 214 215
f 217 218 220
f 220 218 219
f 221 222 224
f 224 222 223
f 225 226 228
f 228 226 227
f 229 230 232
f 232 230 231
f 233 234 236
f 236 234 235
f 237 238 240
f 240 238 239
o item_92b0f140_1127405
v -6.406000 20.426961 5.116280
v -6.391000 20.411961 5.131280
v -6.391000 20.451961 5.131280
v -6.760000 20.471299 4.762280
v -6.760000 20.571299 4.762280
v -6.761000 20.571299 4.761280
v -6.761000 20.470350 4.761280
v -6.392000 20.451012 5.130280
v -6.392000 20.414375 5.130280
v -6.405293 20.427668 5.116987
v -2.480000 20.451012 5.130280
v -2.480000 20.470350 4.761280
v -2.480000 20.571299 4.761280
v -2.480000 20.571299 4.762280
v -2.480000 20.471299 4.762280
v -2.480000 20.451961 5.131280
v -2.480000 20.411961 5.131280
v -2.480000 20.426961 5.116280
v -2.480000 20.427668 5.116987
v -2.480000 20.414375 5.130280
v -2.480000 20.451961 5.131280
v -2.480000 20.471299 4.762280
v -6.760000 20.471299 4.762280
v -6.391000 20.451961 5.131280
v -6.760000 20.571299 4.762280
v -6.760000 20.471299 4.762280
v -2.480000 20.471299 4.762280
v -2.480000 20.571299 4.762280
v -2.480000 20.571299 4.762280
v -2.480000 20.571299 4.761280
v -6.761000 20.571299 4.761280
v -6.760000 20.571299 4.762280
v -2.480000 20.571299 4.761280
v -2.480000 20.470350 4.761280
v -6.761000 20.470350 4.761280
v -6.761000 20.571299 4.761280
v -6.392000 20.451012 5.130280
v -6.761000 20.470350 4.761280
v -2.480000 20.470350 4.761280
v -2.480000 20.451012 5.130280
v -2.480000 20.451012 5.130280
v -2.480000 20.414375 5.130280
v -6.392000 20.414375 5.130280
v -6.392000 20.451012 5.130280
v -2.480000 20.414375 5.130280
v -2.480000 20.427668 5.116987
v -6.405293 20.427668 5.116987
v -6.392000 20.414375 5.130280
v -2.480000 20.427668 5.116987
v -2.480000 20.426961 5.116280
v -6.406000 20.426961 5.116280
v -6.405293 20.427668 5.116987
v -6.391000 20.411961 5.131280
v -6.406000 20.426961 5.116280
v -2.480000 20.426961 5.116280
v -2.480000 20.411961 5.131280
v -6.391000 20.451961 5.131280
v -6.391000 20.411961 5.131280
v -2.480000 20.411961 5.131280
v -2.480000 20.451961 5.131280
f 249 250 241
f 244 245 246
f 249 241 242
f 244 246 247
f 248 249 242
f 243 244 247
f 248 242 243
f 243 247 248
f 252 253 254
f 257 258 259
f 252 254 255
f 257 259 260
f 251 252 255
f 256 257 260
f 251 255 256
f 256 260 251
f 261 262 264
f 264 262 263
f 265 266 268
f 268 266 267
f 269 270 272
f 272 270 271
f 273 274 276
f 276 274 275
f 277 278 280
f 280 278 279
f 281 282 284
f 284 282 283
f 285 286 288
f 288 286 287
f 289 290 292
f 292 290 291
f 293 294 296
f 296 294 295
f 297 298 300
f 300 298 299
