# DIMKO.app — selection export
# Generated: 2026-07-31T07:56:22.173Z
o item_958c4ea6_1143260
v -7.129753 12.942284 -10.394583
v -7.134524 12.927284 -10.373912
v -7.134524 12.967284 -10.373912
v -7.099854 12.972996 -10.524120
v -7.099854 12.987996 -10.524120
v -7.099536 12.987996 -10.525498
v -7.099536 12.972047 -10.525498
v -7.134206 12.966335 -10.375290
v -7.134206 12.929698 -10.375290
v -7.129978 12.942991 -10.393609
v -3.256302 12.966335 -12.798980
v -3.406496 12.972047 -12.833648
v -3.406496 12.987996 -12.833648
v -3.405118 12.987996 -12.833330
v -3.405118 12.972996 -12.833330
v -3.254925 12.967284 -12.798662
v -3.254925 12.927284 -12.798662
v -3.275593 12.942284 -12.803433
v -3.274619 12.942991 -12.803208
v -3.256302 12.929698 -12.798980
v -7.099854 12.972996 -10.524120
v -7.134524 12.967284 -10.373912
v -3.254925 12.967284 -12.798662
v -3.405118 12.972996 -12.833330
v -7.099854 12.987996 -10.524120
v -7.099854 12.972996 -10.524120
v -3.405118 12.972996 -12.833330
v -3.405118 12.987996 -12.833330
v -3.405118 12.987996 -12.833330
v -3.406496 12.987996 -12.833648
v -7.099536 12.987996 -10.525498
v -7.099854 12.987996 -10.524120
v -3.406496 12.987996 -12.833648
v -3.406496 12.972047 -12.833648
v -7.099536 12.972047 -10.525498
v -7.099536 12.987996 -10.525498
v -3.406496 12.972047 -12.833648
v -3.256302 12.966335 -12.798980
v -7.134206 12.966335 -10.375290
v -7.099536 12.972047 -10.525498
v -7.134206 12.929698 -10.375290
v -7.134206 12.966335 -10.375290
v -3.256302 12.966335 -12.798980
v -3.256302 12.929698 -12.798980
v -7.129978 12.942991 -10.393609
v -7.134206 12.929698 -10.375290
v -3.256302 12.929698 -12.798980
v -3.274619 12.942991 -12.803208
v -7.129753 12.942284 -10.394583
v -7.129978 12.942991 -10.393609
v -3.274619 12.942991 -12.803208
v -3.275593 12.942284 -12.803433
v -7.134524 12.927284 -10.373912
v -7.129753 12.942284 -10.394583
v -3.275593 12.942284 -12.803433
v -3.254925 12.927284 -12.798662
v -7.134524 12.967284 -10.373912
v -7.134524 12.927284 -10.373912
v -3.254925 12.927284 -12.798662
v -3.254925 12.967284 -12.798662
f 9 10 1
f 4 5 6
f 9 1 2
f 4 6 7
f 8 9 2
f 3 4 7
f 8 2 3
f 3 7 8
f 12 13 14
f 17 18 19
f 12 14 15
f 17 19 20
f 11 12 15
f 16 17 20
f 11 15 16
f 16 20 11
f 21 22 24
f 24 22 23
f 25 26 28
f 28 26 27
f 29 30 32
f 32 30 31
f 33 34 36
f 36 34 35
f 37 38 40
f 40 38 39
f 41 42 44
f 44 42 43
f 45 46 48
f 48 46 47
f 49 50 52
f 52 50 51
f 53 54 56
f 56 54 55
f 57 58 60
f 60 58 59
o item_958c4ea6_1143216
v -3.274979 12.942284 -12.803546
v -3.254308 12.927284 -12.798775
v -3.254308 12.967284 -12.798775
v -3.404515 12.972996 -12.833445
v -3.404515 12.987996 -12.833445
v -3.405893 12.987996 -12.833763
v -3.405893 12.972047 -12.833763
v -3.255687 12.966335 -12.799094
v -3.255687 12.929698 -12.799094
v -3.274004 12.942991 -12.803321
v -9.922394 12.966335 -23.465827
v -10.014832 12.972047 -23.408065
v -10.014832 12.987996 -23.408065
v -10.013984 12.987996 -23.408595
v -10.013984 12.972996 -23.408595
v -9.921546 12.967284 -23.466357
v -9.921546 12.927284 -23.466357
v -9.934267 12.942284 -23.458408
v -9.933668 12.942991 -23.458782
v -9.922394 12.929698 -23.465827
v -3.404515 12.972996 -12.833445
v -3.254308 12.967284 -12.798775
v -9.921546 12.967284 -23.466357
v -10.013984 12.972996 -23.408595
v -10.013984 12.972996 -23.408595
v -10.013984 12.987996 -23.408595
v -3.404515 12.987996 -12.833445
v -3.404515 12.972996 -12.833445
v -3.405893 12.987996 -12.833763
v -3.404515 12.987996 -12.833445
v -10.013984 12.987996 -23.408595
v -10.014832 12.987996 -23.408065
v -3.405893 12.972047 -12.833763
v -3.405893 12.987996 -12.833763
v -10.014832 12.987996 -23.408065
v -10.014832 12.972047 -23.408065
v -10.014832 12.972047 -23.408065
v -9.922394 12.966335 -23.465827
v -3.255687 12.966335 -12.799094
v -3.405893 12.972047 -12.833763
v -9.922394 12.966335 -23.465827
v -9.922394 12.929698 -23.465827
v -3.255687 12.929698 -12.799094
v -3.255687 12.966335 -12.799094
v -3.274004 12.942991 -12.803321
v -3.255687 12.929698 -12.799094
v -9.922394 12.929698 -23.465827
v -9.933668 12.942991 -23.458782
v -3.274979 12.942284 -12.803546
v -3.274004 12.942991 -12.803321
v -9.933668 12.942991 -23.458782
v -9.934267 12.942284 -23.458408
v -9.934267 12.942284 -23.458408
v -9.921546 12.927284 -23.466357
v -3.254308 12.927284 -12.798775
v -3.274979 12.942284 -12.803546
v -9.921546 12.927284 -23.466357
v -9.921546 12.967284 -23.466357
v -3.254308 12.967284 -12.798775
v -3.254308 12.927284 -12.798775
f 69 70 61
f 64 65 66
f 69 61 62
f 64 66 67
f 68 69 62
f 63 64 67
f 68 62 63
f 63 67 68
f 72 73 74
f 77 78 79
f 72 74 75
f 77 79 80
f 71 72 75
f 76 77 80
f 71 75 76
f 76 80 71
f 81 82 84
f 84 82 83
f 85 86 88
f 88 86 87
f 89 90 92
f 92 90 91
f 93 94 96
f 96 94 95
f 97 98 100
f 100 98 99
f 101 102 104
f 104 102 103
f 105 106 108
f 108 106 107
f 109 110 112
f 112 110 111
f 113 114 116
f 116 114 115
f 117 118 120
f 120 118 119
o item_958c4ea6_1143304
v -12.891455 12.942284 -21.592907
v -12.899404 12.927284 -21.605628
v -12.899404 12.967284 -21.605628
v -12.841642 12.972996 -21.513190
v -12.841642 12.987996 -21.513190
v -12.841112 12.987996 -21.512342
v -12.841112 12.972047 -21.512342
v -12.898874 12.966335 -21.604780
v -12.898874 12.929698 -21.604780
v -12.891829 12.942991 -21.593507
v -13.799450 12.966335 -21.041920
v -13.649256 12.972047 -21.007252
v -13.649256 12.987996 -21.007252
v -13.650634 12.987996 -21.007570
v -13.650634 12.972996 -21.007570
v -13.800828 12.967284 -21.042238
v -13.800828 12.927284 -21.042238
v -13.780159 12.942284 -21.037467
v -13.781133 12.942991 -21.037692
v -13.799450 12.929698 -21.041920
v -13.800828 12.967284 -21.042238
v -13.650634 12.972996 -21.007570
v -12.841642 12.972996 -21.513190
v -12.899404 12.967284 -21.605628
v -13.650634 12.972996 -21.007570
v -13.650634 12.987996 -21.007570
v -12.841642 12.987996 -21.513190
v -12.841642 12.972996 -21.513190
v -13.650634 12.987996 -21.007570
v -13.649256 12.987996 -21.007252
v -12.841112 12.987996 -21.512342
v -12.841642 12.987996 -21.513190
v -13.649256 12.987996 -21.007252
v -13.649256 12.972047 -21.007252
v -12.841112 12.972047 -21.512342
v -12.841112 12.987996 -21.512342
v -12.898874 12.966335 -21.604780
v -12.841112 12.972047 -21.512342
v -13.649256 12.972047 -21.007252
v -13.799450 12.966335 -21.041920
v -13.799450 12.966335 -21.041920
v -13.799450 12.929698 -21.041920
v -12.898874 12.929698 -21.604780
v -12.898874 12.966335 -21.604780
v -13.799450 12.929698 -21.041920
v -13.781133 12.942991 -21.037692
v -12.891829 12.942991 -21.593507
v -12.898874 12.929698 -21.604780
v -13.781133 12.942991 -21.037692
v -13.780159 12.942284 -21.037467
v -12.891455 12.942284 -21.592907
v -12.891829 12.942991 -21.593507
v -12.899404 12.927284 -21.605628
v -12.891455 12.942284 -21.592907
v -13.780159 12.942284 -21.037467
v -13.800828 12.927284 -21.042238
v -13.800828 12.927284 -21.042238
v -13.800828 12.967284 -21.042238
v -12.899404 12.967284 -21.605628
v -12.899404 12.927284 -21.605628
f 129 130 121
f 124 125 126
f 129 121 122
f 124 126 127
f 128 129 122
f 123 124 127
f 128 122 123
f 123 127 128
f 132 133 134
f 137 138 139
f 132 134 135
f 137 139 140
f 131 132 135
f 136 137 140
f 131 135 136
f 136 140 131
f 141 142 144
f 144 142 143
f 145 146 148
f 148 146 147
f 149 150 152
f 152 150 151
f 153 154 156
f 156 154 155
f 157 158 160
f 160 158 159
f 161 162 164
f 164 162 163
f 165 166 168
f 168 166 167
f 169 170 172
f 172 170 171
f 173 174 176
f 176 174 175
f 177 178 180
f 180 178 179
o item_958c4ea6_1140877
v -20.095360 12.942284 -31.971988
v -20.089741 12.927285 -31.958080
v -20.089741 12.967284 -31.958080
v -20.130573 12.972996 -32.059143
v -20.130573 12.987995 -32.059143
v -20.130948 12.987995 -32.060070
v -20.130948 12.972047 -32.060070
v -20.090115 12.966335 -31.959007
v -20.090115 12.929699 -31.959007
v -20.095095 12.942991 -31.971332
v -14.133972 12.966335 -34.368450
v -14.295222 12.972047 -34.420800
v -14.295222 12.987995 -34.420800
v -14.293744 12.987995 -34.420320
v -14.293744 12.972996 -34.420320
v -14.132492 12.967284 -34.367970
v -14.132492 12.927285 -34.367970
v -14.154683 12.942284 -34.375174
v -14.153637 12.942991 -34.374835
v -14.133972 12.929699 -34.368450
v -14.132492 12.967284 -34.367970
v -14.293744 12.972996 -34.420320
v -20.130573 12.972996 -32.059143
v -20.089741 12.967284 -31.958080
v -20.130573 12.987995 -32.059143
v -20.130573 12.972996 -32.059143
v -14.293744 12.972996 -34.420320
v -14.293744 12.987995 -34.420320
v -14.293744 12.987995 -34.420320
v -14.295222 12.987995 -34.420800
v -20.130948 12.987995 -32.060070
v -20.130573 12.987995 -32.059143
v -14.295222 12.987995 -34.420800
v -14.295222 12.972047 -34.420800
v -20.130948 12.972047 -32.060070
v -20.130948 12.987995 -32.060070
v -20.090115 12.966335 -31.959007
v -20.130948 12.972047 -32.060070
v -14.295222 12.972047 -34.420800
v -14.133972 12.966335 -34.368450
v -14.133972 12.966335 -34.368450
v -14.133972 12.929699 -34.368450
v -20.090115 12.929699 -31.959007
v -20.090115 12.966335 -31.959007
v -14.133972 12.929699 -34.368450
v -14.153637 12.942991 -34.374835
v -20.095095 12.942991 -31.971332
v -20.090115 12.929699 -31.959007
v -14.153637 12.942991 -34.374835
v -14.154683 12.942284 -34.375174
v -20.095360 12.942284 -31.971988
v -20.095095 12.942991 -31.971332
v -20.089741 12.927285 -31.958080
v -20.095360 12.942284 -31.971988
v -14.154683 12.942284 -34.375174
v -14.132492 12.927285 -34.367970
v -14.132492 12.927285 -34.367970
v -14.132492 12.967284 -34.367970
v -20.089741 12.967284 -31.958080
v -20.089741 12.927285 -31.958080
f 189 190 181
f 184 185 186
f 189 181 182
f 184 186 187
f 188 189 182
f 183 184 187
f 188 182 183
f 183 187 188
f 192 193 194
f 197 198 199
f 192 194 195
f 197 199 200
f 191 192 195
f 196 197 200
f 191 195 196
f 196 200 191
f 201 202 204
f 204 202 203
f 205 206 208
f 208 206 207
f 209 210 212
f 212 210 211
f 213 214 216
f 216 214 215
f 217 218 220
f 220 218 219
f 221 222 224
f 224 222 223
f 225 226 228
f 228 226 227
f 229 230 232
f 232 230 231
f 233 234 236
f 236 234 235
f 237 238 240
f 240 238 239
o item_958c4ea6_617653
v -17.961821 12.922780 -39.472313
v -17.967871 12.907780 -39.453691
v -17.967871 12.947780 -39.453691
v -17.796861 12.970000 -39.980077
v -17.796861 12.985000 -39.980077
v -17.796457 12.985000 -39.981319
v -17.796457 12.969051 -39.981319
v -17.967468 12.946831 -39.454933
v -17.967468 12.910194 -39.454933
v -17.962107 12.923487 -39.471436
v -14.848162 12.946831 -34.464043
v -14.418382 12.969051 -34.576397
v -14.418382 12.985000 -34.576397
v -14.419395 12.985000 -34.576132
v -14.419395 12.970000 -34.576132
v -14.849176 12.947780 -34.463779
v -14.849176 12.907780 -34.463779
v -14.833972 12.922780 -34.467754
v -14.834688 12.923487 -34.467566
v -14.848162 12.910194 -34.464043
v -14.849176 12.947780 -34.463779
v -14.419395 12.970000 -34.576132
v -17.796861 12.970000 -39.980077
v -17.967871 12.947780 -39.453691
v -17.796861 12.985000 -39.980077
v -17.796861 12.970000 -39.980077
v -14.419395 12.970000 -34.576132
v -14.419395 12.985000 -34.576132
v -14.419395 12.985000 -34.576132
v -14.418382 12.985000 -34.576397
v -17.796457 12.985000 -39.981319
v -17.796861 12.985000 -39.980077
v -17.796457 12.969051 -39.981319
v -17.796457 12.985000 -39.981319
v -14.418382 12.985000 -34.576397
v -14.418382 12.969051 -34.576397
v -17.967468 12.946831 -39.454933
v -17.796457 12.969051 -39.981319
v -14.418382 12.969051 -34.576397
v -14.848162 12.946831 -34.464043
v -17.967468 12.910194 -39.454933
v -17.967468 12.946831 -39.454933
v -14.848162 12.946831 -34.464043
v -14.848162 12.910194 -34.464043
v -14.848162 12.910194 -34.464043
v -14.834688 12.923487 -34.467566
v -17.962107 12.923487 -39.471436
v -17.967468 12.910194 -39.454933
v -14.834688 12.923487 -34.467566
v -14.833972 12.922780 -34.467754
v -17.961821 12.922780 -39.472313
v -17.962107 12.923487 -39.471436
v -17.967871 12.907780 -39.453691
v -17.961821 12.922780 -39.472313
v -14.833972 12.922780 -34.467754
v -14.849176 12.907780 -34.463779
v -14.849176 12.907780 -34.463779
v -14.849176 12.947780 -34.463779
v -17.967871 12.947780 -39.453691
v -17.967871 12.907780 -39.453691
f 249 250 241
f 244 245 246
f 249 241 242
f 244 246 247
f 248 249 242
f 243 244 247
f 248 242 243
f 243 247 248
f 252 253 254
f 257 258 259
f 252 254 255
f 257 259 260
f 251 252 255
f 256 257 260
f 251 255 256
f 256 260 251
f 261 262 264
f 264 262 263
f 265 266 268
f 268 266 267
f 269 270 272
f 272 270 271
f 273 274 276
f 276 274 275
f 277 278 280
f 280 278 279
f 281 282 284
f 284 282 283
f 285 286 288
f 288 286 287
f 289 290 292
f 292 290 291
f 293 294 296
f 296 294 295
f 297 298 300
f 300 298 299
o item_958c4ea6_1126744
v -14.150059 12.942284 -34.373480
v -14.127864 12.927284 -34.366270
v -14.127864 12.967284 -34.366270
v -14.289149 12.972996 -34.418664
v -14.289149 12.987996 -34.418664
v -14.290628 12.987996 -34.419145
v -14.290628 12.972047 -34.419145
v -14.129343 12.966335 -34.366751
v -14.129343 12.929698 -34.366751
v -14.149012 12.942991 -34.373139
v -17.763774 12.966335 -40.181840
v -17.807737 12.972047 -40.046519
v -17.807737 12.987996 -40.046519
v -17.807334 12.987996 -40.047761
v -17.807334 12.972996 -40.047761
v -17.763371 12.967284 -40.183081
v -17.763371 12.927284 -40.183081
v -17.769421 12.942284 -40.164460
v -17.769136 12.942991 -40.165337
v -17.763774 12.929698 -40.181840
v -14.289149 12.972996 -34.418664
v -14.127864 12.967284 -34.366270
v -17.763371 12.967284 -40.183081
v -17.807334 12.972996 -40.047761
v -14.289149 12.987996 -34.418664
v -14.289149 12.972996 -34.418664
v -17.807334 12.972996 -40.047761
v -17.807334 12.987996 -40.047761
v -14.290628 12.987996 -34.419145
v -14.289149 12.987996 -34.418664
v -17.807334 12.987996 -40.047761
v -17.807737 12.987996 -40.046519
v -14.290628 12.972047 -34.419145
v -14.290628 12.987996 -34.419145
v -17.807737 12.987996 -40.046519
v -17.807737 12.972047 -40.046519
v -17.807737 12.972047 -40.046519
v -17.763774 12.966335 -40.181840
v -14.129343 12.966335 -34.366751
v -14.290628 12.972047 -34.419145
v -14.129343 12.929698 -34.366751
v -14.129343 12.966335 -34.366751
v -17.763774 12.966335 -40.181840
v -17.763774 12.929698 -40.181840
v -14.149012 12.942991 -34.373139
v -14.129343 12.929698 -34.366751
v -17.763774 12.929698 -40.181840
v -17.769136 12.942991 -40.165337
v -14.150059 12.942284 -34.373480
v -14.149012 12.942991 -34.373139
v -17.769136 12.942991 -40.165337
v -17.769421 12.942284 -40.164460
v -17.769421 12.942284 -40.164460
v -17.763371 12.927284 -40.183081
v -14.127864 12.927284 -34.366270
v -14.150059 12.942284 -34.373480
v -17.763371 12.927284 -40.183081
v -17.763371 12.967284 -40.183081
v -14.127864 12.967284 -34.366270
v -14.127864 12.927284 -34.366270
f 309 310 301
f 304 305 306
f 309 301 302
f 304 306 307
f 308 309 302
f 303 304 307
f 308 302 303
f 303 307 308
f 312 313 314
f 317 318 319
f 312 314 315
f 317 319 320
f 311 312 315
f 316 317 320
f 311 315 316
f 316 320 311
f 321 322 324
f 324 322 323
f 325 326 328
f 328 326 327
f 329 330 332
f 332 330 331
f 333 334 336
f 336 334 335
f 337 338 340
f 340 338 339
f 341 342 344
f 344 342 343
f 345 346 348
f 348 346 347
f 349 350 352
f 352 350 351
f 353 354 356
f 356 354 355
f 357 358 360
f 360 358 359
o item_958c4ea6_1141223
v -31.869170 12.942284 -27.217201
v -31.877456 12.927285 -27.197668
v -31.877456 12.967284 -27.197668
v -31.817246 12.972996 -27.339606
v -31.817246 12.987995 -27.339606
v -31.816693 12.987995 -27.340908
v -31.816693 12.972047 -27.340908
v -31.876904 12.966335 -27.198971
v -31.876904 12.929699 -27.198971
v -31.869561 12.942991 -27.216281
v -30.107352 12.966335 -27.914809
v -30.148184 12.972047 -28.015872
v -30.148184 12.987995 -28.015872
v -30.147809 12.987995 -28.014944
v -30.147809 12.972996 -28.014944
v -30.106977 12.967284 -27.913882
v -30.106977 12.927285 -27.913882
v -30.112596 12.942284 -27.927789
v -30.112331 12.942991 -27.927134
v -30.107352 12.929699 -27.914809
v -31.817246 12.972996 -27.339606
v -31.877456 12.967284 -27.197668
v -30.106977 12.967284 -27.913882
v -30.147809 12.972996 -28.014944
v -30.147809 12.972996 -28.014944
v -30.147809 12.987995 -28.014944
v -31.817246 12.987995 -27.339606
v -31.817246 12.972996 -27.339606
v -31.816693 12.987995 -27.340908
v -31.817246 12.987995 -27.339606
v -30.147809 12.987995 -28.014944
v -30.148184 12.987995 -28.015872
v -31.816693 12.972047 -27.340908
v -31.816693 12.987995 -27.340908
v -30.148184 12.987995 -28.015872
v -30.148184 12.972047 -28.015872
v -30.148184 12.972047 -28.015872
v -30.107352 12.966335 -27.914809
v -31.876904 12.966335 -27.198971
v -31.816693 12.972047 -27.340908
v -30.107352 12.966335 -27.914809
v -30.107352 12.929699 -27.914809
v -31.876904 12.929699 -27.198971
v -31.876904 12.966335 -27.198971
v -31.869561 12.942991 -27.216281
v -31.876904 12.929699 -27.198971
v -30.107352 12.929699 -27.914809
v -30.112331 12.942991 -27.927134
v -31.869170 12.942284 -27.217201
v -31.869561 12.942991 -27.216281
v -30.112331 12.942991 -27.927134
v -30.112596 12.942284 -27.927789
v -30.112596 12.942284 -27.927789
v -30.106977 12.927285 -27.913882
v -31.877456 12.927285 -27.197668
v -31.869170 12.942284 -27.217201
v -31.877456 12.967284 -27.197668
v -31.877456 12.927285 -27.197668
v -30.106977 12.927285 -27.913882
v -30.106977 12.967284 -27.913882
f 369 370 361
f 364 365 366
f 369 361 362
f 364 366 367
f 368 369 362
f 363 364 367
f 368 362 363
f 363 367 368
f 372 373 374
f 377 378 379
f 372 374 375
f 377 379 380
f 371 372 375
f 376 377 380
f 371 375 376
f 376 380 371
f 381 382 384
f 384 382 383
f 385 386 388
f 388 386 387
f 389 390 392
f 392 390 391
f 393 394 396
f 396 394 395
f 397 398 400
f 400 398 399
f 401 402 404
f 404 402 403
f 405 406 408
f 408 406 407
f 409 410 412
f 412 410 411
f 413 414 416
f 416 414 415
f 417 418 420
f 420 418 419
o item_958c4ea6_1171694
v -31.876485 12.929699 -27.198855
v -31.876485 12.966335 -27.198855
v -31.816297 12.972047 -27.340731
v -31.816297 12.987995 -27.340731
v -31.816849 12.987995 -27.339429
v -31.816849 12.972996 -27.339429
v -31.877037 12.967284 -27.197553
v -31.877037 12.927285 -27.197553
v -31.868754 12.942284 -27.217078
v -31.869144 12.942991 -27.216156
v -32.463951 12.929699 -28.651071
v -32.456611 12.942991 -28.668373
v -32.456220 12.942284 -28.669294
v -32.464503 12.927285 -28.649769
v -32.464503 12.967284 -28.649769
v -32.404315 12.972996 -28.791645
v -32.404315 12.987995 -28.791645
v -32.403763 12.987995 -28.792947
v -32.403763 12.972047 -28.792947
v -32.463951 12.966335 -28.651071
v -32.464503 12.967284 -28.649769
v -31.877037 12.967284 -27.197553
v -31.816849 12.972996 -27.339429
v -32.404315 12.972996 -28.791645
v -31.816849 12.972996 -27.339429
v -31.816849 12.987995 -27.339429
v -32.404315 12.987995 -28.791645
v -32.404315 12.972996 -28.791645
v -32.404315 12.987995 -28.791645
v -31.816849 12.987995 -27.339429
v -31.816297 12.987995 -27.340731
v -32.403763 12.987995 -28.792947
v -32.403763 12.987995 -28.792947
v -31.816297 12.987995 -27.340731
v -31.816297 12.972047 -27.340731
v -32.403763 12.972047 -28.792947
v -31.816297 12.972047 -27.340731
v -31.876485 12.966335 -27.198855
v -32.463951 12.966335 -28.651071
v -32.403763 12.972047 -28.792947
v -32.463951 12.966335 -28.651071
v -31.876485 12.966335 -27.198855
v -31.876485 12.929699 -27.198855
v -32.463951 12.929699 -28.651071
v -32.463951 12.929699 -28.651071
v -31.876485 12.929699 -27.198855
v -31.869144 12.942991 -27.216156
v -32.456611 12.942991 -28.668373
v -32.456611 12.942991 -28.668373
v -31.869144 12.942991 -27.216156
v -31.868754 12.942284 -27.217078
v -32.456220 12.942284 -28.669294
v -31.868754 12.942284 -27.217078
v -31.877037 12.927285 -27.197553
v -32.464503 12.927285 -28.649769
v -32.456220 12.942284 -28.669294
v -31.877037 12.927285 -27.197553
v -31.877037 12.967284 -27.197553
v -32.464503 12.967284 -28.649769
v -32.464503 12.927285 -28.649769
f 429 430 421
f 423 424 425
f 428 429 421
f 423 425 426
f 427 428 421
f 422 423 426
f 427 421 422
f 422 426 427
f 431 432 433
f 436 437 438
f 431 433 434
f 436 438 439
f 440 431 434
f 435 436 439
f 440 434 435
f 435 439 440
f 441 442 444
f 444 442 443
f 445 446 448
f 448 446 447
f 449 450 452
f 452 450 451
f 453 454 456
f 456 454 455
f 457 458 460
f 460 458 459
f 461 462 464
f 464 462 463
f 465 466 468
f 468 466 467
f 469 470 472
f 472 470 471
f 473 474 476
f 476 474 475
f 477 478 480
f 480 478 479
o item_958c4ea6_1171738
v -38.353271 12.942284 -26.285264
v -38.333747 12.927285 -26.276982
v -38.333747 12.967284 -26.276982
v -38.475622 12.972996 -26.337169
v -38.475622 12.987995 -26.337169
v -38.476924 12.987995 -26.337721
v -38.476924 12.972047 -26.337721
v -38.335048 12.966335 -26.277534
v -38.335048 12.929699 -26.277534
v -38.352351 12.942991 -26.284874
v -32.464254 12.966335 -28.652451
v -32.404043 12.972047 -28.794388
v -32.404043 12.987995 -28.794388
v -32.404596 12.987995 -28.793086
v -32.404596 12.972996 -28.793086
v -32.464806 12.967284 -28.651149
v -32.464806 12.927285 -28.651149
v -32.456520 12.942284 -28.670681
v -32.456911 12.942991 -28.669761
v -32.464254 12.929699 -28.652451
v -32.464806 12.967284 -28.651149
v -32.404596 12.972996 -28.793086
v -38.475622 12.972996 -26.337169
v -38.333747 12.967284 -26.276982
v -32.404596 12.972996 -28.793086
v -32.404596 12.987995 -28.793086
v -38.475622 12.987995 -26.337169
v -38.475622 12.972996 -26.337169
v -32.404596 12.987995 -28.793086
v -32.404043 12.987995 -28.794388
v -38.476924 12.987995 -26.337721
v -38.475622 12.987995 -26.337169
v -32.404043 12.987995 -28.794388
v -32.404043 12.972047 -28.794388
v -38.476924 12.972047 -26.337721
v -38.476924 12.987995 -26.337721
v -32.404043 12.972047 -28.794388
v -32.464254 12.966335 -28.652451
v -38.335048 12.966335 -26.277534
v -38.476924 12.972047 -26.337721
v -32.464254 12.966335 -28.652451
v -32.464254 12.929699 -28.652451
v -38.335048 12.929699 -26.277534
v -38.335048 12.966335 -26.277534
v -38.352351 12.942991 -26.284874
v -38.335048 12.929699 -26.277534
v -32.464254 12.929699 -28.652451
v -32.456911 12.942991 -28.669761
v -38.353271 12.942284 -26.285264
v -38.352351 12.942991 -26.284874
v -32.456911 12.942991 -28.669761
v -32.456520 12.942284 -28.670681
v -32.456520 12.942284 -28.670681
v -32.464806 12.927285 -28.651149
v -38.333747 12.927285 -26.276982
v -38.353271 12.942284 -26.285264
v -38.333747 12.967284 -26.276982
v -38.333747 12.927285 -26.276982
v -32.464806 12.927285 -28.651149
v -32.464806 12.967284 -28.651149
f 489 490 481
f 484 485 486
f 489 481 482
f 484 486 487
f 488 489 482
f 483 484 487
f 488 482 483
f 483 487 488
f 492 493 494
f 497 498 499
f 492 494 495
f 497 499 500
f 491 492 495
f 496 497 500
f 491 495 496
f 496 500 491
f 501 502 504
f 504 502 503
f 505 506 508
f 508 506 507
f 509 510 512
f 512 510 511
f 513 514 516
f 516 514 515
f 517 518 520
f 520 518 519
f 521 522 524
f 524 522 523
f 525 526 528
f 528 526 527
f 529 530 532
f 532 530 531
f 533 534 536
f 536 534 535
f 537 538 540
f 540 538 539
o item_958c4ea6_1171826
v -38.815653 12.942284 -24.007278
v -38.823938 12.927285 -23.987745
v -38.823938 12.967284 -23.987745
v -38.763728 12.972996 -24.129683
v -38.763728 12.987995 -24.129683
v -38.763176 12.987995 -24.130985
v -38.763176 12.972047 -24.130985
v -38.823386 12.966335 -23.989047
v -38.823386 12.929699 -23.989047
v -38.816043 12.942991 -24.006357
v -37.609016 12.966335 -24.480297
v -37.750892 12.972047 -24.540485
v -37.750892 12.987995 -24.540485
v -37.749590 12.987995 -24.539933
v -37.749590 12.972996 -24.539933
v -37.607714 12.967284 -24.479745
v -37.607714 12.927285 -24.479745
v -37.627239 12.942284 -24.488028
v -37.626318 12.942991 -24.487637
v -37.609016 12.929699 -24.480297
v -38.763728 12.972996 -24.129683
v -38.823938 12.967284 -23.987745
v -37.607714 12.967284 -24.479745
v -37.749590 12.972996 -24.539933
v -38.763728 12.987995 -24.129683
v -38.763728 12.972996 -24.129683
v -37.749590 12.972996 -24.539933
v -37.749590 12.987995 -24.539933
v -38.763176 12.987995 -24.130985
v -38.763728 12.987995 -24.129683
v -37.749590 12.987995 -24.539933
v -37.750892 12.987995 -24.540485
v -38.763176 12.972047 -24.130985
v -38.763176 12.987995 -24.130985
v -37.750892 12.987995 -24.540485
v -37.750892 12.972047 -24.540485
v -38.823386 12.966335 -23.989047
v -38.763176 12.972047 -24.130985
v -37.750892 12.972047 -24.540485
v -37.609016 12.966335 -24.480297
v -37.609016 12.966335 -24.480297
v -37.609016 12.929699 -24.480297
v -38.823386 12.929699 -23.989047
v -38.823386 12.966335 -23.989047
v -37.609016 12.929699 -24.480297
v -37.626318 12.942991 -24.487637
v -38.816043 12.942991 -24.006357
v -38.823386 12.929699 -23.989047
v -37.626318 12.942991 -24.487637
v -37.627239 12.942284 -24.488028
v -38.815653 12.942284 -24.007278
v -38.816043 12.942991 -24.006357
v -38.823938 12.927285 -23.987745
v -38.815653 12.942284 -24.007278
v -37.627239 12.942284 -24.488028
v -37.607714 12.927285 -24.479745
v -37.607714 12.927285 -24.479745
v -37.607714 12.967284 -24.479745
v -38.823938 12.967284 -23.987745
v -38.823938 12.927285 -23.987745
f 549 550 541
f 544 545 546
f 549 541 542
f 544 546 547
f 548 549 542
f 543 544 547
f 548 542 543
f 543 547 548
f 552 553 554
f 557 558 559
f 552 554 555
f 557 559 560
f 551 552 555
f 556 557 560
f 551 555 556
f 556 560 551
f 561 562 564
f 564 562 563
f 565 566 568
f 568 566 567
f 569 570 572
f 572 570 571
f 573 574 576
f 576 574 575
f 577 578 580
f 580 578 579
f 581 582 584
f 584 582 583
f 585 586 588
f 588 586 587
f 589 590 592
f 592 590 591
f 593 594 596
f 596 594 595
f 597 598 600
f 600 598 599
o item_958c4ea6_1171782
v -38.335992 12.929699 -26.278611
v -38.335992 12.966335 -26.278611
v -38.477930 12.972047 -26.338821
v -38.477930 12.987995 -26.338821
v -38.476628 12.987995 -26.338269
v -38.476628 12.972996 -26.338269
v -38.334690 12.967284 -26.278059
v -38.334690 12.927285 -26.278059
v -38.354223 12.942284 -26.286344
v -38.353302 12.942991 -26.285954
v -37.608492 12.929699 -24.480231
v -37.625802 12.942991 -24.487574
v -37.626723 12.942284 -24.487964
v -37.607190 12.927285 -24.479679
v -37.607190 12.967284 -24.479679
v -37.749128 12.972996 -24.539889
v -37.749128 12.987995 -24.539889
v -37.750430 12.987995 -24.540441
v -37.750430 12.972047 -24.540441
v -37.608492 12.966335 -24.480231
v -38.334690 12.967284 -26.278059
v -38.476628 12.972996 -26.338269
v -37.749128 12.972996 -24.539889
v -37.607190 12.967284 -24.479679
v -37.749128 12.972996 -24.539889
v -38.476628 12.972996 -26.338269
v -38.476628 12.987995 -26.338269
v -37.749128 12.987995 -24.539889
v -38.476628 12.987995 -26.338269
v -38.477930 12.987995 -26.338821
v -37.750430 12.987995 -24.540441
v -37.749128 12.987995 -24.539889
v -38.477930 12.987995 -26.338821
v -38.477930 12.972047 -26.338821
v -37.750430 12.972047 -24.540441
v -37.750430 12.987995 -24.540441
v -37.750430 12.972047 -24.540441
v -38.477930 12.972047 -26.338821
v -38.335992 12.966335 -26.278611
v -37.608492 12.966335 -24.480231
v -38.335992 12.966335 -26.278611
v -38.335992 12.929699 -26.278611
v -37.608492 12.929699 -24.480231
v -37.608492 12.966335 -24.480231
v -38.335992 12.929699 -26.278611
v -38.353302 12.942991 -26.285954
v -37.625802 12.942991 -24.487574
v -37.608492 12.929699 -24.480231
v -38.353302 12.942991 -26.285954
v -38.354223 12.942284 -26.286344
v -37.626723 12.942284 -24.487964
v -37.625802 12.942991 -24.487574
v -37.626723 12.942284 -24.487964
v -38.354223 12.942284 -26.286344
v -38.334690 12.927285 -26.278059
v -37.607190 12.927285 -24.479679
v -37.607190 12.927285 -24.479679
v -38.334690 12.927285 -26.278059
v -38.334690 12.967284 -26.278059
v -37.607190 12.967284 -24.479679
f 609 610 601
f 603 604 605
f 608 609 601
f 603 605 606
f 607 608 601
f 602 603 606
f 607 601 602
f 602 606 607
f 611 612 613
f 616 617 618
f 611 613 614
f 616 618 619
f 620 611 614
f 615 616 619
f 620 614 615
f 615 619 620
f 621 622 624
f 624 622 623
f 625 626 628
f 628 626 627
f 629 630 632
f 632 630 631
f 633 634 636
f 636 634 635
f 637 638 640
f 640 638 639
f 641 642 644
f 644 642 643
f 645 646 648
f 648 646 647
f 649 650 652
f 652 650 651
f 653 654 656
f 656 654 655
f 657 658 660
f 660 658 659
o item_958c4ea6_1171870
v -38.823407 12.929699 -23.989351
v -38.823407 12.966335 -23.989351
v -38.763220 12.972047 -24.131227
v -38.763220 12.987995 -24.131227
v -38.763772 12.987995 -24.129925
v -38.763772 12.972996 -24.129925
v -38.823960 12.967284 -23.988049
v -38.823960 12.927285 -23.988049
v -38.815677 12.942284 -24.007574
v -38.816067 12.942991 -24.006653
v -38.963328 12.929699 -24.335235
v -38.955988 12.942991 -24.352537
v -38.955598 12.942284 -24.353458
v -38.963880 12.927285 -24.333933
v -38.963880 12.967284 -24.333933
v -38.903693 12.972996 -24.475809
v -38.903693 12.987995 -24.475809
v -38.903140 12.987995 -24.477111
v -38.903140 12.972047 -24.477111
v -38.963328 12.966335 -24.335235
v -38.963880 12.967284 -24.333933
v -38.823960 12.967284 -23.988049
v -38.763772 12.972996 -24.129925
v -38.903693 12.972996 -24.475809
v -38.763772 12.972996 -24.129925
v -38.763772 12.987995 -24.129925
v -38.903693 12.987995 -24.475809
v -38.903693 12.972996 -24.475809
v -38.903693 12.987995 -24.475809
v -38.763772 12.987995 -24.129925
v -38.763220 12.987995 -24.131227
v -38.903140 12.987995 -24.477111
v -38.763220 12.987995 -24.131227
v -38.763220 12.972047 -24.131227
v -38.903140 12.972047 -24.477111
v -38.903140 12.987995 -24.477111
v -38.763220 12.972047 -24.131227
v -38.823407 12.966335 -23.989351
v -38.963328 12.966335 -24.335235
v -38.903140 12.972047 -24.477111
v -38.823407 12.966335 -23.989351
v -38.823407 12.929699 -23.989351
v -38.963328 12.929699 -24.335235
v -38.963328 12.966335 -24.335235
v -38.963328 12.929699 -24.335235
v -38.823407 12.929699 -23.989351
v -38.816067 12.942991 -24.006653
v -38.955988 12.942991 -24.352537
v -38.955988 12.942991 -24.352537
v -38.816067 12.942991 -24.006653
v -38.815677 12.942284 -24.007574
v -38.955598 12.942284 -24.353458
v -38.815677 12.942284 -24.007574
v -38.823960 12.927285 -23.988049
v -38.963880 12.927285 -24.333933
v -38.955598 12.942284 -24.353458
v -38.963880 12.927285 -24.333933
v -38.823960 12.927285 -23.988049
v -38.823960 12.967284 -23.988049
v -38.963880 12.967284 -24.333933
f 669 670 661
f 663 664 665
f 668 669 661
f 663 665 666
f 667 668 661
f 662 663 666
f 667 661 662
f 662 666 667
f 671 672 673
f 676 677 678
f 671 673 674
f 676 678 679
f 680 671 674
f 675 676 679
f 680 674 675
f 675 679 680
f 681 682 684
f 684 682 683
f 685 686 688
f 688 686 687
f 689 690 692
f 692 690 691
f 693 694 696
f 696 694 695
f 697 698 700
f 700 698 699
f 701 702 704
f 704 702 703
f 705 706 708
f 708 706 707
f 709 710 712
f 712 710 711
f 713 714 716
f 716 714 715
f 717 718 720
f 720 718 719
o item_958c4ea6_1126694
v -20.131938 12.972047 -32.062285
v -20.131938 12.987996 -32.062285
v -20.131564 12.987996 -32.061358
v -20.131564 12.972996 -32.061358
v -20.090731 12.967284 -31.960296
v -20.090731 12.927284 -31.960296
v -20.096350 12.942284 -31.974203
v -20.096085 12.942991 -31.973548
v -20.091106 12.929698 -31.961223
v -20.091106 12.966335 -31.961223
v -30.107156 12.966335 -27.914422
v -30.107156 12.929698 -27.914422
v -30.112136 12.942991 -27.926747
v -30.112401 12.942284 -27.927402
v -30.106782 12.927284 -27.913495
v -30.106782 12.967284 -27.913495
v -30.147614 12.972996 -28.014557
v -30.147614 12.987996 -28.014557
v -30.147989 12.987996 -28.015484
v -30.147989 12.972047 -28.015484
v -20.090731 12.927284 -31.960296
v -20.090731 12.967284 -31.960296
v -30.106782 12.967284 -27.913495
v -30.106782 12.927284 -27.913495
v -20.096350 12.942284 -31.974203
v -20.090731 12.927284 -31.960296
v -30.106782 12.927284 -27.913495
v -30.112401 12.942284 -27.927402
v -20.096085 12.942991 -31.973548
v -20.096350 12.942284 -31.974203
v -30.112401 12.942284 -27.927402
v -30.112136 12.942991 -27.926747
v -20.091106 12.929698 -31.961223
v -20.096085 12.942991 -31.973548
v -30.112136 12.942991 -27.926747
v -30.107156 12.929698 -27.914422
v -20.091106 12.966335 -31.961223
v -20.091106 12.929698 -31.961223
v -30.107156 12.929698 -27.914422
v -30.107156 12.966335 -27.914422
v -20.131938 12.972047 -32.062285
v -20.091106 12.966335 -31.961223
v -30.107156 12.966335 -27.914422
v -30.147989 12.972047 -28.015484
v -20.131938 12.987996 -32.062285
v -20.131938 12.972047 -32.062285
v -30.147989 12.972047 -28.015484
v -30.147989 12.987996 -28.015484
v -20.131564 12.987996 -32.061358
v -20.131938 12.987996 -32.062285
v -30.147989 12.987996 -28.015484
v -30.147614 12.987996 -28.014557
v -20.131564 12.972996 -32.061358
v -20.131564 12.987996 -32.061358
v -30.147614 12.987996 -28.014557
v -30.147614 12.972996 -28.014557
v -20.090731 12.967284 -31.960296
v -20.131564 12.972996 -32.061358
v -30.147614 12.972996 -28.014557
v -30.106782 12.967284 -27.913495
f 721 722 723
f 726 727 728
f 721 723 724
f 726 728 729
f 730 721 724
f 725 726 729
f 730 724 725
f 725 729 730
f 732 733 734
f 737 738 739
f 732 734 735
f 737 739 740
f 731 732 735
f 736 737 740
f 731 735 736
f 736 740 731
f 741 742 744
f 744 742 743
f 745 746 748
f 748 746 747
f 749 750 752
f 752 750 751
f 753 754 756
f 756 754 755
f 757 758 760
f 760 758 759
f 761 762 764
f 764 762 763
f 765 766 768
f 768 766 767
f 769 770 772
f 772 770 771
f 773 774 776
f 776 774 775
f 777 778 780
f 780 778 779
o item_958c4ea6_1126796
v -17.769646 12.942284 -40.171893
v -17.763598 12.927285 -40.190520
v -17.763598 12.967284 -40.190520
v -17.807551 12.972996 -40.055159
v -17.807551 12.987995 -40.055159
v -17.807953 12.987995 -40.053918
v -17.807953 12.972047 -40.053918
v -17.764000 12.966335 -40.189278
v -17.764000 12.929699 -40.189278
v -17.769362 12.942991 -40.172770
v -44.266908 12.966335 -29.468037
v -44.125032 12.972047 -29.407850
v -44.125032 12.987995 -29.407850
v -44.126333 12.987995 -29.408402
v -44.126333 12.972996 -29.408402
v -44.268209 12.967284 -29.468590
v -44.268209 12.927285 -29.468590
v -44.248686 12.942284 -29.460307
v -44.249606 12.942991 -29.460697
v -44.266908 12.929699 -29.468037
v -44.268209 12.967284 -29.468590
v -44.126333 12.972996 -29.408402
v -17.807551 12.972996 -40.055159
v -17.763598 12.967284 -40.190520
v -44.126333 12.972996 -29.408402
v -44.126333 12.987995 -29.408402
v -17.807551 12.987995 -40.055159
v -17.807551 12.972996 -40.055159
v -44.126333 12.987995 -29.408402
v -44.125032 12.987995 -29.407850
v -17.807953 12.987995 -40.053918
v -17.807551 12.987995 -40.055159
v -17.807953 12.972047 -40.053918
v -17.807953 12.987995 -40.053918
v -44.125032 12.987995 -29.407850
v -44.125032 12.972047 -29.407850
v -17.764000 12.966335 -40.189278
v -17.807953 12.972047 -40.053918
v -44.125032 12.972047 -29.407850
v -44.266908 12.966335 -29.468037
v -44.266908 12.966335 -29.468037
v -44.266908 12.929699 -29.468037
v -17.764000 12.929699 -40.189278
v -17.764000 12.966335 -40.189278
v -44.266908 12.929699 -29.468037
v -44.249606 12.942991 -29.460697
v -17.769362 12.942991 -40.172770
v -17.764000 12.929699 -40.189278
v -44.249606 12.942991 -29.460697
v -44.248686 12.942284 -29.460307
v -17.769646 12.942284 -40.171893
v -17.769362 12.942991 -40.172770
v -17.763598 12.927285 -40.190520
v -17.769646 12.942284 -40.171893
v -44.248686 12.942284 -29.460307
v -44.268209 12.927285 -29.468590
v -17.763598 12.967284 -40.190520
v -17.763598 12.927285 -40.190520
v -44.268209 12.927285 -29.468590
v -44.268209 12.967284 -29.468590
f 789 790 781
f 784 785 786
f 789 781 782
f 784 786 787
f 788 789 782
f 783 784 787
f 788 782 783
f 783 787 788
f 792 793 794
f 797 798 799
f 792 794 795
f 797 799 800
f 791 792 795
f 796 797 800
f 791 795 796
f 796 800 791
f 801 802 804
f 804 802 803
f 805 806 808
f 808 806 807
f 809 810 812
f 812 810 811
f 813 814 816
f 816 814 815
f 817 818 820
f 820 818 819
f 821 822 824
f 824 822 823
f 825 826 828
f 828 826 827
f 829 830 832
f 832 830 831
f 833 834 836
f 836 834 835
f 837 838 840
f 840 838 839
o item_958c4ea6_617736
v -40.631590 12.922781 -30.349888
v -40.625971 12.907781 -30.335980
v -40.625971 12.947780 -30.335980
v -40.784805 12.969999 -30.729104
v -40.784805 12.984999 -30.729104
v -40.785180 12.984999 -30.730032
v -40.785180 12.969050 -30.730032
v -40.626345 12.946831 -30.336907
v -40.626345 12.910195 -30.336907
v -40.631325 12.923488 -30.349232
v -17.958621 12.946831 -39.506699
v -17.787649 12.969050 -40.033240
v -17.787649 12.984999 -40.033240
v -17.788053 12.984999 -40.031998
v -17.788053 12.969999 -40.031998
v -17.959025 12.947780 -39.505457
v -17.959025 12.907781 -39.505457
v -17.952975 12.922781 -39.524085
v -17.953261 12.923488 -39.523206
v -17.958621 12.910195 -39.506699
v -40.784805 12.969999 -30.729104
v -40.625971 12.947780 -30.335980
v -17.959025 12.947780 -39.505457
v -17.788053 12.969999 -40.031998
v -40.784805 12.984999 -30.729104
v -40.784805 12.969999 -30.729104
v -17.788053 12.969999 -40.031998
v -17.788053 12.984999 -40.031998
v -40.785180 12.984999 -30.730032
v -40.784805 12.984999 -30.729104
v -17.788053 12.984999 -40.031998
v -17.787649 12.984999 -40.033240
v -17.787649 12.984999 -40.033240
v -17.787649 12.969050 -40.033240
v -40.785180 12.969050 -30.730032
v -40.785180 12.984999 -30.730032
v -17.787649 12.969050 -40.033240
v -17.958621 12.946831 -39.506699
v -40.626345 12.946831 -30.336907
v -40.785180 12.969050 -30.730032
v -17.958621 12.946831 -39.506699
v -17.958621 12.910195 -39.506699
v -40.626345 12.910195 -30.336907
v -40.626345 12.946831 -30.336907
v -40.631325 12.923488 -30.349232
v -40.626345 12.910195 -30.336907
v -17.958621 12.910195 -39.506699
v -17.953261 12.923488 -39.523206
v -40.631590 12.922781 -30.349888
v -40.631325 12.923488 -30.349232
v -17.953261 12.923488 -39.523206
v -17.952975 12.922781 -39.524085
v -17.952975 12.922781 -39.524085
v -17.959025 12.907781 -39.505457
v -40.625971 12.907781 -30.335980
v -40.631590 12.922781 -30.349888
v -17.959025 12.907781 -39.505457
v -17.959025 12.947780 -39.505457
v -40.625971 12.947780 -30.335980
v -40.625971 12.907781 -30.335980
f 849 850 841
f 844 845 846
f 849 841 842
f 844 846 847
f 848 849 842
f 843 844 847
f 848 842 843
f 843 847 848
f 852 853 854
f 857 858 859
f 852 854 855
f 857 859 860
f 851 852 855
f 856 857 860
f 851 855 856
f 856 860 851
f 861 862 864
f 864 862 863
f 865 866 868
f 868 866 867
f 869 870 872
f 872 870 871
f 873 874 876
f 876 874 875
f 877 878 880
f 880 878 879
f 881 882 884
f 884 882 883
f 885 886 888
f 888 886 887
f 889 890 892
f 892 890 891
f 893 894 896
f 896 894 895
f 897 898 900
f 900 898 899
o item_958c4ea6_1171914
v -41.730630 12.942284 -23.231561
v -41.738915 12.927285 -23.212028
v -41.738915 12.967284 -23.212028
v -41.678705 12.972996 -23.353966
v -41.678705 12.987995 -23.353966
v -41.678153 12.987995 -23.355268
v -41.678153 12.972047 -23.355268
v -41.738363 12.966335 -23.213331
v -41.738363 12.929699 -23.213331
v -41.731020 12.942991 -23.230641
v -38.963535 12.966335 -24.335834
v -38.903325 12.972047 -24.477772
v -38.903325 12.987995 -24.477772
v -38.903877 12.987995 -24.476469
v -38.903877 12.972996 -24.476469
v -38.964087 12.967284 -24.334532
v -38.964087 12.927285 -24.334532
v -38.955802 12.942284 -24.354064
v -38.956192 12.942991 -24.353144
v -38.963535 12.929699 -24.335834
v -41.678705 12.972996 -23.353966
v -41.738915 12.967284 -23.212028
v -38.964087 12.967284 -24.334532
v -38.903877 12.972996 -24.476469
v -38.903877 12.972996 -24.476469
v -38.903877 12.987995 -24.476469
v -41.678705 12.987995 -23.353966
v -41.678705 12.972996 -23.353966
v -41.678153 12.987995 -23.355268
v -41.678705 12.987995 -23.353966
v -38.903877 12.987995 -24.476469
v -38.903325 12.987995 -24.477772
v -41.678153 12.972047 -23.355268
v -41.678153 12.987995 -23.355268
v -38.903325 12.987995 -24.477772
v -38.903325 12.972047 -24.477772
v -38.903325 12.972047 -24.477772
v -38.963535 12.966335 -24.335834
v -41.738363 12.966335 -23.213331
v -41.678153 12.972047 -23.355268
v -38.963535 12.966335 -24.335834
v -38.963535 12.929699 -24.335834
v -41.738363 12.929699 -23.213331
v -41.738363 12.966335 -23.213331
v -41.731020 12.942991 -23.230641
v -41.738363 12.929699 -23.213331
v -38.963535 12.929699 -24.335834
v -38.956192 12.942991 -24.353144
v -41.730630 12.942284 -23.231561
v -41.731020 12.942991 -23.230641
v -38.956192 12.942991 -24.353144
v -38.955802 12.942284 -24.354064
v -38.955802 12.942284 -24.354064
v -38.964087 12.927285 -24.334532
v -41.738915 12.927285 -23.212028
v -41.730630 12.942284 -23.231561
v -38.964087 12.927285 -24.334532
v -38.964087 12.967284 -24.334532
v -41.738915 12.967284 -23.212028
v -41.738915 12.927285 -23.212028
f 909 910 901
f 904 905 906
f 909 901 902
f 904 906 907
f 908 909 902
f 903 904 907
f 908 902 903
f 903 907 908
f 912 913 914
f 917 918 919
f 912 914 915
f 917 919 920
f 911 912 915
f 916 917 920
f 911 915 916
f 916 920 911
f 921 922 924
f 924 922 923
f 925 926 928
f 928 926 927
f 929 930 932
f 932 930 931
f 933 934 936
f 936 934 935
f 937 938 940
f 940 938 939
f 941 942 944
f 944 942 943
f 945 946 948
f 948 946 947
f 949 950 952
f 952 950 951
f 953 954 956
f 956 954 955
f 957 958 960
f 960 958 959
o item_958c4ea6_1171958
v -41.739530 12.929699 -23.212889
v -41.739530 12.966335 -23.212889
v -41.679343 12.972047 -23.354764
v -41.679343 12.987995 -23.354764
v -41.679895 12.987995 -23.353463
v -41.679895 12.972996 -23.353463
v -41.740082 12.967284 -23.211587
v -41.740082 12.927285 -23.211587
v -41.731800 12.942284 -23.231111
v -41.732190 12.942991 -23.230191
v -44.271425 12.929699 -29.471733
v -44.254115 12.942991 -29.464390
v -44.253195 12.942284 -29.464000
v -44.272727 12.927285 -29.472286
v -44.272727 12.967284 -29.472286
v -44.130790 12.972996 -29.412075
v -44.130790 12.987995 -29.412075
v -44.129488 12.987995 -29.411523
v -44.129488 12.972047 -29.411523
v -44.271425 12.966335 -29.471733
v -41.740082 12.967284 -23.211587
v -41.679895 12.972996 -23.353463
v -44.130790 12.972996 -29.412075
v -44.272727 12.967284 -29.472286
v -41.679895 12.972996 -23.353463
v -41.679895 12.987995 -23.353463
v -44.130790 12.987995 -29.412075
v -44.130790 12.972996 -29.412075
v -41.679895 12.987995 -23.353463
v -41.679343 12.987995 -23.354764
v -44.129488 12.987995 -29.411523
v -44.130790 12.987995 -29.412075
v -41.679343 12.987995 -23.354764
v -41.679343 12.972047 -23.354764
v -44.129488 12.972047 -29.411523
v -44.129488 12.987995 -29.411523
v -44.129488 12.972047 -29.411523
v -41.679343 12.972047 -23.354764
v -41.739530 12.966335 -23.212889
v -44.271425 12.966335 -29.471733
v -41.739530 12.966335 -23.212889
v -41.739530 12.929699 -23.212889
v -44.271425 12.929699 -29.471733
v -44.271425 12.966335 -29.471733
v -41.739530 12.929699 -23.212889
v -41.732190 12.942991 -23.230191
v -44.254115 12.942991 -29.464390
v -44.271425 12.929699 -29.471733
v -41.732190 12.942991 -23.230191
v -41.731800 12.942284 -23.231111
v -44.253195 12.942284 -29.464000
v -44.254115 12.942991 -29.464390
v -44.253195 12.942284 -29.464000
v -41.731800 12.942284 -23.231111
v -41.740082 12.927285 -23.211587
v -44.272727 12.927285 -29.472286
v -44.272727 12.927285 -29.472286
v -41.740082 12.927285 -23.211587
v -41.740082 12.967284 -23.211587
v -44.272727 12.967284 -29.472286
f 969 970 961
f 963 964 965
f 968 969 961
f 963 965 966
f 967 968 961
f 962 963 966
f 967 961 962
f 962 966 967
f 971 972 973
f 976 977 978
f 971 973 974
f 976 978 979
f 980 971 974
f 975 976 979
f 980 974 975
f 975 979 980
f 981 982 984
f 984 982 983
f 985 986 988
f 988 986 987
f 989 990 992
f 992 990 991
f 993 994 996
f 996 994 995
f 997 998 1000
f 1000 998 999
f 1001 1002 1004
f 1004 1002 1003
f 1005 1006 1008
f 1008 1006 1007
f 1009 1010 1012
f 1012 1010 1011
f 1013 1014 1016
f 1016 1014 1015
f 1017 1018 1020
f 1020 1018 1019
