# DIMKO.app — selection export
# Generated: 2026-07-29T08:01:42.147Z
o item_92b0f140_1122109
v 17.556154 24.249501 -34.249995
v 17.597828 24.249501 -34.266854
v 17.884263 24.243856 -34.498920
v 17.558385 24.198269 -35.305443
v 16.863135 24.198269 -35.024193
v 17.189013 24.243856 -34.217670
v 17.847070 24.237781 -34.588300
v 17.883079 24.242818 -34.499182
v 17.597336 24.248450 -34.267675
v 17.555938 24.248450 -34.250928
v 17.189683 24.242818 -34.218682
v 17.116263 24.232547 -34.400391
v 17.115336 24.232547 -34.400016
v 16.863529 24.197322 -35.023218
v 17.558779 24.197322 -35.304468
v 17.847997 24.237781 -34.588675
v 17.849546 24.158890 -34.584842
v 17.847997 24.237781 -34.588675
v 17.558779 24.197322 -35.304468
v 17.560280 24.120843 -35.300752
v 17.567191 24.141329 -35.283649
v 17.567469 24.140660 -35.282961
v 17.559954 24.118379 -35.301561
v 17.558385 24.198269 -35.305443
v 17.884263 24.243856 -34.498920
v 17.885832 24.163966 -34.495038
v 16.865030 24.120843 -35.019502
v 16.863529 24.197322 -35.023218
v 17.115336 24.232547 -34.400016
v 17.116884 24.153658 -34.396183
v 17.190582 24.163966 -34.213788
v 17.189013 24.243856 -34.217670
v 16.863135 24.198269 -35.024193
v 16.864704 24.118379 -35.020311
v 16.872219 24.140660 -35.001711
v 16.871941 24.141329 -35.002399
v 17.847070 24.237781 -34.588300
v 17.847997 24.237781 -34.588675
v 17.849546 24.158890 -34.584842
v 17.829478 24.180061 -34.577920
v 17.830120 24.180767 -34.578220
v 17.848572 24.161301 -34.584584
v 17.847070 24.237781 -34.588300
v 17.848572 24.161301 -34.584584
v 17.884581 24.166338 -34.495465
v 17.883079 24.242818 -34.499182
v 17.848572 24.161301 -34.584584
v 17.830120 24.180767 -34.578220
v 17.860733 24.185050 -34.502454
v 17.884581 24.166338 -34.495465
v 17.830120 24.180767 -34.578220
v 17.829478 24.180061 -34.577920
v 17.859896 24.184316 -34.502639
v 17.860733 24.185050 -34.502454
v 17.885832 24.163966 -34.495038
v 17.859896 24.184316 -34.502639
v 17.829478 24.180061 -34.577920
v 17.849546 24.158890 -34.584842
v 17.883079 24.242818 -34.499182
v 17.884581 24.166338 -34.495465
v 17.598837 24.171970 -34.263959
v 17.597336 24.248450 -34.267675
v 17.588460 24.190416 -34.281859
v 17.598837 24.171970 -34.263959
v 17.884581 24.166338 -34.495465
v 17.860733 24.185050 -34.502454
v 17.588110 24.189673 -34.282441
v 17.588460 24.190416 -34.281859
v 17.860733 24.185050 -34.502454
v 17.859896 24.184316 -34.502639
v 17.859896 24.184316 -34.502639
v 17.885832 24.163966 -34.495038
v 17.599397 24.169611 -34.262971
v 17.588110 24.189673 -34.282441
v 17.885832 24.163966 -34.495038
v 17.884263 24.243856 -34.498920
v 17.597828 24.249501 -34.266854
v 17.599397 24.169611 -34.262971
v 17.597336 24.248450 -34.267675
v 17.598837 24.171970 -34.263959
v 17.557439 24.171970 -34.247212
v 17.555938 24.248450 -34.250928
v 17.598837 24.171970 -34.263959
v 17.588460 24.190416 -34.281859
v 17.552468 24.190416 -34.267300
v 17.557439 24.171970 -34.247212
v 17.552315 24.189673 -34.267961
v 17.552468 24.190416 -34.267300
v 17.588460 24.190416 -34.281859
v 17.588110 24.189673 -34.282441
v 17.588110 24.189673 -34.282441
v 17.599397 24.169611 -34.262971
v 17.557723 24.169611 -34.246113
v 17.552315 24.189673 -34.267961
v 17.556154 24.249501 -34.249995
v 17.557723 24.169611 -34.246113
v 17.599397 24.169611 -34.262971
v 17.597828 24.249501 -34.266854
v 17.555938 24.248450 -34.250928
v 17.557439 24.171970 -34.247212
v 17.191185 24.166338 -34.214965
v 17.189683 24.242818 -34.218682
v 17.557439 24.171970 -34.247212
v 17.552468 24.190416 -34.267300
v 17.203477 24.185050 -34.236573
v 17.191185 24.166338 -34.214965
v 17.552468 24.190416 -34.267300
v 17.552315 24.189673 -34.267961
v 17.203951 24.184316 -34.237289
v 17.203477 24.185050 -34.236573
v 17.190582 24.163966 -34.213788
v 17.203951 24.184316 -34.237289
v 17.552315 24.189673 -34.267961
v 17.557723 24.169611 -34.246113
v 17.189013 24.243856 -34.217670
v 17.190582 24.163966 -34.213788
v 17.557723 24.169611 -34.246113
v 17.556154 24.249501 -34.249995
v 17.117764 24.156067 -34.396675
v 17.135452 24.175534 -34.404931
v 17.136121 24.174827 -34.405161
v 17.116884 24.153658 -34.396183
v 17.115336 24.232547 -34.400016
v 17.116263 24.232547 -34.400391
v 17.117764 24.156067 -34.396675
v 17.116263 24.232547 -34.400391
v 17.189683 24.242818 -34.218682
v 17.191185 24.166338 -34.214965
v 17.135452 24.175534 -34.404931
v 17.117764 24.156067 -34.396675
v 17.191185 24.166338 -34.214965
v 17.203477 24.185050 -34.236573
v 17.136121 24.174827 -34.405161
v 17.135452 24.175534 -34.404931
v 17.203477 24.185050 -34.236573
v 17.203951 24.184316 -34.237289
v 17.203951 24.184316 -34.237289
v 17.190582 24.163966 -34.213788
v 17.116884 24.153658 -34.396183
v 17.136121 24.174827 -34.405161
v 17.558385 24.198269 -35.305443
v 17.559954 24.118379 -35.301561
v 16.864704 24.118379 -35.020311
v 16.863135 24.198269 -35.024193
v 17.559954 24.118379 -35.301561
v 17.567469 24.140660 -35.282961
v 16.872219 24.140660 -35.001711
v 16.864704 24.118379 -35.020311
v 17.567469 24.140660 -35.282961
v 17.567191 24.141329 -35.283649
v 16.871941 24.141329 -35.002399
v 16.872219 24.140660 -35.001711
v 17.567191 24.141329 -35.283649
v 17.560280 24.120843 -35.300752
v 16.865030 24.120843 -35.019502
v 16.871941 24.141329 -35.002399
v 17.560280 24.120843 -35.300752
v 17.558779 24.197322 -35.304468
v 16.863529 24.197322 -35.023218
v 16.865030 24.120843 -35.019502
f 5 6 1
f 1 2 3
f 3 4 5
f 5 1 3
f 15 16 7
f 7 8 9
f 9 10 11
f 12 13 14
f 14 15 7
f 7 9 11
f 12 14 7
f 7 11 12
f 25 26 17
f 20 21 22
f 25 17 18
f 20 22 23
f 24 25 18
f 19 20 23
f 24 18 19
f 19 23 24
f 35 36 27
f 29 30 31
f 34 35 27
f 29 31 32
f 33 34 27
f 28 29 32
f 33 27 28
f 28 32 33
f 42 37 38
f 39 40 41
f 42 38 39
f 39 41 42
f 43 44 46
f 46 44 45
f 47 48 50
f 50 48 49
f 51 52 54
f 54 52 53
f 55 56 58
f 58 56 57
f 59 60 62
f 62 60 61
f 63 64 66
f 66 64 65
f 67 68 70
f 70 68 69
f 71 72 74
f 74 72 73
f 75 76 78
f 78 76 77
f 79 80 82
f 82 80 81
f 83 84 86
f 86 84 85
f 87 88 90
f 90 88 89
f 91 92 94
f 94 92 93
f 95 96 98
f 98 96 97
f 99 100 102
f 102 100 101
f 103 104 106
f 106 104 105
f 107 108 110
f 110 108 109
f 111 112 114
f 114 112 113
f 115 116 118
f 118 116 117
f 123 124 119
f 119 120 121
f 122 123 119
f 119 121 122
f 125 126 128
f 128 126 127
f 129 130 132
f 132 130 131
f 133 134 136
f 136 134 135
f 137 138 140
f 140 138 139
f 141 142 144
f 144 142 143
f 145 146 148
f 148 146 147
f 149 150 152
f 152 150 151
f 153 154 156
f 156 154 155
f 157 158 160
f 160 158 159
