# DIMKO.app — selection export
# Generated: 2026-07-31T07:54:24.112Z
o item_958c4ea6_1130200
v -36.793455 12.782012 23.410540
v -36.771175 12.802074 23.410540
v -36.771844 12.802817 23.410540
v -36.792330 12.784371 23.410540
v -36.788322 12.860852 23.410540
v -35.960986 12.817493 23.410540
v -35.960934 12.818492 23.410540
v -36.789269 12.861903 23.410540
v -35.959269 12.817480 23.409269
v -35.959269 12.860862 22.581486
v -35.959269 12.784381 22.577478
v -35.959269 12.802827 22.597964
v -35.959269 12.802084 22.598633
v -35.959269 12.782023 22.576353
v -35.959269 12.861913 22.580540
v -35.959269 12.818478 23.409321
v -36.945425 12.870087 22.736865
v -36.831131 12.864097 23.145212
v -36.789269 12.861903 23.187074
v -36.789269 12.861903 23.410540
v -35.960934 12.818492 23.410540
v -35.960711 12.818480 23.410763
v -35.959976 12.818441 23.410027
v -36.789281 12.861903 22.580722
v -36.793455 12.782012 23.410540
v -36.789269 12.861903 23.410540
v -36.789269 12.861903 23.187074
v -36.793455 12.782012 23.187074
v -36.771175 12.802074 23.410540
v -36.793455 12.782012 23.410540
v -36.793455 12.782012 23.187074
v -36.771175 12.802074 23.178284
v -36.771175 12.802074 23.178284
v -36.771844 12.802817 23.178577
v -36.771844 12.802817 23.410540
v -36.771175 12.802074 23.410540
v -36.771844 12.802817 23.178577
v -36.792330 12.784371 23.186659
v -36.792330 12.784371 23.410540
v -36.771844 12.802817 23.410540
v -36.792330 12.784371 23.186659
v -36.788322 12.860852 23.186659
v -36.788322 12.860852 23.410540
v -36.792330 12.784371 23.410540
v -36.788601 12.860866 22.581402
v -35.960002 12.817441 23.410000
v -35.960763 12.817481 23.410763
v -35.960986 12.817493 23.410540
v -36.788322 12.860852 23.410540
v -36.788322 12.860852 23.186659
v -36.830292 12.863051 23.144689
v -36.944358 12.869029 22.737159
v -36.831131 12.864097 23.145212
v -36.835318 12.784206 23.145212
v -36.793455 12.782012 23.187074
v -36.789269 12.861903 23.187074
v -36.835318 12.784206 23.145212
v -36.815321 12.804387 23.134138
v -36.771175 12.802074 23.178284
v -36.793455 12.782012 23.187074
v -36.771844 12.802817 23.178577
v -36.771175 12.802074 23.178284
v -36.815321 12.804387 23.134138
v -36.815914 12.805127 23.134508
v -36.792330 12.784371 23.186659
v -36.771844 12.802817 23.178577
v -36.815914 12.805127 23.134508
v -36.834300 12.786570 23.144689
v -36.788322 12.860852 23.186659
v -36.792330 12.784371 23.186659
v -36.834300 12.786570 23.144689
v -36.830292 12.863051 23.144689
v -36.945425 12.870087 22.736865
v -36.949611 12.790196 22.736865
v -36.835318 12.784206 23.145212
v -36.831131 12.864097 23.145212
v -36.949611 12.790196 22.736865
v -36.924771 12.810123 22.743095
v -36.815321 12.804387 23.134138
v -36.835318 12.784206 23.145212
v -36.815914 12.805127 23.134508
v -36.815321 12.804387 23.134138
v -36.924771 12.810123 22.743095
v -36.925526 12.810871 22.742887
v -36.834300 12.786570 23.144689
v -36.815914 12.805127 23.134508
v -36.925526 12.810871 22.742887
v -36.948366 12.792548 22.737159
v -36.830292 12.863051 23.144689
v -36.834300 12.786570 23.144689
v -36.948366 12.792548 22.737159
v -36.944358 12.869029 22.737159
v -36.949611 12.790196 22.736865
v -36.945425 12.870087 22.736865
v -36.789281 12.861903 22.580722
v -36.791375 12.781903 22.578628
v -36.924771 12.810123 22.743095
v -36.949611 12.790196 22.736865
v -36.791375 12.781903 22.578628
v -36.775840 12.802318 22.594163
v -36.775840 12.802318 22.594163
v -36.776321 12.803052 22.593682
v -36.925526 12.810871 22.742887
v -36.924771 12.810123 22.743095
v -36.776321 12.803052 22.593682
v -36.790605 12.784280 22.579398
v -36.948366 12.792548 22.737159
v -36.925526 12.810871 22.742887
v -36.790605 12.784280 22.579398
v -36.788601 12.860866 22.581402
v -36.944358 12.869029 22.737159
v -36.948366 12.792548 22.737159
v -36.632943 12.870097 22.424384
v -36.789281 12.861903 22.580722
v -35.959976 12.818441 23.410027
v -35.959269 12.818478 23.409321
v -35.959269 12.861913 22.580540
v -36.182734 12.861913 22.580540
v -36.224597 12.864107 22.538678
v -36.632943 12.870097 22.424384
v -36.632943 12.790206 22.420197
v -36.791375 12.781903 22.578628
v -36.789281 12.861903 22.580722
v -36.632943 12.790206 22.420197
v -36.626713 12.810134 22.445037
v -36.775840 12.802318 22.594163
v -36.791375 12.781903 22.578628
v -36.776321 12.803052 22.593682
v -36.775840 12.802318 22.594163
v -36.626713 12.810134 22.445037
v -36.626921 12.810881 22.444282
v -36.790605 12.784280 22.579398
v -36.776321 12.803052 22.593682
v -36.626921 12.810881 22.444282
v -36.632649 12.792559 22.421443
v -36.788601 12.860866 22.581402
v -36.790605 12.784280 22.579398
v -36.632649 12.792559 22.421443
v -36.632649 12.869039 22.425451
v -36.225119 12.863061 22.539516
v -36.183149 12.860862 22.581486
v -35.959269 12.860862 22.581486
v -35.959269 12.817480 23.409269
v -35.960002 12.817441 23.410000
v -36.788601 12.860866 22.581402
v -36.632649 12.869039 22.425451
v -36.632943 12.790206 22.420197
v -36.632943 12.870097 22.424384
v -36.224597 12.864107 22.538678
v -36.224597 12.784216 22.534491
v -36.626713 12.810134 22.445037
v -36.632943 12.790206 22.420197
v -36.224597 12.784216 22.534491
v -36.235670 12.804398 22.554488
v -36.235670 12.804398 22.554488
v -36.235301 12.805137 22.553895
v -36.626921 12.810881 22.444282
v -36.626713 12.810134 22.445037
v -36.235301 12.805137 22.553895
v -36.225119 12.786581 22.535508
v -36.632649 12.792559 22.421443
v -36.626921 12.810881 22.444282
v -36.632649 12.869039 22.425451
v -36.632649 12.792559 22.421443
v -36.225119 12.786581 22.535508
v -36.225119 12.863061 22.539516
v -36.224597 12.784216 22.534491
v -36.224597 12.864107 22.538678
v -36.182734 12.861913 22.580540
v -36.182734 12.782023 22.576353
v -36.235670 12.804398 22.554488
v -36.224597 12.784216 22.534491
v -36.182734 12.782023 22.576353
v -36.191524 12.802084 22.598633
v -36.191524 12.802084 22.598633
v -36.191231 12.802827 22.597964
v -36.235301 12.805137 22.553895
v -36.235670 12.804398 22.554488
v -36.191231 12.802827 22.597964
v -36.183149 12.784381 22.577478
v -36.225119 12.786581 22.535508
v -36.235301 12.805137 22.553895
v -36.183149 12.784381 22.577478
v -36.183149 12.860862 22.581486
v -36.225119 12.863061 22.539516
v -36.225119 12.786581 22.535508
v -35.959269 12.861913 22.580540
v -35.959269 12.782023 22.576353
v -36.182734 12.782023 22.576353
v -36.182734 12.861913 22.580540
v -35.959269 12.782023 22.576353
v -35.959269 12.802084 22.598633
v -36.191524 12.802084 22.598633
v -36.182734 12.782023 22.576353
v -36.191231 12.802827 22.597964
v -36.191524 12.802084 22.598633
v -35.959269 12.802084 22.598633
v -35.959269 12.802827 22.597964
v -36.183149 12.784381 22.577478
v -36.191231 12.802827 22.597964
v -35.959269 12.802827 22.597964
v -35.959269 12.784381 22.577478
v -36.183149 12.860862 22.581486
v -36.183149 12.784381 22.577478
v -35.959269 12.784381 22.577478
v -35.959269 12.860862 22.581486
v -35.960763 12.817481 23.410763
v -35.960002 12.817441 23.410000
v -35.959269 12.817480 23.409269
v -35.959269 12.818478 23.409321
v -35.959976 12.818441 23.410027
v -35.960711 12.818480 23.410763
v -35.960934 12.818492 23.410540
v -35.960986 12.817493 23.410540
v -35.960763 12.817481 23.410763
v -35.960711 12.818480 23.410763
f 1 2 3
f 5 6 7
f 1 3 4
f 5 7 8
f 8 1 4
f 4 5 8
f 15 16 9
f 11 12 13
f 15 9 10
f 11 13 14
f 14 15 10
f 10 11 14
f 23 24 17
f 17 18 19
f 19 20 21
f 21 22 23
f 23 17 19
f 19 21 23
f 25 26 28
f 28 26 27
f 29 30 32
f 32 30 31
f 33 34 36
f 36 34 35
f 37 38 40
f 40 38 39
f 41 42 44
f 44 42 43
f 51 52 45
f 45 46 47
f 48 49 50
f 50 51 45
f 45 47 48
f 48 50 45
f 53 54 56
f 56 54 55
f 57 58 60
f 60 58 59
f 61 62 64
f 64 62 63
f 65 66 68
f 68 66 67
f 69 70 72
f 72 70 71
f 73 74 76
f 76 74 75
f 77 78 80
f 80 78 79
f 81 82 84
f 84 82 83
f 85 86 88
f 88 86 87
f 89 90 92
f 92 90 91
f 93 94 96
f 96 94 95
f 97 98 100
f 100 98 99
f 101 102 104
f 104 102 103
f 105 106 108
f 108 106 107
f 109 110 112
f 112 110 111
f 118 119 113
f 113 114 115
f 115 116 117
f 118 113 115
f 115 117 118
f 120 121 123
f 123 121 122
f 124 125 127
f 127 125 126
f 128 129 131
f 131 129 130
f 132 133 135
f 135 133 134
f 136 137 139
f 139 137 138
f 145 146 140
f 141 142 143
f 143 144 145
f 145 140 141
f 141 143 145
f 147 148 150
f 150 148 149
f 151 152 154
f 154 152 153
f 155 156 158
f 158 156 157
f 159 160 162
f 162 160 161
f 163 164 166
f 166 164 165
f 167 168 170
f 170 168 169
f 171 172 174
f 174 172 173
f 175 176 178
f 178 176 177
f 179 180 182
f 182 180 181
f 183 184 186
f 186 184 185
f 187 188 190
f 190 188 189
f 191 192 194
f 194 192 193
f 195 196 198
f 198 196 197
f 199 200 202
f 202 200 201
f 203 204 206
f 206 204 205
f 211 212 207
f 207 208 209
f 209 210 211
f 211 207 209
f 213 214 216
f 216 214 215
o item_958c4ea6_1131223
v 3.579460 12.782012 -32.323455
v 3.579460 12.802074 -32.301175
v 3.579460 12.802817 -32.301844
v 3.579460 12.784371 -32.322330
v 3.579460 12.860852 -32.318322
v 3.579460 12.817493 -31.490986
v 3.579460 12.818492 -31.490934
v 3.579460 12.861903 -32.319269
v 3.580731 12.817480 -31.489269
v 4.408514 12.860862 -31.489269
v 4.412522 12.784381 -31.489269
v 4.392036 12.802827 -31.489269
v 4.391367 12.802084 -31.489269
v 4.413647 12.782023 -31.489269
v 4.409460 12.861913 -31.489269
v 3.580679 12.818478 -31.489269
v 4.253135 12.870087 -32.475425
v 3.844788 12.864097 -32.361131
v 3.802926 12.861903 -32.319269
v 3.579460 12.861903 -32.319269
v 3.579460 12.818492 -31.490934
v 3.579237 12.818480 -31.490711
v 3.579973 12.818441 -31.489976
v 4.409278 12.861903 -32.319281
v 3.579460 12.782012 -32.323455
v 3.579460 12.861903 -32.319269
v 3.802926 12.861903 -32.319269
v 3.802926 12.782012 -32.323455
v 3.579460 12.802074 -32.301175
v 3.579460 12.782012 -32.323455
v 3.802926 12.782012 -32.323455
v 3.811716 12.802074 -32.301175
v 3.811716 12.802074 -32.301175
v 3.811423 12.802817 -32.301844
v 3.579460 12.802817 -32.301844
v 3.579460 12.802074 -32.301175
v 3.811423 12.802817 -32.301844
v 3.803341 12.784371 -32.322330
v 3.579460 12.784371 -32.322330
v 3.579460 12.802817 -32.301844
v 3.803341 12.784371 -32.322330
v 3.803341 12.860852 -32.318322
v 3.579460 12.860852 -32.318322
v 3.579460 12.784371 -32.322330
v 4.408598 12.860866 -32.318601
v 3.580000 12.817441 -31.490002
v 3.579237 12.817481 -31.490763
v 3.579460 12.817493 -31.490986
v 3.579460 12.860852 -32.318322
v 3.803341 12.860852 -32.318322
v 3.845311 12.863051 -32.360292
v 4.252841 12.869029 -32.474358
v 3.844788 12.864097 -32.361131
v 3.844788 12.784206 -32.365318
v 3.802926 12.782012 -32.323455
v 3.802926 12.861903 -32.319269
v 3.844788 12.784206 -32.365318
v 3.855862 12.804387 -32.345321
v 3.811716 12.802074 -32.301175
v 3.802926 12.782012 -32.323455
v 3.811423 12.802817 -32.301844
v 3.811716 12.802074 -32.301175
v 3.855862 12.804387 -32.345321
v 3.855492 12.805127 -32.345914
v 3.803341 12.784371 -32.322330
v 3.811423 12.802817 -32.301844
v 3.855492 12.805127 -32.345914
v 3.845311 12.786570 -32.364300
v 3.803341 12.860852 -32.318322
v 3.803341 12.784371 -32.322330
v 3.845311 12.786570 -32.364300
v 3.845311 12.863051 -32.360292
v 4.253135 12.870087 -32.475425
v 4.253135 12.790196 -32.479611
v 3.844788 12.784206 -32.365318
v 3.844788 12.864097 -32.361131
v 4.253135 12.790196 -32.479611
v 4.246905 12.810123 -32.454771
v 3.855862 12.804387 -32.345321
v 3.844788 12.784206 -32.365318
v 3.855492 12.805127 -32.345914
v 3.855862 12.804387 -32.345321
v 4.246905 12.810123 -32.454771
v 4.247113 12.810871 -32.455526
v 3.845311 12.786570 -32.364300
v 3.855492 12.805127 -32.345914
v 4.247113 12.810871 -32.455526
v 4.252841 12.792548 -32.478366
v 3.845311 12.863051 -32.360292
v 3.845311 12.786570 -32.364300
v 4.252841 12.792548 -32.478366
v 4.252841 12.869029 -32.474358
v 4.253135 12.790196 -32.479611
v 4.253135 12.870087 -32.475425
v 4.409278 12.861903 -32.319281
v 4.411372 12.781903 -32.321375
v 4.246905 12.810123 -32.454771
v 4.253135 12.790196 -32.479611
v 4.411372 12.781903 -32.321375
v 4.395837 12.802318 -32.305840
v 4.395837 12.802318 -32.305840
v 4.396318 12.803052 -32.306321
v 4.247113 12.810871 -32.455526
v 4.246905 12.810123 -32.454771
v 4.396318 12.803052 -32.306321
v 4.410602 12.784280 -32.320605
v 4.252841 12.792548 -32.478366
v 4.247113 12.810871 -32.455526
v 4.410602 12.784280 -32.320605
v 4.408598 12.860866 -32.318601
v 4.252841 12.869029 -32.474358
v 4.252841 12.792548 -32.478366
v 4.565616 12.870097 -32.162943
v 4.409278 12.861903 -32.319281
v 3.579973 12.818441 -31.489976
v 3.580679 12.818478 -31.489269
v 4.409460 12.861913 -31.489269
v 4.409460 12.861913 -31.712734
v 4.451322 12.864107 -31.754597
v 4.565616 12.870097 -32.162943
v 4.569803 12.790206 -32.162943
v 4.411372 12.781903 -32.321375
v 4.409278 12.861903 -32.319281
v 4.569803 12.790206 -32.162943
v 4.544963 12.810134 -32.156713
v 4.395837 12.802318 -32.305840
v 4.411372 12.781903 -32.321375
v 4.396318 12.803052 -32.306321
v 4.395837 12.802318 -32.305840
v 4.544963 12.810134 -32.156713
v 4.545718 12.810881 -32.156921
v 4.410602 12.784280 -32.320605
v 4.396318 12.803052 -32.306321
v 4.545718 12.810881 -32.156921
v 4.568557 12.792559 -32.162649
v 4.408598 12.860866 -32.318601
v 4.410602 12.784280 -32.320605
v 4.568557 12.792559 -32.162649
v 4.564549 12.869039 -32.162649
v 4.450484 12.863061 -31.755119
v 4.408514 12.860862 -31.713149
v 4.408514 12.860862 -31.489269
v 3.580731 12.817480 -31.489269
v 3.580000 12.817441 -31.490002
v 4.408598 12.860866 -32.318601
v 4.564549 12.869039 -32.162649
v 4.569803 12.790206 -32.162943
v 4.565616 12.870097 -32.162943
v 4.451322 12.864107 -31.754597
v 4.455509 12.784216 -31.754597
v 4.544963 12.810134 -32.156713
v 4.569803 12.790206 -32.162943
v 4.455509 12.784216 -31.754597
v 4.435512 12.804398 -31.765670
v 4.435512 12.804398 -31.765670
v 4.436105 12.805137 -31.765301
v 4.545718 12.810881 -32.156921
v 4.544963 12.810134 -32.156713
v 4.436105 12.805137 -31.765301
v 4.454492 12.786581 -31.755119
v 4.568557 12.792559 -32.162649
v 4.545718 12.810881 -32.156921
v 4.564549 12.869039 -32.162649
v 4.568557 12.792559 -32.162649
v 4.454492 12.786581 -31.755119
v 4.450484 12.863061 -31.755119
v 4.455509 12.784216 -31.754597
v 4.451322 12.864107 -31.754597
v 4.409460 12.861913 -31.712734
v 4.413647 12.782023 -31.712734
v 4.435512 12.804398 -31.765670
v 4.455509 12.784216 -31.754597
v 4.413647 12.782023 -31.712734
v 4.391367 12.802084 -31.721524
v 4.391367 12.802084 -31.721524
v 4.392036 12.802827 -31.721231
v 4.436105 12.805137 -31.765301
v 4.435512 12.804398 -31.765670
v 4.392036 12.802827 -31.721231
v 4.412522 12.784381 -31.713149
v 4.454492 12.786581 -31.755119
v 4.436105 12.805137 -31.765301
v 4.412522 12.784381 -31.713149
v 4.408514 12.860862 -31.713149
v 4.450484 12.863061 -31.755119
v 4.454492 12.786581 -31.755119
v 4.409460 12.861913 -31.489269
v 4.413647 12.782023 -31.489269
v 4.413647 12.782023 -31.712734
v 4.409460 12.861913 -31.712734
v 4.413647 12.782023 -31.489269
v 4.391367 12.802084 -31.489269
v 4.391367 12.802084 -31.721524
v 4.413647 12.782023 -31.712734
v 4.392036 12.802827 -31.721231
v 4.391367 12.802084 -31.721524
v 4.391367 12.802084 -31.489269
v 4.392036 12.802827 -31.489269
v 4.412522 12.784381 -31.713149
v 4.392036 12.802827 -31.721231
v 4.392036 12.802827 -31.489269
v 4.412522 12.784381 -31.489269
v 4.408514 12.860862 -31.713149
v 4.412522 12.784381 -31.713149
v 4.412522 12.784381 -31.489269
v 4.408514 12.860862 -31.489269
v 3.579237 12.817481 -31.490763
v 3.580000 12.817441 -31.490002
v 3.580731 12.817480 -31.489269
v 3.580679 12.818478 -31.489269
v 3.579973 12.818441 -31.489976
v 3.579237 12.818480 -31.490711
v 3.579460 12.818492 -31.490934
v 3.579460 12.817493 -31.490986
v 3.579237 12.817481 -31.490763
v 3.579237 12.818480 -31.490711
f 217 218 219
f 221 222 223
f 217 219 220
f 221 223 224
f 224 217 220
f 220 221 224
f 231 232 225
f 227 228 229
f 231 225 226
f 227 229 230
f 230 231 226
f 226 227 230
f 239 240 233
f 233 234 235
f 235 236 237
f 237 238 239
f 239 233 235
f 235 237 239
f 241 242 244
f 244 242 243
f 245 246 248
f 248 246 247
f 249 250 252
f 252 250 251
f 253 254 256
f 256 254 255
f 257 258 260
f 260 258 259
f 267 268 261
f 261 262 263
f 264 265 266
f 266 267 261
f 261 263 264
f 264 266 261
f 269 270 272
f 272 270 271
f 273 274 276
f 276 274 275
f 277 278 280
f 280 278 279
f 281 282 284
f 284 282 283
f 285 286 288
f 288 286 287
f 289 290 292
f 292 290 291
f 293 294 296
f 296 294 295
f 297 298 300
f 300 298 299
f 301 302 304
f 304 302 303
f 305 306 308
f 308 306 307
f 309 310 312
f 312 310 311
f 313 314 316
f 316 314 315
f 317 318 320
f 320 318 319
f 321 322 324
f 324 322 323
f 325 326 328
f 328 326 327
f 334 335 329
f 329 330 331
f 331 332 333
f 334 329 331
f 331 333 334
f 336 337 339
f 339 337 338
f 340 341 343
f 343 341 342
f 344 345 347
f 347 345 346
f 348 349 351
f 351 349 350
f 352 353 355
f 355 353 354
f 361 362 356
f 357 358 359
f 359 360 361
f 361 356 357
f 357 359 361
f 363 364 366
f 366 364 365
f 367 368 370
f 370 368 369
f 371 372 374
f 374 372 373
f 375 376 378
f 378 376 377
f 379 380 382
f 382 380 381
f 383 384 386
f 386 384 385
f 387 388 390
f 390 388 389
f 391 392 394
f 394 392 393
f 395 396 398
f 398 396 397
f 399 400 402
f 402 400 401
f 403 404 406
f 406 404 405
f 407 408 410
f 410 408 409
f 411 412 414
f 414 412 413
f 415 416 418
f 418 416 417
f 419 420 422
f 422 420 421
f 427 428 423
f 423 424 425
f 425 426 427
f 427 423 425
f 429 430 432
f 432 430 431
