# DIMKO.app — selection export
# Generated: 2026-07-31T07:01:39.204Z
o item_92b0f140_1129149
v 7.580000 21.740001 4.680000
v 7.630000 21.690001 4.680000
v 7.930000 21.690001 4.680000
v 7.930000 21.689001 4.680000
v 7.629586 21.689001 4.680000
v 7.581000 21.737587 4.680000
v 7.581000 21.586793 4.680000
v 7.600506 21.606299 4.680000
v 7.601213 21.605592 4.680000
v 7.580000 21.584379 4.680000
v 7.580000 21.584379 7.230000
v 7.601213 21.605592 7.230000
v 7.600506 21.606299 7.230000
v 7.581000 21.586793 7.230000
v 7.581000 21.737587 7.230000
v 7.629586 21.689001 7.230000
v 7.930000 21.689001 7.230000
v 7.930000 21.690001 7.230000
v 7.630000 21.690001 7.230000
v 7.580000 21.740001 7.230000
v 7.629586 21.689001 7.230000
v 7.581000 21.737587 7.230000
v 7.581000 21.737587 4.680000
v 7.629586 21.689001 4.680000
v 7.930000 21.689001 7.230000
v 7.629586 21.689001 7.230000
v 7.629586 21.689001 4.680000
v 7.930000 21.689001 4.680000
v 7.930000 21.690001 7.230000
v 7.930000 21.689001 7.230000
v 7.930000 21.689001 4.680000
v 7.930000 21.690001 4.680000
v 7.630000 21.690001 7.230000
v 7.930000 21.690001 7.230000
v 7.930000 21.690001 4.680000
v 7.630000 21.690001 4.680000
v 7.580000 21.740001 7.230000
v 7.630000 21.690001 7.230000
v 7.630000 21.690001 4.680000
v 7.580000 21.740001 4.680000
v 7.580000 21.584379 7.230000
v 7.580000 21.740001 7.230000
v 7.580000 21.740001 4.680000
v 7.580000 21.584379 4.680000
v 7.601213 21.605592 7.230000
v 7.580000 21.584379 7.230000
v 7.580000 21.584379 4.680000
v 7.601213 21.605592 4.680000
v 7.600506 21.606299 7.230000
v 7.601213 21.605592 7.230000
v 7.601213 21.605592 4.680000
v 7.600506 21.606299 4.680000
v 7.581000 21.586793 7.230000
v 7.600506 21.606299 7.230000
v 7.600506 21.606299 4.680000
v 7.581000 21.586793 4.680000
v 7.581000 21.737587 7.230000
v 7.581000 21.586793 7.230000
v 7.581000 21.586793 4.680000
v 7.581000 21.737587 4.680000
f 2 3 4
f 7 8 9
f 2 4 5
f 7 9 10
f 1 2 5
f 6 7 10
f 1 5 6
f 6 10 1
f 11 12 13
f 16 17 18
f 11 13 14
f 16 18 19
f 20 11 14
f 15 16 19
f 20 14 15
f 15 19 20
f 21 22 24
f 24 22 23
f 25 26 28
f 28 26 27
f 29 30 32
f 32 30 31
f 33 34 36
f 36 34 35
f 37 38 40
f 40 38 39
f 41 42 44
f 44 42 43
f 45 46 48
f 48 46 47
f 49 50 52
f 52 50 51
f 53 54 56
f 56 54 55
f 57 58 60
f 60 58 59
o item_92b0f140_1172284
v 4.930780 21.846915 7.179790
v 4.880780 21.796915 7.181090
v 4.580780 21.796915 7.181090
v 4.580780 21.795915 7.181116
v 4.881194 21.795915 7.181116
v 4.929780 21.844501 7.179853
v 4.929780 21.693707 7.183773
v 4.910274 21.713213 7.183266
v 4.909567 21.712506 7.183285
v 4.930780 21.691293 7.183836
v 4.930780 21.637485 5.114290
v 4.909567 21.658698 5.113739
v 4.910274 21.659405 5.113720
v 4.929780 21.639899 5.114227
v 4.929780 21.790693 5.110307
v 4.881194 21.742107 5.111570
v 4.580780 21.742107 5.111570
v 4.580780 21.743107 5.111544
v 4.880780 21.743107 5.111544
v 4.930780 21.793107 5.110244
v 4.881194 21.742107 5.111570
v 4.929780 21.790693 5.110307
v 4.929780 21.844501 7.179853
v 4.881194 21.795915 7.181116
v 4.580780 21.742107 5.111570
v 4.881194 21.742107 5.111570
v 4.881194 21.795915 7.181116
v 4.580780 21.795915 7.181116
v 4.580780 21.743107 5.111544
v 4.580780 21.742107 5.111570
v 4.580780 21.795915 7.181116
v 4.580780 21.796915 7.181090
v 4.880780 21.743107 5.111544
v 4.580780 21.743107 5.111544
v 4.580780 21.796915 7.181090
v 4.880780 21.796915 7.181090
v 4.930780 21.793107 5.110244
v 4.880780 21.743107 5.111544
v 4.880780 21.796915 7.181090
v 4.930780 21.846915 7.179790
v 4.930780 21.637485 5.114290
v 4.930780 21.793107 5.110244
v 4.930780 21.846915 7.179790
v 4.930780 21.691293 7.183836
v 4.909567 21.658698 5.113739
v 4.930780 21.637485 5.114290
v 4.930780 21.691293 7.183836
v 4.909567 21.712506 7.183285
v 4.910274 21.659405 5.113720
v 4.909567 21.658698 5.113739
v 4.909567 21.712506 7.183285
v 4.910274 21.713213 7.183266
v 4.929780 21.639899 5.114227
v 4.910274 21.659405 5.113720
v 4.910274 21.713213 7.183266
v 4.929780 21.693707 7.183773
v 4.929780 21.790693 5.110307
v 4.929780 21.639899 5.114227
v 4.929780 21.693707 7.183773
v 4.929780 21.844501 7.179853
f 62 63 64
f 67 68 69
f 62 64 65
f 67 69 70
f 61 62 65
f 66 67 70
f 61 65 66
f 66 70 61
f 71 72 73
f 76 77 78
f 71 73 74
f 76 78 79
f 80 71 74
f 75 76 79
f 80 74 75
f 75 79 80
f 81 82 84
f 84 82 83
f 85 86 88
f 88 86 87
f 89 90 92
f 92 90 91
f 93 94 96
f 96 94 95
f 97 98 100
f 100 98 99
f 101 102 104
f 104 102 103
f 105 106 108
f 108 106 107
f 109 110 112
f 112 110 111
f 113 114 116
f 116 114 115
f 117 118 120
f 120 118 119
o item_92b0f140_1172244
v 3.049379 21.784245 5.113966
v 3.099529 21.734410 5.115197
v 3.399526 21.735400 5.114783
v 3.399529 21.734400 5.114809
v 3.099118 21.733409 5.115223
v 3.050386 21.781835 5.114027
v 3.050839 21.631041 5.117948
v 3.070286 21.650611 5.117413
v 3.070995 21.649906 5.117431
v 3.049846 21.628623 5.118012
v 3.052524 21.682440 7.187557
v 3.073674 21.703723 7.186977
v 3.072964 21.704427 7.186959
v 3.053517 21.684857 7.187493
v 3.053065 21.835651 7.183573
v 3.101796 21.787225 7.184769
v 3.402207 21.788217 7.184354
v 3.402204 21.789217 7.184328
v 3.102207 21.788227 7.184742
v 3.052058 21.838062 7.183511
v 3.101796 21.787225 7.184769
v 3.053065 21.835651 7.183573
v 3.050386 21.781835 5.114027
v 3.099118 21.733409 5.115223
v 3.402207 21.788217 7.184354
v 3.101796 21.787225 7.184769
v 3.099118 21.733409 5.115223
v 3.399529 21.734400 5.114809
v 3.402204 21.789217 7.184328
v 3.402207 21.788217 7.184354
v 3.399529 21.734400 5.114809
v 3.399526 21.735400 5.114783
v 3.102207 21.788227 7.184742
v 3.402204 21.789217 7.184328
v 3.399526 21.735400 5.114783
v 3.099529 21.734410 5.115197
v 3.052058 21.838062 7.183511
v 3.102207 21.788227 7.184742
v 3.099529 21.734410 5.115197
v 3.049379 21.784245 5.113966
v 3.052524 21.682440 7.187557
v 3.052058 21.838062 7.183511
v 3.049379 21.784245 5.113966
v 3.049846 21.628623 5.118012
v 3.073674 21.703723 7.186977
v 3.052524 21.682440 7.187557
v 3.049846 21.628623 5.118012
v 3.070995 21.649906 5.117431
v 3.072964 21.704427 7.186959
v 3.073674 21.703723 7.186977
v 3.070995 21.649906 5.117431
v 3.070286 21.650611 5.117413
v 3.053517 21.684857 7.187493
v 3.072964 21.704427 7.186959
v 3.070286 21.650611 5.117413
v 3.050839 21.631041 5.117948
v 3.053065 21.835651 7.183573
v 3.053517 21.684857 7.187493
v 3.050839 21.631041 5.117948
v 3.050386 21.781835 5.114027
f 122 123 124
f 127 128 129
f 122 124 125
f 127 129 130
f 121 122 125
f 126 127 130
f 121 125 126
f 126 130 121
f 131 132 133
f 136 137 138
f 131 133 134
f 136 138 139
f 140 131 134
f 135 136 139
f 140 134 135
f 135 139 140
f 141 142 144
f 144 142 143
f 145 146 148
f 148 146 147
f 149 150 152
f 152 150 151
f 153 154 156
f 156 154 155
f 157 158 160
f 160 158 159
f 161 162 164
f 164 162 163
f 165 166 168
f 168 166 167
f 169 170 172
f 172 170 171
f 173 174 176
f 176 174 175
f 177 178 180
f 180 178 179
o item_92b0f140_1129008
v -6.383270 21.760001 7.629992
v -6.433270 21.710001 7.629992
v -6.733270 21.710001 7.629992
v -6.733270 21.709001 7.629992
v -6.432856 21.709001 7.629992
v -6.384270 21.757587 7.629992
v -6.384270 21.606793 7.629992
v -6.403776 21.626299 7.629992
v -6.404483 21.625592 7.629992
v -6.383270 21.604379 7.629992
v -6.383270 21.604379 5.109968
v -6.404483 21.625592 5.109968
v -6.403776 21.626299 5.109968
v -6.384270 21.606793 5.109968
v -6.384270 21.757587 5.109968
v -6.432856 21.709001 5.109968
v -6.733270 21.709001 5.109968
v -6.733270 21.710001 5.109968
v -6.433270 21.710001 5.109968
v -6.383270 21.760001 5.109968
v -6.432856 21.709001 5.109968
v -6.384270 21.757587 5.109968
v -6.384270 21.757587 7.629992
v -6.432856 21.709001 7.629992
v -6.733270 21.709001 5.109968
v -6.432856 21.709001 5.109968
v -6.432856 21.709001 7.629992
v -6.733270 21.709001 7.629992
v -6.733270 21.710001 5.109968
v -6.733270 21.709001 5.109968
v -6.733270 21.709001 7.629992
v -6.733270 21.710001 7.629992
v -6.433270 21.710001 5.109968
v -6.733270 21.710001 5.109968
v -6.733270 21.710001 7.629992
v -6.433270 21.710001 7.629992
v -6.383270 21.760001 5.109968
v -6.433270 21.710001 5.109968
v -6.433270 21.710001 7.629992
v -6.383270 21.760001 7.629992
v -6.383270 21.604379 5.109968
v -6.383270 21.760001 5.109968
v -6.383270 21.760001 7.629992
v -6.383270 21.604379 7.629992
v -6.404483 21.625592 5.109968
v -6.383270 21.604379 5.109968
v -6.383270 21.604379 7.629992
v -6.404483 21.625592 7.629992
v -6.403776 21.626299 5.109968
v -6.404483 21.625592 5.109968
v -6.404483 21.625592 7.629992
v -6.403776 21.626299 7.629992
v -6.384270 21.606793 5.109968
v -6.403776 21.626299 5.109968
v -6.403776 21.626299 7.629992
v -6.384270 21.606793 7.629992
v -6.384270 21.757587 5.109968
v -6.384270 21.606793 5.109968
v -6.384270 21.606793 7.629992
v -6.384270 21.757587 7.629992
f 182 183 184
f 187 188 189
f 182 184 185
f 187 189 190
f 181 182 185
f 186 187 190
f 181 185 186
f 186 190 181
f 191 192 193
f 196 197 198
f 191 193 194
f 196 198 199
f 200 191 194
f 195 196 199
f 200 194 195
f 195 199 200
f 201 202 204
f 204 202 203
f 205 206 208
f 208 206 207
f 209 210 212
f 212 210 211
f 213 214 216
f 216 214 215
f 217 218 220
f 220 218 219
f 221 222 224
f 224 222 223
f 225 226 228
f 228 226 227
f 229 230 232
f 232 230 231
f 233 234 236
f 236 234 235
f 237 238 240
f 240 238 239
o item_92b0f140_1111063
v -10.670000 21.664811 0.569284
v -10.620000 21.614811 0.570284
v -10.320000 21.614811 0.570284
v -10.320000 21.613811 0.570304
v -10.620414 21.613811 0.570304
v -10.669000 21.662397 0.569332
v -10.669000 21.511603 0.572348
v -10.649494 21.531109 0.571958
v -10.648787 21.530402 0.571972
v -10.670000 21.509189 0.572396
v -10.670000 21.650389 7.632396
v -10.648787 21.671602 7.631972
v -10.649494 21.672309 7.631958
v -10.669000 21.652803 7.632348
v -10.669000 21.803597 7.629332
v -10.620414 21.755011 7.630304
v -10.320000 21.755011 7.630304
v -10.320000 21.756011 7.630284
v -10.620000 21.756011 7.630284
v -10.670000 21.806011 7.629284
v -10.620414 21.755011 7.630304
v -10.669000 21.803597 7.629332
v -10.669000 21.662397 0.569332
v -10.620414 21.613811 0.570304
v -10.320000 21.755011 7.630304
v -10.620414 21.755011 7.630304
v -10.620414 21.613811 0.570304
v -10.320000 21.613811 0.570304
v -10.320000 21.756011 7.630284
v -10.320000 21.755011 7.630304
v -10.320000 21.613811 0.570304
v -10.320000 21.614811 0.570284
v -10.620000 21.756011 7.630284
v -10.320000 21.756011 7.630284
v -10.320000 21.614811 0.570284
v -10.620000 21.614811 0.570284
v -10.670000 21.806011 7.629284
v -10.620000 21.756011 7.630284
v -10.620000 21.614811 0.570284
v -10.670000 21.664811 0.569284
v -10.670000 21.650389 7.632396
v -10.670000 21.806011 7.629284
v -10.670000 21.664811 0.569284
v -10.670000 21.509189 0.572396
v -10.648787 21.671602 7.631972
v -10.670000 21.650389 7.632396
v -10.670000 21.509189 0.572396
v -10.648787 21.530402 0.571972
v -10.649494 21.672309 7.631958
v -10.648787 21.671602 7.631972
v -10.648787 21.530402 0.571972
v -10.649494 21.531109 0.571958
v -10.669000 21.652803 7.632348
v -10.649494 21.672309 7.631958
v -10.649494 21.531109 0.571958
v -10.669000 21.511603 0.572348
v -10.669000 21.803597 7.629332
v -10.669000 21.652803 7.632348
v -10.669000 21.511603 0.572348
v -10.669000 21.662397 0.569332
f 242 243 244
f 247 248 249
f 242 244 245
f 247 249 250
f 241 242 245
f 246 247 250
f 241 245 246
f 246 250 241
f 251 252 253
f 256 257 258
f 251 253 254
f 256 258 259
f 260 251 254
f 255 256 259
f 260 254 255
f 255 259 260
f 261 262 264
f 264 262 263
f 265 266 268
f 268 266 267
f 269 270 272
f 272 270 271
f 273 274 276
f 276 274 275
f 277 278 280
f 280 278 279
f 281 282 284
f 284 282 283
f 285 286 288
f 288 286 287
f 289 290 292
f 292 290 291
f 293 294 296
f 296 294 295
f 297 298 300
f 300 298 299
o item_92b0f140_1129197
v 0.079586 25.900001 -42.613205
v 0.125945 25.850001 -42.631937
v 0.404099 25.850001 -42.744326
v 0.404099 25.849001 -42.744326
v 0.125561 25.849001 -42.631782
v 0.080513 25.897587 -42.613580
v 0.080513 25.746793 -42.613580
v 0.098599 25.766299 -42.620888
v 0.099254 25.765592 -42.621152
v 0.079586 25.744379 -42.613205
v 1.279661 25.744379 -39.643114
v 1.299329 25.765592 -39.651061
v 1.298674 25.766299 -39.650796
v 1.280588 25.746793 -39.643489
v 1.280588 25.897587 -39.643489
v 1.325636 25.849001 -39.661690
v 1.604174 25.849001 -39.774235
v 1.604174 25.850001 -39.774235
v 1.326020 25.850001 -39.661846
v 1.279661 25.900001 -39.643114
v 1.325636 25.849001 -39.661690
v 1.280588 25.897587 -39.643489
v 0.080513 25.897587 -42.613580
v 0.125561 25.849001 -42.631782
v 1.604174 25.849001 -39.774235
v 1.325636 25.849001 -39.661690
v 0.125561 25.849001 -42.631782
v 0.404099 25.849001 -42.744326
v 1.604174 25.850001 -39.774235
v 1.604174 25.849001 -39.774235
v 0.404099 25.849001 -42.744326
v 0.404099 25.850001 -42.744326
v 1.326020 25.850001 -39.661846
v 1.604174 25.850001 -39.774235
v 0.404099 25.850001 -42.744326
v 0.125945 25.850001 -42.631937
v 1.279661 25.900001 -39.643114
v 1.326020 25.850001 -39.661846
v 0.125945 25.850001 -42.631937
v 0.079586 25.900001 -42.613205
v 1.279661 25.744379 -39.643114
v 1.279661 25.900001 -39.643114
v 0.079586 25.900001 -42.613205
v 0.079586 25.744379 -42.613205
v 1.299329 25.765592 -39.651061
v 1.279661 25.744379 -39.643114
v 0.079586 25.744379 -42.613205
v 0.099254 25.765592 -42.621152
v 1.298674 25.766299 -39.650796
v 1.299329 25.765592 -39.651061
v 0.099254 25.765592 -42.621152
v 0.098599 25.766299 -42.620888
v 1.280588 25.746793 -39.643489
v 1.298674 25.766299 -39.650796
v 0.098599 25.766299 -42.620888
v 0.080513 25.746793 -42.613580
v 1.280588 25.897587 -39.643489
v 1.280588 25.746793 -39.643489
v 0.080513 25.746793 -42.613580
v 0.080513 25.897587 -42.613580
f 302 303 304
f 307 308 309
f 302 304 305
f 307 309 310
f 301 302 305
f 306 307 310
f 301 305 306
f 306 310 301
f 311 312 313
f 316 317 318
f 311 313 314
f 316 318 319
f 320 311 314
f 315 316 319
f 320 314 315
f 315 319 320
f 321 322 324
f 324 322 323
f 325 326 328
f 328 326 327
f 329 330 332
f 332 330 331
f 333 334 336
f 336 334 335
f 337 338 340
f 340 338 339
f 341 342 344
f 344 342 343
f 345 346 348
f 348 346 347
f 349 350 352
f 352 350 351
f 353 354 356
f 356 354 355
f 357 358 360
f 360 358 359
o item_92b0f140_1172008
v 1.428774 25.968129 -40.150206
v 1.381865 25.918129 -40.132875
v 1.103711 25.918129 -40.020486
v 1.103700 25.917129 -40.020514
v 1.382238 25.917129 -40.133058
v 1.427821 25.965715 -40.149899
v 1.426162 25.814921 -40.154121
v 1.408291 25.834427 -40.146268
v 1.407627 25.833720 -40.146023
v 1.427062 25.812507 -40.154564
v 0.655139 25.874491 -42.065014
v 0.635704 25.895704 -42.056473
v 0.636367 25.896411 -42.056718
v 0.654238 25.876905 -42.064572
v 0.655897 26.027699 -42.060350
v 0.610314 25.979113 -42.043509
v 0.331777 25.979113 -41.930964
v 0.331788 25.980113 -41.930936
v 0.609942 25.980113 -42.043325
v 0.656851 26.030113 -42.060657
v 0.610314 25.979113 -42.043509
v 0.655897 26.027699 -42.060350
v 1.427821 25.965715 -40.149899
v 1.382238 25.917129 -40.133058
v 0.331777 25.979113 -41.930964
v 0.610314 25.979113 -42.043509
v 1.382238 25.917129 -40.133058
v 1.103700 25.917129 -40.020514
v 0.331788 25.980113 -41.930936
v 0.331777 25.979113 -41.930964
v 1.103700 25.917129 -40.020514
v 1.103711 25.918129 -40.020486
v 0.609942 25.980113 -42.043325
v 0.331788 25.980113 -41.930936
v 1.103711 25.918129 -40.020486
v 1.381865 25.918129 -40.132875
v 0.656851 26.030113 -42.060657
v 0.609942 25.980113 -42.043325
v 1.381865 25.918129 -40.132875
v 1.428774 25.968129 -40.150206
v 0.655139 25.874491 -42.065014
v 0.656851 26.030113 -42.060657
v 1.428774 25.968129 -40.150206
v 1.427062 25.812507 -40.154564
v 0.635704 25.895704 -42.056473
v 0.655139 25.874491 -42.065014
v 1.427062 25.812507 -40.154564
v 1.407627 25.833720 -40.146023
v 0.636367 25.896411 -42.056718
v 0.635704 25.895704 -42.056473
v 1.407627 25.833720 -40.146023
v 1.408291 25.834427 -40.146268
v 0.654238 25.876905 -42.064572
v 0.636367 25.896411 -42.056718
v 1.408291 25.834427 -40.146268
v 1.426162 25.814921 -40.154121
v 0.655897 26.027699 -42.060350
v 0.654238 25.876905 -42.064572
v 1.426162 25.814921 -40.154121
v 1.427821 25.965715 -40.149899
f 362 363 364
f 367 368 369
f 362 364 365
f 367 369 370
f 361 362 365
f 366 367 370
f 361 365 366
f 366 370 361
f 371 372 373
f 376 377 378
f 371 373 374
f 376 378 379
f 380 371 374
f 375 376 379
f 380 374 375
f 375 379 380
f 381 382 384
f 384 382 383
f 385 386 388
f 388 386 387
f 389 390 392
f 392 390 391
f 393 394 396
f 396 394 395
f 397 398 400
f 400 398 399
f 401 402 404
f 404 402 403
f 405 406 408
f 408 406 407
f 409 410 412
f 412 410 411
f 413 414 416
f 416 414 415
f 417 418 420
f 420 418 419
o item_92b0f140_1129301
v -19.121517 25.920001 -33.429690
v -19.075158 25.870001 -33.448422
v -18.797004 25.870001 -33.560811
v -18.797004 25.869001 -33.560811
v -19.075541 25.869001 -33.448267
v -19.120589 25.917587 -33.430065
v -19.120589 25.766793 -33.430065
v -19.102504 25.786299 -33.437372
v -19.101848 25.785592 -33.437637
v -19.121517 25.764379 -33.429690
v -18.347156 25.764379 -31.513209
v -18.327488 25.785592 -31.521156
v -18.328144 25.786299 -31.520891
v -18.346229 25.766793 -31.513584
v -18.346229 25.917587 -31.513584
v -18.301181 25.869001 -31.531786
v -18.022643 25.869001 -31.644330
v -18.022643 25.870001 -31.644330
v -18.300797 25.870001 -31.531941
v -18.347156 25.920001 -31.513209
v -18.301181 25.869001 -31.531786
v -18.346229 25.917587 -31.513584
v -19.120589 25.917587 -33.430065
v -19.075541 25.869001 -33.448267
v -18.022643 25.869001 -31.644330
v -18.301181 25.869001 -31.531786
v -19.075541 25.869001 -33.448267
v -18.797004 25.869001 -33.560811
v -18.022643 25.870001 -31.644330
v -18.022643 25.869001 -31.644330
v -18.797004 25.869001 -33.560811
v -18.797004 25.870001 -33.560811
v -18.300797 25.870001 -31.531941
v -18.022643 25.870001 -31.644330
v -18.797004 25.870001 -33.560811
v -19.075158 25.870001 -33.448422
v -18.347156 25.920001 -31.513209
v -18.300797 25.870001 -31.531941
v -19.075158 25.870001 -33.448422
v -19.121517 25.920001 -33.429690
v -18.347156 25.764379 -31.513209
v -18.347156 25.920001 -31.513209
v -19.121517 25.920001 -33.429690
v -19.121517 25.764379 -33.429690
v -18.327488 25.785592 -31.521156
v -18.347156 25.764379 -31.513209
v -19.121517 25.764379 -33.429690
v -19.101848 25.785592 -33.437637
v -18.328144 25.786299 -31.520891
v -18.327488 25.785592 -31.521156
v -19.101848 25.785592 -33.437637
v -19.102504 25.786299 -33.437372
v -18.346229 25.766793 -31.513584
v -18.328144 25.786299 -31.520891
v -19.102504 25.786299 -33.437372
v -19.120589 25.766793 -33.430065
v -18.346229 25.917587 -31.513584
v -18.346229 25.766793 -31.513584
v -19.120589 25.766793 -33.430065
v -19.120589 25.917587 -33.430065
f 422 423 424
f 427 428 429
f 422 424 425
f 427 429 430
f 421 422 425
f 426 427 430
f 421 425 426
f 426 430 421
f 431 432 433
f 436 437 438
f 431 433 434
f 436 438 439
f 440 431 434
f 435 436 439
f 440 434 435
f 435 439 440
f 441 442 444
f 444 442 443
f 445 446 448
f 448 446 447
f 449 450 452
f 452 450 451
f 453 454 456
f 456 454 455
f 457 458 460
f 460 458 459
f 461 462 464
f 464 462 463
f 465 466 468
f 468 466 467
f 469 470 472
f 472 470 471
f 473 474 476
f 476 474 475
f 477 478 480
f 480 478 479
o item_92b0f140_1129249
v -19.144651 25.920001 -31.026502
v -19.191010 25.870001 -31.007770
v -19.469164 25.870001 -30.895381
v -19.469164 25.869001 -30.895381
v -19.190626 25.869001 -31.007926
v -19.145578 25.917587 -31.026127
v -19.145578 25.766793 -31.026127
v -19.163664 25.786299 -31.018820
v -19.164319 25.785592 -31.018555
v -19.144651 25.764379 -31.026502
v -20.076356 25.764379 -33.332399
v -20.096024 25.785592 -33.324452
v -20.095369 25.786299 -33.324716
v -20.077283 25.766793 -33.332024
v -20.077283 25.917587 -33.332024
v -20.122331 25.869001 -33.313822
v -20.400869 25.869001 -33.201278
v -20.400869 25.870001 -33.201278
v -20.122715 25.870001 -33.313667
v -20.076356 25.920001 -33.332399
v -20.122331 25.869001 -33.313822
v -20.077283 25.917587 -33.332024
v -19.145578 25.917587 -31.026127
v -19.190626 25.869001 -31.007926
v -20.400869 25.869001 -33.201278
v -20.122331 25.869001 -33.313822
v -19.190626 25.869001 -31.007926
v -19.469164 25.869001 -30.895381
v -20.400869 25.870001 -33.201278
v -20.400869 25.869001 -33.201278
v -19.469164 25.869001 -30.895381
v -19.469164 25.870001 -30.895381
v -20.122715 25.870001 -33.313667
v -20.400869 25.870001 -33.201278
v -19.469164 25.870001 -30.895381
v -19.191010 25.870001 -31.007770
v -20.076356 25.920001 -33.332399
v -20.122715 25.870001 -33.313667
v -19.191010 25.870001 -31.007770
v -19.144651 25.920001 -31.026502
v -20.076356 25.764379 -33.332399
v -20.076356 25.920001 -33.332399
v -19.144651 25.920001 -31.026502
v -19.144651 25.764379 -31.026502
v -20.096024 25.785592 -33.324452
v -20.076356 25.764379 -33.332399
v -19.144651 25.764379 -31.026502
v -19.164319 25.785592 -31.018555
v -20.095369 25.786299 -33.324716
v -20.096024 25.785592 -33.324452
v -19.164319 25.785592 -31.018555
v -19.163664 25.786299 -31.018820
v -20.077283 25.766793 -33.332024
v -20.095369 25.786299 -33.324716
v -19.163664 25.786299 -31.018820
v -19.145578 25.766793 -31.026127
v -20.077283 25.917587 -33.332024
v -20.077283 25.766793 -33.332024
v -19.145578 25.766793 -31.026127
v -19.145578 25.917587 -31.026127
f 482 483 484
f 487 488 489
f 482 484 485
f 487 489 490
f 481 482 485
f 486 487 490
f 481 485 486
f 486 490 481
f 491 492 493
f 496 497 498
f 491 493 494
f 496 498 499
f 500 491 494
f 495 496 499
f 500 494 495
f 495 499 500
f 501 502 504
f 504 502 503
f 505 506 508
f 508 506 507
f 509 510 512
f 512 510 511
f 513 514 516
f 516 514 515
f 517 518 520
f 520 518 519
f 521 522 524
f 524 522 523
f 525 526 528
f 528 526 527
f 529 530 532
f 532 530 531
f 533 534 536
f 536 534 535
f 537 538 540
f 540 538 539
o item_92b0f140_1172103
v -4.156736 26.030238 -40.120179
v -4.110927 25.980238 -40.140311
v -3.832773 25.980238 -40.252700
v -3.832784 25.979238 -40.252728
v -4.111322 25.979238 -40.140184
v -4.155836 26.027824 -40.120622
v -4.157495 25.877030 -40.124844
v -4.139194 25.896536 -40.131605
v -4.138547 25.895829 -40.131890
v -4.158448 25.874616 -40.124537
v -3.385157 25.812522 -38.210700
v -3.365255 25.833735 -38.218053
v -3.365903 25.834442 -38.217769
v -3.384203 25.814936 -38.211007
v -3.382544 25.965730 -38.206785
v -3.338031 25.917144 -38.226347
v -3.059493 25.917144 -38.338891
v -3.059482 25.918144 -38.338863
v -3.337636 25.918144 -38.226474
v -3.383445 25.968144 -38.206343
v -3.338031 25.917144 -38.226347
v -3.382544 25.965730 -38.206785
v -4.155836 26.027824 -40.120622
v -4.111322 25.979238 -40.140184
v -3.059493 25.917144 -38.338891
v -3.338031 25.917144 -38.226347
v -4.111322 25.979238 -40.140184
v -3.832784 25.979238 -40.252728
v -3.059482 25.918144 -38.338863
v -3.059493 25.917144 -38.338891
v -3.832784 25.979238 -40.252728
v -3.832773 25.980238 -40.252700
v -3.337636 25.918144 -38.226474
v -3.059482 25.918144 -38.338863
v -3.832773 25.980238 -40.252700
v -4.110927 25.980238 -40.140311
v -3.383445 25.968144 -38.206343
v -3.337636 25.918144 -38.226474
v -4.110927 25.980238 -40.140311
v -4.156736 26.030238 -40.120179
v -3.385157 25.812522 -38.210700
v -3.383445 25.968144 -38.206343
v -4.156736 26.030238 -40.120179
v -4.158448 25.874616 -40.124537
v -3.365255 25.833735 -38.218053
v -3.385157 25.812522 -38.210700
v -4.158448 25.874616 -40.124537
v -4.138547 25.895829 -40.131890
v -3.365903 25.834442 -38.217769
v -3.365255 25.833735 -38.218053
v -4.138547 25.895829 -40.131890
v -4.139194 25.896536 -40.131605
v -3.384203 25.814936 -38.211007
v -3.365903 25.834442 -38.217769
v -4.139194 25.896536 -40.131605
v -4.157495 25.877030 -40.124844
v -3.382544 25.965730 -38.206785
v -3.384203 25.814936 -38.211007
v -4.157495 25.877030 -40.124844
v -4.155836 26.027824 -40.120622
f 542 543 544
f 547 548 549
f 542 544 545
f 547 549 550
f 541 542 545
f 546 547 550
f 541 545 546
f 546 550 541
f 551 552 553
f 556 557 558
f 551 553 554
f 556 558 559
f 560 551 554
f 555 556 559
f 560 554 555
f 555 559 560
f 561 562 564
f 564 562 563
f 565 566 568
f 568 566 567
f 569 570 572
f 572 570 571
f 573 574 576
f 576 574 575
f 577 578 580
f 580 578 579
f 581 582 584
f 584 582 583
f 585 586 588
f 588 586 587
f 589 590 592
f 592 590 591
f 593 594 596
f 596 594 595
f 597 598 600
f 600 598 599
o item_92b0f140_1129341
v -16.676383 25.920001 -32.188280
v -16.722742 25.870001 -32.169548
v -17.000896 25.870001 -32.057159
v -17.000896 25.869001 -32.057159
v -16.722359 25.869001 -32.169703
v -16.677311 25.917587 -32.187905
v -16.677311 25.766793 -32.187905
v -16.695396 25.786299 -32.180598
v -16.696052 25.785592 -32.180333
v -16.676383 25.764379 -32.188280
v -17.450744 25.764379 -34.104761
v -17.470412 25.785592 -34.096814
v -17.469756 25.786299 -34.097079
v -17.451671 25.766793 -34.104386
v -17.451671 25.917587 -34.104386
v -17.496719 25.869001 -34.086184
v -17.775257 25.869001 -33.973640
v -17.775257 25.870001 -33.973640
v -17.497103 25.870001 -34.086029
v -17.450744 25.920001 -34.104761
v -17.496719 25.869001 -34.086184
v -17.451671 25.917587 -34.104386
v -16.677311 25.917587 -32.187905
v -16.722359 25.869001 -32.169703
v -17.775257 25.869001 -33.973640
v -17.496719 25.869001 -34.086184
v -16.722359 25.869001 -32.169703
v -17.000896 25.869001 -32.057159
v -17.775257 25.870001 -33.973640
v -17.775257 25.869001 -33.973640
v -17.000896 25.869001 -32.057159
v -17.000896 25.870001 -32.057159
v -17.497103 25.870001 -34.086029
v -17.775257 25.870001 -33.973640
v -17.000896 25.870001 -32.057159
v -16.722742 25.870001 -32.169548
v -17.450744 25.920001 -34.104761
v -17.497103 25.870001 -34.086029
v -16.722742 25.870001 -32.169548
v -16.676383 25.920001 -32.188280
v -17.450744 25.764379 -34.104761
v -17.450744 25.920001 -34.104761
v -16.676383 25.920001 -32.188280
v -16.676383 25.764379 -32.188280
v -17.470412 25.785592 -34.096814
v -17.450744 25.764379 -34.104761
v -16.676383 25.764379 -32.188280
v -16.696052 25.785592 -32.180333
v -17.469756 25.786299 -34.097079
v -17.470412 25.785592 -34.096814
v -16.696052 25.785592 -32.180333
v -16.695396 25.786299 -32.180598
v -17.451671 25.766793 -34.104386
v -17.469756 25.786299 -34.097079
v -16.695396 25.786299 -32.180598
v -16.677311 25.766793 -32.187905
v -17.451671 25.917587 -34.104386
v -17.451671 25.766793 -34.104386
v -16.677311 25.766793 -32.187905
v -16.677311 25.917587 -32.187905
f 602 603 604
f 607 608 609
f 602 604 605
f 607 609 610
f 601 602 605
f 606 607 610
f 601 605 606
f 606 610 601
f 611 612 613
f 616 617 618
f 611 613 614
f 616 618 619
f 620 611 614
f 615 616 619
f 620 614 615
f 615 619 620
f 621 622 624
f 624 622 623
f 625 626 628
f 628 626 627
f 629 630 632
f 632 630 631
f 633 634 636
f 636 634 635
f 637 638 640
f 640 638 639
f 641 642 644
f 644 642 643
f 645 646 648
f 648 646 647
f 649 650 652
f 652 650 651
f 653 654 656
f 656 654 655
f 657 658 660
f 660 658 659
