# DIMKO.app — selection export
# Generated: 2026-07-31T07:01:58.591Z
o item_92b0f140_1111140
v -6.390000 21.671592 7.608369
v -6.390000 21.672299 7.609076
v -6.390000 21.652793 7.628582
v -6.390000 21.803587 7.628582
v -6.390000 21.755009 7.580004
v -6.390000 21.752313 7.439582
v -6.390000 21.753313 7.439582
v -6.390000 21.756001 7.579582
v -6.390000 21.806001 7.629582
v -6.390000 21.650379 7.629582
v -6.380000 21.753313 7.439582
v -6.390000 21.753313 7.439582
v -6.390000 21.752313 7.439582
v -6.380000 21.752313 7.439582
v -10.620000 21.753313 7.439582
v -10.630000 21.753313 7.439582
v -10.630000 21.752313 7.439582
v -10.620000 21.752313 7.439582
v -10.620000 21.671592 7.608369
v -10.620000 21.650379 7.629582
v -10.620000 21.806001 7.629582
v -10.620000 21.756001 7.579582
v -10.620000 21.753313 7.439582
v -10.620000 21.752313 7.439582
v -10.620000 21.755009 7.580004
v -10.620000 21.803587 7.628582
v -10.620000 21.652793 7.628582
v -10.620000 21.672299 7.609076
v -6.380000 21.752313 7.439582
v -6.380000 21.749242 7.279657
v -6.380000 21.750242 7.279638
v -6.380000 21.753313 7.439582
v -10.630000 21.750242 7.279638
v -10.630000 21.749242 7.279657
v -10.630000 21.752313 7.439582
v -10.630000 21.753313 7.439582
v -6.390000 21.755009 7.580004
v -6.390000 21.803587 7.628582
v -10.620000 21.803587 7.628582
v -10.620000 21.755009 7.580004
v -10.630000 21.749242 7.279657
v -10.630000 21.750242 7.279638
v -6.380000 21.750242 7.279638
v -6.380000 21.749242 7.279657
v -6.390000 21.755009 7.580004
v -10.620000 21.755009 7.580004
v -10.620000 21.752313 7.439582
v -10.630000 21.752313 7.439582
v -10.630000 21.749242 7.279657
v -6.380000 21.749242 7.279657
v -6.380000 21.752313 7.439582
v -6.390000 21.752313 7.439582
v -6.390000 21.753313 7.439582
v -6.380000 21.753313 7.439582
v -6.380000 21.750242 7.279638
v -10.630000 21.750242 7.279638
v -10.630000 21.753313 7.439582
v -10.620000 21.753313 7.439582
v -10.620000 21.756001 7.579582
v -6.390000 21.756001 7.579582
v -10.620000 21.806001 7.629582
v -10.620000 21.650379 7.629582
v -6.390000 21.650379 7.629582
v -6.390000 21.806001 7.629582
v -10.620000 21.650379 7.629582
v -10.620000 21.671592 7.608369
v -6.390000 21.671592 7.608369
v -6.390000 21.650379 7.629582
v -10.620000 21.671592 7.608369
v -10.620000 21.672299 7.609076
v -6.390000 21.672299 7.609076
v -6.390000 21.671592 7.608369
v -10.620000 21.672299 7.609076
v -10.620000 21.652793 7.628582
v -6.390000 21.652793 7.628582
v -6.390000 21.672299 7.609076
v -10.620000 21.652793 7.628582
v -10.620000 21.803587 7.628582
v -6.390000 21.803587 7.628582
v -6.390000 21.652793 7.628582
v -10.620000 21.756001 7.579582
v -10.620000 21.806001 7.629582
v -6.390000 21.806001 7.629582
v -6.390000 21.756001 7.579582
f 10 1 2
f 5 6 7
f 10 2 3
f 5 7 8
f 9 10 3
f 4 5 8
f 9 3 4
f 4 8 9
f 11 12 14
f 14 12 13
f 15 16 18
f 18 16 17
f 27 28 19
f 22 23 24
f 27 19 20
f 22 24 25
f 26 27 20
f 21 22 25
f 26 20 21
f 21 25 26
f 29 30 32
f 32 30 31
f 33 34 36
f 36 34 35
f 37 38 40
f 40 38 39
f 41 42 44
f 44 42 43
f 52 45 46
f 47 48 49
f 49 50 51
f 52 46 47
f 49 51 52
f 52 47 49
f 59 60 53
f 53 54 55
f 55 56 57
f 58 59 53
f 55 57 58
f 58 53 55
f 61 62 64
f 64 62 63
f 65 66 68
f 68 66 67
f 69 70 72
f 72 70 71
f 73 74 76
f 76 74 75
f 77 78 80
f 80 78 79
f 81 82 84
f 84 82 83
o item_92b0f140_1111816
v -2.530000 21.622372 5.109919
v -2.530000 21.623079 5.110626
v -2.530000 21.603573 5.130132
v -2.530000 21.754367 5.130132
v -2.530000 21.705789 5.081554
v -2.530000 21.703093 4.941132
v -2.530000 21.704093 4.941132
v -2.530000 21.706781 5.081132
v -2.530000 21.756781 5.131132
v -2.530000 21.601159 5.131132
v -2.520000 21.704093 4.941132
v -2.530000 21.704093 4.941132
v -2.530000 21.703093 4.941132
v -2.520000 21.703093 4.941132
v -6.720000 21.703093 4.941132
v -6.720000 21.704093 4.941132
v -6.730000 21.704093 4.941132
v -6.730000 21.703093 4.941132
v -6.551213 21.622372 5.109919
v -6.530000 21.601159 5.131132
v -6.530000 21.756781 5.131132
v -6.580000 21.706781 5.081132
v -6.720000 21.704093 4.941132
v -6.720000 21.703093 4.941132
v -6.579578 21.705789 5.081554
v -6.531000 21.754367 5.130132
v -6.531000 21.603573 5.130132
v -6.550506 21.623079 5.110626
v -2.520000 21.703093 4.941132
v -2.520000 21.700022 4.781207
v -2.520000 21.701022 4.781188
v -2.520000 21.704093 4.941132
v -6.730000 21.701022 4.781188
v -6.730000 21.700022 4.781207
v -6.730000 21.703093 4.941132
v -6.730000 21.704093 4.941132
v -2.530000 21.705789 5.081554
v -2.530000 21.754367 5.130132
v -6.531000 21.754367 5.130132
v -6.579578 21.705789 5.081554
v -6.730000 21.700022 4.781207
v -6.730000 21.701022 4.781188
v -2.520000 21.701022 4.781188
v -2.520000 21.700022 4.781207
v -6.730000 21.700022 4.781207
v -2.520000 21.700022 4.781207
v -2.520000 21.703093 4.941132
v -2.530000 21.703093 4.941132
v -2.530000 21.705789 5.081554
v -6.579578 21.705789 5.081554
v -6.720000 21.703093 4.941132
v -6.730000 21.703093 4.941132
v -6.580000 21.706781 5.081132
v -2.530000 21.706781 5.081132
v -2.530000 21.704093 4.941132
v -2.520000 21.704093 4.941132
v -2.520000 21.701022 4.781188
v -6.730000 21.701022 4.781188
v -6.730000 21.704093 4.941132
v -6.720000 21.704093 4.941132
v -2.530000 21.601159 5.131132
v -2.530000 21.756781 5.131132
v -6.530000 21.756781 5.131132
v -6.530000 21.601159 5.131132
v -2.530000 21.622372 5.109919
v -2.530000 21.601159 5.131132
v -6.530000 21.601159 5.131132
v -6.551213 21.622372 5.109919
v -6.551213 21.622372 5.109919
v -6.550506 21.623079 5.110626
v -2.530000 21.623079 5.110626
v -2.530000 21.622372 5.109919
v -6.550506 21.623079 5.110626
v -6.531000 21.603573 5.130132
v -2.530000 21.603573 5.130132
v -2.530000 21.623079 5.110626
v -2.530000 21.754367 5.130132
v -2.530000 21.603573 5.130132
v -6.531000 21.603573 5.130132
v -6.531000 21.754367 5.130132
v -6.580000 21.706781 5.081132
v -6.530000 21.756781 5.131132
v -2.530000 21.756781 5.131132
v -2.530000 21.706781 5.081132
f 94 85 86
f 89 90 91
f 94 86 87
f 89 91 92
f 93 94 87
f 88 89 92
f 93 87 88
f 88 92 93
f 95 96 98
f 98 96 97
f 99 100 102
f 102 100 101
f 111 112 103
f 106 107 108
f 111 103 104
f 106 108 109
f 110 111 104
f 105 106 109
f 110 104 105
f 105 109 110
f 113 114 116
f 116 114 115
f 117 118 120
f 120 118 119
f 121 122 124
f 124 122 123
f 125 126 128
f 128 126 127
f 135 136 129
f 129 130 131
f 132 133 134
f 134 135 129
f 129 131 132
f 132 134 129
f 144 137 138
f 139 140 141
f 141 142 143
f 144 138 139
f 141 143 144
f 144 139 141
f 145 146 148
f 148 146 147
f 149 150 152
f 152 150 151
f 153 154 156
f 156 154 155
f 157 158 160
f 160 158 159
f 161 162 164
f 164 162 163
f 165 166 168
f 168 166 167
o item_92b0f140_1171956
v -4.101750 25.895593 -40.117767
v -4.102014 25.896300 -40.118423
v -4.109322 25.876794 -40.136508
v -4.109322 26.027586 -40.136508
v -4.091123 25.979009 -40.091468
v -4.038517 25.976313 -39.961271
v -4.038517 25.977313 -39.961271
v -4.090965 25.980001 -40.091077
v -4.109697 26.030000 -40.137436
v -4.109697 25.874380 -40.137436
v -4.047787 25.976313 -39.957521
v -4.047787 25.977313 -39.957521
v -4.038517 25.977313 -39.961271
v -4.038517 25.976313 -39.961271
v 0.713977 25.976313 -41.883801
v 0.713977 25.977313 -41.883801
v 0.723247 25.977313 -41.887551
v 0.723247 25.976313 -41.887551
v 0.650744 25.895593 -42.040297
v 0.642797 25.874380 -42.059965
v 0.642797 26.030000 -42.059965
v 0.661529 25.980001 -42.013606
v 0.713977 25.977313 -41.883801
v 0.713977 25.976313 -41.883801
v 0.661370 25.979009 -42.013998
v 0.643172 26.027586 -42.059038
v 0.643172 25.876794 -42.059038
v 0.650479 25.896300 -42.040953
v -4.047787 25.976313 -39.957521
v -3.987874 25.973242 -39.809242
v -3.987867 25.974242 -39.809225
v -4.047787 25.977313 -39.957521
v 0.783167 25.974242 -41.739254
v 0.783159 25.973242 -41.739272
v 0.723247 25.976313 -41.887551
v 0.723247 25.977313 -41.887551
v 0.643172 26.027586 -42.059038
v 0.661370 25.979009 -42.013998
v -4.091123 25.979009 -40.091468
v -4.109322 26.027586 -40.136508
v -3.987867 25.974242 -39.809225
v -3.987874 25.973242 -39.809242
v 0.783159 25.973242 -41.739272
v 0.783167 25.974242 -41.739254
v -4.091123 25.979009 -40.091468
v 0.661370 25.979009 -42.013998
v 0.713977 25.976313 -41.883801
v 0.723247 25.976313 -41.887551
v 0.783159 25.973242 -41.739272
v -3.987874 25.973242 -39.809242
v -4.047787 25.976313 -39.957521
v -4.038517 25.976313 -39.961271
v -4.038517 25.977313 -39.961271
v -4.047787 25.977313 -39.957521
v -3.987867 25.974242 -39.809225
v 0.783167 25.974242 -41.739254
v 0.723247 25.977313 -41.887551
v 0.713977 25.977313 -41.883801
v 0.661529 25.980001 -42.013606
v -4.090965 25.980001 -40.091077
v 0.642797 26.030000 -42.059965
v 0.642797 25.874380 -42.059965
v -4.109697 25.874380 -40.137436
v -4.109697 26.030000 -40.137436
v -4.101750 25.895593 -40.117767
v -4.109697 25.874380 -40.137436
v 0.642797 25.874380 -42.059965
v 0.650744 25.895593 -42.040297
v -4.102014 25.896300 -40.118423
v -4.101750 25.895593 -40.117767
v 0.650744 25.895593 -42.040297
v 0.650479 25.896300 -42.040953
v -4.109322 25.876794 -40.136508
v -4.102014 25.896300 -40.118423
v 0.650479 25.896300 -42.040953
v 0.643172 25.876794 -42.059038
v 0.643172 25.876794 -42.059038
v 0.643172 26.027586 -42.059038
v -4.109322 26.027586 -40.136508
v -4.109322 25.876794 -40.136508
v 0.661529 25.980001 -42.013606
v 0.642797 26.030000 -42.059965
v -4.109697 26.030000 -40.137436
v -4.090965 25.980001 -40.091077
f 178 169 170
f 173 174 175
f 178 170 171
f 173 175 176
f 177 178 171
f 172 173 176
f 177 171 172
f 172 176 177
f 179 180 182
f 182 180 181
f 183 184 186
f 186 184 185
f 195 196 187
f 190 191 192
f 195 187 188
f 190 192 193
f 194 195 188
f 189 190 193
f 194 188 189
f 189 193 194
f 197 198 200
f 200 198 199
f 201 202 204
f 204 202 203
f 205 206 208
f 208 206 207
f 209 210 212
f 212 210 211
f 220 213 214
f 215 216 217
f 217 218 219
f 220 214 215
f 217 219 220
f 220 215 217
f 227 228 221
f 221 222 223
f 223 224 225
f 226 227 221
f 223 225 226
f 226 221 223
f 229 230 232
f 232 230 231
f 233 234 236
f 236 234 235
f 237 238 240
f 240 238 239
f 241 242 244
f 244 242 243
f 245 246 248
f 248 246 247
f 249 250 252
f 252 250 251
o item_92b0f140_1129431
v -19.131011 25.815593 -33.453250
v -19.131275 25.816300 -33.453906
v -19.138583 25.796794 -33.471991
v -19.138583 25.947586 -33.471991
v -19.120384 25.899009 -33.426951
v -19.067778 25.896313 -33.296754
v -19.067778 25.897313 -33.296754
v -19.120226 25.900001 -33.426559
v -19.138958 25.950000 -33.472918
v -19.138958 25.794380 -33.472918
v -19.077048 25.896313 -33.293004
v -19.077048 25.897313 -33.293004
v -19.067778 25.897313 -33.296754
v -19.067778 25.896313 -33.296754
v -17.396102 25.896313 -33.972998
v -17.396102 25.897313 -33.972998
v -17.386832 25.897313 -33.976748
v -17.386832 25.896313 -33.976748
v -17.459335 25.815593 -34.129494
v -17.467282 25.794380 -34.149163
v -17.467282 25.950000 -34.149163
v -17.448550 25.900001 -34.102804
v -17.396102 25.897313 -33.972998
v -17.396102 25.896313 -33.972998
v -17.448708 25.899009 -34.103195
v -17.466907 25.947586 -34.148235
v -17.466907 25.796794 -34.148235
v -17.459600 25.816300 -34.130150
v -19.077048 25.896313 -33.293004
v -19.017135 25.893242 -33.144725
v -19.017128 25.894242 -33.144707
v -19.077048 25.897313 -33.293004
v -17.326912 25.894242 -33.828452
v -17.326919 25.893242 -33.828469
v -17.386832 25.896313 -33.976748
v -17.386832 25.897313 -33.976748
v -17.466907 25.947586 -34.148235
v -17.448708 25.899009 -34.103195
v -19.120384 25.899009 -33.426951
v -19.138583 25.947586 -33.471991
v -19.017128 25.894242 -33.144707
v -19.017135 25.893242 -33.144725
v -17.326919 25.893242 -33.828469
v -17.326912 25.894242 -33.828452
v -19.120384 25.899009 -33.426951
v -17.448708 25.899009 -34.103195
v -17.396102 25.896313 -33.972998
v -17.386832 25.896313 -33.976748
v -17.326919 25.893242 -33.828469
v -19.017135 25.893242 -33.144725
v -19.077048 25.896313 -33.293004
v -19.067778 25.896313 -33.296754
v -19.067778 25.897313 -33.296754
v -19.077048 25.897313 -33.293004
v -19.017128 25.894242 -33.144707
v -17.326912 25.894242 -33.828452
v -17.386832 25.897313 -33.976748
v -17.396102 25.897313 -33.972998
v -17.448550 25.900001 -34.102804
v -19.120226 25.900001 -33.426559
v -17.467282 25.950000 -34.149163
v -17.467282 25.794380 -34.149163
v -19.138958 25.794380 -33.472918
v -19.138958 25.950000 -33.472918
v -19.131011 25.815593 -33.453250
v -19.138958 25.794380 -33.472918
v -17.467282 25.794380 -34.149163
v -17.459335 25.815593 -34.129494
v -17.459335 25.815593 -34.129494
v -17.459600 25.816300 -34.130150
v -19.131275 25.816300 -33.453906
v -19.131011 25.815593 -33.453250
v -19.138583 25.796794 -33.471991
v -19.131275 25.816300 -33.453906
v -17.459600 25.816300 -34.130150
v -17.466907 25.796794 -34.148235
v -17.466907 25.796794 -34.148235
v -17.466907 25.947586 -34.148235
v -19.138583 25.947586 -33.471991
v -19.138583 25.796794 -33.471991
v -19.138958 25.950000 -33.472918
v -19.120226 25.900001 -33.426559
v -17.448550 25.900001 -34.102804
v -17.467282 25.950000 -34.149163
f 262 253 254
f 257 258 259
f 262 254 255
f 257 259 260
f 261 262 255
f 256 257 260
f 261 255 256
f 256 260 261
f 263 264 266
f 266 264 265
f 267 268 270
f 270 268 269
f 279 280 271
f 274 275 276
f 279 271 272
f 274 276 277
f 278 279 272
f 273 274 277
f 278 272 273
f 273 277 278
f 281 282 284
f 284 282 283
f 285 286 288
f 288 286 287
f 289 290 292
f 292 290 291
f 293 294 296
f 296 294 295
f 304 297 298
f 299 300 301
f 301 302 303
f 304 298 299
f 301 303 304
f 304 299 301
f 311 312 305
f 305 306 307
f 307 308 309
f 310 311 305
f 307 309 310
f 310 305 307
f 313 314 316
f 316 314 315
f 317 318 320
f 320 318 319
f 321 322 324
f 324 322 323
f 325 326 328
f 328 326 327
f 329 330 332
f 332 330 331
f 333 334 336
f 336 334 335
o item_92b0f140_1129386
v -21.032841 25.815593 -32.973510
v -21.033105 25.816300 -32.974166
v -21.040413 25.796794 -32.992251
v -21.040413 25.947586 -32.992251
v -21.022214 25.899009 -32.947211
v -20.969608 25.896313 -32.817014
v -20.969608 25.897313 -32.817014
v -21.022056 25.900001 -32.946820
v -21.040788 25.950000 -32.993179
v -21.040788 25.794380 -32.993179
v -20.978878 25.897313 -32.813264
v -20.969608 25.897313 -32.817014
v -20.969608 25.896313 -32.817014
v -20.978878 25.896313 -32.813264
v -20.022872 25.896313 -33.199998
v -20.022872 25.897313 -33.199998
v -20.013602 25.897313 -33.203748
v -20.013602 25.896313 -33.203748
v -20.086105 25.815593 -33.356494
v -20.094052 25.794380 -33.376162
v -20.094052 25.950000 -33.376162
v -20.075320 25.900001 -33.329803
v -20.022872 25.897313 -33.199998
v -20.022872 25.896313 -33.199998
v -20.075478 25.899009 -33.330195
v -20.093677 25.947586 -33.375235
v -20.093677 25.796794 -33.375235
v -20.086370 25.816300 -33.357150
v -20.978878 25.896313 -32.813264
v -20.918965 25.893242 -32.664985
v -20.918958 25.894242 -32.664968
v -20.978878 25.897313 -32.813264
v -19.953682 25.894242 -33.055451
v -19.953689 25.893242 -33.055469
v -20.013602 25.896313 -33.203748
v -20.013602 25.897313 -33.203748
v -21.022214 25.899009 -32.947211
v -21.040413 25.947586 -32.992251
v -20.093677 25.947586 -33.375235
v -20.075478 25.899009 -33.330195
v -19.953689 25.893242 -33.055469
v -19.953682 25.894242 -33.055451
v -20.918958 25.894242 -32.664968
v -20.918965 25.893242 -32.664985
v -21.022214 25.899009 -32.947211
v -20.075478 25.899009 -33.330195
v -20.022872 25.896313 -33.199998
v -20.013602 25.896313 -33.203748
v -19.953689 25.893242 -33.055469
v -20.918965 25.893242 -32.664985
v -20.978878 25.896313 -32.813264
v -20.969608 25.896313 -32.817014
v -20.969608 25.897313 -32.817014
v -20.978878 25.897313 -32.813264
v -20.918958 25.894242 -32.664968
v -19.953682 25.894242 -33.055451
v -20.013602 25.897313 -33.203748
v -20.022872 25.897313 -33.199998
v -20.075320 25.900001 -33.329803
v -21.022056 25.900001 -32.946820
v -20.094052 25.950000 -33.376162
v -20.094052 25.794380 -33.376162
v -21.040788 25.794380 -32.993179
v -21.040788 25.950000 -32.993179
v -20.094052 25.794380 -33.376162
v -20.086105 25.815593 -33.356494
v -21.032841 25.815593 -32.973510
v -21.040788 25.794380 -32.993179
v -21.033105 25.816300 -32.974166
v -21.032841 25.815593 -32.973510
v -20.086105 25.815593 -33.356494
v -20.086370 25.816300 -33.357150
v -21.040413 25.796794 -32.992251
v -21.033105 25.816300 -32.974166
v -20.086370 25.816300 -33.357150
v -20.093677 25.796794 -33.375235
v -20.093677 25.796794 -33.375235
v -20.093677 25.947586 -33.375235
v -21.040413 25.947586 -32.992251
v -21.040413 25.796794 -32.992251
v -21.040788 25.950000 -32.993179
v -21.022056 25.900001 -32.946820
v -20.075320 25.900001 -33.329803
v -20.094052 25.950000 -33.376162
f 346 337 338
f 341 342 343
f 346 338 339
f 341 343 344
f 345 346 339
f 340 341 344
f 345 339 340
f 340 344 345
f 347 348 350
f 350 348 349
f 351 352 354
f 354 352 353
f 363 364 355
f 358 359 360
f 363 355 356
f 358 360 361
f 362 363 356
f 357 358 361
f 362 356 357
f 357 361 362
f 365 366 368
f 368 366 367
f 369 370 372
f 372 370 371
f 373 374 376
f 376 374 375
f 377 378 380
f 380 378 379
f 388 381 382
f 383 384 385
f 385 386 387
f 388 382 383
f 385 387 388
f 388 383 385
f 395 396 389
f 389 390 391
f 391 392 393
f 394 395 389
f 391 393 394
f 394 389 391
f 397 398 400
f 400 398 399
f 401 402 404
f 404 402 403
f 405 406 408
f 408 406 407
f 409 410 412
f 412 410 411
f 413 414 416
f 416 414 415
f 417 418 420
f 420 418 419
