# DIMKO.app — selection export
# Generated: 2026-07-29T07:57:20.081Z
o item_92b0f140_1123735
v -23.120631 24.249514 -4.576155
v -23.075765 24.249514 -4.579122
v -22.731102 24.243868 -4.709866
v -22.788870 24.198272 -5.577809
v -23.537370 24.198272 -5.528309
v -23.479602 24.243868 -4.660366
v -22.745160 24.232557 -4.906032
v -22.732145 24.242829 -4.710484
v -23.075977 24.248462 -4.580056
v -23.120546 24.248462 -4.577109
v -23.478649 24.242829 -4.661116
v -23.485033 24.237792 -4.757022
v -23.486031 24.237792 -4.756956
v -23.537300 24.197324 -5.527260
v -22.788804 24.197321 -5.576830
v -22.744162 24.232557 -4.906098
v -22.743888 24.153652 -4.901973
v -22.744162 24.232557 -4.906098
v -22.788804 24.197321 -5.576830
v -22.788534 24.120831 -5.572761
v -22.787309 24.141320 -5.554356
v -22.787259 24.140651 -5.553615
v -22.788592 24.118366 -5.573631
v -22.788870 24.198272 -5.577809
v -22.731102 24.243868 -4.709866
v -22.730824 24.163962 -4.705688
v -23.537034 24.120831 -5.523261
v -23.537300 24.197324 -5.527260
v -23.486031 24.237792 -4.756956
v -23.485756 24.158886 -4.752831
v -23.479324 24.163962 -4.656188
v -23.479602 24.243868 -4.660366
v -23.537370 24.198272 -5.528309
v -23.537092 24.118366 -5.524131
v -23.535759 24.140651 -5.504115
v -23.535809 24.141320 -5.504856
v -22.745160 24.232557 -4.906032
v -22.744162 24.232557 -4.906098
v -22.743888 24.153652 -4.901973
v -22.765119 24.174825 -4.901680
v -22.764416 24.175533 -4.901764
v -22.744894 24.156062 -4.902033
v -22.745160 24.232557 -4.906032
v -22.744894 24.156062 -4.902033
v -22.731879 24.166335 -4.706485
v -22.732145 24.242829 -4.710484
v -22.744894 24.156062 -4.902033
v -22.764416 24.175533 -4.901764
v -22.752357 24.185050 -4.720585
v -22.731879 24.166335 -4.706485
v -22.764416 24.175533 -4.901764
v -22.765119 24.174825 -4.901680
v -22.753095 24.184316 -4.721024
v -22.752357 24.185050 -4.720585
v -22.730824 24.163962 -4.705688
v -22.753095 24.184316 -4.721024
v -22.765119 24.174825 -4.901680
v -22.743888 24.153652 -4.901973
v -22.732145 24.242829 -4.710484
v -22.731879 24.166335 -4.706485
v -23.075711 24.171968 -4.576057
v -23.075977 24.248462 -4.580056
v -23.079981 24.190417 -4.596305
v -23.075711 24.171968 -4.576057
v -22.731879 24.166335 -4.706485
v -22.752357 24.185050 -4.720585
v -23.080132 24.189674 -4.596967
v -23.079981 24.190417 -4.596305
v -22.752357 24.185050 -4.720585
v -22.753095 24.184316 -4.721024
v -22.753095 24.184316 -4.721024
v -22.730824 24.163962 -4.705688
v -23.075487 24.169608 -4.574944
v -23.080132 24.189674 -4.596967
v -22.730824 24.163962 -4.705688
v -22.731102 24.243868 -4.709866
v -23.075765 24.249514 -4.579122
v -23.075487 24.169608 -4.574944
v -23.075977 24.248462 -4.580056
v -23.075711 24.171968 -4.576057
v -23.120279 24.171968 -4.573110
v -23.120546 24.248462 -4.577109
v -23.075711 24.171968 -4.576057
v -23.079981 24.190417 -4.596305
v -23.118730 24.190417 -4.593743
v -23.120279 24.171968 -4.573110
v -23.079981 24.190417 -4.596305
v -23.080132 24.189674 -4.596967
v -23.118668 24.189674 -4.594418
v -23.118730 24.190417 -4.593743
v -23.080132 24.189674 -4.596967
v -23.075487 24.169608 -4.574944
v -23.120353 24.169608 -4.571977
v -23.118668 24.189674 -4.594418
v -23.075487 24.169608 -4.574944
v -23.075765 24.249514 -4.579122
v -23.120631 24.249514 -4.576155
v -23.120353 24.169608 -4.571977
v -23.120546 24.248462 -4.577109
v -23.120279 24.171968 -4.573110
v -23.478383 24.166335 -4.657117
v -23.478649 24.242829 -4.661116
v -23.120279 24.171968 -4.573110
v -23.118730 24.190417 -4.593743
v -23.459953 24.185050 -4.673790
v -23.478383 24.166335 -4.657117
v -23.118730 24.190417 -4.593743
v -23.118668 24.189674 -4.594418
v -23.459280 24.184316 -4.674322
v -23.459953 24.185050 -4.673790
v -23.479324 24.163962 -4.656188
v -23.459280 24.184316 -4.674322
v -23.118668 24.189674 -4.594418
v -23.120353 24.169608 -4.571977
v -23.479602 24.243868 -4.660366
v -23.479324 24.163962 -4.656188
v -23.120353 24.169608 -4.571977
v -23.120631 24.249514 -4.576155
v -23.484766 24.161297 -4.753022
v -23.465380 24.180766 -4.755327
v -23.464672 24.180060 -4.755336
v -23.485756 24.158886 -4.752831
v -23.486031 24.237792 -4.756956
v -23.485033 24.237792 -4.757022
v -23.484766 24.161297 -4.753022
v -23.485033 24.237792 -4.757022
v -23.478649 24.242829 -4.661116
v -23.478383 24.166335 -4.657117
v -23.465380 24.180766 -4.755327
v -23.484766 24.161297 -4.753022
v -23.478383 24.166335 -4.657117
v -23.459953 24.185050 -4.673790
v -23.464672 24.180060 -4.755336
v -23.465380 24.180766 -4.755327
v -23.459953 24.185050 -4.673790
v -23.459280 24.184316 -4.674322
v -23.459280 24.184316 -4.674322
v -23.479324 24.163962 -4.656188
v -23.485756 24.158886 -4.752831
v -23.464672 24.180060 -4.755336
v -22.788870 24.198272 -5.577809
v -22.788592 24.118366 -5.573631
v -23.537092 24.118366 -5.524131
v -23.537370 24.198272 -5.528309
v -22.788592 24.118366 -5.573631
v -22.787259 24.140651 -5.553615
v -23.535759 24.140651 -5.504115
v -23.537092 24.118366 -5.524131
v -22.787259 24.140651 -5.553615
v -22.787309 24.141320 -5.554356
v -23.535809 24.141320 -5.504856
v -23.535759 24.140651 -5.504115
v -22.787309 24.141320 -5.554356
v -22.788534 24.120831 -5.572761
v -23.537034 24.120831 -5.523261
v -23.535809 24.141320 -5.504856
v -23.537300 24.197324 -5.527260
v -23.537034 24.120831 -5.523261
v -22.788534 24.120831 -5.572761
v -22.788534 24.120831 -5.572761
v -22.788804 24.197321 -5.576830
v -23.537300 24.197324 -5.527260
f 5 6 1
f 1 2 3
f 3 4 5
f 5 1 3
f 15 16 7
f 7 8 9
f 9 10 11
f 12 13 14
f 14 15 7
f 7 9 11
f 12 14 7
f 7 11 12
f 25 26 17
f 20 21 22
f 25 17 18
f 20 22 23
f 24 25 18
f 19 20 23
f 24 18 19
f 19 23 24
f 35 36 27
f 29 30 31
f 34 35 27
f 29 31 32
f 33 34 27
f 28 29 32
f 33 27 28
f 28 32 33
f 42 37 38
f 39 40 41
f 42 38 39
f 39 41 42
f 43 44 46
f 46 44 45
f 47 48 50
f 50 48 49
f 51 52 54
f 54 52 53
f 55 56 58
f 58 56 57
f 59 60 62
f 62 60 61
f 63 64 66
f 66 64 65
f 67 68 70
f 70 68 69
f 71 72 74
f 74 72 73
f 75 76 78
f 78 76 77
f 79 80 82
f 82 80 81
f 83 84 86
f 86 84 85
f 87 88 90
f 90 88 89
f 91 92 94
f 94 92 93
f 95 96 98
f 98 96 97
f 99 100 102
f 102 100 101
f 103 104 106
f 106 104 105
f 107 108 110
f 110 108 109
f 111 112 114
f 114 112 113
f 115 116 118
f 118 116 117
f 123 124 119
f 119 120 121
f 122 123 119
f 119 121 122
f 125 126 128
f 128 126 127
f 129 130 132
f 132 130 131
f 133 134 136
f 136 134 135
f 137 138 140
f 140 138 139
f 141 142 144
f 144 142 143
f 145 146 148
f 148 146 147
f 149 150 152
f 152 150 151
f 153 154 156
f 156 154 155
f 157 158 159
f 160 161 162
