# DIMKO.app — selection export
# Generated: 2026-07-31T07:01:02.228Z
o item_92b0f140_1067776
v 32.510000 20.200000 13.670000
v 32.510000 20.200000 -5.470000
v 32.460000 20.200000 -5.470000
v 32.460000 20.200000 13.670000
v 32.460000 20.150000 -5.470000
v 32.510000 20.150000 -5.470000
v 32.510000 20.150000 13.670000
v 32.460000 20.150000 13.670000
v 32.460000 20.200000 -5.470000
v 32.510000 20.200000 -5.470000
v 32.510000 20.150000 -5.470000
v 32.460000 20.150000 -5.470000
v 32.460000 20.200000 13.670000
v 32.460000 20.200000 -5.470000
v 32.460000 20.150000 -5.470000
v 32.460000 20.150000 13.670000
v 32.510000 20.200000 13.670000
v 32.460000 20.200000 13.670000
v 32.460000 20.150000 13.670000
v 32.510000 20.150000 13.670000
v 32.510000 20.200000 -5.470000
v 32.510000 20.200000 13.670000
v 32.510000 20.150000 13.670000
v 32.510000 20.150000 -5.470000
f 1 2 4
f 4 2 3
f 5 6 8
f 8 6 7
f 9 10 12
f 12 10 11
f 13 14 16
f 16 14 15
f 17 18 20
f 20 18 19
f 21 22 24
f 24 22 23
o item_92b0f140_1067743
v -23.757850 20.200000 13.670000
v 32.512150 20.200000 13.670000
v 32.512150 20.200000 13.620000
v -23.757850 20.200000 13.620000
v 32.512150 20.150000 13.620000
v 32.512150 20.150000 13.670000
v -23.757850 20.150000 13.670000
v -23.757850 20.150000 13.620000
v 32.512150 20.200000 13.620000
v 32.512150 20.200000 13.670000
v 32.512150 20.150000 13.670000
v 32.512150 20.150000 13.620000
v -23.757850 20.200000 13.620000
v 32.512150 20.200000 13.620000
v 32.512150 20.150000 13.620000
v -23.757850 20.150000 13.620000
v -23.757850 20.200000 13.670000
v -23.757850 20.200000 13.620000
v -23.757850 20.150000 13.620000
v -23.757850 20.150000 13.670000
v 32.512150 20.200000 13.670000
v -23.757850 20.200000 13.670000
v -23.757850 20.150000 13.670000
v 32.512150 20.150000 13.670000
f 25 26 28
f 28 26 27
f 29 30 32
f 32 30 31
f 33 34 36
f 36 34 35
f 37 38 40
f 40 38 39
f 41 42 44
f 44 42 43
f 45 46 48
f 48 46 47
o item_92b0f140_1067959
v -1.185995 20.200000 7.629990
v 12.819995 20.200000 7.629990
v 12.819995 20.200000 7.579990
v -1.185995 20.200000 7.579990
v 12.819995 20.150000 7.579990
v 12.819995 20.150000 7.629990
v -1.185995 20.150000 7.629990
v -1.185995 20.150000 7.579990
v 12.819995 20.200000 7.579990
v 12.819995 20.200000 7.629990
v 12.819995 20.150000 7.629990
v 12.819995 20.150000 7.579990
v -1.185995 20.200000 7.579990
v 12.819995 20.200000 7.579990
v 12.819995 20.150000 7.579990
v -1.185995 20.150000 7.579990
v -1.185995 20.200000 7.629990
v -1.185995 20.200000 7.579990
v -1.185995 20.150000 7.579990
v -1.185995 20.150000 7.629990
v 12.819995 20.200000 7.629990
v -1.185995 20.200000 7.629990
v -1.185995 20.150000 7.629990
v 12.819995 20.150000 7.629990
f 49 50 52
f 52 50 51
f 53 54 56
f 56 54 55
f 57 58 60
f 60 58 59
f 61 62 64
f 64 62 63
f 65 66 68
f 68 66 67
f 69 70 72
f 72 70 71
o item_92b0f140_1130403
v 3.100002 19.990000 7.070000
v 0.751598 19.990000 7.070000
v 0.751598 19.990000 7.120000
v 3.100002 19.990000 7.120000
v 0.751598 19.940000 7.120000
v 0.751598 19.940000 7.070000
v 3.100002 19.940000 7.070000
v 3.100002 19.940000 7.120000
v 0.751598 19.990000 7.120000
v 0.751598 19.990000 7.070000
v 0.751598 19.940000 7.070000
v 0.751598 19.940000 7.120000
v 3.100002 19.990000 7.120000
v 0.751598 19.990000 7.120000
v 0.751598 19.940000 7.120000
v 3.100002 19.940000 7.120000
v 3.100002 19.990000 7.070000
v 3.100002 19.990000 7.120000
v 3.100002 19.940000 7.120000
v 3.100002 19.940000 7.070000
v 0.751598 19.990000 7.070000
v 3.100002 19.990000 7.070000
v 3.100002 19.940000 7.070000
v 0.751598 19.940000 7.070000
f 73 74 76
f 76 74 75
f 77 78 80
f 80 78 79
f 81 82 84
f 84 82 83
f 85 86 88
f 88 86 87
f 89 90 92
f 92 90 91
f 93 94 96
f 96 94 95
o item_92b0f140_1130578
v 7.630000 19.990000 5.165001
v 7.630000 19.990000 4.730559
v 7.580000 19.990000 4.730559
v 7.580000 19.990000 5.165001
v 7.580000 19.940000 4.730559
v 7.630000 19.940000 4.730559
v 7.630000 19.940000 5.165001
v 7.580000 19.940000 5.165001
v 7.580000 19.990000 4.730559
v 7.630000 19.990000 4.730559
v 7.630000 19.940000 4.730559
v 7.580000 19.940000 4.730559
v 7.580000 19.990000 5.165001
v 7.580000 19.990000 4.730559
v 7.580000 19.940000 4.730559
v 7.580000 19.940000 5.165001
v 7.630000 19.990000 5.165001
v 7.580000 19.990000 5.165001
v 7.580000 19.940000 5.165001
v 7.630000 19.940000 5.165001
v 7.630000 19.990000 4.730559
v 7.630000 19.990000 5.165001
v 7.630000 19.940000 5.165001
v 7.630000 19.940000 4.730559
f 97 98 100
f 100 98 99
f 101 102 104
f 104 102 103
f 105 106 108
f 108 106 107
f 109 110 112
f 112 110 111
f 113 114 116
f 116 114 115
f 117 118 120
f 120 118 119
o item_92b0f140_1130622
v 9.498000 19.989000 4.679560
v 7.580000 19.989000 4.679560
v 7.580000 19.990000 4.729560
v 9.498000 19.990000 4.729560
v 7.580000 19.940000 4.730560
v 7.580000 19.939000 4.680560
v 9.498000 19.939000 4.680560
v 9.498000 19.940000 4.730560
v 7.580000 19.990000 4.729560
v 7.580000 19.989000 4.679560
v 7.580000 19.939000 4.680560
v 7.580000 19.940000 4.730560
v 9.498000 19.990000 4.729560
v 7.580000 19.990000 4.729560
v 7.580000 19.940000 4.730560
v 9.498000 19.940000 4.730560
v 9.498000 19.989000 4.679560
v 9.498000 19.990000 4.729560
v 9.498000 19.940000 4.730560
v 9.498000 19.939000 4.680560
v 7.580000 19.989000 4.679560
v 9.498000 19.989000 4.679560
v 9.498000 19.939000 4.680560
v 7.580000 19.939000 4.680560
f 121 122 124
f 124 122 123
f 125 126 128
f 128 126 127
f 129 130 132
f 132 130 131
f 133 134 136
f 136 134 135
f 137 138 140
f 140 138 139
f 141 142 144
f 144 142 143
o item_92b0f140_1130536
v 3.054896 19.990000 5.165000
v 7.630004 19.990000 5.165000
v 7.630004 19.990000 5.115000
v 3.054896 19.990000 5.115000
v 7.630004 19.940000 5.115000
v 7.630004 19.940000 5.165000
v 3.054896 19.940000 5.165000
v 3.054896 19.940000 5.115000
v 7.630004 19.990000 5.115000
v 7.630004 19.990000 5.165000
v 7.630004 19.940000 5.165000
v 7.630004 19.940000 5.115000
v 3.054896 19.990000 5.115000
v 7.630004 19.990000 5.115000
v 7.630004 19.940000 5.115000
v 3.054896 19.940000 5.115000
v 3.054896 19.990000 5.165000
v 3.054896 19.990000 5.115000
v 3.054896 19.940000 5.115000
v 3.054896 19.940000 5.165000
v 7.630004 19.990000 5.165000
v 3.054896 19.990000 5.165000
v 3.054896 19.940000 5.165000
v 7.630004 19.940000 5.165000
f 145 146 148
f 148 146 147
f 149 150 152
f 152 150 151
f 153 154 156
f 156 154 155
f 157 158 160
f 160 158 159
f 161 162 164
f 164 162 163
f 165 166 168
f 168 166 167
o item_92b0f140_1130491
v 3.050000 19.990000 5.180000
v 3.050000 19.990000 5.530000
v 3.100000 19.990000 5.530000
v 3.100000 19.990000 5.180000
v 3.100000 19.940000 5.530000
v 3.050000 19.940000 5.530000
v 3.050000 19.940000 5.180000
v 3.100000 19.940000 5.180000
v 3.100000 19.990000 5.530000
v 3.050000 19.990000 5.530000
v 3.050000 19.940000 5.530000
v 3.100000 19.940000 5.530000
v 3.100000 19.990000 5.180000
v 3.100000 19.990000 5.530000
v 3.100000 19.940000 5.530000
v 3.100000 19.940000 5.180000
v 3.050000 19.990000 5.180000
v 3.100000 19.990000 5.180000
v 3.100000 19.940000 5.180000
v 3.050000 19.940000 5.180000
v 3.050000 19.990000 5.530000
v 3.050000 19.990000 5.180000
v 3.050000 19.940000 5.180000
v 3.050000 19.940000 5.530000
f 169 170 172
f 172 170 171
f 173 174 176
f 176 174 175
f 177 178 180
f 180 178 179
f 181 182 184
f 184 182 183
f 185 186 188
f 188 186 187
f 189 190 192
f 192 190 191
o item_92b0f140_1067913
v 12.869990 20.200000 7.580000
v 12.869990 20.200000 0.620000
v 12.819990 20.200000 0.620000
v 12.819990 20.200000 7.580000
v 12.819990 20.150000 0.620000
v 12.869990 20.150000 0.620000
v 12.869990 20.150000 7.580000
v 12.819990 20.150000 7.580000
v 12.819990 20.200000 0.620000
v 12.869990 20.200000 0.620000
v 12.869990 20.150000 0.620000
v 12.819990 20.150000 0.620000
v 12.819990 20.200000 7.580000
v 12.819990 20.200000 0.620000
v 12.819990 20.150000 0.620000
v 12.819990 20.150000 7.580000
v 12.869990 20.200000 7.580000
v 12.819990 20.200000 7.580000
v 12.819990 20.150000 7.580000
v 12.869990 20.150000 7.580000
v 12.869990 20.200000 0.620000
v 12.869990 20.200000 7.580000
v 12.869990 20.150000 7.580000
v 12.869990 20.150000 0.620000
f 193 194 196
f 196 194 195
f 197 198 200
f 200 198 199
f 201 202 204
f 204 202 203
f 205 206 208
f 208 206 207
f 209 210 212
f 212 210 211
f 213 214 216
f 216 214 215
o item_92b0f140_1067822
v 32.510000 20.200000 -5.470000
v -5.850000 20.200000 -5.470000
v -5.850000 20.200000 -5.420000
v 32.510000 20.200000 -5.420000
v -5.850000 20.150000 -5.420000
v -5.850000 20.150000 -5.470000
v 32.510000 20.150000 -5.470000
v 32.510000 20.150000 -5.420000
v -5.850000 20.200000 -5.420000
v -5.850000 20.200000 -5.470000
v -5.850000 20.150000 -5.470000
v -5.850000 20.150000 -5.420000
v 32.510000 20.200000 -5.420000
v -5.850000 20.200000 -5.420000
v -5.850000 20.150000 -5.420000
v 32.510000 20.150000 -5.420000
v 32.510000 20.200000 -5.470000
v 32.510000 20.200000 -5.420000
v 32.510000 20.150000 -5.420000
v 32.510000 20.150000 -5.470000
v -5.850000 20.200000 -5.470000
v 32.510000 20.200000 -5.470000
v 32.510000 20.150000 -5.470000
v -5.850000 20.150000 -5.470000
f 217 218 220
f 220 218 219
f 221 222 224
f 224 222 223
f 225 226 228
f 228 226 227
f 229 230 232
f 232 230 231
f 233 234 236
f 236 234 235
f 237 238 240
f 240 238 239
o item_92b0f140_1130665
v 9.448000 19.990000 0.949001
v 9.448000 19.990000 4.730559
v 9.498000 19.990000 4.730559
v 9.498000 19.990000 0.949001
v 9.498000 19.940000 4.730559
v 9.448000 19.940000 4.730559
v 9.448000 19.940000 0.949001
v 9.498000 19.940000 0.949001
v 9.498000 19.990000 4.730559
v 9.448000 19.990000 4.730559
v 9.448000 19.940000 4.730559
v 9.498000 19.940000 4.730559
v 9.498000 19.990000 0.949001
v 9.498000 19.990000 4.730559
v 9.498000 19.940000 4.730559
v 9.498000 19.940000 0.949001
v 9.448000 19.990000 0.949001
v 9.498000 19.990000 0.949001
v 9.498000 19.940000 0.949001
v 9.448000 19.940000 0.949001
v 9.448000 19.990000 4.730559
v 9.448000 19.990000 0.949001
v 9.448000 19.940000 0.949001
v 9.448000 19.940000 4.730559
f 241 242 244
f 244 242 243
f 245 246 248
f 248 246 247
f 249 250 252
f 252 250 251
f 253 254 256
f 256 254 255
f 257 258 260
f 260 258 259
f 261 262 264
f 264 262 263
o item_92b0f140_1130757
v 9.498001 19.990000 0.952000
v 6.694039 19.990000 0.952000
v 6.694039 19.990000 1.002000
v 9.498001 19.990000 1.002000
v 6.694039 19.940000 1.002000
v 6.694039 19.940000 0.952000
v 9.498001 19.940000 0.952000
v 9.498001 19.940000 1.002000
v 6.694039 19.990000 1.002000
v 6.694039 19.990000 0.952000
v 6.694039 19.940000 0.952000
v 6.694039 19.940000 1.002000
v 9.498001 19.990000 1.002000
v 6.694039 19.990000 1.002000
v 6.694039 19.940000 1.002000
v 9.498001 19.940000 1.002000
v 9.498001 19.990000 0.952000
v 9.498001 19.990000 1.002000
v 9.498001 19.940000 1.002000
v 9.498001 19.940000 0.952000
v 6.694039 19.990000 0.952000
v 9.498001 19.990000 0.952000
v 9.498001 19.940000 0.952000
v 6.694039 19.940000 0.952000
f 265 266 268
f 268 266 267
f 269 270 272
f 272 270 271
f 273 274 276
f 276 274 275
f 277 278 280
f 280 278 279
f 281 282 284
f 284 282 283
f 285 286 288
f 288 286 287
o item_92b0f140_1130790
v 6.744040 19.990000 1.130000
v 6.744040 19.990000 0.950000
v 6.694040 19.990000 0.950000
v 6.694040 19.990000 1.130000
v 6.694040 19.940000 0.950000
v 6.744040 19.940000 0.950000
v 6.744040 19.940000 1.130000
v 6.694040 19.940000 1.130000
v 6.694040 19.990000 0.950000
v 6.744040 19.990000 0.950000
v 6.744040 19.940000 0.950000
v 6.694040 19.940000 0.950000
v 6.694040 19.990000 1.130000
v 6.694040 19.990000 0.950000
v 6.694040 19.940000 0.950000
v 6.694040 19.940000 1.130000
v 6.744040 19.990000 1.130000
v 6.694040 19.990000 1.130000
v 6.694040 19.940000 1.130000
v 6.744040 19.940000 1.130000
v 6.744040 19.990000 0.950000
v 6.744040 19.990000 1.130000
v 6.744040 19.940000 1.130000
v 6.744040 19.940000 0.950000
f 289 290 292
f 292 290 291
f 293 294 296
f 296 294 295
f 297 298 300
f 300 298 299
f 301 302 304
f 304 302 303
f 305 306 308
f 308 306 307
f 309 310 312
f 312 310 311
o item_92b0f140_1067868
v 12.822520 20.200000 0.570000
v -9.237480 20.200000 0.570000
v -9.237480 20.200000 0.620000
v 12.822520 20.200000 0.620000
v -9.237480 20.150000 0.620000
v -9.237480 20.150000 0.570000
v 12.822520 20.150000 0.570000
v 12.822520 20.150000 0.620000
v -9.237480 20.200000 0.620000
v -9.237480 20.200000 0.570000
v -9.237480 20.150000 0.570000
v -9.237480 20.150000 0.620000
v 12.822520 20.200000 0.620000
v -9.237480 20.200000 0.620000
v -9.237480 20.150000 0.620000
v 12.822520 20.150000 0.620000
v 12.822520 20.200000 0.570000
v 12.822520 20.200000 0.620000
v 12.822520 20.150000 0.620000
v 12.822520 20.150000 0.570000
v -9.237480 20.200000 0.570000
v 12.822520 20.200000 0.570000
v 12.822520 20.150000 0.570000
v -9.237480 20.150000 0.570000
f 313 314 316
f 316 314 315
f 317 318 320
f 320 318 319
f 321 322 324
f 324 322 323
f 325 326 328
f 328 326 327
f 329 330 332
f 332 330 331
f 333 334 336
f 336 334 335
o item_92b0f140_1130714
v 6.694039 19.992545 1.082665
v 1.030001 19.992545 1.082665
v 1.030001 19.989945 1.132615
v 6.694039 19.989945 1.132615
v 1.030001 19.939995 1.130015
v 1.030001 19.942595 1.080065
v 6.694039 19.942595 1.080065
v 6.694039 19.939995 1.130015
v 1.030001 19.989945 1.132615
v 1.030001 19.992545 1.082665
v 1.030001 19.942595 1.080065
v 1.030001 19.939995 1.130015
v 6.694039 19.989945 1.132615
v 1.030001 19.989945 1.132615
v 1.030001 19.939995 1.130015
v 6.694039 19.939995 1.130015
v 6.694039 19.992545 1.082665
v 6.694039 19.989945 1.132615
v 6.694039 19.939995 1.130015
v 6.694039 19.942595 1.080065
v 1.030001 19.992545 1.082665
v 6.694039 19.992545 1.082665
v 6.694039 19.942595 1.080065
v 1.030001 19.942595 1.080065
f 337 338 340
f 340 338 339
f 341 342 344
f 344 342 343
f 345 346 348
f 348 346 347
f 349 350 352
f 352 350 351
f 353 354 356
f 356 354 355
f 357 358 360
f 360 358 359
o item_92b0f140_1130445
v 0.750000 19.990000 7.250000
v 0.750000 19.990000 7.070000
v 0.700000 19.990000 7.070000
v 0.700000 19.990000 7.250000
v 0.700000 19.940000 7.070000
v 0.750000 19.940000 7.070000
v 0.750000 19.940000 7.250000
v 0.700000 19.940000 7.250000
v 0.700000 19.990000 7.070000
v 0.750000 19.990000 7.070000
v 0.750000 19.940000 7.070000
v 0.700000 19.940000 7.070000
v 0.700000 19.990000 7.250000
v 0.700000 19.990000 7.070000
v 0.700000 19.940000 7.070000
v 0.700000 19.940000 7.250000
v 0.750000 19.990000 7.250000
v 0.700000 19.990000 7.250000
v 0.700000 19.940000 7.250000
v 0.750000 19.940000 7.250000
v 0.750000 19.990000 7.070000
v 0.750000 19.990000 7.250000
v 0.750000 19.940000 7.250000
v 0.750000 19.940000 7.070000
f 361 362 364
f 364 362 363
f 365 366 368
f 368 366 367
f 369 370 372
f 372 370 371
f 373 374 376
f 376 374 375
f 377 378 380
f 380 378 379
f 381 382 384
f 384 382 383
o item_92b0f140_1130273
v -0.856000 19.990000 7.250000
v -0.856000 19.990000 5.730000
v -0.906000 19.990000 5.730000
v -0.906000 19.990000 7.250000
v -0.906000 19.940000 5.730000
v -0.856000 19.940000 5.730000
v -0.856000 19.940000 7.250000
v -0.906000 19.940000 7.250000
v -0.906000 19.990000 5.730000
v -0.856000 19.990000 5.730000
v -0.856000 19.940000 5.730000
v -0.906000 19.940000 5.730000
v -0.906000 19.990000 7.250000
v -0.906000 19.990000 5.730000
v -0.906000 19.940000 5.730000
v -0.906000 19.940000 7.250000
v -0.856000 19.990000 7.250000
v -0.906000 19.990000 7.250000
v -0.906000 19.940000 7.250000
v -0.856000 19.940000 7.250000
v -0.856000 19.990000 5.730000
v -0.856000 19.990000 7.250000
v -0.856000 19.940000 7.250000
v -0.856000 19.940000 5.730000
f 385 386 388
f 388 386 387
f 389 390 392
f 392 390 391
f 393 394 396
f 396 394 395
f 397 398 400
f 400 398 399
f 401 402 404
f 404 402 403
f 405 406 408
f 408 406 407
o item_92b0f140_1130360
v 0.751598 19.987445 7.247555
v -0.905998 19.987445 7.247555
v -0.905998 19.989945 7.297505
v 0.751598 19.989945 7.297505
v -0.905998 19.939995 7.300005
v -0.905998 19.937495 7.250055
v 0.751598 19.937495 7.250055
v 0.751598 19.939995 7.300005
v -0.905998 19.989945 7.297505
v -0.905998 19.987445 7.247555
v -0.905998 19.937495 7.250055
v -0.905998 19.939995 7.300005
v 0.751598 19.989945 7.297505
v -0.905998 19.989945 7.297505
v -0.905998 19.939995 7.300005
v 0.751598 19.939995 7.300005
v 0.751598 19.987445 7.247555
v 0.751598 19.989945 7.297505
v 0.751598 19.939995 7.300005
v 0.751598 19.937495 7.250055
v -0.905998 19.987445 7.247555
v 0.751598 19.987445 7.247555
v 0.751598 19.937495 7.250055
v -0.905998 19.937495 7.250055
f 409 410 412
f 412 410 411
f 413 414 416
f 416 414 415
f 417 418 420
f 420 418 419
f 421 422 424
f 424 422 423
f 425 426 428
f 428 426 427
f 429 430 432
f 432 430 431
o item_92b0f140_1100496
v -1.186000 20.200000 5.081282
v -1.236000 20.200000 5.081282
v -1.236000 20.200000 7.629998
v -1.186000 20.200000 7.629998
v -1.236000 20.150000 7.629998
v -1.236000 20.150000 5.081282
v -1.186000 20.150000 5.081282
v -1.186000 20.150000 7.629998
v -1.236000 20.200000 7.629998
v -1.236000 20.200000 5.081282
v -1.236000 20.150000 5.081282
v -1.236000 20.150000 7.629998
v -1.186000 20.200000 7.629998
v -1.236000 20.200000 7.629998
v -1.236000 20.150000 7.629998
v -1.186000 20.150000 7.629998
v -1.186000 20.200000 5.081282
v -1.186000 20.200000 7.629998
v -1.186000 20.150000 7.629998
v -1.186000 20.150000 5.081282
v -1.236000 20.200000 5.081282
v -1.186000 20.200000 5.081282
v -1.186000 20.150000 5.081282
v -1.236000 20.150000 5.081282
f 433 434 436
f 436 434 435
f 437 438 440
f 440 438 439
f 441 442 444
f 444 442 443
f 445 446 448
f 448 446 447
f 449 450 452
f 452 450 451
f 453 454 456
f 456 454 455
o item_92b0f140_1098811
v -6.440000 20.200000 7.629980
v -6.390000 20.200000 7.629980
v -6.390000 20.200000 5.130000
v -6.440000 20.200000 5.130000
v -6.390000 20.150000 5.130000
v -6.390000 20.150000 7.629980
v -6.440000 20.150000 7.629980
v -6.440000 20.150000 5.130000
v -6.390000 20.200000 5.130000
v -6.390000 20.200000 7.629980
v -6.390000 20.150000 7.629980
v -6.390000 20.150000 5.130000
v -6.440000 20.200000 5.130000
v -6.390000 20.200000 5.130000
v -6.390000 20.150000 5.130000
v -6.440000 20.150000 5.130000
v -6.440000 20.200000 7.629980
v -6.440000 20.200000 5.130000
v -6.440000 20.150000 5.130000
v -6.440000 20.150000 7.629980
v -6.390000 20.200000 7.629980
v -6.440000 20.200000 7.629980
v -6.440000 20.150000 7.629980
v -6.390000 20.150000 7.629980
f 457 458 460
f 460 458 459
f 461 462 464
f 464 462 463
f 465 466 468
f 468 466 467
f 469 470 472
f 472 470 471
f 473 474 476
f 476 474 475
f 477 478 480
f 480 478 479
o item_92b0f140_1130315
v -0.856000 20.300000 5.774998
v -0.856000 20.300000 4.747282
v -0.906000 20.300000 4.747282
v -0.906000 20.300000 5.774998
v -0.906000 20.250000 4.747282
v -0.856000 20.250000 4.747282
v -0.856000 20.250000 5.774998
v -0.906000 20.250000 5.774998
v -0.906000 20.300000 4.747282
v -0.856000 20.300000 4.747282
v -0.856000 20.250000 4.747282
v -0.906000 20.250000 4.747282
v -0.906000 20.300000 5.774998
v -0.906000 20.300000 4.747282
v -0.906000 20.250000 4.747282
v -0.906000 20.250000 5.774998
v -0.856000 20.300000 5.774998
v -0.906000 20.300000 5.774998
v -0.906000 20.250000 5.774998
v -0.856000 20.250000 5.774998
v -0.856000 20.300000 4.747282
v -0.856000 20.300000 5.774998
v -0.856000 20.250000 5.774998
v -0.856000 20.250000 4.747282
f 481 482 484
f 484 482 483
f 485 486 488
f 488 486 487
f 489 490 492
f 492 490 491
f 493 494 496
f 496 494 495
f 497 498 500
f 500 498 499
f 501 502 504
f 504 502 503
o item_92b0f140_1130230
v -0.857000 20.300000 4.751280
v -1.960000 20.300000 4.751280
v -1.960000 20.300000 4.801280
v -0.857000 20.300000 4.801280
v -1.960000 20.250000 4.801280
v -1.960000 20.250000 4.751280
v -0.857000 20.250000 4.751280
v -0.857000 20.250000 4.801280
v -1.960000 20.300000 4.801280
v -1.960000 20.300000 4.751280
v -1.960000 20.250000 4.751280
v -1.960000 20.250000 4.801280
v -0.857000 20.300000 4.801280
v -1.960000 20.300000 4.801280
v -1.960000 20.250000 4.801280
v -0.857000 20.250000 4.801280
v -0.857000 20.300000 4.751280
v -0.857000 20.300000 4.801280
v -0.857000 20.250000 4.801280
v -0.857000 20.250000 4.751280
v -1.960000 20.300000 4.751280
v -0.857000 20.300000 4.751280
v -0.857000 20.250000 4.751280
v -1.960000 20.250000 4.751280
f 505 506 508
f 508 506 507
f 509 510 512
f 512 510 511
f 513 514 516
f 516 514 515
f 517 518 520
f 520 518 519
f 521 522 524
f 524 522 523
f 525 526 528
f 528 526 527
o item_92b0f140_1130835
v 1.030000 20.300000 1.080000
v -1.960000 20.300000 1.080000
v -1.960000 20.300000 1.130000
v 1.030000 20.300000 1.130000
v -1.960000 20.250000 1.130000
v -1.960000 20.250000 1.080000
v 1.030000 20.250000 1.080000
v 1.030000 20.250000 1.130000
v -1.960000 20.300000 1.130000
v -1.960000 20.300000 1.080000
v -1.960000 20.250000 1.080000
v -1.960000 20.250000 1.130000
v 1.030000 20.300000 1.130000
v -1.960000 20.300000 1.130000
v -1.960000 20.250000 1.130000
v 1.030000 20.250000 1.130000
v 1.030000 20.300000 1.080000
v 1.030000 20.300000 1.130000
v 1.030000 20.250000 1.130000
v 1.030000 20.250000 1.080000
v -1.960000 20.300000 1.080000
v 1.030000 20.300000 1.080000
v 1.030000 20.250000 1.080000
v -1.960000 20.250000 1.080000
f 529 530 532
f 532 530 531
f 533 534 536
f 536 534 535
f 537 538 540
f 540 538 539
f 541 542 544
f 544 542 543
f 545 546 548
f 548 546 547
f 549 550 552
f 552 550 551
o item_92b0f140_1098854
v -6.440000 20.200000 5.131280
v -1.236000 20.200000 5.131280
v -1.236000 20.200000 5.081280
v -6.440000 20.200000 5.081280
v -1.236000 20.150000 5.081280
v -1.236000 20.150000 5.131280
v -6.440000 20.150000 5.131280
v -6.440000 20.150000 5.081280
v -1.236000 20.200000 5.081280
v -1.236000 20.200000 5.131280
v -1.236000 20.150000 5.131280
v -1.236000 20.150000 5.081280
v -6.440000 20.200000 5.081280
v -1.236000 20.200000 5.081280
v -1.236000 20.150000 5.081280
v -6.440000 20.150000 5.081280
v -6.440000 20.200000 5.131280
v -6.440000 20.200000 5.081280
v -6.440000 20.150000 5.081280
v -6.440000 20.150000 5.131280
v -1.236000 20.200000 5.131280
v -6.440000 20.200000 5.131280
v -6.440000 20.150000 5.131280
v -1.236000 20.150000 5.131280
f 553 554 556
f 556 554 555
f 557 558 560
f 560 558 559
f 561 562 564
f 564 562 563
f 565 566 568
f 568 566 567
f 569 570 572
f 572 570 571
f 573 574 576
f 576 574 575
o item_92b0f140_1098947
v -10.670000 20.100000 0.570086
v -10.670000 20.100000 7.119994
v -10.620000 20.100000 7.119994
v -10.620000 20.100000 0.570086
v -10.620000 20.050000 7.119994
v -10.670000 20.050000 7.119994
v -10.670000 20.050000 0.570086
v -10.620000 20.050000 0.570086
v -10.620000 20.100000 7.119994
v -10.670000 20.100000 7.119994
v -10.670000 20.050000 7.119994
v -10.620000 20.050000 7.119994
v -10.620000 20.100000 0.570086
v -10.620000 20.100000 7.119994
v -10.620000 20.050000 7.119994
v -10.620000 20.050000 0.570086
v -10.670000 20.100000 0.570086
v -10.620000 20.100000 0.570086
v -10.620000 20.050000 0.570086
v -10.670000 20.050000 0.570086
v -10.670000 20.100000 7.119994
v -10.670000 20.100000 0.570086
v -10.670000 20.050000 0.570086
v -10.670000 20.050000 7.119994
f 577 578 580
f 580 578 579
f 581 582 584
f 584 582 583
f 585 586 588
f 588 586 587
f 589 590 592
f 592 590 591
f 593 594 596
f 596 594 595
f 597 598 600
f 600 598 599
o item_92b0f140_1098900
v -9.701119 20.100000 0.620000
v -9.701119 20.100000 0.570000
v -10.620001 20.100000 0.570000
v -10.620001 20.100000 0.620000
v -10.620001 20.050000 0.570000
v -9.701119 20.050000 0.570000
v -9.701119 20.050000 0.620000
v -10.620001 20.050000 0.620000
v -10.620001 20.100000 0.570000
v -9.701119 20.100000 0.570000
v -9.701119 20.050000 0.570000
v -10.620001 20.050000 0.570000
v -10.620001 20.100000 0.620000
v -10.620001 20.100000 0.570000
v -10.620001 20.050000 0.570000
v -10.620001 20.050000 0.620000
v -9.701119 20.100000 0.620000
v -10.620001 20.100000 0.620000
v -10.620001 20.050000 0.620000
v -9.701119 20.050000 0.620000
v -9.701119 20.100000 0.570000
v -9.701119 20.100000 0.620000
v -9.701119 20.050000 0.620000
v -9.701119 20.050000 0.570000
f 601 602 604
f 604 602 603
f 605 606 608
f 608 606 607
f 609 610 612
f 612 610 611
f 613 614 616
f 616 614 615
f 617 618 620
f 620 618 619
f 621 622 624
f 624 622 623
o item_92b0f140_1068005
v -22.454000 20.200000 7.629990
v -6.440000 20.200000 7.629990
v -6.440000 20.200000 7.579990
v -22.454000 20.200000 7.579990
v -6.440000 20.150000 7.579990
v -6.440000 20.150000 7.629990
v -22.454000 20.150000 7.629990
v -22.454000 20.150000 7.579990
v -6.440000 20.200000 7.579990
v -6.440000 20.200000 7.629990
v -6.440000 20.150000 7.629990
v -6.440000 20.150000 7.579990
v -22.454000 20.200000 7.579990
v -6.440000 20.200000 7.579990
v -6.440000 20.150000 7.579990
v -22.454000 20.150000 7.579990
v -22.454000 20.200000 7.629990
v -22.454000 20.200000 7.579990
v -22.454000 20.150000 7.579990
v -22.454000 20.150000 7.629990
v -6.440000 20.200000 7.629990
v -22.454000 20.200000 7.629990
v -22.454000 20.150000 7.629990
v -6.440000 20.150000 7.629990
f 625 626 628
f 628 626 627
f 629 630 632
f 632 630 631
f 633 634 636
f 636 634 635
f 637 638 640
f 640 638 639
f 641 642 644
f 644 642 643
f 645 646 648
f 648 646 647
o item_92b0f140_1130096
v -10.619997 20.100000 7.070000
v -22.020383 20.100000 7.070000
v -22.020383 20.100000 7.120000
v -10.619997 20.100000 7.120000
v -22.020383 20.050000 7.120000
v -22.020383 20.050000 7.070000
v -10.619997 20.050000 7.070000
v -10.619997 20.050000 7.120000
v -22.020383 20.100000 7.120000
v -22.020383 20.100000 7.070000
v -22.020383 20.050000 7.070000
v -22.020383 20.050000 7.120000
v -10.619997 20.100000 7.120000
v -22.020383 20.100000 7.120000
v -22.020383 20.050000 7.120000
v -10.619997 20.050000 7.120000
v -10.619997 20.100000 7.070000
v -10.619997 20.100000 7.120000
v -10.619997 20.050000 7.120000
v -10.619997 20.050000 7.070000
v -22.020383 20.100000 7.070000
v -10.619997 20.100000 7.070000
v -10.619997 20.050000 7.070000
v -22.020383 20.050000 7.070000
f 649 650 652
f 652 650 651
f 653 654 656
f 656 654 655
f 657 658 660
f 660 658 659
f 661 662 664
f 664 662 663
f 665 666 668
f 668 666 667
f 669 670 672
f 672 670 671
o item_92b0f140_1068091
v -24.983774 20.200004 -4.749061
v -23.757846 20.200004 13.670141
v -23.707946 20.200004 13.666841
v -24.933874 20.200004 -4.752361
v -23.707946 20.149996 13.666841
v -23.757846 20.149996 13.670141
v -24.983774 20.149996 -4.749061
v -24.933874 20.149996 -4.752361
v -23.707946 20.200004 13.666841
v -23.757846 20.200004 13.670141
v -23.757846 20.149996 13.670141
v -23.707946 20.149996 13.666841
v -24.933874 20.200004 -4.752361
v -23.707946 20.200004 13.666841
v -23.707946 20.149996 13.666841
v -24.933874 20.149996 -4.752361
v -24.983774 20.200004 -4.749061
v -24.933874 20.200004 -4.752361
v -24.933874 20.149996 -4.752361
v -24.983774 20.149996 -4.749061
v -23.757846 20.200004 13.670141
v -24.983774 20.200004 -4.749061
v -24.983774 20.149996 -4.749061
v -23.757846 20.149996 13.670141
f 673 674 676
f 676 674 675
f 677 678 680
f 680 678 679
f 681 682 684
f 684 682 683
f 685 686 688
f 688 686 687
f 689 690 692
f 692 690 691
f 693 694 696
f 696 694 695
o item_92b0f140_1130051
v -21.969134 20.100004 7.117451
v -22.761986 20.100004 -4.796691
v -22.811886 20.100004 -4.793391
v -22.019034 20.100004 7.120751
v -22.811886 20.049996 -4.793391
v -22.761986 20.049996 -4.796691
v -21.969134 20.049996 7.117451
v -22.019034 20.049996 7.120751
v -22.811886 20.100004 -4.793391
v -22.761986 20.100004 -4.796691
v -22.761986 20.049996 -4.796691
v -22.811886 20.049996 -4.793391
v -22.019034 20.100004 7.120751
v -22.811886 20.100004 -4.793391
v -22.811886 20.049996 -4.793391
v -22.019034 20.049996 7.120751
v -21.969134 20.100004 7.117451
v -22.019034 20.100004 7.120751
v -22.019034 20.049996 7.120751
v -21.969134 20.049996 7.117451
v -22.761986 20.100004 -4.796691
v -21.969134 20.100004 7.117451
v -21.969134 20.049996 7.117451
v -22.761986 20.049996 -4.796691
f 697 698 700
f 700 698 699
f 701 702 704
f 704 702 703
f 705 706 708
f 708 706 707
f 709 710 712
f 712 710 711
f 713 714 716
f 716 714 715
f 717 718 720
f 720 718 719
o item_92b0f140_1068048
v -23.328198 20.200004 -4.869129
v -22.499402 20.200004 7.583289
v -22.449502 20.200004 7.579989
v -23.278298 20.200004 -4.872429
v -22.449502 20.149996 7.579989
v -22.499402 20.149996 7.583289
v -23.328198 20.149996 -4.869129
v -23.278298 20.149996 -4.872429
v -22.449502 20.200004 7.579989
v -22.499402 20.200004 7.583289
v -22.499402 20.149996 7.583289
v -22.449502 20.149996 7.579989
v -23.278298 20.200004 -4.872429
v -22.449502 20.200004 7.579989
v -22.449502 20.149996 7.579989
v -23.278298 20.149996 -4.872429
v -23.328198 20.200004 -4.869129
v -23.278298 20.200004 -4.872429
v -23.278298 20.149996 -4.872429
v -23.328198 20.149996 -4.869129
v -22.499402 20.200004 7.583289
v -23.328198 20.200004 -4.869129
v -23.328198 20.149996 -4.869129
v -22.499402 20.149996 7.583289
f 721 722 724
f 724 722 723
f 725 726 728
f 728 726 727
f 729 730 732
f 732 730 731
f 733 734 736
f 736 734 735
f 737 738 740
f 740 738 739
f 741 742 744
f 744 742 743
o item_92b0f140_1068134
v -5.934369 20.165001 -5.996954
v -5.899171 20.165001 -5.468126
v -5.849271 20.165001 -5.471426
v -5.884469 20.165001 -6.000254
v -5.849271 20.149999 -5.471426
v -5.899171 20.149999 -5.468126
v -5.934369 20.149999 -5.996954
v -5.884469 20.149999 -6.000254
v -5.849271 20.165001 -5.471426
v -5.899171 20.165001 -5.468126
v -5.899171 20.149999 -5.468126
v -5.849271 20.149999 -5.471426
v -5.884469 20.165001 -6.000254
v -5.849271 20.165001 -5.471426
v -5.849271 20.149999 -5.471426
v -5.884469 20.149999 -6.000254
v -5.934369 20.165001 -5.996954
v -5.884469 20.165001 -6.000254
v -5.884469 20.149999 -6.000254
v -5.934369 20.149999 -5.996954
v -5.899171 20.165001 -5.468126
v -5.934369 20.165001 -5.996954
v -5.934369 20.149999 -5.996954
v -5.899171 20.149999 -5.468126
f 745 746 748
f 748 746 747
f 749 750 752
f 752 750 751
f 753 754 756
f 756 754 755
f 757 758 760
f 760 758 759
f 761 762 764
f 764 762 763
f 765 766 768
f 768 766 767
o item_92b0f140_1068228
v -9.657803 20.200005 -5.698752
v -5.886157 20.200005 -5.950008
v -5.889457 20.200005 -5.999908
v -9.661103 20.200005 -5.748652
v -5.889457 20.149995 -5.999908
v -5.886157 20.149995 -5.950008
v -9.657803 20.149995 -5.698752
v -9.661103 20.149995 -5.748652
v -5.889457 20.200005 -5.999908
v -5.886157 20.200005 -5.950008
v -5.886157 20.149995 -5.950008
v -5.889457 20.149995 -5.999908
v -9.661103 20.200005 -5.748652
v -5.889457 20.200005 -5.999908
v -5.889457 20.149995 -5.999908
v -9.661103 20.149995 -5.748652
v -9.657803 20.200005 -5.698752
v -9.661103 20.200005 -5.748652
v -9.661103 20.149995 -5.748652
v -9.657803 20.149995 -5.698752
v -5.886157 20.200005 -5.950008
v -9.657803 20.200005 -5.698752
v -9.657803 20.149995 -5.698752
v -5.886157 20.149995 -5.950008
f 769 770 772
f 772 770 771
f 773 774 776
f 776 774 775
f 777 778 780
f 780 778 779
f 781 782 784
f 784 782 783
f 785 786 788
f 788 786 787
f 789 790 792
f 792 790 791
o item_92b0f140_1068181
v -9.661118 20.200004 -5.748900
v -9.237422 20.200004 0.617000
v -9.187522 20.200004 0.613700
v -9.611218 20.200004 -5.752200
v -9.187522 20.149996 0.613700
v -9.237422 20.149996 0.617000
v -9.661118 20.149996 -5.748900
v -9.611218 20.149996 -5.752200
v -9.187522 20.200004 0.613700
v -9.237422 20.200004 0.617000
v -9.237422 20.149996 0.617000
v -9.187522 20.149996 0.613700
v -9.611218 20.200004 -5.752200
v -9.187522 20.200004 0.613700
v -9.187522 20.149996 0.613700
v -9.611218 20.149996 -5.752200
v -9.661118 20.200004 -5.748900
v -9.611218 20.200004 -5.752200
v -9.611218 20.149996 -5.752200
v -9.661118 20.149996 -5.748900
v -9.237422 20.200004 0.617000
v -9.661118 20.200004 -5.748900
v -9.661118 20.149996 -5.748900
v -9.237422 20.149996 0.617000
f 793 794 796
f 796 794 795
f 797 798 800
f 800 798 799
f 801 802 804
f 804 802 803
f 805 806 808
f 808 806 807
f 809 810 812
f 812 810 811
f 813 814 816
f 816 814 815
o item_92b0f140_1130143
v -9.698882 20.100004 0.613943
v -10.134878 20.100004 -5.937763
v -10.184778 20.100004 -5.934463
v -9.748782 20.100004 0.617243
v -10.184778 20.049996 -5.934463
v -10.134878 20.049996 -5.937763
v -9.698882 20.049996 0.613943
v -9.748782 20.049996 0.617243
v -10.184778 20.100004 -5.934463
v -10.134878 20.100004 -5.937763
v -10.134878 20.049996 -5.937763
v -10.184778 20.049996 -5.934463
v -9.748782 20.100004 0.617243
v -10.184778 20.100004 -5.934463
v -10.184778 20.049996 -5.934463
v -9.748782 20.049996 0.617243
v -9.698882 20.100004 0.613943
v -9.748782 20.100004 0.617243
v -9.748782 20.049996 0.617243
v -9.698882 20.049996 0.613943
v -10.134878 20.100004 -5.937763
v -9.698882 20.100004 0.613943
v -9.698882 20.049996 0.613943
v -10.134878 20.049996 -5.937763
f 817 818 820
f 820 818 819
f 821 822 824
f 824 822 823
f 825 826 828
f 828 826 827
f 829 830 832
f 832 830 831
f 833 834 836
f 836 834 835
f 837 838 840
f 840 838 839
o item_92b0f140_1067510
v -25.025570 24.100004 -5.377736
v -5.927870 24.100004 -6.648824
v -5.931170 24.100004 -6.698724
v -25.028870 24.100004 -5.427636
v -5.931170 24.049996 -6.698724
v -5.927870 24.049996 -6.648824
v -25.025570 24.049996 -5.377736
v -25.028870 24.049996 -5.427636
v -5.931170 24.100004 -6.698724
v -5.927870 24.100004 -6.648824
v -5.927870 24.049996 -6.648824
v -5.931170 24.049996 -6.698724
v -25.028870 24.100004 -5.427636
v -5.931170 24.100004 -6.698724
v -5.931170 24.049996 -6.698724
v -25.028870 24.049996 -5.427636
v -25.025570 24.100004 -5.377736
v -25.028870 24.100004 -5.427636
v -25.028870 24.049996 -5.427636
v -25.025570 24.049996 -5.377736
v -5.927870 24.100004 -6.648824
v -25.025570 24.100004 -5.377736
v -25.025570 24.049996 -5.377736
v -5.927870 24.049996 -6.648824
f 841 842 844
f 844 842 843
f 845 846 848
f 848 846 847
f 849 850 852
f 852 850 851
f 853 854 856
f 856 854 855
f 857 858 860
f 860 858 859
f 861 862 864
f 864 862 863
o item_92b0f140_1067475
v -7.216423 24.100004 -25.256551
v -5.977877 24.100004 -6.647769
v -5.927977 24.100004 -6.651069
v -7.166523 24.100004 -25.259851
v -5.927977 24.049996 -6.651069
v -5.977877 24.049996 -6.647769
v -7.216423 24.049996 -25.256551
v -7.166523 24.049996 -25.259851
v -5.927977 24.100004 -6.651069
v -5.977877 24.100004 -6.647769
v -5.977877 24.049996 -6.647769
v -5.927977 24.049996 -6.651069
v -7.166523 24.100004 -25.259851
v -5.927977 24.100004 -6.651069
v -5.927977 24.049996 -6.651069
v -7.166523 24.049996 -25.259851
v -7.216423 24.100004 -25.256551
v -7.166523 24.100004 -25.259851
v -7.166523 24.049996 -25.259851
v -7.216423 24.049996 -25.256551
v -5.977877 24.100004 -6.647769
v -7.216423 24.100004 -25.256551
v -7.216423 24.049996 -25.256551
v -5.977877 24.049996 -6.647769
f 865 866 868
f 868 866 867
f 869 870 872
f 872 870 871
f 873 874 876
f 876 874 875
f 877 878 880
f 880 878 879
f 881 882 884
f 884 882 883
f 885 886 888
f 888 886 887
o item_92b0f140_1130970
v 15.560578 23.890000 -42.905902
v 14.662512 23.890000 -45.128548
v 14.616162 23.890000 -45.109798
v 15.514228 23.890000 -42.887152
v 14.616162 23.840000 -45.109798
v 14.662512 23.840000 -45.128548
v 15.560578 23.840000 -42.905902
v 15.514228 23.840000 -42.887152
v 14.616162 23.890000 -45.109798
v 14.662512 23.890000 -45.128548
v 14.662512 23.840000 -45.128548
v 14.616162 23.840000 -45.109798
v 15.514228 23.890000 -42.887152
v 14.616162 23.890000 -45.109798
v 14.616162 23.840000 -45.109798
v 15.514228 23.840000 -42.887152
v 15.560578 23.890000 -42.905902
v 15.514228 23.890000 -42.887152
v 15.514228 23.840000 -42.887152
v 15.560578 23.840000 -42.905902
v 14.662512 23.890000 -45.128548
v 15.560578 23.890000 -42.905902
v 15.560578 23.840000 -42.905902
v 14.662512 23.840000 -45.128548
f 889 890 892
f 892 890 891
f 893 894 896
f 896 894 895
f 897 898 900
f 900 898 899
f 901 902 904
f 904 902 903
f 905 906 908
f 908 906 907
f 909 910 912
f 912 910 911
o item_92b0f140_1135740
v 16.059314 23.890000 -41.191071
v 15.374876 23.890000 -42.884999
v 15.328526 23.890000 -42.866249
v 16.012964 23.890000 -41.172321
v 15.328526 23.840000 -42.866249
v 15.374876 23.840000 -42.884999
v 16.059314 23.840000 -41.191071
v 16.012964 23.840000 -41.172321
v 15.328526 23.890000 -42.866249
v 15.374876 23.890000 -42.884999
v 15.374876 23.840000 -42.884999
v 15.328526 23.840000 -42.866249
v 16.012964 23.890000 -41.172321
v 15.328526 23.890000 -42.866249
v 15.328526 23.840000 -42.866249
v 16.012964 23.840000 -41.172321
v 16.059314 23.890000 -41.191071
v 16.012964 23.890000 -41.172321
v 16.012964 23.840000 -41.172321
v 16.059314 23.840000 -41.191071
v 15.374876 23.890000 -42.884999
v 16.059314 23.890000 -41.191071
v 16.059314 23.840000 -41.191071
v 15.374876 23.840000 -42.884999
f 913 914 916
f 916 914 915
f 917 918 920
f 920 918 919
f 921 922 924
f 924 922 923
f 925 926 928
f 928 926 927
f 929 930 932
f 932 930 931
f 933 934 936
f 936 934 935
o item_92b0f140_1135781
v 15.495482 23.890000 -42.933516
v 15.374948 23.890000 -42.884814
v 15.393698 23.890000 -42.838464
v 15.514232 23.890000 -42.887166
v 15.393698 23.840000 -42.838464
v 15.374948 23.840000 -42.884814
v 15.495482 23.840000 -42.933516
v 15.514232 23.840000 -42.887166
v 15.393698 23.890000 -42.838464
v 15.374948 23.890000 -42.884814
v 15.374948 23.840000 -42.884814
v 15.393698 23.840000 -42.838464
v 15.514232 23.890000 -42.887166
v 15.393698 23.890000 -42.838464
v 15.393698 23.840000 -42.838464
v 15.514232 23.840000 -42.887166
v 15.495482 23.890000 -42.933516
v 15.514232 23.890000 -42.887166
v 15.514232 23.840000 -42.887166
v 15.495482 23.840000 -42.933516
v 15.374948 23.890000 -42.884814
v 15.495482 23.890000 -42.933516
v 15.495482 23.840000 -42.933516
v 15.374948 23.840000 -42.884814
f 937 938 940
f 940 938 939
f 941 942 944
f 944 942 943
f 945 946 948
f 948 946 947
f 949 950 952
f 952 950 951
f 953 954 956
f 956 954 955
f 957 958 960
f 960 958 959
o item_92b0f140_1067381
v 17.273007 24.099999 -55.777987
v 24.443043 24.099999 -38.031763
v 24.489393 24.099999 -38.050513
v 17.319357 24.099999 -55.796737
v 24.489393 24.050001 -38.050513
v 24.443043 24.050001 -38.031763
v 17.273007 24.050001 -55.777987
v 17.319357 24.050001 -55.796737
v 24.489393 24.099999 -38.050513
v 24.443043 24.099999 -38.031763
v 24.443043 24.050001 -38.031763
v 24.489393 24.050001 -38.050513
v 17.319357 24.099999 -55.796737
v 24.489393 24.099999 -38.050513
v 24.489393 24.050001 -38.050513
v 17.319357 24.050001 -55.796737
v 17.273007 24.099999 -55.777987
v 17.319357 24.099999 -55.796737
v 17.319357 24.050001 -55.796737
v 17.273007 24.050001 -55.777987
v 24.443043 24.099999 -38.031763
v 17.273007 24.099999 -55.777987
v 17.273007 24.050001 -55.777987
v 24.443043 24.050001 -38.031763
f 961 962 964
f 964 962 963
f 965 966 968
f 968 966 967
f 969 970 972
f 972 970 971
f 973 974 976
f 976 974 975
f 977 978 980
f 980 978 979
f 981 982 984
f 984 982 983
o item_92b0f140_1067698
v 16.723251 24.100000 -40.909253
v 13.718719 24.100000 -48.345237
v 13.672369 24.100000 -48.326487
v 16.676901 24.100000 -40.890503
v 13.672369 24.050000 -48.326487
v 13.718719 24.050000 -48.345237
v 16.723251 24.050000 -40.909253
v 16.676901 24.050000 -40.890503
v 13.672369 24.100000 -48.326487
v 13.718719 24.100000 -48.345237
v 13.718719 24.050000 -48.345237
v 13.672369 24.050000 -48.326487
v 16.676901 24.100000 -40.890503
v 13.672369 24.100000 -48.326487
v 13.672369 24.050000 -48.326487
v 16.676901 24.050000 -40.890503
v 16.723251 24.100000 -40.909253
v 16.676901 24.100000 -40.890503
v 16.676901 24.050000 -40.890503
v 16.723251 24.050000 -40.909253
v 13.718719 24.100000 -48.345237
v 16.723251 24.100000 -40.909253
v 16.723251 24.050000 -40.909253
v 13.718719 24.050000 -48.345237
f 985 986 988
f 988 986 987
f 989 990 992
f 992 990 991
f 993 994 996
f 996 994 995
f 997 998 1000
f 1000 998 999
f 1001 1002 1004
f 1004 1002 1003
f 1005 1006 1008
f 1008 1006 1007
o item_92b0f140_1131056
v 14.618996 23.890000 -45.134405
v 13.164644 23.890000 -45.134435
v 13.164644 23.890000 -45.084435
v 14.618996 23.890000 -45.084405
v 13.164644 23.840000 -45.084435
v 13.164644 23.840000 -45.134435
v 14.618996 23.840000 -45.134405
v 14.618996 23.840000 -45.084405
v 13.164644 23.890000 -45.084435
v 13.164644 23.890000 -45.134435
v 13.164644 23.840000 -45.134435
v 13.164644 23.840000 -45.084435
v 14.618996 23.890000 -45.084405
v 13.164644 23.890000 -45.084435
v 13.164644 23.840000 -45.084435
v 14.618996 23.840000 -45.084405
v 14.618996 23.890000 -45.134405
v 14.618996 23.890000 -45.084405
v 14.618996 23.840000 -45.084405
v 14.618996 23.840000 -45.134405
v 13.164644 23.890000 -45.134435
v 14.618996 23.890000 -45.134405
v 14.618996 23.840000 -45.134405
v 13.164644 23.840000 -45.134435
f 1009 1010 1012
f 1012 1010 1011
f 1013 1014 1016
f 1016 1014 1015
f 1017 1018 1020
f 1020 1018 1019
f 1021 1022 1024
f 1024 1022 1023
f 1025 1026 1028
f 1028 1026 1027
f 1029 1030 1032
f 1032 1030 1031
o item_92b0f140_1067428
v 24.470694 24.100000 -38.096883
v -7.192504 24.100000 -25.303267
v -7.173754 24.100000 -25.256917
v 24.489444 24.100000 -38.050533
v -7.173754 24.050000 -25.256917
v -7.192504 24.050000 -25.303267
v 24.470694 24.050000 -38.096883
v 24.489444 24.050000 -38.050533
v -7.173754 24.100000 -25.256917
v -7.192504 24.100000 -25.303267
v -7.192504 24.050000 -25.303267
v -7.173754 24.050000 -25.256917
v 24.489444 24.100000 -38.050533
v -7.173754 24.100000 -25.256917
v -7.173754 24.050000 -25.256917
v 24.489444 24.050000 -38.050533
v 24.470694 24.100000 -38.096883
v 24.489444 24.100000 -38.050533
v 24.489444 24.050000 -38.050533
v 24.470694 24.050000 -38.096883
v -7.192504 24.100000 -25.303267
v 24.470694 24.100000 -38.096883
v 24.470694 24.050000 -38.096883
v -7.192504 24.050000 -25.303267
f 1033 1034 1036
f 1036 1034 1035
f 1037 1038 1040
f 1040 1038 1039
f 1041 1042 1044
f 1044 1042 1043
f 1045 1046 1048
f 1048 1046 1047
f 1049 1050 1052
f 1052 1050 1051
f 1053 1054 1056
f 1056 1054 1055
o item_92b0f140_1067651
v 16.677034 24.099999 -40.890481
v -20.818124 24.099999 -25.740849
v -20.799374 24.099999 -25.694499
v 16.695784 24.099999 -40.844131
v -20.799374 24.050001 -25.694499
v -20.818124 24.050001 -25.740849
v 16.677034 24.050001 -40.890481
v 16.695784 24.050001 -40.844131
v -20.799374 24.099999 -25.694499
v -20.818124 24.099999 -25.740849
v -20.818124 24.050001 -25.740849
v -20.799374 24.050001 -25.694499
v 16.695784 24.099999 -40.844131
v -20.799374 24.099999 -25.694499
v -20.799374 24.050001 -25.694499
v 16.695784 24.050001 -40.844131
v 16.677034 24.099999 -40.890481
v 16.695784 24.099999 -40.844131
v 16.695784 24.050001 -40.844131
v 16.677034 24.050001 -40.890481
v -20.818124 24.099999 -25.740849
v 16.677034 24.099999 -40.890481
v 16.677034 24.050001 -40.890481
v -20.818124 24.050001 -25.740849
f 1057 1058 1060
f 1060 1058 1059
f 1061 1062 1064
f 1064 1062 1063
f 1065 1066 1068
f 1068 1066 1067
f 1069 1070 1072
f 1072 1070 1071
f 1073 1074 1076
f 1076 1074 1075
f 1077 1078 1080
f 1080 1078 1079
o item_92b0f140_1130927
v 16.059391 23.890000 -41.191127
v -20.415721 23.890000 -26.453243
v -20.396971 23.890000 -26.406893
v 16.078141 23.890000 -41.144777
v -20.396971 23.840000 -26.406893
v -20.415721 23.840000 -26.453243
v 16.059391 23.840000 -41.191127
v 16.078141 23.840000 -41.144777
v -20.396971 23.890000 -26.406893
v -20.415721 23.890000 -26.453243
v -20.415721 23.840000 -26.453243
v -20.396971 23.840000 -26.406893
v 16.078141 23.890000 -41.144777
v -20.396971 23.890000 -26.406893
v -20.396971 23.840000 -26.406893
v 16.078141 23.840000 -41.144777
v 16.059391 23.890000 -41.191127
v 16.078141 23.890000 -41.144777
v 16.078141 23.840000 -41.144777
v 16.059391 23.840000 -41.191127
v -20.415721 23.890000 -26.453243
v 16.059391 23.890000 -41.191127
v 16.059391 23.840000 -41.191127
v -20.415721 23.840000 -26.453243
f 1081 1082 1084
f 1084 1082 1083
f 1085 1086 1088
f 1088 1086 1087
f 1089 1090 1092
f 1092 1090 1091
f 1093 1094 1096
f 1096 1094 1095
f 1097 1098 1100
f 1100 1098 1099
f 1101 1102 1104
f 1104 1102 1103
o item_92b0f140_1131099
v 3.806756 23.890005 -41.346242
v 3.028144 23.890005 -40.349618
v 3.067544 23.890005 -40.318818
v 3.846156 23.890005 -41.315442
v 3.067544 23.839995 -40.318818
v 3.028144 23.839995 -40.349618
v 3.806756 23.839995 -41.346242
v 3.846156 23.839995 -41.315442
v 3.067544 23.890005 -40.318818
v 3.028144 23.890005 -40.349618
v 3.028144 23.839995 -40.349618
v 3.067544 23.839995 -40.318818
v 3.846156 23.890005 -41.315442
v 3.067544 23.890005 -40.318818
v 3.067544 23.839995 -40.318818
v 3.846156 23.839995 -41.315442
v 3.806756 23.890005 -41.346242
v 3.846156 23.890005 -41.315442
v 3.846156 23.839995 -41.315442
v 3.806756 23.839995 -41.346242
v 3.028144 23.890005 -40.349618
v 3.806756 23.890005 -41.346242
v 3.806756 23.839995 -41.346242
v 3.028144 23.839995 -40.349618
f 1105 1106 1108
f 1108 1106 1107
f 1109 1110 1112
f 1112 1110 1111
f 1113 1114 1116
f 1116 1114 1115
f 1117 1118 1120
f 1120 1118 1119
f 1121 1122 1124
f 1124 1122 1123
f 1125 1126 1128
f 1128 1126 1127
o item_92b0f140_1131186
v 3.028135 23.890000 -40.349607
v 1.319735 23.890000 -39.659323
v 1.338485 23.890000 -39.612973
v 3.046885 23.890000 -40.303257
v 1.338485 23.840000 -39.612973
v 1.319735 23.840000 -39.659323
v 3.028135 23.840000 -40.349607
v 3.046885 23.840000 -40.303257
v 1.338485 23.890000 -39.612973
v 1.319735 23.890000 -39.659323
v 1.319735 23.840000 -39.659323
v 1.338485 23.840000 -39.612973
v 3.046885 23.890000 -40.303257
v 1.338485 23.890000 -39.612973
v 1.338485 23.840000 -39.612973
v 3.046885 23.840000 -40.303257
v 3.028135 23.890000 -40.349607
v 3.046885 23.890000 -40.303257
v 3.046885 23.840000 -40.303257
v 3.028135 23.840000 -40.349607
v 1.319735 23.890000 -39.659323
v 3.028135 23.890000 -40.349607
v 3.028135 23.840000 -40.349607
v 1.319735 23.840000 -39.659323
f 1129 1130 1132
f 1132 1130 1131
f 1133 1134 1136
f 1136 1134 1135
f 1137 1138 1140
f 1140 1138 1139
f 1141 1142 1144
f 1144 1142 1143
f 1145 1146 1148
f 1148 1146 1147
f 1149 1150 1152
f 1152 1150 1151
o item_92b0f140_1131229
v 1.097938 23.890000 -40.074842
v 1.292132 23.890000 -39.594228
v 1.338482 23.890000 -39.612978
v 1.144288 23.890000 -40.093592
v 1.338482 23.840000 -39.612978
v 1.292132 23.840000 -39.594228
v 1.097938 23.840000 -40.074842
v 1.144288 23.840000 -40.093592
v 1.338482 23.890000 -39.612978
v 1.292132 23.890000 -39.594228
v 1.292132 23.840000 -39.594228
v 1.338482 23.840000 -39.612978
v 1.144288 23.890000 -40.093592
v 1.338482 23.890000 -39.612978
v 1.338482 23.840000 -39.612978
v 1.144288 23.840000 -40.093592
v 1.097938 23.890000 -40.074842
v 1.144288 23.890000 -40.093592
v 1.144288 23.840000 -40.093592
v 1.097938 23.840000 -40.074842
v 1.292132 23.890000 -39.594228
v 1.097938 23.890000 -40.074842
v 1.097938 23.840000 -40.074842
v 1.292132 23.840000 -39.594228
f 1153 1154 1156
f 1156 1154 1155
f 1157 1158 1160
f 1160 1158 1159
f 1161 1162 1164
f 1164 1162 1163
f 1165 1166 1168
f 1168 1166 1167
f 1169 1170 1172
f 1172 1170 1171
f 1173 1174 1176
f 1176 1174 1175
o item_92b0f140_1131751
v 1.146170 23.890000 -40.088951
v -3.406280 23.890000 -38.249519
v -3.387530 23.890000 -38.203169
v 1.164920 23.890000 -40.042601
v -3.387530 23.840000 -38.203169
v -3.406280 23.840000 -38.249519
v 1.146170 23.840000 -40.088951
v 1.164920 23.840000 -40.042601
v -3.387530 23.890000 -38.203169
v -3.406280 23.890000 -38.249519
v -3.406280 23.840000 -38.249519
v -3.387530 23.840000 -38.203169
v 1.164920 23.890000 -40.042601
v -3.387530 23.890000 -38.203169
v -3.387530 23.840000 -38.203169
v 1.164920 23.840000 -40.042601
v 1.146170 23.890000 -40.088951
v 1.164920 23.890000 -40.042601
v 1.164920 23.840000 -40.042601
v 1.146170 23.840000 -40.088951
v -3.406280 23.890000 -38.249519
v 1.146170 23.890000 -40.088951
v 1.146170 23.840000 -40.088951
v -3.406280 23.840000 -38.249519
f 1177 1178 1180
f 1180 1178 1179
f 1181 1182 1184
f 1184 1182 1183
f 1185 1186 1188
f 1188 1186 1187
f 1189 1190 1192
f 1192 1190 1191
f 1193 1194 1196
f 1196 1194 1195
f 1197 1198 1200
f 1200 1198 1199
o item_92b0f140_1131587
v 0.215222 23.890000 -42.392976
v -4.290872 23.890000 -40.572274
v -4.272122 23.890000 -40.525924
v 0.233972 23.890000 -42.346626
v -4.272122 23.840000 -40.525924
v -4.290872 23.840000 -40.572274
v 0.215222 23.840000 -42.392976
v 0.233972 23.840000 -42.346626
v -4.272122 23.890000 -40.525924
v -4.290872 23.890000 -40.572274
v -4.290872 23.840000 -40.572274
v -4.272122 23.840000 -40.525924
v 0.233972 23.890000 -42.346626
v -4.272122 23.890000 -40.525924
v -4.272122 23.840000 -40.525924
v 0.233972 23.840000 -42.346626
v 0.215222 23.890000 -42.392976
v 0.233972 23.890000 -42.346626
v 0.233972 23.840000 -42.346626
v 0.215222 23.840000 -42.392976
v -4.290872 23.890000 -40.572274
v 0.215222 23.890000 -42.392976
v 0.215222 23.840000 -42.392976
v -4.290872 23.840000 -40.572274
f 1201 1202 1204
f 1204 1202 1203
f 1205 1206 1208
f 1208 1206 1207
f 1209 1210 1212
f 1212 1210 1211
f 1213 1214 1216
f 1216 1214 1215
f 1217 1218 1220
f 1220 1218 1219
f 1221 1222 1224
f 1224 1222 1223
o item_92b0f140_1131673
v 0.389420 23.900000 -41.961841
v -4.163030 23.900000 -40.122409
v -4.144280 23.900000 -40.076059
v 0.408170 23.900000 -41.915491
v -4.144280 23.850000 -40.076059
v -4.163030 23.850000 -40.122409
v 0.389420 23.850000 -41.961841
v 0.408170 23.850000 -41.915491
v -4.144280 23.900000 -40.076059
v -4.163030 23.900000 -40.122409
v -4.163030 23.850000 -40.122409
v -4.144280 23.850000 -40.076059
v 0.408170 23.900000 -41.915491
v -4.144280 23.900000 -40.076059
v -4.144280 23.850000 -40.076059
v 0.408170 23.850000 -41.915491
v 0.389420 23.900000 -41.961841
v 0.408170 23.900000 -41.915491
v 0.408170 23.850000 -41.915491
v 0.389420 23.850000 -41.961841
v -4.163030 23.900000 -40.122409
v 0.389420 23.900000 -41.961841
v 0.389420 23.850000 -41.961841
v -4.163030 23.850000 -40.122409
f 1225 1226 1228
f 1228 1226 1227
f 1229 1230 1232
f 1232 1230 1231
f 1233 1234 1236
f 1236 1234 1235
f 1237 1238 1240
f 1240 1238 1239
f 1241 1242 1244
f 1244 1242 1243
f 1245 1246 1248
f 1248 1246 1247
o item_92b0f140_1131013
v 13.182505 23.890000 -45.134522
v 3.806725 23.890000 -41.346208
v 3.825475 23.890000 -41.299858
v 13.201255 23.890000 -45.088172
v 3.825475 23.840000 -41.299858
v 3.806725 23.840000 -41.346208
v 13.182505 23.840000 -45.134522
v 13.201255 23.840000 -45.088172
v 3.825475 23.890000 -41.299858
v 3.806725 23.890000 -41.346208
v 3.806725 23.840000 -41.346208
v 3.825475 23.840000 -41.299858
v 13.201255 23.890000 -45.088172
v 3.825475 23.890000 -41.299858
v 3.825475 23.840000 -41.299858
v 13.201255 23.840000 -45.088172
v 13.182505 23.890000 -45.134522
v 13.201255 23.890000 -45.088172
v 13.201255 23.840000 -45.088172
v 13.182505 23.840000 -45.134522
v 3.806725 23.890000 -41.346208
v 13.182505 23.890000 -45.134522
v 13.182505 23.840000 -45.134522
v 3.806725 23.840000 -41.346208
f 1249 1250 1252
f 1252 1250 1251
f 1253 1254 1256
f 1256 1254 1255
f 1257 1258 1260
f 1260 1258 1259
f 1261 1262 1264
f 1264 1262 1263
f 1265 1266 1268
f 1268 1266 1267
f 1269 1270 1272
f 1272 1270 1271
o item_92b0f140_1131630
v 0.408152 23.900000 -41.915486
v 0.215218 23.900000 -42.392984
v 0.168868 23.900000 -42.374234
v 0.361802 23.900000 -41.896736
v 0.168868 23.850000 -42.374234
v 0.215218 23.850000 -42.392984
v 0.408152 23.850000 -41.915486
v 0.361802 23.850000 -41.896736
v 0.168868 23.900000 -42.374234
v 0.215218 23.900000 -42.392984
v 0.215218 23.850000 -42.392984
v 0.168868 23.850000 -42.374234
v 0.361802 23.900000 -41.896736
v 0.168868 23.900000 -42.374234
v 0.168868 23.850000 -42.374234
v 0.361802 23.850000 -41.896736
v 0.408152 23.900000 -41.915486
v 0.361802 23.900000 -41.896736
v 0.361802 23.850000 -41.896736
v 0.408152 23.850000 -41.915486
v 0.215218 23.900000 -42.392984
v 0.408152 23.900000 -41.915486
v 0.408152 23.850000 -41.915486
v 0.215218 23.850000 -42.392984
f 1273 1274 1276
f 1276 1274 1275
f 1277 1278 1280
f 1280 1278 1279
f 1281 1282 1284
f 1284 1282 1283
f 1285 1286 1288
f 1288 1286 1287
f 1289 1290 1292
f 1292 1290 1291
f 1293 1294 1296
f 1296 1294 1295
o item_92b0f140_1131142
v -3.188852 24.220400 -33.413822
v -6.025938 24.220400 -32.267488
v -6.007188 24.220400 -32.221138
v -3.170102 24.220400 -33.367472
v -6.007188 24.170400 -32.221138
v -6.025938 24.170400 -32.267488
v -3.188852 24.170400 -33.413822
v -3.170102 24.170400 -33.367472
v -6.007188 24.220400 -32.221138
v -6.025938 24.220400 -32.267488
v -6.025938 24.170400 -32.267488
v -6.007188 24.170400 -32.221138
v -3.170102 24.220400 -33.367472
v -6.007188 24.220400 -32.221138
v -6.007188 24.170400 -32.221138
v -3.170102 24.170400 -33.367472
v -3.188852 24.220400 -33.413822
v -3.170102 24.220400 -33.367472
v -3.170102 24.170400 -33.367472
v -3.188852 24.170400 -33.413822
v -6.025938 24.220400 -32.267488
v -3.188852 24.220400 -33.413822
v -3.188852 24.170400 -33.413822
v -6.025938 24.170400 -32.267488
f 1297 1298 1300
f 1300 1298 1299
f 1301 1302 1304
f 1304 1302 1303
f 1305 1306 1308
f 1308 1306 1307
f 1309 1310 1312
f 1312 1310 1311
f 1313 1314 1316
f 1316 1314 1315
f 1317 1318 1320
f 1320 1318 1319
o item_92b0f140_1067264
v -24.975751 24.100004 -5.381535
v -27.134089 24.100004 -37.819685
v -27.183989 24.100004 -37.816385
v -25.025651 24.100004 -5.378235
v -27.183989 24.049996 -37.816385
v -27.134089 24.049996 -37.819685
v -24.975751 24.049996 -5.381535
v -25.025651 24.049996 -5.378235
v -27.183989 24.100004 -37.816385
v -27.134089 24.100004 -37.819685
v -27.134089 24.049996 -37.819685
v -27.183989 24.049996 -37.816385
v -25.025651 24.100004 -5.378235
v -27.183989 24.100004 -37.816385
v -27.183989 24.049996 -37.816385
v -25.025651 24.049996 -5.378235
v -24.975751 24.100004 -5.381535
v -25.025651 24.100004 -5.378235
v -25.025651 24.049996 -5.378235
v -24.975751 24.049996 -5.381535
v -27.134089 24.100004 -37.819685
v -24.975751 24.100004 -5.381535
v -24.975751 24.049996 -5.381535
v -27.134089 24.049996 -37.819685
f 1321 1322 1324
f 1324 1322 1323
f 1325 1326 1328
f 1328 1326 1327
f 1329 1330 1332
f 1332 1330 1331
f 1333 1334 1336
f 1336 1334 1335
f 1337 1338 1340
f 1340 1338 1339
f 1341 1342 1344
f 1344 1342 1343
o item_92b0f140_1130883
v -20.347002 23.890004 -26.410274
v -20.443098 23.890004 -27.854086
v -20.492998 23.890004 -27.850786
v -20.396902 23.890004 -26.406974
v -20.492998 23.839996 -27.850786
v -20.443098 23.839996 -27.854086
v -20.347002 23.839996 -26.410274
v -20.396902 23.839996 -26.406974
v -20.492998 23.890004 -27.850786
v -20.443098 23.890004 -27.854086
v -20.443098 23.839996 -27.854086
v -20.492998 23.839996 -27.850786
v -20.396902 23.890004 -26.406974
v -20.492998 23.890004 -27.850786
v -20.492998 23.839996 -27.850786
v -20.396902 23.839996 -26.406974
v -20.347002 23.890004 -26.410274
v -20.396902 23.890004 -26.406974
v -20.396902 23.839996 -26.406974
v -20.347002 23.839996 -26.410274
v -20.443098 23.890004 -27.854086
v -20.347002 23.890004 -26.410274
v -20.347002 23.839996 -26.410274
v -20.443098 23.839996 -27.854086
f 1345 1346 1348
f 1348 1346 1347
f 1349 1350 1352
f 1352 1350 1351
f 1353 1354 1356
f 1356 1354 1355
f 1357 1358 1360
f 1360 1358 1359
f 1361 1362 1364
f 1364 1362 1363
f 1365 1366 1368
f 1368 1366 1367
o item_92b0f140_1135637
v -20.622754 23.890004 -27.842879
v -20.786666 23.890004 -30.305601
v -20.836566 23.890004 -30.302301
v -20.672654 23.890004 -27.839579
v -20.836566 23.839996 -30.302301
v -20.786666 23.839996 -30.305601
v -20.622754 23.839996 -27.842879
v -20.672654 23.839996 -27.839579
v -20.836566 23.890004 -30.302301
v -20.786666 23.890004 -30.305601
v -20.786666 23.839996 -30.305601
v -20.836566 23.839996 -30.302301
v -20.672654 23.890004 -27.839579
v -20.836566 23.890004 -30.302301
v -20.836566 23.839996 -30.302301
v -20.672654 23.839996 -27.839579
v -20.622754 23.890004 -27.842879
v -20.672654 23.890004 -27.839579
v -20.672654 23.839996 -27.839579
v -20.622754 23.839996 -27.842879
v -20.786666 23.890004 -30.305601
v -20.622754 23.890004 -27.842879
v -20.622754 23.839996 -27.842879
v -20.786666 23.839996 -30.305601
f 1369 1370 1372
f 1372 1370 1371
f 1373 1374 1376
f 1376 1374 1375
f 1377 1378 1380
f 1380 1378 1379
f 1381 1382 1384
f 1384 1382 1383
f 1385 1386 1388
f 1388 1386 1387
f 1389 1390 1392
f 1392 1390 1391
o item_92b0f140_1135685
v -20.446464 23.890004 -27.904737
v -20.675956 23.890004 -27.889463
v -20.672656 23.890004 -27.839563
v -20.443164 23.890004 -27.854837
v -20.672656 23.839996 -27.839563
v -20.675956 23.839996 -27.889463
v -20.446464 23.839996 -27.904737
v -20.443164 23.839996 -27.854837
v -20.672656 23.890004 -27.839563
v -20.675956 23.890004 -27.889463
v -20.675956 23.839996 -27.889463
v -20.672656 23.839996 -27.839563
v -20.443164 23.890004 -27.854837
v -20.672656 23.890004 -27.839563
v -20.672656 23.839996 -27.839563
v -20.443164 23.839996 -27.854837
v -20.446464 23.890004 -27.904737
v -20.443164 23.890004 -27.854837
v -20.443164 23.839996 -27.854837
v -20.446464 23.839996 -27.904737
v -20.675956 23.890004 -27.889463
v -20.446464 23.890004 -27.904737
v -20.446464 23.839996 -27.904737
v -20.675956 23.839996 -27.889463
f 1393 1394 1396
f 1396 1394 1395
f 1397 1398 1400
f 1400 1398 1399
f 1401 1402 1404
f 1404 1402 1403
f 1405 1406 1408
f 1408 1406 1407
f 1409 1410 1412
f 1412 1410 1411
f 1413 1414 1416
f 1416 1414 1415
o item_92b0f140_1131842
v -19.145585 23.890000 -31.026127
v -20.850665 23.890000 -30.337183
v -20.831915 23.890000 -30.290833
v -19.126835 23.890000 -30.979777
v -20.831915 23.840000 -30.290833
v -20.850665 23.840000 -30.337183
v -19.145585 23.840000 -31.026127
v -19.126835 23.840000 -30.979777
v -20.831915 23.890000 -30.290833
v -20.850665 23.890000 -30.337183
v -20.850665 23.840000 -30.337183
v -20.831915 23.840000 -30.290833
v -19.126835 23.890000 -30.979777
v -20.831915 23.890000 -30.290833
v -20.831915 23.840000 -30.290833
v -19.126835 23.840000 -30.979777
v -19.145585 23.890000 -31.026127
v -19.126835 23.890000 -30.979777
v -19.126835 23.840000 -30.979777
v -19.145585 23.840000 -31.026127
v -20.850665 23.890000 -30.337183
v -19.145585 23.890000 -31.026127
v -19.145585 23.840000 -31.026127
v -20.850665 23.840000 -30.337183
f 1417 1418 1420
f 1420 1418 1419
f 1421 1422 1424
f 1424 1422 1423
f 1425 1426 1428
f 1428 1426 1427
f 1429 1430 1432
f 1432 1430 1431
f 1433 1434 1436
f 1436 1434 1435
f 1437 1438 1440
f 1440 1438 1439
o item_92b0f140_1131889
v -16.724465 23.890000 -32.173795
v -18.302525 23.890000 -31.536175
v -18.283775 23.890000 -31.489825
v -16.705715 23.890000 -32.127445
v -18.283775 23.840000 -31.489825
v -18.302525 23.840000 -31.536175
v -16.724465 23.840000 -32.173795
v -16.705715 23.840000 -32.127445
v -18.283775 23.890000 -31.489825
v -18.302525 23.890000 -31.536175
v -18.302525 23.840000 -31.536175
v -18.283775 23.840000 -31.489825
v -16.705715 23.890000 -32.127445
v -18.283775 23.890000 -31.489825
v -18.283775 23.840000 -31.489825
v -16.705715 23.840000 -32.127445
v -16.724465 23.890000 -32.173795
v -16.705715 23.890000 -32.127445
v -16.705715 23.840000 -32.127445
v -16.724465 23.840000 -32.173795
v -18.302525 23.890000 -31.536175
v -16.724465 23.890000 -32.173795
v -16.724465 23.840000 -32.173795
v -18.302525 23.840000 -31.536175
f 1441 1442 1444
f 1444 1442 1443
f 1445 1446 1448
f 1448 1446 1447
f 1449 1450 1452
f 1452 1450 1451
f 1453 1454 1456
f 1456 1454 1455
f 1457 1458 1460
f 1460 1458 1459
f 1461 1462 1464
f 1464 1462 1463
o item_92b0f140_1132030
v -18.285251 23.890000 -31.493465
v -19.075159 23.890000 -33.448425
v -19.121509 23.890000 -33.429675
v -18.331601 23.890000 -31.474715
v -19.121509 23.840000 -33.429675
v -19.075159 23.840000 -33.448425
v -18.285251 23.840000 -31.493465
v -18.331601 23.840000 -31.474715
v -19.121509 23.890000 -33.429675
v -19.075159 23.890000 -33.448425
v -19.075159 23.840000 -33.448425
v -19.121509 23.840000 -33.429675
v -18.331601 23.890000 -31.474715
v -19.121509 23.890000 -33.429675
v -19.121509 23.840000 -33.429675
v -18.331601 23.840000 -31.474715
v -18.285251 23.890000 -31.493465
v -18.331601 23.890000 -31.474715
v -18.331601 23.840000 -31.474715
v -18.285251 23.840000 -31.493465
v -19.075159 23.890000 -33.448425
v -18.285251 23.890000 -31.493465
v -18.285251 23.840000 -31.493465
v -19.075159 23.840000 -33.448425
f 1465 1466 1468
f 1468 1466 1467
f 1469 1470 1472
f 1472 1470 1471
f 1473 1474 1476
f 1476 1474 1475
f 1477 1478 1480
f 1480 1478 1479
f 1481 1482 1484
f 1484 1482 1483
f 1485 1486 1488
f 1488 1486 1487
o item_92b0f140_1131983
v -19.127660 23.890000 -30.980938
v -20.096310 23.890000 -33.378272
v -20.142660 23.890000 -33.359522
v -19.174010 23.890000 -30.962188
v -20.142660 23.840000 -33.359522
v -20.096310 23.840000 -33.378272
v -19.127660 23.840000 -30.980938
v -19.174010 23.840000 -30.962188
v -20.142660 23.890000 -33.359522
v -20.096310 23.890000 -33.378272
v -20.096310 23.840000 -33.378272
v -20.142660 23.840000 -33.359522
v -19.174010 23.890000 -30.962188
v -20.142660 23.890000 -33.359522
v -20.142660 23.840000 -33.359522
v -19.174010 23.840000 -30.962188
v -19.127660 23.890000 -30.980938
v -19.174010 23.890000 -30.962188
v -19.174010 23.840000 -30.962188
v -19.127660 23.840000 -30.980938
v -20.096310 23.890000 -33.378272
v -19.127660 23.890000 -30.980938
v -19.127660 23.840000 -30.980938
v -20.096310 23.840000 -33.378272
f 1489 1490 1492
f 1492 1490 1491
f 1493 1494 1496
f 1496 1494 1495
f 1497 1498 1500
f 1500 1498 1499
f 1501 1502 1504
f 1504 1502 1503
f 1505 1506 1508
f 1508 1506 1507
f 1509 1510 1512
f 1512 1510 1511
o item_92b0f140_1067604
v -20.813670 24.100004 -25.742316
v -21.374170 24.100004 -34.163664
v -21.424070 24.100004 -34.160364
v -20.863570 24.100004 -25.739016
v -21.424070 24.049996 -34.160364
v -21.374170 24.049996 -34.163664
v -20.813670 24.049996 -25.742316
v -20.863570 24.049996 -25.739016
v -21.424070 24.100004 -34.160364
v -21.374170 24.100004 -34.163664
v -21.374170 24.049996 -34.163664
v -21.424070 24.049996 -34.160364
v -20.863570 24.100004 -25.739016
v -21.424070 24.100004 -34.160364
v -21.424070 24.049996 -34.160364
v -20.863570 24.049996 -25.739016
v -20.813670 24.100004 -25.742316
v -20.863570 24.100004 -25.739016
v -20.863570 24.049996 -25.739016
v -20.813670 24.049996 -25.742316
v -21.374170 24.100004 -34.163664
v -20.813670 24.100004 -25.742316
v -20.813670 24.049996 -25.742316
v -21.374170 24.049996 -34.163664
f 1513 1514 1516
f 1516 1514 1515
f 1517 1518 1520
f 1520 1518 1519
f 1521 1522 1524
f 1524 1522 1523
f 1525 1526 1528
f 1528 1526 1527
f 1529 1530 1532
f 1532 1530 1531
f 1533 1534 1536
f 1536 1534 1535
o item_92b0f140_1131794
v -3.545315 23.890000 -38.586995
v -3.408575 23.890000 -38.248575
v -3.362225 23.890000 -38.267325
v -3.498965 23.890000 -38.605745
v -3.362225 23.840000 -38.267325
v -3.408575 23.840000 -38.248575
v -3.545315 23.840000 -38.586995
v -3.498965 23.840000 -38.605745
v -3.362225 23.890000 -38.267325
v -3.408575 23.890000 -38.248575
v -3.408575 23.840000 -38.248575
v -3.362225 23.840000 -38.267325
v -3.498965 23.890000 -38.605745
v -3.362225 23.890000 -38.267325
v -3.362225 23.840000 -38.267325
v -3.498965 23.840000 -38.605745
v -3.545315 23.890000 -38.586995
v -3.498965 23.890000 -38.605745
v -3.498965 23.840000 -38.605745
v -3.545315 23.840000 -38.586995
v -3.408575 23.890000 -38.248575
v -3.545315 23.890000 -38.586995
v -3.545315 23.840000 -38.586995
v -3.408575 23.840000 -38.248575
f 1537 1538 1540
f 1540 1538 1539
f 1541 1542 1544
f 1544 1542 1543
f 1545 1546 1548
f 1548 1546 1547
f 1549 1550 1552
f 1552 1550 1551
f 1553 1554 1556
f 1556 1554 1555
f 1557 1558 1560
f 1560 1558 1559
o item_92b0f140_1131720
v -4.144275 23.900000 -40.076055
v -4.007535 23.900000 -39.737635
v -3.961185 23.900000 -39.756385
v -4.097925 23.900000 -40.094805
v -3.961185 23.850000 -39.756385
v -4.007535 23.850000 -39.737635
v -4.144275 23.850000 -40.076055
v -4.097925 23.850000 -40.094805
v -3.961185 23.900000 -39.756385
v -4.007535 23.900000 -39.737635
v -4.007535 23.850000 -39.737635
v -3.961185 23.850000 -39.756385
v -4.097925 23.900000 -40.094805
v -3.961185 23.900000 -39.756385
v -3.961185 23.850000 -39.756385
v -4.097925 23.850000 -40.094805
v -4.144275 23.900000 -40.076055
v -4.097925 23.900000 -40.094805
v -4.097925 23.850000 -40.094805
v -4.144275 23.850000 -40.076055
v -4.007535 23.900000 -39.737635
v -4.144275 23.900000 -40.076055
v -4.144275 23.850000 -40.076055
v -4.007535 23.850000 -39.737635
f 1561 1562 1564
f 1564 1562 1563
f 1565 1566 1568
f 1568 1566 1567
f 1569 1570 1572
f 1572 1570 1571
f 1573 1574 1576
f 1576 1574 1575
f 1577 1578 1580
f 1580 1578 1579
f 1581 1582 1584
f 1584 1582 1583
o item_92b0f140_1131544
v -4.290857 23.890000 -40.572290
v -5.950513 23.890000 -39.901700
v -5.931763 23.890000 -39.855350
v -4.272107 23.890000 -40.525940
v -5.931763 23.840000 -39.855350
v -5.950513 23.840000 -39.901700
v -4.290857 23.840000 -40.572290
v -4.272107 23.840000 -40.525940
v -5.931763 23.890000 -39.855350
v -5.950513 23.890000 -39.901700
v -5.950513 23.840000 -39.901700
v -5.931763 23.840000 -39.855350
v -4.272107 23.890000 -40.525940
v -5.931763 23.890000 -39.855350
v -5.931763 23.840000 -39.855350
v -4.272107 23.840000 -40.525940
v -4.290857 23.890000 -40.572290
v -4.272107 23.890000 -40.525940
v -4.272107 23.840000 -40.525940
v -4.290857 23.840000 -40.572290
v -5.950513 23.890000 -39.901700
v -4.290857 23.890000 -40.572290
v -4.290857 23.840000 -40.572290
v -5.950513 23.840000 -39.901700
f 1585 1586 1588
f 1588 1586 1587
f 1589 1590 1592
f 1592 1590 1591
f 1593 1594 1596
f 1596 1594 1595
f 1597 1598 1600
f 1600 1598 1599
f 1601 1602 1604
f 1604 1602 1603
f 1605 1606 1608
f 1608 1606 1607
o item_92b0f140_1131368
v -5.950496 23.890000 -39.901717
v -11.740734 23.890000 -37.562153
v -11.721984 23.890000 -37.515803
v -5.931746 23.890000 -39.855367
v -11.721984 23.840000 -37.515803
v -11.740734 23.840000 -37.562153
v -5.950496 23.840000 -39.901717
v -5.931746 23.840000 -39.855367
v -11.721984 23.890000 -37.515803
v -11.740734 23.890000 -37.562153
v -11.740734 23.840000 -37.562153
v -11.721984 23.840000 -37.515803
v -5.931746 23.890000 -39.855367
v -11.721984 23.890000 -37.515803
v -11.721984 23.840000 -37.515803
v -5.931746 23.840000 -39.855367
v -5.950496 23.890000 -39.901717
v -5.931746 23.890000 -39.855367
v -5.931746 23.840000 -39.855367
v -5.950496 23.840000 -39.901717
v -11.740734 23.890000 -37.562153
v -5.950496 23.890000 -39.901717
v -5.950496 23.840000 -39.901717
v -11.740734 23.840000 -37.562153
f 1609 1610 1612
f 1612 1610 1611
f 1613 1614 1616
f 1616 1614 1615
f 1617 1618 1620
f 1620 1618 1619
f 1621 1622 1624
f 1624 1622 1623
f 1625 1626 1628
f 1628 1626 1627
f 1629 1630 1632
f 1632 1630 1631
o item_92b0f140_1131320
v -11.740882 24.235780 -37.562576
v -14.693951 24.235780 -36.369379
v -14.675201 24.234880 -36.323029
v -11.722132 24.234880 -37.516226
v -14.675538 24.184880 -36.323864
v -14.694288 24.185780 -36.370214
v -11.741219 24.185780 -37.563411
v -11.722469 24.184880 -37.517061
v -14.675201 24.234880 -36.323029
v -14.693951 24.235780 -36.369379
v -14.694288 24.185780 -36.370214
v -14.675538 24.184880 -36.323864
v -11.722132 24.234880 -37.516226
v -14.675201 24.234880 -36.323029
v -14.675538 24.184880 -36.323864
v -11.722469 24.184880 -37.517061
v -11.740882 24.235780 -37.562576
v -11.722132 24.234880 -37.516226
v -11.722469 24.184880 -37.517061
v -11.741219 24.185780 -37.563411
v -14.693951 24.235780 -36.369379
v -11.740882 24.235780 -37.562576
v -11.741219 24.185780 -37.563411
v -14.694288 24.185780 -36.370214
f 1633 1634 1636
f 1636 1634 1635
f 1637 1638 1640
f 1640 1638 1639
f 1641 1642 1644
f 1644 1642 1643
f 1645 1646 1648
f 1648 1646 1647
f 1649 1650 1652
f 1652 1650 1651
f 1653 1654 1656
f 1656 1654 1655
o item_92b0f140_1067557
v -21.374936 24.100000 -34.165548
v 13.672466 24.100000 -48.326562
v 13.653716 24.100000 -48.372912
v -21.393686 24.100000 -34.211898
v 13.653716 24.050000 -48.372912
v 13.672466 24.050000 -48.326562
v -21.374936 24.050000 -34.165548
v -21.393686 24.050000 -34.211898
v 13.653716 24.100000 -48.372912
v 13.672466 24.100000 -48.326562
v 13.672466 24.050000 -48.326562
v 13.653716 24.050000 -48.372912
v -21.393686 24.100000 -34.211898
v 13.653716 24.100000 -48.372912
v 13.653716 24.050000 -48.372912
v -21.393686 24.050000 -34.211898
v -21.374936 24.100000 -34.165548
v -21.393686 24.100000 -34.211898
v -21.393686 24.050000 -34.211898
v -21.374936 24.050000 -34.165548
v 13.672466 24.100000 -48.326562
v -21.374936 24.100000 -34.165548
v -21.374936 24.050000 -34.165548
v 13.672466 24.050000 -48.326562
f 1657 1658 1660
f 1660 1658 1659
f 1661 1662 1664
f 1664 1662 1663
f 1665 1666 1668
f 1668 1666 1667
f 1669 1670 1672
f 1672 1670 1671
f 1673 1674 1676
f 1676 1674 1675
f 1677 1678 1680
f 1680 1678 1679
o item_92b0f140_1067334
v -27.165825 24.100000 -37.768495
v 17.338815 24.100000 -55.750735
v 17.320065 24.100000 -55.797085
v -27.184575 24.100000 -37.814845
v 17.320065 24.050000 -55.797085
v 17.338815 24.050000 -55.750735
v -27.165825 24.050000 -37.768495
v -27.184575 24.050000 -37.814845
v 17.320065 24.100000 -55.797085
v 17.338815 24.100000 -55.750735
v 17.338815 24.050000 -55.750735
v 17.320065 24.050000 -55.797085
v -27.184575 24.100000 -37.814845
v 17.320065 24.100000 -55.797085
v 17.320065 24.050000 -55.797085
v -27.184575 24.050000 -37.814845
v -27.165825 24.100000 -37.768495
v -27.184575 24.100000 -37.814845
v -27.184575 24.050000 -37.814845
v -27.165825 24.050000 -37.768495
v 17.338815 24.100000 -55.750735
v -27.165825 24.100000 -37.768495
v -27.165825 24.050000 -37.768495
v 17.338815 24.050000 -55.750735
f 1681 1682 1684
f 1684 1682 1683
f 1685 1686 1688
f 1688 1686 1687
f 1689 1690 1692
f 1692 1690 1691
f 1693 1694 1696
f 1696 1694 1695
f 1697 1698 1700
f 1700 1698 1699
f 1701 1702 1704
f 1704 1702 1703
o item_92b0f140_1132124
v -17.470036 23.890000 -34.150893
v -19.140254 23.890000 -33.476037
v -19.121504 23.890000 -33.429687
v -17.451286 23.890000 -34.104543
v -19.121504 23.840000 -33.429687
v -19.140254 23.840000 -33.476037
v -17.470036 23.840000 -34.150893
v -17.451286 23.840000 -34.104543
v -19.121504 23.890000 -33.429687
v -19.140254 23.890000 -33.476037
v -19.140254 23.840000 -33.476037
v -19.121504 23.840000 -33.429687
v -17.451286 23.890000 -34.104543
v -19.121504 23.890000 -33.429687
v -19.121504 23.840000 -33.429687
v -17.451286 23.840000 -34.104543
v -17.470036 23.890000 -34.150893
v -17.451286 23.890000 -34.104543
v -17.451286 23.840000 -34.104543
v -17.470036 23.840000 -34.150893
v -19.140254 23.890000 -33.476037
v -17.470036 23.890000 -34.150893
v -17.470036 23.840000 -34.150893
v -19.140254 23.840000 -33.476037
f 1705 1706 1708
f 1708 1706 1707
f 1709 1710 1712
f 1712 1710 1711
f 1713 1714 1716
f 1716 1714 1715
f 1717 1718 1720
f 1720 1718 1719
f 1721 1722 1724
f 1724 1722 1723
f 1725 1726 1728
f 1728 1726 1727
o item_92b0f140_1132077
v -16.658031 23.890000 -32.142865
v -17.449959 23.890000 -34.102825
v -17.496309 23.890000 -34.084075
v -16.704381 23.890000 -32.124115
v -17.496309 23.840000 -34.084075
v -17.449959 23.840000 -34.102825
v -16.658031 23.840000 -32.142865
v -16.704381 23.840000 -32.124115
v -17.496309 23.890000 -34.084075
v -17.449959 23.890000 -34.102825
v -17.449959 23.840000 -34.102825
v -17.496309 23.840000 -34.084075
v -16.704381 23.890000 -32.124115
v -17.496309 23.890000 -34.084075
v -17.496309 23.840000 -34.084075
v -16.704381 23.840000 -32.124115
v -16.658031 23.890000 -32.142865
v -16.704381 23.890000 -32.124115
v -16.704381 23.840000 -32.124115
v -16.658031 23.840000 -32.142865
v -17.449959 23.890000 -34.102825
v -16.658031 23.890000 -32.142865
v -16.658031 23.840000 -32.142865
v -17.449959 23.840000 -34.102825
f 1729 1730 1732
f 1732 1730 1731
f 1733 1734 1736
f 1736 1734 1735
f 1737 1738 1740
f 1740 1738 1739
f 1741 1742 1744
f 1744 1742 1743
f 1745 1746 1748
f 1748 1746 1747
f 1749 1750 1752
f 1752 1750 1751
o item_92b0f140_1131276
v -14.693772 23.890000 -36.368984
v -19.631978 23.890000 -34.373686
v -19.613228 23.890000 -34.327336
v -14.675022 23.890000 -36.322634
v -19.613228 23.840000 -34.327336
v -19.631978 23.840000 -34.373686
v -14.693772 23.840000 -36.368984
v -14.675022 23.840000 -36.322634
v -19.613228 23.890000 -34.327336
v -19.631978 23.890000 -34.373686
v -19.631978 23.840000 -34.373686
v -19.613228 23.840000 -34.327336
v -14.675022 23.890000 -36.322634
v -19.613228 23.890000 -34.327336
v -19.613228 23.840000 -34.327336
v -14.675022 23.840000 -36.322634
v -14.693772 23.890000 -36.368984
v -14.675022 23.890000 -36.322634
v -14.675022 23.840000 -36.322634
v -14.693772 23.840000 -36.368984
v -19.631978 23.890000 -34.373686
v -14.693772 23.890000 -36.368984
v -14.693772 23.840000 -36.368984
v -19.631978 23.840000 -34.373686
f 1753 1754 1756
f 1756 1754 1755
f 1757 1758 1760
f 1760 1758 1759
f 1761 1762 1764
f 1764 1762 1763
f 1765 1766 1768
f 1768 1766 1767
f 1769 1770 1772
f 1772 1770 1771
f 1773 1774 1776
f 1776 1774 1775
o item_92b0f140_1131497
v -19.613228 23.890000 -34.327359
v -19.680662 23.890000 -34.494251
v -19.727012 23.890000 -34.475501
v -19.659578 23.890000 -34.308609
v -19.727012 23.840000 -34.475501
v -19.680662 23.840000 -34.494251
v -19.613228 23.840000 -34.327359
v -19.659578 23.840000 -34.308609
v -19.727012 23.890000 -34.475501
v -19.680662 23.890000 -34.494251
v -19.680662 23.840000 -34.494251
v -19.727012 23.840000 -34.475501
v -19.659578 23.890000 -34.308609
v -19.727012 23.890000 -34.475501
v -19.727012 23.840000 -34.475501
v -19.659578 23.840000 -34.308609
v -19.613228 23.890000 -34.327359
v -19.659578 23.890000 -34.308609
v -19.659578 23.840000 -34.308609
v -19.613228 23.840000 -34.327359
v -19.680662 23.890000 -34.494251
v -19.613228 23.890000 -34.327359
v -19.613228 23.840000 -34.327359
v -19.680662 23.840000 -34.494251
f 1777 1778 1780
f 1780 1778 1779
f 1781 1782 1784
f 1784 1782 1783
f 1785 1786 1788
f 1788 1786 1787
f 1789 1790 1792
f 1792 1790 1791
f 1793 1794 1796
f 1796 1794 1795
f 1797 1798 1800
f 1800 1798 1799
o item_92b0f140_1131936
v -20.095087 23.890000 -33.378746
v -20.968343 23.890000 -33.025904
v -20.949593 23.890000 -32.979554
v -20.076337 23.890000 -33.332396
v -20.949593 23.840000 -32.979554
v -20.968343 23.840000 -33.025904
v -20.095087 23.840000 -33.378746
v -20.076337 23.840000 -33.332396
v -20.949593 23.890000 -32.979554
v -20.968343 23.890000 -33.025904
v -20.968343 23.840000 -33.025904
v -20.949593 23.840000 -32.979554
v -20.076337 23.890000 -33.332396
v -20.949593 23.890000 -32.979554
v -20.949593 23.840000 -32.979554
v -20.076337 23.840000 -33.332396
v -20.095087 23.890000 -33.378746
v -20.076337 23.890000 -33.332396
v -20.076337 23.840000 -33.332396
v -20.095087 23.840000 -33.378746
v -20.968343 23.890000 -33.025904
v -20.095087 23.890000 -33.378746
v -20.095087 23.840000 -33.378746
v -20.968343 23.840000 -33.025904
f 1801 1802 1804
f 1804 1802 1803
f 1805 1806 1808
f 1808 1806 1807
f 1809 1810 1812
f 1812 1810 1811
f 1813 1814 1816
f 1816 1814 1815
f 1817 1818 1820
f 1820 1818 1819
f 1821 1822 1824
f 1824 1822 1823
o item_92b0f140_1131462
v -19.699389 23.890000 -34.540591
v -21.034241 23.890000 -34.001239
v -21.015491 23.890000 -33.954889
v -19.680639 23.890000 -34.494241
v -21.015491 23.840000 -33.954889
v -21.034241 23.840000 -34.001239
v -19.699389 23.840000 -34.540591
v -19.680639 23.840000 -34.494241
v -21.015491 23.890000 -33.954889
v -21.034241 23.890000 -34.001239
v -21.034241 23.840000 -34.001239
v -21.015491 23.840000 -33.954889
v -19.680639 23.890000 -34.494241
v -21.015491 23.890000 -33.954889
v -21.015491 23.840000 -33.954889
v -19.680639 23.840000 -34.494241
v -19.699389 23.890000 -34.540591
v -19.680639 23.890000 -34.494241
v -19.680639 23.840000 -34.494241
v -19.699389 23.840000 -34.540591
v -21.034241 23.890000 -34.001239
v -19.699389 23.890000 -34.540591
v -19.699389 23.840000 -34.540591
v -21.034241 23.840000 -34.001239
f 1825 1826 1828
f 1828 1826 1827
f 1829 1830 1832
f 1832 1830 1831
f 1833 1834 1836
f 1836 1834 1835
f 1837 1838 1840
f 1840 1838 1839
f 1841 1842 1844
f 1844 1842 1843
f 1845 1846 1848
f 1848 1846 1847
o item_92b0f140_1131415
v -20.963196 23.890004 -32.958110
v -21.030924 23.890004 -33.975710
v -21.080824 23.890004 -33.972410
v -21.013096 23.890004 -32.954810
v -21.080824 23.839996 -33.972410
v -21.030924 23.839996 -33.975710
v -20.963196 23.839996 -32.958110
v -21.013096 23.839996 -32.954810
v -21.080824 23.890004 -33.972410
v -21.030924 23.890004 -33.975710
v -21.030924 23.839996 -33.975710
v -21.080824 23.839996 -33.972410
v -21.013096 23.890004 -32.954810
v -21.080824 23.890004 -33.972410
v -21.080824 23.839996 -33.972410
v -21.013096 23.839996 -32.954810
v -20.963196 23.890004 -32.958110
v -21.013096 23.890004 -32.954810
v -21.013096 23.839996 -32.954810
v -20.963196 23.839996 -32.958110
v -21.030924 23.890004 -33.975710
v -20.963196 23.890004 -32.958110
v -20.963196 23.839996 -32.958110
v -21.030924 23.839996 -33.975710
f 1849 1850 1852
f 1852 1850 1851
f 1853 1854 1856
f 1856 1854 1855
f 1857 1858 1860
f 1860 1858 1859
f 1861 1862 1864
f 1864 1862 1863
f 1865 1866 1868
f 1868 1866 1867
f 1869 1870 1872
f 1872 1870 1871
