# DIMKO.app — selection export
# Generated: 2026-07-31T07:54:40.932Z
o item_958c4ea6_824082
v -16.210000 20.666020 11.630001
v -15.460000 20.628720 11.630001
v -15.460000 20.551720 11.630001
v -15.485000 20.576720 11.630001
v -15.482172 20.579548 11.630001
v -15.464000 20.561377 11.630001
v -15.464000 20.624914 11.630001
v -16.206000 20.661816 11.630001
v -16.206000 20.598677 11.630001
v -16.187828 20.616848 11.630001
v -16.185000 20.614020 11.630001
v -16.210000 20.589020 11.630001
v -16.210000 20.589020 37.579999
v -16.185000 20.614020 37.579999
v -16.187828 20.616848 37.579999
v -16.206000 20.598677 37.579999
v -16.206000 20.661816 37.579999
v -15.464000 20.624914 37.579999
v -15.464000 20.561377 37.579999
v -15.482172 20.579548 37.579999
v -15.485000 20.576720 37.579999
v -15.460000 20.551720 37.579999
v -15.460000 20.628720 37.579999
v -16.210000 20.666020 37.579999
v -15.460000 20.551720 11.630001
v -15.460000 20.628720 11.630001
v -15.460000 20.628720 37.579999
v -15.460000 20.551720 37.579999
v -15.485000 20.576720 11.630001
v -15.460000 20.551720 11.630001
v -15.460000 20.551720 37.579999
v -15.485000 20.576720 37.579999
v -15.482172 20.579548 11.630001
v -15.485000 20.576720 11.630001
v -15.485000 20.576720 37.579999
v -15.482172 20.579548 37.579999
v -15.464000 20.561377 11.630001
v -15.482172 20.579548 11.630001
v -15.482172 20.579548 37.579999
v -15.464000 20.561377 37.579999
v -15.464000 20.624914 11.630001
v -15.464000 20.561377 11.630001
v -15.464000 20.561377 37.579999
v -15.464000 20.624914 37.579999
v -16.206000 20.661816 11.630001
v -15.464000 20.624914 11.630001
v -15.464000 20.624914 37.579999
v -16.206000 20.661816 37.579999
v -16.206000 20.598677 11.630001
v -16.206000 20.661816 11.630001
v -16.206000 20.661816 37.579999
v -16.206000 20.598677 37.579999
v -16.187828 20.616848 11.630001
v -16.206000 20.598677 11.630001
v -16.206000 20.598677 37.579999
v -16.187828 20.616848 37.579999
v -16.185000 20.614020 11.630001
v -16.187828 20.616848 11.630001
v -16.187828 20.616848 37.579999
v -16.185000 20.614020 37.579999
v -16.210000 20.589020 11.630001
v -16.185000 20.614020 11.630001
v -16.185000 20.614020 37.579999
v -16.210000 20.589020 37.579999
v -16.210000 20.666020 11.630001
v -16.210000 20.589020 11.630001
v -16.210000 20.589020 37.579999
v -16.210000 20.666020 37.579999
v -15.460000 20.628720 11.630001
v -16.210000 20.666020 11.630001
v -16.210000 20.666020 37.579999
v -15.460000 20.628720 37.579999
f 3 4 5
f 9 10 11
f 3 5 6
f 9 11 12
f 2 3 6
f 8 9 12
f 2 6 7
f 8 12 1
f 1 2 7
f 7 8 1
f 13 14 15
f 19 20 21
f 13 15 16
f 19 21 22
f 24 13 16
f 18 19 22
f 24 16 17
f 18 22 23
f 23 24 17
f 17 18 23
f 25 26 28
f 28 26 27
f 29 30 32
f 32 30 31
f 33 34 36
f 36 34 35
f 37 38 40
f 40 38 39
f 41 42 44
f 44 42 43
f 45 46 48
f 48 46 47
f 49 50 52
f 52 50 51
f 53 54 56
f 56 54 55
f 57 58 60
f 60 58 59
f 61 62 64
f 64 62 63
f 65 66 68
f 68 66 67
f 69 70 72
f 72 70 71
o item_958c4ea6_1328051
v -16.200000 12.857998 22.660000
v -16.200000 12.818902 23.410000
v -16.200000 12.741902 23.410000
v -16.200000 12.766902 23.385000
v -16.200000 12.769730 23.387828
v -16.200000 12.751559 23.406000
v -16.200000 12.815105 23.406000
v -16.200000 12.853784 22.664000
v -16.200000 12.790655 22.664000
v -16.200000 12.808827 22.682172
v -16.200000 12.805998 22.685000
v -16.200000 12.780998 22.660000
v -23.140000 12.780998 22.660000
v -23.140000 12.805998 22.685000
v -23.140000 12.808827 22.682172
v -23.140000 12.790655 22.664000
v -23.140000 12.853784 22.664000
v -23.140000 12.815105 23.406000
v -23.140000 12.751559 23.406000
v -23.140000 12.769730 23.387828
v -23.140000 12.766902 23.385000
v -23.140000 12.741902 23.410000
v -23.140000 12.818902 23.410000
v -23.140000 12.857998 22.660000
v -16.200000 12.741902 23.410000
v -16.200000 12.818902 23.410000
v -23.140000 12.818902 23.410000
v -23.140000 12.741902 23.410000
v -16.200000 12.766902 23.385000
v -16.200000 12.741902 23.410000
v -23.140000 12.741902 23.410000
v -23.140000 12.766902 23.385000
v -16.200000 12.769730 23.387828
v -16.200000 12.766902 23.385000
v -23.140000 12.766902 23.385000
v -23.140000 12.769730 23.387828
v -16.200000 12.751559 23.406000
v -16.200000 12.769730 23.387828
v -23.140000 12.769730 23.387828
v -23.140000 12.751559 23.406000
v -16.200000 12.815105 23.406000
v -16.200000 12.751559 23.406000
v -23.140000 12.751559 23.406000
v -23.140000 12.815105 23.406000
v -16.200000 12.853784 22.664000
v -16.200000 12.815105 23.406000
v -23.140000 12.815105 23.406000
v -23.140000 12.853784 22.664000
v -16.200000 12.790655 22.664000
v -16.200000 12.853784 22.664000
v -23.140000 12.853784 22.664000
v -23.140000 12.790655 22.664000
v -16.200000 12.808827 22.682172
v -16.200000 12.790655 22.664000
v -23.140000 12.790655 22.664000
v -23.140000 12.808827 22.682172
v -16.200000 12.805998 22.685000
v -16.200000 12.808827 22.682172
v -23.140000 12.808827 22.682172
v -23.140000 12.805998 22.685000
v -16.200000 12.780998 22.660000
v -16.200000 12.805998 22.685000
v -23.140000 12.805998 22.685000
v -23.140000 12.780998 22.660000
v -16.200000 12.857998 22.660000
v -16.200000 12.780998 22.660000
v -23.140000 12.780998 22.660000
v -23.140000 12.857998 22.660000
v -16.200000 12.818902 23.410000
v -16.200000 12.857998 22.660000
v -23.140000 12.857998 22.660000
v -23.140000 12.818902 23.410000
f 75 76 77
f 81 82 83
f 75 77 78
f 81 83 84
f 74 75 78
f 80 81 84
f 74 78 79
f 80 84 73
f 73 74 79
f 79 80 73
f 85 86 87
f 91 92 93
f 85 87 88
f 91 93 94
f 96 85 88
f 90 91 94
f 96 88 89
f 90 94 95
f 95 96 89
f 89 90 95
f 97 98 100
f 100 98 99
f 101 102 104
f 104 102 103
f 105 106 108
f 108 106 107
f 109 110 112
f 112 110 111
f 113 114 116
f 116 114 115
f 117 118 120
f 120 118 119
f 121 122 124
f 124 122 123
f 125 126 128
f 128 126 127
f 129 130 132
f 132 130 131
f 133 134 136
f 136 134 135
f 137 138 140
f 140 138 139
f 141 142 144
f 144 142 143
o item_958c4ea6_1122164
v -24.140000 12.857998 22.660000
v -24.140000 12.818902 23.410000
v -24.140000 12.741902 23.410000
v -24.140000 12.766902 23.385000
v -24.140000 12.769730 23.387828
v -24.140000 12.751559 23.406000
v -24.140000 12.815105 23.406000
v -24.140000 12.853784 22.664000
v -24.140000 12.790655 22.664000
v -24.140000 12.808827 22.682172
v -24.140000 12.805998 22.685000
v -24.140000 12.780998 22.660000
v -27.240000 12.780998 22.660000
v -27.240000 12.805998 22.685000
v -27.240000 12.808827 22.682172
v -27.240000 12.790655 22.664000
v -27.240000 12.853784 22.664000
v -27.240000 12.815105 23.406000
v -27.240000 12.751559 23.406000
v -27.240000 12.769730 23.387828
v -27.240000 12.766902 23.385000
v -27.240000 12.741902 23.410000
v -27.240000 12.818902 23.410000
v -27.240000 12.857998 22.660000
v -24.140000 12.741902 23.410000
v -24.140000 12.818902 23.410000
v -27.240000 12.818902 23.410000
v -27.240000 12.741902 23.410000
v -24.140000 12.766902 23.385000
v -24.140000 12.741902 23.410000
v -27.240000 12.741902 23.410000
v -27.240000 12.766902 23.385000
v -24.140000 12.769730 23.387828
v -24.140000 12.766902 23.385000
v -27.240000 12.766902 23.385000
v -27.240000 12.769730 23.387828
v -24.140000 12.751559 23.406000
v -24.140000 12.769730 23.387828
v -27.240000 12.769730 23.387828
v -27.240000 12.751559 23.406000
v -24.140000 12.815105 23.406000
v -24.140000 12.751559 23.406000
v -27.240000 12.751559 23.406000
v -27.240000 12.815105 23.406000
v -24.140000 12.853784 22.664000
v -24.140000 12.815105 23.406000
v -27.240000 12.815105 23.406000
v -27.240000 12.853784 22.664000
v -24.140000 12.790655 22.664000
v -24.140000 12.853784 22.664000
v -27.240000 12.853784 22.664000
v -27.240000 12.790655 22.664000
v -24.140000 12.808827 22.682172
v -24.140000 12.790655 22.664000
v -27.240000 12.790655 22.664000
v -27.240000 12.808827 22.682172
v -24.140000 12.805998 22.685000
v -24.140000 12.808827 22.682172
v -27.240000 12.808827 22.682172
v -27.240000 12.805998 22.685000
v -24.140000 12.780998 22.660000
v -24.140000 12.805998 22.685000
v -27.240000 12.805998 22.685000
v -27.240000 12.780998 22.660000
v -24.140000 12.857998 22.660000
v -24.140000 12.780998 22.660000
v -27.240000 12.780998 22.660000
v -27.240000 12.857998 22.660000
v -24.140000 12.818902 23.410000
v -24.140000 12.857998 22.660000
v -27.240000 12.857998 22.660000
v -27.240000 12.818902 23.410000
f 147 148 149
f 153 154 155
f 147 149 150
f 153 155 156
f 146 147 150
f 152 153 156
f 146 150 151
f 152 156 145
f 145 146 151
f 151 152 145
f 157 158 159
f 163 164 165
f 157 159 160
f 163 165 166
f 168 157 160
f 162 163 166
f 168 160 161
f 162 166 167
f 167 168 161
f 161 162 167
f 169 170 172
f 172 170 171
f 173 174 176
f 176 174 175
f 177 178 180
f 180 178 179
f 181 182 184
f 184 182 183
f 185 186 188
f 188 186 187
f 189 190 192
f 192 190 191
f 193 194 196
f 196 194 195
f 197 198 200
f 200 198 199
f 201 202 204
f 204 202 203
f 205 206 208
f 208 206 207
f 209 210 212
f 212 210 211
f 213 214 216
f 216 214 215
o item_958c4ea6_1327854
v -16.185000 20.614020 9.130000
v -16.187828 20.616848 9.130000
v -16.206000 20.598677 9.130000
v -16.206000 20.661816 9.130000
v -15.464000 20.624914 9.130000
v -15.464000 20.561377 9.130000
v -15.482172 20.579548 9.130000
v -15.485000 20.576720 9.130000
v -15.460000 20.551720 9.130000
v -15.460000 20.628720 9.130000
v -16.210000 20.666020 9.130000
v -16.210000 20.589020 9.130000
v -16.185000 20.614020 -7.965000
v -16.210000 20.589020 -7.990000
v -16.210000 20.666020 -7.990000
v -15.460000 20.628720 -7.240000
v -15.460000 20.551720 -7.240000
v -15.485000 20.576720 -7.265000
v -15.482172 20.579548 -7.262171
v -15.464000 20.561377 -7.244000
v -15.464000 20.624914 -7.244000
v -16.206000 20.661816 -7.986000
v -16.206000 20.598677 -7.986000
v -16.187828 20.616848 -7.967828
v -16.210000 20.666020 9.130000
v -15.460000 20.628720 9.130000
v -15.460000 20.628720 -7.240000
v -16.210000 20.666020 -7.990000
v -16.206000 20.598677 -7.986000
v -16.206000 20.661816 -7.986000
v -16.206000 20.661816 9.130000
v -16.206000 20.598677 9.130000
v -16.210000 20.589020 -7.990000
v -16.185000 20.614020 -7.965000
v -16.185000 20.614020 9.130000
v -16.210000 20.589020 9.130000
v -16.210000 20.589020 9.130000
v -16.210000 20.666020 9.130000
v -16.210000 20.666020 -7.990000
v -16.210000 20.589020 -7.990000
v -16.206000 20.661816 -7.986000
v -15.464000 20.624914 -7.244000
v -15.464000 20.624914 9.130000
v -16.206000 20.661816 9.130000
v -15.464000 20.624914 -7.244000
v -15.464000 20.561377 -7.244000
v -15.464000 20.561377 9.130000
v -15.464000 20.624914 9.130000
v -15.482172 20.579548 9.130000
v -15.464000 20.561377 9.130000
v -15.464000 20.561377 -7.244000
v -15.482172 20.579548 -7.262171
v -15.485000 20.576720 9.130000
v -15.482172 20.579548 9.130000
v -15.482172 20.579548 -7.262171
v -15.485000 20.576720 -7.265000
v -15.485000 20.576720 -7.265000
v -15.460000 20.551720 -7.240000
v -15.460000 20.551720 9.130000
v -15.485000 20.576720 9.130000
v -15.460000 20.551720 -7.240000
v -15.460000 20.628720 -7.240000
v -15.460000 20.628720 9.130000
v -15.460000 20.551720 9.130000
v -16.187828 20.616848 9.130000
v -16.185000 20.614020 9.130000
v -16.185000 20.614020 -7.965000
v -16.187828 20.616848 -7.967828
v -16.206000 20.598677 9.130000
v -16.187828 20.616848 9.130000
v -16.187828 20.616848 -7.967828
v -16.206000 20.598677 -7.986000
f 228 217 218
f 222 223 224
f 228 218 219
f 222 224 225
f 227 228 219
f 221 222 225
f 227 219 220
f 221 225 226
f 226 227 220
f 220 221 226
f 239 240 229
f 233 234 235
f 239 229 230
f 233 235 236
f 238 239 230
f 232 233 236
f 238 230 231
f 232 236 237
f 237 238 231
f 231 232 237
f 241 242 244
f 244 242 243
f 245 246 248
f 248 246 247
f 249 250 252
f 252 250 251
f 253 254 256
f 256 254 255
f 257 258 260
f 260 258 259
f 261 262 264
f 264 262 263
f 265 266 268
f 268 266 267
f 269 270 272
f 272 270 271
f 273 274 276
f 276 274 275
f 277 278 280
f 280 278 279
f 281 282 284
f 284 282 283
f 285 286 288
f 288 286 287
o item_958c4ea6_1328101
v -28.240000 12.857998 22.660000
v -28.240000 12.818902 23.410000
v -28.240000 12.741902 23.410000
v -28.240000 12.766902 23.385000
v -28.240000 12.769730 23.387828
v -28.240000 12.751559 23.406000
v -28.240000 12.815105 23.406000
v -28.240000 12.853784 22.664000
v -28.240000 12.790655 22.664000
v -28.240000 12.808827 22.682172
v -28.240000 12.805998 22.685000
v -28.240000 12.780998 22.660000
v -29.865000 12.780998 22.660000
v -29.865000 12.805998 22.685000
v -29.865000 12.808827 22.682172
v -29.865000 12.790655 22.664000
v -29.865000 12.853784 22.664000
v -29.865000 12.815105 23.406000
v -29.865000 12.751559 23.406000
v -29.865000 12.769730 23.387828
v -29.865000 12.766902 23.385000
v -29.865000 12.741902 23.410000
v -29.865000 12.818902 23.410000
v -29.865000 12.857998 22.660000
v -28.240000 12.741902 23.410000
v -28.240000 12.818902 23.410000
v -29.865000 12.818902 23.410000
v -29.865000 12.741902 23.410000
v -28.240000 12.766902 23.385000
v -28.240000 12.741902 23.410000
v -29.865000 12.741902 23.410000
v -29.865000 12.766902 23.385000
v -28.240000 12.769730 23.387828
v -28.240000 12.766902 23.385000
v -29.865000 12.766902 23.385000
v -29.865000 12.769730 23.387828
v -28.240000 12.751559 23.406000
v -28.240000 12.769730 23.387828
v -29.865000 12.769730 23.387828
v -29.865000 12.751559 23.406000
v -28.240000 12.815105 23.406000
v -28.240000 12.751559 23.406000
v -29.865000 12.751559 23.406000
v -29.865000 12.815105 23.406000
v -28.240000 12.853784 22.664000
v -28.240000 12.815105 23.406000
v -29.865000 12.815105 23.406000
v -29.865000 12.853784 22.664000
v -28.240000 12.790655 22.664000
v -28.240000 12.853784 22.664000
v -29.865000 12.853784 22.664000
v -29.865000 12.790655 22.664000
v -28.240000 12.808827 22.682172
v -28.240000 12.790655 22.664000
v -29.865000 12.790655 22.664000
v -29.865000 12.808827 22.682172
v -28.240000 12.805998 22.685000
v -28.240000 12.808827 22.682172
v -29.865000 12.808827 22.682172
v -29.865000 12.805998 22.685000
v -28.240000 12.780998 22.660000
v -28.240000 12.805998 22.685000
v -29.865000 12.805998 22.685000
v -29.865000 12.780998 22.660000
v -28.240000 12.857998 22.660000
v -28.240000 12.780998 22.660000
v -29.865000 12.780998 22.660000
v -29.865000 12.857998 22.660000
v -28.240000 12.818902 23.410000
v -28.240000 12.857998 22.660000
v -29.865000 12.857998 22.660000
v -29.865000 12.818902 23.410000
f 291 292 293
f 297 298 299
f 291 293 294
f 297 299 300
f 290 291 294
f 296 297 300
f 290 294 295
f 296 300 289
f 289 290 295
f 295 296 289
f 301 302 303
f 307 308 309
f 301 303 304
f 307 309 310
f 312 301 304
f 306 307 310
f 312 304 305
f 306 310 311
f 311 312 305
f 305 306 311
f 313 314 316
f 316 314 315
f 317 318 320
f 320 318 319
f 321 322 324
f 324 322 323
f 325 326 328
f 328 326 327
f 329 330 332
f 332 330 331
f 333 334 336
f 336 334 335
f 337 338 340
f 340 338 339
f 341 342 344
f 344 342 343
f 345 346 348
f 348 346 347
f 349 350 352
f 352 350 351
f 353 354 356
f 356 354 355
f 357 358 360
f 360 358 359
o item_958c4ea6_1122653
v -16.184999 20.614020 -7.965000
v -16.187828 20.616848 -7.967828
v -16.205999 20.598677 -7.986000
v -16.205999 20.661816 -7.986000
v -15.463999 20.624914 -7.244000
v -15.463999 20.561377 -7.244000
v -15.482171 20.579548 -7.262172
v -15.484999 20.576720 -7.265000
v -15.459999 20.551720 -7.240000
v -15.459999 20.628720 -7.240000
v -16.209999 20.666020 -7.990000
v -16.209999 20.589020 -7.990000
v 1.859999 20.614020 -7.965000
v 1.859999 20.589020 -7.990000
v 1.859999 20.666020 -7.990000
v 1.859999 20.628720 -7.240000
v 1.859999 20.551720 -7.240000
v 1.859999 20.576720 -7.265000
v 1.859999 20.579548 -7.262172
v 1.859999 20.561377 -7.244000
v 1.859999 20.624914 -7.244000
v 1.859999 20.661816 -7.986000
v 1.859999 20.598677 -7.986000
v 1.859999 20.616848 -7.967828
v 1.859999 20.628720 -7.240000
v 1.859999 20.666020 -7.990000
v -16.209999 20.666020 -7.990000
v -15.459999 20.628720 -7.240000
v -16.205999 20.661816 -7.986000
v -16.205999 20.598677 -7.986000
v 1.859999 20.598677 -7.986000
v 1.859999 20.661816 -7.986000
v -16.184999 20.614020 -7.965000
v -16.209999 20.589020 -7.990000
v 1.859999 20.589020 -7.990000
v 1.859999 20.614020 -7.965000
v 1.859999 20.666020 -7.990000
v 1.859999 20.589020 -7.990000
v -16.209999 20.589020 -7.990000
v -16.209999 20.666020 -7.990000
v -15.463999 20.624914 -7.244000
v -16.205999 20.661816 -7.986000
v 1.859999 20.661816 -7.986000
v 1.859999 20.624914 -7.244000
v 1.859999 20.624914 -7.244000
v 1.859999 20.561377 -7.244000
v -15.463999 20.561377 -7.244000
v -15.463999 20.624914 -7.244000
v 1.859999 20.561377 -7.244000
v 1.859999 20.579548 -7.262172
v -15.482171 20.579548 -7.262172
v -15.463999 20.561377 -7.244000
v 1.859999 20.579548 -7.262172
v 1.859999 20.576720 -7.265000
v -15.484999 20.576720 -7.265000
v -15.482171 20.579548 -7.262172
v -15.459999 20.551720 -7.240000
v -15.484999 20.576720 -7.265000
v 1.859999 20.576720 -7.265000
v 1.859999 20.551720 -7.240000
v -15.459999 20.628720 -7.240000
v -15.459999 20.551720 -7.240000
v 1.859999 20.551720 -7.240000
v 1.859999 20.628720 -7.240000
v 1.859999 20.614020 -7.965000
v 1.859999 20.616848 -7.967828
v -16.187828 20.616848 -7.967828
v -16.184999 20.614020 -7.965000
v 1.859999 20.616848 -7.967828
v 1.859999 20.598677 -7.986000
v -16.205999 20.598677 -7.986000
v -16.187828 20.616848 -7.967828
f 372 361 362
f 366 367 368
f 372 362 363
f 366 368 369
f 371 372 363
f 365 366 369
f 371 363 364
f 365 369 370
f 370 371 364
f 364 365 370
f 383 384 373
f 377 378 379
f 383 373 374
f 377 379 380
f 382 383 374
f 376 377 380
f 382 374 375
f 376 380 381
f 381 382 375
f 375 376 381
f 385 386 388
f 388 386 387
f 389 390 392
f 392 390 391
f 393 394 396
f 396 394 395
f 397 398 400
f 400 398 399
f 401 402 404
f 404 402 403
f 405 406 408
f 408 406 407
f 409 410 412
f 412 410 411
f 413 414 416
f 416 414 415
f 417 418 420
f 420 418 419
f 421 422 424
f 424 422 423
f 425 426 428
f 428 426 427
f 429 430 432
f 432 430 431
o item_958c4ea6_1120279
v -16.149713 12.805998 -7.890294
v -16.153047 12.808827 -7.890294
v -16.174476 12.790655 -7.890293
v -16.174476 12.853784 -7.890293
v -15.299487 12.815105 -7.890316
v -15.299487 12.751559 -7.890316
v -15.320916 12.769730 -7.890315
v -15.324251 12.766902 -7.890316
v -15.294770 12.741902 -7.890316
v -15.294770 12.818902 -7.890316
v -16.179193 12.857998 -7.890293
v -16.179193 12.780998 -7.890293
v -22.789448 12.805998 -18.513872
v -22.810650 12.780998 -18.500624
v -22.810650 12.857998 -18.500624
v -22.174612 12.818902 -18.898064
v -22.174612 12.741902 -18.898064
v -22.195813 12.766902 -18.884816
v -22.193415 12.769730 -18.886314
v -22.178004 12.751559 -18.895944
v -22.178004 12.815105 -18.895944
v -22.807257 12.853784 -18.502743
v -22.807257 12.790655 -18.502743
v -22.791847 12.808827 -18.512373
v -16.179193 12.857998 -7.890293
v -15.294770 12.818902 -7.890316
v -22.174612 12.818902 -18.898064
v -22.810650 12.857998 -18.500624
v -22.807257 12.790655 -18.502743
v -22.807257 12.853784 -18.502743
v -16.174476 12.853784 -7.890293
v -16.174476 12.790655 -7.890293
v -22.810650 12.780998 -18.500624
v -22.789448 12.805998 -18.513872
v -16.149713 12.805998 -7.890294
v -16.179193 12.780998 -7.890293
v -22.810650 12.857998 -18.500624
v -22.810650 12.780998 -18.500624
v -16.179193 12.780998 -7.890293
v -16.179193 12.857998 -7.890293
v -22.807257 12.853784 -18.502743
v -22.178004 12.815105 -18.895944
v -15.299487 12.815105 -7.890316
v -16.174476 12.853784 -7.890293
v -15.299487 12.751559 -7.890316
v -15.299487 12.815105 -7.890316
v -22.178004 12.815105 -18.895944
v -22.178004 12.751559 -18.895944
v -15.320916 12.769730 -7.890315
v -15.299487 12.751559 -7.890316
v -22.178004 12.751559 -18.895944
v -22.193415 12.769730 -18.886314
v -15.324251 12.766902 -7.890316
v -15.320916 12.769730 -7.890315
v -22.193415 12.769730 -18.886314
v -22.195813 12.766902 -18.884816
v -22.195813 12.766902 -18.884816
v -22.174612 12.741902 -18.898064
v -15.294770 12.741902 -7.890316
v -15.324251 12.766902 -7.890316
v -22.174612 12.741902 -18.898064
v -22.174612 12.818902 -18.898064
v -15.294770 12.818902 -7.890316
v -15.294770 12.741902 -7.890316
v -16.153047 12.808827 -7.890294
v -16.149713 12.805998 -7.890294
v -22.789448 12.805998 -18.513872
v -22.791847 12.808827 -18.512373
v -16.174476 12.790655 -7.890293
v -16.153047 12.808827 -7.890294
v -22.791847 12.808827 -18.512373
v -22.807257 12.790655 -18.502743
f 444 433 434
f 438 439 440
f 444 434 435
f 438 440 441
f 443 444 435
f 437 438 441
f 443 435 436
f 437 441 442
f 442 443 436
f 436 437 442
f 455 456 445
f 449 450 451
f 455 445 446
f 449 451 452
f 454 455 446
f 448 449 452
f 454 446 447
f 448 452 453
f 453 454 447
f 447 448 453
f 457 458 460
f 460 458 459
f 461 462 464
f 464 462 463
f 465 466 468
f 468 466 467
f 469 470 472
f 472 470 471
f 473 474 476
f 476 474 475
f 477 478 480
f 480 478 479
f 481 482 484
f 484 482 483
f 485 486 488
f 488 486 487
f 489 490 492
f 492 490 491
f 493 494 496
f 496 494 495
f 497 498 500
f 500 498 499
f 501 502 504
f 504 502 503
o item_958c4ea6_1327904
v -23.583646 12.805998 -19.786338
v -23.586045 12.808827 -19.784840
v -23.601455 12.790655 -19.775210
v -23.601455 12.853784 -19.775210
v -22.972202 12.815105 -20.168410
v -22.972202 12.751559 -20.168410
v -22.987613 12.769730 -20.158781
v -22.990011 12.766902 -20.157282
v -22.968810 12.741902 -20.170530
v -22.968810 12.818902 -20.170530
v -23.604848 12.857998 -19.773090
v -23.604848 12.780998 -19.773090
v -25.257385 12.805998 -22.464320
v -25.267468 12.780998 -22.433282
v -25.267468 12.857998 -22.433282
v -24.964972 12.818902 -23.364390
v -24.964972 12.741902 -23.364390
v -24.975056 12.766902 -23.333353
v -24.973915 12.769730 -23.336864
v -24.966586 12.751559 -23.359424
v -24.966586 12.815105 -23.359424
v -25.265855 12.853784 -22.438249
v -25.265855 12.790655 -22.438249
v -25.258525 12.808827 -22.460809
v -24.964972 12.818902 -23.364390
v -25.267468 12.857998 -22.433282
v -23.604848 12.857998 -19.773090
v -22.968810 12.818902 -20.170530
v -23.601455 12.853784 -19.775210
v -23.601455 12.790655 -19.775210
v -25.265855 12.790655 -22.438249
v -25.265855 12.853784 -22.438249
v -23.583646 12.805998 -19.786338
v -23.604848 12.780998 -19.773090
v -25.267468 12.780998 -22.433282
v -25.257385 12.805998 -22.464320
v -25.267468 12.857998 -22.433282
v -25.267468 12.780998 -22.433282
v -23.604848 12.780998 -19.773090
v -23.604848 12.857998 -19.773090
v -22.972202 12.815105 -20.168410
v -23.601455 12.853784 -19.775210
v -25.265855 12.853784 -22.438249
v -24.966586 12.815105 -23.359424
v -22.972202 12.751559 -20.168410
v -22.972202 12.815105 -20.168410
v -24.966586 12.815105 -23.359424
v -24.966586 12.751559 -23.359424
v -24.966586 12.751559 -23.359424
v -24.973915 12.769730 -23.336864
v -22.987613 12.769730 -20.158781
v -22.972202 12.751559 -20.168410
v -24.973915 12.769730 -23.336864
v -24.975056 12.766902 -23.333353
v -22.990011 12.766902 -20.157282
v -22.987613 12.769730 -20.158781
v -22.968810 12.741902 -20.170530
v -22.990011 12.766902 -20.157282
v -24.975056 12.766902 -23.333353
v -24.964972 12.741902 -23.364390
v -22.968810 12.818902 -20.170530
v -22.968810 12.741902 -20.170530
v -24.964972 12.741902 -23.364390
v -24.964972 12.818902 -23.364390
v -25.257385 12.805998 -22.464320
v -25.258525 12.808827 -22.460809
v -23.586045 12.808827 -19.784840
v -23.583646 12.805998 -19.786338
v -25.258525 12.808827 -22.460809
v -25.265855 12.790655 -22.438249
v -23.601455 12.790655 -19.775210
v -23.586045 12.808827 -19.784840
f 516 505 506
f 510 511 512
f 516 506 507
f 510 512 513
f 515 516 507
f 509 510 513
f 515 507 508
f 509 513 514
f 514 515 508
f 508 509 514
f 527 528 517
f 521 522 523
f 527 517 518
f 521 523 524
f 526 527 518
f 520 521 524
f 526 518 519
f 520 524 525
f 525 526 519
f 519 520 525
f 529 530 532
f 532 530 531
f 533 534 536
f 536 534 535
f 537 538 540
f 540 538 539
f 541 542 544
f 544 542 543
f 545 546 548
f 548 546 547
f 549 550 552
f 552 550 551
f 553 554 556
f 556 554 555
f 557 558 560
f 560 558 559
f 561 562 564
f 564 562 563
f 565 566 568
f 568 566 567
f 569 570 572
f 572 570 571
f 573 574 576
f 576 574 575
o item_958c4ea6_1120228
v -25.257629 12.806028 -22.465129
v -25.258769 12.808857 -22.461617
v -25.266097 12.790685 -22.439050
v -25.266097 12.853813 -22.439050
v -24.966896 12.815135 -23.360497
v -24.966896 12.751590 -23.360497
v -24.974224 12.769761 -23.337930
v -24.975364 12.766933 -23.334418
v -24.965283 12.741933 -23.365465
v -24.965283 12.818932 -23.365465
v -25.267709 12.858027 -22.434083
v -25.267709 12.781028 -22.434083
v -29.315303 12.806028 -20.823675
v -29.305937 12.781028 -20.800495
v -29.305937 12.858027 -20.800495
v -29.586895 12.818932 -21.495880
v -29.586895 12.741933 -21.495880
v -29.577530 12.766933 -21.472701
v -29.578589 12.769761 -21.475323
v -29.585396 12.751590 -21.492172
v -29.585396 12.815135 -21.492172
v -29.307436 12.853813 -20.804204
v -29.307436 12.790685 -20.804204
v -29.314243 12.808857 -20.821053
v -25.267709 12.858027 -22.434083
v -24.965283 12.818932 -23.365465
v -29.586895 12.818932 -21.495880
v -29.305937 12.858027 -20.800495
v -29.307436 12.790685 -20.804204
v -29.307436 12.853813 -20.804204
v -25.266097 12.853813 -22.439050
v -25.266097 12.790685 -22.439050
v -29.305937 12.781028 -20.800495
v -29.315303 12.806028 -20.823675
v -25.257629 12.806028 -22.465129
v -25.267709 12.781028 -22.434083
v -29.305937 12.858027 -20.800495
v -29.305937 12.781028 -20.800495
v -25.267709 12.781028 -22.434083
v -25.267709 12.858027 -22.434083
v -29.307436 12.853813 -20.804204
v -29.585396 12.815135 -21.492172
v -24.966896 12.815135 -23.360497
v -25.266097 12.853813 -22.439050
v -29.585396 12.815135 -21.492172
v -29.585396 12.751590 -21.492172
v -24.966896 12.751590 -23.360497
v -24.966896 12.815135 -23.360497
v -24.974224 12.769761 -23.337930
v -24.966896 12.751590 -23.360497
v -29.585396 12.751590 -21.492172
v -29.578589 12.769761 -21.475323
v -24.975364 12.766933 -23.334418
v -24.974224 12.769761 -23.337930
v -29.578589 12.769761 -21.475323
v -29.577530 12.766933 -21.472701
v -29.577530 12.766933 -21.472701
v -29.586895 12.741933 -21.495880
v -24.965283 12.741933 -23.365465
v -24.975364 12.766933 -23.334418
v -24.965283 12.818932 -23.365465
v -24.965283 12.741933 -23.365465
v -29.586895 12.741933 -21.495880
v -29.586895 12.818932 -21.495880
v -25.258769 12.808857 -22.461617
v -25.257629 12.806028 -22.465129
v -29.315303 12.806028 -20.823675
v -29.314243 12.808857 -20.821053
v -25.266097 12.790685 -22.439050
v -25.258769 12.808857 -22.461617
v -29.314243 12.808857 -20.821053
v -29.307436 12.790685 -20.804204
f 588 577 578
f 582 583 584
f 588 578 579
f 582 584 585
f 587 588 579
f 581 582 585
f 587 579 580
f 581 585 586
f 586 587 580
f 580 581 586
f 599 600 589
f 593 594 595
f 599 589 590
f 593 595 596
f 598 599 590
f 592 593 596
f 598 590 591
f 592 596 597
f 597 598 591
f 591 592 597
f 601 602 604
f 604 602 603
f 605 606 608
f 608 606 607
f 609 610 612
f 612 610 611
f 613 614 616
f 616 614 615
f 617 618 620
f 620 618 619
f 621 622 624
f 624 622 623
f 625 626 628
f 628 626 627
f 629 630 632
f 632 630 631
f 633 634 636
f 636 634 635
f 637 638 640
f 640 638 639
f 641 642 644
f 644 642 643
f 645 646 648
f 648 646 647
o item_958c4ea6_1327956
v -41.007367 12.858028 -16.073950
v -41.288324 12.818932 -16.769335
v -41.288324 12.741932 -16.769335
v -41.278959 12.766932 -16.746156
v -41.280018 12.769760 -16.748778
v -41.286826 12.751589 -16.765626
v -41.286826 12.815135 -16.765626
v -41.008865 12.853814 -16.077659
v -41.008865 12.790685 -16.077659
v -41.015672 12.808857 -16.094508
v -41.016732 12.806028 -16.097130
v -41.007367 12.781028 -16.073950
v -30.697196 12.781028 -20.239585
v -30.706561 12.806028 -20.262764
v -30.705502 12.808857 -20.260142
v -30.698694 12.790685 -20.243294
v -30.698694 12.853814 -20.243294
v -30.976655 12.815135 -20.931261
v -30.976655 12.751589 -20.931261
v -30.969848 12.769760 -20.914412
v -30.968788 12.766932 -20.911790
v -30.978153 12.741932 -20.934970
v -30.978153 12.818932 -20.934970
v -30.697196 12.858028 -20.239585
v -41.288324 12.741932 -16.769335
v -41.288324 12.818932 -16.769335
v -30.978153 12.818932 -20.934970
v -30.978153 12.741932 -20.934970
v -41.278959 12.766932 -16.746156
v -41.288324 12.741932 -16.769335
v -30.978153 12.741932 -20.934970
v -30.968788 12.766932 -20.911790
v -41.280018 12.769760 -16.748778
v -41.278959 12.766932 -16.746156
v -30.968788 12.766932 -20.911790
v -30.969848 12.769760 -20.914412
v -41.286826 12.751589 -16.765626
v -41.280018 12.769760 -16.748778
v -30.969848 12.769760 -20.914412
v -30.976655 12.751589 -20.931261
v -41.286826 12.815135 -16.765626
v -41.286826 12.751589 -16.765626
v -30.976655 12.751589 -20.931261
v -30.976655 12.815135 -20.931261
v -41.008865 12.853814 -16.077659
v -41.286826 12.815135 -16.765626
v -30.976655 12.815135 -20.931261
v -30.698694 12.853814 -20.243294
v -41.008865 12.790685 -16.077659
v -41.008865 12.853814 -16.077659
v -30.698694 12.853814 -20.243294
v -30.698694 12.790685 -20.243294
v -41.015672 12.808857 -16.094508
v -41.008865 12.790685 -16.077659
v -30.698694 12.790685 -20.243294
v -30.705502 12.808857 -20.260142
v -41.016732 12.806028 -16.097130
v -41.015672 12.808857 -16.094508
v -30.705502 12.808857 -20.260142
v -30.706561 12.806028 -20.262764
v -41.007367 12.781028 -16.073950
v -41.016732 12.806028 -16.097130
v -30.706561 12.806028 -20.262764
v -30.697196 12.781028 -20.239585
v -41.007367 12.858028 -16.073950
v -41.007367 12.781028 -16.073950
v -30.697196 12.781028 -20.239585
v -30.697196 12.858028 -20.239585
v -41.288324 12.818932 -16.769335
v -41.007367 12.858028 -16.073950
v -30.697196 12.858028 -20.239585
v -30.978153 12.818932 -20.934970
f 651 652 653
f 657 658 659
f 651 653 654
f 657 659 660
f 650 651 654
f 656 657 660
f 650 654 655
f 656 660 649
f 649 650 655
f 655 656 649
f 661 662 663
f 667 668 669
f 661 663 664
f 667 669 670
f 672 661 664
f 666 667 670
f 672 664 665
f 666 670 671
f 671 672 665
f 665 666 671
f 673 674 676
f 676 674 675
f 677 678 680
f 680 678 679
f 681 682 684
f 684 682 683
f 685 686 688
f 688 686 687
f 689 690 692
f 692 690 691
f 693 694 696
f 696 694 695
f 697 698 700
f 700 698 699
f 701 702 704
f 704 702 703
f 705 706 708
f 708 706 707
f 709 710 712
f 712 710 711
f 713 714 716
f 716 714 715
f 717 718 720
f 720 718 719
