# DIMKO.app — selection export
# Generated: 2026-07-31T07:56:42.150Z
o item_958c4ea6_617572
v -30.157351 12.969051 -28.038664
v -30.157351 12.985000 -28.038664
v -30.157725 12.985000 -28.039591
v -30.157725 12.970000 -28.039591
v -30.316560 12.947780 -28.432715
v -30.316560 12.907780 -28.432715
v -30.310941 12.922780 -28.418808
v -30.311206 12.923487 -28.419463
v -30.316185 12.910194 -28.431788
v -30.316185 12.946831 -28.431788
v -20.300135 12.946831 -32.478589
v -20.300135 12.910194 -32.478589
v -20.295155 12.923487 -32.466264
v -20.294890 12.922780 -32.465609
v -20.300509 12.907780 -32.479516
v -20.300509 12.947780 -32.479516
v -20.141675 12.970000 -32.086392
v -20.141675 12.985000 -32.086392
v -20.141300 12.985000 -32.085465
v -20.141300 12.969051 -32.085465
v -30.316560 12.907780 -28.432715
v -30.316560 12.947780 -28.432715
v -20.300509 12.947780 -32.479516
v -20.300509 12.907780 -32.479516
v -30.310941 12.922780 -28.418808
v -30.316560 12.907780 -28.432715
v -20.300509 12.907780 -32.479516
v -20.294890 12.922780 -32.465609
v -30.311206 12.923487 -28.419463
v -30.310941 12.922780 -28.418808
v -20.294890 12.922780 -32.465609
v -20.295155 12.923487 -32.466264
v -30.316185 12.910194 -28.431788
v -30.311206 12.923487 -28.419463
v -20.295155 12.923487 -32.466264
v -20.300135 12.910194 -32.478589
v -30.316185 12.946831 -28.431788
v -30.316185 12.910194 -28.431788
v -20.300135 12.910194 -32.478589
v -20.300135 12.946831 -32.478589
v -30.157351 12.969051 -28.038664
v -30.316185 12.946831 -28.431788
v -20.300135 12.946831 -32.478589
v -20.141300 12.969051 -32.085465
v -30.157351 12.985000 -28.038664
v -30.157351 12.969051 -28.038664
v -20.141300 12.969051 -32.085465
v -20.141300 12.985000 -32.085465
v -30.157725 12.985000 -28.039591
v -30.157351 12.985000 -28.038664
v -20.141300 12.985000 -32.085465
v -20.141675 12.985000 -32.086392
v -30.157725 12.970000 -28.039591
v -30.157725 12.985000 -28.039591
v -20.141675 12.985000 -32.086392
v -20.141675 12.970000 -32.086392
v -30.316560 12.947780 -28.432715
v -30.157725 12.970000 -28.039591
v -20.141675 12.970000 -32.086392
v -20.300509 12.947780 -32.479516
f 1 2 3
f 6 7 8
f 1 3 4
f 6 8 9
f 10 1 4
f 5 6 9
f 10 4 5
f 5 9 10
f 12 13 14
f 17 18 19
f 12 14 15
f 17 19 20
f 11 12 15
f 16 17 20
f 11 15 16
f 16 20 11
f 21 22 24
f 24 22 23
f 25 26 28
f 28 26 27
f 29 30 32
f 32 30 31
f 33 34 36
f 36 34 35
f 37 38 40
f 40 38 39
f 41 42 44
f 44 42 43
f 45 46 48
f 48 46 47
f 49 50 52
f 52 50 51
f 53 54 56
f 56 54 55
f 57 58 60
f 60 58 59
