# DIMKO.app — selection export
# Generated: 2026-07-31T07:55:13.000Z
o item_958c4ea6_658426
v -14.126762 15.350000 -34.364520
v -14.126762 15.400000 -34.364520
v -14.721956 15.379300 -34.533808
v -14.721956 15.329300 -34.533808
v -14.700443 15.344300 -34.527689
v -14.701457 15.345007 -34.527978
v -14.720521 15.331714 -34.533400
v -14.720521 15.378349 -34.533400
v -14.128196 15.398949 -34.364928
v -14.128196 15.352414 -34.364928
v -14.147261 15.365707 -34.370350
v -14.148275 15.365000 -34.370639
v -17.765262 15.365707 -40.159153
v -17.759901 15.352414 -40.175655
v -17.759901 15.398949 -40.175655
v -17.926474 15.378349 -39.662925
v -17.926474 15.331714 -39.662925
v -17.921113 15.345007 -39.679428
v -17.920828 15.344300 -39.680306
v -17.926878 15.329300 -39.661683
v -17.926878 15.379300 -39.661683
v -17.759497 15.400000 -40.176897
v -17.759497 15.350000 -40.176897
v -17.765547 15.365000 -40.158275
v -14.721956 15.379300 -34.533808
v -14.126762 15.400000 -34.364520
v -17.759497 15.400000 -40.176897
v -17.926878 15.379300 -39.661683
v -17.759901 15.352414 -40.175655
v -14.128196 15.352414 -34.364928
v -14.128196 15.398949 -34.364928
v -17.759901 15.398949 -40.175655
v -17.759497 15.350000 -40.176897
v -14.126762 15.350000 -34.364520
v -14.148275 15.365000 -34.370639
v -17.765547 15.365000 -40.158275
v -17.759497 15.400000 -40.176897
v -14.126762 15.400000 -34.364520
v -14.126762 15.350000 -34.364520
v -17.759497 15.350000 -40.176897
v -17.759901 15.398949 -40.175655
v -14.128196 15.398949 -34.364928
v -14.720521 15.378349 -34.533400
v -17.926474 15.378349 -39.662925
v -17.926474 15.378349 -39.662925
v -14.720521 15.378349 -34.533400
v -14.720521 15.331714 -34.533400
v -17.926474 15.331714 -39.662925
v -14.720521 15.331714 -34.533400
v -14.701457 15.345007 -34.527978
v -17.921113 15.345007 -39.679428
v -17.926474 15.331714 -39.662925
v -14.701457 15.345007 -34.527978
v -14.700443 15.344300 -34.527689
v -17.920828 15.344300 -39.680306
v -17.921113 15.345007 -39.679428
v -17.920828 15.344300 -39.680306
v -14.700443 15.344300 -34.527689
v -14.721956 15.329300 -34.533808
v -17.926878 15.329300 -39.661683
v -14.721956 15.329300 -34.533808
v -14.721956 15.379300 -34.533808
v -17.926878 15.379300 -39.661683
v -17.926878 15.329300 -39.661683
v -14.148275 15.365000 -34.370639
v -14.147261 15.365707 -34.370350
v -17.765262 15.365707 -40.159153
v -17.765547 15.365000 -40.158275
v -14.147261 15.365707 -34.370350
v -14.128196 15.352414 -34.364928
v -17.759901 15.352414 -40.175655
v -17.765262 15.365707 -40.159153
f 11 12 1
f 4 5 6
f 10 11 1
f 4 6 7
f 9 10 1
f 3 4 7
f 9 1 2
f 3 7 8
f 8 9 2
f 2 3 8
f 23 24 13
f 17 18 19
f 23 13 14
f 17 19 20
f 22 23 14
f 16 17 20
f 22 14 15
f 16 20 21
f 21 22 15
f 15 16 21
f 25 26 28
f 28 26 27
f 29 30 32
f 32 30 31
f 33 34 36
f 36 34 35
f 37 38 40
f 40 38 39
f 41 42 44
f 44 42 43
f 45 46 48
f 48 46 47
f 49 50 52
f 52 50 51
f 53 54 56
f 56 54 55
f 57 58 60
f 60 58 59
f 61 62 64
f 64 62 63
f 65 66 68
f 68 66 67
f 69 70 72
f 72 70 71
o item_958c4ea6_1141702
v -30.106784 15.400000 -27.913490
v -30.262247 15.379300 -28.298269
v -30.262247 15.329300 -28.298269
v -30.256628 15.344300 -28.284362
v -30.256893 15.345007 -28.285017
v -30.261872 15.331714 -28.297342
v -30.261872 15.378349 -28.297342
v -30.107158 15.398949 -27.914417
v -30.107158 15.352414 -27.914417
v -30.112138 15.365707 -27.926742
v -30.112403 15.365000 -27.927397
v -30.106784 15.350000 -27.913490
v -20.090733 15.350000 -31.960291
v -20.096352 15.365000 -31.974198
v -20.096087 15.365707 -31.973543
v -20.091108 15.352414 -31.961218
v -20.091108 15.398949 -31.961218
v -20.245822 15.378349 -32.344143
v -20.245822 15.331714 -32.344143
v -20.240842 15.345007 -32.331818
v -20.240577 15.344300 -32.331163
v -20.246196 15.329300 -32.345070
v -20.246196 15.379300 -32.345070
v -20.090733 15.400000 -31.960291
v -30.262247 15.329300 -28.298269
v -30.262247 15.379300 -28.298269
v -20.246196 15.379300 -32.345070
v -20.246196 15.329300 -32.345070
v -30.256628 15.344300 -28.284362
v -30.262247 15.329300 -28.298269
v -20.246196 15.329300 -32.345070
v -20.240577 15.344300 -32.331163
v -30.256893 15.345007 -28.285017
v -30.256628 15.344300 -28.284362
v -20.240577 15.344300 -32.331163
v -20.240842 15.345007 -32.331818
v -30.261872 15.331714 -28.297342
v -30.256893 15.345007 -28.285017
v -20.240842 15.345007 -32.331818
v -20.245822 15.331714 -32.344143
v -30.261872 15.378349 -28.297342
v -30.261872 15.331714 -28.297342
v -20.245822 15.331714 -32.344143
v -20.245822 15.378349 -32.344143
v -30.107158 15.398949 -27.914417
v -30.261872 15.378349 -28.297342
v -20.245822 15.378349 -32.344143
v -20.091108 15.398949 -31.961218
v -30.107158 15.352414 -27.914417
v -30.107158 15.398949 -27.914417
v -20.091108 15.398949 -31.961218
v -20.091108 15.352414 -31.961218
v -30.112138 15.365707 -27.926742
v -30.107158 15.352414 -27.914417
v -20.091108 15.352414 -31.961218
v -20.096087 15.365707 -31.973543
v -30.112403 15.365000 -27.927397
v -30.112138 15.365707 -27.926742
v -20.096087 15.365707 -31.973543
v -20.096352 15.365000 -31.974198
v -30.106784 15.350000 -27.913490
v -30.112403 15.365000 -27.927397
v -20.096352 15.365000 -31.974198
v -20.090733 15.350000 -31.960291
v -30.106784 15.400000 -27.913490
v -30.106784 15.350000 -27.913490
v -20.090733 15.350000 -31.960291
v -20.090733 15.400000 -31.960291
v -30.262247 15.379300 -28.298269
v -30.106784 15.400000 -27.913490
v -20.090733 15.400000 -31.960291
v -20.246196 15.379300 -32.345070
f 75 76 77
f 81 82 83
f 75 77 78
f 81 83 84
f 74 75 78
f 80 81 84
f 74 78 79
f 80 84 73
f 73 74 79
f 79 80 73
f 85 86 87
f 91 92 93
f 85 87 88
f 91 93 94
f 96 85 88
f 90 91 94
f 96 88 89
f 90 94 95
f 95 96 89
f 89 90 95
f 97 98 100
f 100 98 99
f 101 102 104
f 104 102 103
f 105 106 108
f 108 106 107
f 109 110 112
f 112 110 111
f 113 114 116
f 116 114 115
f 117 118 120
f 120 118 119
f 121 122 124
f 124 122 123
f 125 126 128
f 128 126 127
f 129 130 132
f 132 130 131
f 133 134 136
f 136 134 135
f 137 138 140
f 140 138 139
f 141 142 144
f 144 142 143
o item_958c4ea6_658484
v -44.066604 15.365000 -29.532837
v -44.067524 15.365707 -29.533228
v -44.084827 15.352414 -29.540568
v -44.084827 15.398948 -29.540568
v -43.547262 15.378349 -29.312518
v -43.547262 15.331715 -29.312518
v -43.564565 15.345007 -29.319858
v -43.565484 15.344301 -29.320248
v -43.545960 15.329301 -29.311966
v -43.545960 15.379300 -29.311966
v -44.086128 15.399999 -29.541120
v -44.086128 15.350000 -29.541120
v -17.774724 15.365000 -40.168712
v -17.768675 15.350000 -40.187339
v -17.768675 15.399999 -40.187339
v -17.936018 15.379300 -39.671975
v -17.936018 15.329301 -39.671975
v -17.929968 15.344301 -39.690603
v -17.930254 15.345007 -39.689724
v -17.935615 15.331715 -39.673217
v -17.935615 15.378349 -39.673217
v -17.769078 15.398948 -40.186098
v -17.769078 15.352414 -40.186098
v -17.774438 15.365707 -40.169590
v -17.936018 15.379300 -39.671975
v -17.768675 15.399999 -40.187339
v -44.086128 15.399999 -29.541120
v -43.545960 15.379300 -29.311966
v -44.084827 15.398948 -29.540568
v -44.084827 15.352414 -29.540568
v -17.769078 15.352414 -40.186098
v -17.769078 15.398948 -40.186098
v -44.066604 15.365000 -29.532837
v -44.086128 15.350000 -29.541120
v -17.768675 15.350000 -40.187339
v -17.774724 15.365000 -40.168712
v -44.086128 15.350000 -29.541120
v -44.086128 15.399999 -29.541120
v -17.768675 15.399999 -40.187339
v -17.768675 15.350000 -40.187339
v -43.547262 15.378349 -29.312518
v -44.084827 15.398948 -29.540568
v -17.769078 15.398948 -40.186098
v -17.935615 15.378349 -39.673217
v -43.547262 15.331715 -29.312518
v -43.547262 15.378349 -29.312518
v -17.935615 15.378349 -39.673217
v -17.935615 15.331715 -39.673217
v -17.935615 15.331715 -39.673217
v -17.930254 15.345007 -39.689724
v -43.564565 15.345007 -29.319858
v -43.547262 15.331715 -29.312518
v -17.930254 15.345007 -39.689724
v -17.929968 15.344301 -39.690603
v -43.565484 15.344301 -29.320248
v -43.564565 15.345007 -29.319858
v -43.545960 15.329301 -29.311966
v -43.565484 15.344301 -29.320248
v -17.929968 15.344301 -39.690603
v -17.936018 15.329301 -39.671975
v -43.545960 15.379300 -29.311966
v -43.545960 15.329301 -29.311966
v -17.936018 15.329301 -39.671975
v -17.936018 15.379300 -39.671975
v -17.774724 15.365000 -40.168712
v -17.774438 15.365707 -40.169590
v -44.067524 15.365707 -29.533228
v -44.066604 15.365000 -29.532837
v -17.774438 15.365707 -40.169590
v -17.769078 15.352414 -40.186098
v -44.084827 15.352414 -29.540568
v -44.067524 15.365707 -29.533228
f 156 145 146
f 150 151 152
f 156 146 147
f 150 152 153
f 155 156 147
f 149 150 153
f 155 147 148
f 149 153 154
f 154 155 148
f 148 149 154
f 167 168 157
f 161 162 163
f 167 157 158
f 161 163 164
f 166 167 158
f 160 161 164
f 166 158 159
f 160 164 165
f 165 166 159
f 159 160 165
f 169 170 172
f 172 170 171
f 173 174 176
f 176 174 175
f 177 178 180
f 180 178 179
f 181 182 184
f 184 182 183
f 185 186 188
f 188 186 187
f 189 190 192
f 192 190 191
f 193 194 196
f 196 194 195
f 197 198 200
f 200 198 199
f 201 202 204
f 204 202 203
f 205 206 208
f 208 206 207
f 209 210 212
f 212 210 211
f 213 214 216
f 216 214 215
o item_958c4ea6_658721
v -44.090020 15.350000 -29.546104
v -44.090020 15.399999 -29.546104
v -43.549615 15.379300 -29.316862
v -43.549615 15.329301 -29.316862
v -43.569148 15.344301 -29.325148
v -43.568227 15.345007 -29.324758
v -43.550917 15.331715 -29.317415
v -43.550917 15.378349 -29.317415
v -44.088718 15.398948 -29.545552
v -44.088718 15.352414 -29.545552
v -44.071408 15.365707 -29.538209
v -44.070487 15.365000 -29.537819
v -41.623628 15.365707 -23.487296
v -41.630968 15.352414 -23.469994
v -41.630968 15.398948 -23.469994
v -41.402917 15.378349 -24.007559
v -41.402917 15.331715 -24.007559
v -41.410257 15.345007 -23.990257
v -41.410648 15.344301 -23.989336
v -41.402365 15.329301 -24.008861
v -41.402365 15.379300 -24.008861
v -41.631520 15.399999 -23.468692
v -41.631520 15.350000 -23.468692
v -41.623237 15.365000 -23.488217
v -41.402365 15.379300 -24.008861
v -43.549615 15.379300 -29.316862
v -44.090020 15.399999 -29.546104
v -41.631520 15.399999 -23.468692
v -41.630968 15.352414 -23.469994
v -44.088718 15.352414 -29.545552
v -44.088718 15.398948 -29.545552
v -41.630968 15.398948 -23.469994
v -41.631520 15.350000 -23.468692
v -44.090020 15.350000 -29.546104
v -44.070487 15.365000 -29.537819
v -41.623237 15.365000 -23.488217
v -41.631520 15.399999 -23.468692
v -44.090020 15.399999 -29.546104
v -44.090020 15.350000 -29.546104
v -41.631520 15.350000 -23.468692
v -44.088718 15.398948 -29.545552
v -43.550917 15.378349 -29.317415
v -41.402917 15.378349 -24.007559
v -41.630968 15.398948 -23.469994
v -43.550917 15.378349 -29.317415
v -43.550917 15.331715 -29.317415
v -41.402917 15.331715 -24.007559
v -41.402917 15.378349 -24.007559
v -41.402917 15.331715 -24.007559
v -43.550917 15.331715 -29.317415
v -43.568227 15.345007 -29.324758
v -41.410257 15.345007 -23.990257
v -41.410257 15.345007 -23.990257
v -43.568227 15.345007 -29.324758
v -43.569148 15.344301 -29.325148
v -41.410648 15.344301 -23.989336
v -43.569148 15.344301 -29.325148
v -43.549615 15.329301 -29.316862
v -41.402365 15.329301 -24.008861
v -41.410648 15.344301 -23.989336
v -43.549615 15.329301 -29.316862
v -43.549615 15.379300 -29.316862
v -41.402365 15.379300 -24.008861
v -41.402365 15.329301 -24.008861
v -44.070487 15.365000 -29.537819
v -44.071408 15.365707 -29.538209
v -41.623628 15.365707 -23.487296
v -41.623237 15.365000 -23.488217
v -44.071408 15.365707 -29.538209
v -44.088718 15.352414 -29.545552
v -41.630968 15.352414 -23.469994
v -41.623628 15.365707 -23.487296
f 227 228 217
f 220 221 222
f 226 227 217
f 220 222 223
f 225 226 217
f 219 220 223
f 225 217 218
f 219 223 224
f 224 225 218
f 218 219 224
f 239 240 229
f 233 234 235
f 239 229 230
f 233 235 236
f 238 239 230
f 232 233 236
f 238 230 231
f 232 236 237
f 237 238 231
f 231 232 237
f 241 242 244
f 244 242 243
f 245 246 248
f 248 246 247
f 249 250 252
f 252 250 251
f 253 254 256
f 256 254 255
f 257 258 260
f 260 258 259
f 261 262 264
f 264 262 263
f 265 266 268
f 268 266 267
f 269 270 272
f 272 270 271
f 273 274 276
f 276 274 275
f 277 278 280
f 280 278 279
f 281 282 284
f 284 282 283
f 285 286 288
f 288 286 287
