# DIMKO.app — selection export
# Generated: 2026-07-31T07:57:28.591Z
o item_958c4ea6_1146018
v -3.759200 12.945063 -12.914994
v -3.779869 12.930063 -12.919764
v -3.779869 12.970063 -12.919764
v -3.702705 12.972997 -12.901954
v -3.702705 12.987997 -12.901954
v -3.701327 12.987997 -12.901636
v -3.701327 12.972048 -12.901636
v -3.778491 12.969114 -12.919446
v -3.778491 12.932477 -12.919446
v -3.760174 12.945770 -12.915219
v -5.510637 12.930063 -11.838034
v -5.515408 12.945063 -11.817364
v -5.515183 12.945770 -11.818338
v -5.510955 12.932477 -11.836656
v -5.510955 12.969114 -11.836656
v -5.528767 12.972048 -11.759486
v -5.528767 12.987997 -11.759486
v -5.528449 12.987997 -11.760864
v -5.528449 12.972997 -11.760864
v -5.510637 12.970063 -11.838034
v -3.702705 12.972997 -12.901954
v -3.779869 12.970063 -12.919764
v -5.510637 12.970063 -11.838034
v -5.528449 12.972997 -11.760864
v -3.702705 12.987997 -12.901954
v -3.702705 12.972997 -12.901954
v -5.528449 12.972997 -11.760864
v -5.528449 12.987997 -11.760864
v -5.528449 12.987997 -11.760864
v -5.528767 12.987997 -11.759486
v -3.701327 12.987997 -12.901636
v -3.702705 12.987997 -12.901954
v -3.701327 12.972048 -12.901636
v -3.701327 12.987997 -12.901636
v -5.528767 12.987997 -11.759486
v -5.528767 12.972048 -11.759486
v -5.528767 12.972048 -11.759486
v -5.510955 12.969114 -11.836656
v -3.778491 12.969114 -12.919446
v -3.701327 12.972048 -12.901636
v -5.510955 12.969114 -11.836656
v -5.510955 12.932477 -11.836656
v -3.778491 12.932477 -12.919446
v -3.778491 12.969114 -12.919446
v -5.510955 12.932477 -11.836656
v -5.515183 12.945770 -11.818338
v -3.760174 12.945770 -12.915219
v -3.778491 12.932477 -12.919446
v -5.515183 12.945770 -11.818338
v -5.515408 12.945063 -11.817364
v -3.759200 12.945063 -12.914994
v -3.760174 12.945770 -12.915219
v -3.779869 12.930063 -12.919764
v -3.759200 12.945063 -12.914994
v -5.515408 12.945063 -11.817364
v -5.510637 12.930063 -11.838034
v -3.779869 12.970063 -12.919764
v -3.779869 12.930063 -12.919764
v -5.510637 12.930063 -11.838034
v -5.510637 12.970063 -11.838034
f 9 10 1
f 4 5 6
f 9 1 2
f 4 6 7
f 8 9 2
f 3 4 7
f 8 2 3
f 3 7 8
f 11 12 13
f 16 17 18
f 11 13 14
f 16 18 19
f 20 11 14
f 15 16 19
f 20 14 15
f 15 19 20
f 21 22 24
f 24 22 23
f 25 26 28
f 28 26 27
f 29 30 32
f 32 30 31
f 33 34 36
f 36 34 35
f 37 38 40
f 40 38 39
f 41 42 44
f 44 42 43
f 45 46 48
f 48 46 47
f 49 50 52
f 52 50 51
f 53 54 56
f 56 54 55
f 57 58 60
f 60 58 59
o item_958c4ea6_1150482
v -5.515393 12.945063 -11.817485
v -5.510622 12.930063 -11.838154
v -5.510622 12.970063 -11.838154
v -5.528433 12.972997 -11.760990
v -5.528433 12.987997 -11.760990
v -5.528751 12.987997 -11.759612
v -5.528751 12.972048 -11.759612
v -5.510940 12.969114 -11.836776
v -5.510940 12.932477 -11.836776
v -5.515169 12.945770 -11.818460
v -6.382569 12.930063 -13.233268
v -6.387340 12.945063 -13.212599
v -6.387115 12.945770 -13.213573
v -6.382887 12.932477 -13.231890
v -6.382887 12.969114 -13.231890
v -6.400698 12.972048 -13.154726
v -6.400698 12.987997 -13.154726
v -6.400380 12.987997 -13.156104
v -6.400380 12.972997 -13.156104
v -6.382569 12.970063 -13.233268
v -6.382569 12.970063 -13.233268
v -6.400380 12.972997 -13.156104
v -5.528433 12.972997 -11.760990
v -5.510622 12.970063 -11.838154
v -6.400380 12.972997 -13.156104
v -6.400380 12.987997 -13.156104
v -5.528433 12.987997 -11.760990
v -5.528433 12.972997 -11.760990
v -6.400380 12.987997 -13.156104
v -6.400698 12.987997 -13.154726
v -5.528751 12.987997 -11.759612
v -5.528433 12.987997 -11.760990
v -5.528751 12.972048 -11.759612
v -5.528751 12.987997 -11.759612
v -6.400698 12.987997 -13.154726
v -6.400698 12.972048 -13.154726
v -5.510940 12.969114 -11.836776
v -5.528751 12.972048 -11.759612
v -6.400698 12.972048 -13.154726
v -6.382887 12.969114 -13.231890
v -5.510940 12.932477 -11.836776
v -5.510940 12.969114 -11.836776
v -6.382887 12.969114 -13.231890
v -6.382887 12.932477 -13.231890
v -6.382887 12.932477 -13.231890
v -6.387115 12.945770 -13.213573
v -5.515169 12.945770 -11.818460
v -5.510940 12.932477 -11.836776
v -6.387115 12.945770 -13.213573
v -6.387340 12.945063 -13.212599
v -5.515393 12.945063 -11.817485
v -5.515169 12.945770 -11.818460
v -5.510622 12.930063 -11.838154
v -5.515393 12.945063 -11.817485
v -6.387340 12.945063 -13.212599
v -6.382569 12.930063 -13.233268
v -5.510622 12.970063 -11.838154
v -5.510622 12.930063 -11.838154
v -6.382569 12.930063 -13.233268
v -6.382569 12.970063 -13.233268
f 69 70 61
f 64 65 66
f 69 61 62
f 64 66 67
f 68 69 62
f 63 64 67
f 68 62 63
f 63 67 68
f 71 72 73
f 76 77 78
f 71 73 74
f 76 78 79
f 80 71 74
f 75 76 79
f 80 74 75
f 75 79 80
f 81 82 84
f 84 82 83
f 85 86 88
f 88 86 87
f 89 90 92
f 92 90 91
f 93 94 96
f 96 94 95
f 97 98 100
f 100 98 99
f 101 102 104
f 104 102 103
f 105 106 108
f 108 106 107
f 109 110 112
f 112 110 111
f 113 114 116
f 116 114 115
f 117 118 120
f 120 118 119
o item_958c4ea6_1150434
v -6.387308 12.945063 -13.212714
v -6.382537 12.930063 -13.233384
v -6.382537 12.970063 -13.233384
v -6.400349 12.972997 -13.156214
v -6.400349 12.987997 -13.156214
v -6.400667 12.987997 -13.154836
v -6.400667 12.972048 -13.154836
v -6.382855 12.969114 -13.232006
v -6.382855 12.932477 -13.232006
v -6.387083 12.945770 -13.213688
v -7.885193 12.930063 -12.294224
v -7.889964 12.945063 -12.273554
v -7.889739 12.945770 -12.274528
v -7.885511 12.932477 -12.292846
v -7.885511 12.969114 -12.292846
v -7.903323 12.972048 -12.215676
v -7.903323 12.987997 -12.215676
v -7.903005 12.987997 -12.217054
v -7.903005 12.972997 -12.217054
v -7.885193 12.970063 -12.294224
v -6.400349 12.972997 -13.156214
v -6.382537 12.970063 -13.233384
v -7.885193 12.970063 -12.294224
v -7.903005 12.972997 -12.217054
v -6.400349 12.987997 -13.156214
v -6.400349 12.972997 -13.156214
v -7.903005 12.972997 -12.217054
v -7.903005 12.987997 -12.217054
v -6.400667 12.987997 -13.154836
v -6.400349 12.987997 -13.156214
v -7.903005 12.987997 -12.217054
v -7.903323 12.987997 -12.215676
v -6.400667 12.972048 -13.154836
v -6.400667 12.987997 -13.154836
v -7.903323 12.987997 -12.215676
v -7.903323 12.972048 -12.215676
v -7.903323 12.972048 -12.215676
v -7.885511 12.969114 -12.292846
v -6.382855 12.969114 -13.232006
v -6.400667 12.972048 -13.154836
v -7.885511 12.969114 -12.292846
v -7.885511 12.932477 -12.292846
v -6.382855 12.932477 -13.232006
v -6.382855 12.969114 -13.232006
v -6.387083 12.945770 -13.213688
v -6.382855 12.932477 -13.232006
v -7.885511 12.932477 -12.292846
v -7.889739 12.945770 -12.274528
v -6.387308 12.945063 -13.212714
v -6.387083 12.945770 -13.213688
v -7.889739 12.945770 -12.274528
v -7.889964 12.945063 -12.273554
v -7.889964 12.945063 -12.273554
v -7.885193 12.930063 -12.294224
v -6.382537 12.930063 -13.233384
v -6.387308 12.945063 -13.212714
v -7.885193 12.930063 -12.294224
v -7.885193 12.970063 -12.294224
v -6.382537 12.970063 -13.233384
v -6.382537 12.930063 -13.233384
f 129 130 121
f 124 125 126
f 129 121 122
f 124 126 127
f 128 129 122
f 123 124 127
f 128 122 123
f 123 127 128
f 131 132 133
f 136 137 138
f 131 133 134
f 136 138 139
f 140 131 134
f 135 136 139
f 140 134 135
f 135 139 140
f 141 142 144
f 144 142 143
f 145 146 148
f 148 146 147
f 149 150 152
f 152 150 151
f 153 154 156
f 156 154 155
f 157 158 160
f 160 158 159
f 161 162 164
f 164 162 163
f 165 166 168
f 168 166 167
f 169 170 172
f 172 170 171
f 173 174 176
f 176 174 175
f 177 178 180
f 180 178 179
o item_958c4ea6_1145970
v -10.037948 12.945063 -22.962039
v -10.042719 12.930063 -22.941370
v -10.042719 12.970063 -22.941370
v -10.024908 12.972997 -23.018534
v -10.024908 12.987997 -23.018534
v -10.024589 12.987997 -23.019911
v -10.024589 12.972048 -23.019911
v -10.042401 12.969114 -22.942748
v -10.042401 12.932477 -22.942748
v -10.038172 12.945770 -22.961064
v -3.779340 12.930063 -12.919964
v -3.758669 12.945063 -12.915193
v -3.759644 12.945770 -12.915419
v -3.777962 12.932477 -12.919646
v -3.777962 12.969114 -12.919646
v -3.700792 12.972048 -12.901835
v -3.700792 12.987997 -12.901835
v -3.702169 12.987997 -12.902152
v -3.702169 12.972997 -12.902152
v -3.779340 12.970063 -12.919964
v -3.779340 12.970063 -12.919964
v -3.702169 12.972997 -12.902152
v -10.024908 12.972997 -23.018534
v -10.042719 12.970063 -22.941370
v -3.702169 12.972997 -12.902152
v -3.702169 12.987997 -12.902152
v -10.024908 12.987997 -23.018534
v -10.024908 12.972997 -23.018534
v -10.024589 12.987997 -23.019911
v -10.024908 12.987997 -23.018534
v -3.702169 12.987997 -12.902152
v -3.700792 12.987997 -12.901835
v -3.700792 12.987997 -12.901835
v -3.700792 12.972048 -12.901835
v -10.024589 12.972048 -23.019911
v -10.024589 12.987997 -23.019911
v -3.700792 12.972048 -12.901835
v -3.777962 12.969114 -12.919646
v -10.042401 12.969114 -22.942748
v -10.024589 12.972048 -23.019911
v -3.777962 12.969114 -12.919646
v -3.777962 12.932477 -12.919646
v -10.042401 12.932477 -22.942748
v -10.042401 12.969114 -22.942748
v -10.038172 12.945770 -22.961064
v -10.042401 12.932477 -22.942748
v -3.777962 12.932477 -12.919646
v -3.759644 12.945770 -12.915419
v -10.037948 12.945063 -22.962039
v -10.038172 12.945770 -22.961064
v -3.759644 12.945770 -12.915419
v -3.758669 12.945063 -12.915193
v -3.758669 12.945063 -12.915193
v -3.779340 12.930063 -12.919964
v -10.042719 12.930063 -22.941370
v -10.037948 12.945063 -22.962039
v -3.779340 12.930063 -12.919964
v -3.779340 12.970063 -12.919964
v -10.042719 12.970063 -22.941370
v -10.042719 12.930063 -22.941370
f 189 190 181
f 184 185 186
f 189 181 182
f 184 186 187
f 188 189 182
f 183 184 187
f 188 182 183
f 183 187 188
f 191 192 193
f 196 197 198
f 191 193 194
f 196 198 199
f 200 191 194
f 195 196 199
f 200 194 195
f 195 199 200
f 201 202 204
f 204 202 203
f 205 206 208
f 208 206 207
f 209 210 212
f 212 210 211
f 213 214 216
f 216 214 215
f 217 218 220
f 220 218 219
f 221 222 224
f 224 222 223
f 225 226 228
f 228 226 227
f 229 230 232
f 232 230 231
f 233 234 236
f 236 234 235
f 237 238 240
f 240 238 239
o item_958c4ea6_1142185
v -7.889595 12.945063 -12.273868
v -7.884825 12.930063 -12.294537
v -7.884825 12.970063 -12.294537
v -7.902635 12.972997 -12.217373
v -7.902635 12.987997 -12.217373
v -7.902953 12.987997 -12.215995
v -7.902953 12.972048 -12.215995
v -7.885143 12.969114 -12.293159
v -7.885143 12.932477 -12.293159
v -7.889370 12.945770 -12.274842
v -13.276257 12.930063 -20.920829
v -13.296927 12.945063 -20.925600
v -13.295953 12.945770 -20.925375
v -13.277635 12.932477 -20.921147
v -13.277635 12.969114 -20.921147
v -13.354806 12.972048 -20.938959
v -13.354806 12.987997 -20.938959
v -13.353428 12.987997 -20.938641
v -13.353428 12.972997 -20.938641
v -13.276257 12.970063 -20.920829
v -7.902635 12.972997 -12.217373
v -7.884825 12.970063 -12.294537
v -13.276257 12.970063 -20.920829
v -13.353428 12.972997 -20.938641
v -13.353428 12.972997 -20.938641
v -13.353428 12.987997 -20.938641
v -7.902635 12.987997 -12.217373
v -7.902635 12.972997 -12.217373
v -7.902953 12.987997 -12.215995
v -7.902635 12.987997 -12.217373
v -13.353428 12.987997 -20.938641
v -13.354806 12.987997 -20.938959
v -13.354806 12.987997 -20.938959
v -13.354806 12.972048 -20.938959
v -7.902953 12.972048 -12.215995
v -7.902953 12.987997 -12.215995
v -13.354806 12.972048 -20.938959
v -13.277635 12.969114 -20.921147
v -7.885143 12.969114 -12.293159
v -7.902953 12.972048 -12.215995
v -7.885143 12.932477 -12.293159
v -7.885143 12.969114 -12.293159
v -13.277635 12.969114 -20.921147
v -13.277635 12.932477 -20.921147
v -7.889370 12.945770 -12.274842
v -7.885143 12.932477 -12.293159
v -13.277635 12.932477 -20.921147
v -13.295953 12.945770 -20.925375
v -13.295953 12.945770 -20.925375
v -13.296927 12.945063 -20.925600
v -7.889595 12.945063 -12.273868
v -7.889370 12.945770 -12.274842
v -13.296927 12.945063 -20.925600
v -13.276257 12.930063 -20.920829
v -7.884825 12.930063 -12.294537
v -7.889595 12.945063 -12.273868
v -7.884825 12.970063 -12.294537
v -7.884825 12.930063 -12.294537
v -13.276257 12.930063 -20.920829
v -13.276257 12.970063 -20.920829
f 249 250 241
f 244 245 246
f 249 241 242
f 244 246 247
f 248 249 242
f 243 244 247
f 248 242 243
f 243 247 248
f 251 252 253
f 256 257 258
f 251 253 254
f 256 258 259
f 260 251 254
f 255 256 259
f 260 254 255
f 255 259 260
f 261 262 264
f 264 262 263
f 265 266 268
f 268 266 267
f 269 270 272
f 272 270 271
f 273 274 276
f 276 274 275
f 277 278 280
f 280 278 279
f 281 282 284
f 284 282 283
f 285 286 288
f 288 286 287
f 289 290 292
f 292 290 291
f 293 294 296
f 296 294 295
f 297 298 300
f 300 298 299
o item_958c4ea6_1145922
v -13.296428 12.945063 -20.925686
v -13.275759 12.930063 -20.920916
v -13.275759 12.970063 -20.920916
v -13.352923 12.972997 -20.938726
v -13.352923 12.987997 -20.938726
v -13.354301 12.987997 -20.939044
v -13.354301 12.972048 -20.939044
v -13.277137 12.969114 -20.921234
v -13.277137 12.932477 -20.921234
v -13.295454 12.945770 -20.925461
v -10.042335 12.930063 -22.941806
v -10.037564 12.945063 -22.962476
v -10.037789 12.945770 -22.961502
v -10.042017 12.932477 -22.943184
v -10.042017 12.969114 -22.943184
v -10.024205 12.972048 -23.020354
v -10.024205 12.987997 -23.020354
v -10.024523 12.987997 -23.018976
v -10.024523 12.972997 -23.018976
v -10.042335 12.970063 -22.941806
v -13.352923 12.972997 -20.938726
v -13.275759 12.970063 -20.920916
v -10.042335 12.970063 -22.941806
v -10.024523 12.972997 -23.018976
v -13.352923 12.987997 -20.938726
v -13.352923 12.972997 -20.938726
v -10.024523 12.972997 -23.018976
v -10.024523 12.987997 -23.018976
v -10.024523 12.987997 -23.018976
v -10.024205 12.987997 -23.020354
v -13.354301 12.987997 -20.939044
v -13.352923 12.987997 -20.938726
v -13.354301 12.972048 -20.939044
v -13.354301 12.987997 -20.939044
v -10.024205 12.987997 -23.020354
v -10.024205 12.972048 -23.020354
v -10.024205 12.972048 -23.020354
v -10.042017 12.969114 -22.943184
v -13.277137 12.969114 -20.921234
v -13.354301 12.972048 -20.939044
v -13.277137 12.932477 -20.921234
v -13.277137 12.969114 -20.921234
v -10.042017 12.969114 -22.943184
v -10.042017 12.932477 -22.943184
v -10.042017 12.932477 -22.943184
v -10.037789 12.945770 -22.961502
v -13.295454 12.945770 -20.925461
v -13.277137 12.932477 -20.921234
v -10.037789 12.945770 -22.961502
v -10.037564 12.945063 -22.962476
v -13.296428 12.945063 -20.925686
v -13.295454 12.945770 -20.925461
v -13.275759 12.930063 -20.920916
v -13.296428 12.945063 -20.925686
v -10.037564 12.945063 -22.962476
v -10.042335 12.930063 -22.941806
v -13.275759 12.970063 -20.920916
v -13.275759 12.930063 -20.920916
v -10.042335 12.930063 -22.941806
v -10.042335 12.970063 -22.941806
f 309 310 301
f 304 305 306
f 309 301 302
f 304 306 307
f 308 309 302
f 303 304 307
f 308 302 303
f 303 307 308
f 311 312 313
f 316 317 318
f 311 313 314
f 316 318 319
f 320 311 314
f 315 316 319
f 320 314 315
f 315 319 320
f 321 322 324
f 324 322 323
f 325 326 328
f 328 326 327
f 329 330 332
f 332 330 331
f 333 334 336
f 336 334 335
f 337 338 340
f 340 338 339
f 341 342 344
f 344 342 343
f 345 346 348
f 348 346 347
f 349 350 352
f 352 350 351
f 353 354 356
f 356 354 355
f 357 358 360
f 360 358 359
o item_958c4ea6_1141071
v -14.780821 12.945063 -34.500573
v -14.894240 12.930064 -34.470872
v -14.894240 12.970063 -34.470872
v -14.470812 12.972997 -34.581754
v -14.470812 12.987996 -34.581754
v -14.463251 12.987996 -34.583734
v -14.463251 12.972048 -34.583734
v -14.886679 12.969114 -34.472852
v -14.886679 12.932478 -34.472852
v -14.786168 12.945770 -34.499173
v -20.232489 12.930064 -32.311386
v -20.226870 12.945063 -32.297479
v -20.227135 12.945770 -32.298134
v -20.232115 12.932478 -32.310459
v -20.232115 12.969114 -32.310459
v -20.211136 12.972048 -32.258537
v -20.211136 12.987996 -32.258537
v -20.211511 12.987996 -32.259464
v -20.211511 12.972997 -32.259464
v -20.232489 12.970063 -32.311386
v -20.232489 12.970063 -32.311386
v -20.211511 12.972997 -32.259464
v -14.470812 12.972997 -34.581754
v -14.894240 12.970063 -34.470872
v -20.211511 12.972997 -32.259464
v -20.211511 12.987996 -32.259464
v -14.470812 12.987996 -34.581754
v -14.470812 12.972997 -34.581754
v -20.211511 12.987996 -32.259464
v -20.211136 12.987996 -32.258537
v -14.463251 12.987996 -34.583734
v -14.470812 12.987996 -34.581754
v -20.211136 12.987996 -32.258537
v -20.211136 12.972048 -32.258537
v -14.463251 12.972048 -34.583734
v -14.463251 12.987996 -34.583734
v -14.886679 12.969114 -34.472852
v -14.463251 12.972048 -34.583734
v -20.211136 12.972048 -32.258537
v -20.232115 12.969114 -32.310459
v -20.232115 12.969114 -32.310459
v -20.232115 12.932478 -32.310459
v -14.886679 12.932478 -34.472852
v -14.886679 12.969114 -34.472852
v -20.232115 12.932478 -32.310459
v -20.227135 12.945770 -32.298134
v -14.786168 12.945770 -34.499173
v -14.886679 12.932478 -34.472852
v -20.227135 12.945770 -32.298134
v -20.226870 12.945063 -32.297479
v -14.780821 12.945063 -34.500573
v -14.786168 12.945770 -34.499173
v -14.894240 12.930064 -34.470872
v -14.780821 12.945063 -34.500573
v -20.226870 12.945063 -32.297479
v -20.232489 12.930064 -32.311386
v -20.232489 12.930064 -32.311386
v -20.232489 12.970063 -32.311386
v -14.894240 12.970063 -34.470872
v -14.894240 12.930064 -34.470872
f 369 370 361
f 364 365 366
f 369 361 362
f 364 366 367
f 368 369 362
f 363 364 367
f 368 362 363
f 363 367 368
f 371 372 373
f 376 377 378
f 371 373 374
f 376 378 379
f 380 371 374
f 375 376 379
f 380 374 375
f 375 379 380
f 381 382 384
f 384 382 383
f 385 386 388
f 388 386 387
f 389 390 392
f 392 390 391
f 393 394 396
f 396 394 395
f 397 398 400
f 400 398 399
f 401 402 404
f 404 402 403
f 405 406 408
f 408 406 407
f 409 410 412
f 412 410 411
f 413 414 416
f 416 414 415
f 417 418 420
f 420 418 419
o item_958c4ea6_1141328
v -30.244052 12.945063 -28.253174
v -30.249671 12.930064 -28.267081
v -30.249671 12.970063 -28.267081
v -30.228693 12.972997 -28.215159
v -30.228693 12.987996 -28.215159
v -30.228318 12.987996 -28.214232
v -30.228318 12.972048 -28.214232
v -30.249296 12.969114 -28.266154
v -30.249296 12.932478 -28.266154
v -30.244317 12.945770 -28.253829
v -31.666963 12.930064 -27.693743
v -31.675249 12.945063 -27.674210
v -31.674858 12.945770 -27.675131
v -31.667515 12.932478 -27.692441
v -31.667515 12.969114 -27.692441
v -31.698449 12.972048 -27.619519
v -31.698449 12.987996 -27.619519
v -31.697897 12.987996 -27.620821
v -31.697897 12.972997 -27.620821
v -31.666963 12.970063 -27.693743
v -30.228693 12.972997 -28.215159
v -30.249671 12.970063 -28.267081
v -31.666963 12.970063 -27.693743
v -31.697897 12.972997 -27.620821
v -31.697897 12.972997 -27.620821
v -31.697897 12.987996 -27.620821
v -30.228693 12.987996 -28.215159
v -30.228693 12.972997 -28.215159
v -30.228318 12.987996 -28.214232
v -30.228693 12.987996 -28.215159
v -31.697897 12.987996 -27.620821
v -31.698449 12.987996 -27.619519
v -31.698449 12.987996 -27.619519
v -31.698449 12.972048 -27.619519
v -30.228318 12.972048 -28.214232
v -30.228318 12.987996 -28.214232
v -31.698449 12.972048 -27.619519
v -31.667515 12.969114 -27.692441
v -30.249296 12.969114 -28.266154
v -30.228318 12.972048 -28.214232
v -31.667515 12.969114 -27.692441
v -31.667515 12.932478 -27.692441
v -30.249296 12.932478 -28.266154
v -30.249296 12.969114 -28.266154
v -30.244317 12.945770 -28.253829
v -30.249296 12.932478 -28.266154
v -31.667515 12.932478 -27.692441
v -31.674858 12.945770 -27.675131
v -30.244052 12.945063 -28.253174
v -30.244317 12.945770 -28.253829
v -31.674858 12.945770 -27.675131
v -31.675249 12.945063 -27.674210
v -31.675249 12.945063 -27.674210
v -31.666963 12.930064 -27.693743
v -30.249671 12.930064 -28.267081
v -30.244052 12.945063 -28.253174
v -30.249671 12.970063 -28.267081
v -30.249671 12.930064 -28.267081
v -31.666963 12.930064 -27.693743
v -31.666963 12.970063 -27.693743
f 429 430 421
f 424 425 426
f 429 421 422
f 424 426 427
f 428 429 422
f 423 424 427
f 428 422 423
f 423 427 428
f 431 432 433
f 436 437 438
f 431 433 434
f 436 438 439
f 440 431 434
f 435 436 439
f 440 434 435
f 435 439 440
f 441 442 444
f 444 442 443
f 445 446 448
f 448 446 447
f 449 450 452
f 452 450 451
f 453 454 456
f 456 454 455
f 457 458 460
f 460 458 459
f 461 462 464
f 464 462 463
f 465 466 468
f 468 466 467
f 469 470 472
f 472 470 471
f 473 474 476
f 476 474 475
f 477 478 480
f 480 478 479
o item_958c4ea6_1141376
v -31.674716 12.945063 -27.673714
v -31.666433 12.930064 -27.693238
v -31.666433 12.970063 -27.693238
v -31.697355 12.972997 -27.620348
v -31.697355 12.987996 -27.620348
v -31.697908 12.987996 -27.619046
v -31.697908 12.972048 -27.619046
v -31.666985 12.969114 -27.691936
v -31.666985 12.932478 -27.691936
v -31.674326 12.945770 -27.674634
v -32.254012 12.930064 -29.145734
v -32.262295 12.945063 -29.126210
v -32.261905 12.945770 -29.127130
v -32.254565 12.932478 -29.144432
v -32.254565 12.969114 -29.144432
v -32.285487 12.972048 -29.071542
v -32.285487 12.987996 -29.071542
v -32.284935 12.987996 -29.072844
v -32.284935 12.972997 -29.072844
v -32.254012 12.970063 -29.145734
v -32.254012 12.970063 -29.145734
v -32.284935 12.972997 -29.072844
v -31.697355 12.972997 -27.620348
v -31.666433 12.970063 -27.693238
v -32.284935 12.972997 -29.072844
v -32.284935 12.987996 -29.072844
v -31.697355 12.987996 -27.620348
v -31.697355 12.972997 -27.620348
v -32.284935 12.987996 -29.072844
v -32.285487 12.987996 -29.071542
v -31.697908 12.987996 -27.619046
v -31.697355 12.987996 -27.620348
v -32.285487 12.987996 -29.071542
v -32.285487 12.972048 -29.071542
v -31.697908 12.972048 -27.619046
v -31.697908 12.987996 -27.619046
v -31.666985 12.969114 -27.691936
v -31.697908 12.972048 -27.619046
v -32.285487 12.972048 -29.071542
v -32.254565 12.969114 -29.144432
v -32.254565 12.969114 -29.144432
v -32.254565 12.932478 -29.144432
v -31.666985 12.932478 -27.691936
v -31.666985 12.969114 -27.691936
v -32.254565 12.932478 -29.144432
v -32.261905 12.945770 -29.127130
v -31.674326 12.945770 -27.674634
v -31.666985 12.932478 -27.691936
v -32.261905 12.945770 -29.127130
v -32.262295 12.945063 -29.126210
v -31.674716 12.945063 -27.673714
v -31.674326 12.945770 -27.674634
v -31.666433 12.930064 -27.693238
v -31.674716 12.945063 -27.673714
v -32.262295 12.945063 -29.126210
v -32.254012 12.930064 -29.145734
v -32.254012 12.930064 -29.145734
v -32.254012 12.970063 -29.145734
v -31.666433 12.970063 -27.693238
v -31.666433 12.930064 -27.693238
f 489 490 481
f 484 485 486
f 489 481 482
f 484 486 487
f 488 489 482
f 483 484 487
f 488 482 483
f 483 487 488
f 491 492 493
f 496 497 498
f 491 493 494
f 496 498 499
f 500 491 494
f 495 496 499
f 500 494 495
f 495 499 500
f 501 502 504
f 504 502 503
f 505 506 508
f 508 506 507
f 509 510 512
f 512 510 511
f 513 514 516
f 516 514 515
f 517 518 520
f 520 518 519
f 521 522 524
f 524 522 523
f 525 526 528
f 528 526 527
f 529 530 532
f 532 530 531
f 533 534 536
f 536 534 535
f 537 538 540
f 540 538 539
o item_958c4ea6_1141424
v -32.262600 12.945063 -29.127685
v -32.254313 12.930064 -29.147219
v -32.254313 12.970063 -29.147219
v -32.285248 12.972997 -29.074296
v -32.285248 12.987996 -29.074296
v -32.285800 12.987996 -29.072994
v -32.285800 12.972048 -29.072994
v -32.254866 12.969114 -29.145916
v -32.254866 12.932478 -29.145916
v -32.262209 12.945770 -29.128606
v -38.523720 12.930064 -26.611051
v -38.518101 12.945063 -26.597143
v -38.518365 12.945770 -26.597799
v -38.523345 12.932478 -26.610124
v -38.523345 12.969114 -26.610124
v -38.502367 12.972048 -26.558201
v -38.502367 12.987996 -26.558201
v -38.502742 12.987996 -26.559129
v -38.502742 12.972997 -26.559129
v -38.523720 12.970063 -26.611051
v -32.285248 12.972997 -29.074296
v -32.254313 12.970063 -29.147219
v -38.523720 12.970063 -26.611051
v -38.502742 12.972997 -26.559129
v -32.285248 12.987996 -29.074296
v -32.285248 12.972997 -29.074296
v -38.502742 12.972997 -26.559129
v -38.502742 12.987996 -26.559129
v -32.285800 12.987996 -29.072994
v -32.285248 12.987996 -29.074296
v -38.502742 12.987996 -26.559129
v -38.502367 12.987996 -26.558201
v -38.502367 12.987996 -26.558201
v -38.502367 12.972048 -26.558201
v -32.285800 12.972048 -29.072994
v -32.285800 12.987996 -29.072994
v -38.502367 12.972048 -26.558201
v -38.523345 12.969114 -26.610124
v -32.254866 12.969114 -29.145916
v -32.285800 12.972048 -29.072994
v -32.254866 12.932478 -29.145916
v -32.254866 12.969114 -29.145916
v -38.523345 12.969114 -26.610124
v -38.523345 12.932478 -26.610124
v -32.262209 12.945770 -29.128606
v -32.254866 12.932478 -29.145916
v -38.523345 12.932478 -26.610124
v -38.518365 12.945770 -26.597799
v -32.262600 12.945063 -29.127685
v -32.262209 12.945770 -29.128606
v -38.518365 12.945770 -26.597799
v -38.518101 12.945063 -26.597143
v -38.518101 12.945063 -26.597143
v -38.523720 12.930064 -26.611051
v -32.254313 12.930064 -29.147219
v -32.262600 12.945063 -29.127685
v -32.254313 12.970063 -29.147219
v -32.254313 12.930064 -29.147219
v -38.523720 12.930064 -26.611051
v -38.523720 12.970063 -26.611051
f 549 550 541
f 544 545 546
f 549 541 542
f 544 546 547
f 548 549 542
f 543 544 547
f 548 542 543
f 543 547 548
f 551 552 553
f 556 557 558
f 551 553 554
f 556 558 559
f 560 551 554
f 555 556 559
f 560 554 555
f 555 559 560
f 561 562 564
f 564 562 563
f 565 566 568
f 568 566 567
f 569 570 572
f 572 570 571
f 573 574 576
f 576 574 575
f 577 578 580
f 580 578 579
f 581 582 584
f 584 582 583
f 585 586 588
f 588 586 587
f 589 590 592
f 592 590 591
f 593 594 596
f 596 594 595
f 597 598 600
f 600 598 599
