# DIMKO.app — selection export
# Generated: 2026-07-31T07:58:15.467Z
o item_958c4ea6_1132319
v -9.105000 20.594995 11.100000
v -9.105707 20.595702 11.100000
v -9.119000 20.582409 11.100000
v -9.119000 20.618944 11.100000
v -8.461000 20.586094 11.100000
v -8.461000 20.549459 11.100000
v -8.474293 20.562752 11.100000
v -8.475000 20.562045 11.100000
v -8.460000 20.547045 11.100000
v -8.460000 20.587045 11.100000
v -9.120000 20.619995 11.100000
v -9.120000 20.579995 11.100000
v -9.105000 20.594995 6.412586
v -9.120000 20.579995 6.400000
v -9.120000 20.619995 6.400000
v -8.460000 20.587045 6.953806
v -8.460000 20.547045 6.953806
v -8.475000 20.562045 6.941219
v -8.474293 20.562752 6.941813
v -8.461000 20.549459 6.952967
v -8.461000 20.586094 6.952967
v -9.119000 20.618944 6.400839
v -9.119000 20.582409 6.400839
v -9.105707 20.595702 6.411993
v -9.120000 20.619995 11.100000
v -8.460000 20.587045 11.100000
v -8.460000 20.587045 6.953806
v -9.120000 20.619995 6.400000
v -9.119000 20.618944 11.100000
v -9.119000 20.582409 11.100000
v -9.119000 20.582409 6.400839
v -9.119000 20.618944 6.400839
v -9.120000 20.579995 6.400000
v -9.105000 20.594995 6.412586
v -9.105000 20.594995 11.100000
v -9.120000 20.579995 11.100000
v -9.120000 20.579995 11.100000
v -9.120000 20.619995 11.100000
v -9.120000 20.619995 6.400000
v -9.120000 20.579995 6.400000
v -9.119000 20.618944 6.400839
v -8.461000 20.586094 6.952967
v -8.461000 20.586094 11.100000
v -9.119000 20.618944 11.100000
v -8.461000 20.549459 11.100000
v -8.461000 20.586094 11.100000
v -8.461000 20.586094 6.952967
v -8.461000 20.549459 6.952967
v -8.474293 20.562752 11.100000
v -8.461000 20.549459 11.100000
v -8.461000 20.549459 6.952967
v -8.474293 20.562752 6.941813
v -8.475000 20.562045 11.100000
v -8.474293 20.562752 11.100000
v -8.474293 20.562752 6.941813
v -8.475000 20.562045 6.941219
v -8.475000 20.562045 6.941219
v -8.460000 20.547045 6.953806
v -8.460000 20.547045 11.100000
v -8.475000 20.562045 11.100000
v -8.460000 20.587045 11.100000
v -8.460000 20.547045 11.100000
v -8.460000 20.547045 6.953806
v -8.460000 20.587045 6.953806
v -9.105707 20.595702 11.100000
v -9.105000 20.594995 11.100000
v -9.105000 20.594995 6.412586
v -9.105707 20.595702 6.411993
v -9.119000 20.582409 11.100000
v -9.105707 20.595702 11.100000
v -9.105707 20.595702 6.411993
v -9.119000 20.582409 6.400839
f 12 1 2
f 6 7 8
f 12 2 3
f 6 8 9
f 11 12 3
f 5 6 9
f 11 3 4
f 5 9 10
f 10 11 4
f 4 5 10
f 23 24 13
f 17 18 19
f 23 13 14
f 17 19 20
f 22 23 14
f 16 17 20
f 22 14 15
f 16 20 21
f 21 22 15
f 15 16 21
f 25 26 28
f 28 26 27
f 29 30 32
f 32 30 31
f 33 34 36
f 36 34 35
f 37 38 40
f 40 38 39
f 41 42 44
f 44 42 43
f 45 46 48
f 48 46 47
f 49 50 52
f 52 50 51
f 53 54 56
f 56 54 55
f 57 58 60
f 60 58 59
f 61 62 64
f 64 62 63
f 65 66 68
f 68 66 67
f 69 70 72
f 72 70 71
